<svg xmlns="http://www.w3.org/2000/svg" width="236.598" height="236.593" viewBox="0 0 236.598 236.593">
  <g id="Group_16126" data-name="Group 16126" transform="translate(-73.689 -73.693)">
    <path id="Path_1863" data-name="Path 1863" d="M392.633,222.2a21.933,21.933,0,1,0,21.939,21.933A21.933,21.933,0,0,0,392.633,222.2Zm0,37.021a15.088,15.088,0,1,1,15.087-15.088A15.11,15.11,0,0,1,392.633,259.219Z" transform="translate(-104.285 -52.143)" fill="#fff"/>
    <path id="Path_1864" data-name="Path 1864" d="M266.067,95.632a21.936,21.936,0,1,0-21.94,21.934A21.94,21.94,0,0,0,266.067,95.632Zm-37.021,0a15.085,15.085,0,1,1,15.081,15.087A15.1,15.1,0,0,1,229.046,95.632Z" transform="translate(-52.143)" fill="#fff"/>
    <path id="Path_1865" data-name="Path 1865" d="M95.628,222.2a21.936,21.936,0,1,0,21.934,21.933A21.938,21.938,0,0,0,95.628,222.2Zm0,37.021a15.085,15.085,0,1,1,15.087-15.088A15.1,15.1,0,0,1,95.628,259.219Z" transform="translate(0 -52.143)" fill="#fff"/>
    <path id="Path_1866" data-name="Path 1866" d="M244.133,370.694a21.936,21.936,0,1,0,21.934,21.94A21.94,21.94,0,0,0,244.133,370.694Zm0,37.027a15.088,15.088,0,1,1,15.087-15.087A15.1,15.1,0,0,1,244.133,407.721Z" transform="translate(-52.143 -104.281)" fill="#fff"/>
    <path id="Path_1867" data-name="Path 1867" d="M345.473,345.469a12.448,12.448,0,1,0,17.6,0A12.44,12.44,0,0,0,345.473,345.469Z" transform="translate(-94.146 -94.145)" fill="#fff"/>
    <path id="Path_1868" data-name="Path 1868" d="M363.07,153.06a12.447,12.447,0,1,0-17.6,0A12.439,12.439,0,0,0,363.07,153.06Z" transform="translate(-94.146 -20.406)" fill="#fff"/>
    <path id="Path_1869" data-name="Path 1869" d="M153.056,153.061a12.445,12.445,0,1,0-17.6,0A12.432,12.432,0,0,0,153.056,153.061Z" transform="translate(-20.406 -20.407)" fill="#fff"/>
    <path id="Path_1870" data-name="Path 1870" d="M135.459,345.477a12.445,12.445,0,1,0,17.6,0A12.432,12.432,0,0,0,135.459,345.477Z" transform="translate(-20.406 -94.146)" fill="#fff"/>
    <text id="_" data-name="$" transform="translate(162.689 219.693)" fill="#87f2e7" font-size="85" font-family="SegoeUI, Segoe UI"><tspan x="0" y="0">$</tspan></text>
  </g>
</svg>
