<svg xmlns="http://www.w3.org/2000/svg" width="222" height="221.903" viewBox="0 0 222 221.903">
  <g id="Group_16127" data-name="Group 16127" transform="translate(-107 -230.597)">
    <path id="Path_1874" data-name="Path 1874" d="M154.007,452.5c-.092-.031-.183-.066-.274-.1a4.157,4.157,0,0,0-.96-.274,51.971,51.971,0,0,1-43.862-37.573c-.587-2.106-.979-4.319-1.36-6.46-.177-1-.354-2-.551-2.99V269.741c.04-.173.084-.346.128-.519a11.524,11.524,0,0,0,.284-1.347c2.692-20.815,21.214-37.156,42.167-37.2,24.052-.052,48.705-.077,75.367-.077q30.613,0,61.225.041a42.868,42.868,0,0,1,39.9,27.59c3.3,8.394,3.137,17.315,2.693,25.732-.205,3.884-3.733,6.926-8.03,6.927-.177,0-.353-.006-.53-.016a8.03,8.03,0,0,1-7.52-7.906c-.05-1.9-.04-3.848-.03-5.727,0-.918.009-1.836.008-2.753-.03-15.993-11.676-27.6-27.691-27.607q-15.863,0-31.73,0l-38.281,0q-9.036,0-18.073-.012t-18.073-.012c-11.142,0-20.192.021-28.479.066a27.205,27.205,0,0,0-22.823,12.375,25.934,25.934,0,0,0-1.931,25c4.72,10.633,13.291,16.027,25.476,16.032q12.137.005,24.279,0l58.793-.007q25.894,0,51.78.026a42.921,42.921,0,0,1,42.987,42.659c.118,20.729.118,42.6,0,66.861a43.029,43.029,0,0,1-31.379,40.981c-1.638.459-3.344.816-4.994,1.161-.763.159-1.527.319-2.287.489Zm-30.736-115.02q0,31.224.006,62.448c.011,20.7,15.667,36.305,36.418,36.309q29.278,0,58.561,0,33.344,0,66.685,0c16.053,0,27.71-11.691,27.718-27.8q.015-32.013,0-64.026c-.007-16.38-11.485-27.821-27.911-27.821q-17.357,0-34.717-.014-17.869-.01-35.736-.013c-23.774,0-42.985.029-60.457.093h-.3c-11.942,0-21.264-2.744-29.337-8.635l-.925-.675Z" fill="#fff"/>
    <path id="Path_1875" data-name="Path 1875" d="M298.028,306.836q-4.358,0-8.716-.009t-8.717-.009l-72.633,0q-15.984,0-31.967-.006c-4.336,0-7.183-1.721-8.46-5.11a8.09,8.09,0,0,1,6.93-11.124,12.006,12.006,0,0,1,1.213-.041l134.733,0a8.2,8.2,0,0,1,7.473,12.363,8.179,8.179,0,0,1-6.977,3.892C307.137,306.822,303.045,306.836,298.028,306.836Z" transform="translate(-25.021 -25.059)" fill="#80fff2"/>
    <path id="Path_1876" data-name="Path 1876" d="M403.472,484.082A10.41,10.41,0,0,1,396,481.05a10.252,10.252,0,0,1-2.927-7.386,10.143,10.143,0,0,1,10.4-10.2,10.311,10.311,0,0,1,.035,20.621Z" transform="translate(-119.605 -97.36)" fill="#80fff2"/>
  </g>
</svg>
