<svg xmlns="http://www.w3.org/2000/svg" width="297.416" height="222.179" viewBox="0 0 297.416 222.179">
  <g id="Group_16125" data-name="Group 16125" transform="translate(-1030.317 -1625.004)">
    <g id="Path_1860" data-name="Path 1860" transform="translate(41.568 2770.369)" fill="none">
      <path d="M1246.763-1066.641A39.381,39.381,0,0,1,1207.432-1106a39.408,39.408,0,0,1,39.553-39.365,39.37,39.37,0,0,1,39.179,39.442A39.338,39.338,0,0,1,1246.763-1066.641Z" stroke="none"/>
      <path d="M 1246.847900390625 -1066.64111328125 L 1246.847900390625 -1076.64111328125 C 1262.982543945312 -1076.64111328125 1276.1337890625 -1089.785522460938 1276.164184570312 -1105.942138671875 C 1276.194702148438 -1122.100952148438 1263.086791992188 -1135.300170898438 1246.822387695312 -1135.365600585938 C 1238.954223632812 -1135.365600585938 1231.562866210938 -1132.293823242188 1226.010131835938 -1126.716186523438 C 1220.477905273438 -1121.159301757812 1217.431396484375 -1113.802368164062 1217.432006835938 -1106.000854492188 C 1217.433227539062 -1089.811767578125 1230.572875976562 -1076.64111328125 1246.783325195312 -1076.641235351562 L 1246.847900390625 -1066.64111328125 M 1246.847900390625 -1066.64111328125 C 1246.805541992188 -1066.640991210938 1246.764892578125 -1066.641235351562 1246.722534179688 -1066.641235351562 C 1225.013916015625 -1066.640991210938 1207.43359375 -1084.35791015625 1207.432006835938 -1106.000122070312 C 1207.430419921875 -1127.6240234375 1225.072875976562 -1145.441650390625 1246.985107421875 -1145.365234375 C 1268.656372070312 -1145.277709960938 1286.205078125 -1127.6279296875 1286.164184570312 -1105.92333984375 C 1286.123168945312 -1084.213989257812 1268.525146484375 -1066.64111328125 1246.847900390625 -1066.64111328125 Z" stroke="none" fill="#80fff2"/>
    </g>
    <g id="Path_1861" data-name="Path 1861" transform="translate(2719.846 777.389)" fill="none">
      <path d="M-1656.06,1000.1q13.659,0,27.318.006a8.593,8.593,0,0,1,1.88.146,5.3,5.3,0,0,1,4.157,5.288c.012,4.784,0,9.567,0,14.351q0,20.543-.009,41.086a7.9,7.9,0,0,1-.215,2.015,5.253,5.253,0,0,1-5.114,3.9c-4.516.021-9.033.008-13.55.008q-21.053,0-42.106-.01a7.332,7.332,0,0,1-2.01-.239,5.3,5.3,0,0,1-3.814-5.265c-.02-3.035-.005-6.071-.005-9.106q0-23.166,0-46.331a5.987,5.987,0,0,1,.523-2.763,5.235,5.235,0,0,1,4.46-3.061c.29-.025.582-.026.873-.026Z" stroke="none"/>
      <path d="M -1679.525268554688 1010.086791992188 L -1679.523803710938 1042.230102539062 L -1679.526489257812 1054.987548828125 L -1679.524169921875 1056.888427734375 L -1655.044067382812 1056.8974609375 L -1641.523071289062 1056.89697265625 L -1634.116943359375 1056.90087890625 L -1632.708618164062 1056.898071289062 L -1632.700805664062 1026.671020507812 L -1632.701049804688 1019.8857421875 L -1632.699584960938 1015.73095703125 L -1632.702514648438 1010.099243164062 L -1645.071044921875 1010.094360351562 L -1662.162841796875 1010.09521484375 L -1679.525268554688 1010.086791992188 M -1645.071044921875 1000.094360351562 C -1639.627685546875 1000.094360351562 -1634.185424804688 1000.095581054688 -1628.742065429688 1000.100830078125 C -1628.1142578125 1000.101318359375 -1627.46875 1000.10888671875 -1626.861694335938 1000.24658203125 C -1624.3720703125 1000.811767578125 -1622.711669921875 1002.933471679688 -1622.704956054688 1005.53466796875 C -1622.692504882812 1010.318359375 -1622.701049804688 1015.10205078125 -1622.701049804688 1019.8857421875 C -1622.700927734375 1033.5810546875 -1622.697875976562 1047.276489257812 -1622.709716796875 1060.971801757812 C -1622.710205078125 1061.64501953125 -1622.751953125 1062.341552734375 -1622.924438476562 1062.987182617188 C -1623.54345703125 1065.3046875 -1625.607421875 1066.877319335938 -1628.038696289062 1066.888671875 C -1632.533081054688 1066.909912109375 -1637.028564453125 1066.89697265625 -1641.523071289062 1066.89697265625 C -1645.987060546875 1066.887329101562 -1650.537231445312 1066.897338867188 -1655.044067382812 1066.8974609375 C -1664.594848632812 1066.8974609375 -1674.1435546875 1066.895874023438 -1683.6943359375 1066.886962890625 C -1684.3662109375 1066.886352539062 -1685.064453125 1066.833618164062 -1685.704833984375 1066.648193359375 C -1688.02978515625 1065.974853515625 -1689.50146484375 1063.926513671875 -1689.518432617188 1061.383666992188 C -1689.538452148438 1058.348510742188 -1689.52392578125 1055.31298828125 -1689.52392578125 1052.277709960938 C -1689.52392578125 1036.833984375 -1689.52294921875 1021.390380859375 -1689.525512695312 1005.946533203125 C -1689.525634765625 1004.989868164062 -1689.43994140625 1004.051147460938 -1689.002319335938 1003.183349609375 C -1688.07763671875 1001.349731445312 -1686.604736328125 1000.301513671875 -1684.542602539062 1000.122314453125 C -1684.252807617188 1000.097045898438 -1683.96044921875 1000.096435546875 -1683.669189453125 1000.096435546875 C -1670.803466796875 1000.0947265625 -1657.936889648438 1000.094360351562 -1645.071044921875 1000.094360351562 Z" stroke="none" fill="#80fff2"/>
    </g>
    <path id="Path_1862" data-name="Path 1862" d="M-561.352-864.094a6.848,6.848,0,0,1-4.985-2.189c-2.743-2.721-5.522-5.5-8.209-8.2q-1.744-1.747-3.488-3.492l-4.467-4.468c-3.74-3.742-7.608-7.611-11.418-11.412a7.085,7.085,0,0,1-2.16-4.15,6.918,6.918,0,0,1,1.765-5.827c.061-.07.153-.164.226-.237l3.075-3.075q12.382-12.383,24.766-24.765a7.114,7.114,0,0,1,3.679-1.966,6.639,6.639,0,0,1,1.366-.142,7.154,7.154,0,0,1,4.526,1.657,6.827,6.827,0,0,1,2.427,4.121,6.9,6.9,0,0,1-2.041,6.443c-1.959,1.981-3.969,3.986-5.912,5.925q-1.392,1.389-2.783,2.779c-.163.163-.312.321-.443.46l-.156.165-1.636,1.712-4.148,4.6h9.305c3.506,0,7.072,0,10.52.009s7.019.009,10.53.009c5.716,0,10.4-.012,14.738-.038a29.628,29.628,0,0,0,23.3-10.966,29.6,29.6,0,0,0,6.869-15.992,30.6,30.6,0,0,0-24.319-33.459,31.552,31.552,0,0,0-6.159-.572h-.058c-2.39,0-4.934.005-8.249.005h-12.555a47.454,47.454,0,0,1-11.06-1.259,41.615,41.615,0,0,1-10.27-3.957,46.065,46.065,0,0,1-14.8-12.5,46.019,46.019,0,0,1-8.02-17.646,42.45,42.45,0,0,1-.887-12.544,44.956,44.956,0,0,1,2.333-11.436,44.451,44.451,0,0,1,4.993-10.092,45.071,45.071,0,0,1,16.3-14.786,44.732,44.732,0,0,1,14.19-4.713,49.4,49.4,0,0,1,7.7-.521h.016l17.585,0h26.6l-5.76-6.14-.25-.268c-.16-.173-.3-.322-.461-.485l-1.628-1.629c-2.322-2.324-4.724-4.728-7.091-7.089a7.254,7.254,0,0,1-2.061-3.766,7,7,0,0,1,1.054-5.313,6.862,6.862,0,0,1,4.39-2.988,8.632,8.632,0,0,1,1.677-.174,6.852,6.852,0,0,1,4.987,2.208c3.7,3.676,7.444,7.428,11.068,11.056q2.249,2.252,4.5,4.5l3.632,3.634c2.747,2.748,5.587,5.59,8.385,8.381a7.009,7.009,0,0,1,2.076,3.751,6.959,6.959,0,0,1-1.817,6.341c-.066.073-.169.176-.278.284l-.1.1-7.3,7.3c-6.565,6.563-13.353,13.35-20.023,20.033a7.423,7.423,0,0,1-3.99,2.209,7.3,7.3,0,0,1-1.305.119,7.079,7.079,0,0,1-4.707-1.8,6.974,6.974,0,0,1-2.313-4.441,6.832,6.832,0,0,1,2.077-5.935c1.954-1.981,3.962-3.984,5.9-5.921q1.42-1.416,2.838-2.834c.181-.18.337-.353.488-.519.065-.071.135-.149.214-.235l5.79-6.164-8.279.049-.267-.016c-.206-.013-.419-.026-.669-.026q-5.314,0-10.628-.007c-3.681,0-7.488-.006-11.233-.006-5.457,0-9.961.007-14.173.023a30.444,30.444,0,0,0-29.417,23.03,30.237,30.237,0,0,0,3.638,23.544,30.7,30.7,0,0,0,19.51,13.743,31.267,31.267,0,0,0,6.654.678h.051c3.373,0,6.823-.007,10.547-.007,3.27,0,6.687,0,10.444.005a45.538,45.538,0,0,1,15.415,2.661,44.7,44.7,0,0,1,18.115,12.258A44.688,44.688,0,0,1-482.888-947.1a44.816,44.816,0,0,1,1.183,12.507,44.663,44.663,0,0,1-8.324,23.986,44.757,44.757,0,0,1-19.229,15.264,43.088,43.088,0,0,1-13.195,3.206c-1.587.122-3.022.182-4.385.184-6.7.009-13.287.01-18.274.01h-26.256l5.619,6.113c.1.106.179.2.252.277.164.181.318.352.5.535q1.49,1.491,2.983,2.982c1.895,1.892,3.854,3.849,5.769,5.779a6.893,6.893,0,0,1,2.119,5.312,7.055,7.055,0,0,1-5.583,6.69A8.765,8.765,0,0,1-561.352-864.094Z" transform="translate(1712.369 2711.277)" fill="#fff"/>
  </g>
</svg>
