<svg xmlns="http://www.w3.org/2000/svg" width="74.632" height="70.504" viewBox="0 0 74.632 70.504"><defs><style>.a{fill:#000b89;}.b{fill:#3776f2;}.c{fill:#29cfbe;stroke:rgba(0,0,0,0);stroke-miterlimit:10;}</style></defs><g transform="translate(-1000 -592.496)"><path class="a" d="M106,349.32a2.72,2.72,0,0,1,2.854-1.63c5.319.051,10.639.016,15.959.03a1.437,1.437,0,0,0,1.147-.463,12.474,12.474,0,0,1,9.531-3.93c4.177.049,8.356.025,12.534.006a8.739,8.739,0,0,1,6.445,2.571c2.831,2.8,5.671,5.6,8.445,8.455a4.9,4.9,0,0,1-2.271,8.293,4.956,4.956,0,0,1-4.87-1.436c-1.893-1.885-3.8-3.762-5.662-5.674a3.1,3.1,0,0,0-2.4-.987c-5.149.024-10.3,0-15.449.029a1.871,1.871,0,0,0-1.093.4c-2.588,2.13-5.147,4.293-7.716,6.445a9.3,9.3,0,0,0,2.473,15.9.923.923,0,0,1,.5.432c.406,1.13.768,2.276,1.149,3.432a4.083,4.083,0,0,1-3.974-1.232c-1.27-1.464-2.711-2.783-4.112-4.129a1.6,1.6,0,0,0-1-.407c-3.182-.031-6.365-.061-9.546,0A2.822,2.822,0,0,1,106,373.808Z" transform="translate(894 269.506)"/><path class="b" d="M240.408,389.046c3.994,0,7.853-.022,11.713.013a2.127,2.127,0,0,1,2.016,2.325c.009,2.817,0,5.635,0,8.452q0,7.14,0,14.281c0,1.789-.833,2.616-2.635,2.618-2.7,0-5.392.02-8.088-.014a2.213,2.213,0,0,0-1.561.582q-6.931,5.85-13.886,11.67c-2.954,2.48-7.113,1.36-8.148-2.2a5.439,5.439,0,0,1,.645-4.328c-.5.412-1.005.819-1.5,1.238a6.83,6.83,0,0,1-3.1,1.821,4.913,4.913,0,0,1-5.035-7.618c.094-.138.195-.271.417-.579a5.314,5.314,0,0,1-3.64.673,4.836,4.836,0,0,1-2.966-1.836c-1.378-1.774-1.335-3.872.189-6.319a5.143,5.143,0,0,1-3.867.535,4.7,4.7,0,0,1-3.5-3.546,4.535,4.535,0,0,1,1.419-4.772c2.349-2.071,4.776-4.054,7.185-6.055a1.221,1.221,0,0,1,.728-.221q6.776-.019,13.553.007a1.39,1.39,0,0,1,.865.386c1.7,1.664,3.362,3.37,5.064,5.034a9.324,9.324,0,0,0,14.514-11.555C240.689,389.479,240.585,389.322,240.408,389.046Z" transform="translate(820.491 232.693)"/><path class="c" d="M14004.417,16787.578c-1.917-1.891-3.813-3.8-5.709-5.709a2.133,2.133,0,0,1-.519-2.469,2.53,2.53,0,0,1,2.095-1.445,6.459,6.459,0,0,1,1.47.822c1.955,1.883,3.868,3.813,5.772,5.746a2.156,2.156,0,0,1,.021,3.127,2.131,2.131,0,0,1-1.5.635A2.317,2.317,0,0,1,14004.417,16787.578Zm20.443.035a2.146,2.146,0,0,1,.046-3.072c1.905-1.934,3.817-3.863,5.769-5.756a4.678,4.678,0,0,1,1.222-.689,2.246,2.246,0,0,1,2.343,1.289,2.1,2.1,0,0,1-.489,2.473c-1.5,1.518-3.012,3.021-4.521,4.529-.413.412-.813.834-1.238,1.23a2.34,2.34,0,0,1-1.6.66A2.12,2.12,0,0,1,14024.86,16787.613Zm-8.658-3.055a2.168,2.168,0,0,1-2.162-2.26q-.019-3.524,0-7.053a2.183,2.183,0,1,1,4.365-.033c.017,1.188,0,2.381,0,3.564,0,1.168.009,2.33,0,3.492a2.165,2.165,0,0,1-2.187,2.289Z" transform="translate(-12978.906 -16180)"/></g></svg>