<svg xmlns="http://www.w3.org/2000/svg" width="62.747" height="69.999" viewBox="0 0 62.747 69.999"><defs><style>.a{fill:#37d8f2;}.b{fill:#000b89;}.c{fill:#4ed2c4;}</style></defs><g transform="translate(-120 -593)"><path class="a" d="M84.882,469.862a7.933,7.933,0,1,1-7.914-7.968A7.919,7.919,0,0,1,84.882,469.862Z" transform="translate(50.985 171.713)"/><path class="a" d="M249.476,164.89a9.839,9.839,0,0,1,3.83,1.666,7.933,7.933,0,1,1-6.185-1.543,1.543,1.543,0,0,0,.3-.123Z" transform="translate(-97.075 428.11)"/><path class="a" d="M249.476,164.89a9.839,9.839,0,0,1,3.83,1.666,7.933,7.933,0,1,1-6.185-1.543,1.543,1.543,0,0,0,.3-.123Z" transform="translate(-73.648 468.686)"/><path class="b" d="M249.476,164.89a9.839,9.839,0,0,1,3.83,1.666,7.933,7.933,0,1,1-6.185-1.543,1.543,1.543,0,0,0,.3-.123Zm4.824,7.659a5.848,5.848,0,0,0-6.116-5.586,5.872,5.872,0,1,0,6.116,5.586Z" transform="translate(-97.075 428.11)"/><path class="c" d="M247.366,576.563a9.885,9.885,0,0,1-3.832-1.664,7.932,7.932,0,1,1,6.186,1.54,1.534,1.534,0,0,0-.3.124Zm6.874-8.22a5.865,5.865,0,0,0-6.32-5.575,5.924,5.924,0,0,0-5.357,6.647,5.993,5.993,0,0,0,6.123,5.078A5.873,5.873,0,0,0,254.24,568.343Z" transform="translate(-97.016 86.436)"/><path class="c" d="M76.968,263.7a7.934,7.934,0,1,1-7.956,7.874A7.91,7.91,0,0,1,76.968,263.7Zm-.03,2.055a5.879,5.879,0,1,0,5.888,5.841A5.909,5.909,0,0,0,76.938,265.758Z" transform="translate(50.988 342.807)"/><path class="b" d="M411.91,469.86a7.933,7.933,0,1,1,7.973,7.9A7.934,7.934,0,0,1,411.91,469.86Zm7.957,5.848a5.881,5.881,0,1,0-5.9-5.83A5.929,5.929,0,0,0,419.867,475.708Z" transform="translate(-245.029 171.713)"/><path class="c" d="M419.808,263.7a7.935,7.935,0,1,1-7.9,7.987A7.937,7.937,0,0,1,419.808,263.7Zm.032,2.055a5.88,5.88,0,0,0-.041,11.759,5.88,5.88,0,1,0,.041-11.759Z" transform="translate(-245.029 342.807)"/><path class="b" d="M84.882,469.862a7.933,7.933,0,1,1-7.914-7.968A7.919,7.919,0,0,1,84.882,469.862Zm-2.054-.027a5.879,5.879,0,1,0-5.861,5.873A5.918,5.918,0,0,0,82.828,469.835Z" transform="translate(50.985 171.713)"/><path class="b" d="M256.277,370.813a7.94,7.94,0,1,1-7.988-7.92A7.948,7.948,0,0,1,256.277,370.813Z" transform="translate(-96.965 257.178)"/><path class="b" d="M356.882,449.744l6.729,3.9-1.019,1.773-6.737-3.9Z" transform="translate(-196.639 182.201)"/><path class="b" d="M192.085,451.519l-6.727,3.892-1.038-1.764,6.738-3.9Z" transform="translate(-48.556 182.199)"/><path class="b" d="M464.655,392.926v7.72h-1.964v-7.72Z" transform="translate(-288.868 231.252)"/><path class="b" d="M185.558,257.542l-1.023-1.777,6.706-3.876,1.03,1.768Z" transform="translate(-48.741 353.006)"/><path class="b" d="M355.876,253.616l1.021-1.776,6.706,3.873-1.015,1.78Z" transform="translate(-196.656 353.049)"/><path class="b" d="M185.669,548.823l6.7,3.871-1.02,1.776-6.7-3.867Z" transform="translate(-48.846 96.668)"/><path class="b" d="M291.407,293.926h1.952v7.667h-1.952Z" transform="translate(-141.001 316.717)"/><path class="b" d="M312.078,211.148l1.77-.751a4.071,4.071,0,0,1-.881,4.834l-1.385-1.375A2.691,2.691,0,0,0,312.078,211.148Z" transform="translate(-158.419 388.824)"/><path class="b" d="M302.454,189.63l2.356,1.25-1.543,1.469-1.222-.644Z" transform="translate(-150.185 406.752)"/><path class="b" d="M277.694,191.621l-1.253.676-1.459-1.494,2.271-1.269Z" transform="translate(-126.823 406.836)"/><path class="c" d="M313.842,606.1a4.174,4.174,0,0,1-.929,4.861l-1.382-1.369a2.712,2.712,0,0,0,.5-2.719Z" transform="translate(-158.374 47.221)"/><path class="c" d="M303.293,588.287l-1.234-.647.4-2.061,2.385,1.229Z" transform="translate(-150.197 64.938)"/><path class="c" d="M277.605,585.465l.423,2.066-1.172.641-1.481-1.5Z" transform="translate(-127.161 65.035)"/><path class="c" d="M140.643,312.366a2.6,2.6,0,0,0,.437-2.613l1.793-.763a4.228,4.228,0,0,1-.85,4.845Z" transform="translate(-10.85 303.711)"/><path class="c" d="M106.146,288.326l.4,2.071-1.235.683-1.421-1.54Z" transform="translate(20.876 321.551)"/><path class="c" d="M133.817,289.65l-1.5,1.488a10.625,10.625,0,0,1-1.02-.512.528.528,0,0,1-.2-.426c.075-.534.2-1.061.343-1.78Z" transform="translate(-2.608 321.471)"/><path class="b" d="M484.68,512.149l-1.352-1.424a2.6,2.6,0,0,0,.435-2.662l1.811-.765A4.162,4.162,0,0,1,484.68,512.149Z" transform="translate(-306.684 132.516)"/><path class="b" d="M449.51,487.574c.056.215.1.342.121.473.09.467.358,1.009.209,1.383-.14.35-.724.522-1.145.793l-1.344-1.493A4.209,4.209,0,0,1,449.51,487.574Z" transform="translate(-275.625 149.543)"/><path class="b" d="M474.711,489.358l-1.166-.62.381-2.068,2.4,1.244Z" transform="translate(-298.238 150.324)"/><path class="c" d="M484.082,309.712l1.76-.739a4.287,4.287,0,0,1-.923,4.9l-1.3-1.507A2.851,2.851,0,0,0,484.082,309.712Z" transform="translate(-306.932 303.727)"/><path class="c" d="M474.8,291.025l-1.26-.671.388-2.08,2.373,1.267Z" transform="translate(-298.229 321.596)"/><path class="c" d="M447.762,291.093l-1.459-1.51,2.292-1.249.426,2.064Z" transform="translate(-274.721 321.543)"/><path class="b" d="M140.5,510.65a2.551,2.551,0,0,0,.447-2.628l1.82-.764a4.269,4.269,0,0,1-.923,4.884Z" transform="translate(-10.727 132.551)"/><path class="b" d="M131.1,486.506l2.371,1.272-1.529,1.477-1.233-.664Z" transform="translate(-2.272 150.465)"/><path class="b" d="M105.074,489.535l-1.471-1.551,2.266-1.216c.073.293.105.4.126.508.092.491.358,1.044.215,1.455C106.089,489.078,105.493,489.259,105.074,489.535Z" transform="translate(21.126 150.238)"/></g></svg>