<svg xmlns="http://www.w3.org/2000/svg" width="70.02" height="70.001" viewBox="0 0 70.02 70.001"><defs><style>.a{fill:#000b89;}.b{fill:#3776f2;}.c{fill:#87f2e7;}.d{fill:#29cfbe;}</style></defs><g transform="translate(-560 -593)"><path class="a" d="M204.778,299.208V245.695c-.255-.012-.473-.031-.692-.032-1.776,0-3.551,0-5.327,0a2.057,2.057,0,0,1-2.036-1.317,2.021,2.021,0,0,1,.692-2.379q7.046-6.048,14.1-12.085a2.013,2.013,0,0,1,2.9-.019q7.087,6.052,14.153,12.127a2.009,2.009,0,0,1,.669,2.329,2.052,2.052,0,0,1-2.084,1.345c-1.957.007-3.913,0-5.978,0v.739c0,1.821-.012,3.642.01,5.462a.786.786,0,0,1-.48.787c-7.941,4.638-12.1,11.554-11.755,20.756.31,8.343,4.463,14.575,11.666,18.766a.918.918,0,0,1,.571.939c-.038,1.114-.067,2.233,0,3.344a2.537,2.537,0,0,1-1.517,2.752Z" transform="translate(379.95 363.746)"/><path class="b" d="M174.135,428.671q0-19.289,0-38.578c0-1.792.738-2.536,2.514-2.537h5.682v41.116Z" transform="translate(398.298 234.33)"/><path class="c" d="M106,478.794a2.572,2.572,0,0,1,2.749-1.521c1.788.071,3.582.018,5.448.018v24.724H107.5a3.151,3.151,0,0,1-1.5-1.5Z" transform="translate(454 160.984)"/><ellipse class="c" cx="18.51" cy="18.512" rx="18.51" ry="18.512" transform="translate(593 617.999)"/><path class="d" d="M0,13.223H16.044L8.021,18.512Zm0,0V5.289L8.021,0l8.023,5.289v7.934Z" transform="translate(603.488 627.254)"/></g></svg>