<svg xmlns="http://www.w3.org/2000/svg" width="175.549" height="39.763" viewBox="0 0 175.549 39.763"><g transform="translate(-103 -87)"><g transform="translate(145.628 87)"><path d="M622.917,56.857l-5.3,2.3v-2.3h-4.038V74.3h4.038V63.177l5.3-2.164Z" transform="translate(-613.581 -52.907)"/><path d="M757.6,53.763a7.4,7.4,0,0,0-5.026-1.806,9.066,9.066,0,1,0,0,18.127,7.242,7.242,0,0,0,5.026-1.806v1.465h4.054V52.3H757.6Zm-1.38,11.159a4.776,4.776,0,0,1-3.646,1.465,4.857,4.857,0,0,1-3.7-1.474,6.123,6.123,0,0,1,0-7.786,4.857,4.857,0,0,1,3.7-1.474,4.774,4.774,0,0,1,3.646,1.465,6.2,6.2,0,0,1,0,7.8Z" transform="translate(-734.481 -48.347)"/><path d="M1033.59,56.86l-5.3,2.3v-2.3h-4.038V74.306h4.038V63.181l5.3-2.164Z" transform="translate(-995.724 -52.91)"/><path d="M1163.24,51.955a9.067,9.067,0,1,0,0,18.127,9.908,9.908,0,0,0,5.3-1.414,6.6,6.6,0,0,0,3.015-3.85h-4.464a4.3,4.3,0,0,1-3.85,1.72,4.928,4.928,0,0,1-3.22-1.056,5.1,5.1,0,0,1-1.721-2.93h13.885a12.032,12.032,0,0,0,.136-1.533,8.734,8.734,0,0,0-9.081-9.063Zm-4.838,7.172a4.883,4.883,0,0,1,1.746-2.666,5.421,5.421,0,0,1,6.167,0,4.717,4.717,0,0,1,1.712,2.666Z" transform="translate(-1116.623 -48.345)"/><path d="M1428.4,61.042a7.207,7.207,0,0,0-1.55-.9,16.109,16.109,0,0,0-1.7-.622q-.843-.256-1.542-.528a3.083,3.083,0,0,1-1.142-.741,1.633,1.633,0,0,1-.443-1.167,1.569,1.569,0,0,1,.5-1.244,2.054,2.054,0,0,1,1.406-.443,1.9,1.9,0,0,1,1.431.545,2.137,2.137,0,0,1,.528,1.55h4.055a5.17,5.17,0,0,0-1.678-4,6.177,6.177,0,0,0-4.335-1.533,5.771,5.771,0,0,0-4.021,1.431,4.753,4.753,0,0,0-1.584,3.7,6.179,6.179,0,0,0,.264,1.882,4.052,4.052,0,0,0,.707,1.363,5.091,5.091,0,0,0,1.013.937,5.706,5.706,0,0,0,1.2.647q.63.247,1.26.46t1.2.417a6.261,6.261,0,0,1,1.013.46,2.072,2.072,0,0,1,.707.656,1.891,1.891,0,0,1-.256,2.266,2.046,2.046,0,0,1-1.422.469,1.937,1.937,0,0,1-1.457-.554,2.172,2.172,0,0,1-.536-1.576H1418a5.2,5.2,0,0,0,1.687,4.029,6.165,6.165,0,0,0,4.327,1.542,6.308,6.308,0,0,0,4.3-1.448,4.778,4.778,0,0,0,1.662-3.782,5.513,5.513,0,0,0-.443-2.3,3.889,3.889,0,0,0-1.13-1.516Z" transform="translate(-1362.119 -48.344)"/><path d="M1599.44,0h-3.97V3.95h-1.925v3.7h1.925v7.581q0,6.167,6.2,6.167h3.151V17.7h-2.862a2.206,2.206,0,0,1-2.521-2.47V7.647h5.383V3.95h-5.383Z" transform="translate(-1525.468)"/><path d="M2040.97,51.955a5.725,5.725,0,0,0-4.225,1.67V52.3h-4.038V69.741h4.038V59.281a3.59,3.59,0,0,1,.979-2.632,3.544,3.544,0,0,1,2.649-1,3.5,3.5,0,0,1,2.6,1,3.567,3.567,0,0,1,1,2.624V69.741h4.021V59.281a7.307,7.307,0,0,0-1.968-5.273,6.688,6.688,0,0,0-5.056-2.053Z" transform="translate(-1934.118 -48.345)"/><path d="M2283.78,61.019a9.075,9.075,0,1,0-18.144,0,8.7,8.7,0,0,0,9.063,9.064,9.907,9.907,0,0,0,5.3-1.414,6.6,6.6,0,0,0,3.015-3.85h-4.464a4.3,4.3,0,0,1-3.851,1.72,4.928,4.928,0,0,1-3.22-1.056,5.106,5.106,0,0,1-1.72-2.93h13.885a12,12,0,0,0,.136-1.534Zm-13.919-1.891a4.882,4.882,0,0,1,1.746-2.666,5.422,5.422,0,0,1,6.168,0,4.717,4.717,0,0,1,1.712,2.666Z" transform="translate(-2150.862 -48.346)"/><path d="M1768.79,51.956a8.735,8.735,0,1,0,6.525,2.547,8.823,8.823,0,0,0-6.525-2.547Zm3.646,12.965a4.774,4.774,0,0,1-3.646,1.465,4.857,4.857,0,0,1-3.7-1.474,6.122,6.122,0,0,1,0-7.786,4.857,4.857,0,0,1,3.7-1.474,4.775,4.775,0,0,1,3.646,1.465,6.205,6.205,0,0,1,0,7.8Z" transform="translate(-1680.103 -48.346)"/></g><g transform="translate(103 87)"><path d="M741.643,10.174,729.958,0H718.447L706.763,10.174,718.282,20.2l5.92,5.155,5.921-5.155ZM732,17.026l3.619-6.268h3.58Zm7.2-7.436h-3.58L732,3.323ZM716.41,3.323,712.792,9.59h-3.579Zm-7.2,7.436h3.579l3.618,6.267ZM724.2,23.811l-3.977-3.462h7.953ZM726.676,8.4l-1.6,1.046v3.922L725.9,14.7l.614.994.358.58,1.8,2.912h-8.934l1.488-2.408L721.7,16l.225-.364.614-.994.79-1.278V9.444L721.73,8.4l-.64.977.726.475.344.225v2.959l-.947,1.533-.3.487-.068.111-2.15,3.48-2.259-3.912,2.958-1.487-.585-1.013-2.958,1.487-1.71-2.961h4.25V9.59h-4.25l1.878-3.253,2.926,1.61.584-1.012L716.6,5.326,719,1.168h10.4l2.568,4.448-2.9,1.456.585,1.013,2.9-1.456,1.71,2.961h-4.132v1.168h4.132l-1.878,3.253-2.807-1.544L729,13.479l2.807,1.545-2.091,3.622L727.769,15.5l-.245-.4-.167-.271-1.112-1.8V10.076l.357-.234.713-.466Z" transform="translate(-706.763)"/><path d="M918.884,44.786h-4.29l-.673,1.964-.173.5.6.6,2.393,2.393,2.436-2.436.555-.556-.2-.59Zm-.852,2.515-1.293,1.293L915.446,47.3l-.357-.357.278-.811.061-.179h2.621l.061.179.278.811Z" transform="translate(-899.299 -41.66)"/></g><g transform="translate(145.816 114.807)"><path d="M809.288,835.713,805.232,847.4H807.1l.968-2.9h4.173l.968,2.9h1.87l-4.057-11.684Zm-.667,7.044,1.536-4.723,1.535,4.723Z" transform="translate(-796.66 -835.579)"/><path d="M685.139,835.713H683.3V847.4h6.877v-1.736h-5.041Z" transform="translate(-683.303 -835.579)"/><path d="M984.388,841.024a2.686,2.686,0,0,0,1.185-2.253c0-2.02-1.336-3.054-3.272-3.054h-4.14V847.4h4.34c2.3,0,3.672-1.252,3.672-3.439a3.071,3.071,0,0,0-1.785-2.937ZM980,837.452h2.137c1.035,0,1.6.484,1.6,1.435s-.567,1.435-1.6,1.435H980Zm2.254,8.212H980v-3.6h2.254c1.352,0,2.053.634,2.053,1.8s-.707,1.8-2.055,1.8Z" transform="translate(-957.432 -835.582)"/><path d="M1125.59,836.752a1.206,1.206,0,0,1,1.218-1.268,1.985,1.985,0,0,1,1.736,1.285l1.486-.985a3.535,3.535,0,0,0-3.222-1.97,3.008,3.008,0,0,0-3.054,3.071c0,3.6,4.974,3.1,4.974,5.391a1.692,1.692,0,0,1-1.786,1.753c-1.335,0-2.02-1.169-2.354-2.471l-1.5.951a3.882,3.882,0,0,0,3.855,3.255,3.453,3.453,0,0,0,3.656-3.556C1130.59,838.6,1125.59,839.055,1125.59,836.752Z" transform="translate(-1092.163 -833.814)"/></g></g></svg>