<svg xmlns="http://www.w3.org/2000/svg" width="132.877" height="41.647" viewBox="0 0 132.877 41.647"><defs><style>.a,.b{fill:#1f272a;}.b{fill-rule:evenodd;}</style></defs><g transform="translate(-0.431)"><path class="a" d="M50.682,8.3a2.122,2.122,0,0,0-.813,1.725,1.853,1.853,0,0,0,.994,1.681,18.848,18.848,0,0,0,4.519,1.5,12.926,12.926,0,0,1,5.513,2.566,6.3,6.3,0,0,1,1.943,5,6.6,6.6,0,0,1-2.53,5.353,10.139,10.139,0,0,1-6.643,2.035A15.376,15.376,0,0,1,43,23.869l3.344-3.981q4.067,3.45,7.456,3.45a3.834,3.834,0,0,0,2.4-.664,2.067,2.067,0,0,0,.859-1.769,2.041,2.041,0,0,0-.949-1.77,12.129,12.129,0,0,0-3.66-1.327,15.794,15.794,0,0,1-6.371-2.654c-1.356-1.062-2.033-2.787-2.033-5.087a6.231,6.231,0,0,1,2.576-5.353,10.626,10.626,0,0,1,6.371-1.9A15.3,15.3,0,0,1,58,3.653,13.606,13.606,0,0,1,62.34,6.042l-2.8,3.981A11.336,11.336,0,0,0,52.806,7.59,4.144,4.144,0,0,0,50.682,8.3Z" transform="translate(4.346 0.287)"/><path class="a" d="M122.838,23.446V28.16H104.146V24.425l9.522-9.072c2.2-2.09,2.6-3.38,2.6-4.58,0-1.957-1.323-3.113-3.967-3.113a5.963,5.963,0,0,0-5.114,2.49L103,7.437c1.9-2.8,5.378-4.625,9.831-4.625,5.51,0,9.169,2.846,9.169,7.382,0,2.446-.661,4.625-4.144,7.871l-5.687,5.425h10.668Z" transform="translate(10.471 0.287)"/><path class="a" d="M74,2.812h5.916V23.366H92.735V28.16H74Z" transform="translate(7.51 0.287)"/><path class="a" d="M43,33.622a3.657,3.657,0,0,1,3.753-3.81,3.492,3.492,0,0,1,2.859,1.333l-1.028,1a2.17,2.17,0,0,0-1.743-.857,2.207,2.207,0,0,0-2.234,2.381,2.234,2.234,0,0,0,2.234,2.381,2.11,2.11,0,0,0,1.743-.857l1.028,1a3.492,3.492,0,0,1-2.859,1.333A3.794,3.794,0,0,1,43,33.622Z" transform="translate(4.346 3.043)"/><path class="a" d="M61.453,36.017H58.261l-.621,1.408H56l3.059-6.613h1.6l3.059,6.613H62.03Zm-.488-1.194-1.108-2.517-1.108,2.517Z" transform="translate(5.673 3.145)"/><path class="a" d="M75.51,33.228c0,1.484-1.069,2.374-2.755,2.374H71.48v1.823H70V30.812h2.755C74.441,30.812,75.51,31.745,75.51,33.228Zm-1.48,0c0-.721-.452-1.145-1.357-1.145H71.48v2.289h1.193C73.578,34.373,74.03,33.949,74.03,33.228Z" transform="translate(7.102 3.145)"/><path class="a" d="M84.1,30.812H83v6.613h1.1Z" transform="translate(8.429 3.145)"/><path class="a" d="M93.431,32.084H91V30.812h6.612v1.272H95.181v5.341h-1.75Z" transform="translate(9.246 3.145)"/><path class="a" d="M108.453,36.017h-3.192l-.62,1.408H103l3.059-6.613h1.6l3.059,6.613h-1.685Zm-.487-1.194-1.109-2.517-1.109,2.517Z" transform="translate(10.471 3.145)"/><path class="a" d="M117,30.812h1.392V36.2h3.016v1.229H117Z" transform="translate(11.9 3.145)"/><path class="a" d="M15.72,5.958H6V8.38H15.72Z" transform="translate(0.568 0.608)"/><path class="b" d="M6.393,23.735v8.945H8.824V23.735Z" transform="translate(0.609 2.423)"/><path class="a" d="M33.664,29.654H24.4v2.422h9.265Z" transform="translate(2.447 3.027)"/><path class="b" d="M32.613,14.883V5.939H30.182l.022,8.945Z" transform="translate(3.037 0.606)"/><path class="b" d="M21.085.022H.431L.453,41.647l21.114-.022H42.221V0Zm18.7,2.4.022,17.191H29.1V2.443ZM2.862,8.988V6.567H2.84v-4.1H20.034V13.09H2.884Zm.022,30.237V22.034H13.573V39.226ZM20.122,26.158V39.226h-4.14L15.96,19.635H2.84V15.511H20.034l.044,5.236v1.309h2.431l-.022-1.374V2.443h4.14l.044,19.591H39.79v4.123H20.122Zm19.691,9.926V39.2H22.728l-.044-4.123h.022V32.659h-.044l-.044-4.123,17.172-.022v7.57Z"/></g></svg>