<svg xmlns="http://www.w3.org/2000/svg" width="154" height="84.223" viewBox="0 0 154 84.223"><defs><style>.a,.b{fill:#283438;}.b{font-size:15px;font-family:CopperplateGothic-Bold, Copperplate Gothic;font-weight:700;}</style></defs><g transform="translate(-964 -2837)"><g transform="translate(992.563 2837)"><g transform="translate(0 0)"><path class="a" d="M102.554,13.68a15.73,15.73,0,0,0-1.578,1.134c-.717.671-1.134.435-1.352-.381-.517-1.9-1-3.792-1.506-5.688a40.035,40.035,0,0,0-1.669-5.207A15.42,15.42,0,0,0,95.3,5.189c-1.388,2.622-2.721,5.243-4.064,7.9a1.46,1.46,0,0,0,.091,1.216c3.42,5.062,6.876,10.1,10.314,15.149.907,1.388,1.878,2.785,2.812,4.182.481.708.29,1.052-.553,1.052H95.515a.907.907,0,0,1-1.052-.807q-.907-3.629-1.814-7.157c-.508-1.923-1.061-3.828-1.569-5.751-.281-1.025-.526-2.059-.762-3.093s-.454-1.007-1.188-.381L88,18.478l-2.83-9.407a6,6,0,0,0-.907.907Q80,16.855,75.794,23.74c-2.721,4.463-5.7,8.835-8.219,13.426-1.206,2.186-3.057,2.785-5.071,3.492-1.615.562-3.2,1.206-4.79,1.814-.218.091-.336.445-.5.671.281.082.6.29.835.227,1.7-.526,3.365-1.143,5.071-1.651,1.978-.59,3.964-1.17,5.987-1.606,3-.644,6.014-1.243,9.071-1.714,2.313-.354,4.663-.571,7.012-.717,4.209-.254,8.427-.562,12.636-.562a87.809,87.809,0,0,1,10.886.662c4.944.626,9.879,1.433,14.768,2.422,3.483.708,6.894,1.814,10.305,2.794,2.531.744,5.053,1.551,7.511,2.5a2.621,2.621,0,0,1,1.633,3.883c-.653,1.433-2.232,1.814-3.964,1.134-3.2-1.3-6.432-2.54-9.661-3.774-1.007-.39-1.451-.154-1.914,1.052a17.889,17.889,0,0,1-5.443,7.448,22.832,22.832,0,0,1-8.164,4.173c-3.9,1.234-7.892,1.243-11.9,1.17a6.859,6.859,0,0,1-.744-.064c-.1,0-.181-.1-.4-.227l2.313-3.7-.254-.272a9.979,9.979,0,0,0-1.243.626c-1.225.807-2.458,1.606-3.629,2.495a2.848,2.848,0,0,1-2.64.463c-2.213-.6-4.445-1.143-6.595-1.851-3.629-1.279-7.257-2.721-10.886-4.064-.154-.063-.308-.154-.653-.327l2.667-2.313-.109-.263a4.763,4.763,0,0,0-1.079,0c-1.442.354-2.857.825-4.318,1.1a5.923,5.923,0,0,1-2.395-.1c-3.71-.907-7.375-1.923-11.094-2.721a51.763,51.763,0,0,0-6.042-.844c-2.721-.29-5.443-.472-8.11-.735a13.607,13.607,0,0,1-1.714-.408c.372-.49.571-.825.825-1.089A101.244,101.244,0,0,1,60.418,33.482c3.629-2.531,7.42-4.808,11.131-7.257a3.756,3.756,0,0,0,1.17-1.061c3.084-4.98,6.132-9.978,9.189-14.977q1.188-1.923,2.4-3.837a9.551,9.551,0,0,1,.789-.907c.907,1.3,1.814,2.476,2.6,3.629.426.617.844,1.234,1.261,1.86s.907.59,1.27-.091c1.66-3.157,3.3-6.35,4.98-9.47A11.03,11.03,0,0,1,96.277,0a11.4,11.4,0,0,1,1.243,1.234q5.67,7.747,11.312,15.5c1.814,2.54,3.683,5.1,5.534,7.629.435.59.907,1.116,1.406,1.669l.263-.145c-.336-1.388-.671-2.776-1-4.164l.327-.218c.78.39,1.587.735,2.322,1.188,3.819,2.313,7.148,5.162,9.18,9.216a32.411,32.411,0,0,1,1.606,4.626c.281.907-.227,1.206-1.034,1.07-1.225-.2-2.431-.5-3.629-.671-4.626-.635-9.262-1.279-13.906-1.814a1.814,1.814,0,0,1-1.814-1.46c-.689-2.649-1.333-5.307-2.041-7.956-1.043-3.919-2.123-7.829-3.193-11.738A3.333,3.333,0,0,1,102.554,13.68Z" transform="translate(-44.96 0)"/><path class="a" d="M90.539,26.021c.209,1.315.417,2.622.635,3.928a4.618,4.618,0,0,0,.19.717c.073.209.254.39.263.59a8.246,8.246,0,0,0,.644,3.982c.045.082-.39.454-.626.662s-.717.635-1.089.907c-.218.19-.417.463-.671.526a.9.9,0,0,1-.49-.544c-.109-.825-.626-.952-1.306-.907a8.98,8.98,0,0,1-1.4,0c-1.079-.091-1.814.127-1.814,1.46,0,.689-.517.971-1.17.98s-.689-.6-.68-1.079c0-1.034-.49-1.37-1.46-1.37-1.379,0-1.442-.154-.835-1.406.263-.544.517-1.1.789-1.633a1.252,1.252,0,0,0-.1-1.56c-.2-.254.082-.907.163-1.37.127-.717.218-1.442.408-2.141.3-1.089.644-2.177,1.025-3.229a11.02,11.02,0,0,1,.789-1.433,5.878,5.878,0,0,1,.907,1.415c.4,1.324,1.361,2.486,1,4.055-.127.544.463,1.234.68,1.869a1.433,1.433,0,0,1,.054.78c-.091.372-.481.78-.381,1.052a13.708,13.708,0,0,0,1.225,2.322c.054.1.6.073.617,0,.218-.726,1.134-1.315.5-2.232a.635.635,0,0,1-.127-.4c.435-1.814.907-3.7,1.361-5.534,0-.19.345-.317.517-.472Z" transform="translate(-48.248 -2.145)"/></g></g><text class="b" transform="translate(1041 2918.223)"><tspan x="-76.648" y="0">Twin Apex Capital</tspan></text></g></svg>