<svg xmlns="http://www.w3.org/2000/svg" width="81.919" height="68.218" viewBox="0 0 81.919 68.218">
  <g id="Group_15944" data-name="Group 15944" transform="translate(-675 -990)">
    <rect id="Rectangle" width="62" height="62" rx="5" transform="translate(675 990)" fill="#eff3ff"/>
    <g id="Group_1447" data-name="Group 1447" transform="translate(684 987.377)">
      <path id="Path_1036" data-name="Path 1036" d="M29.7,15.791a14.933,14.933,0,0,1,6.562-6.916c4.574-2.209,5.657-2.089,6.085-1.662s1.1,1.047.247,2.738-2.219,6.916-2.077,8.729l.093.629-.2.353L29.446,16.469Z" transform="translate(14.868 2.382)" fill="#000b89"/>
      <rect id="Rectangle_29" data-name="Rectangle 29" width="13.721" height="20.175" rx="2.732" transform="translate(20.652 47.163) rotate(20.257)" fill="#000b89"/>
      <rect id="Rectangle_30" data-name="Rectangle 30" width="13.721" height="20.175" rx="2.705" transform="translate(58.906 66.071) rotate(159.743)" fill="#000b89"/>
      <path id="Path_1037" data-name="Path 1037" d="M56.828,59.163a19.911,19.911,0,0,0,8.43-8.962c.344-.723.489-.916,1.108-.916h2.505a4.055,4.055,0,0,0,4.047-4.047V37.722a4.052,4.052,0,0,0-4.047-4.047H66.367a1.436,1.436,0,0,1-.53-.1A17.171,17.171,0,0,0,55.382,20.62s-3.759-1.582-5.086-1.976c-1.366-.405-5.658-1.2-5.658-1.2a40.191,40.191,0,0,0-8.335-.866,32.8,32.8,0,0,0-20.909,6.888,19.331,19.331,0,0,0-6.216,8.624c-1.223-.427-4.095-1.741-4.095-4.963a3.756,3.756,0,0,1,2.072-3.612,1.544,1.544,0,0,0-1.2-2.843A6.906,6.906,0,0,0,2,27.123c0,4.691,3.769,7.113,6.312,7.951a28.23,28.23,0,0,0-.675,7.467c.3,7.137,5.3,12.452,8.577,14.791a45.909,45.909,0,0,0,6.03,3.509c1.679.742,7.027,2.225,7.027,2.225.216.029.547.079.866.145a27.313,27.313,0,0,0,6.167.674,49.009,49.009,0,0,0,5.781-.338,58.49,58.49,0,0,0,8.06-1.7A44.456,44.456,0,0,0,56.828,59.163ZM55.141,33.772a2.935,2.935,0,0,1,2.939,2.939,2.939,2.939,0,1,1-5.877,0A2.93,2.93,0,0,1,55.141,33.772Z" transform="translate(0 0.442)" fill="#4e5dff"/>
      <path id="Subtraction_1" data-name="Subtraction 1" d="M.962,16.188h0A11.565,11.565,0,0,1,19.711,3.358a11.491,11.491,0,0,1,3.415,8.118c-.969-.062-1.962-.094-2.954-.094-7.318,0-14.32,1.751-19.209,4.805Z" transform="translate(15.873 2.623)" fill="#87f2e7"/>
      <path id="Subtraction_2" data-name="Subtraction 2" d="M0,7.772H0V3.3L5.012,0l5.01,3.3V5.737A39.889,39.889,0,0,0,0,7.772Z" transform="translate(22.428 8.406)" fill="#29cfbe"/>
    </g>
  </g>
</svg>
