<svg xmlns="http://www.w3.org/2000/svg" width="139.235" height="47" viewBox="0 0 139.235 47">
  <g id="Group_1514" data-name="Group 1514" transform="translate(437.864 -197.566)">
    <path id="Path_2020" data-name="Path 2020" d="M-377.43,579.445h-36.253l18.124-18.134Z" transform="translate(-22.32 -335.752)"/>
    <path id="Path_2021" data-name="Path 2021" d="M563.407,205.952v-.619h10.814v.618c-.531.035-1.053.049-1.571.106a2.063,2.063,0,0,0-1.939,1.9,14.477,14.477,0,0,0-.126,1.8c-.011,3.642-.019,7.284,0,10.926a19.037,19.037,0,0,0,.517,4.6,5.024,5.024,0,0,0,3.956,3.857,8.729,8.729,0,0,0,7.144-1.262,5.155,5.155,0,0,0,2.34-3.714,31.488,31.488,0,0,0,.308-3.782c.04-3.641.02-7.284.008-10.925,0-.547-.087-1.095-.143-1.641a1.929,1.929,0,0,0-1.872-1.753c-.514-.074-1.039-.076-1.576-.112v-.623h8.865v.624c-.5.035-.983.042-1.461.107a2.368,2.368,0,0,0-2.038,2.127c-.051.586-.085,1.175-.086,1.763-.008,3.5.016,7-.012,10.5a16.774,16.774,0,0,1-.624,5.083,7.479,7.479,0,0,1-5.313,4.983,14.041,14.041,0,0,1-5.172.419,10.9,10.9,0,0,1-3.473-.707,7.115,7.115,0,0,1-4.611-5.807,41.044,41.044,0,0,1-.312-5.091c-.046-3.308,0-6.617-.024-9.925a8.448,8.448,0,0,0-.23-1.856,1.841,1.841,0,0,0-1.768-1.492C564.489,206.006,563.966,205.988,563.407,205.952Z" transform="translate(-924.216 -7.164)"/>
    <path id="Path_2022" data-name="Path 2022" d="M217.079,222.739v.575H209.23v-.631c.271-.063.54-.128.811-.188a2.434,2.434,0,0,0,1.718-1.178c.588-1.073,1.195-2.144,1.679-3.265q4.313-10,8.564-20.028a.444.444,0,0,1,.477-.32c.271-.006.367.1.463.335q4.369,10.454,8.76,20.9a18.038,18.038,0,0,0,1.094,2.1,3.347,3.347,0,0,0,2.81,1.61l.217.019v.639H225.96v-.6c.408-.068.825-.113,1.229-.209,1.081-.256,1.518-.891,1.206-1.943-.328-1.108-.771-2.184-1.187-3.266-.265-.69-.579-1.362-.854-2.049a.38.38,0,0,0-.412-.295c-3.039.009-6.077,0-9.116.014a.46.46,0,0,0-.359.177q-1.056,2.462-2.073,4.941a2.75,2.75,0,0,0-.163.744,1.274,1.274,0,0,0,.943,1.506C215.778,222.513,216.412,222.6,217.079,222.739Zm4.384-19.272-4.342,10.085H225.7Z" transform="translate(-597.295 -0.128)"/>
    <path id="Path_2023" data-name="Path 2023" d="M-417.923,433.958c-.133.162-.215.28-.314.379q-8.742,8.745-17.487,17.487a1.183,1.183,0,0,1-1.79.095,1.149,1.149,0,0,1-.126-1.416,2.745,2.745,0,0,1,.352-.4q9.164-9.166,18.331-18.329c.764-.764,1.331-.761,2.1.011l12.378,12.477q2.979,3,5.955,6.01a1.138,1.138,0,0,1,.357,1.181,1.132,1.132,0,0,1-.9.845,1.174,1.174,0,0,1-1.134-.412q-2.38-2.407-4.765-4.807l-5.416-5.462q-3.629-3.659-7.257-7.318C-417.72,434.212-417.789,434.118-417.923,433.958Z" transform="translate(-0.034 -215.653)"/>
    <path id="Path_2024" data-name="Path 2024" d="M-417.909,320.572a5.718,5.718,0,0,1-.356.452q-8.728,8.732-17.46,17.46a1.2,1.2,0,0,1-1.418.373,1.166,1.166,0,0,1-.427-1.807c.081-.1.178-.184.269-.275l18.386-18.384a1.206,1.206,0,0,1,2,.012q7.789,7.847,15.576,15.7,1.381,1.392,2.752,2.795a1.156,1.156,0,0,1,.1,1.758,1.265,1.265,0,0,1-1.777-.146q-5.148-5.24-10.334-10.441-3.465-3.5-6.93-6.993A5.562,5.562,0,0,1-417.909,320.572Z" transform="translate(-0.025 -111.038)"/>
    <path id="Path_2025" data-name="Path 2025" d="M-418.013,207.9a3.251,3.251,0,0,1-.286.388Q-427,217-435.708,225.7a1.24,1.24,0,0,1-1.326.459,1.147,1.147,0,0,1-.594-1.794,3.939,3.939,0,0,1,.364-.4q9.127-9.127,18.248-18.262a1.345,1.345,0,0,1,2.139-.009q9.12,9.241,18.276,18.446a1.144,1.144,0,0,1,.33,1.419,1.067,1.067,0,0,1-1.148.651,1.5,1.5,0,0,1-.763-.38q-5.164-5.173-10.3-10.372-3.6-3.633-7.2-7.268C-417.768,208.12-417.855,208.047-418.013,207.9Z" transform="translate(0 -7.026)"/>
    <path id="Path_2026" data-name="Path 2026" d="M926.447,223.781a.91.91,0,0,1,.3-.957A70.541,70.541,0,0,0,935,214.242a15.209,15.209,0,0,0,3.058-5.867,6.255,6.255,0,0,0-.676-5.093,5.089,5.089,0,0,0-7.741-.841,6.154,6.154,0,0,0-1.623,2.39c-.212.525-.211.526-.881.447.117-.546.207-1.092.353-1.624a6.849,6.849,0,0,1,3.863-4.83,7.251,7.251,0,0,1,9.69,3.75,7.116,7.116,0,0,1-.211,5.416,18.777,18.777,0,0,1-3.593,5.68c-2.191,2.44-4.464,4.806-6.7,7.2-.025.027-.046.059-.093.119a1.134,1.134,0,0,0,.187.034c2.487,0,4.974.008,7.461-.017a10.769,10.769,0,0,0,1.863-.2,3.314,3.314,0,0,0,2.123-1.466c.283-.4.336-.424.889-.281-.206.563-.412,1.123-.617,1.683-.336.922-.679,1.842-1,2.769a.361.361,0,0,1-.4.294q-7.115-.01-14.231-.006C926.627,223.8,926.54,223.789,926.447,223.781Z" transform="translate(-1259.291 -0.587)"/>
    <path id="Path_2027" data-name="Path 2027" d="M1229.751,222.561v.626h-9.4v-.622c.482-.039.98-.043,1.463-.131a3.9,3.9,0,0,0,1.067-.372,1.132,1.132,0,0,0,.568-.949,13.589,13.589,0,0,0,.083-1.378q.008-8.018,0-16.037a11.484,11.484,0,0,0-.145-1.756,1.35,1.35,0,0,0-1.947-1.227c-.426.12-.838.29-1.275.444l-.267-.533c.143-.076.272-.149.4-.214,1.779-.868,3.556-1.741,5.342-2.593a5.479,5.479,0,0,1,.966-.251v.591q0,10.73,0,21.459a12.571,12.571,0,0,0,.084,1.418,1.582,1.582,0,0,0,1.647,1.41C1228.8,222.487,1229.255,222.52,1229.751,222.561Z" transform="translate(-1530.182)"/>
    <path id="Path_2028" data-name="Path 2028" d="M605.4,629.181c.009.093.019.142.018.192s-.01.1-.018.166h-6.181l-.022-.319c.353-.038.685-.048,1.007-.113a1.1,1.1,0,0,0,.993-1.132c.042-.857.071-1.715.074-2.572q.014-3.827,0-7.654a10.679,10.679,0,0,0-.082-1.226,1.138,1.138,0,0,0-1.13-1.044c-.267-.018-.536,0-.837,0l-.03-.419c.139-.008.251-.022.362-.021,2.076.02,4.153.007,6.227.073a4.652,4.652,0,0,1,3.779,1.8,3.867,3.867,0,0,1-2.451,6.031,8.7,8.7,0,0,1-3.741-.15,2.379,2.379,0,0,0-.039.308c0,1.487,0,2.974.018,4.461.016,1.2.455,1.615,1.673,1.621Zm-2.044-13.071v6.038c1.526.342,2.972.463,3.962-1.059a3.767,3.767,0,0,0-.16-3.989C606.178,615.762,604.813,615.793,603.358,616.11Z" transform="translate(-957.249 -385.344)"/>
    <path id="Path_2029" data-name="Path 2029" d="M406.334,625.579c0,.115,0,.179,0,.242a.773.773,0,0,1-.027.117h-5.7v-.315a.492.492,0,0,1,.1-.046c.25-.051.506-.078.749-.153a.731.731,0,0,0,.584-.958c-.213-.731-.5-1.443-.768-2.155-.154-.4-.248-.934-.551-1.141s-.816-.059-1.238-.059c-1.333,0-2.666,0-4,.006-.13,0-.338.059-.376.147-.429,1.007-.863,2.015-1.231,3.046-.205.575.056.956.652,1.11.3.076.6.115.933.176l.029.34h-4.522c-.09-.226-.062-.4.221-.428a1.77,1.77,0,0,0,1.453-1.112c.539-1.156,1.068-2.316,1.573-3.487,1.358-3.151,2.7-6.309,4.058-9.46a.583.583,0,0,1,.342-.312c.076-.017.248.171.3.3q2.449,5.819,4.884,11.644a16.145,16.145,0,0,0,.726,1.476A2.081,2.081,0,0,0,406.334,625.579Zm-5.87-5.287-2.453-5.835-2.51,5.835Z" transform="translate(-765.006 -381.74)"/>
    <path id="Path_2030" data-name="Path 2030" d="M1016.562,625.265v.375h-5.679v-.348c.223-.035.438-.059.648-.1a.841.841,0,0,0,.732-1.179c-.29-.87-.641-1.719-.981-2.571-.253-.633-.263-.628-.952-.628-1.526,0-3.052.006-4.578-.006a.429.429,0,0,0-.486.3c-.343.865-.73,1.714-1.069,2.581-.142.364-.3.8.059,1.111a2.984,2.984,0,0,0,.884.4,1.082,1.082,0,0,0,.34.053c.254.012.3.148.221.383H1001.2c-.088-.257-.015-.4.256-.43a1.66,1.66,0,0,0,1.367-.989c.541-1.141,1.075-2.286,1.575-3.444,1.386-3.21,2.752-6.429,4.134-9.641a.584.584,0,0,1,.307-.3c.247-.078.268.163.334.32l5.144,12.247c.025.059.054.115.08.174A2.357,2.357,0,0,0,1016.562,625.265Zm-5.85-5.269-2.452-5.839L1005.747,620Z" transform="translate(-1328.281 -381.442)"/>
    <path id="Path_2031" data-name="Path 2031" d="M221.491,622.09l.322.219a6.441,6.441,0,0,1-4.649,3.612,7.363,7.363,0,0,1-4.431-.5,6.77,6.77,0,0,1-3.865-5.331A8.176,8.176,0,0,1,210,614.205a6.985,6.985,0,0,1,5.2-3.287,6.787,6.787,0,0,1,3.979.678c.057.028.114.058.171.085.678.321,1.083.171,1.34-.542.088-.245.192-.341.469-.254l.33,4.837c-.326.059-.329.06-.419-.206a6.663,6.663,0,0,0-1.3-2.415,4.754,4.754,0,0,0-7.448.687,7.839,7.839,0,0,0-1.063,3.367,10.792,10.792,0,0,0,.288,4.222,5.128,5.128,0,0,0,5.874,3.66,5.337,5.337,0,0,0,3.546-2.275C221.137,622.552,221.3,622.338,221.491,622.09Z" transform="translate(-596.842 -381.483)"/>
    <path id="Path_2032" data-name="Path 2032" d="M865.445,629.088v.361h-6.1l-.036-.36c.232,0,.434.009.635,0a1.29,1.29,0,0,0,1.381-1.4c.016-.6.009-1.2.01-1.807q0-4.75,0-9.5v-.493c-.77,0-1.525-.054-2.269.011-1.481.129-2.075.74-2.289,2.228-.036.255-.036.255-.444.23l.171-3.385c.134-.007.258-.018.381-.018q5.538,0,11.076-.007c.3,0,.44.066.435.395-.014,1,0,1.992,0,3.023l-.254.015c-.068-.3-.12-.591-.195-.872a2.116,2.116,0,0,0-1.867-1.577c-.229-.024-.458-.063-.687-.066-.64-.009-1.28,0-1.966,0-.007.154-.018.289-.018.423q0,5.422,0,10.845a6.42,6.42,0,0,0,.08.955c.094.618.534.951,1.3,1C864.989,629.1,865.194,629.088,865.445,629.088Z" transform="translate(-1194.595 -385.257)"/>
    <path id="Path_2033" data-name="Path 2033" d="M1210.416,615.71v-.41h6.564v.368c-.429.043-.851.058-1.262.134a1.21,1.21,0,0,0-1.093,1.228q-.067,1.246-.071,2.5-.013,3.79,0,7.579a5.787,5.787,0,0,0,.058.8c.1.723.227.9.962.938,1.151.051,2.306.017,3.459,0a3.506,3.506,0,0,0,3.247-2.457,1.618,1.618,0,0,1,.163-.344,1.427,1.427,0,0,1,.288-.222c.024.115.095.244.065.344-.294.976-.6,1.948-.909,2.92l-.219.7h-11.25v-.319a.33.33,0,0,1,.1-.036c.192-.007.385,0,.577-.012a1.313,1.313,0,0,0,1.378-1.421q.016-5.424,0-10.849a1.275,1.275,0,0,0-1.449-1.438C1210.833,615.707,1210.643,615.71,1210.416,615.71Z" transform="translate(-1521.433 -385.586)"/>
    <path id="Path_2034" data-name="Path 2034" d="M766.324,629.408v.363h-6.191l-.014-.318c.369-.041.715-.054,1.049-.123a1.1,1.1,0,0,0,.958-1.089c.038-.446.065-.9.066-1.343q.009-4.309,0-8.618c0-.5-.029-1-.065-1.5a1.227,1.227,0,0,0-1.246-1.074c-.24-.016-.482,0-.746,0v-.419h6.187l.023.413c-.262,0-.5-.006-.738,0a1.232,1.232,0,0,0-1.323,1.321c-.031,1.807-.053,3.615-.054,5.422,0,1.833.041,3.666.036,5.5,0,.961.424,1.318,1.452,1.46A4.719,4.719,0,0,0,766.324,629.408Z" transform="translate(-1105.79 -385.575)"/>
  </g>
</svg>
