<svg xmlns="http://www.w3.org/2000/svg" width="126.493" height="62" viewBox="0 0 126.493 62">
  <g id="Layer_2" data-name="Layer 2" transform="translate(0.002 0)">
    <g id="Layer_1" data-name="Layer 1" transform="translate(-0.002 0)">
      <path id="Path_2016" data-name="Path 2016" d="M36.033,18.1a17.647,17.647,0,0,1-17.763,18.1A17.732,17.732,0,0,1,0,18.567,17.91,17.91,0,0,1,18.161,0,17.891,17.891,0,0,1,36.033,18.1Z" transform="translate(0.002 0)" fill="#212121"/>
      <path id="Path_2017" data-name="Path 2017" d="M70.234,57.872a14.186,14.186,0,0,1-13.9,13.9A13.9,13.9,0,0,1,42.369,57.648a13.512,13.512,0,0,1,14-13.5A13.622,13.622,0,0,1,70.234,57.872Z" transform="translate(-11.686 -12.179)" fill="#212121"/>
      <path id="Path_2018" data-name="Path 2018" d="M78.04,18.83A12.078,12.078,0,1,1,53.89,18.5,11.869,11.869,0,0,1,65.91,6.6,12.042,12.042,0,0,1,78.04,18.83Z" transform="translate(-14.865 -1.82)" fill="#212121"/>
      <path id="Path_2019" data-name="Path 2019" d="M12.244,63.449a6.736,6.736,0,1,1-.014.007Z" transform="translate(-3.372 -15.004)" fill="#212121"/>
      <text id="Block_Dream_Fund" data-name="Block
Dream
Fund" transform="translate(75.493 18)" fill="#212121" font-size="17" font-family="SegoeUI-Semibold, Segoe UI" font-weight="600"><tspan x="0" y="0">Block</tspan><tspan x="0" y="20">D</tspan><tspan y="20" letter-spacing="-0.02em">r</tspan><tspan y="20">eam</tspan><tspan x="0" y="40">Fund</tspan></text>
    </g>
  </g>
</svg>
