<svg xmlns="http://www.w3.org/2000/svg" width="107.13" height="44" viewBox="0 0 107.13 44">
  <g id="Group_15941" data-name="Group 15941" transform="translate(-100 -3478)">
    <rect id="Rectangle_55" data-name="Rectangle 55" width="107.13" height="44" rx="4" transform="translate(100 3478)" fill="#185f7d"/>
    <g id="Business_Insider_Logo" transform="translate(108.78 3485.902)">
      <path id="Path_8215" data-name="Path 8215" d="M7.01,28.1h2.1V16.858H7.01Zm7.712-.169h1.884V20.837L24.537,28.1V17.027H22.658V24l-7.936-7.138Zm14.117-2.722a5.789,5.789,0,0,0,3.576,1.261c1.285,0,2.187-.443,2.187-1.42,0-.852-.575-1.185-1.582-1.558l-1.63-.566c-1.5-.534-2.646-1.314-2.646-3.106,0-1.917,1.731-2.959,3.8-2.959a6.281,6.281,0,0,1,3.326.883v1.9a5.334,5.334,0,0,0-3.286-1.171c-1.136,0-1.985.424-1.985,1.308,0,.8.533,1.119,1.472,1.44l1.817.637c1.76.619,2.568,1.579,2.568,3.157,0,1.986-1.747,3.083-4.04,3.083a6.582,6.582,0,0,1-3.576-.954V25.206ZM41.363,28.1h2.1V16.858h-2.1Zm11.968-1.7c2.371,0,3.638-1.521,3.638-3.921,0-2.418-1.268-3.934-3.638-3.934H50.987V26.4h2.344Zm-4.258-9.538H53.4c3.332,0,5.487,2.2,5.487,5.617S56.733,28.1,53.4,28.1H49.073Zm20.332,0v1.683h-5.09v2.7H68.88v1.664H64.314V26.4H69.4v1.7H62.394V16.858Zm7.465,5.089h2.087a1.732,1.732,0,1,0,0-3.441H76.87v3.442Zm0,1.589V28.1H75.013V16.858h3.979c2.269,0,3.737,1.169,3.737,3.369,0,1.882-.815,2.962-2.551,3.24l3.948,4.63H82.014l-3.823-4.56H76.871ZM6.275,5.786A2.483,2.483,0,0,0,7.739,3.339C7.739,1.269,6.275.2,3.934.2H0V11.753H4.3C6.64,11.753,8.1,10.6,8.1,8.44A2.792,2.792,0,0,0,6.275,5.786ZM1.847,5.052V1.89H3.916c1.3,0,1.994.471,1.994,1.562s-.7,1.6-1.994,1.6H1.847Zm0,1.619H4.262c1.282,0,1.976.639,1.976,1.694,0,1.035-.7,1.695-1.976,1.695H1.848V6.67Zm14.839,5.27c2.689,0,4.5-1.619,4.5-4.781V.2h-1.9V6.934c0,2.221-.915,3.257-2.6,3.257s-2.6-1.036-2.6-3.257V.2h-1.9V7.141c0,3.181,1.829,4.8,4.5,4.8Zm8.98-1.017a6.275,6.275,0,0,0,3.567,1.017c2.287,0,4.025-1.168,4.025-3.275,0-1.675-.8-2.692-2.561-3.351l-1.81-.678c-.933-.338-1.464-.677-1.464-1.524,0-.941.841-1.393,1.976-1.393a5.12,5.12,0,0,1,3.275,1.242V.948a5.94,5.94,0,0,0-3.312-.94c-2.067,0-3.787,1.111-3.787,3.143,0,1.9,1.134,2.729,2.634,3.293l1.629.6c1.006.4,1.573.753,1.573,1.657,0,1.035-.9,1.506-2.177,1.506a5.571,5.571,0,0,1-3.567-1.336v2.051ZM40.058.2h-1.9V11.752h1.9Zm5.428,11.542h1.833V4.22l7.716,7.7V.178H53.207v7.39L45.486,0V11.738ZM66.924.2V1.929h-4.94V4.711h4.43V6.422h-4.43v3.585h4.94v1.749h-6.8V.2Zm4.43,10.718a6.273,6.273,0,0,0,3.567,1.017c2.286,0,4.025-1.167,4.025-3.275,0-1.675-.805-2.691-2.561-3.351l-1.811-.677c-.933-.339-1.464-.678-1.464-1.525,0-.941.841-1.393,1.976-1.393a5.125,5.125,0,0,1,3.275,1.242V.941A5.934,5.934,0,0,0,75.049,0c-2.067,0-3.787,1.111-3.787,3.143,0,1.9,1.134,2.729,2.634,3.293l1.629.6c1.006.4,1.573.753,1.573,1.657,0,1.035-.9,1.506-2.177,1.506a5.563,5.563,0,0,1-3.567-1.336v2.051Zm11.49,0a6.275,6.275,0,0,0,3.567,1.017c2.287,0,4.025-1.167,4.025-3.275,0-1.675-.805-2.691-2.561-3.351l-1.811-.677c-.932-.339-1.464-.678-1.464-1.525,0-.941.842-1.393,1.976-1.393A5.123,5.123,0,0,1,89.85,2.955V.941A5.929,5.929,0,0,0,86.539,0c-2.068,0-3.787,1.111-3.787,3.143,0,1.9,1.134,2.729,2.634,3.293l1.629.6c1.006.4,1.573.753,1.573,1.657,0,1.035-.9,1.506-2.177,1.506a5.567,5.567,0,0,1-3.567-1.336v2.051Z" fill="#fff" fill-rule="evenodd"/>
    </g>
  </g>
</svg>
