<svg xmlns="http://www.w3.org/2000/svg" width="34.058" height="34.092" viewBox="0 0 34.058 34.092">
  <g id="Group_18204" data-name="Group 18204" transform="translate(-107 -229.89)">
    <path id="Path_12707" data-name="Path 12707" d="M373.222,229.89c.437.11.884.19,1.308.336a6.078,6.078,0,0,1,2.409,9.978,1.231,1.231,0,0,1-1.9-.034q-2.427-2.419-4.847-4.846c-.6-.6-1.21-1.205-1.811-1.812a1.241,1.241,0,0,1,.047-1.989,5.978,5.978,0,0,1,3.342-1.573,1.069,1.069,0,0,0,.186-.06Z" transform="translate(-237.591)" fill="#4465ef"/>
    <path id="Path_12708" data-name="Path 12708" d="M107,236.466a16.332,16.332,0,0,1,.4-1.906,6.07,6.07,0,0,1,9.818-2.428,1.227,1.227,0,0,1,.024,1.963q-3.21,3.215-6.424,6.426c-.133.133-.263.272-.407.393a1.2,1.2,0,0,1-1.682-.081,5.966,5.966,0,0,1-1.68-3.745c-.009-.119-.035-.237-.054-.355Z" transform="translate(0 -0.583)" fill="#4465ef"/>
    <path id="Path_12709" data-name="Path 12709" d="M153.193,308.488c-.294.391-.6.8-.905,1.2-.8,1.065-1.593,2.133-2.4,3.193a1.216,1.216,0,1,1-1.945-1.454c.67-.912,1.355-1.812,2.034-2.717l1.393-1.859a13.259,13.259,0,0,1-3.456-11.823,13,13,0,0,1,4.962-8.06,13.418,13.418,0,0,1,17.437.94,13.406,13.406,0,0,1,3.736,12.837,13.338,13.338,0,0,1-3.33,6.1l2.442,3.258c.326.435.656.867.976,1.306a1.217,1.217,0,1,1-1.937,1.466c-1.038-1.37-2.065-2.749-3.1-4.125-.066-.088-.136-.174-.206-.262C163.678,311.844,158.466,311.848,153.193,308.488Zm9.077-14.547c0-1.2.01-2.4,0-3.594a1.217,1.217,0,0,0-1.586-1.2,1.26,1.26,0,0,0-.854,1.322c0,1.564,0,3.128,0,4.692a6.817,6.817,0,0,1-.063,2.047,6.623,6.623,0,0,1-1.166,1.642c-.711.95-1.433,1.892-2.131,2.851a1.211,1.211,0,0,0,.812,1.984,1.255,1.255,0,0,0,1.187-.594q1.721-2.306,3.453-4.6a1.718,1.718,0,0,0,.356-1.081C162.266,296.249,162.27,295.095,162.27,293.941Z" transform="translate(-37.03 -49.452)" fill="#87f2e7"/>
  </g>
</svg>
