<svg xmlns="http://www.w3.org/2000/svg" width="127.091" height="63.219" viewBox="0 0 127.091 63.219">
  <g id="Coinbase_New" data-name="Coinbase New" transform="translate(-65.89 -134.34)">
    <g id="Group_1487" data-name="Group 1487" transform="translate(112.631 134.34)">
      <circle id="Ellipse_260" data-name="Ellipse 260" cx="16.804" cy="16.804" r="16.804" transform="translate(0 0)" fill="#0052ff"/>
      <path id="Path_1954" data-name="Path 1954" d="M532.626,191.023a5.873,5.873,0,1,1,0-2.192h5.926a11.747,11.747,0,1,0,0,2.192Z" transform="translate(-510.026 -173.122)" fill="#fff"/>
    </g>
    <path id="Path_1955" data-name="Path 1955" d="M91.541,491.868a8.182,8.182,0,1,0,8.286,8.167A8.062,8.062,0,0,0,91.541,491.868Zm.03,12.982a4.805,4.805,0,1,1,4.555-4.784A4.544,4.544,0,0,1,91.571,504.85Zm9.264-9.416h2.293v12.494H106.8V492.174h-5.962Zm-26.751-.183a4.171,4.171,0,0,1,4.036,2.956H82a7.7,7.7,0,0,0-7.888-6.338,8.182,8.182,0,1,0,0,16.364,7.736,7.736,0,0,0,7.858-6.369H78.12a4.136,4.136,0,0,1-4.006,2.987,4.809,4.809,0,0,1-.031-9.6Zm96.458,3.291-2.69-.4c-1.284-.182-2.2-.609-2.2-1.615,0-1.1,1.193-1.645,2.813-1.645,1.773,0,2.9.761,3.15,2.011h3.546c-.4-3.169-2.844-5.028-6.6-5.028-3.883,0-6.451,1.981-6.451,4.784,0,2.681,1.682,4.236,5.075,4.723l2.69.4c1.315.182,2.049.7,2.049,1.676,0,1.249-1.284,1.767-3.057,1.767-2.171,0-3.394-.884-3.578-2.224h-3.608c.337,3.078,2.751,5.241,7.154,5.241,4.006,0,6.665-1.829,6.665-4.968C175.494,500.462,173.568,499,170.541,498.542Zm-65.58-12.86A2.316,2.316,0,1,0,107.316,488,2.27,2.27,0,0,0,104.961,485.682ZM158.8,497.567c0-3.413-2.079-5.7-6.481-5.7-4.158,0-6.481,2.1-6.94,5.333h3.639c.183-1.249,1.162-2.285,3.241-2.285,1.865,0,2.783.823,2.783,1.829,0,1.311-1.682,1.645-3.761,1.859-2.813.3-6.3,1.279-6.3,4.937,0,2.835,2.11,4.662,5.473,4.662,2.629,0,4.28-1.1,5.106-2.835a2.721,2.721,0,0,0,2.9,2.56h2.14v-3.26h-1.8v-7.1Zm-3.607,3.962a3.832,3.832,0,0,1-4.067,3.657c-1.376,0-2.538-.579-2.538-1.8,0-1.554,1.865-1.981,3.578-2.163,1.651-.152,2.568-.518,3.027-1.219Zm-19.475-9.661a6.4,6.4,0,0,0-4.984,2.285V485.53h-3.669v22.4h3.608v-2.072a6.363,6.363,0,0,0,5.045,2.377c4.4,0,7.735-3.474,7.735-8.167S140.059,491.868,135.718,491.868Zm-.55,12.982a4.544,4.544,0,0,1-4.556-4.784,4.593,4.593,0,0,1,4.586-4.814,4.807,4.807,0,0,1-.03,9.6Zm-16.876-12.982a5.491,5.491,0,0,0-4.862,2.347v-2.042h-3.639v15.755h3.669v-8.563a3.781,3.781,0,0,1,3.791-4.114,3.336,3.336,0,0,1,3.424,3.657v9.021h3.669v-9.294C124.345,494.673,122.3,491.868,118.292,491.868Zm74.69,7.68a7.448,7.448,0,0,0-7.735-7.679,8.182,8.182,0,1,0,.061,16.364c3.822,0,6.818-2.255,7.582-5.455h-3.822a3.677,3.677,0,0,1-3.7,2.194,4.4,4.4,0,0,1-4.525-4.023H192.98v-1.4Zm-11.923-1.219a4.106,4.106,0,0,1,4.128-3.26,3.842,3.842,0,0,1,4.036,3.26Z" transform="translate(0 -310.674)" fill="#0052ff"/>
  </g>
</svg>
