<svg xmlns="http://www.w3.org/2000/svg" xmlns:xlink="http://www.w3.org/1999/xlink" width="105.36" height="61.68" viewBox="0 0 105.36 61.68"><defs><style>.a{fill:url(#a);}</style><linearGradient id="a" x1="0.448" y1="1" x2="0.872" y2="-0.102" gradientUnits="objectBoundingBox"><stop offset="0" stop-color="#fff"/><stop offset="1" stop-color="#cfcfcf"/></linearGradient></defs><path class="a" d="M-26.44,1.52A28.377,28.377,0,0,1-38.36-.76a21.359,21.359,0,0,1-8.04-6.2,26.227,26.227,0,0,1-4.56-9.08,39.426,39.426,0,0,1-1.48-10.92v-4.56A36.145,36.145,0,0,1-49.64-46a23.173,23.173,0,0,1,8.56-10.32q5.76-3.84,14.64-3.84t14.6,3.84A23.261,23.261,0,0,1-3.32-46,36.145,36.145,0,0,1-.52-31.52v4.56A39.426,39.426,0,0,1-2-16.04,26.227,26.227,0,0,1-6.56-6.96a21.428,21.428,0,0,1-8,6.2A28.1,28.1,0,0,1-26.44,1.52Zm0-12.08q6.48,0,9.64-4.52t3.16-14.04q0-10.08-3.24-14.52t-9.56-4.44q-6.48,0-9.68,4.44t-3.2,14.36q0,9.6,3.16,14.16T-26.44-10.56ZM11.24,0V-12a16.086,16.086,0,0,1,1.24-6.56,13.447,13.447,0,0,1,3.96-5,30.725,30.725,0,0,1,7.2-4.12l9.44-4.08a12.8,12.8,0,0,0,5.32-3.76,9.056,9.056,0,0,0,1.72-5.68,7.955,7.955,0,0,0-2.16-5.76Q35.8-49.2,31.64-49.2t-6.32,2.32a8.792,8.792,0,0,0-2.16,6.24H10.44a20.6,20.6,0,0,1,2.4-9.96,17.166,17.166,0,0,1,7.12-7,24.251,24.251,0,0,1,11.68-2.56,24.655,24.655,0,0,1,11.64,2.48,17.528,17.528,0,0,1,7.12,6.64,18.153,18.153,0,0,1,2.44,9.36v.96a16.586,16.586,0,0,1-3.68,11.08q-3.68,4.36-11.36,7.72l-9.36,4.08a9.823,9.823,0,0,0-3.4,2.16,4.4,4.4,0,0,0-1,3.04v4l-3.12-2.64h32V0Z" transform="translate(52.44 60.16)"/></svg>