<svg xmlns="http://www.w3.org/2000/svg" xmlns:xlink="http://www.w3.org/1999/xlink" width="105.76" height="61.68" viewBox="0 0 105.76 61.68"><defs><style>.a{fill:url(#a);}</style><linearGradient id="a" x1="0.448" y1="1" x2="0.872" y2="-0.102" gradientUnits="objectBoundingBox"><stop offset="0" stop-color="#fff"/><stop offset="1" stop-color="#cfcfcf"/></linearGradient></defs><path class="a" d="M-26.44,1.52A28.377,28.377,0,0,1-38.36-.76a21.359,21.359,0,0,1-8.04-6.2,26.227,26.227,0,0,1-4.56-9.08,39.426,39.426,0,0,1-1.48-10.92v-4.56A36.145,36.145,0,0,1-49.64-46a23.173,23.173,0,0,1,8.56-10.32q5.76-3.84,14.64-3.84t14.6,3.84A23.261,23.261,0,0,1-3.32-46,36.145,36.145,0,0,1-.52-31.52v4.56A39.426,39.426,0,0,1-2-16.04,26.227,26.227,0,0,1-6.56-6.96a21.428,21.428,0,0,1-8,6.2A28.1,28.1,0,0,1-26.44,1.52Zm0-12.08q6.48,0,9.64-4.52t3.16-14.04q0-10.08-3.24-14.52t-9.56-4.44q-6.48,0-9.68,4.44t-3.2,14.36q0,9.6,3.16,14.16T-26.44-10.56ZM31.24,1.52A25.919,25.919,0,0,1,19.44-1,18.387,18.387,0,0,1,11.8-7.84,18.341,18.341,0,0,1,9.16-17.6H21.8a7.718,7.718,0,0,0,2.48,5.96,9.9,9.9,0,0,0,6.96,2.28,10.5,10.5,0,0,0,5.04-1.12,7.918,7.918,0,0,0,3.2-3.08A8.788,8.788,0,0,0,40.6-18a8.636,8.636,0,0,0-2.44-6.32,9.271,9.271,0,0,0-6.92-2.48,11.263,11.263,0,0,0-4.2.72,11.79,11.79,0,0,0-3.08,1.76l-5.92-10L35.72-45.84,35-47.2H11.56V-58.4H50.92v12.16L30.52-33.28l-6.4-1.76a25.429,25.429,0,0,1,3.4-.76,25.28,25.28,0,0,1,3.88-.28,27.827,27.827,0,0,1,11.68,2.24,17.644,17.644,0,0,1,7.56,6.28,16.609,16.609,0,0,1,2.68,9.4v.96a17.587,17.587,0,0,1-2.68,9.6,18.427,18.427,0,0,1-7.6,6.68A26.314,26.314,0,0,1,31.24,1.52Z" transform="translate(52.44 60.16)"/></svg>