<svg xmlns="http://www.w3.org/2000/svg" xmlns:xlink="http://www.w3.org/1999/xlink" width="86" height="61.68" viewBox="0 0 86 61.68"><defs><style>.a{fill:url(#a);}</style><linearGradient id="a" x1="0.448" y1="1" x2="0.872" y2="-0.102" gradientUnits="objectBoundingBox"><stop offset="0" stop-color="#fff"/><stop offset="1" stop-color="#cfcfcf"/></linearGradient></defs><path class="a" d="M-18.28,1.52A28.377,28.377,0,0,1-30.2-.76a21.359,21.359,0,0,1-8.04-6.2,26.227,26.227,0,0,1-4.56-9.08,39.426,39.426,0,0,1-1.48-10.92v-4.56A36.145,36.145,0,0,1-41.48-46a23.173,23.173,0,0,1,8.56-10.32q5.76-3.84,14.64-3.84t14.6,3.84A23.261,23.261,0,0,1,4.84-46a36.145,36.145,0,0,1,2.8,14.48v4.56A39.426,39.426,0,0,1,6.16-16.04,26.227,26.227,0,0,1,1.6-6.96a21.428,21.428,0,0,1-8,6.2A28.1,28.1,0,0,1-18.28,1.52Zm0-12.08q6.48,0,9.64-4.52t3.16-14.04q0-10.08-3.24-14.52t-9.56-4.44q-6.48,0-9.68,4.44t-3.2,14.36q0,9.6,3.16,14.16T-18.28-10.56ZM28.68,0V-49.76l3.52,2.72H17.24V-58.4H41.72V0Z" transform="translate(44.28 60.16)"/></svg>