<svg xmlns="http://www.w3.org/2000/svg" width="74.466" height="84.871" viewBox="0 0 74.466 84.871">
  <g id="Group_18186" data-name="Group 18186" transform="translate(-0.701 22.233) rotate(-30)">
    <path id="Path_8696" data-name="Path 8696" d="M196.189,121.11l21.177,35.231c-.453-.138-.721-.193-.966-.3-6.534-2.856-13.072-5.707-19.589-8.6a1.534,1.534,0,0,1-.822-1.07c-.048-8.392-.036-16.785-.036-25.177Z" transform="translate(-172.511 -120.885)" fill="#87f2e7"/>
    <path id="Path_8697" data-name="Path 8697" d="M177.869,156.269c7.047-11.841,13.97-23.474,21.031-35.339a9.027,9.027,0,0,1,.128.954q.008,12.111.015,24.22a1.249,1.249,0,0,1-.816,1.394c-6.584,2.847-13.151,5.736-19.724,8.609A6.068,6.068,0,0,1,177.869,156.269Z" transform="translate(-177.059 -120.93)" fill="#87f2e7"/>
    <path id="Path_8698" data-name="Path 8698" d="M199.124,165.585l-21.9-12.83,21.9-9.6Z" transform="translate(-177.222 -115.339)" fill="#87f2e7"/>
    <path id="Path_8699" data-name="Path 8699" d="M195.986,165.576V143.163l21.907,9.594Z" transform="translate(-172.502 -115.337)" fill="#87f2e7"/>
    <path id="Path_8700" data-name="Path 8700" d="M177.772,154.81q4.785,2.793,9.568,5.587c3.583,2.1,7.151,4.218,10.757,6.274a1.786,1.786,0,0,1,1.015,1.814c-.041,5.479-.021,10.957-.247,16.549q-10.616-15.013-21.231-30.027Z" transform="translate(-177.118 -112.408)" fill="#4465ef"/>
    <path id="Path_8701" data-name="Path 8701" d="M217.4,154.961q-10.614,15.015-21.23,30.03l-.22-.073v-4.06c0-4.193-.02-8.387.028-12.578a1.831,1.831,0,0,1,.626-1.365c6.855-4.07,13.743-8.083,20.624-12.107Z" transform="translate(-172.512 -112.408)" fill="#4465ef"/>
  </g>
</svg>
