<svg id="Group_15036" data-name="Group 15036" xmlns="http://www.w3.org/2000/svg" xmlns:xlink="http://www.w3.org/1999/xlink" width="194.5" height="47.204" viewBox="0 0 194.5 47.204">
  <defs>
    <clipPath id="clip-path">
      <rect id="Rectangle_15" data-name="Rectangle 15" width="49.562" height="47.204" fill="#fff"/>
    </clipPath>
    <clipPath id="clip-path-2">
      <path id="Path_949" data-name="Path 949" d="M101.568,87.648l2.419-2.941,1.337,3.565-2.419,2.941Z" transform="translate(-101.568 -84.707)" fill="#fff"/>
    </clipPath>
    <clipPath id="clip-path-3">
      <path id="Path_952" data-name="Path 952" d="M6.678,28.966l3.716-.831L9.255,31.769,5.538,32.6Z" transform="translate(-5.538 -28.136)" fill="#fff"/>
    </clipPath>
    <clipPath id="clip-path-4">
      <path id="Path_959" data-name="Path 959" d="M95.42,3.344l3.693,2.31-.654,2.936L94.766,6.28Z" transform="translate(-94.766 -3.344)" fill="#fff"/>
    </clipPath>
    <clipPath id="clip-path-5">
      <path id="Path_963" data-name="Path 963" d="M8.927,73.235l2.033,2.257-.938,2.889L7.989,76.124Z" transform="translate(-7.989 -73.235)" fill="#fff"/>
    </clipPath>
    <clipPath id="clip-path-6">
      <path id="Path_969" data-name="Path 969" d="M101.695,41.379l2.11-3.373,1.866,3.514-2.11,3.373Z" transform="translate(-101.695 -38.006)" fill="#fff"/>
    </clipPath>
    <clipPath id="clip-path-7">
      <path id="Path_971" data-name="Path 971" d="M39.734,97.819l-5.076.269-2.1-4.2,5.076-.269Z" transform="translate(-32.56 -93.617)" fill="#fff"/>
    </clipPath>
    <clipPath id="clip-path-8">
      <path id="Path_973" data-name="Path 973" d="M73.6,31.382l-.245-5.189,4.434-1.839.245,5.189Z" transform="translate(-73.357 -24.355)" fill="#fff"/>
    </clipPath>
    <clipPath id="clip-path-9">
      <rect id="Rectangle_14" data-name="Rectangle 14" width="6.047" height="7.008" transform="matrix(0.664, -0.748, 0.748, 0.664, 0, 4.523)" fill="#fff"/>
    </clipPath>
  </defs>
  <path id="Path_925" data-name="Path 925" d="M140.5,36.5a4.419,4.419,0,0,0-1.047-.717,9.519,9.519,0,0,0-1.929-.827,6.879,6.879,0,0,0-2.288-.386q-3.114,0-3.114,2.2a1.661,1.661,0,0,0,.5,1.268,4.006,4.006,0,0,0,1.488.8q.992.331,2.481.717a18.964,18.964,0,0,1,3.335,1.158,5.142,5.142,0,0,1,2.177,1.764,4.815,4.815,0,0,1,.772,2.866,5.32,5.32,0,0,1-1.02,3.39,5.631,5.631,0,0,1-2.646,1.847,10.774,10.774,0,0,1-3.583.579,15,15,0,0,1-4.382-.661,14.035,14.035,0,0,1-3.831-1.874l1.681-3.28a5.936,5.936,0,0,0,.882.661,14.714,14.714,0,0,0,1.543.8,13.99,13.99,0,0,0,1.984.661,8.725,8.725,0,0,0,2.177.276q3.142,0,3.142-2.012a1.7,1.7,0,0,0-.634-1.378,5.247,5.247,0,0,0-1.792-.882q-1.13-.359-2.646-.8a16.975,16.975,0,0,1-3.114-1.158,4.794,4.794,0,0,1-1.819-1.626,4.738,4.738,0,0,1-.606-2.508,5.757,5.757,0,0,1,.937-3.363,5.9,5.9,0,0,1,2.591-2.067,8.86,8.86,0,0,1,3.611-.717,10.747,10.747,0,0,1,3.8.661,14.567,14.567,0,0,1,3.032,1.516Zm5.244,14.442V31.378h8.3a5.582,5.582,0,0,1,2.481.551,6.126,6.126,0,0,1,1.984,1.488,7.261,7.261,0,0,1,1.3,2.095,6.268,6.268,0,0,1,.469,2.37,6.731,6.731,0,0,1-.772,3.142,6.516,6.516,0,0,1-2.15,2.425,5.42,5.42,0,0,1-3.17.937h-4.63v6.56Zm3.8-9.895h4.41a2.14,2.14,0,0,0,1.736-.854,3.557,3.557,0,0,0,.717-2.315,3.234,3.234,0,0,0-.8-2.343,2.468,2.468,0,0,0-1.819-.827h-4.245Zm29.823-9.674V50.947h-3.776V42.6H166.72v8.351h-3.8V31.378h3.8v7.91h8.875v-7.91Zm17.671,16.234v3.335H183.453V31.378h13.34v3.335h-9.536v4.713H195.5v3.087h-8.241v5.1Zm2.965,3.335V31.378h8.654a5.582,5.582,0,0,1,2.481.551,6.126,6.126,0,0,1,1.984,1.488,6.546,6.546,0,0,1,1.3,2.095,6.268,6.268,0,0,1,.469,2.37,6.46,6.46,0,0,1-.965,3.445,5.367,5.367,0,0,1-2.563,2.26l4.465,7.359h-4.189l-4.024-6.56h-3.8v6.56Zm3.8-9.895h4.768a2.122,2.122,0,0,0,1.764-.91,3.612,3.612,0,0,0,.717-2.26,3.376,3.376,0,0,0-.386-1.626,3.133,3.133,0,0,0-.992-1.13,2.134,2.134,0,0,0-1.268-.413h-4.6Zm14.526,9.895V31.378h3.8V50.947Zm16.182.138a9.394,9.394,0,0,1-4-.772,7.16,7.16,0,0,1-2.646-2.177,9.52,9.52,0,0,1-1.461-3.114,14.226,14.226,0,0,1-.469-3.666V31.378h3.8v9.977a10.621,10.621,0,0,0,.441,3.087,4.956,4.956,0,0,0,1.488,2.37,4.138,4.138,0,0,0,2.811.91,4.224,4.224,0,0,0,2.866-.91,5.133,5.133,0,0,0,1.488-2.4,10.522,10.522,0,0,0,.441-3.059V31.378h3.776v9.977a13.892,13.892,0,0,1-.5,3.776,8.638,8.638,0,0,1-1.516,3.114A7.145,7.145,0,0,1,238.4,50.34,9.28,9.28,0,0,1,234.518,51.084Zm28.333-.138V38.1l-5.016,9.564h-2.122L250.7,38.1V50.947h-3.8V31.378h4.079l5.788,11.135L262.6,31.378h4.052V50.947Z" transform="translate(-72.539 -17.786)" fill="#fff"/>
  <path id="Path_926" data-name="Path 926" d="M355.5,9.452h-.832V8.222h.832V7.836a2.723,2.723,0,0,1,.3-1.278,2.439,2.439,0,0,1,.88-.928,2.633,2.633,0,0,1,1.387-.35,3.314,3.314,0,0,1,1.254.229,5.3,5.3,0,0,1,1.085.555l-.639,1.206a2.5,2.5,0,0,0-.736-.446,2.29,2.29,0,0,0-.856-.169.964.964,0,0,0-.808.338,1.271,1.271,0,0,0-.253.784v.446h3.388V14.2h-1.616V9.452H357.12V14.2H355.5Zm12.34,4.751h-1.616V10.658a1.846,1.846,0,0,0-.265-1.109.872.872,0,0,0-.736-.35,1.478,1.478,0,0,0-.663.169,2.032,2.032,0,0,0-.591.47,1.766,1.766,0,0,0-.386.675V14.2h-1.616V7.885h1.459v1.17a2.416,2.416,0,0,1,1.013-.928,3.158,3.158,0,0,1,1.5-.35,1.9,1.9,0,0,1,.965.217,1.452,1.452,0,0,1,.579.567,2.282,2.282,0,0,1,.277.8,4.843,4.843,0,0,1,.084.9Zm.971-1.869a1.759,1.759,0,0,1,.338-1.073,2.223,2.223,0,0,1,.965-.723,3.68,3.68,0,0,1,1.41-.253,4.645,4.645,0,0,1,.808.072,3.153,3.153,0,0,1,.711.181V10.2a1.185,1.185,0,0,0-.362-.928,1.492,1.492,0,0,0-1.049-.326,2.73,2.73,0,0,0-.989.181,5,5,0,0,0-.989.531L369.141,8.6a5.161,5.161,0,0,1,1.278-.615,4.672,4.672,0,0,1,1.387-.2,3.022,3.022,0,0,1,2.1.675,2.446,2.446,0,0,1,.76,1.929v2.014a.623.623,0,0,0,.084.374.457.457,0,0,0,.3.121V14.2a2.665,2.665,0,0,1-.4.06,2.122,2.122,0,0,1-.289.024,1.1,1.1,0,0,1-.736-.217.852.852,0,0,1-.3-.531l-.036-.326a2.819,2.819,0,0,1-1.037.832,2.945,2.945,0,0,1-1.242.277,2.45,2.45,0,0,1-1.133-.253,2.093,2.093,0,0,1-.784-.711A1.938,1.938,0,0,1,368.815,12.334Zm3.931.326a.807.807,0,0,0,.3-.555v-.639a3.358,3.358,0,0,0-1.266-.253,1.777,1.777,0,0,0-1.037.277.817.817,0,0,0-.4.711.9.9,0,0,0,.289.651,1.126,1.126,0,0,0,.832.289,1.9,1.9,0,0,0,.7-.133A1.713,1.713,0,0,0,372.746,12.66Zm9.3,1.543H380.43V10.658a1.849,1.849,0,0,0-.265-1.109.872.872,0,0,0-.736-.35,1.477,1.477,0,0,0-.663.169,2.026,2.026,0,0,0-.591.47,1.76,1.76,0,0,0-.386.675V14.2h-1.616V7.885h1.459v1.17a2.416,2.416,0,0,1,1.013-.928,3.157,3.157,0,0,1,1.5-.35,1.905,1.905,0,0,1,.965.217,1.457,1.457,0,0,1,.579.567,2.28,2.28,0,0,1,.277.8,4.88,4.88,0,0,1,.084.9Zm4.347.121a3.326,3.326,0,0,1-1.773-.458,3.2,3.2,0,0,1-1.158-1.206,3.305,3.305,0,0,1-.41-1.616,3.41,3.41,0,0,1,.4-1.628,3.117,3.117,0,0,1,1.158-1.194,3.393,3.393,0,0,1,1.773-.446,3.291,3.291,0,0,1,1.761.446,2.839,2.839,0,0,1,1.1,1.17l-1.58.482a1.394,1.394,0,0,0-1.29-.723,1.525,1.525,0,0,0-.844.241,1.587,1.587,0,0,0-.591.663,2.134,2.134,0,0,0-.217.989,2.181,2.181,0,0,0,.217.989,1.887,1.887,0,0,0,.6.675,1.5,1.5,0,0,0,.832.241,1.588,1.588,0,0,0,.8-.2,1.2,1.2,0,0,0,.519-.543l1.58.482a2.723,2.723,0,0,1-1.085,1.182A3.35,3.35,0,0,1,386.392,14.324Zm6.735,0a3.393,3.393,0,0,1-1.773-.446A3.166,3.166,0,0,1,390.21,12.7a3.3,3.3,0,0,1-.41-1.616,3.436,3.436,0,0,1,.4-1.64,3.093,3.093,0,0,1,1.158-1.206,3.35,3.35,0,0,1,1.785-.458,3.288,3.288,0,0,1,1.773.458,2.965,2.965,0,0,1,1.121,1.194,3.293,3.293,0,0,1,.4,1.592,3.531,3.531,0,0,1-.036.543h-4.884a1.647,1.647,0,0,0,.543,1.158,1.7,1.7,0,0,0,1.133.422,1.865,1.865,0,0,0,.9-.229,1.268,1.268,0,0,0,.591-.627l1.387.386a2.844,2.844,0,0,1-1.121,1.194A3.5,3.5,0,0,1,393.128,14.324Zm-1.652-3.786h3.3a1.738,1.738,0,0,0-.543-1.146,1.546,1.546,0,0,0-1.121-.446,1.573,1.573,0,0,0-1.121.446A1.716,1.716,0,0,0,391.476,10.537Z" transform="translate(-201.932 -3.006)" fill="#fff"/>
  <g id="Group_1401" data-name="Group 1401" transform="translate(0 0)">
    <g id="Group_1400" data-name="Group 1400" clip-path="url(#clip-path)">
      <g id="Group_1399" data-name="Group 1399" transform="translate(0.039 0)">
        <path id="Path_927" data-name="Path 927" d="M40.539,13.5c-.832-.657-1.62-1.27-2.364-1.882-.351-.307-.657-.569-.963-.832A18.645,18.645,0,0,1,40.539,6.8a54.342,54.342,0,0,1,5.779-1.007c.219.175.438.394.657.569.481.438,1.051.876,1.62,1.313A14.276,14.276,0,0,0,46.143,11.4C44.129,12.144,42.552,12.713,40.539,13.5Z" transform="translate(-21.225 -3.299)" fill="#fff"/>
        <path id="Path_928" data-name="Path 928" d="M22.052,30.57c-.963-.744-1.883-1.488-2.714-2.189-.394-.35-.788-.657-1.139-.963a31.68,31.68,0,0,1,1.927-5.911,39.85,39.85,0,0,1,5.341-2.5c.307.263.657.569,1.007.876.745.657,1.576,1.27,2.408,1.926a37.64,37.64,0,0,0-1.445,5.692C25.686,28.425,24.022,29.344,22.052,30.57Z" transform="translate(-10.401 -10.824)" fill="#fff"/>
        <path id="Path_929" data-name="Path 929" d="M11.7,53.786c-.876-.657-1.751-1.357-2.5-2.014-.35-.307-.7-.613-1.007-.919A32.312,32.312,0,0,1,8.026,44.5a23.329,23.329,0,0,1,3.766-3.634c.35.306.744.657,1.138,1.007.832.7,1.751,1.445,2.758,2.189a55.9,55.9,0,0,0-.219,6.567A27.679,27.679,0,0,0,11.7,53.786Z" transform="translate(-4.563 -23.269)" fill="#fff"/>
        <path id="Path_930" data-name="Path 930" d="M101.076,43.924c.876-.657,1.751-1.357,2.5-2.014.351-.307.7-.613,1.007-.919a36.236,36.236,0,0,0,.175-6.349,23.305,23.305,0,0,0-3.765-3.634c-.35.307-.744.657-1.138,1.007-.832.7-1.751,1.444-2.758,2.189a55.988,55.988,0,0,1,.219,6.567A25.2,25.2,0,0,1,101.076,43.924Z" transform="translate(-55.318 -17.654)" fill="#fff"/>
        <path id="Path_931" data-name="Path 931" d="M9.8,77.523c-.613-.481-1.226-.963-1.751-1.4-.263-.219-.481-.438-.7-.613A34.857,34.857,0,0,1,5.287,70.08a9.469,9.469,0,0,1,1.226-3.59c.306.306.657.569,1.007.876.744.657,1.576,1.313,2.452,1.97a55.506,55.506,0,0,0,1.27,5.6A7.069,7.069,0,0,0,9.8,77.523Z" transform="translate(-3.049 -37.856)" fill="#fff"/>
        <path id="Path_932" data-name="Path 932" d="M72.889,30.885c-1.576-.832-3.2-1.664-4.772-2.583a50.986,50.986,0,0,1,.569-5.429c1.445-.788,2.846-1.576,4.335-2.54,1.095.613,2.145,1.226,3.24,1.751.131,1.488.263,2.67.569,5.166A34.983,34.983,0,0,1,72.889,30.885Z" transform="translate(-38.821 -11.577)" fill="#fff"/>
        <path id="Path_933" data-name="Path 933" d="M59.459,53.639c-1.839-.919-3.678-1.926-5.473-2.977.044-2.233.087-4.159.219-6.436,2.452-1.445,3.722-2.146,5.341-3.152q2.43,1.379,4.86,2.627c.087,2.058.219,4.159.306,6.217C63.312,51.012,61.91,52.019,59.459,53.639Z" transform="translate(-30.776 -23.385)" fill="#fff"/>
        <path id="Path_934" data-name="Path 934" d="M45.747,77.556c-1.664-.876-3.371-1.751-5.035-2.715-.131-2.146-.263-3.721-.35-5.823,4.115-2.5,4.115-2.5,5.3-3.24,1.795,1.051,3.634,2.014,5.473,2.977-.044,4.028-.044,4.772-.087,6.086C49.469,75.673,48.068,76.417,45.747,77.556Z" transform="translate(-23.019 -37.451)" fill="#fff"/>
        <path id="Path_935" data-name="Path 935" d="M35.5,96.782c-1.182-.613-2.364-1.226-3.5-1.926-.394-2.014-.569-2.934-.788-4.028,1.095-.657,1.839-1.138,3.9-2.277,1.62.92,3.284,1.839,4.9,2.671-.044,1.445-.044,2.846-.219,4.247C36.465,96.564,35.5,96.782,35.5,96.782Z" transform="translate(-17.809 -50.416)" fill="#fff"/>
        <path id="Path_936" data-name="Path 936" d="M101.182,90.52c1.007-.745,2.058-1.533,3.065-2.321.481-1.926.7-2.8.919-3.853-.876-.438-1.489-.788-3.108-1.489-1.4,1.095-2.846,2.189-4.291,3.24-.087,1.357-.131,2.627-.087,3.9C100.394,90.476,101.182,90.52,101.182,90.52Z" transform="translate(-55.643 -47.175)" fill="#fff"/>
        <path id="Path_937" data-name="Path 937" d="M101.182,90.52c1.007-.745,2.058-1.533,3.065-2.321.481-1.926.7-2.8.919-3.853-.876-.438-1.489-.788-3.108-1.489-1.4,1.095-2.846,2.189-4.291,3.24-.087,1.357-.131,2.627-.087,3.9C100.394,90.476,101.182,90.52,101.182,90.52Z" transform="translate(-55.643 -47.175)" fill="#fff"/>
        <path id="Path_938" data-name="Path 938" d="M47.007,31.424c-1.664-1.051-3.284-2.1-4.816-3.152a44.1,44.1,0,0,1,1.4-5.648c1.97-.788,2.89-1.182,5.6-2.189q1.839,1.247,3.809,2.5c-.219,1.445-.481,2.933-.657,5.429C50.247,29.585,49.941,29.761,47.007,31.424Z" transform="translate(-24.06 -11.635)" fill="#fff"/>
        <path id="Path_939" data-name="Path 939" d="M20.574,11.949A13.772,13.772,0,0,1,18.91,9.76a22.356,22.356,0,0,1,3.94-4.247,30.906,30.906,0,0,1,5.123-1.751,8.93,8.93,0,0,0,1.313,1.708,19.369,19.369,0,0,0-3.415,3.984C24.3,10.2,22.588,10.854,20.574,11.949Z" transform="translate(-10.805 -2.141)" fill="#fff"/>
        <path id="Path_940" data-name="Path 940" d="M95.537,8.187A13.754,13.754,0,0,0,97.2,6a22.369,22.369,0,0,0-3.94-4.247A30.911,30.911,0,0,0,88.137,0a8.944,8.944,0,0,1-1.313,1.708,19.366,19.366,0,0,1,3.415,3.984A46.209,46.209,0,0,1,95.537,8.187Z" transform="translate(-49.472)" fill="#fff"/>
        <path id="Path_941" data-name="Path 941" d="M32.5,53.83c-1.708-1.051-3.371-2.146-4.947-3.24a50.6,50.6,0,0,1,.263-6.567c1.532-.963,2.89-1.8,5.385-3.152,1.532,1.051,3.2,2.145,4.86,3.152-.131,1.97-.219,3.415-.263,6.48C36.043,51.641,34.292,52.735,32.5,53.83Z" transform="translate(-15.723 -23.269)" fill="#87f2e7"/>
        <path id="Path_942" data-name="Path 942" d="M5.368,31.442A12.108,12.108,0,0,1,3.66,29.209a27.492,27.492,0,0,1,2.014-6,18.773,18.773,0,0,1,3.766-3.59A11.523,11.523,0,0,0,11.1,21.81a28.931,28.931,0,0,0-1.97,5.911A33.228,33.228,0,0,0,5.368,31.442Z" transform="translate(-2.123 -11.171)" fill="#fff"/>
        <path id="Path_943" data-name="Path 943" d="M23,77.06c-1.4-.876-2.758-1.751-4.028-2.627-.394-1.62-.788-3.284-1.183-5.648a34.857,34.857,0,0,1,3.722-3.109c1.533,1.051,3.2,2.146,4.9,3.2.131,1.97.175,3.152.394,5.779C25.454,75.527,24.228,76.272,23,77.06Z" transform="translate(-10.169 -37.393)" fill="#fff"/>
        <path id="Path_944" data-name="Path 944" d="M1.978,56.643A8.1,8.1,0,0,1,.621,54.8,28.872,28.872,0,0,1,.1,48.85a15.02,15.02,0,0,1,1.27-4.422,13.82,13.82,0,0,0,1.664,2.233,40.427,40.427,0,0,0,.175,6.3A10.379,10.379,0,0,0,1.978,56.643Z" transform="translate(-0.091 -25.295)" fill="#fff"/>
        <path id="Path_945" data-name="Path 945" d="M73.182,75.829c-1.664-.657-3.415-1.4-5.167-2.233.044-1.4.087-3.371.087-6.086,1.708-1.182,3.372-2.277,5.254-3.765q2.627,1.247,5.122,2.233a55.19,55.19,0,0,1,.088,6.086A49.066,49.066,0,0,1,73.182,75.829Z" transform="translate(-38.763 -36.293)" fill="#fff"/>
        <path id="Path_946" data-name="Path 946" d="M57.681,97.453q-2.036-.788-4.2-1.839c.131-1.051.263-2.189.35-4.291,1.708-.788,3.284-1.532,5.341-2.671,1.751.832,3.5,1.576,5.123,2.233a23.129,23.129,0,0,1-1.007,4.554A40.174,40.174,0,0,1,57.681,97.453Z" transform="translate(-30.487 -50.474)" fill="#fff"/>
        <g id="Group_1377" data-name="Group 1377" transform="translate(43.701 36.479)">
          <g id="Group_1376" data-name="Group 1376" clip-path="url(#clip-path-2)">
            <g id="Group_1375" data-name="Group 1375" transform="translate(1.186 1.469)">
              <path id="Path_947" data-name="Path 947" d="M105.3,91.831l-.837.341,1.3.9.022-2.513Zm-.309.394.4-.161.231-.6-.01,1.19Z" transform="translate(-104.4 -89.509)" fill="#fff"/>
              <path id="Path_948" data-name="Path 948" d="M105.6,88.979l-1.256-.861-.025,2.418.808-.332Zm-1.1-.441.716.491-.461.189-.27.7Zm.342.912.472-.194-.276.717-.472.194Z" transform="translate(-104.322 -88.118)" fill="#fff"/>
            </g>
          </g>
        </g>
        <g id="Group_1380" data-name="Group 1380" transform="translate(2.346 12.117)">
          <g id="Group_1379" data-name="Group 1379" clip-path="url(#clip-path-3)">
            <g id="Group_1378" data-name="Group 1378" transform="translate(1.387 0.415)">
              <path id="Path_950" data-name="Path 950" d="M9.629,33.669l-.869-.246.473,1.512L10.8,32.968Zm-.486.12.412.116.553-.332-.74.931Z" transform="translate(-8.76 -31.302)" fill="#fff"/>
              <path id="Path_951" data-name="Path 951" d="M10.97,30.55,10.51,29.1,9,30.99l.841.236Zm-.595-1.023.263.828-.48-.134-.643.385Zm-.291.929.491.138-.658.395-.491-.138Z" transform="translate(-8.898 -29.099)" fill="#fff"/>
            </g>
          </g>
        </g>
        <g id="Group_1383" data-name="Group 1383" transform="translate(40.772 1.44)">
          <g id="Group_1382" data-name="Group 1382" clip-path="url(#clip-path-4)">
            <g id="Group_1381" data-name="Group 1381" transform="translate(0.298 0.755)">
              <path id="Path_953" data-name="Path 953" d="M98.87,6.744A3.669,3.669,0,0,0,97.66,5.5a2.167,2.167,0,0,0-1.4-.387.867.867,0,0,0-.772.7,1.984,1.984,0,0,0,.31,1.376,3.664,3.664,0,0,0,1.21,1.247,3.038,3.038,0,0,0,.5.252c.03.012.052,0,.05-.029a.1.1,0,0,0-.059-.071,2.8,2.8,0,0,1-.466-.237,3.451,3.451,0,0,1-1.139-1.174,1.867,1.867,0,0,1-.292-1.3.816.816,0,0,1,.727-.659,2.037,2.037,0,0,1,1.32.364,3.455,3.455,0,0,1,1.14,1.174,1.867,1.867,0,0,1,.292,1.3.817.817,0,0,1-.727.659,1.531,1.531,0,0,1-.612-.047c-.029-.008-.048.009-.041.038a.1.1,0,0,0,.065.066,1.631,1.631,0,0,0,.65.05.867.867,0,0,0,.772-.7A1.982,1.982,0,0,0,98.87,6.744Z" transform="translate(-95.457 -5.097)" fill="#fff"/>
              <path id="Path_954" data-name="Path 954" d="M98.87,6.744A3.669,3.669,0,0,0,97.66,5.5a2.167,2.167,0,0,0-1.4-.387.867.867,0,0,0-.772.7,1.984,1.984,0,0,0,.31,1.376,3.664,3.664,0,0,0,1.21,1.247,3.038,3.038,0,0,0,.5.252c.03.012.052,0,.05-.029a.1.1,0,0,0-.059-.071,2.8,2.8,0,0,1-.466-.237,3.451,3.451,0,0,1-1.139-1.174,1.867,1.867,0,0,1-.292-1.3.816.816,0,0,1,.727-.659,2.037,2.037,0,0,1,1.32.364,3.455,3.455,0,0,1,1.14,1.174,1.867,1.867,0,0,1,.292,1.3.817.817,0,0,1-.727.659,1.531,1.531,0,0,1-.612-.047c-.029-.008-.048.009-.041.038a.1.1,0,0,0,.065.066,1.631,1.631,0,0,0,.65.05.867.867,0,0,0,.772-.7A1.982,1.982,0,0,0,98.87,6.744Z" transform="translate(-95.457 -5.097)" fill="#fff"/>
              <path id="Path_955" data-name="Path 955" d="M96.713,5.865a.079.079,0,0,0-.077-.038.717.717,0,0,0-.476.548A2.458,2.458,0,0,0,97.444,8.59c.86.538,1.684.419,1.836-.264A2.456,2.456,0,0,0,98,6.11a1.859,1.859,0,0,0-1.155-.33c-.025,0-.031.029-.015.059a.09.09,0,0,0,.076.049,1.729,1.729,0,0,1,1.075.307,2.288,2.288,0,0,1,1.2,2.064c-.142.637-.909.747-1.71.246a2.287,2.287,0,0,1-1.2-2.064.666.666,0,0,1,.443-.51C96.732,5.924,96.733,5.894,96.713,5.865Z" transform="translate(-95.843 -5.482)" fill="#fff"/>
              <path id="Path_956" data-name="Path 956" d="M96.713,5.865a.079.079,0,0,0-.077-.038.717.717,0,0,0-.476.548A2.458,2.458,0,0,0,97.444,8.59c.86.538,1.684.419,1.836-.264A2.456,2.456,0,0,0,98,6.11a1.859,1.859,0,0,0-1.155-.33c-.025,0-.031.029-.015.059a.09.09,0,0,0,.076.049,1.729,1.729,0,0,1,1.075.307,2.288,2.288,0,0,1,1.2,2.064c-.142.637-.909.747-1.71.246a2.287,2.287,0,0,1-1.2-2.064.666.666,0,0,1,.443-.51C96.732,5.924,96.733,5.894,96.713,5.865Z" transform="translate(-95.843 -5.482)" fill="#fff"/>
              <path id="Path_957" data-name="Path 957" d="M97.42,8.18a.289.289,0,0,0,.1.115l1,.628a.748.748,0,0,0,.39.127.3.3,0,0,0,.265-.134l.166-.27a.45.45,0,0,0-.024-.424,1.05,1.05,0,0,0-.382-.421l-.873-.546c-.069-.043-.137-.043-.164,0l-.179.291L97.494,7.4c-.055-.034-.108-.034-.13,0l-.087.129a.081.081,0,0,0,0,.079.189.189,0,0,0,.071.079l.211.132-.149.242A.123.123,0,0,0,97.42,8.18Zm.043-.692s.007,0,.012,0l.986.617-.082.123s-.007,0-.012,0l-.986-.617Zm.525.6.36.225c.054.034.108.034.13,0l.087-.13a.082.082,0,0,0,0-.079.2.2,0,0,0-.072-.079l-.336-.21.058-.094.654.409a.249.249,0,0,1,.088.094.1.1,0,0,1,.006.1l-.166.27c-.032.052-.111.053-.193,0l-.669-.419Zm-.11-.069-.063.1a.058.058,0,0,0,0,.054.133.133,0,0,0,.049.054l.718.449c.132.083.261.081.312,0l.166-.27a.192.192,0,0,0-.012-.183.454.454,0,0,0-.164-.177L98.2,7.617c-.032-.02-.063-.02-.076,0l-.08.13-.205-.129.169-.276c.007-.012.025-.012.044,0l.873.546a.837.837,0,0,1,.3.336.359.359,0,0,1,.019.339l-.166.27a.244.244,0,0,1-.216.109.617.617,0,0,1-.319-.1l-1-.628a.077.077,0,0,1-.028-.031.035.035,0,0,1,0-.031l.158-.258.205.129Z" transform="translate(-96.488 -6.309)" fill="#fff"/>
              <path id="Path_958" data-name="Path 958" d="M97.42,8.18a.289.289,0,0,0,.1.115l1,.628a.748.748,0,0,0,.39.127.3.3,0,0,0,.265-.134l.166-.27a.45.45,0,0,0-.024-.424,1.05,1.05,0,0,0-.382-.421l-.873-.546c-.069-.043-.137-.043-.164,0l-.179.291L97.494,7.4c-.055-.034-.108-.034-.13,0l-.087.129a.081.081,0,0,0,0,.079.189.189,0,0,0,.071.079l.211.132-.149.242A.123.123,0,0,0,97.42,8.18Zm.043-.692s.007,0,.012,0l.986.617-.082.123s-.007,0-.012,0l-.986-.617Zm.525.6.36.225c.054.034.108.034.13,0l.087-.13a.082.082,0,0,0,0-.079.2.2,0,0,0-.072-.079l-.336-.21.058-.094.654.409a.249.249,0,0,1,.088.094.1.1,0,0,1,.006.1l-.166.27c-.032.052-.111.053-.193,0l-.669-.419Zm-.11-.069-.063.1a.058.058,0,0,0,0,.054.133.133,0,0,0,.049.054l.718.449c.132.083.261.081.312,0l.166-.27a.192.192,0,0,0-.012-.183.454.454,0,0,0-.164-.177L98.2,7.617c-.032-.02-.063-.02-.076,0l-.08.13-.205-.129.169-.276c.007-.012.025-.012.044,0l.873.546a.837.837,0,0,1,.3.336.359.359,0,0,1,.019.339l-.166.27a.244.244,0,0,1-.216.109.617.617,0,0,1-.319-.1l-1-.628a.077.077,0,0,1-.028-.031.035.035,0,0,1,0-.031l.158-.258.205.129Z" transform="translate(-96.488 -6.309)" fill="#fff"/>
            </g>
          </g>
        </g>
        <g id="Group_1386" data-name="Group 1386" transform="translate(3.401 31.539)">
          <g id="Group_1385" data-name="Group 1385" clip-path="url(#clip-path-5)">
            <g id="Group_1384" data-name="Group 1384" transform="translate(0.365 0.74)">
              <path id="Path_960" data-name="Path 960" d="M11.008,76.562a2.676,2.676,0,0,0-.581-1.221.924.924,0,0,0-.856-.375.924.924,0,0,0-.63.691,2.906,2.906,0,0,0,.547,2.573,1.415,1.415,0,0,0,.283.246c.018.012.034,0,.037-.028a.079.079,0,0,0-.026-.07,1.322,1.322,0,0,1-.266-.232A2.735,2.735,0,0,1,9,75.723a.87.87,0,0,1,.593-.651.871.871,0,0,1,.806.353,2.74,2.74,0,0,1,.515,2.423.87.87,0,0,1-.593.651.654.654,0,0,1-.395-.044c-.018-.007-.033.009-.034.038a.072.072,0,0,0,.032.065.694.694,0,0,0,.419.047.925.925,0,0,0,.629-.691A2.675,2.675,0,0,0,11.008,76.562Z" transform="translate(-8.837 -74.952)" fill="#fff"/>
              <path id="Path_961" data-name="Path 961" d="M9.782,75.706c-.009-.028-.028-.045-.044-.037a.868.868,0,0,0-.408.54,2.461,2.461,0,0,0,.463,2.174.678.678,0,0,0,1.255-.267,2.46,2.46,0,0,0-.463-2.174.792.792,0,0,0-.7-.32c-.017,0-.026.029-.02.059s.025.05.041.047a.739.739,0,0,1,.655.3,2.29,2.29,0,0,1,.431,2.024A.631.631,0,0,1,9.82,78.3a2.29,2.29,0,0,1-.431-2.024.806.806,0,0,1,.38-.5C9.785,75.764,9.79,75.735,9.782,75.706Z" transform="translate(-9.068 -75.329)" fill="#fff"/>
              <path id="Path_962" data-name="Path 962" d="M9.989,77.981a.222.222,0,0,0,.049.113l.553.614a.323.323,0,0,0,.235.124.237.237,0,0,0,.2-.132l.156-.266a.657.657,0,0,0,.057-.417.8.8,0,0,0-.179-.412l-.481-.534c-.038-.042-.082-.041-.108,0l-.168.287-.13-.143c-.03-.033-.065-.033-.086,0l-.079.127a.119.119,0,0,0-.012.078.149.149,0,0,0,.033.078l.116.129-.14.239A.183.183,0,0,0,9.989,77.981Zm.148-.68s.005,0,.008,0l.543.6-.075.121s-.005,0-.008,0l-.543-.6Zm.242.587.2.22c.03.033.065.033.086,0l.08-.127a.12.12,0,0,0,.012-.078.149.149,0,0,0-.034-.078l-.185-.205.054-.093.36.4a.183.183,0,0,1,.042.093.145.145,0,0,1-.012.095l-.156.266c-.03.051-.082.052-.127,0l-.368-.409Zm-.061-.067-.06.1a.083.083,0,0,0-.007.053.1.1,0,0,0,.023.053l.4.439c.073.081.157.079.206,0l.156-.266a.278.278,0,0,0,.024-.18.346.346,0,0,0-.077-.174l-.378-.419c-.018-.02-.038-.019-.05,0l-.075.128-.113-.125.159-.272c.007-.012.019-.012.029,0l.481.533a.639.639,0,0,1,.143.329.525.525,0,0,1-.046.333l-.156.266a.194.194,0,0,1-.161.108.262.262,0,0,1-.192-.1l-.553-.614a.065.065,0,0,1-.013-.031.051.051,0,0,1,0-.031L10.2,77.7l.113.125Z" transform="translate(-9.491 -76.141)" fill="#fff"/>
            </g>
          </g>
        </g>
        <g id="Group_1389" data-name="Group 1389" transform="translate(43.756 16.367)">
          <g id="Group_1388" data-name="Group 1388" clip-path="url(#clip-path-6)">
            <g id="Group_1387" data-name="Group 1387" transform="translate(0.58 1.008)">
              <path id="Path_964" data-name="Path 964" d="M105.4,45.149l.211-.338a.635.635,0,0,0,.02-.574.175.175,0,0,0-.331-.012l-.211.338a.125.125,0,0,0,0,.115l.249.469A.035.035,0,0,0,105.4,45.149Zm-.213-.525.176-.281a.105.105,0,0,1,.2.007.382.382,0,0,1-.012.344l-.176.281Z" transform="translate(-104.198 -42.491)" fill="#fff"/>
              <path id="Path_965" data-name="Path 965" d="M105.378,43.765a1.153,1.153,0,0,0-.022-.118c-.087-.368-.334-.531-.55-.365l-.078-.147a.035.035,0,0,0-.066,0l-.14.225a.127.127,0,0,0,0,.115l.062.117-.071.112-.062-.117a.035.035,0,0,0-.066,0l-.141.225a.126.126,0,0,0,0,.115l.062.117-.07.112a.129.129,0,0,0,0,.115l.124.234a.035.035,0,0,0,.066,0l.07-.112.56,1.054-.07.112a.127.127,0,0,0,0,.115l.124.234a.035.035,0,0,0,.066,0l.07-.112.062.117c.017.032.047.034.066,0l.14-.225a.126.126,0,0,0,0-.115l-.062-.117.071-.112.062.117a.035.035,0,0,0,.066,0l.141-.225a.126.126,0,0,0,0-.115l-.062-.117a1.125,1.125,0,0,0,.137-.669C105.825,43.944,105.609,43.687,105.378,43.765Zm.283,1.127-.035.056a.126.126,0,0,0,0,.115l.062.117-.07.112-.062-.117a.035.035,0,0,0-.066,0l-.141.225a.127.127,0,0,0,0,.115l.062.117-.07.112-.062-.117a.035.035,0,0,0-.066,0l-.071.113-.062-.118.07-.112a.128.128,0,0,0,0-.115l-.622-1.171a.035.035,0,0,0-.066,0l-.071.112-.062-.118.07-.112a.127.127,0,0,0,0-.115l-.062-.117.071-.112.062.117a.035.035,0,0,0,.066,0l.141-.225a.126.126,0,0,0,0-.115l-.062-.117.07-.112.07.132c.014.027.037.033.056.014a.263.263,0,0,1,.121-.068c.181-.039.34.181.355.493a.1.1,0,0,0,0,.016c.007.042.033.065.058.051.122-.069.253-.013.337.146A.889.889,0,0,1,105.661,44.892Z" transform="translate(-103.708 -41.92)" fill="#fff"/>
              <path id="Path_966" data-name="Path 966" d="M106.271,45.466l-.317.506a.126.126,0,0,0,0,.115l.249.469a.035.035,0,0,0,.066,0l.317-.506a.636.636,0,0,0,.02-.574A.175.175,0,0,0,106.271,45.466Zm.248.469-.281.45-.186-.351.281-.45a.105.105,0,0,1,.2.007A.381.381,0,0,1,106.52,45.935Z" transform="translate(-104.691 -43.197)" fill="#fff"/>
              <path id="Path_967" data-name="Path 967" d="M103.517,41.025a3.809,3.809,0,0,0-.122,3.443,1.05,1.05,0,0,0,1.988.071,3.814,3.814,0,0,0,.122-3.443A1.05,1.05,0,0,0,103.517,41.025Zm1.8,3.4a.98.98,0,0,1-1.855-.066,3.555,3.555,0,0,1,.114-3.214.981.981,0,0,1,1.856.066A3.555,3.555,0,0,1,105.321,44.422Z" transform="translate(-103.042 -40.346)" fill="#fff"/>
              <path id="Path_968" data-name="Path 968" d="M103.89,41.689a3.3,3.3,0,0,0-.106,2.984.91.91,0,0,0,1.723.061,3.305,3.305,0,0,0,.106-2.984A.91.91,0,0,0,103.89,41.689Zm1.555,2.928a.84.84,0,0,1-1.59-.056,3.048,3.048,0,0,1,.1-2.755.84.84,0,0,1,1.59.056A3.048,3.048,0,0,1,105.445,44.617Z" transform="translate(-103.29 -40.776)" fill="#fff"/>
            </g>
          </g>
        </g>
        <g id="Group_1392" data-name="Group 1392" transform="translate(13.983 40.316)">
          <g id="Group_1391" data-name="Group 1391" clip-path="url(#clip-path-7)">
            <g id="Group_1390" data-name="Group 1390" transform="translate(1.03 0.133)">
              <path id="Path_970" data-name="Path 970" d="M38.614,98.114c-.085.058-.279-.055-.27-.157-.006-.083.113-.111.21-.053S38.688,98.077,38.614,98.114Zm1.133-.178a.172.172,0,0,1-.193-.088c-.043-.071.028-.128.114-.1C39.773,97.776,39.829,97.909,39.746,97.936Zm-2.531-.059c.111.006.2.153.115.188-.061.038-.165-.022-.21-.088C37.108,97.919,37.136,97.864,37.216,97.877Zm2.034-.381c-.081.07-.288-.016-.329-.134s.088-.2.226-.121C39.273,97.3,39.33,97.443,39.249,97.5Zm-1.749.023c.008.118-.194.133-.307.023-.1-.085-.085-.2,0-.232C37.316,97.281,37.507,97.4,37.5,97.519Zm.833-.262c.051.1-.014.179-.116.191a.382.382,0,0,1-.227-.093c-.1-.084-.11-.207-.029-.252a.262.262,0,0,1,.146-.02A.367.367,0,0,1,38.334,97.257Zm1.7-.239c-.075.062-.264-.034-.276-.136s.09-.13.192-.078S40.1,96.977,40.031,97.018Zm-3.8.2c-.057.065-.235,0-.274-.1s.04-.164.149-.122S36.3,97.166,36.231,97.22Zm1.444-.26a.5.5,0,0,1-.458-.1c-.178-.134-.227-.351-.1-.441a.483.483,0,0,1,.571.133C37.838,96.7,37.829,96.9,37.674,96.96Zm.835-.06a.486.486,0,0,1-.518-.111c-.161-.137-.19-.339-.065-.421a.473.473,0,0,1,.535.108C38.624,96.619,38.645,96.823,38.51,96.9Zm.715-.3c.034.093-.033.158-.128.169a.387.387,0,0,1-.291-.169c-.04-.1,0-.192.107-.2A.325.325,0,0,1,39.225,96.6Zm-2.425.27c-.093.072-.316-.014-.376-.144-.077-.137.068-.245.234-.171S36.907,96.8,36.8,96.867Zm1.751-.591a.52.52,0,0,1-.463-.127c-.14-.118-.193-.29-.115-.386.093-.14.41-.1.584.073C38.736,95.995,38.729,96.222,38.551,96.276Zm-1.6.086a.509.509,0,0,1-.454-.109c-.169-.129-.22-.331-.111-.425s.382-.069.547.083C37.121,96.066,37.129,96.3,36.952,96.361Zm2.472-.288a.266.266,0,0,1-.315-.185c-.02-.105.123-.152.245-.08S39.531,96.036,39.424,96.074Zm-3.538.019c.051.094.016.182-.09.193a.307.307,0,0,1-.245-.152c-.064-.112.049-.2.182-.149A.406.406,0,0,1,35.886,96.092Zm4.137-.108a.169.169,0,0,1-.207-.1c-.039-.087.087-.127.175-.058C40.062,95.877,40.073,95.956,40.023,95.985Zm-4.835.258c-.037.037-.136.017-.185-.038-.067-.06-.043-.148.04-.142C35.147,96.048,35.256,96.195,35.188,96.243Zm2.636-.565a.556.556,0,0,1-.565-.267c-.107-.188.024-.366.252-.333a.575.575,0,0,1,.432.291A.2.2,0,0,1,37.824,95.677Zm-.8.043a.549.549,0,0,1-.571-.27c-.1-.184.024-.356.244-.33a.545.545,0,0,1,.465.36A.192.192,0,0,1,37.025,95.72Zm1.484-.2c-.131.029-.335-.106-.337-.229-.022-.131.169-.177.314-.077S38.655,95.5,38.509,95.524Zm-2.347.118a.315.315,0,0,1-.359-.159c-.072-.135.073-.238.236-.166S36.293,95.591,36.162,95.642Zm-.949-.554c.091.08.056.194-.055.184a.3.3,0,0,1-.152-.059c-.031-.049-.071-.106-.045-.146C34.988,94.994,35.138,95.006,35.213,95.088Zm3.832-.045c-.068.062-.248-.016-.276-.117s.067-.146.174-.1S39.116,95,39.045,95.043Zm-1.984-.086A.31.31,0,0,1,36.7,94.8c-.078-.137.073-.242.236-.166S37.191,94.906,37.061,94.957Zm.785-.23c-.082.056-.268-.023-.312-.131-.047-.087.011-.168.115-.16a.329.329,0,0,1,.222.119C37.9,94.623,37.908,94.7,37.846,94.728Zm-1.776.093c-.079.067-.279-.012-.326-.127-.062-.12.075-.205.217-.132C36.092,94.617,36.154,94.766,36.07,94.821Zm-.649-.667c.082.063.064.146-.008.165a.209.209,0,0,1-.178-.115C35.2,94.114,35.332,94.079,35.421,94.153Zm2.478-.072c.007.053-.014.108-.09.1-.1,0-.2-.135-.134-.182S37.854,94.006,37.9,94.081Zm-1.212,0c.02.078-.074.122-.168.085a.274.274,0,0,1-.13-.105c0-.022-.009-.044-.014-.066a.1.1,0,0,1,.088-.069A.22.22,0,0,1,36.687,94.084Z" transform="translate(-34.953 -93.926)" fill="#fff"/>
            </g>
          </g>
        </g>
        <g id="Group_1395" data-name="Group 1395" transform="translate(31.552 10.488)">
          <g id="Group_1394" data-name="Group 1394" clip-path="url(#clip-path-8)">
            <g id="Group_1393" data-name="Group 1393" transform="translate(0.123 0.914)">
              <path id="Path_972" data-name="Path 972" d="M73.658,30.054c-.06-.09.06-.281.168-.264.087,0,.115.123.054.217S73.7,30.132,73.658,30.054Zm.179,1.166a.164.164,0,0,1,.094-.191c.075-.038.135.038.1.123C74,31.259,73.865,31.306,73.837,31.22Zm.081-2.574c-.007.112-.162.194-.2.1-.04-.065.024-.167.094-.208C73.874,28.534,73.931,28.566,73.917,28.647Zm.385,2.1c-.072-.087.02-.292.144-.326s.206.1.126.239C74.511,30.783,74.358,30.831,74.3,30.745Zm-.011-1.783c-.125,0-.138-.207-.022-.314.09-.1.208-.073.244.017C74.543,28.791,74.413,28.977,74.291,28.962Zm.27.867a.141.141,0,0,1-.2-.131.354.354,0,0,1,.1-.225c.09-.1.219-.1.266-.011a.266.266,0,0,1,.02.149A.345.345,0,0,1,74.561,29.829Zm.238,1.746c-.065-.08.037-.267.145-.271s.136.1.081.2S74.843,31.65,74.8,31.575Zm-.183-3.885c-.068-.062,0-.24.1-.272s.172.052.127.161S74.672,27.76,74.616,27.69Zm.263,1.489a.476.476,0,0,1,.112-.459c.143-.172.371-.207.464-.071a.466.466,0,0,1-.144.572C75.149,29.364,74.938,29.34,74.878,29.179Zm.057.855a.468.468,0,0,1,.121-.52c.146-.155.358-.17.443-.036a.459.459,0,0,1-.118.537C75.23,30.17,75.015,30.178,74.935,30.034Zm.314.75c-.1.028-.165-.045-.177-.142a.362.362,0,0,1,.18-.284.142.142,0,0,1,.206.123A.308.308,0,0,1,75.249,30.784Zm-.266-2.489c-.075-.1.017-.321.155-.372.145-.069.257.087.177.25S75.05,28.409,74.983,28.295Zm.608,1.825a.5.5,0,0,1,.137-.462.31.31,0,0,1,.407-.089c.146.1.1.425-.081.589C75.885,30.329,75.646,30.305,75.591,30.12Zm-.078-1.634a.488.488,0,0,1,.118-.455c.137-.163.35-.2.448-.083a.44.44,0,0,1-.091.552C75.822,28.679,75.575,28.67,75.513,28.485Zm.284,2.538a.252.252,0,0,1,.2-.307c.111-.013.158.136.082.255S75.836,31.135,75.8,31.023Zm.007-3.6a.131.131,0,0,1-.2-.106.289.289,0,0,1,.161-.239c.118-.057.206.064.156.2A.379.379,0,0,1,75.8,27.419Zm.082,4.221a.161.161,0,0,1,.1-.2c.091-.034.133.1.059.182C76,31.688,75.916,31.694,75.886,31.64ZM75.65,26.7c-.039-.04-.017-.14.042-.186.063-.064.156-.033.149.051C75.855,26.669,75.7,26.77,75.65,26.7Zm.575,2.726a.526.526,0,0,1,.286-.556.241.241,0,0,1,.348.28.542.542,0,0,1-.309.42A.227.227,0,0,1,76.226,29.422Zm-.039-.817a.52.52,0,0,1,.288-.562.239.239,0,0,1,.346.272.517.517,0,0,1-.382.448A.216.216,0,0,1,76.187,28.605Zm.2,1.525c-.03-.136.113-.333.243-.327.137-.013.184.185.078.325S76.4,30.281,76.382,30.131Zm-.107-2.4a.3.3,0,0,1,.17-.354c.143-.064.25.091.173.252S76.328,27.869,76.275,27.732Zm.59-.928c-.085.087-.205.043-.194-.068a.279.279,0,0,1,.063-.151c.052-.028.112-.065.155-.035C76.965,26.582,76.951,26.734,76.864,26.8Zm.019,3.907c-.065-.073.018-.251.125-.273s.154.078.1.184S76.932,30.786,76.883,30.711Zm.1-2.015a.3.3,0,0,1,.168-.354c.144-.069.253.091.173.252S77.041,28.832,76.988,28.7Zm.235.816c-.058-.087.027-.272.14-.309a.117.117,0,0,1,.168.128.308.308,0,0,1-.127.217C77.333,29.576,77.254,29.578,77.223,29.512ZM77.139,27.7c-.069-.086.015-.283.137-.323.126-.055.215.092.137.23C77.353,27.733,77.2,27.785,77.139,27.7Zm.706-.615c-.067.079-.154.055-.174-.019.009-.07.051-.158.122-.174C77.888,26.86,77.924,27,77.846,27.083Zm.058,2.529c-.056,0-.114-.022-.1-.1,0-.106.144-.2.192-.124S77.982,29.572,77.9,29.612Zm.006-1.234c-.083.014-.128-.084-.088-.177a.259.259,0,0,1,.112-.125L78,28.065a.106.106,0,0,1,.072.094A.209.209,0,0,1,77.91,28.378Z" transform="translate(-73.642 -26.476)" fill="#fff"/>
            </g>
          </g>
        </g>
        <g id="Group_1398" data-name="Group 1398" transform="translate(30.1 29.469)">
          <g id="Group_1397" data-name="Group 1397" transform="translate(0 0)" clip-path="url(#clip-path-9)">
            <g id="Group_1396" data-name="Group 1396" transform="translate(2.09 2.212)">
              <path id="Path_974" data-name="Path 974" d="M79.516,77.36v0l-.749-.57.584-1.4,0,0,0-.034-.236-1.22a.023.023,0,0,0,0-.009v0l-.01-.009a.015.015,0,0,0-.013-.01l-.987-.534-.006,0-1.389.362c-.008,0-.01,0-.029.021l-.04.036-.14.127-.422.383-.613.557,0,0-.024.027,0,.015-.6,1.433,0,0,0,.033.239,1.218h0a.024.024,0,0,0,0,.012.017.017,0,0,0,.005.009l.01.009.984.526a.016.016,0,0,0,.008.007.021.021,0,0,0,.012,0,.033.033,0,0,0,.016,0l1.378-.36.006-.006.009-.006h0l1.174-1.069.736.564a.035.035,0,0,0,.018.007.087.087,0,0,0,.045-.012.072.072,0,0,0,.025-.025.083.083,0,0,0,.018-.042A.055.055,0,0,0,79.516,77.36Zm-.648-1.92.186-.96.166.868Zm.337.027-.425,1.022.072-.93ZM75.764,77.4l.239.747-.753-.405Zm1.612-2.711.666-.929.259.805Zm1.053-.164-.24-.748.753.405Zm.04.095.51-.341-.2,1.02,0,.011Zm-3,1.553v-.01l.078-.989.266.054L76,75.26Zm2.472-2.445-.668.932-.457-.639Zm.747,1.875-.566.971-.172-.475-.1-.278.834-.217Zm-.817.1.5-.953.332.736Zm-.514-.89.935-.126-.51.97ZM77.2,76.818l.551-.9.273.766-.968.37Zm-.666-.768.713-1.167.214.434.218.434Zm1.128-.18-.71,1.166-.217-.433-.217-.434Zm-.652-.788L76.448,76l-.272-.766.964-.369Zm-.177,2.028-.931.126.384-.733.126-.237Zm-1.327-.792.565-.97.171.487.1.266Zm.817-.1-.5.953-.332-.736Zm2.4-.47v0l-.079,1-.267-.054-.185-.036Zm-3.1-.7.924-.843-.47.932Zm.105,2.255-.51.341.2-1.029v0Zm1.2-.041.453.64-1.124.294Zm1.654-.389-.924.843.469-.932ZM76.2,75.11l.506-1,.451.638Zm-1.211,1.342.425-1.022-.072.93Zm.337.027-.186.959-.166-.868.353-.092Zm1.491.754-.666.929-.259-.805Zm1.176-.424-.506,1.005-.451-.638Z" transform="translate(-74.837 -73.565)" fill="#fff"/>
            </g>
          </g>
        </g>
      </g>
    </g>
  </g>
</svg>
