<svg id="download" xmlns="http://www.w3.org/2000/svg" width="153.016" height="30" viewBox="0 0 153.016 30">
  <path id="Path_1956" data-name="Path 1956" d="M190.673,48.014h3.692V40.786h8.4V37.614h-8.4v-3.77h8.58V30.672H190.673Zm20.6.312a6.374,6.374,0,0,0,6.656-6.6,6.644,6.644,0,0,0-13.286,0A6.367,6.367,0,0,0,211.273,48.326Zm0-2.938c-2.054,0-3.2-1.69-3.2-3.666,0-1.95,1.144-3.64,3.2-3.64s3.224,1.69,3.224,3.64C214.5,43.7,213.327,45.388,211.273,45.388Zm9.106,2.626h3.3V39.72a4.185,4.185,0,0,1,3.094-1.4,4.388,4.388,0,0,1,.91.078V35.17a5.372,5.372,0,0,0-4,2V35.456h-3.3Zm13.581.312a4.076,4.076,0,0,0,2.756-.806l-.7-2.5a1.805,1.805,0,0,1-1.144.364c-.728,0-1.144-.6-1.144-1.378V38.342h2.548V35.456h-2.548V32.024H230.4v3.432h-2.08v2.886h2.08v6.552C230.4,47.13,231.647,48.326,233.961,48.326Zm20.148-.312h3.328V38.94c0-2.574-1.378-3.8-3.692-3.8a5.329,5.329,0,0,0-4.316,2.288,3.323,3.323,0,0,0-3.484-2.288,5.494,5.494,0,0,0-4.108,1.95V35.456h-3.3V48.014h3.3v-8.45a3.37,3.37,0,0,1,2.6-1.482c1.352,0,1.872.832,1.872,2v7.93h3.328V39.538a3.334,3.334,0,0,1,2.6-1.456c1.352,0,1.872.832,1.872,2v7.93Zm14.107,0h3.3V39.9c0-3.614-2.626-4.758-5.486-4.758a8.238,8.238,0,0,0-5.486,1.976l1.248,2.21a5.284,5.284,0,0,1,3.666-1.482c1.664,0,2.756.832,2.756,2.106V41.7a5.075,5.075,0,0,0-3.978-1.534c-2,0-4.368,1.066-4.368,4a4.184,4.184,0,0,0,4.368,4.16,5.2,5.2,0,0,0,3.978-1.612v1.3Zm0-3.016a3.3,3.3,0,0,1-2.652,1.092c-1.3,0-2.366-.676-2.366-1.846,0-1.2,1.066-1.9,2.366-1.9a3.3,3.3,0,0,1,2.652,1.092Zm10.789,3.328a4.078,4.078,0,0,0,2.756-.806l-.7-2.5a1.8,1.8,0,0,1-1.144.364c-.728,0-1.144-.6-1.144-1.378V38.342h2.548V35.456h-2.548V32.024h-3.328v3.432h-2.08v2.886h2.08v6.552c0,2.236,1.248,3.432,3.562,3.432Zm6.211-14.716a1.976,1.976,0,1,0-1.976-1.976A1.975,1.975,0,0,0,285.216,33.61Zm-1.638,14.4h3.3V35.456h-3.3Zm5.77-6.292a6.377,6.377,0,0,0,6.656,6.6,5.788,5.788,0,0,0,4.966-2.288l-2.158-2a3.17,3.17,0,0,1-2.652,1.352,3.378,3.378,0,0,1-3.406-3.666,3.356,3.356,0,0,1,3.406-3.64,3.106,3.106,0,0,1,2.652,1.352l2.158-2a5.788,5.788,0,0,0-4.966-2.288A6.37,6.37,0,0,0,289.349,41.722Z" transform="translate(-147.956 -23.014)"/>
  <path id="Path_1957" data-name="Path 1957" d="M15,0H30V7.511H7.5V30H0V0Zm7.5,22.489H15.044V15.023H30v7.729A7.243,7.243,0,0,1,22.763,30H22.5V22.489Z" fill="#6851ff" fill-rule="evenodd"/>
</svg>
