<svg xmlns="http://www.w3.org/2000/svg" width="142.031" height="39.775" viewBox="0 0 142.031 39.775">
  <g id="Group_1515" data-name="Group 1515" transform="translate(194.016 -624.487)">
    <path id="Path_2035" data-name="Path 2035" d="M230.578,92.061l-.344-.347a.416.416,0,0,0-.709.293V96.96a.417.417,0,0,0,.417.415h4.953a.414.414,0,0,0,.293-.707.414.414,0,0,1,0-.586l5.268-5.284a.413.413,0,0,0,0-.586l-.48-.478a.415.415,0,0,1,.293-.708h4.95a.416.416,0,0,1,.416.415v4.951a.416.416,0,0,1-.71.293l-.334-.334a.4.4,0,0,0-.585,0l-8.882,8.877a.415.415,0,0,1-.586,0L223.671,92.363a.414.414,0,0,1,0-.588l15.042-15.042a.416.416,0,0,0,0-.587l-3.537-3.537a.416.416,0,0,0-.587,0L215.116,92.083a.417.417,0,0,0,0,.587l19.472,19.471a.418.418,0,0,0,.587,0L254.646,92.67a.416.416,0,0,0,0-.586L243.191,80.629a.416.416,0,0,0-.586,0L231.167,92.062a.416.416,0,0,1-.589,0Z" transform="translate(-409.012 552)" fill="#1c1b20"/>
    <g id="Group_1515-2" data-name="Group 1515" transform="translate(-148.791 628.018)">
      <path id="Path_2036" data-name="Path 2036" d="M208.829,672.912a2.092,2.092,0,0,0-2.082,2.066,2.2,2.2,0,0,0,1.293,1.992,2.162,2.162,0,0,0,2.272-.494,2.014,2.014,0,0,0,.615-1.482,1.96,1.96,0,0,0-.615-1.469,2.026,2.026,0,0,0-1.485-.607v-.005h0Zm-33.482-15.838h-1.553a1.214,1.214,0,0,0-1.217,1.213v.867a7.6,7.6,0,0,0-5.613-2.579,7.773,7.773,0,0,0-6.033,2.689,9.673,9.673,0,0,0-2.411,6.718,10.008,10.008,0,0,0,2.407,6.848,7.949,7.949,0,0,0,11.651.289v1.713a1.509,1.509,0,0,0,1.506,1.508h2.651V658.462a1.391,1.391,0,0,0-1.389-1.388Zm-3.925,13.158a4.754,4.754,0,0,1-3.72,1.583,4.512,4.512,0,0,1-3.571-1.637,6.242,6.242,0,0,1-1.38-4.2,5.982,5.982,0,0,1,1.416-4.05,4.571,4.571,0,0,1,3.571-1.617,4.669,4.669,0,0,1,3.679,1.606,6.8,6.8,0,0,1,0,8.315h0v0Zm-12.9-10.132v-1.771a1.25,1.25,0,0,0-1.252-1.252h-1.637a1.248,1.248,0,0,0-1.251,1.25v.771a7.23,7.23,0,0,0-5.632-2.523,7.623,7.623,0,0,0-6.222,2.909,10.329,10.329,0,0,0-2.191,6.663,9.818,9.818,0,0,0,2.359,6.718,7.623,7.623,0,0,0,6,2.65,7.73,7.73,0,0,0,5.687-2.519v2.5q0,5.58-4.545,5.58a4.444,4.444,0,0,1-3.753-1.678,3.62,3.62,0,0,1-.546-1.058,1.469,1.469,0,0,0-1.391-.987h-1.569a1.219,1.219,0,0,0-1.18,1.519,7.517,7.517,0,0,0,2.492,3.984,8.918,8.918,0,0,0,5.908,1.934,8.4,8.4,0,0,0,6.683-2.8,7.589,7.589,0,0,0,1.728-3.479,15.026,15.026,0,0,0,.23-1.7q.081-.963.081-2.235v-2.605a10.241,10.241,0,0,1-1.742-5.992,9.912,9.912,0,0,1,1.742-5.882h0Zm-5.246,9.99a4.546,4.546,0,0,1-3.755,1.724,4.459,4.459,0,0,1-3.72-1.713,7.211,7.211,0,0,1,0-8.06,4.466,4.466,0,0,1,3.72-1.746,4.625,4.625,0,0,1,3.625,1.6,6.033,6.033,0,0,1,1.4,4.18,6.175,6.175,0,0,1-1.271,4.014v0Zm39.673-13v-.013h-8.589v-5.26a1.222,1.222,0,0,0-1.224-1.223h-1.677a1.239,1.239,0,0,0-1.238,1.239v5.244h-1.769v3.861h1.767v15.4h2.362a1.774,1.774,0,0,0,1.777-1.778V660.937H188.6a8.7,8.7,0,0,1,1.225-1.771,7.639,7.639,0,0,1,3.118-2.079h0Zm21.132-6.5a2.712,2.712,0,0,0-2.687,2.672,2.7,2.7,0,0,0,2.708,2.724,2.524,2.524,0,0,0,1.892-.793,2.613,2.613,0,0,0,.8-1.914,2.536,2.536,0,0,0-.794-1.894,2.608,2.608,0,0,0-1.917-.8l0,0Zm.839,8.515h-1.5a1.4,1.4,0,0,0-1.4,1.4v13.146a2.1,2.1,0,0,1,0,2.645v.74h2.666a1.478,1.478,0,0,0,1.477-1.48V660.342a1.242,1.242,0,0,0-1.244-1.239v0Zm19.464,2.536a9.807,9.807,0,0,0-13.585-.013,8.9,8.9,0,0,0-2.779,6.6,9.288,9.288,0,0,0,2.724,6.849,9.119,9.119,0,0,0,6.755,2.759,9.5,9.5,0,0,0,6.865-2.705,9.608,9.608,0,0,0,.02-13.495Zm-2.93,10.935a5.583,5.583,0,0,1-7.767-.021,6.049,6.049,0,0,1-1.437-4.251,5.765,5.765,0,0,1,1.474-4.084,5.507,5.507,0,0,1,7.73,0,6.72,6.72,0,0,1,0,8.353v0Z" transform="translate(-140.332 -650.588)" fill="#1c1b20"/>
      <path id="Path_2037" data-name="Path 2037" d="M503.855,718.608a5.391,5.391,0,0,1-1.44-3.516h11.87a.994.994,0,0,0,1-.974A9.916,9.916,0,0,0,513,707.18a8.978,8.978,0,0,0-12.553.074,9.932,9.932,0,0,0-2.356,6.885,9.681,9.681,0,0,0,2.427,6.882,7.9,7.9,0,0,0,4.161,2.343,8.73,8.73,0,0,0,2.127.238c2.948.061,5.514.121,8.462.182l.005-.433a2.023,2.023,0,0,1-.542-1.416,1.99,1.99,0,0,1,.557-1.4l0-.524c-2.325-.058-7.962-.114-8.187-.114a4.346,4.346,0,0,1-3.249-1.289v0Zm-.576-8.279a4.181,4.181,0,0,1,.931-1.038,3.969,3.969,0,0,1,1.206-.663,4.3,4.3,0,0,1,1.421-.23,3.973,3.973,0,0,1,4.179,3.31h-8.326a4.932,4.932,0,0,1,.588-1.382v0Z" transform="translate(-449.699 -697.344)" fill="#1c1b20"/>
    </g>
  </g>
</svg>
