<svg width="135" height="41" viewBox="0 0 135 41" fill="none" xmlns="http://www.w3.org/2000/svg">
<path d="M16.0374 20.1333L15.6823 19.7763C15.6226 19.7169 15.5467 19.6763 15.464 19.6599C15.3813 19.6434 15.2956 19.6517 15.2177 19.6837C15.1397 19.7158 15.0729 19.7701 15.0257 19.84C14.9785 19.9098 14.953 19.992 14.9524 20.0763V25.1763C14.9529 25.2898 14.9983 25.3984 15.0787 25.4784C15.1591 25.5584 15.2679 25.6033 15.3813 25.6033H20.4814C20.5659 25.6034 20.6485 25.5784 20.7188 25.5314C20.789 25.4844 20.8437 25.4176 20.8759 25.3394C20.908 25.2613 20.9162 25.1754 20.8994 25.0925C20.8826 25.0097 20.8415 24.9337 20.7813 24.8743C20.7024 24.7944 20.6582 24.6866 20.6582 24.5743C20.6582 24.462 20.7024 24.3543 20.7813 24.2744L26.2033 18.8373C26.2822 18.7574 26.3265 18.6497 26.3265 18.5374C26.3265 18.4251 26.2822 18.3173 26.2033 18.2373L25.7094 17.7453C25.6501 17.6857 25.6097 17.6099 25.5934 17.5274C25.577 17.4449 25.5854 17.3594 25.6174 17.2816C25.6494 17.2039 25.7037 17.1373 25.7735 17.0903C25.8432 17.0433 25.9252 17.0179 26.0093 17.0173H31.1043C31.2177 17.0173 31.3264 17.0623 31.4066 17.1423C31.4869 17.2224 31.5321 17.331 31.5323 17.4443V22.5443C31.5314 22.6286 31.5057 22.7108 31.4584 22.7805C31.411 22.8503 31.3442 22.9046 31.2663 22.9366C31.1883 22.9686 31.1026 22.9769 31.0199 22.9605C30.9372 22.9441 30.8612 22.9037 30.8014 22.8443L30.4573 22.5013C30.4184 22.4611 30.3719 22.429 30.3203 22.4071C30.2688 22.3853 30.2133 22.374 30.1573 22.374C30.1014 22.374 30.0459 22.3853 29.9944 22.4071C29.9428 22.429 29.8963 22.4611 29.8574 22.5013L20.7163 31.6383C20.6361 31.7165 20.5284 31.7603 20.4164 31.7603C20.3043 31.7603 20.1967 31.7165 20.1164 31.6383L8.92236 20.4443C8.84232 20.3649 8.79701 20.2571 8.79636 20.1443C8.79712 20.0316 8.84241 19.9238 8.92236 19.8443L24.4044 4.36234C24.4825 4.28205 24.5263 4.1744 24.5263 4.06233C24.5263 3.95026 24.4825 3.84263 24.4044 3.76234L20.7633 0.122345C20.6832 0.0439208 20.5755 0 20.4633 0C20.3512 0 20.2435 0.0439208 20.1634 0.122345L0.122345 20.1553C0.0439208 20.2355 0 20.3432 0 20.4554C0 20.5675 0.0439208 20.6752 0.122345 20.7553L20.1634 40.7963C20.2436 40.8745 20.3513 40.9183 20.4633 40.9183C20.5754 40.9183 20.683 40.8745 20.7633 40.7963L40.8033 20.7553C40.882 20.6753 40.9261 20.5676 40.9261 20.4554C40.9261 20.3431 40.882 20.2354 40.8033 20.1553L29.0133 8.36435C28.9333 8.28569 28.8256 8.24161 28.7133 8.24161C28.6011 8.24161 28.4934 8.28569 28.4134 8.36435L16.6404 20.1313C16.561 20.2114 16.4531 20.2567 16.3404 20.2573C16.2276 20.2567 16.1197 20.2114 16.0403 20.1313L16.0374 20.1333ZM108.547 25.2043C108.298 25.2013 108.052 25.2491 107.822 25.3449C107.592 25.4407 107.384 25.5824 107.211 25.7614C107.034 25.9324 106.893 26.1378 106.797 26.3651C106.701 26.5924 106.653 26.8367 106.654 27.0833C106.656 27.4663 106.768 27.8406 106.977 28.1618C107.185 28.483 107.481 28.7376 107.83 28.8953C108.182 29.0249 108.563 29.0516 108.929 28.972C109.295 28.8925 109.63 28.7101 109.896 28.4464C110.077 28.2719 110.22 28.0622 110.316 27.8304C110.412 27.5985 110.46 27.3494 110.456 27.0983C110.462 26.8488 110.415 26.601 110.318 26.3708C110.222 26.1407 110.078 25.9334 109.896 25.7623C109.721 25.5826 109.511 25.4407 109.279 25.3452C109.047 25.2498 108.797 25.2029 108.546 25.2073L108.547 25.2043ZM78.0923 10.7983H76.6794C76.5343 10.7974 76.3905 10.8252 76.2563 10.8801C76.122 10.9349 75.9999 11.0158 75.897 11.118C75.7941 11.2203 75.7125 11.3419 75.6568 11.4758C75.601 11.6097 75.5724 11.7533 75.5724 11.8983V12.6863C74.9325 11.9602 74.1475 11.3763 73.268 10.9724C72.3885 10.5685 71.4341 10.3535 70.4664 10.3413C69.4282 10.3209 68.3984 10.5295 67.45 10.9523C66.5016 11.375 65.6581 12.0016 64.9794 12.7874C63.4958 14.4702 62.711 16.6562 62.7853 18.8983C62.7103 21.1749 63.4917 23.3969 64.9754 25.1253C65.6725 25.9168 66.5347 26.546 67.5011 26.9684C68.4676 27.3908 69.5149 27.5963 70.5694 27.5703C72.457 27.5249 74.2519 26.742 75.5694 25.3893V26.9473C75.5696 27.3109 75.7141 27.6596 75.9711 27.9168C76.2282 28.1741 76.5767 28.3188 76.9404 28.3193H79.3533V12.0613C79.3528 11.7271 79.22 11.4065 78.9839 11.1699C78.7478 10.9332 78.4276 10.7997 78.0934 10.7983H78.0923ZM74.5213 22.7663C74.0981 23.2401 73.5756 23.6147 72.991 23.8634C72.4064 24.1122 71.7742 24.2289 71.1394 24.2054C70.5208 24.2178 69.9074 24.0903 69.345 23.8325C68.7826 23.5746 68.2857 23.1931 67.8914 22.7163C67.0203 21.6398 66.5732 20.2818 66.6344 18.8983C66.5931 17.5531 67.0524 16.2404 67.9234 15.2143C68.3217 14.7435 68.8198 14.3672 69.3816 14.1126C69.9433 13.858 70.5547 13.7315 71.1714 13.7423C71.8029 13.7215 72.4311 13.8417 73.0102 14.0942C73.5894 14.3468 74.105 14.7254 74.5193 15.2023C75.4026 16.2595 75.8623 17.6068 75.8094 18.9833C75.862 20.3608 75.4025 21.7089 74.5193 22.7673L74.5213 22.7663ZM62.7844 13.5493V11.9373C62.7844 11.7879 62.7549 11.6399 62.6976 11.5019C62.6403 11.3639 62.5564 11.2385 62.4506 11.133C62.3448 11.0275 62.2192 10.9439 62.081 10.887C61.9428 10.8301 61.7948 10.8009 61.6454 10.8013H60.1563C60.007 10.8009 59.859 10.83 59.7209 10.887C59.5827 10.9439 59.4572 11.0275 59.3515 11.1331C59.2458 11.2386 59.1619 11.364 59.1047 11.502C59.0476 11.64 59.0182 11.788 59.0183 11.9373V12.6373C58.3874 11.8993 57.6008 11.3102 56.7149 10.9125C55.8291 10.5148 54.8662 10.3184 53.8954 10.3373C52.8106 10.3045 51.7334 10.5268 50.7503 10.9864C49.7672 11.446 48.9058 12.13 48.2354 12.9833C46.8849 14.7093 46.18 16.8528 46.2423 19.0433C46.1675 21.277 46.9329 23.4575 48.3874 25.1543C49.0603 25.937 49.8996 26.5596 50.8438 26.9765C51.7881 27.3934 52.8135 27.5943 53.8453 27.5643C54.8191 27.5614 55.7816 27.3563 56.6719 26.9619C57.5622 26.5675 58.3609 25.9925 59.0174 25.2733V27.5503C59.0174 30.9337 57.6394 32.6253 54.8834 32.6253C54.2335 32.6647 53.5837 32.5466 52.9893 32.2809C52.3949 32.0152 51.8734 31.6098 51.4694 31.0993C51.2509 30.8076 51.082 30.4819 50.9694 30.1353C50.8787 29.8723 50.7082 29.6442 50.4815 29.4828C50.2549 29.3215 49.9835 29.235 49.7054 29.2354H48.2784C48.1096 29.2356 47.9432 29.2744 47.7917 29.3487C47.6402 29.423 47.5077 29.5309 47.4043 29.6642C47.3008 29.7975 47.2291 29.9526 47.1946 30.1178C47.1601 30.283 47.1638 30.4538 47.2054 30.6173C47.5552 32.0356 48.3496 33.3049 49.4724 34.2393C50.9944 35.4566 52.9039 36.085 54.8513 36.0093C55.9902 36.0656 57.1271 35.8663 58.1789 35.4259C59.2306 34.9855 60.1704 34.3153 60.9294 33.4643C61.7192 32.5637 62.261 31.4729 62.5013 30.2993C62.6003 29.7871 62.6701 29.2695 62.7104 28.7493C62.7597 28.1653 62.7844 27.4877 62.7844 26.7163V24.3474C61.7025 22.7395 61.1485 20.8346 61.1993 18.8973C61.1488 16.9919 61.7038 15.1195 62.7844 13.5493ZM58.0133 22.6373C57.6082 23.1496 57.0877 23.5588 56.4941 23.8313C55.9006 24.1039 55.2509 24.232 54.5984 24.2054C53.9511 24.2342 53.3063 24.1078 52.7178 23.8368C52.1293 23.5658 51.6142 23.158 51.2154 22.6473C50.4355 21.5954 50.0401 20.3077 50.0953 18.9993C50.0365 17.6794 50.4318 16.3792 51.2154 15.3153C51.611 14.7992 52.1247 14.3855 52.7134 14.1092C53.3021 13.8329 53.9485 13.7019 54.5984 13.7273C55.2219 13.71 55.8414 13.8315 56.4122 14.0832C56.983 14.3348 57.4906 14.7103 57.8983 15.1823C58.7873 16.2429 59.2427 17.6002 59.1733 18.9823C59.2276 20.2972 58.8185 21.5893 58.0174 22.6333L58.0133 22.6373ZM94.0984 10.8093V10.7973H86.2863V6.01434C86.2865 5.86801 86.2578 5.72309 86.2018 5.58788C86.1459 5.45266 86.0638 5.3298 85.9604 5.22633C85.8569 5.12286 85.734 5.0408 85.5988 4.98486C85.4636 4.92893 85.3187 4.90021 85.1723 4.90034H83.6474C83.3485 4.90034 83.0618 5.01907 82.8504 5.23042C82.6391 5.44178 82.5204 5.72844 82.5204 6.02734V10.7973H80.9124V14.3093H82.5184V28.3183H84.6664C84.879 28.3188 85.0895 28.2772 85.286 28.1961C85.4825 28.1149 85.6611 27.9957 85.8114 27.8453C85.9617 27.695 86.0809 27.5165 86.1621 27.32C86.2432 27.1235 86.2848 26.9129 86.2843 26.7003V14.3093H90.1474C90.4503 13.7275 90.8245 13.1857 91.2614 12.6964C92.0357 11.8411 93.0101 11.1913 94.0974 10.8053L94.0984 10.8093ZM113.319 4.90034C112.998 4.89643 112.68 4.95839 112.383 5.0824C112.087 5.2064 111.819 5.38982 111.596 5.62134C111.366 5.84182 111.184 6.10693 111.06 6.40045C110.936 6.69397 110.873 7.00972 110.875 7.32834C110.869 7.65518 110.93 7.97978 111.054 8.28226C111.178 8.58473 111.363 8.8587 111.596 9.08734C111.822 9.31938 112.094 9.50275 112.393 9.62622C112.693 9.74969 113.014 9.81064 113.338 9.80533C113.66 9.81196 113.979 9.75134 114.275 9.62735C114.572 9.50336 114.839 9.31872 115.06 9.08533C115.293 8.85958 115.477 8.58874 115.601 8.28937C115.725 7.98999 115.787 7.66839 115.782 7.34433C115.789 7.02292 115.728 6.70375 115.604 6.40723C115.479 6.1107 115.295 5.84337 115.061 5.62234C114.836 5.38975 114.566 5.20578 114.267 5.08177C113.967 4.95777 113.646 4.89636 113.322 4.90134L113.319 4.90034ZM114.082 12.6423H112.722C112.385 12.6423 112.062 12.7763 111.824 13.0146C111.585 13.253 111.451 13.5762 111.451 13.9133V25.8734C111.736 26.2071 111.888 26.6346 111.876 27.0733C111.887 27.5135 111.736 27.9422 111.451 28.2784V28.9513H113.876C114.053 28.9512 114.228 28.9163 114.391 28.8485C114.554 28.7808 114.702 28.6816 114.827 28.5566C114.951 28.4316 115.05 28.2833 115.118 28.1201C115.185 27.9568 115.22 27.7819 115.219 27.6053V13.7713C115.219 13.4718 115.099 13.1849 114.887 12.9735C114.674 12.7622 114.387 12.6438 114.087 12.6443L114.082 12.6423ZM131.782 14.9523C130.971 14.1412 130.004 13.5022 128.939 13.0739C127.875 12.6455 126.735 12.4365 125.587 12.4594C124.446 12.4356 123.312 12.643 122.253 13.069C121.195 13.4951 120.233 14.1309 119.426 14.9383C118.612 15.7103 117.966 16.6431 117.531 17.6777C117.096 18.7123 116.88 19.8261 116.898 20.9483C116.864 22.1008 117.067 23.248 117.493 24.3192C117.919 25.3905 118.56 26.3632 119.376 27.1773C120.173 27.9959 121.129 28.6413 122.187 29.0732C123.244 29.5051 124.379 29.7142 125.52 29.6873C126.673 29.7144 127.819 29.5106 128.892 29.088C129.965 28.6653 130.942 28.0324 131.766 27.2263C132.589 26.4325 133.239 25.4767 133.674 24.4192C134.109 23.3617 134.32 22.2255 134.294 21.0823C134.318 19.9429 134.108 18.8106 133.676 17.7559C133.244 16.7012 132.6 15.7465 131.783 14.9513L131.782 14.9523ZM129.117 24.8983C128.665 25.3745 128.116 25.7477 127.507 25.9927C126.898 26.2377 126.243 26.3488 125.587 26.3183C124.929 26.346 124.273 26.2319 123.663 25.9836C123.053 25.7353 122.504 25.3587 122.052 24.8793C121.139 23.8039 120.673 22.4183 120.752 21.0093C120.698 19.6433 121.179 18.3102 122.094 17.2943C122.54 16.8173 123.084 16.4418 123.688 16.1932C124.291 15.9446 124.942 15.8286 125.594 15.8533C126.252 15.8272 126.907 15.9423 127.516 16.1909C128.125 16.4395 128.673 16.8157 129.124 17.2943C130.043 18.3405 130.518 19.7037 130.448 21.0943C130.518 22.4849 130.043 23.8479 129.124 24.8943L129.117 24.8983Z" fill="white"/>
<path d="M95.5033 24.2414C94.6923 23.3693 94.2266 22.2318 94.1933 21.0413H104.993C105.23 21.043 105.459 20.9509 105.628 20.7852C105.798 20.6195 105.895 20.3935 105.899 20.1563C106.036 17.8644 105.294 15.6065 103.824 13.8423C102.289 12.3602 100.235 11.5375 98.1015 11.5502C95.9677 11.5629 93.9236 12.41 92.4063 13.9103C90.9251 15.6512 90.159 17.8889 90.2624 20.1724C90.153 22.4672 90.9453 24.7139 92.4703 26.4323C93.4822 27.5161 94.8041 28.261 96.2553 28.5653C96.8894 28.7161 97.5396 28.7883 98.1913 28.7803C100.874 28.8353 103.206 28.8913 105.891 28.9463V28.5533C105.566 28.2041 105.389 27.7417 105.398 27.2643C105.395 26.791 105.577 26.3352 105.905 25.9943V25.5174C103.788 25.4644 98.6633 25.4174 98.4583 25.4174C97.9113 25.4372 97.366 25.3431 96.8571 25.1412C96.3483 24.9393 95.887 24.6339 95.5023 24.2443L95.5033 24.2414ZM94.9793 16.7104C95.2076 16.351 95.4938 16.032 95.8263 15.7663C96.1552 15.5037 96.5274 15.3007 96.9263 15.1663C97.3415 15.0246 97.7776 14.9539 98.2163 14.9573C99.1103 14.8988 99.9942 15.1744 100.696 15.7308C101.399 16.2872 101.869 17.0846 102.016 17.9683H94.4463C94.5591 17.5255 94.7392 17.1026 94.9803 16.7143L94.9793 16.7104Z" fill="white"/>
</svg>
