<svg width="22" height="26.000000000000004" xmlns="http://www.w3.org/2000/svg">

 <g>
  <title>background</title>
  <rect fill="none" id="canvas_background" height="28" width="24" y="-1" x="-1"/>
 </g>
 <g>
  <title>Layer 1</title>
  <path stroke="null" transform="rotate(-179.97589111328125 10.814145088195799,12.987667083740234) " id="svg_1" d="m19.662055,17.609245l-7.280805,6.954902c-0.402178,0.416046 -0.949972,0.624069 -1.553238,0.624069c-0.603267,0 -1.144126,-0.208023 -1.553238,-0.624069l-7.308541,-6.954902c-0.866762,-0.825158 -0.866762,-2.170373 0,-2.995531c0.866762,-0.825158 2.267451,-0.825158 3.134213,0l3.494786,3.342236l0,-15.046996c0,-1.171863 0.991576,-2.121834 2.218912,-2.121834c1.227336,0 2.218912,0.949972 2.218912,2.121834l0,15.046996l3.494786,-3.342236c0.866762,-0.825158 2.267451,-0.825158 3.134213,0c0.866762,0.825158 0.866762,2.163439 0,2.995531z"/>
 </g>
</svg>