<svg xmlns="http://www.w3.org/2000/svg" xmlns:xlink="http://www.w3.org/1999/xlink" width="230" height="49" viewBox="0 0 230 49">
  <defs>
    <linearGradient id="linear-gradient" y1="0.396" x2="1" y2="0.396" gradientUnits="objectBoundingBox">
      <stop offset="0" stop-color="#29abe2"/>
      <stop offset="0.5" stop-color="#29abe2"/>
      <stop offset="0.523" stop-color="#239bd3"/>
      <stop offset="0.564" stop-color="#1a84bd"/>
      <stop offset="0.609" stop-color="#1373ad"/>
      <stop offset="0.658" stop-color="#0f69a4"/>
      <stop offset="0.72" stop-color="#0e66a1"/>
      <stop offset="0.994" stop-color="#0661a1"/>
    </linearGradient>
  </defs>
  <g id="Group_1518" data-name="Group 1518" transform="translate(-165.289 -101.54)">
    <g id="Group_1516" data-name="Group 1516" transform="translate(213.318 113.215)">
      <path id="Path_2038" data-name="Path 2038" d="M422.743,176.6l-.113,9.1-6.11-.035.287-23.256,12.983.071-.038,3.115-6.873-.038-.1,8.008,6.873.038.138-11.123,6.2.035-.176,14.155Z" transform="translate(-416.52 -162.41)" fill="#fff"/>
      <path id="Path_2039" data-name="Path 2039" d="M546.976,208.876l-11.364-.063-.042,3.4,12.065.067-1.287,2.825-16.709-.092.2-16.34,11.364.063-.036,2.983L535.7,201.7l-.052,4.126,5.468.031.088-7.118,5.9.033Z" transform="translate(-508.014 -191.715)" fill="#fff"/>
      <path id="Path_2040" data-name="Path 2040" d="M636.38,215.82l.2-16.34,17.319.1-1.105,2.906-10.385-.058-.13,10.515,11.394.063-1.258,2.906Z" transform="translate(-594.348 -192.37)" fill="#fff"/>
      <path id="Path_2041" data-name="Path 2041" d="M752.054,177.88l6.511,9.46-6.6-.036-6.215-8.771-.107,8.737-5.9-.033.287-23.256,5.9.033-.155,12.538,5.812-5.591,7.3.04Z" transform="translate(-677.956 -163.679)" fill="#fff"/>
      <path id="Path_2042" data-name="Path 2042" d="M872.392,188.179l-20.8-.115.038-3.032,14.57.081.128-10.313,6.23.035ZM858.1,167.8l-.086,6.957,8.308.046-.036,2.981-14.508-.067.159-12.9,21.473.119-1.2,2.946Z" transform="translate(-768.415 -164.35)" fill="#fff"/>
      <path id="Path_2043" data-name="Path 2043" d="M983.072,175.151l-.166,13.428-5.9-.033.287-23.256,5.9.033-.086,6.916,5.529.031-.036,2.9Zm11.287,13.49-5.925-.033.2-16.34,5.925.033Z" transform="translate(-869.857 -164.738)" fill="#fff"/>
      <path id="Path_2044" data-name="Path 2044" d="M1086.436,189.139l-5.9-.033.2-16.34,5.9.033Zm-5.607-23.289,5.9.033-.061,5.016-5.9-.033Z" transform="translate(-953.594 -165.19)" fill="#fff"/>
      <path id="Path_2045" data-name="Path 2045" d="M1141.5,212.356l-11.364-.063-.042,3.4,12.065.067-1.287,2.825-16.709-.092.2-16.34,11.364.063-.036,2.983-5.468-.019-.052,4.126,5.468.031.088-7.118,5.9.033Z" transform="translate(-988.875 -194.528)" fill="#fff"/>
      <path id="Path_2046" data-name="Path 2046" d="M1236.978,189.969l-6.078-.033.287-23.256,6.078.033Z" transform="translate(-1075.209 -165.861)" fill="#fff"/>
      <path id="Path_2047" data-name="Path 2047" d="M1293.228,167.275l-.287,23.256-17.472-.1.2-16.34,11.576.063-.036,2.9-5.682-.021-.13,10.515,5.682.031.166-13.428.086-6.916Z" transform="translate(-1111.258 -166.314)" fill="#fff"/>
    </g>
    <g id="Group_1517" data-name="Group 1517" transform="translate(165.289 101.54)">
      <path id="Path_2048" data-name="Path 2048" d="M195.65,126.914a14.74,14.74,0,0,1,2.493,5.054c.4,1.354-7.437,4.824-7.437,4.824s3.594-3.113.3-4.707-6.844-.217-9.2-9.316a2.832,2.832,0,0,0-2.625-1.78c-1.738,0-7.592,2.417-7.592,2.417a5.806,5.806,0,0,1-.715.946l-.348.336a2.529,2.529,0,0,1-1.39.673c-.314-.019-.348,0-.7-.336a1.573,1.573,0,0,1-.348-1.009c0-.752.95-1.132,1.39-1.345a1.591,1.591,0,0,1,1.738,0c.025.027.348.336.312.336h0s0,.336,1.044-.336c1.558-1.005,5.018-2.472,5.64-2.856a.9.9,0,0,0,.369-.437,6.2,6.2,0,0,1,1.294-2.087,4.7,4.7,0,0,1,5.554-.577c4.806,2.5,5.273,2.231,5.273,2.231a33.669,33.669,0,0,1,3.776-4.678,30.791,30.791,0,0,1,5.563-4.707l1.044,3.025s.958-.725,4.347-2.913c-.1-1.609-1.83-2.892-3.957-2.892,0,0-12.1-5.238-16.132-5.238s-16.089,5.238-16.089,5.238c-2.189,0-3.963,1.358-3.963,3.032,0,0-.2,18.12,1.721,22.311,2.73,5.954,18.33,18.415,18.33,18.415s15.237-12.35,18.4-18.3c.885-1.665,1.334-5.551,1.554-9.627A17.512,17.512,0,0,1,195.65,126.914Z" transform="translate(-165.289 -101.54)" fill="url(#linear-gradient)"/>
    </g>
    <path id="Path_2049" data-name="Path 2049" d="M205.444,109.832s.526,18.229-1.7,22.42c-3.162,5.954-18.4,18.3-18.4,18.3s-15.6-12.461-18.33-18.415c-1.921-4.191-1.721-22.311-1.721-22.311,0-1.674,1.774-3.032,3.963-3.032,0,0,12.061-5.238,16.089-5.238s16.132,5.238,16.132,5.238C203.668,106.8,205.444,108.156,205.444,109.832Z" transform="translate(0 -0.016)" fill="none"/>
  </g>
</svg>
