<svg xmlns="http://www.w3.org/2000/svg" width="120" height="77" viewBox="0 0 120 77">
  <g id="Group_1513" data-name="Group 1513" transform="translate(-976 -2837)">
    <g id="Layer_2" data-name="Layer 2" transform="translate(953 2837)">
      <g id="Layer_1" data-name="Layer 1" transform="translate(0 0)">
        <path id="Path_2014" data-name="Path 2014" d="M96.795,12.312a14.157,14.157,0,0,0-1.421,1.021c-.645.6-1.021.392-1.216-.343-.465-1.706-.9-3.413-1.355-5.119a36.031,36.031,0,0,0-1.5-4.686A13.878,13.878,0,0,0,90.263,4.67c-1.249,2.359-2.449,4.719-3.658,7.111a1.314,1.314,0,0,0,.082,1.094c3.078,4.556,6.188,9.087,9.283,13.634.816,1.249,1.69,2.506,2.531,3.764.433.637.261.947-.5.947H90.459a.816.816,0,0,1-.947-.727q-.816-3.266-1.633-6.442c-.457-1.731-.955-3.445-1.412-5.176-.253-.923-.474-1.853-.686-2.784s-.408-.906-1.07-.343L83.7,16.63,81.152,8.164a5.4,5.4,0,0,0-.816.816Q76.5,15.169,72.71,21.366c-2.449,4.017-5.127,7.952-7.4,12.083-1.086,1.968-2.751,2.506-4.564,3.143-1.453.506-2.882,1.086-4.311,1.633-.2.082-.3.4-.449.6.253.073.539.261.751.2C58.268,38.56,59.77,38,61.3,37.547c1.78-.531,3.568-1.053,5.388-1.445,2.7-.58,5.413-1.118,8.164-1.543,2.082-.318,4.2-.514,6.311-.645,3.788-.229,7.585-.506,11.373-.506a79.028,79.028,0,0,1,9.8.6c4.449.563,8.891,1.29,13.291,2.18,3.135.637,6.2,1.633,9.275,2.515,2.278.669,4.547,1.4,6.76,2.253a2.358,2.358,0,0,1,1.47,3.494c-.588,1.29-2.008,1.633-3.568,1.021-2.882-1.167-5.788-2.286-8.695-3.4-.906-.351-1.306-.139-1.723.947a16.1,16.1,0,0,1-4.9,6.7,20.549,20.549,0,0,1-7.348,3.756A32.957,32.957,0,0,1,96.19,54.529a6.174,6.174,0,0,1-.669-.057c-.09,0-.163-.09-.359-.2l2.082-3.331-.229-.245a8.981,8.981,0,0,0-1.118.563c-1.1.727-2.213,1.445-3.266,2.245a2.564,2.564,0,0,1-2.376.416c-1.992-.539-4-1.029-5.935-1.665-3.266-1.151-6.531-2.449-9.8-3.658-.139-.057-.278-.139-.588-.294l2.4-2.082-.1-.237a4.286,4.286,0,0,0-.972,0c-1.3.318-2.572.743-3.886.988a5.331,5.331,0,0,1-2.155-.09c-3.339-.816-6.638-1.731-9.985-2.449A46.586,46.586,0,0,0,53.8,43.67c-2.449-.261-4.9-.425-7.3-.661a12.247,12.247,0,0,1-1.543-.367c.335-.441.514-.743.743-.98A91.12,91.12,0,0,1,58.872,30.134c3.266-2.278,6.678-4.327,10.017-6.531a3.38,3.38,0,0,0,1.053-.955c2.776-4.482,5.519-8.981,8.27-13.479q1.07-1.731,2.164-3.453a8.6,8.6,0,0,1,.71-.816c.816,1.167,1.633,2.229,2.343,3.266.384.555.759,1.11,1.135,1.674s.816.531,1.143-.082C87.2,6.915,88.679,4.041,90.19,1.233A9.927,9.927,0,0,1,91.145,0a10.263,10.263,0,0,1,1.119,1.11q5.1,6.972,10.181,13.953c1.633,2.286,3.315,4.588,4.98,6.866.392.531.816,1,1.265,1.5l.237-.131c-.3-1.249-.6-2.5-.9-3.747l.294-.2c.7.351,1.429.661,2.09,1.07a20.766,20.766,0,0,1,8.262,8.295,29.171,29.171,0,0,1,1.445,4.164c.253.816-.2,1.086-.931.963-1.1-.18-2.188-.449-3.266-.6-4.164-.571-8.336-1.151-12.516-1.633a1.633,1.633,0,0,1-1.633-1.314c-.62-2.384-1.2-4.776-1.837-7.16-.939-3.527-1.91-7.046-2.874-10.564A3,3,0,0,1,96.795,12.312Z" transform="translate(-8.254 0)" fill="#1c1b20"/>
        <path id="Path_2015" data-name="Path 2015" d="M89.521,25.729c.188,1.184.376,2.359.572,3.535a4.156,4.156,0,0,0,.171.645c.065.188.229.351.237.531a7.421,7.421,0,0,0,.58,3.584c.041.073-.351.408-.563.6s-.645.571-.98.816c-.2.171-.376.416-.6.474a.805.805,0,0,1-.441-.49c-.1-.743-.563-.857-1.176-.816a8.082,8.082,0,0,1-1.257,0c-.972-.082-1.633.114-1.633,1.314,0,.62-.465.874-1.053.882s-.62-.539-.612-.972c0-.931-.441-1.233-1.314-1.233-1.241,0-1.3-.139-.751-1.265.237-.49.465-.988.71-1.47a1.127,1.127,0,0,0-.09-1.4c-.18-.229.073-.816.147-1.233.114-.645.2-1.3.367-1.927.269-.98.58-1.959.923-2.906a9.918,9.918,0,0,1,.71-1.29,5.29,5.29,0,0,1,.816,1.274c.359,1.192,1.225,2.237.9,3.649-.114.49.416,1.11.612,1.682a1.29,1.29,0,0,1,.049.7c-.082.335-.433.7-.343.947a12.337,12.337,0,0,0,1.1,2.09c.049.09.539.065.555,0,.2-.653,1.021-1.184.449-2.008a.572.572,0,0,1-.114-.359c.392-1.633.816-3.331,1.225-4.98,0-.171.31-.286.465-.425Z" transform="translate(-14.753 -4.241)" fill="#1c1b20"/>
      </g>
    </g>
    <text id="Twin_Apex_Capital" data-name="Twin Apex Capital" transform="translate(1036 2910)" fill="#1c1b20" font-size="14" font-family="SegoeUI-Bold, Segoe UI" font-weight="700"><tspan x="-59.315" y="0">Twin Apex Capital</tspan></text>
  </g>
</svg>
