<svg xmlns="http://www.w3.org/2000/svg" width="175.15" height="50.983" viewBox="0 0 175.15 50.983">
  <g id="Group_1512" data-name="Group 1512" transform="translate(-685.001 -3309)">
    <path id="Path_1973" data-name="Path 1973" d="M335.916,80.036a1.807,1.807,0,0,1-3.108.788c-.143-.127-.354-.233-.259-.529a6.965,6.965,0,0,0,.65.613,1.258,1.258,0,0,0,2.046-.571.952.952,0,0,0-.423-1.057c-.529-.354-1.057-.687-1.586-1.057a1.459,1.459,0,0,1-.587-1.644,1.242,1.242,0,0,1,1.126-.967,1.586,1.586,0,0,1,1.586.7c-.206.164-.259,0-.333-.1a1.359,1.359,0,0,0-.957-.412.825.825,0,0,0-.862.529.835.835,0,0,0,.211.978,5.2,5.2,0,0,0,1.3.888,2.453,2.453,0,0,1,1.195,1.279Z" transform="translate(524.234 3270.886)" fill="#1c1b20"/>
    <path id="Path_1974" data-name="Path 1974" d="M7.62,51.661c.222-.291.407-.624.825-.687a1.033,1.033,0,0,1,.724,1.908,1.02,1.02,0,0,1-1.316-.243c-.085-.1-.159-.2-.233-.3Z" transform="translate(677.381 3282.499)" fill="#1c1b20"/>
    <path id="Path_1975" data-name="Path 1975" d="M54.572,99.292c-.28-.238-.608-.428-.677-.841a1.035,1.035,0,0,1,1.893-.751,1.026,1.026,0,0,1-.19,1.322c-.106.1-.227.18-.344.27Z" transform="translate(655.577 3260.691)" fill="#1c1b20"/>
    <path id="Path_1976" data-name="Path 1976" d="M38.067,54.973c-.423-1.882-.851-3.764-1.269-5.651-.7-3.172-1.4-6.317-2.115-9.473A1.01,1.01,0,0,1,35,38.718c.719-.645,1.369-1.353,2.056-2.03.169-.169.27-.307.058-.529a.412.412,0,0,1-.137-.238c-.032-.777-.529-.7-1.094-.7H18.55v-.079l3.621-.788c3.838-.856,7.681-1.7,11.519-2.58a1.057,1.057,0,0,1,1.221.344c.629.708,1.332,1.343,1.988,2.019.19.19.344.28.555.042a.3.3,0,0,1,.19-.106c.862,0,.724-.634.724-1.184V15.69h.079q.47,2.062.93,4.134c.825,3.7,1.633,7.4,2.474,11.1a.967.967,0,0,1-.317,1.057c-.708.65-1.364,1.359-2.051,2.03-.19.185-.291.338-.058.529a.407.407,0,0,1,.137.243c0,.751.529.687,1.057.687H57.855v.09L50.66,37.179c-2.643.6-5.329,1.179-7.993,1.782a.851.851,0,0,1-.941-.259c-.682-.73-1.411-1.417-2.115-2.115-.19-.19-.333-.264-.529-.042a.412.412,0,0,1-.243.132c-.846,0-.677.6-.677,1.094v17.2Z" transform="translate(672.229 3299.121)" fill="#1c1b20"/>
    <path id="Path_1977" data-name="Path 1977" d="M251.508,28.531c-.946.375-1.1,1.094-1.057,2.019.053,2.337,0,4.678,0,7.015,0,.412.058.587.529.582,2.056-.032,4.113,0,6.169,0,.375,0,.476-.106.476-.47V30.6c0-1.327,0-1.327-1.126-2.078h4.758c-1.057.412-1.126,1.248-1.121,2.215q.048,8.041,0,16.076c0,1.02.2,1.782,1.232,2.173h-5.017l.5-.275a1.337,1.337,0,0,0,.788-1.311c-.026-2.49,0-4.98,0-7.47,0-.46-.132-.56-.566-.555q-3.029.032-6.058,0c-.434,0-.571.1-.566.555.026,2.432.042,4.869,0,7.3a1.5,1.5,0,0,0,.989,1.586,3.4,3.4,0,0,1,.333.185H246.65c.243-.137.418-.227.581-.328a1.327,1.327,0,0,0,.724-1.248q0-8.68,0-17.376c0-.809-.529-1.147-1.237-1.512Z" transform="translate(564.712 3293.073)" fill="#1c1b20"/>
    <path id="Path_1978" data-name="Path 1978" d="M316.638,48.961a.809.809,0,0,0,.238-.973q-2.733-8.141-5.466-16.261a3.285,3.285,0,0,0-.153-.3l-2.083,6.206-3.14,9.3c-.428,1.263-.391,1.359.83,2.03H303.2c1.057-.386,1.248-1.189,1.507-1.972q3.019-9.019,6.048-18.032c.116-.349.243-.5.65-.5,1.554,0,1.554,0,2.072,1.533q2.934,8.749,5.873,17.5a2.231,2.231,0,0,0,1.237,1.47Z" transform="translate(538.057 3293.102)" fill="#1c1b20"/>
    <path id="Path_1979" data-name="Path 1979" d="M290.286,46.468v2.115c0,.28-.058.4-.37.4H278.45c.085-.174.238-.2.359-.254a1.5,1.5,0,0,0,.888-1.48V30.719c0-.967-.058-1.813-1.195-2.157a.8.8,0,0,1,.555-.1h9.965c.46,0,.64.1.6.587-.042.582,0,1.168,0,1.76-.222-.032-.222-.211-.285-.328a1.4,1.4,0,0,0-1.332-.788h-5.382c-.307,0-.428.074-.423.407V37.75c0,.338.132.4.434.4h4.129c.566,0,.772-.386,1.057-.819v2.939c-.4-1.1-1.211-.878-1.935-.883h-3.23c-.312,0-.465.037-.465.418v7.528c0,.349.1.449.444.444h6.174C289.61,47.736,289.842,47.107,290.286,46.468Z" transform="translate(549.723 3293.105)" fill="#1c1b20"/>
    <path id="Path_1980" data-name="Path 1980" d="M184.668,28.345v3c-.169-.079-.2-.248-.27-.375a4.171,4.171,0,0,0-5.614-1.374,3.57,3.57,0,0,0-.09,5.651,10.906,10.906,0,0,0,3.119,1.427,16.674,16.674,0,0,1,2.643,1,5.043,5.043,0,0,1,2.823,4.451,7.724,7.724,0,0,1-.264,2.8,5.593,5.593,0,0,1-6.259,4.049,7.6,7.6,0,0,1-3.172-1.015,1.057,1.057,0,0,0-1.057-.063V43.871a8.171,8.171,0,0,0,.946,1.988,4.758,4.758,0,0,0,5.2,1.819,3.822,3.822,0,0,0,1.544-6.344A6.9,6.9,0,0,0,181.5,39.7a21.144,21.144,0,0,1-3.849-1.745,5.54,5.54,0,0,1-.137-8.918,6.363,6.363,0,0,1,4.71-.936,7.3,7.3,0,0,1,1.158.254A1.692,1.692,0,0,0,184.668,28.345Z" transform="translate(598.333 3293.306)" fill="#1c1b20"/>
    <path id="Path_1981" data-name="Path 1981" d="M150.387,48.9c.227-.127.4-.217.571-.322a1.406,1.406,0,0,0,.735-1.3c-.026-2.828,0-5.662,0-8.49a1.871,1.871,0,0,0-.211-.862q-2.025-4.044-4.023-8.094a3.315,3.315,0,0,0-1.258-1.4h3.753a.846.846,0,0,0-.074.967c1.158,2.284,2.3,4.578,3.447,6.872a1.782,1.782,0,0,0,.116.185,1.174,1.174,0,0,0,.354-.529c.946-1.776,1.887-3.563,2.828-5.339.661-1.248.645-1.343-.386-2.231h3.674c-1.253.465-1.618,1.639-2.115,2.686-1.11,2.22-2.215,4.446-3.336,6.661a2.184,2.184,0,0,0-.233,1.057c0,2.643.042,5.323,0,7.983a1.975,1.975,0,0,0,1.242,2.178Z" transform="translate(612.06 3293.148)" fill="#1c1b20"/>
    <path id="Path_1982" data-name="Path 1982" d="M215.5,30.849V28.734c0-.222.079-.312.3-.3h13.872c.529,0,.656.143.618.629s0,1.131,0,1.7h-.132a1.729,1.729,0,0,0-1.94-1.094,33.139,33.139,0,0,1-3.4,0c-.529,0-.677.153-.671.666v7.475c0,3.019.037,6.037,0,9.05,0,1.01.217,1.739,1.226,2.115H220.5v-.063a1.759,1.759,0,0,0,1.168-1.94c-.042-5.545,0-11.1,0-16.636,0-.529-.148-.671-.661-.656-1.205.037-2.421.063-3.621,0a1.586,1.586,0,0,0-1.623.967c-.042.085-.09.169-.137.248Z" transform="translate(579.395 3293.113)" fill="#1c1b20"/>
    <path id="Path_1983" data-name="Path 1983" d="M127.64,49.006a1.963,1.963,0,0,0,1.221-2.152q-.053-8.088,0-16.182c0-.957-.1-1.766-1.115-2.173h4.811l-.571.338a1.2,1.2,0,0,0-.629,1.11V47.262c0,.412.132.5.529.492h5.323c1.427,0,1.427,0,2.252-1.221v2.2c0,.349-.238.27-.428.27Z" transform="translate(620.808 3293.083)" fill="#1c1b20"/>
    <path id="Path_1984" data-name="Path 1984" d="M203.137,28.49h4.673v.1a1.672,1.672,0,0,0-1.057,1.829q.063,8.252,0,16.52a1.838,1.838,0,0,0,1.2,2.019H203c.233-.132.439-.243.634-.365a1.253,1.253,0,0,0,.624-1.131V29.975C204.248,29.193,203.708,28.876,203.137,28.49Z" transform="translate(585.287 3293.087)" fill="#1c1b20"/>
    <path id="Path_1985" data-name="Path 1985" d="M279.847,78.54c.185-.053.248-.063.322-.09.825-.27,1.269-.782,1.248-1.47s-.476-1.094-1.348-1.3a13.014,13.014,0,0,0-2.078-.085c-.275,0-.3.148-.3.359v5.1c0,.333.164.333.412.349s.412-.079.4-.375V79.386c0-.782.254-.936.962-.571a1.645,1.645,0,0,1,.46.322,4.2,4.2,0,0,1,1.147,1.782c.148.4.333.608.809.407A5.236,5.236,0,0,0,279.847,78.54Zm-1.147-.09c-.222,0-.2-.174-.2-.322v-1.02a1.317,1.317,0,0,1,0-.386c.09-.285-.248-.735.227-.862a1.466,1.466,0,0,1,1.644.529,1.507,1.507,0,0,1-.164,1.586A1.674,1.674,0,0,1,278.7,78.45Z" transform="translate(550.081 3270.886)" fill="#1c1b20"/>
    <path id="Path_1986" data-name="Path 1986" d="M187.385,81.187v-5c0-.2-.153-.529.148-.576a.825.825,0,0,1,.952.264c.846,1.179,1.729,2.331,2.6,3.494.122.159.254.317.492.619V75.61h.153v5.868l-4.139-5.419v5.123Z" transform="translate(592.666 3270.904)" fill="#1c1b20"/>
    <path id="Path_1987" data-name="Path 1987" d="M162.946,78.469h-1.232c-.264,0-.37.069-.365.349v2.035c0,.317.132.375.407.365H163.4c.148,0,.333-.074.529.2h-3.172c-.222,0-.222-.153-.222-.312V75.958c0-.153,0-.328.2-.328h3.14v.159h-2.009c-.37,0-.529.1-.481.476a14.334,14.334,0,0,1,0,1.586c0,.365.116.46.455.439s.761,0,1.142,0Z" transform="translate(605.306 3270.867)" fill="#1c1b20"/>
    <path id="Path_1988" data-name="Path 1988" d="M310.069,81.413H306.9c-.217,0-.217-.159-.217-.312V75.952c0-.148,0-.322.206-.322h3.135v.159h-2.014c-.365,0-.5.1-.476.476a14.334,14.334,0,0,1,0,1.586c0,.365.122.46.455.439s.761,0,1.142,0v.18H307.9c-.264,0-.37.069-.365.349v2.035c0,.317.137.375.407.365h1.639A.427.427,0,0,1,310.069,81.413Z" transform="translate(536.417 3270.867)" fill="#1c1b20"/>
    <path id="Path_1989" data-name="Path 1989" d="M252.406,75.64a38.388,38.388,0,0,1-.069,4.271,1.554,1.554,0,0,1-.967,1.158,3.008,3.008,0,0,1-2.574,0,1.586,1.586,0,0,1-.957-1.538c0-1.189.032-2.379.032-3.563,0-.312.074-.428.407-.428s.407.122.407.428v3.394c0,1.131.455,1.628,1.507,1.708a1.792,1.792,0,0,0,1.993-1.507,7.993,7.993,0,0,0,.074-1.057V75.635Z" transform="translate(564.153 3270.91)" fill="#1c1b20"/>
    <path id="Path_1990" data-name="Path 1990" d="M130,75.658c.529-.185.809,0,1.02.529.571,1.406,1.205,2.791,1.856,4.293.708-1.7,1.369-3.293,2.03-4.89l.185.079-.772,1.84c-.5,1.195-1,2.395-1.5,3.584-.048.111-.058.275-.222.3s-.211-.111-.264-.233q-1.168-2.675-2.331-5.355A.559.559,0,0,1,130,75.658Z" transform="translate(619.7 3270.887)" fill="#1c1b20"/>
    <path id="Path_1991" data-name="Path 1991" d="M216.837,75.68h5.45v.127h-1.771c-.439-.026-.576.1-.571.529.032,1.544,0,3.087,0,4.631,0,.312-.032.47-.418.47s-.4-.19-.4-.481V76.267c0-.375-.111-.5-.481-.481H216.8Z" transform="translate(578.782 3270.844)" fill="#1c1b20"/>
    <path id="Path_1992" data-name="Path 1992" d="M101.187,51a1.02,1.02,0,0,1,1.02,1.057,1.057,1.057,0,0,1-1.02,1A1.02,1.02,0,0,1,100.129,52a.989.989,0,0,1,1.057-1Z" transform="translate(633.776 3282.479)" fill="#1c1b20"/>
    <path id="Path_1993" data-name="Path 1993" d="M54.941,4.7a1,1,0,0,1,1.01,1.057A1.026,1.026,0,1,1,53.9,5.725,1,1,0,0,1,54.941,4.7Z" transform="translate(655.567 3304.302)" fill="#1c1b20"/>
    <path id="Path_1994" data-name="Path 1994" d="M38.623,62.6a.814.814,0,0,1-.8-.841.841.841,0,0,1,.825-.83.867.867,0,0,1,.856.883A.841.841,0,0,1,38.623,62.6Z" transform="translate(663.146 3277.796)" fill="#1c1b20"/>
    <path id="Path_1995" data-name="Path 1995" d="M69.132,41.548a.83.83,0,1,1,0,1.655.851.851,0,0,1-.862-.856A.841.841,0,0,1,69.132,41.548Z" transform="translate(648.793 3286.934)" fill="#1c1b20"/>
    <path id="Path_1996" data-name="Path 1996" d="M74.391,42.541a.656.656,0,0,1-1.311-.011.64.64,0,0,1,.634-.661.677.677,0,0,1,.677.671Z" transform="translate(646.526 3286.781)" fill="#1c1b20"/>
    <path id="Path_1997" data-name="Path 1997" d="M69.955,38.067a.6.6,0,0,1-.618.634.587.587,0,0,1-.661-.656.576.576,0,0,1,.634-.629.6.6,0,0,1,.645.65Z" transform="translate(648.604 3288.881)" fill="#1c1b20"/>
    <path id="Path_1998" data-name="Path 1998" d="M35.029,61.9c0,.481-.227.714-.619.724a.582.582,0,0,1-.661-.608.645.645,0,0,1,1.279-.116Z" transform="translate(665.065 3277.589)" fill="#1c1b20"/>
    <path id="Path_1999" data-name="Path 1999" d="M38.792,67.08a.6.6,0,0,1-.624-.64.581.581,0,0,1,.645-.624.64.64,0,1,1,0,1.279Z" transform="translate(662.983 3275.495)" fill="#1c1b20"/>
    <path id="Path_2000" data-name="Path 2000" d="M69.933,33.73a.529.529,0,0,1-.465.529.46.46,0,0,1-.529-.481.449.449,0,0,1,.449-.481C69.721,33.259,69.864,33.471,69.933,33.73Z" transform="translate(648.478 3290.824)" fill="#1c1b20"/>
    <path id="Path_2001" data-name="Path 2001" d="M35.025,66.6c-.09.3-.259.5-.571.444a.444.444,0,0,1-.4-.529.449.449,0,0,1,.529-.428A.492.492,0,0,1,35.025,66.6Z" transform="translate(664.926 3275.371)" fill="#1c1b20"/>
    <path id="Path_2002" data-name="Path 2002" d="M39.412,71.027a.439.439,0,0,1-.449.476.481.481,0,1,1,.449-.476Z" transform="translate(662.849 3273.266)" fill="#1c1b20"/>
    <path id="Path_2003" data-name="Path 2003" d="M78.322,42.208a.439.439,0,0,1,.486.439.468.468,0,1,1-.93.037.444.444,0,0,1,.444-.476Z" transform="translate(644.265 3286.623)" fill="#1c1b20"/>
    <path id="Path_2004" data-name="Path 2004" d="M73.891,37.72a.449.449,0,0,1,.455.476.407.407,0,0,1-.444.465.423.423,0,0,1-.486-.486C73.425,37.868,73.611,37.746,73.891,37.72Z" transform="translate(646.371 3288.737)" fill="#1c1b20"/>
    <path id="Path_2005" data-name="Path 2005" d="M30.573,62.044c0,.333-.164.529-.449.529a.433.433,0,0,1-.5-.481.418.418,0,0,1,.465-.455.449.449,0,0,1,.481.407Z" transform="translate(667.009 3277.464)" fill="#1c1b20"/>
    <path id="Path_2006" data-name="Path 2006" d="M78.8,38.377c-.058.18-.153.322-.354.291a.3.3,0,0,1-.28-.354.3.3,0,0,1,.322-.264.317.317,0,0,1,.312.328Z" transform="translate(644.132 3288.582)" fill="#1c1b20"/>
    <path id="Path_2007" data-name="Path 2007" d="M82.932,43.157c-.2-.037-.317-.132-.312-.333a.291.291,0,0,1,.328-.3.275.275,0,0,1,.27.3A.322.322,0,0,1,82.932,43.157Z" transform="translate(642.029 3286.471)" fill="#1c1b20"/>
    <path id="Path_2008" data-name="Path 2008" d="M74.116,33.629a.264.264,0,0,1,.233.317.275.275,0,0,1-.3.27.27.27,0,0,1-.3-.317C73.751,33.73,73.878,33.619,74.116,33.629Z" transform="translate(646.214 3290.665)" fill="#1c1b20"/>
    <path id="Path_2009" data-name="Path 2009" d="M25.8,62.514c-.185,0-.307-.1-.307-.27a.312.312,0,1,1,.619-.032.291.291,0,0,1-.312.3Z" transform="translate(668.957 3277.349)" fill="#1c1b20"/>
    <path id="Path_2010" data-name="Path 2010" d="M30.154,67.019a.264.264,0,0,1-.238-.312.28.28,0,0,1,.3-.27.275.275,0,0,1,.307.317C30.513,66.924,30.413,67.03,30.154,67.019Z" transform="translate(666.874 3275.201)" fill="#1c1b20"/>
    <path id="Path_2011" data-name="Path 2011" d="M69.907,29.435a.254.254,0,0,1-.248.3c-.19,0-.328-.058-.333-.27a.259.259,0,0,1,.243-.312.28.28,0,0,1,.338.28Z" transform="translate(648.298 3292.777)" fill="#1c1b20"/>
    <path id="Path_2012" data-name="Path 2012" d="M34.983,71.178a.275.275,0,0,1-.3.312.264.264,0,0,1-.285-.27.27.27,0,0,1,.3-.312.259.259,0,0,1,.285.27Z" transform="translate(664.761 3273.094)" fill="#1c1b20"/>
    <path id="Path_2013" data-name="Path 2013" d="M39.141,75.36c.18.032.322.106.3.322a.291.291,0,0,1-.3.275c-.206,0-.285-.143-.285-.333S38.966,75.365,39.141,75.36Z" transform="translate(662.66 3270.995)" fill="#1c1b20"/>
  </g>
</svg>
