<svg xmlns="http://www.w3.org/2000/svg" xmlns:xlink="http://www.w3.org/1999/xlink" width="163.772" height="42.906" viewBox="0 0 163.772 42.906">
  <defs>
    <clipPath id="clip-path">
      <path id="Path_1014" data-name="Path 1014" d="M1313.014,1004.329c-6.751-8.045-9.535-17.292-6.079-20.192a4.254,4.254,0,0,1,2.812-.9c4.2,0,10.693,4.045,16.02,10.392a34.566,34.566,0,0,1,6.972,12.427c.995,3.623.669,6.453-.9,7.766a4.255,4.255,0,0,1-2.812.9c-4.2,0-10.692-4.045-16.018-10.392m-7.414-21.784c-4.467,3.749-1.91,13.905,5.822,23.119,5.839,6.957,12.716,11.1,17.658,11.1a6.208,6.208,0,0,0,4.1-1.354c2.245-1.885,2.8-5.4,1.562-9.907a36.638,36.638,0,0,0-7.383-13.213c-5.84-6.957-12.717-11.1-17.66-11.1a6.21,6.21,0,0,0-4.1,1.355" fill="none"/>
    </clipPath>
    <linearGradient id="linear-gradient" x1="-31.595" y1="52.072" x2="-31.57" y2="52.072" gradientUnits="objectBoundingBox">
      <stop offset="0" stop-color="#87f2e7"/>
      <stop offset="1" stop-color="#2e37f2"/>
    </linearGradient>
    <clipPath id="clip-path-2">
      <path id="Path_1015" data-name="Path 1015" d="M1300.8,988.264c-2.229,3.92,9.317,11.95,15.732,15.648,1.742,1.007,3.48,1.934,5.168,2.759a1.039,1.039,0,0,0,.912-1.866c-1.646-.8-3.341-1.709-5.041-2.692-11.72-6.755-15.4-12.061-14.972-12.81.118-.2,1.423-.693,5.633.605a67.329,67.329,0,0,1,12.983,5.947c11.72,6.756,15.4,12.061,14.975,12.807-.14.235-1.673.774-6.6-.913a1.038,1.038,0,0,0-.673,1.964,19.856,19.856,0,0,0,6.041,1.3c1.505,0,2.507-.435,3.026-1.31,2.231-3.919-9.316-11.95-15.732-15.649a69.353,69.353,0,0,0-13.409-6.131,17.933,17.933,0,0,0-5.037-.959c-1.505,0-2.5.432-3.007,1.3" fill="none"/>
    </clipPath>
    <linearGradient id="linear-gradient-2" x1="-31.178" y1="43.924" x2="-31.154" y2="43.924" xlink:href="#linear-gradient"/>
    <clipPath id="clip-path-3">
      <path id="Path_1016" data-name="Path 1016" d="M1320.04,1004.664a2.264,2.264,0,0,0,1.037,3.07,2.291,2.291,0,0,0,2.033-4.106,2.371,2.371,0,0,0-1-.225,2.323,2.323,0,0,0-2.067,1.261" fill="none"/>
    </clipPath>
    <linearGradient id="linear-gradient-3" x1="-193.236" y1="299.889" x2="-193.09" y2="299.889" xlink:href="#linear-gradient"/>
    <clipPath id="clip-path-4">
      <path id="Path_1012" data-name="Path 1012" d="M1300.012,998.984a19.375,19.375,0,1,1,19.376,19.376,19.4,19.4,0,0,1-19.376-19.376m-2.077,0a21.453,21.453,0,1,0,21.453-21.453,21.477,21.477,0,0,0-21.453,21.453" fill="none"/>
    </clipPath>
    <linearGradient id="linear-gradient-4" x1="-30.251" y1="49.172" x2="-30.227" y2="49.172" xlink:href="#linear-gradient"/>
  </defs>
  <g id="Group_3000" data-name="Group 3000" transform="translate(-1297.935 -977.531)">
    <g id="Group_2202" data-name="Group 2202">
      <g id="Group_2201" data-name="Group 2201" clip-path="url(#clip-path)">
        <rect id="Rectangle_913" data-name="Rectangle 913" width="41.083" height="40.492" transform="translate(1295.052 1015.693) rotate(-80.004)" fill="url(#linear-gradient)"/>
      </g>
    </g>
    <g id="Group_2204" data-name="Group 2204">
      <g id="Group_2203" data-name="Group 2203" clip-path="url(#clip-path-2)">
        <rect id="Rectangle_914" data-name="Rectangle 914" width="41.65" height="48.09" transform="translate(1288.152 1005.003) rotate(-60)" fill="url(#linear-gradient-2)"/>
      </g>
    </g>
    <g id="Group_2206" data-name="Group 2206">
      <g id="Group_2205" data-name="Group 2205" clip-path="url(#clip-path-3)">
        <rect id="Rectangle_915" data-name="Rectangle 915" width="6.824" height="6.952" transform="translate(1317.357 1007.054) rotate(-60.001)" fill="url(#linear-gradient-3)"/>
      </g>
    </g>
    <g id="Group_2999" data-name="Group 2999">
      <g id="Group_2198" data-name="Group 2198">
        <g id="Group_2197" data-name="Group 2197" clip-path="url(#clip-path-4)">
          <rect id="Rectangle_911" data-name="Rectangle 911" width="42.906" height="42.906" transform="translate(1297.935 977.531)" fill="url(#linear-gradient-4)"/>
        </g>
      </g>
      <text id="HyperSwap" transform="translate(1344.707 1004.184)" fill="#fff" font-size="22.364" font-family="ProximaNova-Bold, Proxima Nova" font-weight="700"><tspan x="0" y="0">Hyper</tspan><tspan y="0" letter-spacing="-0.004em">S</tspan><tspan y="0">wap</tspan></text>
    </g>
  </g>
</svg>
