<svg id="Group_1402" data-name="Group 1402" xmlns="http://www.w3.org/2000/svg" xmlns:xlink="http://www.w3.org/1999/xlink" width="451.641" height="109.61" viewBox="0 0 451.641 109.61">
  <defs>
    <clipPath id="clip-path">
      <rect id="Rectangle_15" data-name="Rectangle 15" width="115.087" height="109.61" transform="translate(0 0)" fill="none"/>
    </clipPath>
    <linearGradient id="linear-gradient" x1="-1.178" y1="6.158" x2="2.399" y2="3.743" gradientUnits="objectBoundingBox">
      <stop offset="0" stop-color="#87f2e7"/>
      <stop offset="1" stop-color="#2e37f2"/>
    </linearGradient>
    <linearGradient id="linear-gradient-2" x1="-0.901" y1="2.778" x2="2.91" y2="1.168" xlink:href="#linear-gradient"/>
    <linearGradient id="linear-gradient-3" x1="-1.304" y1="0.93" x2="3.955" y2="-0.51" xlink:href="#linear-gradient"/>
    <linearGradient id="linear-gradient-4" x1="-6.29" y1="1.316" x2="0.691" y2="1.09" xlink:href="#linear-gradient"/>
    <linearGradient id="linear-gradient-5" x1="-2.204" y1="-0.739" x2="4.634" y2="-2.425" xlink:href="#linear-gradient"/>
    <linearGradient id="linear-gradient-6" x1="-3.164" y1="3.729" x2="1.51" y2="1.965" xlink:href="#linear-gradient"/>
    <linearGradient id="linear-gradient-7" x1="-2.44" y1="1.603" x2="1.356" y2="0.122" xlink:href="#linear-gradient"/>
    <linearGradient id="linear-gradient-8" x1="-2.342" y1="-0.106" x2="1.439" y2="-1.686" xlink:href="#linear-gradient"/>
    <linearGradient id="linear-gradient-9" x1="-2.865" y1="-2.389" x2="1.762" y2="-4.65" xlink:href="#linear-gradient"/>
    <linearGradient id="linear-gradient-10" x1="-6.505" y1="-1.057" x2="0.769" y2="-3.781" xlink:href="#linear-gradient"/>
    <linearGradient id="linear-gradient-11" x1="-1.687" y1="3.209" x2="2.078" y2="1.516" xlink:href="#linear-gradient"/>
    <linearGradient id="linear-gradient-12" x1="-0.655" y1="5.563" x2="3.269" y2="3.29" xlink:href="#linear-gradient"/>
    <linearGradient id="linear-gradient-13" x1="-4.182" y1="5.6" x2="1.022" y2="5.243" xlink:href="#linear-gradient"/>
    <linearGradient id="linear-gradient-14" x1="-0.66" y1="2.408" x2="4.81" y2="0.834" xlink:href="#linear-gradient"/>
    <linearGradient id="linear-gradient-15" x1="-1.911" y1="-0.441" x2="2.603" y2="-2.075" xlink:href="#linear-gradient"/>
    <linearGradient id="linear-gradient-16" x1="-2.611" y1="0.605" x2="10.468" y2="-0.918" xlink:href="#linear-gradient"/>
    <linearGradient id="linear-gradient-17" x1="-3.282" y1="0.387" x2="0.556" y2="-1.153" xlink:href="#linear-gradient"/>
    <linearGradient id="linear-gradient-18" x1="-3.063" y1="-1.822" x2="0.703" y2="-3.936" xlink:href="#linear-gradient"/>
    <clipPath id="clip-path-2">
      <path id="Path_949" data-name="Path 949" d="M101.568,91.536l5.617-6.829,3.105,8.279-5.617,6.829Z" fill="none"/>
    </clipPath>
    <clipPath id="clip-path-3">
      <path id="Path_952" data-name="Path 952" d="M8.184,30.064l8.629-1.929-2.645,8.437L5.538,38.5Z" fill="none"/>
    </clipPath>
    <clipPath id="clip-path-4">
      <path id="Path_959" data-name="Path 959" d="M96.285,3.344l8.575,5.365-1.519,6.818-8.575-5.365Z" fill="none"/>
    </clipPath>
    <clipPath id="clip-path-5">
      <path id="Path_963" data-name="Path 963" d="M10.167,73.235l4.72,5.241-2.178,6.708-4.72-5.241Z" fill="none"/>
    </clipPath>
    <clipPath id="clip-path-6">
      <path id="Path_969" data-name="Path 969" d="M101.695,45.838l4.9-7.832,4.332,8.16L106.027,54Z" fill="none"/>
    </clipPath>
    <clipPath id="clip-path-7">
      <path id="Path_971" data-name="Path 971" d="M49.217,103.375,37.431,104,32.56,94.241l11.787-.624Z" fill="none"/>
    </clipPath>
    <clipPath id="clip-path-8">
      <path id="Path_973" data-name="Path 973" d="M73.926,40.674l-.569-12.05,10.3-4.269.569,12.05Z" fill="none"/>
    </clipPath>
    <clipPath id="clip-path-9">
      <rect id="Rectangle_14" data-name="Rectangle 14" width="14.04" height="16.274" transform="matrix(0.664, -0.748, 0.748, 0.664, 69.984, 78.932)" fill="none"/>
    </clipPath>
  </defs>
  <path id="Path_924" data-name="Path 924" d="M127.776,101V83.96h11.448v2.9h-8.136v4.392h6.768v2.688h-6.768V101Zm13.469-14.328V83.48h3.216v3.192Zm0,14.328V88.424h3.216V101Zm17.805,0h-3.216V93.944a3.676,3.676,0,0,0-.528-2.208,1.734,1.734,0,0,0-1.464-.7,2.937,2.937,0,0,0-1.32.336,4.049,4.049,0,0,0-1.176.936,3.513,3.513,0,0,0-.768,1.344V101h-3.216V88.424h2.9v2.328a4.812,4.812,0,0,1,2.016-1.848,6.282,6.282,0,0,1,2.976-.7,3.79,3.79,0,0,1,1.92.432,2.9,2.9,0,0,1,1.152,1.128,4.538,4.538,0,0,1,.552,1.584,9.662,9.662,0,0,1,.168,1.8Zm1.933-3.72a3.5,3.5,0,0,1,.672-2.136,4.426,4.426,0,0,1,1.92-1.44,7.326,7.326,0,0,1,2.808-.5,9.24,9.24,0,0,1,1.608.144,6.293,6.293,0,0,1,1.416.36v-.672a2.358,2.358,0,0,0-.72-1.848,2.968,2.968,0,0,0-2.088-.648,5.435,5.435,0,0,0-1.968.36,9.951,9.951,0,0,0-1.968,1.056l-1.032-2.112a10.3,10.3,0,0,1,2.544-1.224,9.293,9.293,0,0,1,2.76-.408,6.011,6.011,0,0,1,4.176,1.344,4.868,4.868,0,0,1,1.512,3.84V97.4a1.243,1.243,0,0,0,.168.744.911.911,0,0,0,.6.24V101a5.306,5.306,0,0,1-.792.12,4.165,4.165,0,0,1-.576.048,2.19,2.19,0,0,1-1.464-.432,1.7,1.7,0,0,1-.6-1.056l-.072-.648a5.607,5.607,0,0,1-2.064,1.656,5.855,5.855,0,0,1-2.472.552,4.88,4.88,0,0,1-2.256-.5,4.171,4.171,0,0,1-1.56-1.416A3.863,3.863,0,0,1,160.983,97.28Zm7.824.648a1.6,1.6,0,0,0,.6-1.1V95.552a6.68,6.68,0,0,0-2.52-.5,3.536,3.536,0,0,0-2.064.552,1.626,1.626,0,0,0-.792,1.416,1.791,1.791,0,0,0,.576,1.3,2.241,2.241,0,0,0,1.656.576,3.774,3.774,0,0,0,1.392-.264A3.408,3.408,0,0,0,168.807,97.928ZM187.316,101H184.1V93.944a3.676,3.676,0,0,0-.528-2.208,1.734,1.734,0,0,0-1.464-.7,2.937,2.937,0,0,0-1.32.336,4.049,4.049,0,0,0-1.176.936,3.513,3.513,0,0,0-.768,1.344V101h-3.216V88.424h2.9v2.328a4.812,4.812,0,0,1,2.016-1.848,6.282,6.282,0,0,1,2.976-.7,3.79,3.79,0,0,1,1.92.432,2.9,2.9,0,0,1,1.152,1.128,4.538,4.538,0,0,1,.552,1.584,9.662,9.662,0,0,1,.168,1.8Zm8.652.24a6.619,6.619,0,0,1-3.528-.912,6.373,6.373,0,0,1-2.3-2.4,6.582,6.582,0,0,1-.816-3.216,6.789,6.789,0,0,1,.792-3.24,6.2,6.2,0,0,1,2.3-2.376,6.757,6.757,0,0,1,3.528-.888,6.552,6.552,0,0,1,3.5.888,5.65,5.65,0,0,1,2.184,2.328l-3.144.96a2.775,2.775,0,0,0-2.568-1.44,3.032,3.032,0,0,0-1.68.48,3.159,3.159,0,0,0-1.176,1.32,4.248,4.248,0,0,0-.432,1.968,4.342,4.342,0,0,0,.432,1.968,3.755,3.755,0,0,0,1.2,1.344,2.99,2.99,0,0,0,1.656.48A3.157,3.157,0,0,0,197.5,98.1a2.383,2.383,0,0,0,1.032-1.08l3.144.96a5.419,5.419,0,0,1-2.16,2.352A6.666,6.666,0,0,1,195.968,101.24Zm13.406,0a6.757,6.757,0,0,1-3.528-.888A6.3,6.3,0,0,1,203.566,98a6.582,6.582,0,0,1-.816-3.216,6.838,6.838,0,0,1,.792-3.264,6.15,6.15,0,0,1,2.3-2.4,6.666,6.666,0,0,1,3.552-.912,6.541,6.541,0,0,1,3.528.912,5.9,5.9,0,0,1,2.232,2.376,6.554,6.554,0,0,1,.792,3.168,7.029,7.029,0,0,1-.072,1.08h-9.72a3.28,3.28,0,0,0,1.08,2.3,3.375,3.375,0,0,0,2.256.84,3.715,3.715,0,0,0,1.8-.456,2.523,2.523,0,0,0,1.176-1.248l2.76.768A5.665,5.665,0,0,1,213,100.328,6.967,6.967,0,0,1,209.374,101.24ZM206.086,93.7h6.576a3.459,3.459,0,0,0-1.08-2.28,3.078,3.078,0,0,0-2.232-.888,3.131,3.131,0,0,0-2.232.888A3.414,3.414,0,0,0,206.086,93.7Zm30.843-2.5a5.771,5.771,0,0,0-2.616.576,3.377,3.377,0,0,0-1.656,1.608V101h-3.216V88.424h2.952v2.688a5.469,5.469,0,0,1,1.68-2.04,4.254,4.254,0,0,1,2.208-.816,5.209,5.209,0,0,1,.648.024Zm7.461,10.032a6.757,6.757,0,0,1-3.528-.888A6.3,6.3,0,0,1,238.582,98a6.582,6.582,0,0,1-.816-3.216,6.838,6.838,0,0,1,.792-3.264,6.15,6.15,0,0,1,2.3-2.4,6.666,6.666,0,0,1,3.552-.912,6.541,6.541,0,0,1,3.528.912,5.9,5.9,0,0,1,2.232,2.376,6.554,6.554,0,0,1,.792,3.168,7.026,7.026,0,0,1-.072,1.08h-9.72a3.28,3.28,0,0,0,1.08,2.3,3.375,3.375,0,0,0,2.256.84,3.715,3.715,0,0,0,1.8-.456,2.523,2.523,0,0,0,1.176-1.248l2.76.768a5.665,5.665,0,0,1-2.232,2.376A6.967,6.967,0,0,1,244.39,101.24ZM241.1,93.7h6.576a3.458,3.458,0,0,0-1.08-2.28,3.078,3.078,0,0,0-2.232-.888,3.131,3.131,0,0,0-2.232.888A3.414,3.414,0,0,0,241.1,93.7ZM253.1,101V83.96h6.192a8.735,8.735,0,0,1,4.656,1.152,7.132,7.132,0,0,1,2.808,3.072,9.619,9.619,0,0,1,.936,4.272,9.393,9.393,0,0,1-1.032,4.512,7.285,7.285,0,0,1-2.928,2.976,8.978,8.978,0,0,1-4.44,1.056Zm11.256-8.544a6.63,6.63,0,0,0-.6-2.9,4.511,4.511,0,0,0-1.728-1.968,4.98,4.98,0,0,0-2.736-.72h-2.88V98.1h2.88a5.027,5.027,0,0,0,2.76-.72,4.665,4.665,0,0,0,1.7-2.016A6.832,6.832,0,0,0,264.352,92.456ZM275.8,101.24a6.757,6.757,0,0,1-3.528-.888A6.3,6.3,0,0,1,269.988,98a6.582,6.582,0,0,1-.816-3.216,6.838,6.838,0,0,1,.792-3.264,6.15,6.15,0,0,1,2.3-2.4,6.666,6.666,0,0,1,3.552-.912,6.541,6.541,0,0,1,3.528.912A5.9,5.9,0,0,1,281.58,91.5a6.553,6.553,0,0,1,.792,3.168,7.026,7.026,0,0,1-.072,1.08h-9.72a3.28,3.28,0,0,0,1.08,2.3,3.375,3.375,0,0,0,2.256.84,3.715,3.715,0,0,0,1.8-.456,2.523,2.523,0,0,0,1.176-1.248l2.76.768a5.665,5.665,0,0,1-2.232,2.376A6.967,6.967,0,0,1,275.8,101.24ZM272.508,93.7h6.576a3.459,3.459,0,0,0-1.08-2.28,3.078,3.078,0,0,0-2.232-.888,3.131,3.131,0,0,0-2.232.888A3.414,3.414,0,0,0,272.508,93.7ZM284.5,101V83.96h11.448v2.9h-8.136v4.392h6.768v2.688h-6.768V101Zm13.469-14.328V83.48h3.216v3.192Zm0,14.328V88.424h3.216V101Zm17.805,0h-3.216V93.944a3.676,3.676,0,0,0-.528-2.208,1.734,1.734,0,0,0-1.464-.7,2.937,2.937,0,0,0-1.32.336,4.048,4.048,0,0,0-1.176.936,3.513,3.513,0,0,0-.768,1.344V101h-3.216V88.424h2.9v2.328a4.812,4.812,0,0,1,2.016-1.848,6.282,6.282,0,0,1,2.976-.7,3.79,3.79,0,0,1,1.92.432,2.9,2.9,0,0,1,1.152,1.128,4.538,4.538,0,0,1,.552,1.584,9.662,9.662,0,0,1,.168,1.8Zm8.628.24a6.757,6.757,0,0,1-3.528-.888A6.3,6.3,0,0,1,318.6,98a6.582,6.582,0,0,1-.816-3.216,6.838,6.838,0,0,1,.792-3.264,6.15,6.15,0,0,1,2.3-2.4,6.665,6.665,0,0,1,3.552-.912,6.541,6.541,0,0,1,3.528.912,5.9,5.9,0,0,1,2.232,2.376,6.553,6.553,0,0,1,.792,3.168,7.027,7.027,0,0,1-.072,1.08h-9.72a3.28,3.28,0,0,0,1.08,2.3,3.375,3.375,0,0,0,2.256.84,3.715,3.715,0,0,0,1.8-.456,2.523,2.523,0,0,0,1.176-1.248l2.76.768a5.665,5.665,0,0,1-2.232,2.376A6.967,6.967,0,0,1,324.4,101.24ZM321.117,93.7h6.576a3.459,3.459,0,0,0-1.08-2.28,3.078,3.078,0,0,0-2.232-.888,3.131,3.131,0,0,0-2.232.888A3.414,3.414,0,0,0,321.117,93.7Zm11.056,1.008a7.448,7.448,0,0,1,.72-3.288,5.862,5.862,0,0,1,1.992-2.352,5.046,5.046,0,0,1,2.9-.864,4.582,4.582,0,0,1,2.5.7,4.9,4.9,0,0,1,1.752,1.728V83.48h3.216V97.4a1.243,1.243,0,0,0,.168.744.878.878,0,0,0,.576.24V101a7.6,7.6,0,0,1-1.368.168,2.333,2.333,0,0,1-1.44-.432,1.585,1.585,0,0,1-.624-1.128l-.048-.792a4.666,4.666,0,0,1-1.9,1.8,5.2,5.2,0,0,1-2.472.624,5.6,5.6,0,0,1-3.1-.864,6.244,6.244,0,0,1-2.112-2.352A7.113,7.113,0,0,1,332.173,94.712Zm9.864,1.68v-3a3.741,3.741,0,0,0-1.32-1.752,3.187,3.187,0,0,0-1.92-.7,2.822,2.822,0,0,0-1.728.552,3.475,3.475,0,0,0-1.152,1.416,4.328,4.328,0,0,0-.408,1.872,4,4,0,0,0,.456,1.9,3.673,3.673,0,0,0,1.224,1.344,3.4,3.4,0,0,0,1.8.48,3.187,3.187,0,0,0,1.8-.6A3.067,3.067,0,0,0,342.037,96.392Z" fill="#87f2e7"/>
  <path id="Path_925" data-name="Path 925" d="M157.808,43.464a10.261,10.261,0,0,0-2.432-1.664,22.106,22.106,0,0,0-4.48-1.92,15.973,15.973,0,0,0-5.312-.9q-7.231,0-7.232,5.12a3.856,3.856,0,0,0,1.152,2.944A9.3,9.3,0,0,0,142.96,48.9q2.3.768,5.76,1.664a44.034,44.034,0,0,1,7.744,2.688,11.94,11.94,0,0,1,5.056,4.1,11.181,11.181,0,0,1,1.792,6.656,12.354,12.354,0,0,1-2.368,7.872,13.075,13.075,0,0,1-6.144,4.288,25.017,25.017,0,0,1-8.32,1.344A34.841,34.841,0,0,1,136.3,75.976a32.59,32.59,0,0,1-8.9-4.352l3.9-7.616a13.785,13.785,0,0,0,2.048,1.536,34.17,34.17,0,0,0,3.584,1.856,32.484,32.484,0,0,0,4.608,1.536,20.26,20.26,0,0,0,5.056.64q7.3,0,7.3-4.672a3.949,3.949,0,0,0-1.472-3.2,12.183,12.183,0,0,0-4.16-2.048q-2.624-.832-6.144-1.856a39.414,39.414,0,0,1-7.232-2.688,11.132,11.132,0,0,1-4.224-3.776,11,11,0,0,1-1.408-5.824A13.369,13.369,0,0,1,131.44,37.7a13.688,13.688,0,0,1,6.016-4.8,20.573,20.573,0,0,1,8.384-1.664,24.954,24.954,0,0,1,8.832,1.536,33.825,33.825,0,0,1,7.04,3.52ZM169.986,77V31.56H189.25a12.963,12.963,0,0,1,5.76,1.28,14.224,14.224,0,0,1,4.608,3.456,16.859,16.859,0,0,1,3.008,4.864,14.554,14.554,0,0,1,1.088,5.5,15.63,15.63,0,0,1-1.792,7.3,15.13,15.13,0,0,1-4.992,5.632,12.585,12.585,0,0,1-7.36,2.176H178.818V77Zm8.832-22.976h10.24a4.969,4.969,0,0,0,4.032-1.984,8.261,8.261,0,0,0,1.664-5.376,7.509,7.509,0,0,0-1.856-5.44,5.73,5.73,0,0,0-4.224-1.92h-9.856ZM248.069,31.56V77H239.3V57.608H218.693V77h-8.832V31.56h8.832V49.928H239.3V31.56Zm41.032,37.7V77H257.549V31.56h30.976V39.3H266.381V50.248h19.136v7.168H266.381v11.84ZM295.986,77V31.56h20.1a12.963,12.963,0,0,1,5.76,1.28A14.224,14.224,0,0,1,326.45,36.3a15.2,15.2,0,0,1,3.008,4.864,14.554,14.554,0,0,1,1.088,5.5,15,15,0,0,1-2.24,8,12.464,12.464,0,0,1-5.952,5.248L332.722,77h-9.728L313.65,61.768h-8.832V77Zm8.832-22.976H315.89a4.927,4.927,0,0,0,4.1-2.112,8.388,8.388,0,0,0,1.664-5.248,7.84,7.84,0,0,0-.9-3.776,7.277,7.277,0,0,0-2.3-2.624,4.956,4.956,0,0,0-2.944-.96H304.818ZM338.549,77V31.56h8.832V77Zm37.576.32a21.814,21.814,0,0,1-9.28-1.792,16.625,16.625,0,0,1-6.144-5.056,22.106,22.106,0,0,1-3.392-7.232,33.034,33.034,0,0,1-1.088-8.512V31.56h8.832V54.728a24.661,24.661,0,0,0,1.024,7.168,11.509,11.509,0,0,0,3.456,5.5,9.608,9.608,0,0,0,6.528,2.112,9.809,9.809,0,0,0,6.656-2.112,11.919,11.919,0,0,0,3.456-5.568,24.434,24.434,0,0,0,1.024-7.1V31.56h8.768V54.728a32.258,32.258,0,0,1-1.152,8.768,20.059,20.059,0,0,1-3.52,7.232,16.591,16.591,0,0,1-6.144,4.864A21.549,21.549,0,0,1,376.125,77.32ZM441.917,77V47.176L430.269,69.384h-4.928L413.693,47.176V77h-8.832V31.56h9.472l13.44,25.856L441.341,31.56h9.408V77Z"/>
  <path id="Path_926" data-name="Path 926" d="M356.6,14.968h-1.932V12.112H356.6v-.9a6.323,6.323,0,0,1,.7-2.968,5.664,5.664,0,0,1,2.044-2.156,6.114,6.114,0,0,1,3.22-.812,7.7,7.7,0,0,1,2.912.532A12.316,12.316,0,0,1,368,7.1l-1.484,2.8a5.8,5.8,0,0,0-1.708-1.036,5.317,5.317,0,0,0-1.988-.392,2.238,2.238,0,0,0-1.876.784,2.95,2.95,0,0,0-.588,1.82v1.036h7.868V26h-3.752V14.968h-4.116V26H356.6ZM385.258,26h-3.752V17.768a4.286,4.286,0,0,0-.616-2.576,2.025,2.025,0,0,0-1.708-.812,3.432,3.432,0,0,0-1.54.392,4.717,4.717,0,0,0-1.372,1.092,4.1,4.1,0,0,0-.9,1.568V26h-3.752V11.328h3.388v2.716a5.61,5.61,0,0,1,2.352-2.156,7.334,7.334,0,0,1,3.472-.812,4.422,4.422,0,0,1,2.24.5,3.371,3.371,0,0,1,1.344,1.316,5.3,5.3,0,0,1,.644,1.848,11.251,11.251,0,0,1,.2,2.1Zm2.255-4.34a4.084,4.084,0,0,1,.784-2.492,5.162,5.162,0,0,1,2.24-1.68,8.545,8.545,0,0,1,3.275-.588,10.786,10.786,0,0,1,1.877.168,7.321,7.321,0,0,1,1.652.42V16.7a2.751,2.751,0,0,0-.84-2.156,3.465,3.465,0,0,0-2.436-.756,6.339,6.339,0,0,0-2.3.42,11.608,11.608,0,0,0-2.3,1.232l-1.2-2.464a11.983,11.983,0,0,1,2.968-1.428,10.849,10.849,0,0,1,3.22-.476,7.016,7.016,0,0,1,4.872,1.568,5.68,5.68,0,0,1,1.764,4.48V21.8a1.447,1.447,0,0,0,.2.868,1.062,1.062,0,0,0,.7.28V26a6.189,6.189,0,0,1-.924.14,4.927,4.927,0,0,1-.672.056,2.555,2.555,0,0,1-1.708-.5,1.977,1.977,0,0,1-.7-1.232L397.9,23.7a6.546,6.546,0,0,1-2.408,1.932,6.839,6.839,0,0,1-2.884.644,5.69,5.69,0,0,1-2.632-.588,4.861,4.861,0,0,1-1.82-1.652A4.5,4.5,0,0,1,387.513,21.66Zm9.128.756a1.873,1.873,0,0,0,.7-1.288V19.644a7.8,7.8,0,0,0-2.94-.588,4.126,4.126,0,0,0-2.408.644,1.9,1.9,0,0,0-.924,1.652,2.089,2.089,0,0,0,.672,1.512,2.615,2.615,0,0,0,1.932.672,4.411,4.411,0,0,0,1.624-.308A3.977,3.977,0,0,0,396.641,22.416ZM418.235,26h-3.752V17.768a4.293,4.293,0,0,0-.616-2.576,2.025,2.025,0,0,0-1.708-.812,3.429,3.429,0,0,0-1.54.392,4.7,4.7,0,0,0-1.372,1.092,4.087,4.087,0,0,0-.9,1.568V26H404.6V11.328h3.388v2.716a5.61,5.61,0,0,1,2.352-2.156,7.331,7.331,0,0,1,3.472-.812,4.425,4.425,0,0,1,2.24.5,3.384,3.384,0,0,1,1.344,1.316,5.3,5.3,0,0,1,.644,1.848,11.334,11.334,0,0,1,.2,2.1Zm10.094.28a7.723,7.723,0,0,1-4.116-1.064,7.44,7.44,0,0,1-2.688-2.8,7.675,7.675,0,0,1-.952-3.752,7.918,7.918,0,0,1,.924-3.78,7.239,7.239,0,0,1,2.688-2.772,7.879,7.879,0,0,1,4.116-1.036,7.641,7.641,0,0,1,4.088,1.036,6.591,6.591,0,0,1,2.548,2.716l-3.668,1.12a3.237,3.237,0,0,0-3-1.68,3.541,3.541,0,0,0-1.96.56,3.686,3.686,0,0,0-1.372,1.54,4.956,4.956,0,0,0-.5,2.3,5.064,5.064,0,0,0,.5,2.3,4.383,4.383,0,0,0,1.4,1.568,3.493,3.493,0,0,0,1.932.56,3.687,3.687,0,0,0,1.848-.476,2.779,2.779,0,0,0,1.2-1.26l3.668,1.12a6.324,6.324,0,0,1-2.52,2.744A7.779,7.779,0,0,1,428.329,26.28Zm15.64,0a7.879,7.879,0,0,1-4.116-1.036,7.352,7.352,0,0,1-2.66-2.744,7.675,7.675,0,0,1-.952-3.752,7.977,7.977,0,0,1,.924-3.808,7.182,7.182,0,0,1,2.688-2.8A7.78,7.78,0,0,1,444,11.076a7.636,7.636,0,0,1,4.116,1.064,6.886,6.886,0,0,1,2.6,2.772,7.648,7.648,0,0,1,.924,3.7,8.2,8.2,0,0,1-.084,1.26h-11.34a3.823,3.823,0,0,0,1.26,2.688,3.939,3.939,0,0,0,2.632.98,4.329,4.329,0,0,0,2.1-.532,2.945,2.945,0,0,0,1.372-1.456l3.22.9a6.6,6.6,0,0,1-2.6,2.772A8.132,8.132,0,0,1,443.969,26.28Zm-3.836-8.792H447.8a4.036,4.036,0,0,0-1.26-2.66,3.589,3.589,0,0,0-2.6-1.036,3.651,3.651,0,0,0-2.6,1.036A3.984,3.984,0,0,0,440.133,17.488Z"/>
  <g id="Group_1401" data-name="Group 1401">
    <g id="Group_1400" data-name="Group 1400" clip-path="url(#clip-path)">
      <g id="Group_1399" data-name="Group 1399">
        <path id="Path_927" data-name="Path 927" d="M44.938,23.688c-1.932-1.525-3.762-2.948-5.49-4.371-.814-.712-1.525-1.322-2.237-1.932a43.294,43.294,0,0,1,7.727-9.252A126.184,126.184,0,0,1,58.358,5.8c.508.407,1.016.915,1.525,1.322,1.118,1.016,2.44,2.033,3.761,3.05a33.149,33.149,0,0,0-5.693,8.641C53.274,20.537,49.614,21.858,44.938,23.688Z" fill="url(#linear-gradient)"/>
        <path id="Path_928" data-name="Path 928" d="M27.146,45.851c-2.237-1.728-4.372-3.456-6.3-5.083-.915-.813-1.83-1.525-2.644-2.237a73.565,73.565,0,0,1,4.474-13.725,92.533,92.533,0,0,1,12.4-5.8c.712.61,1.525,1.322,2.338,2.034,1.729,1.525,3.66,2.948,5.592,4.473a87.4,87.4,0,0,0-3.355,13.217C35.584,40.87,31.721,43.005,27.146,45.851Z" fill="url(#linear-gradient-2)"/>
        <path id="Path_929" data-name="Path 929" d="M16.673,70.861c-2.033-1.525-4.066-3.151-5.8-4.676-.813-.712-1.626-1.424-2.338-2.135a75.031,75.031,0,0,1-.407-14.742,54.172,54.172,0,0,1,8.744-8.438c.813.711,1.728,1.525,2.643,2.338,1.932,1.627,4.067,3.355,6.4,5.083a129.807,129.807,0,0,0-.508,15.25A64.273,64.273,0,0,0,16.673,70.861Z" fill="url(#linear-gradient-3)"/>
        <path id="Path_930" data-name="Path 930" d="M106.343,61c2.034-1.525,4.067-3.152,5.795-4.677.814-.712,1.627-1.423,2.339-2.135a84.143,84.143,0,0,0,.406-14.742,54.115,54.115,0,0,0-8.743-8.438c-.813.712-1.728,1.525-2.643,2.339-1.932,1.626-4.067,3.354-6.4,5.083A130.008,130.008,0,0,1,97.6,53.68,58.509,58.509,0,0,1,106.343,61Z" fill="url(#linear-gradient-4)"/>
        <path id="Path_931" data-name="Path 931" d="M15.759,92.11c-1.424-1.118-2.847-2.237-4.067-3.253-.61-.509-1.118-1.017-1.627-1.424A80.941,80.941,0,0,1,5.287,74.826,21.987,21.987,0,0,1,8.134,66.49c.711.711,1.525,1.322,2.338,2.033,1.728,1.525,3.66,3.05,5.694,4.575a128.888,128.888,0,0,0,2.948,13.014A16.416,16.416,0,0,0,15.759,92.11Z" fill="url(#linear-gradient-5)"/>
        <path id="Path_932" data-name="Path 932" d="M79.2,44.835c-3.66-1.932-7.422-3.864-11.082-6A118.4,118.4,0,0,1,69.439,26.23c3.355-1.83,6.608-3.66,10.065-5.9,2.542,1.423,4.981,2.847,7.523,4.067.305,3.456.61,6.2,1.322,12A81.232,81.232,0,0,1,79.2,44.835Z" fill="url(#linear-gradient-6)"/>
        <path id="Path_933" data-name="Path 933" d="M66.694,70.251c-4.27-2.135-8.54-4.473-12.708-6.913.1-5.185.2-9.658.508-14.945,5.694-3.355,8.642-4.982,12.4-7.32q5.643,3.2,11.286,6.1c.2,4.778.508,9.658.711,14.437C75.641,64.151,72.387,66.49,66.694,70.251Z" fill="url(#linear-gradient-7)"/>
        <path id="Path_934" data-name="Path 934" d="M52.867,93.127c-3.863-2.034-7.828-4.067-11.692-6.3-.305-4.982-.61-8.641-.813-13.522,9.556-5.794,9.556-5.794,12.3-7.523,4.168,2.44,8.438,4.677,12.708,6.913-.1,9.354-.1,11.082-.2,14.132C61.508,88.755,58.255,90.483,52.867,93.127Z" fill="url(#linear-gradient-8)"/>
        <path id="Path_935" data-name="Path 935" d="M41.175,107.665c-2.745-1.423-5.49-2.847-8.134-4.473-.915-4.677-1.321-6.812-1.83-9.354,2.542-1.525,4.27-2.643,9.049-5.287,3.761,2.136,7.625,4.271,11.386,6.2-.1,3.355-.1,6.609-.508,9.862C43.411,107.157,41.175,107.665,41.175,107.665Z" fill="url(#linear-gradient-9)"/>
        <path id="Path_936" data-name="Path 936" d="M105.835,100.65c2.339-1.729,4.779-3.559,7.117-5.389,1.118-4.473,1.627-6.506,2.135-8.946-2.033-1.017-3.457-1.83-7.218-3.457-3.254,2.542-6.609,5.083-9.964,7.523-.2,3.152-.305,6.1-.2,9.049C104,100.548,105.835,100.65,105.835,100.65Z" fill="#c4c4c4"/>
        <path id="Path_937" data-name="Path 937" d="M105.835,100.65c2.339-1.729,4.779-3.559,7.117-5.389,1.118-4.473,1.627-6.506,2.135-8.946-2.033-1.017-3.457-1.83-7.218-3.457-3.254,2.542-6.609,5.083-9.964,7.523-.2,3.152-.305,6.1-.2,9.049C104,100.548,105.835,100.65,105.835,100.65Z" fill="url(#linear-gradient-10)"/>
        <path id="Path_938" data-name="Path 938" d="M53.375,45.953c-3.864-2.44-7.625-4.88-11.184-7.32a102.392,102.392,0,0,1,3.254-13.115c4.575-1.83,6.71-2.745,13.013-5.083q4.271,2.9,8.845,5.8c-.508,3.355-1.118,6.811-1.525,12.606C60.9,41.683,60.186,42.09,53.375,45.953Z" fill="url(#linear-gradient-11)"/>
        <path id="Path_939" data-name="Path 939" d="M22.773,22.773A31.981,31.981,0,0,1,18.91,17.69a51.911,51.911,0,0,1,9.15-9.862,71.766,71.766,0,0,1,11.9-4.067,20.737,20.737,0,0,0,3.05,3.965,44.977,44.977,0,0,0-7.93,9.252C31.415,18.706,27.45,20.231,22.773,22.773Z" fill="url(#linear-gradient-12)"/>
        <path id="Path_940" data-name="Path 940" d="M107.056,19.011a31.935,31.935,0,0,0,3.863-5.083,51.941,51.941,0,0,0-9.15-9.862A71.778,71.778,0,0,0,89.874,0a20.768,20.768,0,0,1-3.05,3.965,44.97,44.97,0,0,1,7.93,9.251A107.3,107.3,0,0,1,107.056,19.011Z" fill="url(#linear-gradient-13)"/>
        <path id="Path_941" data-name="Path 941" d="M39.04,70.963c-3.965-2.44-7.828-4.982-11.488-7.523a117.5,117.5,0,0,1,.61-15.25c3.558-2.237,6.71-4.169,12.5-7.32,3.558,2.44,7.422,4.981,11.285,7.32-.305,4.575-.508,7.93-.61,15.046C47.275,65.88,43.209,68.421,39.04,70.963Z" fill="#87f2e7"/>
        <path id="Path_942" data-name="Path 942" d="M7.625,47.071A28.116,28.116,0,0,1,3.66,41.886,63.837,63.837,0,0,1,8.336,27.958a43.592,43.592,0,0,1,8.744-8.337A26.758,26.758,0,0,0,20.943,24.7,67.179,67.179,0,0,0,16.368,38.43,77.158,77.158,0,0,0,7.625,47.071Z" fill="url(#linear-gradient-14)"/>
        <path id="Path_943" data-name="Path 943" d="M29.891,92.11c-3.253-2.034-6.405-4.067-9.353-6.1-.916-3.762-1.83-7.625-2.746-13.115a80.944,80.944,0,0,1,8.642-7.219c3.559,2.441,7.422,4.982,11.387,7.422.305,4.575.407,7.32.915,13.42C35.584,88.551,32.737,90.28,29.891,92.11Z" fill="url(#linear-gradient-15)"/>
        <path id="Path_944" data-name="Path 944" d="M4.474,72.793a18.8,18.8,0,0,1-3.152-4.27A67.042,67.042,0,0,1,.1,54.7,34.877,34.877,0,0,1,3.05,44.428a32.091,32.091,0,0,0,3.864,5.185,93.875,93.875,0,0,0,.406,14.64A24.1,24.1,0,0,0,4.474,72.793Z" fill="url(#linear-gradient-16)"/>
        <path id="Path_945" data-name="Path 945" d="M80.012,91.805c-3.864-1.525-7.93-3.253-12-5.185.1-3.253.2-7.828.2-14.132,3.966-2.745,7.829-5.287,12.2-8.743q6.1,2.9,11.894,5.185a128.159,128.159,0,0,1,.2,14.132A113.936,113.936,0,0,1,80.012,91.805Z" fill="url(#linear-gradient-17)"/>
        <path id="Path_946" data-name="Path 946" d="M63.238,109.088q-4.728-1.83-9.76-4.27c.305-2.44.61-5.083.813-9.963,3.965-1.83,7.625-3.558,12.4-6.2,4.067,1.932,8.134,3.66,11.895,5.185a53.706,53.706,0,0,1-2.338,10.574C66.593,108.377,63.238,109.088,63.238,109.088Z" fill="url(#linear-gradient-18)"/>
        <g id="Group_1377" data-name="Group 1377">
          <g id="Group_1376" data-name="Group 1376" clip-path="url(#clip-path-2)">
            <g id="Group_1375" data-name="Group 1375">
              <path id="Path_947" data-name="Path 947" d="M106.4,93.511l-1.944.792,3.026,2.093.052-5.835Zm-.718.914.92-.375.537-1.4-.024,2.763Z" fill="#fff"/>
              <path id="Path_948" data-name="Path 948" d="M107.3,90.117l-2.916-2-.059,5.615,1.877-.77Zm-2.55-1.024,1.663,1.14-1.071.44-.626,1.623Zm.795,2.118,1.1-.45L106,92.425l-1.1.45Z" fill="#fff"/>
            </g>
          </g>
        </g>
        <g id="Group_1380" data-name="Group 1380">
          <g id="Group_1379" data-name="Group 1379" clip-path="url(#clip-path-3)">
            <g id="Group_1378" data-name="Group 1378">
              <path id="Path_950" data-name="Path 950" d="M10.779,34.6,8.76,34.025l1.1,3.511,3.63-4.568Zm-1.128.279.956.27,1.283-.771-1.719,2.163Z" fill="#fff"/>
              <path id="Path_951" data-name="Path 951" d="M13.572,32.468,12.5,29.1,9,33.49l1.953.547Zm-1.381-2.375.61,1.922L11.687,31.7l-1.493.894Zm-.676,2.158,1.141.32-1.529.917-1.141-.32Z" fill="#fff"/>
            </g>
          </g>
        </g>
        <g id="Group_1383" data-name="Group 1383">
          <g id="Group_1382" data-name="Group 1382" clip-path="url(#clip-path-4)">
            <g id="Group_1381" data-name="Group 1381">
              <path id="Path_953" data-name="Path 953" d="M103.381,8.922a8.52,8.52,0,0,0-2.809-2.9,5.031,5.031,0,0,0-3.254-.9,2.014,2.014,0,0,0-1.793,1.625,4.607,4.607,0,0,0,.719,3.2,8.508,8.508,0,0,0,2.809,2.895,7.053,7.053,0,0,0,1.15.586c.07.027.121,0,.115-.067a.229.229,0,0,0-.137-.166,6.507,6.507,0,0,1-1.083-.551,8.014,8.014,0,0,1-2.646-2.727,4.336,4.336,0,0,1-.677-3.01,1.9,1.9,0,0,1,1.688-1.53,4.73,4.73,0,0,1,3.065.846,8.023,8.023,0,0,1,2.646,2.727,4.336,4.336,0,0,1,.677,3.01,1.9,1.9,0,0,1-1.689,1.53,3.554,3.554,0,0,1-1.42-.109c-.068-.018-.111.021-.095.089a.232.232,0,0,0,.152.154,3.787,3.787,0,0,0,1.509.117,2.014,2.014,0,0,0,1.792-1.625A4.6,4.6,0,0,0,103.381,8.922Z" fill="#fff"/>
              <path id="Path_954" data-name="Path 954" d="M103.381,8.922a8.52,8.52,0,0,0-2.809-2.9,5.031,5.031,0,0,0-3.254-.9,2.014,2.014,0,0,0-1.793,1.625,4.607,4.607,0,0,0,.719,3.2,8.508,8.508,0,0,0,2.809,2.895,7.053,7.053,0,0,0,1.15.586c.07.027.121,0,.115-.067a.229.229,0,0,0-.137-.166,6.507,6.507,0,0,1-1.083-.551,8.014,8.014,0,0,1-2.646-2.727,4.336,4.336,0,0,1-.677-3.01,1.9,1.9,0,0,1,1.688-1.53,4.73,4.73,0,0,1,3.065.846,8.023,8.023,0,0,1,2.646,2.727,4.336,4.336,0,0,1,.677,3.01,1.9,1.9,0,0,1-1.689,1.53,3.554,3.554,0,0,1-1.42-.109c-.068-.018-.111.021-.095.089a.232.232,0,0,0,.152.154,3.787,3.787,0,0,0,1.509.117,2.014,2.014,0,0,0,1.792-1.625A4.6,4.6,0,0,0,103.381,8.922Z" fill="#fff"/>
              <path id="Path_955" data-name="Path 955" d="M97.476,5.987A.184.184,0,0,0,97.3,5.9a1.666,1.666,0,0,0-1.1,1.272c-.353,1.588.984,3.9,2.981,5.146s3.911.974,4.264-.614-.983-3.9-2.981-5.146a4.317,4.317,0,0,0-2.682-.766c-.058.006-.073.068-.035.138a.209.209,0,0,0,.176.113,4.016,4.016,0,0,1,2.5.713c1.86,1.164,3.1,3.313,2.776,4.792s-2.111,1.735-3.971.572S96.112,8.8,96.442,7.326A1.547,1.547,0,0,1,97.47,6.142C97.521,6.124,97.524,6.055,97.476,5.987Z" fill="#fff"/>
              <path id="Path_956" data-name="Path 956" d="M97.476,5.987A.184.184,0,0,0,97.3,5.9a1.666,1.666,0,0,0-1.1,1.272c-.353,1.588.984,3.9,2.981,5.146s3.911.974,4.264-.614-.983-3.9-2.981-5.146a4.317,4.317,0,0,0-2.682-.766c-.058.006-.073.068-.035.138a.209.209,0,0,0,.176.113,4.016,4.016,0,0,1,2.5.713c1.86,1.164,3.1,3.313,2.776,4.792s-2.111,1.735-3.971.572S96.112,8.8,96.442,7.326A1.547,1.547,0,0,1,97.47,6.142C97.521,6.124,97.524,6.055,97.476,5.987Z" fill="#fff"/>
              <path id="Path_957" data-name="Path 957" d="M97.621,9.443a.672.672,0,0,0,.243.268L100.2,11.17a1.738,1.738,0,0,0,.906.3.691.691,0,0,0,.615-.31l.385-.627a1.046,1.046,0,0,0-.056-.984,2.439,2.439,0,0,0-.887-.977L99.133,7.3c-.161-.1-.317-.1-.38,0l-.415.676-.545-.341c-.127-.079-.251-.08-.3,0l-.2.3a.187.187,0,0,0,.007.183.439.439,0,0,0,.166.184l.489.306-.346.563A.286.286,0,0,0,97.621,9.443Zm.1-1.607c0-.007.016-.007.027,0l2.29,1.433-.19.285c0,.007-.017.007-.028,0L97.53,8.121Zm1.218,1.393.837.523c.126.079.25.08.3,0l.2-.3a.19.19,0,0,0-.007-.183.458.458,0,0,0-.166-.184l-.78-.488.134-.219,1.519.95a.578.578,0,0,1,.2.219.241.241,0,0,1,.015.225l-.385.627c-.075.12-.258.122-.447,0l-1.554-.972Zm-.256-.16-.147.24a.134.134,0,0,0,.007.125.308.308,0,0,0,.113.125l1.667,1.043c.307.192.605.189.725-.007l.385-.627a.447.447,0,0,0-.028-.426,1.054,1.054,0,0,0-.381-.411l-1.592-1c-.074-.047-.147-.046-.176,0l-.185.3-.477-.3.393-.64c.017-.027.059-.028.1,0l2.027,1.268a1.944,1.944,0,0,1,.708.781.835.835,0,0,1,.045.787l-.385.627a.566.566,0,0,1-.5.253,1.432,1.432,0,0,1-.741-.242L97.909,9.513a.178.178,0,0,1-.066-.072.08.08,0,0,1,0-.073l.367-.6.477.3Z" fill="#fff"/>
              <path id="Path_958" data-name="Path 958" d="M97.621,9.443a.672.672,0,0,0,.243.268L100.2,11.17a1.738,1.738,0,0,0,.906.3.691.691,0,0,0,.615-.31l.385-.627a1.046,1.046,0,0,0-.056-.984,2.439,2.439,0,0,0-.887-.977L99.133,7.3c-.161-.1-.317-.1-.38,0l-.415.676-.545-.341c-.127-.079-.251-.08-.3,0l-.2.3a.187.187,0,0,0,.007.183.439.439,0,0,0,.166.184l.489.306-.346.563A.286.286,0,0,0,97.621,9.443Zm.1-1.607c0-.007.016-.007.027,0l2.29,1.433-.19.285c0,.007-.017.007-.028,0L97.53,8.121Zm1.218,1.393.837.523c.126.079.25.08.3,0l.2-.3a.19.19,0,0,0-.007-.183.458.458,0,0,0-.166-.184l-.78-.488.134-.219,1.519.95a.578.578,0,0,1,.2.219.241.241,0,0,1,.015.225l-.385.627c-.075.12-.258.122-.447,0l-1.554-.972Zm-.256-.16-.147.24a.134.134,0,0,0,.007.125.308.308,0,0,0,.113.125l1.667,1.043c.307.192.605.189.725-.007l.385-.627a.447.447,0,0,0-.028-.426,1.054,1.054,0,0,0-.381-.411l-1.592-1c-.074-.047-.147-.046-.176,0l-.185.3-.477-.3.393-.64c.017-.027.059-.028.1,0l2.027,1.268a1.944,1.944,0,0,1,.708.781.835.835,0,0,1,.045.787l-.385.627a.566.566,0,0,1-.5.253,1.432,1.432,0,0,1-.741-.242L97.909,9.513a.178.178,0,0,1-.066-.072.08.08,0,0,1,0-.073l.367-.6.477.3Z" fill="#fff"/>
            </g>
          </g>
        </g>
        <g id="Group_1386" data-name="Group 1386">
          <g id="Group_1385" data-name="Group 1385" clip-path="url(#clip-path-5)">
            <g id="Group_1384" data-name="Group 1384">
              <path id="Path_960" data-name="Path 960" d="M13.877,78.69a6.213,6.213,0,0,0-1.349-2.835,2.146,2.146,0,0,0-1.988-.87,2.144,2.144,0,0,0-1.462,1.6,6.749,6.749,0,0,0,1.271,5.974,3.285,3.285,0,0,0,.656.571c.041.027.08,0,.087-.066a.183.183,0,0,0-.061-.162,3.07,3.07,0,0,1-.618-.538,6.352,6.352,0,0,1-1.2-5.627,2.021,2.021,0,0,1,1.376-1.511,2.023,2.023,0,0,1,1.872.82,6.362,6.362,0,0,1,1.2,5.627,2.021,2.021,0,0,1-1.376,1.511,1.519,1.519,0,0,1-.917-.1c-.042-.017-.076.022-.078.088a.166.166,0,0,0,.074.151,1.611,1.611,0,0,0,.973.109,2.147,2.147,0,0,0,1.461-1.6A6.212,6.212,0,0,0,13.877,78.69Z" fill="#fff"/>
              <path id="Path_961" data-name="Path 961" d="M10.495,75.828c-.02-.066-.066-.105-.1-.087A2.015,2.015,0,0,0,9.445,77a5.714,5.714,0,0,0,1.074,5.049c1.1,1.22,2.406.942,2.914-.62a5.711,5.711,0,0,0-1.074-5.048,1.84,1.84,0,0,0-1.634-.743c-.039.007-.06.068-.047.136s.057.117.1.11a1.716,1.716,0,0,1,1.522.692,5.319,5.319,0,0,1,1,4.7c-.473,1.455-1.69,1.714-2.714.577a5.319,5.319,0,0,1-1-4.7,1.873,1.873,0,0,1,.882-1.168C10.5,75.962,10.514,75.894,10.495,75.828Z" fill="#fff"/>
              <path id="Path_962" data-name="Path 962" d="M9.992,79.225a.516.516,0,0,0,.114.263l1.284,1.425a.751.751,0,0,0,.546.288.551.551,0,0,0,.458-.307l.362-.618a1.525,1.525,0,0,0,.133-.968,1.859,1.859,0,0,0-.415-.957l-1.116-1.239c-.088-.1-.191-.1-.25,0l-.39.666-.3-.333c-.069-.077-.151-.077-.2,0l-.184.3a.277.277,0,0,0-.027.18.345.345,0,0,0,.077.18l.27.3-.325.554A.426.426,0,0,0,9.992,79.225Zm.344-1.58c0-.007.012-.007.018,0l1.261,1.4-.175.281c0,.007-.012.007-.018,0l-1.261-1.4Zm.562,1.364.46.512c.069.077.151.077.2,0l.185-.3a.278.278,0,0,0,.027-.18.345.345,0,0,0-.078-.181l-.429-.477.126-.215.836.928a.426.426,0,0,1,.1.215.337.337,0,0,1-.029.22l-.362.618c-.069.119-.191.121-.3.006l-.855-.949Zm-.141-.156-.139.237a.193.193,0,0,0-.017.123.235.235,0,0,0,.053.122l.918,1.019c.169.187.365.184.478-.009l.362-.618a.646.646,0,0,0,.055-.419.8.8,0,0,0-.179-.4l-.877-.973c-.041-.046-.088-.045-.116,0l-.174.3-.263-.291.37-.631c.016-.027.043-.028.067,0l1.116,1.238a1.484,1.484,0,0,1,.332.765,1.219,1.219,0,0,1-.107.773l-.362.618a.451.451,0,0,1-.374.251.609.609,0,0,1-.446-.235L10.17,79.293a.15.15,0,0,1-.031-.071.118.118,0,0,1,.01-.071l.345-.589.263.291Z" fill="#fff"/>
            </g>
          </g>
        </g>
        <g id="Group_1389" data-name="Group 1389">
          <g id="Group_1388" data-name="Group 1388" clip-path="url(#clip-path-6)">
            <g id="Group_1387" data-name="Group 1387">
              <path id="Path_964" data-name="Path 964" d="M105.831,46.519l.491-.784a1.475,1.475,0,0,0,.047-1.332.406.406,0,0,0-.769-.028l-.49.784a.291.291,0,0,0-.01.266l.578,1.088A.081.081,0,0,0,105.831,46.519Zm-.5-1.219.408-.653a.244.244,0,0,1,.462.017.886.886,0,0,1-.029.8l-.408.653Z" fill="#fff"/>
              <path id="Path_965" data-name="Path 965" d="M106.92,44.632a2.674,2.674,0,0,0-.05-.275c-.2-.855-.775-1.234-1.278-.848l-.181-.341a.081.081,0,0,0-.154-.006l-.326.522a.3.3,0,0,0-.01.267l.145.272-.164.261-.144-.272a.081.081,0,0,0-.154-.006l-.327.523a.294.294,0,0,0-.009.266l.144.272-.163.261a.3.3,0,0,0-.01.267l.289.544a.081.081,0,0,0,.154.005l.163-.261,1.3,2.448-.163.261a.3.3,0,0,0-.01.267l.289.544a.081.081,0,0,0,.154.005l.163-.261.145.272c.04.075.108.078.154.005l.326-.522a.294.294,0,0,0,.01-.266l-.145-.272.164-.261.144.272a.081.081,0,0,0,.154.005l.327-.522a.294.294,0,0,0,.009-.266l-.144-.272a2.612,2.612,0,0,0,.319-1.554C107.957,45.047,107.455,44.45,106.92,44.632Zm.657,2.616-.081.13a.293.293,0,0,0-.01.267l.144.272-.163.261-.144-.272a.081.081,0,0,0-.154-.006l-.327.522a.3.3,0,0,0-.009.267l.144.272-.163.261-.145-.272a.081.081,0,0,0-.153-.006l-.164.262-.144-.273.163-.261a.3.3,0,0,0,.01-.266l-1.444-2.72a.081.081,0,0,0-.154-.005l-.164.261-.144-.273.163-.26a.3.3,0,0,0,.01-.267l-.145-.272.164-.261.144.272a.081.081,0,0,0,.154.005l.327-.522a.294.294,0,0,0,.009-.266l-.144-.272.163-.261.163.306c.032.062.086.076.131.033a.611.611,0,0,1,.282-.159c.42-.091.789.421.825,1.145a.22.22,0,0,0,0,.036c.016.1.077.152.135.118.283-.161.588-.03.783.338A2.064,2.064,0,0,1,107.577,47.248Z" fill="#fff"/>
              <path id="Path_966" data-name="Path 966" d="M106.711,45.616l-.735,1.175a.294.294,0,0,0-.01.266l.578,1.088a.081.081,0,0,0,.154.006l.735-1.175a1.477,1.477,0,0,0,.047-1.333A.406.406,0,0,0,106.711,45.616Zm.577,1.088-.653,1.044-.433-.816.653-1.044a.244.244,0,0,1,.462.016A.885.885,0,0,1,107.288,46.7Z" fill="#fff"/>
              <path id="Path_967" data-name="Path 967" d="M104.146,41.922a8.844,8.844,0,0,0-.284,8c1.2,2.253,3.263,2.326,4.616.164a8.857,8.857,0,0,0,.284-8C107.566,39.832,105.5,39.759,104.146,41.922Zm4.187,7.888c-1.263,2.018-3.191,1.95-4.308-.153a8.255,8.255,0,0,1,.265-7.463c1.264-2.015,3.191-1.947,4.309.153A8.255,8.255,0,0,1,108.333,49.81Z" fill="#fff"/>
              <path id="Path_968" data-name="Path 968" d="M104.435,42.466a7.663,7.663,0,0,0-.246,6.93c1.036,1.953,2.828,2.016,4,.142a7.675,7.675,0,0,0,.246-6.93C107.4,40.655,105.608,40.592,104.435,42.466Zm3.61,6.8c-1.083,1.73-2.736,1.671-3.693-.131a7.077,7.077,0,0,1,.227-6.4c1.083-1.727,2.735-1.668,3.693.131A7.077,7.077,0,0,1,108.045,49.266Z" fill="#fff"/>
            </g>
          </g>
        </g>
        <g id="Group_1392" data-name="Group 1392">
          <g id="Group_1391" data-name="Group 1391" clip-path="url(#clip-path-7)">
            <g id="Group_1390" data-name="Group 1390">
              <path id="Path_970" data-name="Path 970" d="M43.454,103.65c-.2.134-.649-.128-.628-.365-.014-.192.262-.258.487-.123S43.626,103.564,43.454,103.65Zm2.63-.413a.4.4,0,0,1-.449-.205c-.1-.165.066-.3.264-.228C46.146,102.866,46.275,103.174,46.084,103.237Zm-5.877-.137c.257.014.467.355.267.437-.142.089-.384-.051-.488-.205C39.958,103.2,40.022,103.071,40.207,103.1Zm4.722-.884c-.187.162-.669-.038-.764-.312-.124-.275.2-.455.525-.282C44.985,101.756,45.118,102.092,44.929,102.216Zm-4.061.054c.018.275-.45.308-.713.054-.232-.2-.2-.458,0-.539C40.44,101.717,40.883,102,40.868,102.27Zm1.935-.609c.118.23-.032.415-.269.444a.887.887,0,0,1-.528-.217c-.231-.2-.255-.481-.067-.586a.609.609,0,0,1,.338-.046A.851.851,0,0,1,42.8,101.661Zm3.941-.555c-.173.144-.614-.078-.64-.315-.05-.2.21-.3.446-.182S46.909,101.01,46.744,101.106Zm-8.824.468c-.132.151-.546.008-.636-.223-.118-.207.092-.38.347-.283C37.9,101.145,38.071,101.449,37.92,101.574Zm3.352-.6a1.152,1.152,0,0,1-1.064-.239c-.413-.312-.527-.816-.232-1.023a1.121,1.121,0,0,1,1.327.309C41.652,100.37,41.631,100.835,41.272,100.97Zm1.94-.139a1.129,1.129,0,0,1-1.2-.258c-.375-.319-.441-.787-.151-.977a1.1,1.1,0,0,1,1.243.25C43.477,100.178,43.527,100.652,43.212,100.831Zm1.661-.7c.078.215-.077.366-.3.392a.9.9,0,0,1-.675-.393c-.093-.221-.011-.445.249-.457A.755.755,0,0,1,44.873,100.127Zm-5.631.627c-.216.168-.734-.033-.872-.335-.179-.319.158-.568.544-.4C39.295,100.163,39.491,100.6,39.242,100.754Zm4.065-1.372a1.209,1.209,0,0,1-1.074-.294c-.326-.275-.448-.673-.266-.9.215-.325.952-.238,1.356.169C43.738,98.73,43.721,99.257,43.307,99.382Zm-3.713.2a1.182,1.182,0,0,1-1.054-.254c-.392-.3-.511-.769-.258-.988.253-.252.886-.16,1.271.193C39.987,98.9,40.005,99.441,39.594,99.581Zm5.741-.668a.617.617,0,0,1-.732-.429c-.046-.244.286-.352.569-.186C45.483,98.452,45.583,98.826,45.335,98.913Zm-8.215.043c.118.219.036.423-.209.449a.713.713,0,0,1-.57-.353c-.149-.26.113-.457.423-.347A.941.941,0,0,1,37.12,98.956Zm9.606-.25a.393.393,0,0,1-.481-.226c-.09-.2.2-.3.407-.135C46.817,98.456,46.843,98.639,46.726,98.706Zm-11.228.6c-.085.086-.315.04-.43-.089-.156-.139-.1-.344.093-.329C35.4,98.853,35.657,99.194,35.5,99.305Zm6.122-1.313a1.291,1.291,0,0,1-1.312-.621c-.248-.436.055-.849.585-.774a1.335,1.335,0,0,1,1,.675A.473.473,0,0,1,41.62,97.992Zm-1.856.1a1.275,1.275,0,0,1-1.326-.627c-.239-.428.055-.827.567-.767a1.265,1.265,0,0,1,1.079.836A.445.445,0,0,1,39.764,98.091Zm3.446-.455c-.3.068-.777-.245-.783-.532-.052-.3.393-.41.728-.178C43.524,97.147,43.55,97.585,43.21,97.636Zm-5.449.275a.73.73,0,0,1-.833-.37c-.168-.313.169-.553.547-.385C37.882,97.3,38.065,97.791,37.761,97.911Zm-2.2-1.287c.211.186.129.451-.127.428a.684.684,0,0,1-.353-.137c-.072-.113-.166-.247-.1-.34C35.035,96.4,35.382,96.434,35.557,96.624Zm8.9-.1c-.157.144-.575-.037-.642-.272-.076-.207.155-.34.4-.234S44.619,96.412,44.456,96.52Zm-4.607-.2a.72.72,0,0,1-.834-.365c-.18-.317.169-.561.549-.385C39.961,95.718,40.149,96.2,39.849,96.321Zm1.822-.533c-.19.13-.623-.054-.725-.3-.109-.2.026-.389.266-.371a.764.764,0,0,1,.515.276C41.8,95.544,41.816,95.721,41.671,95.788ZM37.548,96c-.184.155-.647-.029-.756-.3-.145-.278.175-.477.5-.307C37.6,95.531,37.741,95.876,37.548,96ZM36.04,94.454c.19.147.149.34-.018.384a.485.485,0,0,1-.413-.266C35.526,94.363,35.834,94.281,36.04,94.454Zm5.754-.168c.016.124-.033.251-.209.228-.241,0-.467-.314-.312-.422C41.4,93.972,41.69,94.112,41.794,94.286Zm-2.814.006c.046.182-.171.284-.39.2a.637.637,0,0,1-.3-.245c-.009-.051-.021-.1-.032-.153a.222.222,0,0,1,.2-.161A.51.51,0,0,1,38.98,94.292Z" fill="#fff"/>
            </g>
          </g>
        </g>
        <g id="Group_1395" data-name="Group 1395">
          <g id="Group_1394" data-name="Group 1394" clip-path="url(#clip-path-8)">
            <g id="Group_1393" data-name="Group 1393">
              <path id="Path_972" data-name="Path 972" d="M73.679,34.784c-.139-.21.139-.653.389-.614.2,0,.268.285.125.5S73.768,34.965,73.679,34.784Zm.415,2.708a.38.38,0,0,1,.219-.443c.173-.089.313.088.238.285C74.484,37.582,74.159,37.691,74.094,37.492Zm.187-5.976c-.016.261-.377.45-.461.24-.093-.151.056-.387.218-.482C74.18,31.255,74.313,31.329,74.281,31.516Zm.894,4.872c-.168-.2.046-.679.334-.756.29-.107.478.239.293.555C75.659,36.477,75.305,36.589,75.175,36.388Zm-.026-4.14c-.29,0-.321-.48-.051-.73.208-.223.482-.169.566.04C75.734,31.851,75.432,32.282,75.149,32.248Zm.627,2.013a.328.328,0,0,1-.465-.3.823.823,0,0,1,.231-.523c.208-.222.508-.226.617-.026a.617.617,0,0,1,.046.347A.8.8,0,0,1,75.776,34.261Zm.553,4.054c-.15-.186.087-.62.336-.629.215-.037.315.235.188.467S76.43,38.49,76.329,38.315ZM75.9,29.294c-.158-.145,0-.557.238-.632.22-.105.4.121.3.373C76.354,29.3,76.033,29.457,75.9,29.294Zm.61,3.457a1.1,1.1,0,0,1,.259-1.066c.332-.4.862-.48,1.078-.164a1.081,1.081,0,0,1-.335,1.329C77.141,33.181,76.652,33.127,76.513,32.751Zm.132,1.986a1.087,1.087,0,0,1,.28-1.207c.338-.359.831-.394,1.029-.084a1.065,1.065,0,0,1-.273,1.248C77.33,35.053,76.83,35.071,76.645,34.737Zm.728,1.742c-.227.064-.384-.1-.41-.33a.842.842,0,0,1,.418-.66.33.33,0,0,1,.479.286A.714.714,0,0,1,77.373,36.479Zm-.618-5.78c-.175-.232.04-.746.359-.864.336-.161.6.2.412.581C77.376,30.8,76.911,30.963,76.755,30.7Zm1.412,4.237a1.154,1.154,0,0,1,.318-1.072.721.721,0,0,1,.945-.207c.34.241.243.986-.188,1.368C78.85,35.422,78.3,35.367,78.167,34.936Zm-.181-3.8a1.133,1.133,0,0,1,.275-1.056c.317-.378.812-.465,1.04-.193a1.021,1.021,0,0,1-.212,1.281C78.7,31.59,78.13,31.569,77.986,31.141Zm.66,5.894a.586.586,0,0,1,.456-.714c.257-.03.368.316.191.592C79.129,37.219,78.736,37.294,78.646,37.035Zm.016-8.37a.305.305,0,0,1-.471-.245.671.671,0,0,1,.375-.556c.275-.133.479.149.362.456A.88.88,0,0,1,78.662,28.665Zm.191,9.8a.375.375,0,0,1,.242-.473c.212-.078.309.226.138.423C79.116,38.578,78.923,38.591,78.853,38.467Zm-.547-11.479c-.09-.093-.039-.324.1-.432.147-.149.362-.077.345.118C78.782,26.924,78.422,27.158,78.306,26.988Zm1.336,6.329a1.221,1.221,0,0,1,.663-1.292.56.56,0,0,1,.809.65,1.258,1.258,0,0,1-.717.975A.527.527,0,0,1,79.642,33.317Zm-.091-1.9a1.208,1.208,0,0,1,.669-1.306.556.556,0,0,1,.8.631,1.2,1.2,0,0,1-.888,1.04A.5.5,0,0,1,79.551,31.42ZM80,34.962c-.069-.315.263-.774.565-.76.319-.031.428.429.181.755C80.516,35.316,80.056,35.311,80,34.962Zm-.249-5.57a.693.693,0,0,1,.394-.822c.331-.149.581.211.4.584C80.393,29.559,79.879,29.71,79.756,29.392Zm1.369-2.154c-.2.2-.476.1-.45-.159a.648.648,0,0,1,.147-.35c.12-.065.261-.152.359-.082C81.359,26.722,81.326,27.074,81.125,27.238Zm.044,9.072c-.151-.17.042-.583.29-.634.219-.063.357.181.243.428S81.281,36.484,81.169,36.31Zm.243-4.679a.685.685,0,0,1,.39-.823c.334-.161.588.212.4.586C82.045,31.789,81.535,31.946,81.412,31.631Zm.546,1.894c-.135-.2.062-.631.325-.717a.271.271,0,0,1,.389.3.716.716,0,0,1-.294.505C82.214,33.675,82.029,33.678,81.958,33.525Zm-.195-4.214c-.161-.2.035-.658.317-.75.293-.128.5.213.319.535C82.26,29.394,81.895,29.515,81.763,29.311Zm1.64-1.427c-.156.183-.358.128-.4-.045.021-.163.119-.367.283-.4C83.5,27.367,83.586,27.687,83.4,27.884Zm.134,5.873c-.131.007-.264-.052-.238-.229,0-.245.334-.454.446-.288C83.871,33.38,83.721,33.664,83.537,33.757Zm.015-2.866c-.192.033-.3-.2-.205-.412a.6.6,0,0,1,.26-.291c.054-.006.108-.014.161-.022a.246.246,0,0,1,.168.219A.486.486,0,0,1,83.552,30.891Z" fill="#fff"/>
            </g>
          </g>
        </g>
        <g id="Group_1398" data-name="Group 1398">
          <g id="Group_1397" data-name="Group 1397" clip-path="url(#clip-path-9)">
            <g id="Group_1396" data-name="Group 1396">
              <path id="Path_974" data-name="Path 974" d="M85.7,82.378l0,0-1.739-1.324,1.357-3.244,0-.009.011-.078-.547-2.833a.055.055,0,0,0,0-.022v-.007l-.023-.02a.036.036,0,0,0-.03-.024l-2.291-1.24-.013-.007-3.225.841c-.019.005-.024.01-.068.049l-.092.083-.324.294-.98.889-1.423,1.294,0,0-.056.063,0,.035-1.4,3.328,0,.01-.01.077.556,2.828h0a.056.056,0,0,0,0,.029.04.04,0,0,0,.012.022l.024.021,2.286,1.221a.037.037,0,0,0,.018.017.048.048,0,0,0,.027,0,.077.077,0,0,0,.037,0l3.2-.835.014-.015a.119.119,0,0,0,.021-.013h0l2.727-2.483,1.709,1.31a.082.082,0,0,0,.042.016.2.2,0,0,0,.1-.028.167.167,0,0,0,.059-.059.193.193,0,0,0,.042-.1A.129.129,0,0,0,85.7,82.378Zm-1.5-4.459.433-2.229.386,2.015Zm.782.062-.988,2.373.168-2.159Zm-7.989,4.483.556,1.735L75.8,83.258Zm3.744-6.3L82.28,74.01l.6,1.87Zm2.446-.381-.557-1.736,1.749.941Zm.093.22,1.184-.792L84,77.584l0,.026Zm-6.957,3.607,0-.024.18-2.3.618.126.429.083Zm5.739-5.678L80.5,76.1l-1.061-1.483Zm1.735,4.355-1.315,2.254-.4-1.1-.221-.646,1.936-.5Zm-1.9.229,1.164-2.214.771,1.709ZM80.7,76.454l2.17-.293-1.184,2.252Zm-.377,4.664L81.6,79.024l.633,1.778-2.247.859Zm-1.547-1.784,1.656-2.709.5,1.008.506,1.007Zm2.62-.418-1.648,2.707-.505-1.006-.5-1.007Zm-1.513-1.83-1.3,2.138-.632-1.778,2.239-.857ZM79.47,81.8l-2.161.292.892-1.7.292-.551Zm-3.081-1.839L77.7,77.7l.4,1.131.224.617Zm1.9-.23-1.163,2.214-.772-1.708Zm5.567-1.092v.006l-.183,2.317-.619-.126-.429-.084Zm-7.2-1.628L78.8,75.05l-1.091,2.165Zm.244,5.236-1.184.792.461-2.389v-.007Zm2.779-.1,1.051,1.485-2.611.682Zm3.841-.9L81.37,83.2l1.09-2.165ZM78,77.153l1.176-2.333L80.226,76.3ZM75.19,80.27l.987-2.374-.168,2.16Zm.782.062-.433,2.228-.386-2.015.819-.213Zm3.463,1.75L77.888,84.24l-.6-1.87Zm2.731-.985L80.99,83.431,79.942,81.95Z" fill="#fff"/>
            </g>
          </g>
        </g>
      </g>
    </g>
  </g>
</svg>
