<svg xmlns="http://www.w3.org/2000/svg" viewBox="0 0 256.26 96.89"><defs><style>.cls-1{fill:#fff;}</style></defs><g id="Layer_2" data-name="Layer 2"><g id="Layer_1-2" data-name="Layer 1"><path class="cls-1" d="M110.47,47.92a15,15,0,0,1-5-2.33l2.19-4.87A14.75,14.75,0,0,0,112,42.83a15.71,15.71,0,0,0,4.94.8,7.89,7.89,0,0,0,4.08-.82,2.47,2.47,0,0,0,1.31-2.17,2.08,2.08,0,0,0-.78-1.66,5.85,5.85,0,0,0-2-1.06c-.81-.26-1.91-.55-3.29-.87A47,47,0,0,1,111,35.53a8.59,8.59,0,0,1-3.5-2.44,6.55,6.55,0,0,1-1.45-4.47,7.78,7.78,0,0,1,1.32-4.41,8.84,8.84,0,0,1,4-3.13,16.22,16.22,0,0,1,6.48-1.16,21.77,21.77,0,0,1,5.23.64,15.59,15.59,0,0,1,4.47,1.84l-2,4.91a15.57,15.57,0,0,0-7.75-2.2,7.31,7.31,0,0,0-4,.88,2.69,2.69,0,0,0-1.3,2.31,2.26,2.26,0,0,0,1.5,2.14,23,23,0,0,0,4.57,1.38,45.81,45.81,0,0,1,5.23,1.51,8.69,8.69,0,0,1,3.49,2.4,6.43,6.43,0,0,1,1.46,4.43,7.66,7.66,0,0,1-1.34,4.37,9,9,0,0,1-4,3.13,16.37,16.37,0,0,1-6.51,1.16A22.8,22.8,0,0,1,110.47,47.92Z"/><path class="cls-1" d="M138,45.51q-3.33-3.32-3.33-9.46V20.4h6.46V35.81q0,7.5,6.23,7.5A5.85,5.85,0,0,0,152,41.5c1.06-1.22,1.59-3.11,1.59-5.69V20.4H160V36.05q0,6.14-3.33,9.46t-9.32,3.31Q141.32,48.82,138,45.51Z"/><path class="cls-1" d="M184.4,21.64a9.22,9.22,0,0,1,5.68,8.9,9.74,9.74,0,0,1-1.47,5.37,9.43,9.43,0,0,1-4.21,3.51A15.79,15.79,0,0,1,178,40.64h-5.63v7.7h-6.46V20.4H178A15.62,15.62,0,0,1,184.4,21.64ZM182,34.11a4.39,4.39,0,0,0,1.52-3.57A4.43,4.43,0,0,0,182,26.93a6.78,6.78,0,0,0-4.43-1.26h-5.27v9.7h5.27A6.78,6.78,0,0,0,182,34.11Z"/><path class="cls-1" d="M214.11,48.34l-5.39-7.78h-5.94v7.78h-6.47V20.4H208.4a15.59,15.59,0,0,1,6.45,1.24,9.57,9.57,0,0,1,4.21,3.51,9.72,9.72,0,0,1,1.48,5.39,9.1,9.1,0,0,1-5.75,8.82l6.27,9Zm-1.64-21.41A6.76,6.76,0,0,0,208,25.67h-5.26v9.74H208a6.71,6.71,0,0,0,4.43-1.28A4.41,4.41,0,0,0,214,30.54,4.4,4.4,0,0,0,212.47,26.93Z"/><path class="cls-1" d="M247,42.35H234l-2.47,6h-6.63L237.38,20.4h6.39l12.49,27.94h-6.78Zm-2-4.91-4.43-10.69L236.1,37.44Z"/><path class="cls-1" d="M110.91,75.6a10.06,10.06,0,0,1-4-3.76,10.77,10.77,0,0,1,0-10.76,10,10,0,0,1,4-3.75,12.5,12.5,0,0,1,11.38,0,10.35,10.35,0,0,1,0,18.27,12.58,12.58,0,0,1-11.38,0Zm9-3.47a6,6,0,0,0,2.27-2.3,7.24,7.24,0,0,0,0-6.73,5.93,5.93,0,0,0-2.27-2.31,6.85,6.85,0,0,0-6.5,0,5.89,5.89,0,0,0-2.28,2.31,7.31,7.31,0,0,0,0,6.73,5.93,5.93,0,0,0,2.28,2.3,6.78,6.78,0,0,0,6.5,0Z"/><path class="cls-1" d="M145.54,76.61,141.62,71H137.3v5.65h-4.7V56.31h8.79a11.31,11.31,0,0,1,4.69.9,6.74,6.74,0,0,1,4.13,6.47A6.62,6.62,0,0,1,146,70.09l4.56,6.52Zm-1.19-15.56a4.94,4.94,0,0,0-3.22-.91H137.3v7.08h3.83a4.89,4.89,0,0,0,3.22-.93,3.67,3.67,0,0,0,0-5.24Z"/><path class="cls-1" d="M169.49,72.26h-9.43l-1.8,4.35h-4.81l9.05-20.3h4.64l9.08,20.3h-4.94ZM168,68.7l-3.22-7.78-3.22,7.78Z"/><path class="cls-1" d="M182.93,75.61A10,10,0,0,1,179,71.87a10.88,10.88,0,0,1,0-10.82,10.13,10.13,0,0,1,3.94-3.74,12.59,12.59,0,0,1,10.42-.42,9.6,9.6,0,0,1,3.58,2.67l-3,2.78a6.48,6.48,0,0,0-5.1-2.37,6.81,6.81,0,0,0-3.37.82,5.87,5.87,0,0,0-2.3,2.31,7.24,7.24,0,0,0,0,6.73,5.91,5.91,0,0,0,2.3,2.3,6.81,6.81,0,0,0,3.37.83,6.43,6.43,0,0,0,5.1-2.41l3,2.79a9.46,9.46,0,0,1-3.6,2.7,12.05,12.05,0,0,1-4.78.92A11.7,11.7,0,0,1,182.93,75.61Z"/><path class="cls-1" d="M201.27,56.31H206V72.79h10.19v3.82H201.27Z"/><path class="cls-1" d="M235.7,72.84v3.77H220V56.31h15.35v3.77H224.65v4.41h9.43v3.66h-9.43v4.69Z"/><path class="cls-1" d="M243,76.31a10.74,10.74,0,0,1-3.61-1.7L241,71.07a10.64,10.64,0,0,0,3.11,1.54,11.52,11.52,0,0,0,3.59.58,5.79,5.79,0,0,0,3-.59,1.81,1.81,0,0,0,1-1.58,1.51,1.51,0,0,0-.57-1.21,4.14,4.14,0,0,0-1.45-.76c-.59-.2-1.38-.41-2.39-.64a33,33,0,0,1-3.8-1.11,6.11,6.11,0,0,1-2.54-1.77,4.79,4.79,0,0,1-1.06-3.24,5.66,5.66,0,0,1,1-3.21,6.42,6.42,0,0,1,2.89-2.28,11.74,11.74,0,0,1,4.71-.84,15.57,15.57,0,0,1,3.8.47,11.24,11.24,0,0,1,3.25,1.33l-1.45,3.57a11.38,11.38,0,0,0-5.63-1.6,5.32,5.32,0,0,0-2.91.64,2,2,0,0,0-1,1.68,1.66,1.66,0,0,0,1.09,1.56,17.87,17.87,0,0,0,3.32,1,30.73,30.73,0,0,1,3.8,1.1,6.29,6.29,0,0,1,2.54,1.74,4.65,4.65,0,0,1,1.06,3.22,5.55,5.55,0,0,1-1,3.18,6.56,6.56,0,0,1-2.92,2.27,11.86,11.86,0,0,1-4.72.84A16.81,16.81,0,0,1,243,76.31Z"/><path class="cls-1" d="M34.81,66.69a9.91,9.91,0,0,0,1.81,3.11,8.21,8.21,0,0,0,3,2.18,11.73,11.73,0,0,0,2.3.7,10.06,10.06,0,0,0-.19-2.31L36.75,57.52a9.06,9.06,0,0,0-2.46,5.68A10.31,10.31,0,0,0,34.81,66.69Z"/><path class="cls-1" d="M36.2,70.4a11,11,0,0,1-2.32-3.11,9.21,9.21,0,0,1-.9-3.86,11,11,0,0,1,.63-4,10.46,10.46,0,0,1,2.18-3.49c.08-.09.17-.17.25-.25l-1.12-2.93a12.25,12.25,0,0,0-1.12.9,11.3,11.3,0,0,0-3,4.23,11.38,11.38,0,0,0-1.16,5.18,14.75,14.75,0,0,0,.9,5.29A16.6,16.6,0,0,0,33.43,73a14.59,14.59,0,0,0,4.5,3.23,13,13,0,0,0,2.75.91,9.81,9.81,0,0,0,1.2-4.31,9.09,9.09,0,0,1-2.45-.47A9.7,9.7,0,0,1,36.2,70.4Z"/><path class="cls-1" d="M33,73.63A14.06,14.06,0,0,1,29.68,69a14.28,14.28,0,0,1-1.28-5.67,15.22,15.22,0,0,1,1.05-5.81,15.39,15.39,0,0,1,3.11-5A18.39,18.39,0,0,1,34.26,51l-1-2.71a16.17,16.17,0,0,0-2.63,2.15,18.87,18.87,0,0,0-4,5.66,20.76,20.76,0,0,0-1.54,7,19.73,19.73,0,0,0,1.28,7.09,18.9,18.9,0,0,0,3.86,6.07,17.28,17.28,0,0,0,5.93,4.13c.37.18.76.32,1.14.46A9.86,9.86,0,0,0,39,79.46a10.41,10.41,0,0,0,1.64-2.17,15.21,15.21,0,0,1-2.83-.7A14.52,14.52,0,0,1,33,73.63Z"/><path class="cls-1" d="M29.68,76.63a19.73,19.73,0,0,1-4.39-6.19A21.23,21.23,0,0,1,23.6,63a22,22,0,0,1,1.27-7.62A19.54,19.54,0,0,1,29,48.8,17.63,17.63,0,0,1,32.34,46L31.56,44a21.35,21.35,0,0,0-4.21,3.2,23.6,23.6,0,0,0-5,7.24,25.23,25.23,0,0,0-1.95,8.63,25.67,25.67,0,0,0,1.54,8.78,23.86,23.86,0,0,0,8.15,10.42,7.4,7.4,0,0,0,1.89.19A10.62,10.62,0,0,0,37,81c-.35-.11-.7-.21-1-.34A19.73,19.73,0,0,1,29.68,76.63Z"/><path class="cls-1" d="M62.07,30.26a9.82,9.82,0,0,0-1.8-3.12,8.27,8.27,0,0,0-3-2.17,11.47,11.47,0,0,0-2.53-.75A9.63,9.63,0,0,0,55,26.54L60,39.61a9.12,9.12,0,0,0,2.64-5.86A10.28,10.28,0,0,0,62.07,30.26Z"/><path class="cls-1" d="M66.05,39.07a11.37,11.37,0,0,0,1.16-5.17,14.71,14.71,0,0,0-.9-5.29A17.07,17.07,0,0,0,63.46,24,14.71,14.71,0,0,0,59,20.73a13.21,13.21,0,0,0-3.05-1,9.93,9.93,0,0,0-1.13,4.34,10.33,10.33,0,0,1,2.68.49,10,10,0,0,1,3.22,1.95A11.12,11.12,0,0,1,63,29.66a9.36,9.36,0,0,1,.9,3.86,10.69,10.69,0,0,1-.64,4A10.18,10.18,0,0,1,61.1,41a6.09,6.09,0,0,1-.44.44l1.09,2.89a11.67,11.67,0,0,0,4.3-5.28Z"/><path class="cls-1" d="M48.44,0A48.45,48.45,0,1,0,96.89,48.44,48.44,48.44,0,0,0,48.44,0ZM76.18,43.27a24.88,24.88,0,0,1-5.18,8,23.64,23.64,0,0,1-5.11,4.08A23.88,23.88,0,0,1,41.08,86.46a20.94,20.94,0,0,0,2.1.11,24,24,0,0,1-9-1.69,25.78,25.78,0,0,1-7.88-5A23.2,23.2,0,0,1,21,72.13,22.89,22.89,0,0,1,19,63a25.46,25.46,0,0,1,1.69-9.31,24.76,24.76,0,0,1,5.18-8,24.36,24.36,0,0,1,4.82-3.9v-.11A23.82,23.82,0,0,1,56.19,10.5a22.7,22.7,0,0,1,6.56,1.57,25.77,25.77,0,0,1,7.87,5,23,23,0,0,1,5.29,7.73,22.72,22.72,0,0,1,2,9.15A25.4,25.4,0,0,1,76.18,43.27Z"/><path class="cls-1" d="M70.06,17.5a22.33,22.33,0,0,0-3.19-2.77,10,10,0,0,0-7.29,1.14c.45.14.9.27,1.33.43A19.63,19.63,0,0,1,71.6,26.51,21.18,21.18,0,0,1,73.29,34,22,22,0,0,1,72,41.59a19.45,19.45,0,0,1-4.12,6.56,18,18,0,0,1-3.6,2.92l.78,2a21.36,21.36,0,0,0,4.47-3.36,23.17,23.17,0,0,0,5-7.24,24.94,24.94,0,0,0,2-8.62A25.39,25.39,0,0,0,75,25.12,22.61,22.61,0,0,0,70.06,17.5Z"/><path class="cls-1" d="M70.32,40.83a20.47,20.47,0,0,0,1.54-7,19.64,19.64,0,0,0-1.27-7.09,18.8,18.8,0,0,0-3.87-6.08,17.21,17.21,0,0,0-5.92-4.12A14.33,14.33,0,0,0,59.39,16a9.61,9.61,0,0,0-1.73,1.35A9.8,9.8,0,0,0,56,19.63a15.3,15.3,0,0,1,3.13.73,14.06,14.06,0,0,1,4.76,3A13.85,13.85,0,0,1,67.21,28a14.27,14.27,0,0,1,1.28,5.66,15.43,15.43,0,0,1-1,5.82,15.11,15.11,0,0,1-3.12,5,16.59,16.59,0,0,1-1.91,1.63l1,2.7a16.52,16.52,0,0,0,2.88-2.3A18.76,18.76,0,0,0,70.32,40.83Z"/></g></g></svg>