<svg width="531" height="116" viewBox="0 0 531 116" fill="none" xmlns="http://www.w3.org/2000/svg">
<path d="M160.79 52.32C160.37 51.8533 159.483 51.2467 158.13 50.5C156.777 49.7067 155.143 49.0067 153.23 48.4C151.363 47.7467 149.427 47.42 147.42 47.42C142.147 47.42 139.51 49.2867 139.51 53.02C139.51 54.3733 139.93 55.4467 140.77 56.24C141.61 57.0333 142.87 57.71 144.55 58.27C146.23 58.83 148.33 59.4367 150.85 60.09C154.117 60.93 156.94 61.91 159.32 63.03C161.747 64.15 163.59 65.6433 164.85 67.51C166.157 69.33 166.81 71.7567 166.81 74.79C166.81 78.3367 165.947 81.2067 164.22 83.4C162.54 85.5467 160.3 87.11 157.5 88.09C154.7 89.07 151.667 89.56 148.4 89.56C144.667 89.56 140.957 89 137.27 87.88C133.63 86.7133 130.387 85.1267 127.54 83.12L131.81 74.79C132.23 75.21 132.977 75.77 134.05 76.47C135.123 77.1233 136.43 77.8 137.97 78.5C139.51 79.1533 141.19 79.7133 143.01 80.18C144.83 80.6467 146.673 80.88 148.54 80.88C153.86 80.88 156.52 79.1767 156.52 75.77C156.52 74.3233 155.983 73.1567 154.91 72.27C153.837 71.3833 152.32 70.6367 150.36 70.03C148.447 69.4233 146.207 68.7467 143.64 68C140.467 67.1133 137.83 66.1333 135.73 65.06C133.677 63.94 132.137 62.5633 131.11 60.93C130.083 59.25 129.57 57.1267 129.57 54.56C129.57 51.1533 130.363 48.3067 131.95 46.02C133.583 43.6867 135.777 41.9367 138.53 40.77C141.283 39.5567 144.34 38.95 147.7 38.95C151.153 38.95 154.373 39.51 157.36 40.63C160.347 41.75 162.913 43.0333 165.06 44.48L160.79 52.32ZM174.11 89V39.3H195.18C197.466 39.3 199.566 39.7667 201.48 40.7C203.44 41.6333 205.12 42.8933 206.52 44.48C207.92 46.0667 209.016 47.84 209.81 49.8C210.603 51.76 211 53.7667 211 55.82C211 58.62 210.346 61.28 209.04 63.8C207.733 66.32 205.913 68.3733 203.58 69.96C201.293 71.5467 198.61 72.34 195.53 72.34H183.77V89H174.11ZM183.77 63.87H194.97C196.743 63.87 198.213 63.1467 199.38 61.7C200.593 60.2067 201.2 58.2467 201.2 55.82C201.2 53.2533 200.523 51.27 199.17 49.87C197.816 48.47 196.276 47.77 194.55 47.77H183.77V63.87ZM259.513 39.3V89H249.923V67.79H227.383V89H217.723V39.3H227.383V59.39H249.923V39.3H259.513ZM304.391 80.53V89H269.881V39.3H303.761V47.77H279.541V59.74H300.471V67.58H279.541V80.53H304.391ZM311.922 89V39.3H333.902C336.189 39.3 338.289 39.7667 340.202 40.7C342.162 41.6333 343.842 42.8933 345.242 44.48C346.689 46.0667 347.786 47.84 348.532 49.8C349.326 51.76 349.722 53.7667 349.722 55.82C349.722 58.9933 348.906 61.91 347.272 64.57C345.686 67.23 343.516 69.1433 340.762 70.31L352.102 89H341.462L331.242 72.34H321.582V89H311.922ZM321.582 63.87H333.692C335.512 63.87 337.006 63.1 338.172 61.56C339.386 59.9733 339.992 58.06 339.992 55.82C339.992 54.28 339.666 52.9033 339.012 51.69C338.359 50.4767 337.519 49.52 336.492 48.82C335.512 48.12 334.439 47.77 333.272 47.77H321.582V63.87ZM358.475 89V39.3H368.135V89H358.475ZM399.574 89.35C395.608 89.35 392.224 88.6967 389.424 87.39C386.671 86.0367 384.431 84.1933 382.704 81.86C381.024 79.5267 379.788 76.89 378.994 73.95C378.201 70.9633 377.804 67.86 377.804 64.64V39.3H387.464V64.64C387.464 67.3933 387.838 70.0067 388.584 72.48C389.331 74.9533 390.591 76.96 392.364 78.5C394.138 80.04 396.518 80.81 399.504 80.81C402.584 80.81 405.011 80.04 406.784 78.5C408.558 76.9133 409.818 74.8833 410.564 72.41C411.311 69.9367 411.684 67.3467 411.684 64.64V39.3H421.274V64.64C421.274 68.0467 420.854 71.2433 420.014 74.23C419.221 77.2167 417.938 79.8533 416.164 82.14C414.438 84.38 412.198 86.1533 409.444 87.46C406.691 88.72 403.401 89.35 399.574 89.35ZM471.534 89V56.38L458.794 80.67H453.404L440.664 56.38V89H431.004V39.3H441.364L456.064 67.58L470.904 39.3H481.194V89H471.534Z" fill="black"/>
<path d="M387.772 13.316H385.784V11.384H387.772V11.076C387.772 10.1053 387.968 9.18133 388.36 8.304C388.752 7.42667 389.349 6.708 390.152 6.148C390.955 5.56933 391.963 5.28 393.176 5.28C394.221 5.28 395.127 5.448 395.892 5.784C396.676 6.10133 397.301 6.41867 397.768 6.736L396.704 8.556C396.349 8.23867 395.864 7.968 395.248 7.744C394.651 7.52 394.007 7.408 393.316 7.408C392.607 7.408 392.019 7.58533 391.552 7.94C391.104 8.29467 390.768 8.752 390.544 9.312C390.339 9.85333 390.236 10.4133 390.236 10.992V11.384H397.712V26H395.248V13.316H390.236V26H387.772V13.316ZM414.383 26H411.919V17.824C411.919 16.2747 411.676 15.1453 411.191 14.436C410.724 13.708 410.006 13.344 409.035 13.344C408.363 13.344 407.691 13.512 407.019 13.848C406.366 14.184 405.778 14.6413 405.255 15.22C404.751 15.78 404.387 16.4333 404.163 17.18V26H401.699V11.384H403.939V14.52C404.518 13.4933 405.348 12.672 406.431 12.056C407.532 11.44 408.727 11.132 410.015 11.132C411.154 11.132 412.031 11.4027 412.647 11.944C413.282 12.4667 413.73 13.1947 413.991 14.128C414.252 15.0427 414.383 16.088 414.383 17.264V26ZM417.067 21.772C417.067 20.8387 417.328 20.036 417.851 19.364C418.392 18.6733 419.129 18.1413 420.063 17.768C420.996 17.3947 422.079 17.208 423.311 17.208C423.964 17.208 424.655 17.264 425.383 17.376C426.111 17.4693 426.755 17.6187 427.315 17.824V16.76C427.315 15.64 426.979 14.7627 426.307 14.128C425.635 13.4747 424.683 13.148 423.451 13.148C422.648 13.148 421.873 13.2973 421.127 13.596C420.399 13.876 419.624 14.2867 418.803 14.828L417.907 13.092C418.859 12.4387 419.811 11.9533 420.763 11.636C421.715 11.3 422.704 11.132 423.731 11.132C425.597 11.132 427.072 11.6547 428.155 12.7C429.237 13.7267 429.779 15.164 429.779 17.012V23.2C429.779 23.7787 430.04 24.0773 430.563 24.096V26C430.32 26.0373 430.105 26.0653 429.919 26.084C429.751 26.1027 429.611 26.112 429.499 26.112C428.92 26.112 428.481 25.9533 428.183 25.636C427.903 25.3187 427.744 24.9827 427.707 24.628L427.651 23.704C427.016 24.5253 426.185 25.16 425.159 25.608C424.132 26.056 423.115 26.28 422.107 26.28C421.136 26.28 420.268 26.084 419.503 25.692C418.737 25.2813 418.14 24.74 417.711 24.068C417.281 23.3773 417.067 22.612 417.067 21.772ZM426.587 22.808C426.811 22.5467 426.988 22.2853 427.119 22.024C427.249 21.744 427.315 21.5107 427.315 21.324V19.504C426.12 19.0373 424.888 18.804 423.619 18.804C422.368 18.804 421.351 19.056 420.567 19.56C419.801 20.0453 419.419 20.7173 419.419 21.576C419.419 22.0427 419.54 22.5 419.783 22.948C420.044 23.3773 420.417 23.732 420.903 24.012C421.407 24.292 422.023 24.432 422.751 24.432C423.516 24.432 424.244 24.2827 424.935 23.984C425.625 23.6667 426.176 23.2747 426.587 22.808ZM446.402 26H443.938V17.824C443.938 16.2747 443.696 15.1453 443.21 14.436C442.744 13.708 442.025 13.344 441.054 13.344C440.382 13.344 439.71 13.512 439.038 13.848C438.385 14.184 437.797 14.6413 437.274 15.22C436.77 15.78 436.406 16.4333 436.182 17.18V26H433.718V11.384H435.958V14.52C436.537 13.4933 437.368 12.672 438.45 12.056C439.552 11.44 440.746 11.132 442.034 11.132C443.173 11.132 444.05 11.4027 444.666 11.944C445.301 12.4667 445.749 13.1947 446.01 14.128C446.272 15.0427 446.402 16.088 446.402 17.264V26ZM456.702 26.28C455.246 26.28 453.958 25.9347 452.838 25.244C451.718 24.5347 450.841 23.6013 450.206 22.444C449.571 21.2867 449.254 20.0267 449.254 18.664C449.254 17.2827 449.562 16.0227 450.178 14.884C450.794 13.7453 451.662 12.84 452.782 12.168C453.902 11.4773 455.199 11.132 456.674 11.132C458.111 11.132 459.362 11.4587 460.426 12.112C461.509 12.7467 462.311 13.6053 462.834 14.688L460.426 15.444C460.053 14.7533 459.53 14.2213 458.858 13.848C458.186 13.456 457.439 13.26 456.618 13.26C455.722 13.26 454.901 13.4933 454.154 13.96C453.426 14.4267 452.847 15.0707 452.418 15.892C451.989 16.6947 451.774 17.6187 451.774 18.664C451.774 19.6907 451.989 20.624 452.418 21.464C452.866 22.2853 453.454 22.9387 454.182 23.424C454.929 23.9093 455.75 24.152 456.646 24.152C457.225 24.152 457.775 24.0493 458.298 23.844C458.839 23.6387 459.306 23.368 459.698 23.032C460.109 22.6773 460.389 22.2947 460.538 21.884L462.946 22.612C462.517 23.676 461.733 24.5533 460.594 25.244C459.474 25.9347 458.177 26.28 456.702 26.28ZM472.069 26.28C470.613 26.28 469.325 25.9347 468.205 25.244C467.085 24.5533 466.208 23.6293 465.573 22.472C464.939 21.3147 464.621 20.0547 464.621 18.692C464.621 17.3107 464.939 16.0507 465.573 14.912C466.208 13.7733 467.085 12.8587 468.205 12.168C469.344 11.4773 470.641 11.132 472.097 11.132C473.572 11.132 474.851 11.4867 475.933 12.196C477.035 12.8867 477.884 13.8013 478.481 14.94C479.097 16.06 479.405 17.2733 479.405 18.58C479.405 18.9907 479.387 19.308 479.349 19.532H467.225C467.3 20.484 467.561 21.3333 468.009 22.08C468.476 22.808 469.073 23.3867 469.801 23.816C470.529 24.2267 471.313 24.432 472.153 24.432C473.049 24.432 473.889 24.208 474.673 23.76C475.476 23.312 476.027 22.724 476.325 21.996L478.453 22.584C477.987 23.6667 477.175 24.5533 476.017 25.244C474.86 25.9347 473.544 26.28 472.069 26.28ZM467.141 17.824H477.109C477.035 16.872 476.764 16.032 476.297 15.304C475.831 14.576 475.233 14.0067 474.505 13.596C473.777 13.1853 472.975 12.98 472.097 12.98C471.239 12.98 470.445 13.1853 469.717 13.596C468.989 14.0067 468.392 14.576 467.925 15.304C467.477 16.032 467.216 16.872 467.141 17.824Z" fill="black"/>
<g clip-path="url(#clip0)">
<path d="M44.9376 29.6884C43.0059 28.1634 41.1759 26.7401 39.4476 25.3167C38.6343 24.6051 37.9226 23.9951 37.2109 23.3851C39.2443 20.4367 41.2776 17.285 44.9376 14.1334C48.4959 13.32 52.5626 12.5067 58.3576 11.795C58.866 12.2017 59.3743 12.71 59.8826 13.1167C61.001 14.1334 62.3226 15.15 63.6443 16.1667C61.8143 18.2 59.9843 20.5384 57.951 24.8084C53.2743 26.5367 49.6143 27.8584 44.9376 29.6884Z" fill="url(#paint0_linear)"/>
<path d="M27.1459 51.8512C24.9092 50.1229 22.7742 48.3946 20.8426 46.7679C19.9276 45.9546 19.0126 45.2429 18.1992 44.5312C19.2159 40.3629 20.3342 35.9912 22.6726 30.8062C25.8242 29.0779 29.4842 27.1462 35.0759 25.0112C35.7876 25.6212 36.6009 26.3329 37.4142 27.0446C39.1426 28.5696 41.0742 29.9929 43.0059 31.5179C41.8876 35.0762 40.6676 38.7362 39.6509 44.7346C35.5842 46.8696 31.7209 49.0046 27.1459 51.8512Z" fill="url(#paint1_linear)"/>
<path d="M16.6733 76.8614C14.6399 75.3364 12.6066 73.7098 10.8783 72.1848C10.0649 71.4731 9.25161 70.7614 8.53994 70.0498C8.0316 65.7798 7.72661 61.3064 8.13327 55.3081C10.1666 52.9698 12.5049 50.2248 16.8766 46.8698C17.6899 47.5814 18.6049 48.3948 19.5199 49.2081C21.4516 50.8348 23.5866 52.5631 25.925 54.2914C25.62 58.3581 25.2133 63.0348 25.4166 69.5414C22.3666 71.7781 19.5199 73.9131 16.6733 76.8614Z" fill="url(#paint2_linear)"/>
<path d="M106.343 66.9999C108.377 65.4749 110.41 63.8482 112.138 62.3232C112.952 61.6115 113.765 60.8999 114.477 60.1882C114.883 55.8165 115.29 51.4449 114.883 45.4465C112.85 43.1082 110.512 40.3632 106.14 37.0082C105.327 37.7198 104.412 38.5332 103.497 39.3465C101.565 40.9732 99.4301 42.7015 97.0918 44.4299C97.3968 48.4965 97.8035 53.1732 97.6001 59.6799C100.752 61.9165 103.497 64.0515 106.343 66.9999Z" fill="url(#paint3_linear)"/>
<path d="M15.7588 98.1099C14.3354 96.9916 12.9121 95.8732 11.6921 94.8566C11.0821 94.3482 10.5738 93.8399 10.0654 93.4332C8.43878 89.8749 6.81211 86.2149 5.28711 80.8265C5.89711 77.6749 6.20211 75.8449 8.13378 72.4899C8.84545 73.2015 9.65878 73.8115 10.4721 74.5232C12.2004 76.0482 14.1321 77.5732 16.1655 79.0982C16.8771 82.7582 17.5888 86.9265 19.1138 92.1115C17.7921 93.8399 16.3688 95.6699 15.7588 98.1099Z" fill="url(#paint4_linear)"/>
<path d="M79.1989 50.8347C75.5389 48.903 71.7772 46.9714 68.1172 44.8364C68.4222 40.7697 68.6255 36.8047 69.4389 32.2297C72.7939 30.3997 76.0472 28.5697 79.5039 26.333C82.0455 27.7563 84.4855 29.1797 87.0272 30.3997C87.3322 33.8563 87.6372 36.6013 88.3489 42.3964C86.0105 44.8364 83.6722 47.2764 79.1989 50.8347Z" fill="url(#paint5_linear)"/>
<path d="M66.6942 76.2514C62.4242 74.1164 58.1542 71.778 53.9858 69.338C54.0875 64.153 54.1892 59.6797 54.4942 54.393C60.1875 51.038 63.1359 49.4113 66.8975 47.073C70.6592 49.208 74.4209 51.2413 78.1825 53.173C78.3859 57.9513 78.6909 62.8313 78.8942 67.6097C75.6409 70.1514 72.3875 72.4897 66.6942 76.2514Z" fill="url(#paint6_linear)"/>
<path d="M52.8668 99.1266C49.0035 97.0932 45.0385 95.0599 41.1751 92.8232C40.8701 87.8415 40.5651 84.1815 40.3618 79.3015C49.9185 73.5065 49.9185 73.5065 52.6635 71.7782C56.8318 74.2182 61.1018 76.4549 65.3718 78.6915C65.2702 88.0449 65.2702 89.7732 65.1685 92.8232C61.5085 94.7549 58.2552 96.4832 52.8668 99.1266Z" fill="url(#paint7_linear)"/>
<path d="M41.1748 113.665C38.4298 112.242 35.6848 110.818 33.0414 109.192C32.1264 104.515 31.7198 102.38 31.2114 99.8382C33.7531 98.3132 35.4814 97.1949 40.2598 94.5515C44.0214 96.6865 47.8848 98.8215 51.6464 100.753C51.5448 104.108 51.5448 107.362 51.1381 110.615C43.4114 113.157 41.1748 113.665 41.1748 113.665Z" fill="url(#paint8_linear)"/>
<path d="M105.835 106.65C108.174 104.921 110.614 103.091 112.952 101.261C114.07 96.7879 114.579 94.7546 115.087 92.3146C113.054 91.2979 111.63 90.4846 107.869 88.8579C104.615 91.3996 101.26 93.9412 97.9053 96.3813C97.702 99.5329 97.6003 102.481 97.702 105.43C104.005 106.548 105.835 106.65 105.835 106.65Z" fill="#C4C4C4"/>
<path d="M105.835 106.65C108.174 104.921 110.614 103.091 112.952 101.261C114.07 96.7879 114.579 94.7546 115.087 92.3146C113.054 91.2979 111.63 90.4846 107.869 88.8579C104.615 91.3996 101.26 93.9412 97.9053 96.3813C97.702 99.5329 97.6003 102.481 97.702 105.43C104.005 106.548 105.835 106.65 105.835 106.65Z" fill="url(#paint9_linear)"/>
<path d="M53.3747 51.9529C49.5114 49.5129 45.7497 47.0729 42.1914 44.6329C43.0047 40.5662 43.8181 36.3979 45.4447 31.5179C50.0197 29.6879 52.1547 28.7729 58.4581 26.4346C61.3048 28.3662 64.2531 30.2979 67.3031 32.2296C66.7948 35.5846 66.1848 39.0412 65.7781 44.8363C60.8981 47.6829 60.1864 48.0896 53.3747 51.9529Z" fill="url(#paint10_linear)"/>
<path d="M22.773 28.7729C21.0447 26.8412 19.723 25.1129 18.9097 23.6896C22.0613 19.6229 23.7897 17.3862 28.0597 13.8279C31.1097 12.5062 34.668 11.0829 39.9547 9.76123C40.5647 10.8796 41.5814 12.2012 43.0047 13.7262C39.7514 16.8779 37.9213 18.6062 35.0747 22.9779C31.4147 24.7062 27.4497 26.2312 22.773 28.7729Z" fill="url(#paint11_linear)"/>
<path d="M107.056 25.0114C108.784 23.0798 110.106 21.3514 110.919 19.9281C107.768 15.8614 106.039 13.6248 101.769 10.0664C98.7192 8.74476 95.1609 7.32142 89.8742 5.99976C89.2642 7.11809 88.2476 8.43976 86.8242 9.96476C90.0776 13.1164 91.9076 14.8448 94.7542 19.2164C98.5159 20.8431 102.481 22.3681 107.056 25.0114Z" fill="url(#paint12_linear)"/>
<path d="M39.0402 76.9631C35.0752 74.5231 31.2119 71.9814 27.5519 69.4398C27.5519 64.5598 27.4502 60.3914 28.1619 54.1898C31.7202 51.9531 34.8719 50.0214 40.6669 46.8698C44.2252 49.3098 48.0886 51.8514 51.9519 54.1898C51.6469 58.7648 51.4436 62.1198 51.3419 69.2364C47.2752 71.8798 43.2086 74.4214 39.0402 76.9631Z" fill="#87F2E7"/>
<path d="M7.62467 53.0714C5.79467 51.1397 4.473 49.3097 3.65967 47.8864C4.67634 43.718 5.693 39.448 8.33634 33.958C10.573 31.3147 12.8097 28.6713 17.0797 25.6213C17.893 27.0447 19.113 28.773 20.943 30.7047C19.3163 34.4663 17.6897 38.3297 16.368 44.4297C13.5213 46.9714 10.573 49.513 7.62467 53.0714Z" fill="url(#paint13_linear)"/>
<path d="M29.8908 98.1099C26.6375 96.0765 23.4858 94.0432 20.5375 92.0099C19.6225 88.2482 18.7075 84.3849 17.7925 78.8949C19.9275 76.8615 22.1642 74.8282 26.4342 71.6765C29.9925 74.1165 33.8558 76.6582 37.8208 79.0982C38.1258 83.6732 38.2275 86.4182 38.7358 92.5182C35.5842 94.5515 32.7375 96.2799 29.8908 98.1099Z" fill="url(#paint14_linear)"/>
<path d="M4.47362 78.7931C2.94862 77.1664 1.93195 75.7431 1.32195 74.5231C0.61028 70.4564 0.000279605 66.3898 0.101946 60.6964C0.61028 57.6464 1.11861 54.4948 3.05028 50.4281C3.86362 51.9531 5.18528 53.5798 6.91362 55.6131C6.81195 59.5781 6.60862 64.1531 7.32029 70.2531C6.10029 72.6931 4.88028 75.2348 4.47362 78.7931Z" fill="url(#paint15_linear)"/>
<path d="M80.0118 97.8049C76.1485 96.2799 72.0818 94.5516 68.0151 92.6199C68.1168 89.3666 68.2185 84.7916 68.2185 78.4882C72.1835 75.7432 76.0468 73.2015 80.4185 69.7449C84.4851 71.6765 88.4501 73.4049 92.3135 74.9299C92.5168 79.5049 92.8218 83.7749 92.5168 89.0616C89.2635 91.6032 85.6035 94.4499 80.0118 97.8049Z" fill="url(#paint16_linear)"/>
<path d="M63.2376 115.088C60.0859 113.868 56.8325 112.445 53.4775 110.818C53.7825 108.378 54.0875 105.735 54.2909 100.855C58.2559 99.0249 61.9159 97.2965 66.6942 94.6532C70.7609 96.5849 74.8276 98.3132 78.5892 99.8382C78.0809 103.193 77.5726 106.752 76.2509 110.412C66.5926 114.377 63.2376 115.088 63.2376 115.088Z" fill="url(#paint17_linear)"/>
<g clip-path="url(#clip1)">
<path d="M106.403 99.5112L104.459 100.303L107.485 102.396L107.537 96.561L106.403 99.5112ZM105.685 100.425L106.605 100.05L107.142 98.6534L107.118 101.416L105.685 100.425Z" fill="white"/>
<path d="M107.297 96.1168L104.381 94.1177L104.322 99.7333L106.199 98.9634L107.297 96.1168ZM104.747 95.0932L106.41 96.2334L105.339 96.6725L104.713 98.2961L104.747 95.0932ZM105.542 97.2111L106.638 96.7612L105.997 98.4248L104.9 98.8748L105.542 97.2111Z" fill="white"/>
</g>
<g clip-path="url(#clip2)">
<path d="M10.7793 40.5959L8.75977 40.0245L9.85756 43.536L13.4885 38.9677L10.7793 40.5959ZM9.65092 40.8747L10.6071 41.1452L11.8898 40.3743L10.1707 42.5373L9.65092 40.8747Z" fill="white"/>
<path d="M13.5716 38.4684L12.5031 35.0989L9.00179 39.4897L10.9549 40.0373L13.5716 38.4684ZM12.1915 36.093L12.8009 38.0149L11.6868 37.7026L10.1945 38.5974L12.1915 36.093ZM11.5148 38.2515L12.6562 38.5715L11.127 39.4884L9.98556 39.1684L11.5148 38.2515Z" fill="white"/>
</g>
<g clip-path="url(#clip3)">
<path d="M103.381 14.9218C102.715 13.7712 101.717 12.743 100.572 12.0265C99.4269 11.31 98.2713 10.9909 97.318 11.1281C96.3648 11.2654 95.7281 11.8424 95.5253 12.753C95.3224 13.6635 95.5777 14.7986 96.2441 15.9492C96.9105 17.0997 97.9082 18.1279 99.0534 18.8444C99.4348 19.0831 99.8216 19.28 100.203 19.4296C100.273 19.457 100.324 19.4272 100.318 19.3631C100.312 19.299 100.25 19.2248 100.181 19.1975C99.8215 19.0566 99.4571 18.8711 99.0976 18.6461C98.019 17.9713 97.0793 17.0029 96.4517 15.9193C95.8241 14.8357 95.5836 13.7666 95.7747 12.909C95.9657 12.0514 96.5653 11.5079 97.4631 11.3787C98.3609 11.2495 99.4494 11.5499 100.528 12.2248C101.607 12.8996 102.546 13.8681 103.174 14.9516C103.802 16.0352 104.042 17.1043 103.851 17.9619C103.66 18.8195 103.06 19.363 102.162 19.4922C101.728 19.5547 101.25 19.5179 100.742 19.3827C100.674 19.3646 100.631 19.4044 100.647 19.4717C100.663 19.539 100.731 19.6082 100.799 19.6263C101.339 19.7699 101.847 19.8091 102.308 19.7428C103.261 19.6056 103.897 19.0285 104.1 18.118C104.303 17.2074 104.048 16.0723 103.381 14.9218Z" fill="white"/>
<path d="M103.381 14.9218C102.715 13.7712 101.717 12.743 100.572 12.0265C99.4269 11.31 98.2713 10.9909 97.318 11.1281C96.3648 11.2654 95.7281 11.8424 95.5253 12.753C95.3224 13.6635 95.5777 14.7986 96.2441 15.9492C96.9105 17.0997 97.9082 18.1279 99.0534 18.8444C99.4348 19.0831 99.8216 19.28 100.203 19.4296C100.273 19.457 100.324 19.4272 100.318 19.3631C100.312 19.299 100.25 19.2248 100.181 19.1975C99.8215 19.0566 99.4571 18.8711 99.0976 18.6461C98.019 17.9713 97.0793 17.0029 96.4517 15.9193C95.8241 14.8357 95.5836 13.7666 95.7747 12.909C95.9657 12.0514 96.5653 11.5079 97.4631 11.3787C98.3609 11.2495 99.4494 11.5499 100.528 12.2248C101.607 12.8996 102.546 13.8681 103.174 14.9516C103.802 16.0352 104.042 17.1043 103.851 17.9619C103.66 18.8195 103.06 19.363 102.162 19.4922C101.728 19.5547 101.25 19.5179 100.742 19.3827C100.674 19.3646 100.631 19.4044 100.647 19.4717C100.663 19.539 100.731 19.6082 100.799 19.6263C101.339 19.7699 101.847 19.8091 102.308 19.7428C103.261 19.6056 103.897 19.0285 104.1 18.118C104.303 17.2074 104.048 16.0723 103.381 14.9218Z" fill="white"/>
<path d="M97.476 11.9872C97.4281 11.9199 97.348 11.88 97.297 11.898C96.7138 12.1039 96.3318 12.5436 96.1924 13.1695C95.8386 14.7577 97.1758 17.0664 99.1733 18.3161C101.171 19.5658 103.084 19.2905 103.437 17.7023C103.791 16.1142 102.454 13.8054 100.456 12.5557C99.5199 11.9697 98.5673 11.6977 97.7743 11.7897C97.7162 11.7965 97.7005 11.8582 97.7393 11.9275C97.7781 11.9968 97.8567 12.0476 97.9149 12.0409C98.6534 11.9552 99.5403 12.2084 100.412 12.754C102.272 13.9177 103.517 16.0675 103.188 17.5463C102.858 19.0251 101.077 19.2815 99.2174 18.1178C97.3575 16.9542 96.1124 14.8043 96.4418 13.3255C96.5716 12.7428 96.9272 12.3334 97.4702 12.1417C97.5212 12.1237 97.5238 12.0545 97.476 11.9872Z" fill="white"/>
<path d="M97.476 11.9872C97.4281 11.9199 97.348 11.88 97.297 11.898C96.7138 12.1039 96.3318 12.5436 96.1924 13.1695C95.8386 14.7577 97.1758 17.0664 99.1733 18.3161C101.171 19.5658 103.084 19.2905 103.437 17.7023C103.791 16.1142 102.454 13.8054 100.456 12.5557C99.5199 11.9697 98.5673 11.6977 97.7743 11.7897C97.7162 11.7965 97.7005 11.8582 97.7393 11.9275C97.7781 11.9968 97.8567 12.0476 97.9149 12.0409C98.6534 11.9552 99.5403 12.2084 100.412 12.754C102.272 13.9177 103.517 16.0675 103.188 17.5463C102.858 19.0251 101.077 19.2815 99.2174 18.1178C97.3575 16.9542 96.1124 14.8043 96.4418 13.3255C96.5716 12.7428 96.9272 12.3334 97.4702 12.1417C97.5212 12.1237 97.5238 12.0545 97.476 11.9872Z" fill="white"/>
<path d="M97.6208 15.4429C97.6715 15.5482 97.7602 15.646 97.8643 15.7111L100.197 17.1705C100.506 17.3638 100.828 17.4688 101.103 17.4663C101.378 17.4637 101.597 17.3537 101.718 17.1564L102.103 16.5294C102.252 16.2874 102.231 15.9285 102.047 15.5449C101.862 15.1613 101.539 14.8052 101.16 14.568L99.133 13.2999C98.9724 13.1994 98.8163 13.2009 98.7533 13.3034L98.3382 13.9793L97.7926 13.6379C97.6665 13.559 97.5419 13.5585 97.4896 13.6366L97.2887 13.9369C97.2591 13.9812 97.2616 14.048 97.2956 14.1203C97.3296 14.1925 97.39 14.2596 97.4615 14.3043L97.9507 14.6104L97.6054 15.1726C97.5645 15.2391 97.5702 15.3376 97.6208 15.4429ZM97.7208 13.8361C97.7256 13.829 97.7369 13.829 97.7484 13.8362L100.038 15.269L99.8475 15.5542C99.8428 15.5613 99.8315 15.5612 99.82 15.5541L97.53 14.1213L97.7208 13.8361ZM98.939 15.2288L99.7758 15.7523C99.9019 15.8312 100.026 15.8318 100.079 15.7537L100.28 15.4533C100.309 15.4091 100.307 15.3422 100.273 15.27C100.239 15.1977 100.178 15.1306 100.107 15.0859L99.3266 14.5977L99.461 14.3788L100.98 15.3291C101.069 15.3846 101.143 15.4645 101.185 15.5484C101.228 15.6358 101.233 15.7175 101.2 15.7727L100.815 16.3996C100.74 16.5203 100.557 16.522 100.368 16.4037L98.8143 15.4319L98.939 15.2288ZM98.6834 15.0689L98.5358 15.3092C98.5169 15.34 98.5196 15.3856 98.543 15.4344C98.5665 15.4832 98.6076 15.5285 98.6559 15.5587L100.323 16.602C100.63 16.7938 100.928 16.7911 101.048 16.5953L101.433 15.9684C101.498 15.8637 101.487 15.7084 101.405 15.5424C101.326 15.3831 101.188 15.233 101.024 15.1308L99.432 14.1347C99.3576 14.0881 99.2853 14.0888 99.2561 14.1363L99.071 14.4378L98.5938 14.1392L98.9869 13.4991C99.0038 13.4716 99.0457 13.4713 99.0888 13.4982L101.116 14.7663C101.419 14.9559 101.677 15.2404 101.824 15.547C101.972 15.8535 101.988 16.1403 101.869 16.3337L101.484 16.9607C101.385 17.1219 101.207 17.2119 100.982 17.214C100.757 17.216 100.494 17.1302 100.241 16.9722L97.9085 15.5128C97.8702 15.4889 97.8511 15.4575 97.8432 15.4409C97.8352 15.4243 97.824 15.3928 97.839 15.3684L98.2063 14.7703L98.6834 15.0689L98.6834 15.0689Z" fill="white"/>
<path d="M97.6208 15.4429C97.6715 15.5482 97.7602 15.646 97.8643 15.7111L100.197 17.1705C100.506 17.3638 100.828 17.4688 101.103 17.4663C101.378 17.4637 101.597 17.3537 101.718 17.1564L102.103 16.5294C102.252 16.2874 102.231 15.9285 102.047 15.5449C101.862 15.1613 101.539 14.8052 101.16 14.568L99.133 13.2999C98.9724 13.1994 98.8163 13.2009 98.7533 13.3034L98.3382 13.9793L97.7926 13.6379C97.6665 13.559 97.5419 13.5585 97.4896 13.6366L97.2887 13.9369C97.2591 13.9812 97.2616 14.048 97.2956 14.1203C97.3296 14.1925 97.39 14.2596 97.4615 14.3043L97.9507 14.6104L97.6054 15.1726C97.5645 15.2391 97.5702 15.3376 97.6208 15.4429ZM97.7208 13.8361C97.7256 13.829 97.7369 13.829 97.7484 13.8362L100.038 15.269L99.8475 15.5542C99.8428 15.5613 99.8315 15.5612 99.82 15.5541L97.53 14.1213L97.7208 13.8361ZM98.939 15.2288L99.7758 15.7523C99.9019 15.8312 100.026 15.8318 100.079 15.7537L100.28 15.4533C100.309 15.4091 100.307 15.3422 100.273 15.27C100.239 15.1977 100.178 15.1306 100.107 15.0859L99.3266 14.5977L99.461 14.3788L100.98 15.3291C101.069 15.3846 101.143 15.4645 101.185 15.5484C101.228 15.6358 101.233 15.7175 101.2 15.7727L100.815 16.3996C100.74 16.5203 100.557 16.522 100.368 16.4037L98.8143 15.4319L98.939 15.2288ZM98.6834 15.0689L98.5358 15.3092C98.5169 15.34 98.5196 15.3856 98.543 15.4344C98.5665 15.4832 98.6076 15.5285 98.6559 15.5587L100.323 16.602C100.63 16.7938 100.928 16.7911 101.048 16.5953L101.433 15.9684C101.498 15.8637 101.487 15.7084 101.405 15.5424C101.326 15.3831 101.188 15.233 101.024 15.1308L99.432 14.1347C99.3576 14.0881 99.2853 14.0888 99.2561 14.1363L99.071 14.4378L98.5938 14.1392L98.9869 13.4991C99.0038 13.4716 99.0457 13.4713 99.0888 13.4982L101.116 14.7663C101.419 14.9559 101.677 15.2404 101.824 15.547C101.972 15.8535 101.988 16.1403 101.869 16.3337L101.484 16.9607C101.385 17.1219 101.207 17.2119 100.982 17.214C100.757 17.216 100.494 17.1302 100.241 16.9722L97.9085 15.5128C97.8702 15.4889 97.8511 15.4575 97.8432 15.4409C97.8352 15.4243 97.824 15.3928 97.839 15.3684L98.2063 14.7703L98.6834 15.0689L98.6834 15.0689Z" fill="white"/>
</g>
<g clip-path="url(#clip4)">
<path d="M13.8773 84.6905C13.6373 83.5621 13.1579 82.5551 12.5275 81.8551C11.8971 81.1552 11.1912 80.846 10.5397 80.9846C9.88824 81.1232 9.36924 81.6929 9.07832 82.5888C8.7874 83.4847 8.75938 84.5996 8.9994 85.7281C9.23944 86.8566 9.71881 87.8636 10.3492 88.5635C10.5592 88.7966 10.7798 88.9887 11.005 89.1343C11.0462 89.161 11.0853 89.1315 11.0923 89.0685C11.0993 89.0055 11.0716 88.9328 11.0305 88.9063C10.8183 88.7691 10.6104 88.5881 10.4125 88.3684C9.81883 87.7092 9.36735 86.7608 9.14127 85.6979C8.91519 84.6351 8.9416 83.585 9.2156 82.7412C9.48959 81.8974 9.9784 81.3608 10.592 81.2303C11.2056 81.0998 11.8704 81.391 12.4642 82.0502C13.0579 82.7095 13.5094 83.6579 13.7354 84.7207C13.9615 85.7835 13.9351 86.8336 13.6611 87.6774C13.3871 88.5212 12.8983 89.0578 12.2847 89.1883C11.988 89.2514 11.6796 89.217 11.3681 89.0861C11.3263 89.0686 11.2915 89.1079 11.2903 89.174C11.2891 89.2401 11.322 89.3079 11.3637 89.3254C11.6947 89.4645 12.0221 89.501 12.337 89.4341C12.9885 89.2955 13.5075 88.7258 13.7984 87.8298C14.0893 86.9339 14.1173 85.819 13.8773 84.6905Z" fill="white"/>
<path d="M10.4946 81.8283C10.4748 81.7623 10.4289 81.7234 10.3922 81.7413C9.97252 81.946 9.645 82.3797 9.44501 82.9955C8.93761 84.5582 9.41929 86.8227 10.5188 88.0435C11.6182 89.2643 12.9255 88.9862 13.4329 87.4236C13.9404 85.861 13.4587 83.5965 12.3592 82.3757C11.8437 81.8032 11.2634 81.5395 10.7252 81.633C10.6858 81.6399 10.6648 81.7006 10.6784 81.7686C10.6919 81.8366 10.7349 81.8862 10.7744 81.8793C11.2755 81.7923 11.8159 82.0378 12.2958 82.5708C13.3196 83.7075 13.7681 85.8161 13.2957 87.2712C12.8232 88.7262 11.6059 88.9852 10.5821 87.8484C9.55834 86.7116 9.10982 84.603 9.58229 83.148C9.76848 82.5746 10.0734 82.1708 10.4641 81.9802C10.5008 81.9623 10.5145 81.8943 10.4946 81.8283Z" fill="white"/>
<path d="M9.99238 85.225C10.0075 85.3283 10.0491 85.4241 10.1064 85.4877L11.3903 86.9133C11.5604 87.1022 11.7541 87.2042 11.936 87.2006C12.1178 87.1971 12.2806 87.088 12.3945 86.8937L12.7564 86.2758C12.8961 86.0373 12.9446 85.6845 12.8894 85.3082C12.8342 84.9318 12.6829 84.583 12.4742 84.3512L11.3585 83.1124C11.2701 83.0143 11.1671 83.0163 11.1079 83.1174L10.7177 83.7834L10.4174 83.4499C10.348 83.3728 10.266 83.3728 10.2181 83.4498L10.0339 83.7458C10.0067 83.7894 9.99684 83.8551 10.0067 83.926C10.0166 83.9969 10.0448 84.0626 10.0842 84.1063L10.3535 84.4053L10.0289 84.9593C9.99054 85.0248 9.97722 85.1217 9.99238 85.225ZM10.3359 83.645C10.3403 83.638 10.3477 83.638 10.354 83.645L11.6145 85.0447L11.4396 85.3258C11.4352 85.3328 11.4278 85.3328 11.4215 85.3258L10.1609 83.9261L10.3359 83.645ZM10.8975 85.0094L11.3581 85.5209C11.4275 85.5979 11.5094 85.598 11.5574 85.521L11.7416 85.225C11.7688 85.1813 11.7786 85.1157 11.7687 85.0447C11.7589 84.9738 11.7306 84.9081 11.6913 84.8645L11.2618 84.3875L11.3881 84.1718L12.2242 85.1001C12.2731 85.1544 12.3084 85.2326 12.3212 85.3149C12.3346 85.4007 12.324 85.481 12.2922 85.5353L11.9303 86.1532C11.8606 86.2721 11.7393 86.2745 11.6353 86.1589L10.7802 85.2096L10.8975 85.0094ZM10.7568 84.8532L10.6181 85.09C10.6003 85.1203 10.5941 85.1652 10.6012 85.2131C10.6082 85.261 10.6275 85.3053 10.654 85.3348L11.5719 86.3541C11.7407 86.5414 11.9374 86.5376 12.0504 86.3447L12.4123 85.7269C12.4727 85.6237 12.4928 85.4711 12.4675 85.3082C12.4431 85.1518 12.3775 85.0049 12.2876 84.905L11.4112 83.9319C11.3703 83.8864 11.3225 83.8874 11.2951 83.9342L11.1211 84.2313L10.8584 83.9396L11.2279 83.3089C11.2438 83.2818 11.2714 83.2812 11.2951 83.3075L12.4108 84.5464C12.5776 84.7315 12.6986 85.0103 12.7427 85.3111C12.7868 85.6118 12.748 85.8937 12.6363 86.0843L12.2744 86.7022C12.1814 86.8611 12.0483 86.9502 11.8997 86.9531C11.7511 86.956 11.5927 86.8726 11.4537 86.7183L10.1697 85.2926C10.1487 85.2693 10.1415 85.2384 10.1391 85.2222C10.1368 85.2058 10.1349 85.1749 10.1489 85.1509L10.4941 84.5616L10.7568 84.8532L10.7568 84.8532Z" fill="white"/>
</g>
<g clip-path="url(#clip5)">
<path d="M105.831 52.5185L106.322 51.7353C106.547 51.3749 106.568 50.7782 106.369 50.4027C106.169 50.0271 105.825 50.0149 105.6 50.3753L105.11 51.1585C105.064 51.2306 105.06 51.35 105.1 51.4251L105.678 52.513C105.717 52.5882 105.786 52.5906 105.831 52.5185ZM105.336 51.3L105.744 50.6473C105.879 50.4311 106.086 50.4384 106.206 50.6637C106.325 50.8891 106.312 51.2471 106.177 51.4633L105.769 52.116L105.336 51.3Z" fill="white"/>
<path d="M106.92 50.6322C106.908 50.5377 106.891 50.4455 106.87 50.3566C106.667 49.5022 106.095 49.1227 105.592 49.5089L105.411 49.1676C105.371 49.0925 105.302 49.09 105.257 49.1621L104.931 49.6842C104.886 49.7563 104.881 49.8757 104.921 49.9508L105.066 50.2228L104.902 50.4838L104.758 50.2118C104.718 50.1367 104.649 50.1343 104.604 50.2064L104.277 50.7285C104.232 50.8006 104.228 50.9199 104.268 50.995L104.412 51.267L104.249 51.5281C104.204 51.6002 104.2 51.7195 104.239 51.7946L104.528 52.3386C104.568 52.4137 104.637 52.4161 104.682 52.3441L104.845 52.083L106.145 54.531L105.982 54.792C105.937 54.8641 105.932 54.9835 105.972 55.0586L106.261 55.6026C106.301 55.6777 106.37 55.6801 106.415 55.608L106.578 55.347L106.723 55.619C106.763 55.6941 106.831 55.6965 106.877 55.6244L107.203 55.1023C107.248 55.0302 107.253 54.9109 107.213 54.8358L107.068 54.5638L107.232 54.3027L107.376 54.5747C107.416 54.6498 107.485 54.6523 107.53 54.5802L107.857 54.058C107.902 53.986 107.906 53.8666 107.866 53.7915L107.722 53.5195C107.972 53.1187 108.092 52.533 108.041 51.9657C107.957 51.0466 107.455 50.4496 106.92 50.6322ZM107.577 53.2475L107.496 53.378C107.45 53.4501 107.446 53.5695 107.486 53.6446L107.63 53.9166L107.467 54.1776L107.323 53.9056C107.283 53.8305 107.214 53.8281 107.169 53.9002L106.842 54.4223C106.797 54.4944 106.793 54.6137 106.833 54.6888L106.977 54.9608L106.814 55.2219L106.669 54.9499C106.63 54.8748 106.561 54.8723 106.516 54.9444L106.352 55.2055L106.208 54.9335L106.371 54.6724C106.416 54.6003 106.42 54.481 106.381 54.4059L104.937 51.6859C104.897 51.6108 104.828 51.6084 104.783 51.6805L104.619 51.9415L104.475 51.6695L104.638 51.4085C104.683 51.3364 104.688 51.217 104.648 51.1419L104.503 50.8699L104.667 50.6089L104.811 50.8809C104.851 50.956 104.92 50.9584 104.965 50.8863L105.292 50.3642C105.337 50.2921 105.341 50.1728 105.301 50.0977L105.157 49.8257L105.32 49.5646L105.483 49.8706C105.515 49.9326 105.569 49.9465 105.614 49.9044C105.702 49.8206 105.798 49.7666 105.896 49.7452C106.316 49.6541 106.685 50.1664 106.721 50.8895C106.721 50.9017 106.723 50.9138 106.725 50.9255C106.741 51.0243 106.802 51.0775 106.86 51.0445C107.143 50.883 107.448 51.0143 107.643 51.3818C107.922 51.9073 107.893 52.7426 107.577 53.2475Z" fill="white"/>
<path d="M106.711 51.6158L105.976 52.7906C105.931 52.8627 105.926 52.982 105.966 53.0571L106.544 54.1451C106.584 54.2202 106.653 54.2227 106.698 54.1506L107.433 52.9758C107.658 52.6154 107.679 52.0187 107.48 51.6432C107.281 51.2676 106.936 51.2554 106.711 51.6158ZM107.288 52.7038L106.635 53.7481L106.202 52.9321L106.855 51.8878C106.99 51.6715 107.197 51.6789 107.317 51.9042C107.436 52.1296 107.424 52.4875 107.288 52.7038Z" fill="white"/>
<path d="M104.146 47.9217C102.793 50.0844 102.666 53.6643 103.862 55.9176C105.058 58.1709 107.125 58.2443 108.478 56.0816C109.829 53.9173 109.956 50.3404 108.762 48.0857C107.566 45.8324 105.499 45.759 104.146 47.9217ZM108.333 55.8096C107.07 57.8281 105.142 57.7596 104.025 55.6565C102.909 53.5535 103.027 50.2122 104.29 48.1937C105.554 46.1785 107.481 46.247 108.599 48.3468C109.715 50.4498 109.596 53.7911 108.333 55.8096Z" fill="white"/>
<path d="M104.435 48.466C103.262 50.3404 103.152 53.443 104.189 55.3958C105.225 57.3487 107.017 57.4123 108.189 55.5379C109.36 53.6622 109.47 50.5622 108.435 48.6082C107.399 46.6553 105.608 46.5917 104.435 48.466ZM108.045 55.2659C106.962 56.9961 105.309 56.9374 104.352 55.1348C103.395 53.3321 103.497 50.4682 104.579 48.738C105.662 47.0108 107.314 47.0695 108.272 48.8692C109.229 50.6719 109.127 53.5358 108.045 55.2659Z" fill="white"/>
</g>
<g clip-path="url(#clip6)">
<path d="M43.4541 109.65C43.2571 109.784 42.8046 109.522 42.8263 109.285C42.812 109.093 43.0877 109.027 43.3125 109.162C43.5436 109.291 43.6259 109.564 43.4541 109.65ZM46.084 109.237C45.9567 109.303 45.6952 109.185 45.6351 109.032C45.5359 108.867 45.7009 108.734 45.8992 108.804C46.1465 108.866 46.2754 109.174 46.084 109.237ZM40.2072 109.1C40.4642 109.114 40.6743 109.455 40.474 109.537C40.3316 109.626 40.0901 109.486 39.9862 109.332C39.9585 109.198 40.0216 109.071 40.2072 109.1ZM44.9294 108.216C44.7423 108.378 44.2601 108.178 44.1647 107.904C44.0414 107.629 44.3686 107.449 44.6904 107.622C44.9847 107.756 45.1179 108.092 44.9294 108.216ZM40.8683 108.27C40.8861 108.545 40.4185 108.578 40.1554 108.324C39.9228 108.127 39.958 107.866 40.1568 107.785C40.44 107.717 40.883 108.001 40.8683 108.27ZM42.8026 107.661C42.9205 107.891 42.7715 108.076 42.5343 108.105C42.3572 108.084 42.1491 108.031 42.006 107.888C41.7749 107.692 41.751 107.407 41.9393 107.302C42.0198 107.242 42.1568 107.256 42.2769 107.256C42.4949 107.325 42.7224 107.471 42.8026 107.661ZM46.7438 107.106C46.5709 107.25 46.1298 107.028 46.1043 106.791C46.0538 106.588 46.3141 106.49 46.5501 106.609C46.7937 106.719 46.9086 107.01 46.7438 107.106ZM37.9201 107.574C37.7881 107.725 37.3739 107.582 37.2839 107.351C37.1662 107.144 37.3762 106.971 37.6305 107.068C37.896 107.145 38.0707 107.449 37.9201 107.574ZM41.272 106.97C40.9919 107.095 40.5314 106.988 40.2082 106.731C39.7947 106.419 39.6805 105.915 39.9764 105.708C40.2695 105.465 40.9521 105.621 41.3025 106.017C41.652 106.37 41.6313 106.835 41.272 106.97ZM43.212 106.831C42.9203 107.007 42.3571 106.902 42.0093 106.573C41.6344 106.254 41.5676 105.786 41.8584 105.596C42.1391 105.384 42.7425 105.501 43.1014 105.846C43.4765 106.178 43.5274 106.652 43.212 106.831ZM44.8726 106.127C44.951 106.342 44.7956 106.493 44.576 106.519C44.3185 106.505 44.0384 106.346 43.9013 106.126C43.8078 105.905 43.89 105.681 44.1501 105.669C44.4245 105.631 44.8017 105.873 44.8726 106.127ZM39.2424 106.754C39.0256 106.922 38.5077 106.721 38.3702 106.419C38.1906 106.1 38.5285 105.851 38.9138 106.023C39.2948 106.163 39.4906 106.604 39.2424 106.754ZM43.3067 105.382C43.0062 105.485 42.5421 105.361 42.2332 105.088C41.9073 104.813 41.7855 104.415 41.9675 104.191C42.1817 103.866 42.9193 103.953 43.3227 104.36C43.7378 104.73 43.7211 105.257 43.3067 105.382ZM39.5942 105.581C39.3036 105.684 38.8548 105.589 38.54 105.327C38.148 105.028 38.0295 104.558 38.2819 104.339C38.535 104.087 39.168 104.179 39.5529 104.532C39.9872 104.896 40.005 105.441 39.5942 105.581ZM45.3346 104.912C45.0886 105.028 44.6144 104.753 44.6031 104.484C44.5568 104.24 44.8894 104.132 45.1722 104.298C45.4828 104.452 45.5826 104.826 45.3346 104.912ZM37.1203 104.956C37.2385 105.175 37.1562 105.379 36.9108 105.404C36.6937 105.386 36.4234 105.25 36.3407 105.052C36.1918 104.792 36.4544 104.595 36.764 104.705C36.9069 104.752 37.02 104.856 37.1203 104.956ZM46.7257 104.706C46.5824 104.786 46.2931 104.659 46.2453 104.48C46.1547 104.278 46.4468 104.184 46.6519 104.345C46.8174 104.456 46.8428 104.639 46.7257 104.706ZM35.4984 105.305C35.4129 105.391 35.183 105.345 35.0678 105.216C34.9119 105.077 34.9684 104.872 35.1606 104.887C35.4031 104.853 35.6573 105.194 35.4984 105.305ZM41.6199 103.992C41.2058 104.126 40.5273 103.803 40.3085 103.37C40.0599 102.935 40.3626 102.522 40.8927 102.597C41.2902 102.631 41.7409 102.936 41.8965 103.272C42.0578 103.593 41.9363 103.906 41.6199 103.992ZM39.7644 104.091C39.3482 104.236 38.6516 103.907 38.4383 103.464C38.1992 103.036 38.493 102.637 39.0051 102.697C39.4727 102.725 40.016 103.142 40.0844 103.533C40.15 103.793 40.0151 104.014 39.7644 104.091ZM43.21 103.636C42.906 103.704 42.4332 103.391 42.4269 103.104C42.3753 102.8 42.8196 102.694 43.1555 102.926C43.5237 103.147 43.5496 103.585 43.21 103.636ZM37.7606 103.911C37.5221 104.036 37.0483 103.828 36.9284 103.541C36.7598 103.228 37.0965 102.988 37.475 103.156C37.8823 103.303 38.0649 103.791 37.7606 103.911ZM35.5569 102.624C35.7676 102.81 35.6859 103.075 35.4303 103.052C35.3128 103.06 35.1883 102.981 35.0775 102.915C35.0051 102.802 34.9113 102.668 34.9729 102.575C35.035 102.405 35.3823 102.434 35.5569 102.624ZM44.4555 102.52C44.2994 102.664 43.8808 102.483 43.8145 102.248C43.7383 102.041 43.9691 101.907 44.2182 102.014C44.4758 102.11 44.619 102.412 44.4555 102.52ZM39.8486 102.321C39.615 102.452 39.131 102.244 39.0152 101.956C38.8352 101.639 39.1841 101.395 39.5637 101.571C39.9615 101.718 40.1491 102.202 39.8486 102.321ZM41.6705 101.788C41.4809 101.918 41.0476 101.734 40.9461 101.484C40.8367 101.281 40.9722 101.095 41.212 101.113C41.3999 101.107 41.596 101.25 41.7267 101.389C41.801 101.544 41.8159 101.721 41.6705 101.788ZM37.5484 102.003C37.364 102.157 36.9005 101.974 36.7919 101.707C36.6467 101.429 36.9673 101.23 37.2958 101.4C37.5969 101.531 37.7405 101.876 37.5484 102.003ZM36.0397 100.454C36.2298 100.601 36.1888 100.794 36.0222 100.838C35.8606 100.819 35.6543 100.728 35.6087 100.572C35.5264 100.363 35.8342 100.281 36.0397 100.454ZM41.7941 100.286C41.8097 100.41 41.7608 100.537 41.5849 100.514C41.3442 100.511 41.1177 100.2 41.2734 100.092C41.4017 99.9715 41.6905 100.112 41.7941 100.286ZM38.9803 100.292C39.0256 100.474 38.809 100.576 38.5896 100.489C38.4544 100.451 38.3645 100.339 38.2872 100.244C38.2776 100.193 38.2664 100.142 38.255 100.091C38.288 100.013 38.341 99.9333 38.4593 99.9298C38.6652 99.8954 38.9711 100.105 38.9803 100.292Z" fill="white"/>
</g>
<g clip-path="url(#clip7)">
<path d="M73.6788 40.784C73.5397 40.5739 73.8184 40.1315 74.0676 40.1704C74.2692 40.1694 74.3363 40.4549 74.193 40.6743C74.0561 40.9006 73.7676 40.965 73.6788 40.784ZM74.0937 43.492C74.0255 43.3577 74.1511 43.0997 74.3127 43.0492C74.4864 42.9599 74.6258 43.1375 74.5505 43.3345C74.4835 43.5819 74.1589 43.6914 74.0937 43.492ZM74.2808 37.5157C74.2647 37.7766 73.9041 37.9663 73.8197 37.7565C73.727 37.6052 73.8764 37.3691 74.0383 37.2742C74.1795 37.2555 74.313 37.3287 74.2808 37.5157ZM75.1752 42.3883C75.0066 42.1862 75.221 41.7093 75.5094 41.6316C75.7994 41.5255 75.9866 41.8715 75.8021 42.187C75.6592 42.4773 75.3051 42.5891 75.1752 42.3883ZM75.1485 38.2479C74.8593 38.2465 74.8279 37.7679 75.0976 37.518C75.3061 37.295 75.58 37.3494 75.6643 37.5576C75.7337 37.851 75.432 38.282 75.1485 38.2479ZM75.7755 40.2614C75.5319 40.3651 75.3389 40.2003 75.3105 39.9567C75.3334 39.7777 75.3904 39.5695 75.542 39.4339C75.7497 39.2124 76.0498 39.2082 76.1593 39.4076C76.2213 39.4938 76.2061 39.6324 76.2051 39.7547C76.1308 39.9718 75.9754 40.1931 75.7755 40.2614ZM76.3291 44.3151C76.179 44.1288 76.4163 43.6953 76.6654 43.6861C76.8796 43.6491 76.9802 43.9211 76.8534 44.1531C76.7356 44.3934 76.4297 44.4899 76.3291 44.3151ZM75.9027 35.2944C75.7445 35.1492 75.8987 34.7375 76.1412 34.6621C76.3606 34.557 76.5405 34.7831 76.4369 35.0353C76.3536 35.3002 76.0332 35.4566 75.9027 35.2944ZM76.5127 38.7513C76.3833 38.4571 76.4998 37.9957 76.7718 37.6847C77.1036 37.2857 77.6336 37.205 77.8497 37.5212C78.1025 37.8369 77.9332 38.5211 77.5145 38.85C77.1413 39.181 76.6523 39.1269 76.5127 38.7513ZM76.6447 40.7372C76.4618 40.4276 76.5763 39.8614 76.9253 39.5305C77.2633 39.1712 77.7558 39.1364 77.9537 39.4461C78.1739 39.747 78.0464 40.3532 77.6814 40.6944C77.3298 41.053 76.8302 41.0712 76.6447 40.7372ZM77.3729 42.4786C77.1463 42.5432 76.9889 42.3742 76.9628 42.1487C76.9788 41.8873 77.1488 41.6134 77.3813 41.4893C77.6136 41.4097 77.8489 41.5093 77.86 41.7751C77.897 42.0573 77.6407 42.4244 77.3729 42.4786ZM76.7554 36.6994C76.58 36.4667 76.7951 35.9534 77.114 35.8347C77.4502 35.6744 77.7096 36.0362 77.5259 36.4165C77.3758 36.7947 76.9108 36.9628 76.7554 36.6994ZM78.1672 40.9364C78.0615 40.623 78.1953 40.1591 78.485 39.8638C78.7759 39.5513 79.1959 39.4556 79.4296 39.6567C79.7698 39.898 79.6729 40.6431 79.2423 41.0252C78.8496 41.4218 78.2958 41.3674 78.1672 40.9364ZM77.9863 37.1409C77.8801 36.8376 77.9826 36.3872 78.2609 36.0851C78.5777 35.707 79.0726 35.6196 79.3012 35.8923C79.5646 36.1679 79.4633 36.8062 79.089 37.1732C78.7035 37.5898 78.1301 37.5692 77.9863 37.1409ZM78.6463 43.0353C78.5262 42.7765 78.8192 42.313 79.1024 42.3206C79.3588 42.2906 79.4704 42.6371 79.2934 42.9134C79.1294 43.2188 78.7359 43.2941 78.6463 43.0353ZM78.6617 34.6654C78.4302 34.7702 78.2162 34.6719 78.1912 34.4201C78.2118 34.2003 78.3569 33.9346 78.5663 33.8645C78.841 33.7312 79.0453 34.0127 78.9278 34.3202C78.8775 34.4624 78.7675 34.5703 78.6617 34.6654ZM78.8527 44.4669C78.7706 44.3153 78.9059 44.0295 79.0949 43.9936C79.307 43.9156 79.4044 44.2198 79.2334 44.4173C79.1157 44.578 78.9231 44.5909 78.8527 44.4669ZM78.3064 32.9885C78.216 32.8953 78.2669 32.6645 78.403 32.5562C78.5502 32.4074 78.765 32.4794 78.7481 32.6741C78.7821 32.9236 78.4217 33.1582 78.3064 32.9885ZM79.6415 39.3169C79.5036 38.8855 79.8488 38.2173 80.3048 38.0252C80.7644 37.8028 81.1971 38.1405 81.1138 38.6751C81.0752 39.0776 80.7516 39.515 80.3967 39.6496C80.058 39.7911 79.73 39.6452 79.6415 39.3169ZM79.5509 37.4199C79.4023 36.9857 79.7533 36.2994 80.2204 36.1136C80.6717 35.9003 81.0899 36.2279 81.0228 36.7453C80.9901 37.2196 80.5468 37.7434 80.1353 37.7854C79.8621 37.8337 79.6308 37.6807 79.5509 37.4199ZM80.0045 40.9617C79.9355 40.6473 80.2678 40.1878 80.5697 40.2018C80.8892 40.1708 80.998 40.6309 80.7512 40.9566C80.5163 41.3159 80.0557 41.3113 80.0045 40.9617ZM79.7556 35.3916C79.6252 35.1398 79.8479 34.672 80.1501 34.5702C80.481 34.4207 80.7311 34.7806 80.5515 35.1542C80.3934 35.5586 79.8793 35.7101 79.7556 35.3916ZM81.1248 33.2382C80.9278 33.4397 80.6493 33.3376 80.6753 33.0789C80.6677 32.9586 80.7519 32.8374 80.8222 32.7292C80.9415 32.6636 81.0834 32.5775 81.181 32.6469C81.3591 32.7222 81.3259 33.0738 81.1248 33.2382ZM81.1686 42.3095C81.018 42.1402 81.2112 41.7267 81.4593 41.6759C81.6779 41.613 81.8161 41.8575 81.702 42.1036C81.5999 42.3592 81.2809 42.4837 81.1686 42.3095ZM81.4115 37.6311C81.2761 37.3839 81.4977 36.9056 81.8021 36.8081C82.1359 36.6472 82.3899 37.0199 82.2026 37.3942C82.0452 37.7889 81.5347 37.9456 81.4115 37.6311ZM81.9583 39.5246C81.8231 39.3223 82.02 38.894 82.2833 38.8083C82.4983 38.7113 82.6926 38.8625 82.6716 39.1055C82.6768 39.2974 82.5249 39.4869 82.3777 39.6101C82.214 39.6748 82.0285 39.6775 81.9583 39.5246ZM81.7632 35.3108C81.602 35.1119 81.7984 34.6529 82.0801 34.5612C82.3729 34.433 82.5804 34.7737 82.3993 35.0962C82.2595 35.3937 81.8953 35.5154 81.7632 35.3108ZM83.4034 33.8839C83.2466 34.067 83.0448 34.0116 82.9989 33.8387C83.0202 33.6756 83.1179 33.4719 83.2817 33.4364C83.5023 33.3675 83.5861 33.6868 83.4034 33.8839ZM83.537 39.757C83.4063 39.7642 83.2733 39.7053 83.299 39.5278C83.3034 39.2828 83.6325 39.0741 83.7448 39.2404C83.8708 39.3796 83.7207 39.6639 83.537 39.757ZM83.5521 36.8906C83.3598 36.9238 83.2547 36.6959 83.3474 36.4786C83.388 36.3436 83.5063 36.26 83.6069 36.188C83.6607 36.1819 83.7146 36.174 83.7683 36.166C83.8504 36.2052 83.9335 36.2648 83.9363 36.3855C83.9709 36.5977 83.7481 36.8944 83.5521 36.8906Z" fill="white"/>
</g>
<g clip-path="url(#clip8)">
<path d="M85.7015 88.3777L85.6984 88.3728L83.9591 87.0495L85.3164 83.8052L85.3204 83.7957L85.331 83.7181L84.7843 80.8853C84.7841 80.8771 84.7823 80.8697 84.7789 80.8634L84.78 80.8557L84.7574 80.8357C84.7523 80.8225 84.7412 80.8141 84.7265 80.8123L82.4362 79.572L82.4226 79.5647L79.1979 80.4065C79.179 80.4114 79.1743 80.4156 79.1299 80.4554C79.1087 80.4744 79.0777 80.5024 79.0383 80.538C78.964 80.6052 78.8549 80.704 78.7144 80.8316C78.4776 81.0464 78.148 81.3458 77.7343 81.7215C77.0305 82.3611 76.3184 83.0088 76.3113 83.0153L76.3072 83.019L76.2514 83.0819L76.2466 83.1169L74.8514 86.445L74.8474 86.4546L74.8367 86.5325L75.3926 89.3598L75.3925 89.3604C75.3908 89.3709 75.3911 89.3808 75.3935 89.3895C75.3959 89.3983 75.4003 89.4056 75.4064 89.4112L75.4299 89.4321L77.7165 90.6528C77.7203 90.6606 77.7263 90.6664 77.7342 90.6697C77.742 90.673 77.7514 90.6737 77.7614 90.6718C77.7722 90.6754 77.7848 90.6754 77.798 90.672L80.9974 89.8369L81.0106 89.822C81.0178 89.8186 81.0249 89.8141 81.0316 89.8086L81.0338 89.8081L83.7606 87.3251L85.4704 88.6346C85.4815 88.6439 85.4957 88.6494 85.512 88.6506C85.5444 88.6524 85.5806 88.6429 85.616 88.6234C85.6397 88.6094 85.6608 88.5881 85.6753 88.5636C85.6988 88.5334 85.7137 88.4991 85.7172 88.467C85.722 88.4325 85.7165 88.4014 85.7015 88.3777ZM84.1961 83.9189L84.6289 81.6903L85.0152 83.7051L84.1961 83.9189ZM84.9775 83.9808L83.9903 86.3542L84.1583 84.1946L84.9775 83.9808ZM76.9888 88.4638L77.5454 90.1989L75.7963 89.2579L76.9888 88.4638ZM80.7332 82.1683L82.2796 80.0103L82.8806 81.8797L80.7332 82.1683ZM83.179 81.7867L82.6224 80.0515L84.3715 80.9925L83.179 81.7867ZM83.2717 82.0074L84.4563 81.2151L83.9974 83.5841L83.9929 83.6098L83.2717 82.0074ZM76.3155 85.6138L76.3178 85.5898L76.4978 83.2928L77.1164 83.4188L77.5452 83.5024L76.3155 85.6138ZM82.0536 79.9365L80.5025 82.1008L79.4423 80.6181L82.0536 79.9365ZM83.7886 84.2912L82.4744 86.5451L82.0744 85.4423L81.8528 84.7965L83.7888 84.2911L83.7886 84.2912ZM81.8913 84.5205L83.055 82.3065L83.8264 84.0154L81.8913 84.5205ZM80.6978 82.4545L82.8681 82.1606L81.6835 84.4132L80.6978 82.4545ZM80.3208 87.1181L81.6 85.0242L82.2326 86.8022L79.9856 87.6613L80.3208 87.1181ZM78.7739 85.3342L80.4305 82.6251L80.9264 83.6334L81.4319 84.6404L78.7739 85.3342ZM81.3941 84.9162L79.7464 87.6234L79.2413 86.6168L78.7362 85.61L81.3941 84.9162ZM79.881 83.0858L78.5775 85.2236L77.9449 83.4457L80.1835 82.5888L79.881 83.0858ZM79.4702 87.7961L77.309 88.0876L78.2013 86.386L78.4932 85.835L79.4702 87.7961ZM76.3889 85.9568L77.7025 83.7041L78.0989 84.8353L78.3233 85.4518L76.3889 85.9568ZM78.2861 85.7275L77.1226 87.9414L76.3511 86.2326L78.2861 85.7275ZM83.8533 84.6349L83.8525 84.6408L83.6699 86.9576L83.0512 86.8316L82.6224 86.748L83.8533 84.6349ZM76.652 83.0075L78.7981 81.0498L77.7074 83.2149L76.652 83.0075ZM76.8961 88.2431L75.7115 89.0354L76.1731 86.6464L76.1744 86.6394L76.8961 88.2431ZM79.6747 88.1471L80.7261 89.6322L78.1149 90.3138L79.6747 88.1471ZM83.5158 87.2429L81.3698 89.2006L82.4604 87.0356L83.5158 87.2429ZM78.0015 83.1535L79.1779 80.8202L80.2261 82.3007L78.0015 83.1535ZM75.1904 86.2696L76.1774 83.8963L76.0095 86.0558L75.1904 86.2696ZM75.9718 86.3316L75.539 88.5602L75.1526 86.5454L75.9717 86.3316L75.9718 86.3316ZM79.4346 88.0822L77.8882 90.2399L77.2873 88.3704L79.4346 88.0822ZM82.1663 87.0972L80.9899 89.4306L79.9416 87.9498L82.1663 87.0972Z" fill="white"/>
</g>
</g>
<defs>
<linearGradient id="paint0_linear" x1="6.0936" y1="-0.134225" x2="100.644" y2="43.074" gradientUnits="userSpaceOnUse">
<stop stop-color="#87F2E7"/>
<stop offset="1" stop-color="#2E37F2"/>
</linearGradient>
<linearGradient id="paint1_linear" x1="-4.1515" y1="22.2839" x2="90.3985" y2="65.4923" gradientUnits="userSpaceOnUse">
<stop stop-color="#87F2E7"/>
<stop offset="1" stop-color="#2E37F2"/>
</linearGradient>
<linearGradient id="paint2_linear" x1="-15.5089" y1="47.1342" x2="79.0416" y2="90.3428" gradientUnits="userSpaceOnUse">
<stop stop-color="#87F2E7"/>
<stop offset="1" stop-color="#2E37F2"/>
</linearGradient>
<linearGradient id="paint3_linear" x1="-15.8786" y1="45.3901" x2="109.51" y2="52.1679" gradientUnits="userSpaceOnUse">
<stop stop-color="#87F2E7"/>
<stop offset="1" stop-color="#2E37F2"/>
</linearGradient>
<linearGradient id="paint4_linear" x1="-25.178" y1="68.2946" x2="69.3719" y2="111.503" gradientUnits="userSpaceOnUse">
<stop stop-color="#87F2E7"/>
<stop offset="1" stop-color="#2E37F2"/>
</linearGradient>
<linearGradient id="paint5_linear" x1="4.10932" y1="4.20626" x2="98.6596" y2="47.4147" gradientUnits="userSpaceOnUse">
<stop stop-color="#87F2E7"/>
<stop offset="1" stop-color="#2E37F2"/>
</linearGradient>
<linearGradient id="paint6_linear" x1="-6.76585" y1="28.0044" x2="87.7844" y2="71.2129" gradientUnits="userSpaceOnUse">
<stop stop-color="#87F2E7"/>
<stop offset="1" stop-color="#2E37F2"/>
</linearGradient>
<linearGradient id="paint7_linear" x1="-18.2028" y1="53.0303" x2="76.3474" y2="96.2387" gradientUnits="userSpaceOnUse">
<stop stop-color="#87F2E7"/>
<stop offset="1" stop-color="#2E37F2"/>
</linearGradient>
<linearGradient id="paint8_linear" x1="-27.3794" y1="73.1095" x2="67.1707" y2="116.318" gradientUnits="userSpaceOnUse">
<stop stop-color="#87F2E7"/>
<stop offset="1" stop-color="#2E37F2"/>
</linearGradient>
<linearGradient id="paint9_linear" x1="-15.6936" y1="51.8572" x2="111.051" y2="100.318" gradientUnits="userSpaceOnUse">
<stop stop-color="#87F2E7"/>
<stop offset="1" stop-color="#2E37F2"/>
</linearGradient>
<linearGradient id="paint10_linear" x1="-0.175566" y1="13.5808" x2="94.3747" y2="56.7893" gradientUnits="userSpaceOnUse">
<stop stop-color="#87F2E7"/>
<stop offset="1" stop-color="#2E37F2"/>
</linearGradient>
<linearGradient id="paint11_linear" x1="3.12235" y1="6.36465" x2="97.6722" y2="49.5729" gradientUnits="userSpaceOnUse">
<stop stop-color="#87F2E7"/>
<stop offset="1" stop-color="#2E37F2"/>
</linearGradient>
<linearGradient id="paint12_linear" x1="-13.933" y1="9.40905" x2="111.456" y2="16.1869" gradientUnits="userSpaceOnUse">
<stop stop-color="#87F2E7"/>
<stop offset="1" stop-color="#2E37F2"/>
</linearGradient>
<linearGradient id="paint13_linear" x1="-7.75802" y1="30.173" x2="86.7925" y2="73.3814" gradientUnits="userSpaceOnUse">
<stop stop-color="#87F2E7"/>
<stop offset="1" stop-color="#2E37F2"/>
</linearGradient>
<linearGradient id="paint14_linear" x1="-22.247" y1="61.8812" x2="72.303" y2="105.09" gradientUnits="userSpaceOnUse">
<stop stop-color="#87F2E7"/>
<stop offset="1" stop-color="#2E37F2"/>
</linearGradient>
<linearGradient id="paint15_linear" x1="-18.7969" y1="54.3299" x2="75.7538" y2="97.5385" gradientUnits="userSpaceOnUse">
<stop stop-color="#87F2E7"/>
<stop offset="1" stop-color="#2E37F2"/>
</linearGradient>
<linearGradient id="paint16_linear" x1="-12.8175" y1="41.246" x2="81.7325" y2="84.4544" gradientUnits="userSpaceOnUse">
<stop stop-color="#87F2E7"/>
<stop offset="1" stop-color="#2E37F2"/>
</linearGradient>
<linearGradient id="paint17_linear" x1="-23.4468" y1="64.5068" x2="71.1032" y2="107.715" gradientUnits="userSpaceOnUse">
<stop stop-color="#87F2E7"/>
<stop offset="1" stop-color="#2E37F2"/>
</linearGradient>
<clipPath id="clip0">
<rect width="115.087" height="109.61" fill="white" transform="translate(0 6)"/>
</clipPath>
<clipPath id="clip1">
<rect width="8.84223" height="8.84223" fill="white" transform="matrix(0.635215 -0.772336 0.351184 0.936306 101.568 97.5361)"/>
</clipPath>
<clipPath id="clip2">
<rect width="8.84223" height="8.84223" fill="white" transform="matrix(0.975926 -0.218103 -0.299152 0.954206 8.18359 36.0643)"/>
</clipPath>
<clipPath id="clip3">
<rect width="10.115" height="6.98506" fill="white" transform="matrix(0.847749 0.530398 -0.217431 0.976076 96.2847 9.34399)"/>
</clipPath>
<clipPath id="clip4">
<rect width="7.05319" height="7.05319" fill="white" transform="matrix(0.669211 0.743072 -0.308842 0.951113 10.1675 79.2346)"/>
</clipPath>
<clipPath id="clip5">
<rect width="9.23849" height="9.23849" fill="white" transform="matrix(0.530401 -0.847747 0.468903 0.88325 101.695 51.8376)"/>
</clipPath>
<clipPath id="clip6">
<rect width="11.8032" height="10.9062" fill="white" transform="matrix(-0.998602 0.0528545 -0.446589 -0.894739 49.2173 109.375)"/>
</clipPath>
<clipPath id="clip7">
<rect width="12.0633" height="11.1465" fill="white" transform="matrix(-0.0471634 -0.998887 0.923746 -0.383007 73.9258 46.6736)"/>
</clipPath>
<clipPath id="clip8">
<rect width="14.0404" height="16.2736" fill="white" transform="translate(69.9844 84.9318) rotate(-48.4167)"/>
</clipPath>
</defs>
</svg>
