<svg xmlns="http://www.w3.org/2000/svg" width="88" height="68.185" viewBox="0 0 88 68.185">
  <g id="Group_15946" data-name="Group 15946" transform="translate(-238 -985)">
    <g id="Group_15943" data-name="Group 15943">
      <rect id="Rectangle" width="62" height="62" rx="5" transform="translate(238 985)" fill="#eff3ff"/>
      <g id="Desktop05" transform="translate(253 1001.852)">
        <g id="Group_1439" data-name="Group 1439" transform="translate(7 0)">
          <path id="Path_1026" data-name="Path 1026" d="M60,12V42.333a2.34,2.34,0,0,1-2.333,2.333H6.333A2.34,2.34,0,0,1,4,42.333V12a7.021,7.021,0,0,1,7-7H53A7.021,7.021,0,0,1,60,12Z" transform="translate(-4 -5)" fill="#4e5dff"/>
        </g>
        <g id="Group_1442" data-name="Group 1442" transform="translate(22.167 9.333)">
          <g id="Group_1440" data-name="Group 1440" transform="translate(0 2.333)">
            <path id="Path_1027" data-name="Path 1027" d="M12.833,21.667a2.333,2.333,0,0,1-1.65-3.983l7-7a2.333,2.333,0,1,1,3.3,3.3l-7,7A2.327,2.327,0,0,1,12.833,21.667Z" transform="translate(-10.5 -10)" fill="#fff"/>
          </g>
          <g id="Group_1441" data-name="Group 1441" transform="translate(9.333)">
            <path id="Path_1028" data-name="Path 1028" d="M16.833,25.333a2.333,2.333,0,0,1-1.65-3.983L26.85,9.683a2.333,2.333,0,0,1,3.3,3.3L18.483,24.65A2.327,2.327,0,0,1,16.833,25.333Z" transform="translate(-14.5 -9)" fill="#fff"/>
          </g>
        </g>
        <g id="Group_1443" data-name="Group 1443" transform="translate(0 35)">
          <path id="Path_1029" data-name="Path 1029" d="M71,28.167a8.176,8.176,0,0,1-8.167,8.167H9.167A8.167,8.167,0,1,1,9.167,20H62.833A8.176,8.176,0,0,1,71,28.167Z" transform="translate(-1 -20)" fill="#000b89"/>
        </g>
      </g>
    </g>
    <g id="Group_1444" data-name="Group 1444" transform="translate(-19.805 16.674)">
      <ellipse id="Ellipse_253" data-name="Ellipse 253" cx="9" cy="9.001" rx="9" ry="9.001" transform="translate(327.805 989.517)" fill="#87f2e7"/>
      <path id="Union_1" data-name="Union 1" d="M0,6.429H7.8L3.9,9Zm0,0V2.572L3.9,0,7.8,2.572V6.429Z" transform="translate(332.905 994.017)" fill="#29cfbe"/>
    </g>
    <g id="Group_1445" data-name="Group 1445" transform="translate(-76.305 26.676)">
      <ellipse id="Ellipse_253-2" data-name="Ellipse 253" cx="8" cy="8.001" rx="8" ry="8.001" transform="translate(327.805 989.517)" fill="#87f2e7"/>
      <path id="Union_1-2" data-name="Union 1" d="M0,5.715H6.934L3.466,8Zm0,0V2.286L3.466,0,6.934,2.286V5.715Z" transform="translate(332.338 993.517)" fill="#29cfbe"/>
    </g>
  </g>
</svg>
