<?xml version="1.0" encoding="utf-8"?>
<!-- Generator: Adobe Illustrator 25.3.0, SVG Export Plug-In . SVG Version: 6.00 Build 0)  -->
<svg version="1.1" id="Layer_1" xmlns="http://www.w3.org/2000/svg" xmlns:xlink="http://www.w3.org/1999/xlink" x="0px" y="0px"
	 viewBox="0 0 535.1 652.4" style="enable-background:new 0 0 535.1 652.4;" xml:space="preserve">
<style type="text/css">
	.st0{opacity:0.57;fill:url(#Path_12434_1_);enable-background:new    ;}
	.st1{opacity:0.57;fill:url(#Path_12435_1_);enable-background:new    ;}
	.st2{opacity:0.36;enable-background:new    ;}
	.st3{fill:url(#Path_12438_1_);}
	.st4{fill:url(#Path_12440_1_);}
	.st5{fill:url(#Path_12442_1_);}
	.st6{fill:url(#Path_12443_1_);}
	.st7{fill:url(#Path_12445_1_);}
	.st8{fill:url(#Path_12446_1_);}
	.st9{fill:url(#Path_12447_1_);}
	.st10{fill:url(#Path_12448_1_);}
	.st11{fill:url(#Path_12449_1_);}
	.st12{fill:url(#Path_12450_1_);}
	.st13{fill:url(#Path_12451_1_);}
	.st14{fill:url(#Path_12452_1_);}
	.st15{fill:url(#Path_12453_1_);}
	.st16{fill:url(#Path_12454_1_);}
	.st17{fill:#FFFFFF;}
	.st18{fill:#83E4FE;}
	.st19{opacity:0.53;}
	.st20{fill:url(#Path_12470_1_);}
	.st21{fill:url(#Path_12471_1_);}
	.st22{fill:url(#Path_12472_1_);}
	.st23{fill:url(#Path_12473_1_);}
	.st24{opacity:0.57;fill:url(#Ellipse_547_1_);enable-background:new    ;}
	.st25{opacity:0.57;fill:url(#Ellipse_548_1_);enable-background:new    ;}
	.st26{opacity:0.57;fill:#F9FBFC;enable-background:new    ;}
	.st27{opacity:0.57;fill:url(#Path_12476_1_);enable-background:new    ;}
	.st28{opacity:0.57;fill:url(#Ellipse_549_1_);enable-background:new    ;}
	.st29{opacity:0.57;fill:#FFFFFF;enable-background:new    ;}
	.st30{opacity:0.47;fill:url(#Path_12480_1_);enable-background:new    ;}
	.st31{fill:#42727F;}
	.st32{fill:url(#Path_12482_1_);}
	.st33{fill:#F9FBFC;}
	.st34{opacity:0.21;fill:url(#Path_12490_1_);enable-background:new    ;}
	.st35{fill:url(#Path_12491_1_);}
	.st36{opacity:0.47;}
	.st37{opacity:0.569;fill:url(#Path_12501_1_);enable-background:new    ;}
	.st38{opacity:0.569;fill:url(#Path_12502_1_);enable-background:new    ;}
	.st39{opacity:0.569;fill:#7D7E7E;enable-background:new    ;}
	.st40{opacity:0.569;fill:#D7D8D9;enable-background:new    ;}
	.st41{opacity:0.57;}
	.st42{opacity:0.569;fill:#FFFFFF;enable-background:new    ;}
	.st43{fill:url(#Path_12506_1_);}
	.st44{opacity:0.569;fill:url(#Path_12510_1_);enable-background:new    ;}
	.st45{opacity:0.569;fill:url(#Path_12511_1_);enable-background:new    ;}
	.st46{fill:url(#Path_12515_1_);}
	.st47{fill:url(#Ellipse_550_1_);}
	.st48{fill:url(#Ellipse_551_1_);}
	.st49{fill:url(#Path_12519_1_);}
	.st50{fill:url(#Path_12520_1_);}
	.st51{fill:url(#Path_12521_1_);}
	.st52{fill:url(#Path_12522_1_);}
	.st53{fill:url(#Path_12523_1_);}
	.st54{opacity:0.32;}
	.st55{fill:url(#Ellipse_552_1_);}
	.st56{fill:url(#Path_12524_1_);}
	.st57{fill:url(#Ellipse_553_1_);}
</style>
<g id="Group_17506" transform="translate(-359.752 -56.717)">
	
		<linearGradient id="Path_12434_1_" gradientUnits="userSpaceOnUse" x1="-293.4312" y1="801.9036" x2="-292.4331" y2="801.9976" gradientTransform="matrix(480.4537 0 0 -246.457 141373.5 198137.9531)">
		<stop  offset="0" style="stop-color:#DFDFE5;stop-opacity:0.961"/>
		<stop  offset="0.575" style="stop-color:#2D2E56;stop-opacity:0"/>
		<stop  offset="0.739" style="stop-color:#7B7C95;stop-opacity:0.373"/>
		<stop  offset="1" style="stop-color:#FFFFFF"/>
	</linearGradient>
	<path id="Path_12434" class="st0" d="M631.6,614.9c-63.5,0-123.2-12.6-168.3-35.4c-45.6-23.1-70.7-54-70.8-87.1
		s24.9-64.1,70.3-87.5c45.3-23.3,105.5-36.3,169.5-36.5c0.5,0,1,0,1.5,0c63.5,0,123.2,12.6,168.3,35.4c45.6,23.1,70.7,54,70.8,87.1
		S848,555,802.6,578.4c-45.2,23.4-105.5,36.3-169.5,36.5C632.6,614.9,632.1,614.9,631.6,614.9z M633.8,370.1c-0.5,0-1,0-1.5,0
		c-63.8,0.2-123.7,13.1-168.8,36.3c-44.8,23.1-69.5,53.6-69.4,86s25,62.7,70,85.6c45.2,22.9,105.3,35.4,169,35.2
		c63.8-0.2,123.7-13.1,168.8-36.3c44.8-23.1,69.5-53.6,69.4-86s-24.9-62.7-69.9-85.6C756.5,382.6,697,370.1,633.8,370.1z"/>
	
		<linearGradient id="Path_12435_1_" gradientUnits="userSpaceOnUse" x1="-293.0862" y1="801.7646" x2="-292.0882" y2="801.8587" gradientTransform="matrix(428.7795 0 0 -220.0401 126088.4766 176922.3906)">
		<stop  offset="0" style="stop-color:#DFDFE5;stop-opacity:0.961"/>
		<stop  offset="0.575" style="stop-color:#2D2E56;stop-opacity:0"/>
		<stop  offset="0.739" style="stop-color:#7B7C95;stop-opacity:0.373"/>
		<stop  offset="1" style="stop-color:#FFFFFF"/>
	</linearGradient>
	<path id="Path_12435" class="st1" d="M631.7,601.7c-117.6,0-213.2-48.9-213.4-109.4c-0.1-29.5,22.2-57.2,62.8-78.1
		c40.4-20.8,94.1-32.4,151.3-32.5c0.4,0,0.9,0,1.3,0c56.7,0,110,11.2,150.2,31.6c40.7,20.6,63.2,48.3,63.2,77.8
		c0,29.5-22.2,57.2-62.8,78.1c-40.4,20.8-94.1,32.4-151.3,32.5C632.6,601.7,632.2,601.7,631.7,601.7z M633.7,383.3
		c-0.4,0-0.9,0-1.3,0c-56.9,0.2-110.4,11.7-150.5,32.3c-40,20.6-61.9,47.8-61.8,76.6c0.2,59.5,95,107.7,211.7,107.7
		c0.4,0,0.9,0,1.3,0c56.9-0.2,110.4-11.7,150.5-32.3c40-20.6,61.9-47.8,61.8-76.6s-22.2-55.9-62.3-76.2
		C743.1,394.5,690.1,383.3,633.7,383.3L633.7,383.3z"/>
	<g id="Group_17522" transform="translate(359.752 321.748)">
		<g id="Group_17521">
			<g transform="matrix(1, 0, 0, 1, 0, -265.03)">
				<path id="Path_12436-2" d="M521.2,373.6L521.2,373.6L521.2,373.6c-0.1-4.1-2.9-8.1-8.2-11.3l-150.1-86.7
					c-11-6.3-28.8-6.3-39.7,0L12.5,456.3c-5.2,3-7.9,7-8.1,11l0,0c0,0-0.4,13.7,1.1,16.7l0,0l0,0c1.7,2.9,4.1,5.4,7.1,6.9l133.5,77
					l0,0l16.6,9.6c11,6.3,28.8,6.3,39.7,0l285.1-165.7l0,0l25.6-14.8c5.3-3.1,8-7.1,8.1-11.1l0,0v-0.1c0-0.2,0-0.3,0-0.5v-11.1
					C521.2,374,521.2,373.8,521.2,373.6z"/>
			</g>
			<g transform="matrix(1, 0, 0, 1, 0, -265.03)">
				<path id="Path_12437-2" class="st2" d="M521.2,373.6L521.2,373.6L521.2,373.6c-0.1-4.1-2.9-8.1-8.2-11.3l-150.1-86.7
					c-11-6.3-28.8-6.3-39.7,0L12.5,456.3c-5.2,3-7.9,7-8.1,11l0,0c0,0-0.4,13.7,1.1,16.7l0,0l0,0c1.7,2.9,4.1,5.4,7.1,6.9l133.5,77
					l0,0l16.6,9.6c11,6.3,28.8,6.3,39.7,0l285.1-165.7l0,0l25.6-14.8c5.3-3.1,8-7.1,8.1-11.1l0,0v-0.1c0-0.2,0-0.3,0-0.5v-11.1
					C521.2,374,521.2,373.8,521.2,373.6z"/>
			</g>
			<g id="Group_17520">
				<g id="Group_17506-2" transform="translate(0 11.898)">
					
						<linearGradient id="Path_12438_1_" gradientUnits="userSpaceOnUse" x1="-1372.3309" y1="468.532" x2="-1372.5599" y2="468.532" gradientTransform="matrix(529.1765 0 0 -306.8222 726535.3125 143910.2656)">
						<stop  offset="0" style="stop-color:#3054EF"/>
						<stop  offset="1" style="stop-color:#4970EF"/>
					</linearGradient>
					<path id="Path_12438" class="st3" d="M530.1,106.5c0-0.2,0-0.3,0-0.5V94l-7,1.3c-0.5-0.3-0.9-0.6-1.4-0.9L368,5.7
						c-11.2-6.5-29.5-6.5-40.6,0L13.1,188.4L1,189.9c0,0-0.4,14,1.2,17.1l0,0c1.7,3,4.2,5.5,7.3,7.1l153.6,88.7
						c11.2,6.5,29.4,6.5,40.6,0L521.8,118C527.2,114.9,530,110.8,530.1,106.5L530.1,106.5L530.1,106.5z"/>
					<path id="Path_12439" d="M347.7,0.8c7.4,0,14.7,1.6,20.3,4.9l153.7,88.7c0.5,0.3,0.9,0.6,1.4,0.9l7-1.3v12c0,0.2,0,0.3,0,0.5
						v0.1l0,0c-0.2,4.1-2.9,8.2-8.3,11.4L203.7,302.8c-5.6,3.2-12.9,4.9-20.3,4.9s-14.7-1.6-20.3-4.9L9.4,214.1
						c-3.1-1.6-5.6-4.1-7.3-7.1l0,0c-1.6-3.1-1.2-17.1-1.2-17.1l12.1-1.5L327.4,5.7C333,2.5,340.3,0.8,347.7,0.8 M347.7,0
						c-7.8,0-15.2,1.8-20.7,5L12.8,187.6l-11.9,1.5l-0.7,0.1v0.7c0,1.5-0.4,14.3,1.3,17.5c1.8,3.2,4.4,5.7,7.6,7.4l153.7,88.7
						c5.6,3.2,12.9,5,20.8,5s15.2-1.8,20.7-5l318.1-184.8c5.3-3.1,8.3-7.2,8.7-11.6l0,0v-0.5v-0.1c0-0.2,0-0.4,0-0.5V93l-1,0.2
						l-6.7,1.2c-0.4-0.2-0.7-0.5-1.2-0.7L368.4,5C362.9,1.8,355.5,0,347.7,0L347.7,0z"/>
				</g>
				<g id="Group_17510" transform="translate(452.469 147.048)">
					<g id="Group_17508">
						<g id="Group_17507">
							
								<linearGradient id="Path_12440_1_" gradientUnits="userSpaceOnUse" x1="-2680.5444" y1="318.5965" x2="-2679.5444" y2="318.5965" gradientTransform="matrix(26.2451 0 0 -18.1363 70351.6172 5787.6621)">
								<stop  offset="0" style="stop-color:#A7A9AC"/>
								<stop  offset="0" style="stop-color:#D1D3D4"/>
								<stop  offset="0.124" style="stop-color:#8B9298"/>
								<stop  offset="0.142" style="stop-color:#91989D"/>
								<stop  offset="0.269" style="stop-color:#BCBFC1"/>
								<stop  offset="0.368" style="stop-color:#D6D7D7"/>
								<stop  offset="0.427" style="stop-color:#E0E0E0"/>
								<stop  offset="0.466" style="stop-color:#D4D5D5"/>
								<stop  offset="0.536" style="stop-color:#B7B9BA"/>
								<stop  offset="0.628" style="stop-color:#878D8E"/>
								<stop  offset="0.736" style="stop-color:#465053"/>
								<stop  offset="0.789" style="stop-color:#697071"/>
								<stop  offset="0.889" style="stop-color:#A8A8A7"/>
								<stop  offset="0.962" style="stop-color:#CFCBC9"/>
								<stop  offset="1" style="stop-color:#DED9D6"/>
								<stop  offset="1" style="stop-color:#E5E2DF"/>
							</linearGradient>
							<path id="Path_12440" class="st4" d="M24.7,0.7c1.2-0.7,2.1-0.1,2.1,1.2c-0.1,1.5-0.9,2.8-2.1,3.6L2.6,18.3
								c-1.2,0.7-2.1,0.1-2.1-1.2c0.1-1.5,0.9-2.8,2.1-3.6L24.7,0.7z"/>
							<path id="Path_12441" d="M25.6,0.4c0.7,0,1.2,0.5,1.2,1.5c-0.1,1.5-0.9,2.8-2.1,3.6L2.6,18.3c-0.3,0.2-0.6,0.3-0.9,0.3
								c-0.7,0-1.2-0.5-1.2-1.5c0.1-1.5,0.9-2.8,2.1-3.6L24.7,0.7C25,0.5,25.3,0.4,25.6,0.4 M25.6,0L25.6,0c-0.4,0-0.8,0.1-1.2,0.3
								l-22,12.8c-1.4,0.9-2.2,2.4-2.3,4c0,1.1,0.6,1.9,1.6,1.9c0.4,0,0.8-0.1,1.2-0.3l22-12.8c1.4-0.9,2.2-2.4,2.3-4
								C27.2,0.8,26.6,0,25.6,0L25.6,0z"/>
						</g>
					</g>
					<g id="Group_17509" transform="translate(1.041 1.041)">
						
							<linearGradient id="Path_12442_1_" gradientUnits="userSpaceOnUse" x1="-2682.6938" y1="317.9934" x2="-2683.6667" y2="317.1054" gradientTransform="matrix(26.245 0 0 -18.1425 70432.9297 5770.4321)">
							<stop  offset="0" style="stop-color:#A7A9AC"/>
							<stop  offset="0" style="stop-color:#D1D3D4"/>
							<stop  offset="0.124" style="stop-color:#8B9298"/>
							<stop  offset="0.142" style="stop-color:#91989D"/>
							<stop  offset="0.269" style="stop-color:#BCBFC1"/>
							<stop  offset="0.368" style="stop-color:#D6D7D7"/>
							<stop  offset="0.427" style="stop-color:#E0E0E0"/>
							<stop  offset="1" style="stop-color:#DED9D6"/>
							<stop  offset="1" style="stop-color:#E5E2DF"/>
						</linearGradient>
						<path id="Path_12442" class="st5" d="M24.2,0.3c1.2-0.7,2.1-0.1,2.1,1.2c-0.1,1.5-0.8,2.8-2.1,3.6l-22,12.8
							C1,18.5,0.1,18,0.1,16.7c0.1-1.5,0.9-2.8,2.1-3.6L24.2,0.3z"/>
					</g>
				</g>
				<g id="Group_17514" transform="translate(423.979 169.495)">
					<g id="Group_17512">
						<g id="Group_17511">
							
								<linearGradient id="Path_12443_1_" gradientUnits="userSpaceOnUse" x1="-2565.2803" y1="289.1023" x2="-2564.2803" y2="289.1023" gradientTransform="matrix(16.733 0 0 -12.5213 42925.3516 3626.6365)">
								<stop  offset="0" style="stop-color:#A7A9AC"/>
								<stop  offset="0" style="stop-color:#D1D3D4"/>
								<stop  offset="0.124" style="stop-color:#8B9298"/>
								<stop  offset="0.142" style="stop-color:#91989D"/>
								<stop  offset="0.269" style="stop-color:#BCBFC1"/>
								<stop  offset="0.368" style="stop-color:#D6D7D7"/>
								<stop  offset="0.427" style="stop-color:#E0E0E0"/>
								<stop  offset="0.466" style="stop-color:#D4D5D5"/>
								<stop  offset="0.536" style="stop-color:#B7B9BA"/>
								<stop  offset="0.628" style="stop-color:#878D8E"/>
								<stop  offset="0.736" style="stop-color:#465053"/>
								<stop  offset="0.789" style="stop-color:#697071"/>
								<stop  offset="0.889" style="stop-color:#A8A8A7"/>
								<stop  offset="0.962" style="stop-color:#CFCBC9"/>
								<stop  offset="1" style="stop-color:#DED9D6"/>
								<stop  offset="1" style="stop-color:#E5E2DF"/>
							</linearGradient>
							<path id="Path_12443" class="st6" d="M15.2,0.7c1.2-0.7,2.1-0.1,2.1,1.2c-0.1,1.5-0.9,2.8-2.1,3.6L2.6,12.7
								c-1.2,0.7-2.1,0.1-2.1-1.2C0.6,10,1.4,8.6,2.6,7.8L15.2,0.7z"/>
							<path id="Path_12444" d="M16.1,0.4c0.7,0,1.2,0.5,1.2,1.5c-0.1,1.5-0.9,2.8-2.1,3.6L2.6,12.7C2.3,12.9,2,13,1.7,13
								c-0.7,0-1.2-0.5-1.2-1.5C0.6,10,1.4,8.6,2.6,7.8l12.5-7.1C15.4,0.5,15.8,0.4,16.1,0.4 M16.1,0L16.1,0c-0.4,0-0.8,0.1-1.2,0.3
								L2.4,7.5c-1.4,0.9-2.2,2.4-2.3,4c0,1.1,0.6,1.9,1.6,1.9c0.4,0,0.8-0.1,1.2-0.3L15.4,6c1.4-0.9,2.2-2.4,2.3-4
								C17.7,0.8,17,0,16.1,0L16.1,0z"/>
						</g>
					</g>
					<g id="Group_17513" transform="translate(1.041 1.041)">
						
							<linearGradient id="Path_12445_1_" gradientUnits="userSpaceOnUse" x1="-2567.446" y1="288.466" x2="-2568.427" y2="287.6393" gradientTransform="matrix(16.737 0 0 -12.5214 42987.75 3613.2051)">
							<stop  offset="0" style="stop-color:#A7A9AC"/>
							<stop  offset="0" style="stop-color:#D1D3D4"/>
							<stop  offset="0.124" style="stop-color:#8B9298"/>
							<stop  offset="0.142" style="stop-color:#91989D"/>
							<stop  offset="0.269" style="stop-color:#BCBFC1"/>
							<stop  offset="0.368" style="stop-color:#D6D7D7"/>
							<stop  offset="0.427" style="stop-color:#E0E0E0"/>
							<stop  offset="1" style="stop-color:#DED9D6"/>
							<stop  offset="1" style="stop-color:#E5E2DF"/>
						</linearGradient>
						<path id="Path_12445" class="st7" d="M14.7,0.3c1.2-0.7,2.1-0.1,2.1,1.2c-0.1,1.5-0.9,2.8-2.1,3.6L2.2,12.2
							C1,12.9,0.1,12.4,0.1,11C0.2,9.5,1,8.2,2.2,7.4L14.7,0.3z"/>
					</g>
				</g>
				
					<linearGradient id="Path_12446_1_" gradientUnits="userSpaceOnUse" x1="-1335.5018" y1="475.8044" x2="-1334.7749" y2="475.8044" gradientTransform="matrix(34.4577 0 0 -51.304 46518.3945 24530.0215)">
					<stop  offset="0" style="stop-color:#3544F2;stop-opacity:0"/>
					<stop  offset="0.185" style="stop-color:#3643DC;stop-opacity:0.259"/>
					<stop  offset="0.508" style="stop-color:#000B89"/>
					<stop  offset="1" style="stop-color:#3544F2;stop-opacity:0"/>
				</linearGradient>
				<path id="Path_12446" class="st8" d="M495.7,145l26.1-15.2c5.4-3.1,8.2-7.2,8.3-11.4l0,0v-0.1c0-0.2,0-0.3,0-0.5v-11.9l-7,1.3
					c-0.5-0.3-0.9-0.6-1.4-0.9l-21.8-12.6h-4.2L495.7,145L495.7,145z"/>
				
					<linearGradient id="Path_12447_1_" gradientUnits="userSpaceOnUse" x1="-1356.4808" y1="476.1113" x2="-1355.7538" y2="476.1113" gradientTransform="matrix(72.62 0 0 -54.315 98663.0781 26152.4199)">
					<stop  offset="0" style="stop-color:#3544F2;stop-opacity:0"/>
					<stop  offset="0.185" style="stop-color:#3643DC;stop-opacity:0.259"/>
					<stop  offset="0.508" style="stop-color:#000B89"/>
					<stop  offset="1" style="stop-color:#3544F2;stop-opacity:0"/>
				</linearGradient>
				<path id="Path_12447" class="st9" d="M218.7,265.3h-72.6v39.6l17,9.8c11.2,6.5,29.4,6.5,40.6,0l15-8.7V265.3z"/>
				<g id="Group_17519" transform="translate(0.039)">
					<g id="Group_17516">
						<g id="Group_17515">
							
								<linearGradient id="Path_12448_1_" gradientUnits="userSpaceOnUse" x1="-1372.8827" y1="480.0769" x2="-1372.2357" y2="480.8069" gradientTransform="matrix(529.1608 0 0 -306.8222 726575.625 147560.8438)">
								<stop  offset="0" style="stop-color:#FFFFFF"/>
								<stop  offset="0.124" style="stop-color:#D4EBFF"/>
								<stop  offset="0.189" style="stop-color:#85B8E9"/>
								<stop  offset="0.269" style="stop-color:#9AC6E3"/>
								<stop  offset="0.368" style="stop-color:#85A8EC"/>
								<stop  offset="0.427" style="stop-color:#A1CAF1"/>
								<stop  offset="0.466" style="stop-color:#85B6E5"/>
								<stop  offset="0.536" style="stop-color:#9BCBE3"/>
								<stop  offset="0.628" style="stop-color:#4CA2DB"/>
								<stop  offset="0.736" style="stop-color:#2560B8"/>
								<stop  offset="0.789" style="stop-color:#6CC3F1"/>
								<stop  offset="0.889" style="stop-color:#98CBDE"/>
								<stop  offset="0.962" style="stop-color:#95DEE3"/>
								<stop  offset="1" style="stop-color:#A1C8EE"/>
								<stop  offset="1" style="stop-color:#E5E2DF"/>
							</linearGradient>
							<path id="Path_12448" class="st10" d="M521.6,94.4c11.2,6.5,11.3,17,0.1,23.5l-318,184.9c-11.2,6.5-29.4,6.5-40.6,0
								L9.4,214.1c-11.2-6.5-11.3-17-0.1-23.5l318-184.9c11.2-6.5,29.4-6.5,40.6,0L521.6,94.4z"/>
							
								<linearGradient id="Path_12449_1_" gradientUnits="userSpaceOnUse" x1="-1373.0782" y1="480.4352" x2="-1372.078" y2="480.4352" gradientTransform="matrix(530.8591 0 0 -308.521 728911.0625 148378.5781)">
								<stop  offset="0" style="stop-color:#575757"/>
								<stop  offset="0" style="stop-color:#545454"/>
								<stop  offset="0.151" style="stop-color:#454545"/>
								<stop  offset="0.264" style="stop-color:#373737"/>
								<stop  offset="0.522" style="stop-color:#5C5C5C"/>
								<stop  offset="0.674" style="stop-color:#4D4D4D"/>
								<stop  offset="0.876" style="stop-color:#333333"/>
								<stop  offset="1" style="stop-color:#515151"/>
								<stop  offset="1" style="stop-color:#424242"/>
							</linearGradient>
							<path id="Path_12449" class="st11" d="M347.6,0.8c7.4,0,14.7,1.6,20.3,4.9l153.7,88.7c11.2,6.5,11.3,17,0.1,23.5l-318,184.9
								c-5.6,3.2-12.9,4.9-20.3,4.9s-14.7-1.6-20.3-4.9L9.4,214.1c-11.2-6.5-11.3-17-0.1-23.5l318-184.9
								C332.9,2.5,340.3,0.8,347.6,0.8 M347.6,0L347.6,0c-7.8,0-15.2,1.8-20.7,5L8.8,189.8c-5.6,3.3-8.8,7.7-8.8,12.5
								s3.2,9.2,8.9,12.5l153.7,88.7c5.6,3.2,12.9,5,20.8,5s15.2-1.8,20.7-5l318.1-184.8c5.7-3.3,8.8-7.7,8.8-12.5
								s-3.2-9.2-8.9-12.5L368.4,5C362.8,1.8,355.5,0,347.6,0L347.6,0z"/>
						</g>
						
							<linearGradient id="Path_12450_1_" gradientUnits="userSpaceOnUse" x1="-1372.9456" y1="480.0697" x2="-1371.1145" y2="481.4267" gradientTransform="matrix(514.4192 0 0 -298.2835 706303.4375 143450.6719)">
							<stop  offset="0" style="stop-color:#0E9CFF"/>
							<stop  offset="1" style="stop-color:#FFF6FF"/>
						</linearGradient>
						<path id="Path_12450" class="st12" d="M516.4,97.5c8.4,4.8,8.4,12.6,0.1,17.5l-318,184.8c-8.3,4.8-21.8,4.8-30.2,0L14.6,211.1
							c-8.3-4.8-8.4-12.6-0.1-17.5L332.6,8.7c8.3-4.8,21.8-4.8,30.2,0l43.4,25c1.4,0.8,1.7,2.1,0.8,3.1l-3.6,4
							c-1.1,1.2-0.7,2.7,1,3.7l50.2,29c2,1,4.2,1.2,6.3,0.6l6.9-2.1c1.8-0.5,3.7-0.4,5.3,0.5L516.4,97.5z"/>
					</g>
					<g id="Group_17517" transform="translate(422.123 47.841)">
						
							<linearGradient id="Path_12451_1_" gradientUnits="userSpaceOnUse" x1="-2577.4409" y1="410.4832" x2="-2577.4409" y2="410.2322" gradientTransform="matrix(21.4609 0 0 -12.3953 55325.0117 5094.7783)">
							<stop  offset="0" style="stop-color:#373737"/>
							<stop  offset="1" style="stop-color:#5C5C5C"/>
						</linearGradient>
						<path id="Path_12451" class="st13" d="M21.2,11.1c0.3,0.1,0.5,0.4,0.4,0.7c-0.1,0.2-0.2,0.3-0.4,0.4c-0.6,0.3-1.3,0.3-1.9,0
							L0.5,1.3C0.2,1.2,0,0.9,0.1,0.6c0.1-0.2,0.2-0.3,0.4-0.4c0.6-0.3,1.3-0.3,1.9,0L21.2,11.1z"/>
					</g>
					<g id="Group_17518" transform="translate(452.638 65.421)">
						
							<linearGradient id="Path_12452_1_" gradientUnits="userSpaceOnUse" x1="-2457.8501" y1="317.2803" x2="-2456.8501" y2="317.2803" gradientTransform="matrix(4.9889 0 0 -2.8887 12262.0107 917.9777)">
							<stop  offset="0" style="stop-color:#373737"/>
							<stop  offset="1" style="stop-color:#5C5C5C"/>
						</linearGradient>
						<path id="Path_12452" class="st14" d="M4.3,0.4C4.9,0.6,5.2,1.2,5,1.8C4.9,2.1,4.7,2.4,4.4,2.5C3.2,3,1.9,3,0.8,2.5
							C0.3,2.3,0,1.7,0.1,1.1c0.1-0.3,0.4-0.6,0.7-0.7C1.9-0.1,3.2-0.1,4.3,0.4z"/>
					</g>
				</g>
				
					<linearGradient id="Path_12453_1_" gradientUnits="userSpaceOnUse" x1="-1370.1418" y1="479.181" x2="-1369.2799" y2="479.181" gradientTransform="matrix(224.0574 0 0 -130.8367 307050.75 62926.3008)">
					<stop  offset="0" style="stop-color:#565656;stop-opacity:0"/>
					<stop  offset="0.139" style="stop-color:#545454;stop-opacity:0.22"/>
					<stop  offset="0.413" style="stop-color:#4E4E4E;stop-opacity:0.784"/>
					<stop  offset="0.508" style="stop-color:#4D4D4D"/>
					<stop  offset="1" style="stop-color:#5C5C5C;stop-opacity:0"/>
				</linearGradient>
				<path id="Path_12453" class="st15" d="M447.8,166.5c0.8,1.4-72.1,45.9-93.1,58.6s-130.1,73.5-131,72.1s106.9-64.5,127.9-77.2
					S446.9,165.1,447.8,166.5z"/>
			</g>
		</g>
		
			<linearGradient id="Path_12454_1_" gradientUnits="userSpaceOnUse" x1="-1370.8157" y1="480.1328" x2="-1371.6936" y2="477.8328" gradientTransform="matrix(359.3619 0 0 -137.2753 493092.9375 65867.4375)">
			<stop  offset="0" style="stop-color:#73CBFD"/>
			<stop  offset="0.201" style="stop-color:#70C5FC"/>
			<stop  offset="0.444" style="stop-color:#67B7FC"/>
			<stop  offset="0.709" style="stop-color:#5A9EFB"/>
			<stop  offset="0.987" style="stop-color:#467CFB"/>
			<stop  offset="1" style="stop-color:#467BFB"/>
		</linearGradient>
		<path id="Path_12454" class="st16" d="M467.8,72l-6.9,2.1c-2.1,0.6-4.4,0.4-6.3-0.6l-50.2-29c-1.7-1-2.1-2.5-1-3.7l3.6-4
			c0.9-1,0.6-2.2-0.8-3.1l-43.4-25c-8.3-4.8-21.9-4.8-30.2,0L147.4,116.4c43.7,16.4,97,26,154.5,26c82.1,0,155.6-19.6,204.8-50.5
			l-33.6-19.5C471.5,71.6,469.6,71.4,467.8,72z"/>
	</g>
	<g id="Group_17523" transform="translate(589.747 75.842)">
		<path id="Path_12455" class="st17" d="M17.8,33.3c-2.2,2.2-2.1,5.8,0.1,8c2.2,2.1,5.7,2.1,7.9,0c9.7-9.7,25.5-9.8,35.2-0.1
			c2.2,2.2,5.8,2.3,8,0.1s2.3-5.8,0.1-8L69,33.2C54.8,19.1,31.9,19.2,17.8,33.3z"/>
		<path id="Path_12456" class="st17" d="M85,17.1C61.9-5.8,24.7-5.7,1.7,17.3c-2.2,2.2-2.3,5.8-0.1,8s5.8,2.3,8,0.1l0.1-0.1
			C28.3,6.7,58.4,6.6,77,25.1c2.2,2.2,5.8,2.2,8,0C87.3,22.9,87.3,19.3,85,17.1L85,17.1L85,17.1z"/>
		<path id="Path_12457" class="st17" d="M35.9,45.5c-4.3,4.4-4.3,11.4,0,15.8c4.4,4.3,11.4,4.3,15.8,0c4.3-4.4,4.3-11.4,0-15.8l0,0
			C47.3,41.2,40.2,41.2,35.9,45.5z"/>
	</g>
	<g id="Group_17528" transform="translate(791.193 253.817)">
		<g id="Group_17524">
			<path id="Path_12458" class="st18" d="M30.6,17v4.9c0,2.1-1.7,3.7-3.7,3.7c-0.7,0-1.3-0.2-1.9-0.5L2,11.9
				C0.8,11.2,0.1,10,0.1,8.6V3.7c0-2,1.7-3.7,3.7-3.7c0.7,0,1.3,0.2,1.9,0.5l23.1,13.3C29.9,14.5,30.6,15.7,30.6,17z"/>
		</g>
		<g id="Group_17525" transform="translate(0.005 24.29)">
			<path id="Path_12459" class="st18" d="M103.7,58.8v4.9c0,2.1-1.7,3.7-3.7,3.7c-0.7,0-1.3-0.2-1.9-0.5L2,11.9
				C0.8,11.2,0.1,10,0.1,8.6V3.7c0-2,1.7-3.7,3.7-3.7c0.7,0,1.3,0.2,1.9,0.5l96.1,55.1C103,56.3,103.7,57.5,103.7,58.8z"/>
		</g>
		<g id="Group_17526" transform="translate(0.019 72.902)" class="st19">
			<path id="Path_12460" class="st18" d="M64.1,36.1V41c0,2.1-1.7,3.7-3.7,3.7c-0.7,0-1.3-0.2-1.9-0.5L2,11.9
				C0.8,11.2,0.1,10,0.1,8.6V3.7c0-2,1.7-3.7,3.7-3.7c0.7,0,1.3,0.2,1.9,0.5l56.5,32.4C63.3,33.5,64.1,34.8,64.1,36.1z"/>
		</g>
		<g id="Group_17527" transform="translate(0.012 48.596)">
			<path id="Path_12461" class="st18" d="M88.8,50.3v4.9c0,2.1-1.7,3.7-3.7,3.7c-0.7,0-1.3-0.2-1.9-0.5L2,11.9
				C0.8,11.2,0.1,10,0.1,8.6V3.7c0-2,1.7-3.7,3.7-3.7c0.7,0,1.3,0.2,1.9,0.5l81.2,46.6C88.1,47.7,88.8,49,88.8,50.3z"/>
		</g>
	</g>
	<g id="Group_17533" transform="translate(462.172 252.896)">
		<g id="Group_17529" transform="translate(39.02)">
			<path id="Path_12462" class="st18" d="M0.1,9.1v2.6c0,1.1,0.9,2,2,2c0.3,0,0.7-0.1,1-0.3l12.3-7.1c0.6-0.4,1-1,1-1.7V2
				c0-1.1-0.9-2-2-2c-0.4,0-0.7,0.1-1,0.3L1.1,7.4C0.5,7.7,0.1,8.4,0.1,9.1z"/>
		</g>
		<g id="Group_17530" transform="translate(0 12.975)">
			<path id="Path_12463" class="st18" d="M0.1,31.4V34c0,1.1,0.9,2,2,2c0.3,0,0.7-0.1,1-0.3L54.4,6.3c0.6-0.4,1-1,1-1.7V2
				c0-1.1-0.9-2-2-2c-0.3,0-0.7,0.1-1,0.3L1.1,29.7C0.5,30.1,0.1,30.7,0.1,31.4z"/>
		</g>
		<g id="Group_17531" transform="translate(21.16 38.941)" class="st19">
			<path id="Path_12464" class="st18" d="M0.1,19.3v2.6c0,1.1,0.9,2,2,2c0.3,0,0.7-0.1,1-0.3L33.3,6.3c0.6-0.4,1-1,1-1.7V2
				c0-1.1-0.9-2-2-2c-0.3,0-0.7,0.1-1,0.3L1.1,17.6C0.5,17.9,0.1,18.6,0.1,19.3z"/>
		</g>
		<g id="Group_17532" transform="translate(7.958 25.958)">
			<path id="Path_12465" class="st18" d="M0.1,26.9v2.6c0,1.1,0.9,2,2,2c0.3,0,0.7-0.1,1-0.3L46.5,6.3c0.6-0.4,1-1,1-1.7V2
				c0-1.1-0.9-2-2-2c-0.3,0-0.7,0.1-1,0.3L1.1,25.1C0.5,25.5,0.1,26.2,0.1,26.9z"/>
		</g>
	</g>
	<g id="Group_17537" transform="translate(462.172 208.749)">
		<g id="Group_17534" transform="translate(39.02)">
			<path id="Path_12466" class="st18" d="M0.1,9.1v2.6c0,1.1,0.9,2,2,2c0.3,0,0.7-0.1,1-0.3l12.3-7.1c0.6-0.4,1-1,1-1.7V2
				c0-1.1-0.9-2-2-2c-0.4,0-0.7,0.1-1,0.3L1.1,7.4C0.5,7.7,0.1,8.4,0.1,9.1z"/>
		</g>
		<g id="Group_17535" transform="translate(0 12.975)">
			<path id="Path_12467" class="st18" d="M0.1,31.4V34c0,1.1,0.9,2,2,2c0.3,0,0.7-0.1,1-0.3L54.4,6.3c0.6-0.4,1-1,1-1.7V2
				c0-1.1-0.9-2-2-2c-0.3,0-0.7,0.1-1,0.3L1.1,29.7C0.5,30.1,0.1,30.7,0.1,31.4z"/>
		</g>
		<g id="Group_17536" transform="translate(7.958 25.958)">
			<path id="Path_12468" class="st18" d="M0.1,26.9v2.6c0,1.1,0.9,2,2,2c0.3,0,0.7-0.1,1-0.3L46.5,6.3c0.6-0.4,1-1,1-1.7V2
				c0-1.1-0.9-2-2-2c-0.3,0-0.7,0.1-1,0.3L1.1,25.1C0.5,25.5,0.1,26.2,0.1,26.9z"/>
		</g>
	</g>
	<path id="Path_12469" class="st17" d="M491.2,354.3c0.3,5-3.4,9.3-8.4,9.7c-5,0.3-9.3-3.4-9.7-8.4c-0.3-5,3.4-9.3,8.4-9.7
		C486.5,345.5,490.8,349.3,491.2,354.3L491.2,354.3z"/>
	<g id="Group_17543" transform="translate(443.611 498.737)">
		<g id="Group_17538" transform="translate(6.496 19.474)">
			
				<linearGradient id="Path_12470_1_" gradientUnits="userSpaceOnUse" x1="-1633.7622" y1="280.7795" x2="-1633.7622" y2="280.1785" gradientTransform="matrix(111.3355 0 0 -64.4892 181951.4531 18119.957)">
				<stop  offset="0" style="stop-color:#FFFFFF"/>
				<stop  offset="0.127" style="stop-color:#F5FCFE"/>
				<stop  offset="0.337" style="stop-color:#DCF4FE"/>
				<stop  offset="0.605" style="stop-color:#B3E7FE"/>
				<stop  offset="0.916" style="stop-color:#7BD5FE"/>
				<stop  offset="1" style="stop-color:#6BD0FE"/>
			</linearGradient>
			<path id="Path_12470" class="st20" d="M108.7,28.5c3.6,2.1,3.6,5.5,0,7.6L62.5,62.9c-4.1,2.1-9,2.1-13.1,0L2.8,36
				c-3.6-2.1-3.6-5.5,0-7.6L49,1.6c4.1-2.1,9-2.1,13.1,0L108.7,28.5z"/>
		</g>
		<g id="Group_17541">
			<g id="Group_17539" transform="translate(0 35.975)">
				
					<linearGradient id="Path_12471_1_" gradientUnits="userSpaceOnUse" x1="-1615.5635" y1="262.696" x2="-1615.5635" y2="260.773" gradientTransform="matrix(124.3091 0 0 -38.792 200891.4219 10145.9697)">
					<stop  offset="0" style="stop-color:#FFFFFF"/>
					<stop  offset="0.199" style="stop-color:#F5FCFE"/>
					<stop  offset="0.528" style="stop-color:#DCF7FE"/>
					<stop  offset="0.944" style="stop-color:#B4EEFE"/>
					<stop  offset="1" style="stop-color:#AEEDFE"/>
				</linearGradient>
				<path id="Path_12471" class="st21" d="M124.2,1.1v0.1c-0.1,0.3-0.3,0.7-0.5,1c0,0.1-0.1,0.1-0.1,0.2c-0.2,0.3-0.5,0.6-0.8,0.9
					l-0.1,0.1c-0.4,0.3-0.8,0.6-1.2,0.9l-51.7,30c-0.5,0.3-0.9,0.5-1.4,0.7c-0.1,0.1-0.3,0.1-0.4,0.2c-0.3,0.1-0.6,0.2-1,0.3
					s-0.7,0.2-1,0.3c-0.4,0.1-0.8,0.2-1.3,0.2c-0.1,0-0.2,0-0.3,0c-0.6,0-1.2,0-1.8,0c-0.1,0-0.2,0-0.3,0c-0.6,0-1.1,0-1.7-0.1
					c-0.1,0-0.2,0-0.3,0c-0.6-0.1-1.1-0.2-1.7-0.3c-0.1,0-0.2,0-0.3-0.1c-0.5-0.1-1-0.3-1.4-0.4c-0.1,0-0.2-0.1-0.3-0.1
					c-0.5-0.2-1.1-0.5-1.6-0.7L3,4.3C1.9,3.6,0.8,2.5,0.3,1.1C0.2,0.8,0.1,0.4,0.1,0v2.8c0,1.5,1,3,3,4.2l52,30
					c0.5,0.3,1,0.5,1.5,0.7h0.1c0.1,0,0.2,0.1,0.3,0.1c0.3,0.1,0.6,0.2,0.9,0.3c0.2,0,0.3,0.1,0.5,0.1c0.1,0,0.2,0.1,0.3,0.1
					s0.2,0,0.3,0.1c0.3,0.1,0.7,0.1,1,0.2c0.1,0,0.2,0,0.4,0c0.1,0,0.2,0,0.3,0s0.2,0,0.4,0c0.3,0,0.7,0,1,0.1c0.1,0,0.2,0,0.3,0
					s0.2,0,0.3,0c0.2,0,0.3,0,0.5,0c0.4,0,0.8,0,1.1-0.1h0.1c0.1,0,0.2,0,0.3,0c0.3,0,0.6-0.1,0.9-0.1c0.1,0,0.2-0.1,0.4-0.1
					c0.4-0.1,0.7-0.2,1-0.3c0.2-0.1,0.4-0.1,0.5-0.1s0.3-0.1,0.4-0.2s0.3-0.1,0.4-0.2c0.5-0.2,1-0.4,1.4-0.7l51.7-30l0.1-0.1
					c0.4-0.2,0.8-0.5,1.1-0.8l0.1-0.1c0,0,0.1,0,0.1-0.1c0.2-0.2,0.4-0.4,0.6-0.7c0-0.1,0.1-0.1,0.1-0.2s0.1-0.1,0.1-0.2
					c0.1-0.1,0.1-0.2,0.2-0.3c0.1-0.2,0.2-0.4,0.3-0.6V3.7V3.6c0-0.1,0.1-0.2,0.1-0.4s0.1-0.4,0.1-0.6v0.2V0
					C124.4,0.4,124.3,0.8,124.2,1.1z"/>
			</g>
			<g id="Group_17540" transform="translate(0.008)">
				
					<linearGradient id="Path_12472_1_" gradientUnits="userSpaceOnUse" x1="-1615.3289" y1="300.6846" x2="-1615.8959" y2="300.0836" gradientTransform="matrix(124.3068 0 0 -72.0049 200890.6406 21667.125)">
					<stop  offset="0" style="stop-color:#FFFFFF"/>
					<stop  offset="0.199" style="stop-color:#F5FCFE"/>
					<stop  offset="0.528" style="stop-color:#DCF7FE"/>
					<stop  offset="0.944" style="stop-color:#B4EEFE"/>
					<stop  offset="1" style="stop-color:#AEEDFE"/>
				</linearGradient>
				<path id="Path_12472" class="st22" d="M121.4,31.8c4,2.3,4.1,6.1,0,8.5l-51.7,30c-4.6,2.3-10,2.3-14.6,0l-52-30
					c-4-2.3-4.1-6.1,0-8.5l51.7-30c4.6-2.3,10-2.3,14.6,0L121.4,31.8z"/>
			</g>
		</g>
		<g id="Group_17542" transform="translate(44.573 13.619)">
			
				<linearGradient id="Path_12473_1_" gradientUnits="userSpaceOnUse" x1="-1714.1111" y1="284.0975" x2="-1715.4911" y2="283.0525" gradientTransform="matrix(30.2442 0 0 -39.9566 51879.875 11352.377)">
				<stop  offset="0" style="stop-color:#73CBFD"/>
				<stop  offset="0.201" style="stop-color:#70C5FC"/>
				<stop  offset="0.444" style="stop-color:#67B7FC"/>
				<stop  offset="0.709" style="stop-color:#5A9EFB"/>
				<stop  offset="0.987" style="stop-color:#467CFB"/>
				<stop  offset="1" style="stop-color:#467BFB"/>
			</linearGradient>
			<path id="Path_12473" class="st23" d="M23.5,0.8c0.7,0.4,1.3,0.8,1.9,1.2c0.1,0.1,0.3,0.2,0.5,0.3c0.5,0.3,0.9,0.8,0.1,2
				c-1.1,1.6-4,5.7-4.3,6.1c-0.3,0.6-1,1-1.7,1.1c-0.6,0.1-1.1,0.2-1.8,0.3c-0.3,0-0.5,0-0.8,0c-1.1,0.1-2.2,0.1-3.3,0.1s-2,0-2.5,1
				c-1,2.3-1.4,4.8-1.2,7.3c0.3,2.8,1.5,5.4,3.2,7.6c0.2,0.3,0.4,0.6,0.8,0.8c0.5,0.3,1.1,0.4,1.7,0.3c1.2,0,5.4-0.2,7-0.4
				c0.7-0.1,1.4-0.1,2,0.2c0.3,0.2,0.6,0.5,0.9,0.8c0.6,0.7,3.1,5,3.6,5.9s0.9,1.4,0.8,1.8c-0.1,0.4-2.2,1.6-5.3,2.4
				c-3.2,0.9-9.6-0.2-11.6-1.2c-0.8-0.4-1.5-0.5-2.6-1.1c-1.4-0.8-3.4-2.6-7.1-7.4c-6.3-8.3-2.4-18.1-2.2-18.7
				c0.5-2.3,1.7-4.4,3.3-6.1c0.8-0.9,1.7-1.7,2.8-2.3c3.7-2,7.8-3,11.9-2.8C20.9-0.1,22.3,0.2,23.5,0.8z"/>
		</g>
	</g>
	<g id="Group_17544" transform="translate(474.857 56.717)">
		
			<linearGradient id="Ellipse_547_1_" gradientUnits="userSpaceOnUse" x1="-1713.9392" y1="743.3243" x2="-1713.1863" y2="743.3901" gradientTransform="matrix(188.996 -0.567 -0.2899 -96.622 324141.1562 71266.2031)">
			<stop  offset="0" style="stop-color:#2D2E56;stop-opacity:0"/>
			<stop  offset="0.385" style="stop-color:#7B7C95;stop-opacity:0.373"/>
			<stop  offset="1" style="stop-color:#FFFFFF"/>
		</linearGradient>
		<path id="Ellipse_547" class="st24" d="M157.7,360.6c52.2-0.2,94.6,21.3,94.6,48s-42.2,48.4-94.4,48.6s-94.6-21.3-94.6-48
			C63.3,382.6,105.6,360.8,157.7,360.6z"/>
		
			<linearGradient id="Ellipse_548_1_" gradientUnits="userSpaceOnUse" x1="-1713.9384" y1="743.3225" x2="-1713.1863" y2="743.3885" gradientTransform="matrix(188.996 -0.5806 -0.2968 -96.62 324146.25 71221.1562)">
			<stop  offset="0" style="stop-color:#2D2E56;stop-opacity:0"/>
			<stop  offset="0.385" style="stop-color:#7B7C95;stop-opacity:0.373"/>
			<stop  offset="1" style="stop-color:#FFFFFF"/>
		</linearGradient>
		<path id="Ellipse_548" class="st25" d="M157.7,340.5c52.2-0.2,94.6,21.3,94.6,48c0.1,26.7-42.2,48.4-94.3,48.6
			c-52.2,0.2-94.6-21.3-94.6-48C63.3,362.4,105.5,340.6,157.7,340.5z"/>
		<path id="Path_12474" class="st26" d="M157.1,401.4c-86.5,0-156.9-36-157-80.6c-0.1-44.7,70.5-81.3,157.5-81.5h1
			c86.5,0,156.9,36,157,80.6c0.1,21.8-16.4,42.2-46.2,57.6c-29.7,15.3-69.2,23.8-111.3,23.9C157.8,401.4,157.4,401.4,157.1,401.4z
			 M158.5,241h-1c-86,0.2-155.8,36-155.7,79.8s70.3,79.1,156.3,78.9c41.8-0.1,81-8.6,110.5-23.7c29.3-15.1,45.4-35,45.3-56.1
			C313.7,276.2,244.1,241,158.5,241L158.5,241z"/>
		<path id="Path_12475" class="st26" d="M157.4,366.2c-56.8,0-102.9-23.7-103-53c-0.1-29.4,46.3-53.5,103.3-53.6h0.6
			c56.8,0,102.9,23.7,103,53l0,0c0.1,29.4-46.3,53.5-103.3,53.6H157.4z M158.3,261.3h-0.6c-56.1,0.2-101.7,23.5-101.6,51.9
			S102,364.7,158,364.5c56.1-0.2,101.7-23.5,101.6-51.9l0,0C259.5,284.2,214.1,261.3,158.3,261.3L158.3,261.3z"/>
		
			<linearGradient id="Path_12476_1_" gradientUnits="userSpaceOnUse" x1="-1713.0886" y1="746.1034" x2="-1713.0886" y2="745.5204" gradientTransform="matrix(188.9907 0 0 -387.5438 323915.625 289167.5312)">
			<stop  offset="0" style="stop-color:#FFFFFF;stop-opacity:0"/>
			<stop  offset="0.3022" style="stop-color:#FFFFFF;stop-opacity:0.48"/>
			<stop  offset="0.7027" style="stop-color:#83E4FE;stop-opacity:0.96"/>
			<stop  offset="1" style="stop-color:#83E4FE"/>
		</linearGradient>
		<path id="Path_12476" class="st27" d="M251.9,343.9c0.6-3.2,0.6-6.5,0-9.7V0H63.3v343.9h0.4c4.4,24.6,44.9,43.8,94.2,43.6
			C206.9,387.4,247.1,368.3,251.9,343.9L251.9,343.9z"/>
		
			<linearGradient id="Ellipse_549_1_" gradientUnits="userSpaceOnUse" x1="-1713.9374" y1="743.3232" x2="-1713.1854" y2="743.3893" gradientTransform="matrix(188.996 -0.5806 -0.2968 -96.62 324146.25 71162.8281)">
			<stop  offset="0" style="stop-color:#2D2E56;stop-opacity:0"/>
			<stop  offset="0.385" style="stop-color:#7B7C95;stop-opacity:0.373"/>
			<stop  offset="1" style="stop-color:#FFFFFF"/>
		</linearGradient>
		<path id="Ellipse_549" class="st28" d="M157.7,282.1c52.2-0.2,94.6,21.3,94.6,48c0.1,26.7-42.2,48.4-94.3,48.6
			c-52.2,0.2-94.6-21.3-94.6-48C63.3,304.1,105.5,282.3,157.7,282.1z"/>
	</g>
	<path id="Path_12477" class="st29" d="M732.4,585.3L732.4,585.3c-5.6-3.3-14.4-3.3-20-0.2c-3.4,1.9-4.7,4.6-4,7.2l0,0l0,0
		c0,0.1,0,0.1,0.1,0.2c0.1,0.2,0.1,0.3,0.2,0.5c0,0.1,0.1,0.1,0.1,0.2c0.1,0.2,0.2,0.3,0.3,0.5c0,0,0,0.1,0.1,0.1
		c0.1,0.2,0.2,0.4,0.4,0.5v0.1c0.2,0.2,0.3,0.4,0.5,0.6l0,0l0,0c0.6,0.6,1.3,1.2,2.1,1.6l0.1,0.1l0.1,0.1c0.7,0.4,1.4,0.7,2.2,1h0.1
		h0.1h0.1h0.1h0.1c0.4,0.1,0.8,0.3,1.3,0.4h-0.1h0.1c0.1,0,0.2,0,0.3,0.1c0.2,0.1,0.5,0.1,0.7,0.2c-0.2,0-0.4-0.1-0.6-0.2
		c0.3,0.1,0.6,0.2,0.9,0.2h-0.1h0.1c0.1,0,0.2,0,0.3,0.1c0.1,0,0.3,0.1,0.4,0.1c-0.1,0-0.2,0-0.3-0.1c0.3,0.1,0.6,0.1,0.9,0.2
		c-0.1,0-0.2,0-0.3,0c0.1,0,0.3,0,0.4,0.1h0.1c0.1,0,0.1,0,0.2,0h-0.1c0.4,0.1,0.8,0.1,1.2,0.1l0,0h0.1l0,0l0,0
		c4,0.4,8.1-0.4,11.7-2.3C737.8,593.7,737.8,588.5,732.4,585.3z"/>
	<path id="Path_12478" class="st29" d="M424.5,438.1l-0.1-0.1c-5.5-3.2-14.3-3.2-19.9-0.1c-3.4,1.9-4.7,4.6-4,7.2l0,0l0,0
		c0,0.1,0,0.1,0.1,0.2c0.1,0.2,0.1,0.3,0.2,0.5c0,0.1,0.1,0.1,0.1,0.2c0.1,0.2,0.2,0.3,0.3,0.5c0,0,0,0.1,0.1,0.1
		c0.1,0.2,0.2,0.4,0.4,0.5v0.1c0.1,0.2,0.3,0.4,0.5,0.6l0,0l0,0c0.6,0.6,1.3,1.2,2.1,1.6l0.1,0.1l0.1,0.1c0.7,0.4,1.4,0.7,2.2,1h0.1
		h0.1h0.1h0.1h0.1c0.4,0.1,0.8,0.3,1.3,0.4h-0.1h0.1c0.1,0,0.2,0,0.3,0.1c0.2,0.1,0.5,0.1,0.7,0.2c-0.2,0-0.4-0.1-0.6-0.2
		c0.3,0.1,0.6,0.2,0.9,0.2h-0.1h0.1c0.1,0,0.2,0,0.3,0.1c0.1,0,0.3,0.1,0.4,0.1c-0.1,0-0.2,0-0.3-0.1c0.3,0.1,0.6,0.1,0.9,0.2
		c-0.1,0-0.2,0-0.3,0c0.1,0,0.3,0,0.4,0.1h0.1h0.2h-0.1c0.4,0.1,0.8,0.1,1.2,0.1l0,0h0.1l0,0l0,0c4,0.4,8.1-0.4,11.7-2.3
		C429.9,446.5,429.9,441.4,424.5,438.1z"/>
	<path id="Path_12479" class="st29" d="M877.1,502.1L877.1,502.1c-4.4-2.3-9.6-2.3-14-0.1c-2.4,1.4-3.3,3.2-2.8,5l0,0l0,0v0.1
		c0,0.1,0.1,0.2,0.1,0.3l0.1,0.1c0.1,0.1,0.1,0.2,0.2,0.3c0,0,0,0.1,0.1,0.1c0.1,0.1,0.2,0.2,0.3,0.4l0,0c0.1,0.1,0.2,0.3,0.3,0.4
		l0,0l0,0c0.4,0.4,0.9,0.8,1.5,1.1l0.1,0.1h0.1c0.5,0.3,1,0.5,1.5,0.7l0,0h0.1h0.1l0,0h0.1c0.3,0.1,0.6,0.2,0.9,0.3h-0.1h0.1
		c0.1,0,0.1,0,0.2,0c0.2,0,0.3,0.1,0.5,0.1c-0.1,0-0.3-0.1-0.4-0.1c0.2,0.1,0.4,0.1,0.7,0.2l0,0h0.1h0.2c0.1,0,0.2,0,0.3,0.1
		c-0.1,0-0.2,0-0.2,0c0.2,0,0.4,0.1,0.6,0.1c-0.1,0-0.1,0-0.2,0c0.1,0,0.2,0,0.3,0h0.1h0.1H868c0.3,0,0.6,0.1,0.8,0.1l0,0h0.1l0,0
		l0,0c2.8,0.3,5.7-0.3,8.2-1.6C880.9,508,880.9,504.4,877.1,502.1z"/>
	<g id="Group_17555" transform="translate(755.213 538.22)">
		
			<linearGradient id="Path_12480_1_" gradientUnits="userSpaceOnUse" x1="-2548.2351" y1="259.9861" x2="-2547.2351" y2="259.9861" gradientTransform="matrix(100.4069 0 0 -58.1545 255860.3906 15148.4512)">
			<stop  offset="0" style="stop-color:#73CBFD"/>
			<stop  offset="0.201" style="stop-color:#70C5FC"/>
			<stop  offset="0.444" style="stop-color:#67B7FC"/>
			<stop  offset="0.709" style="stop-color:#5A9EFB"/>
			<stop  offset="0.987" style="stop-color:#467CFB"/>
			<stop  offset="1" style="stop-color:#467BFB"/>
		</linearGradient>
		<path id="Path_12480" class="st30" d="M85.5,49.9c-11.4,6.5-26.9,9.2-41.6,8l0,0l0,0c-0.2,0-0.3,0-0.5,0h0.1
			c-1.4-0.1-2.9-0.3-4.3-0.5c0.1,0,0.2,0,0.3,0c-0.2,0-0.5-0.1-0.7-0.1c-0.1,0-0.3,0-0.4-0.1c-0.5-0.1-1.1-0.2-1.6-0.2
			c0.3,0.1,0.6,0.1,0.9,0.1c-1.1-0.2-2.2-0.3-3.3-0.6c0.4,0.1,0.8,0.2,1.2,0.2c-0.5-0.1-1-0.2-1.4-0.3s-0.8-0.2-1.2-0.2
			c-0.1,0-0.2,0-0.3-0.1h0.2c-1.1-0.2-2.3-0.5-3.4-0.8c0.7,0.2,1.5,0.4,2.2,0.6c-0.8-0.2-1.6-0.4-2.4-0.6c-0.3-0.1-0.6-0.2-0.9-0.2
			c-0.1,0-0.2-0.1-0.4-0.1c0.1,0,0.2,0.1,0.3,0.1c-1.5-0.4-3-0.9-4.5-1.4l-0.4-0.2l-0.2-0.1l-0.3-0.1l-0.3-0.1c-0.1,0-0.1,0-0.2-0.1
			c-2.7-1-5.3-2.2-7.8-3.7c-0.1-0.1-0.3-0.2-0.4-0.2h-0.1c-2.7-1.6-5.3-3.6-7.5-5.8l-0.1-0.1l-0.1-0.1c-0.6-0.6-1.2-1.3-1.7-2
			C4.6,41,4.5,41,4.5,40.9C4,40.3,3.6,39.7,3.2,39c-0.1-0.1-0.2-0.3-0.3-0.4C2.6,38,2.3,37.5,2,36.9c-0.1-0.2-0.2-0.4-0.3-0.6
			c-0.2-0.5-0.4-1.1-0.6-1.6C1,34.5,0.9,34.2,0.9,34v-0.1v-0.1c-2.6-9,2.1-18.6,14.2-25.5c19.5-11.2,51-11,70.5,0.2
			c0.1,0.1,0.3,0.2,0.4,0.2C105.5,20.2,105.3,38.6,85.5,49.9z"/>
		<g id="Group_17554" transform="translate(13.406 5.245)">
			<g id="Group_17545" transform="translate(18.781 39.862)">
				<path id="Path_12481" class="st31" d="M0.4,0.1L0.1,0L0.4,0.1z"/>
			</g>
			<g id="Group_17546">
				
					<linearGradient id="Path_12482_1_" gradientUnits="userSpaceOnUse" x1="-2582.4783" y1="252.4688" x2="-2583.5803" y2="253.6187" gradientTransform="matrix(73.5708 0 0 -42.6158 190066.9688 10801.165)">
					<stop  offset="0" style="stop-color:#4F24FF"/>
					<stop  offset="1" style="stop-color:#13D9E2"/>
				</linearGradient>
				<path id="Path_12482" class="st32" d="M63.1,6.4c14.3,8.4,14.1,21.9-0.4,30.1c-11.4,6.5-28.4,7.8-42,3.9c3.8,1.1,7.6,1.7,11.5,2
					c8.6-5,8.6-13.1,0-18.2C23.3,19.1,9.3,19,0.5,24c0,0.3,0,0.5,0.1,0.8c0.8,2.5,2.2,4.8,4,6.7C-3.1,23.4-1,12.9,11.1,6.1
					C25.4-2.1,48.5-2,62.8,6.2L63.1,6.4z M35.2,23c5.3,3.1,13.9,3.1,19.2,0.1c5.4-3.1,5.4-8.1,0.1-11.2l-0.1-0.1
					c-5.3-3.1-13.9-3.1-19.2-0.1C29.9,14.8,29.9,19.8,35.2,23L35.2,23"/>
			</g>
			<g id="Group_17547" transform="translate(0.437 20.319)">
				<path id="Path_12483" class="st33" d="M31.6,3.8l0.2,0.1c8.6,5.1,8.6,13.2,0,18.2c-5-0.4-9.8-1.4-14.5-3L16.9,19h-0.1l-0.2-0.1
					c-0.1,0-0.1-0.1-0.2-0.1h-0.1c-2-0.7-3.9-1.6-5.7-2.7l-0.3-0.2L10,15.7c-2-1.2-3.9-2.6-5.5-4.3l-0.1-0.1l-0.1-0.1
					C2.4,9.3,1,7,0.3,4.5C0.1,4.3,0.1,4,0.1,3.7C8.8-1.3,22.9-1.2,31.6,3.8z"/>
			</g>
			<g id="Group_17548" transform="translate(17.563 39.446)">
				<path id="Path_12484" class="st31" d="M0.7,0.2C0.5,0.1,0.3,0.1,0.1,0C0.3,0.1,0.5,0.1,0.7,0.2z"/>
			</g>
			<g id="Group_17549" transform="translate(18.124 39.641)">
				<path id="Path_12485" class="st31" d="M0.3,0.1L0.1,0L0.3,0.1z"/>
			</g>
			<g id="Group_17550" transform="translate(18.324 39.709)">
				<path id="Path_12486" class="st31" d="M0.6,0.2C0.4,0.1,0.3,0.1,0.1,0C0.2,0.1,0.4,0.1,0.6,0.2z"/>
			</g>
			<g id="Group_17551" transform="translate(19.115 39.969)">
				<path id="Path_12487" class="st31" d="M0.3,0.1L0.1,0C0.2,0,0.3,0.1,0.3,0.1z"/>
			</g>
			<g id="Group_17552" transform="translate(19.358 40.047)">
				<path id="Path_12488" class="st31" d="M1.3,0.4C0.9,0.2,0.5,0.1,0.1,0C0.5,0.1,0.9,0.2,1.3,0.4z"/>
			</g>
			<g id="Group_17553" transform="translate(31.122 9.501)">
				<path id="Path_12489" class="st33" d="M23.4,2.3L23.4,2.3c5.4,3.2,5.3,8.2,0,11.2s-13.9,3-19.2-0.1l-0.1-0.1
					c-5.3-3.1-5.2-8.1,0.1-11.2C9.5-0.8,18.1-0.7,23.4,2.3z"/>
			</g>
		</g>
	</g>
	<g id="Group_17557" transform="translate(582.585 157.323)">
		
			<linearGradient id="Path_12490_1_" gradientUnits="userSpaceOnUse" x1="-2030.2775" y1="643.9073" x2="-2030.2775" y2="642.4293" gradientTransform="matrix(103.6311 0 0 -105.6904 210451.7656 68020.9375)">
			<stop  offset="0" style="stop-color:#73CBFD"/>
			<stop  offset="0.201" style="stop-color:#70C5FC"/>
			<stop  offset="0.444" style="stop-color:#67B7FC"/>
			<stop  offset="0.709" style="stop-color:#5A9EFB"/>
			<stop  offset="0.987" style="stop-color:#467CFB"/>
			<stop  offset="1" style="stop-color:#467BFB"/>
		</linearGradient>
		<path id="Path_12490" class="st34" d="M103.7,50.9C103.2,22.3,79.7-0.5,51,0S-0.4,24,0.1,52.6c0.3,16.8,8.7,32.5,22.6,41.9
			c3.7,3,15.7,11.5,30.1,11c17.5-0.6,31.7-13.2,31.7-13.2c0-0.2,0-0.3,0-0.5C96.9,82,104,66.8,103.7,50.9z"/>
		
			<linearGradient id="Path_12491_1_" gradientUnits="userSpaceOnUse" x1="-2016.0839" y1="642.1959" x2="-2016.0839" y2="640.6508" gradientTransform="matrix(50.0811 0 0 -63.179 101019.5078 40569.9688)">
			<stop  offset="0" style="stop-color:#73CBFD"/>
			<stop  offset="0.201" style="stop-color:#70C5FC"/>
			<stop  offset="0.444" style="stop-color:#67B7FC"/>
			<stop  offset="0.709" style="stop-color:#5A9EFB"/>
			<stop  offset="0.987" style="stop-color:#467CFB"/>
			<stop  offset="1" style="stop-color:#467BFB"/>
		</linearGradient>
		<path id="Path_12491" class="st35" d="M76.8,29.4c0-1.5-1.2-2.7-2.7-2.7h-8.2v-0.4c0-1.6-1.3-3-3-3l0,0H40.7c-1.6,0-3,1.3-3,3l0,0
			v0.5h-8.2c-1.5,0-2.7,1.2-2.7,2.7l0.1,32.1c0,0,3.8,20.4,25.1,24.9c21.3-4.7,24.9-25.1,24.9-25.1L76.8,29.4z"/>
		<g id="Group_17556" transform="translate(38.195 44.409)">
			<path id="Path_12492" class="st17" d="M11.4,24.6L0.1,16.4L4,11.1l6.1,4.4L22.2,0l5.2,4L11.4,24.6z"/>
		</g>
	</g>
	<path id="Path_12493" class="st17" d="M790.9,406.1c0.5,7.6-5.2,14.1-12.8,14.6s-14.1-5.2-14.6-12.8c-0.5-7.6,5.2-14.1,12.8-14.6
		l0,0C783.8,392.8,790.4,398.5,790.9,406.1L790.9,406.1z"/>
	<path id="Path_12494" class="st17" d="M738.5,438.8c0.3,3.9-2.7,7.3-6.7,7.6s-7.3-2.7-7.6-6.7c-0.3-3.9,2.7-7.3,6.7-7.6l0,0
		C734.8,431.8,738.2,434.8,738.5,438.8L738.5,438.8z"/>
	<path id="Path_12495" class="st17" d="M734.2,276.6c0.3,3.9-2.7,7.3-6.7,7.6c-3.9,0.3-7.3-2.7-7.6-6.7c-0.3-3.9,2.7-7.3,6.7-7.6
		l0,0C730.6,269.7,734,272.7,734.2,276.6z"/>
	<path id="Path_12498" class="st17" d="M732,162.5c0.2,3-2.1,5.7-5.1,5.9s-5.7-2.1-5.9-5.1s2.1-5.7,5.1-5.9
		C729.1,157.1,731.8,159.4,732,162.5L732,162.5z"/>
	<path id="Path_12499" class="st17" d="M736.7,181.2c0.4,5.6-3.9,10.5-9.5,10.9s-10.5-3.9-10.9-9.5s3.9-10.5,9.5-10.9l0,0
		C731.4,171.3,736.3,175.6,736.7,181.2z"/>
	<path id="Path_12500" class="st17" d="M548.8,270.7c0.4,5.6-3.9,10.5-9.5,10.9s-10.5-3.9-10.9-9.5s3.9-10.5,9.5-10.9l0,0
		C543.5,260.8,548.4,265,548.8,270.7z"/>
	<g id="Group_17580" transform="translate(614.135 607.603)">
		<g id="Group_17568" transform="translate(0 63.05)">
			<g id="Group_17558" class="st36">
				
					<linearGradient id="Path_12501_1_" gradientUnits="userSpaceOnUse" x1="-2117.9861" y1="125.0464" x2="-2116.9866" y2="125.0464" gradientTransform="matrix(66.405 0 0 -38.4758 140644.9062 4830.502)">
					<stop  offset="0" style="stop-color:#73CBFD"/>
					<stop  offset="0.201" style="stop-color:#70C5FC"/>
					<stop  offset="0.444" style="stop-color:#67B7FC"/>
					<stop  offset="0.709" style="stop-color:#5A9EFB"/>
					<stop  offset="0.987" style="stop-color:#467CFB"/>
					<stop  offset="1" style="stop-color:#467BFB"/>
				</linearGradient>
				<path id="Path_12501" class="st37" d="M62.1,9.8c3.5,3.6,4.9,7.7,4.1,11.7C67.1,17.5,65.7,13.4,62.1,9.8
					c-0.2-0.2-0.4-0.4-0.6-0.6c-0.2-0.2-0.4-0.4-0.6-0.6c-0.1-0.1-0.2-0.2-0.3-0.3S60.4,8.1,60.3,8c-0.1-0.1-0.2-0.2-0.4-0.3
					c-0.2-0.2-0.4-0.3-0.8-0.6l-0.4-0.2c-0.1-0.1-0.2-0.2-0.4-0.3c-0.1-0.1-0.2-0.1-0.4-0.3c-0.1-0.1-0.2-0.2-0.4-0.3
					c-0.1,0.1-0.2,0-0.4-0.1c-0.1-0.1-0.3-0.2-0.4-0.2s-0.3-0.1-0.5-0.3c-0.1-0.1-0.2-0.1-0.4-0.2c-0.1-0.1-0.3-0.1-0.5-0.3
					l-0.4-0.2c-0.1-0.1-0.3-0.1-0.5-0.2c-0.1-0.1-0.2-0.1-0.5-0.2S53.3,4,53,3.9c-0.1-0.1-0.3-0.1-0.4-0.2s-0.3-0.1-0.5-0.2
					l-0.5-0.2c-0.3-0.1-0.6-0.2-1-0.4c-0.3-0.1-0.7-0.2-1-0.3C42,0.2,34.1-0.5,26.2,0.5c-0.1,0-0.2,0-0.3,0s-0.2,0-0.4,0h-0.2
					c-0.1,0-0.2,0-0.4,0.1c-0.8,0.1-1.6,0.3-2.5,0.4l-0.3,0.1c-0.3,0.1-0.6,0.2-0.9,0.3c-0.6,0.1-1.1,0.3-1.6,0.6
					c-0.8,0.4-1.5,1.1-2,1.9c-0.2,0.3-0.3,0.7-0.4,1.1c0,0.2,0,0.4,0,0.6c0-0.2,0-0.4,0-0.6c0.1-0.4,0.2-0.7,0.4-1.1
					c0.5-0.8,1.2-1.4,2-1.9c0.5-0.3,1-0.5,1.6-0.7c0.3-0.1,0.6-0.2,0.9-0.3c-4.3,0.8-8.5,2.4-12.4,4.5C-3.2,13.1-3.1,25.3,9.9,32.8
					s34,7.5,46.9,0c3.2-1.7,5.8-4.2,7.8-7.2c0,0,0.1-0.1,0.1-0.2c0.3-0.5,0.5-1,0.7-1.5c0-0.1,0.1-0.1,0.1-0.2v-0.1
					c0-0.1,0.1-0.2,0.1-0.2c0-0.1,0-0.1,0.1-0.3C67.4,18.7,66.2,13.9,62.1,9.8z M45.6,26.3c-6.7,3.9-17.7,3.9-24.5,0
					S14.3,16,21,12.1c2.1-1.2,4.3-2,6.6-2.4c0.1,0,0.2,0,0.3,0c4.7-0.9,9.5-0.6,14,0.8c0.1,0,0.2,0.1,0.5,0.2l0.2,0.1l0.2,0.1L43,11
					h0.1l0.1,0.1c0.1,0,0.1,0.1,0.3,0.1c0.1,0,0.1,0.1,0.3,0.1c0.1,0,0.2,0.1,0.4,0.2c0.1,0,0.1,0.1,0.3,0.2c0.1,0,0.2,0.1,0.4,0.2
					c0.1,0,0.2,0.1,0.3,0.2c0.1,0.1,0.2,0.1,0.3,0.2s0.2,0.1,0.4,0.2c0.1,0,0.1,0.1,0.3,0.2c0.1,0.1,0.2,0.1,0.3,0.2
					c0.1,0,0.1,0.1,0.3,0.2c0.1,0.1,0.2,0.1,0.3,0.2l0.3,0.2l0.1,0.1l0.1,0.1c0.1,0,0.1,0.1,0.2,0.1l0.1,0.1L48,14
					c0,0,0.1,0.1,0.2,0.2c0.1,0.1,0.1,0.1,0.3,0.3c2.4,2.5,2.9,5.4,1.5,8c0,0.1-0.1,0.1-0.1,0.2l0,0C48.7,24.1,47.3,25.4,45.6,26.3z
					"/>
				
					<linearGradient id="Path_12502_1_" gradientUnits="userSpaceOnUse" x1="-2079.4666" y1="18.5756" x2="-2078.4666" y2="18.5756" gradientTransform="matrix(23.223 0 0 -2.5026 48317.7734 47.7168)">
					<stop  offset="0" style="stop-color:#73CBFD"/>
					<stop  offset="0.201" style="stop-color:#70C5FC"/>
					<stop  offset="0.444" style="stop-color:#67B7FC"/>
					<stop  offset="0.709" style="stop-color:#5A9EFB"/>
					<stop  offset="0.987" style="stop-color:#467CFB"/>
					<stop  offset="1" style="stop-color:#467BFB"/>
				</linearGradient>
				<path id="Path_12502" class="st38" d="M26.3,0.4c7.8-1,15.8-0.2,23.3,2.1C42.1,0.1,34.1-0.6,26.3,0.4z"/>
			</g>
			<g id="Group_17567" transform="translate(7.832 4.536)">
				<g id="Group_17563" transform="translate(0 0.007)">
					<g id="Group_17559" transform="translate(45.14 5.516)">
						<path id="Path_12503" class="st39" d="M0.1,0c0.2,0.1,0.3,0.3,0.5,0.4C0.4,0.3,0.3,0.1,0.1,0z"/>
					</g>
					<g id="Group_17560" transform="translate(47.412 7.448)">
						<path id="Path_12504" class="st40" d="M2.9,10.3C4.1,6.8,3.2,3.1,0.1,0C3.2,3.1,4.1,6.8,2.9,10.3z"/>
					</g>
					<g id="Group_17561" transform="translate(0 0.83)" class="st41">
						<path id="Path_12505" class="st42" d="M49.4,18.8c-1.5,2.3-3.5,4.2-6,5.5c-9.9,5.7-25.9,5.7-35.9,0s-10-15-0.1-20.8
							c2.9-1.7,6.1-2.8,9.5-3.5c-4,0.9-5.1,4-2,5.8c1.9,1,4.1,1.3,6.1,0.9c-1.8,0.3-3.5,0.9-5,1.8c-5.1,3-5.1,7.8,0.1,10.8
							s13.5,3,18.7,0c1.3-0.7,2.4-1.7,3.1-2.9c-0.6,1.3-0.1,2.6,1.5,3.6C42.6,21.7,47.9,21.1,49.4,18.8z"/>
					</g>
					<g id="Group_17562" transform="translate(13.072)">
						
							<linearGradient id="Path_12506_1_" gradientUnits="userSpaceOnUse" x1="-2163.7439" y1="115.3348" x2="-2165.4189" y2="114.0008" gradientTransform="matrix(37.6588 0 0 -21.7809 81527 2511.8945)">
							<stop  offset="0" style="stop-color:#FFFFFF"/>
							<stop  offset="0.199" style="stop-color:#F5FCFE"/>
							<stop  offset="0.528" style="stop-color:#DCF7FE"/>
							<stop  offset="0.944" style="stop-color:#B4EEFE"/>
							<stop  offset="1" style="stop-color:#AEEDFE"/>
						</linearGradient>
						<path id="Path_12506" class="st43" d="M30.3,4.3c0.1,0.1,0.2,0.1,0.3,0.2c0.2,0.1,0.2,0.1,0.3,0.2c0.1,0.1,0.2,0.1,0.3,0.2
							C31.4,5,31.4,5,31.5,5.1s0.2,0.2,0.3,0.2c0.1,0.1,0.2,0.1,0.3,0.2c0.2,0.2,0.4,0.3,0.6,0.4C32.8,6,32.9,6.1,33,6.1
							c0.1,0.1,0.1,0.2,0.2,0.2c0.1,0.1,0.2,0.1,0.2,0.2c0.2,0.2,0.3,0.3,0.5,0.4c0.2,0.2,0.3,0.3,0.5,0.5c3.1,3.1,4,6.8,2.8,10.3
							c0,0.1-0.1,0.2-0.1,0.2s0,0.1-0.1,0.2v0.1c0,0.1,0,0.1-0.1,0.2c-0.2,0.4-0.4,0.8-0.6,1.1c0,0,0,0.1-0.1,0.1
							c-1.5,2.3-6.8,2.9-9.9,1.2c-1.6-0.9-2.1-2.3-1.5-3.6c0,0,0-0.1,0.1-0.1c1.1-2,0.8-4.3-1.1-6.1c-0.1-0.1-0.1-0.1-0.2-0.2
							c-0.1-0.1-0.1-0.1-0.1-0.1l-0.1-0.1l-0.1-0.1l-0.1-0.1l-0.1-0.1L23,10.2c-0.1-0.1-0.2-0.1-0.2-0.1c-0.1-0.1-0.2-0.1-0.2-0.2
							c-0.1-0.1-0.2-0.1-0.2-0.1c-0.1-0.1-0.2-0.1-0.2-0.2c-0.1-0.1-0.1-0.1-0.2-0.2s-0.2-0.1-0.3-0.2s-0.1-0.1-0.2-0.1L21.3,9
							L21,8.9l-0.2-0.1c-0.1-0.1-0.2-0.1-0.3-0.1l-0.2-0.1c-0.1-0.1-0.2-0.1-0.3-0.1h-0.1c-0.1,0-0.1,0-0.2-0.1h-0.1h-0.1h-0.1
							c-0.3-0.3-0.3-0.3-0.4-0.3C15.5,7,11.8,6.7,8.3,7.4c-0.1,0-0.1,0-0.2,0C6,7.9,3.8,7.6,1.9,6.6c-3.1-1.8-2.1-4.9,2-5.8
							c0.1,0,0.1,0,0.2,0C4.7,0.7,5.3,0.6,6,0.5h0.3h0.2h0.3h0.3c6-0.8,12.1-0.2,17.9,1.6c0.1-0.1,0.3,0,0.6,0.1
							c0.3,0.1,0.5,0.2,0.8,0.3c0.2,0.1,0.3,0.1,0.4,0.1c0.2,0.1,0.3,0.1,0.4,0.2l0.3,0.1C27.8,3,28,3.1,28.2,3.2s0.3,0.1,0.4,0.2
							c0.2,0.1,0.3,0.1,0.4,0.2c0.1,0.1,0.2,0.1,0.3,0.2L29.7,4L30,4.2C30.1,4.2,30.2,4.2,30.3,4.3z"/>
					</g>
				</g>
				<g id="Group_17564" transform="translate(20.05)">
					<path id="Path_12507" class="st40" d="M17.8,1.9C12.1,0.1,6.1-0.4,0.1,0.3C6.1-0.4,12.1,0.1,17.8,1.9z"/>
				</g>
				<g id="Group_17565" transform="translate(37.796 1.903)">
					<path id="Path_12508" class="st39" d="M0.1,0c0.3,0.1,0.5,0.2,0.8,0.3C0.6,0.2,0.4,0.1,0.1,0z"/>
				</g>
				<g id="Group_17566" transform="translate(46.962 7.017)">
					<path id="Path_12509" class="st39" d="M0.1,0c0.2,0.1,0.3,0.3,0.4,0.4C0.4,0.3,0.2,0.1,0.1,0z"/>
				</g>
			</g>
		</g>
		<g id="Group_17579" transform="translate(54.363)">
			<g id="Group_17569" class="st36">
				
					<linearGradient id="Path_12510_1_" gradientUnits="userSpaceOnUse" x1="-2254.4141" y1="178.5681" x2="-2253.4141" y2="178.5681" gradientTransform="matrix(29.0354 0 0 -16.8342 65457.8516 3014.5537)">
					<stop  offset="0" style="stop-color:#73CBFD"/>
					<stop  offset="0.201" style="stop-color:#70C5FC"/>
					<stop  offset="0.444" style="stop-color:#67B7FC"/>
					<stop  offset="0.709" style="stop-color:#5A9EFB"/>
					<stop  offset="0.987" style="stop-color:#467CFB"/>
					<stop  offset="1" style="stop-color:#467BFB"/>
				</linearGradient>
				<path id="Path_12510" class="st44" d="M27.2,4.3c1.4,1.3,2.1,3.2,1.8,5.1C29.4,7.5,28.7,5.6,27.2,4.3c0-0.1-0.1-0.2-0.2-0.3
					c-0.1-0.1-0.2-0.2-0.3-0.3l-0.1-0.1l-0.1-0.1c0,0-0.1-0.1-0.2-0.1c-0.1-0.1-0.2-0.1-0.3-0.2c0,0-0.1-0.1-0.2-0.1L25.6,3
					l-0.2-0.1l-0.2-0.1L25,2.7c-0.1,0-0.1-0.1-0.2-0.1s-0.1-0.1-0.2-0.1s-0.1-0.1-0.2-0.1s-0.1-0.1-0.2-0.1c0,0-0.1-0.1-0.2-0.1
					s-0.1-0.1-0.2-0.1L23.6,2c-0.1-0.1-0.3-0.1-0.4-0.2L23,1.7c-0.1,0-0.1-0.1-0.2-0.1l-0.2-0.1c-0.1-0.1-0.3-0.1-0.4-0.2
					c-0.1,0-0.3-0.1-0.4-0.1c-3.3-1-6.8-1.3-10.2-0.9h-0.2h-0.2h-0.1h-0.2c-0.4,0.1-0.7,0.1-1.1,0.2H9.7c-0.1,0-0.3,0.1-0.4,0.1
					C9.1,0.7,8.8,0.8,8.6,0.9C8.3,1.1,8,1.4,7.7,1.7c0,0.1-0.1,0.3-0.1,0.5c0,0.1,0,0.2,0,0.2c0-0.1,0-0.2,0-0.2
					c0-0.2,0.1-0.3,0.2-0.5C8,1.4,8.3,1.1,8.7,0.9c0.1-0.1,0.4-0.2,0.6-0.3c0.1,0,0.3-0.1,0.4-0.1c-1.9,0.4-3.7,1-5.4,2
					c-5.7,3.3-5.6,8.6,0.1,11.9s14.9,3.3,20.5,0c1.4-0.7,2.6-1.8,3.4-3.1v-0.1c0.1-0.2,0.2-0.4,0.3-0.6v-0.1l0,0v-0.1v-0.1
					C29.5,8,28.9,5.7,27.2,4.3z M20,11.5c-3.4,1.7-7.3,1.7-10.7,0c-3-1.7-3-4.5,0-6.2c0.9-0.5,1.9-0.9,2.9-1h0.1
					c2-0.4,4.1-0.3,6.1,0.4l0.2,0.1h0.1h0.1h0.1H19h0.1c0,0,0.1,0,0.1,0.1L19.3,5h0.1l0.1,0.1c0,0,0.1,0,0.2,0.1l0.1,0.1
					c0,0,0.1,0,0.1,0.1s0.1,0,0.2,0.1c0,0,0.1,0,0.1,0.1c0,0,0.1,0,0.1,0.1l0.1,0.1l0.1,0.1c0,0,0,0,0.1,0.1l0.1,0.1l0,0L20.9,6l0,0
					l0,0c0,0,0,0,0.1,0.1s0.1,0.1,0.1,0.1c1,0.9,1.3,2.3,0.6,3.5v0.1l0,0C21.3,10.5,20.7,11.1,20,11.5L20,11.5z"/>
				
					<linearGradient id="Path_12511_1_" gradientUnits="userSpaceOnUse" x1="-2166.4092" y1="-64.9192" x2="-2165.4092" y2="-64.9192" gradientTransform="matrix(10.161 0 0 -1.0945 22024.4316 -70.4897)">
					<stop  offset="0" style="stop-color:#73CBFD"/>
					<stop  offset="0.201" style="stop-color:#70C5FC"/>
					<stop  offset="0.444" style="stop-color:#67B7FC"/>
					<stop  offset="0.709" style="stop-color:#5A9EFB"/>
					<stop  offset="0.987" style="stop-color:#467CFB"/>
					<stop  offset="1" style="stop-color:#467BFB"/>
				</linearGradient>
				<path id="Path_12511" class="st45" d="M11.6,0.2c3.4-0.4,6.9-0.1,10.2,0.9C18.5,0.1,15-0.2,11.6,0.2z"/>
			</g>
			<g id="Group_17578" transform="translate(3.427 1.985)">
				<g id="Group_17574" transform="translate(0 0.003)">
					<g id="Group_17570" transform="translate(19.75 2.413)">
						<path id="Path_12512" class="st39" d="M0.1,0c0.1,0.1,0.2,0.1,0.2,0.2C0.2,0.1,0.2,0.1,0.1,0z"/>
					</g>
					<g id="Group_17571" transform="translate(20.744 3.259)">
						<path id="Path_12513" class="st40" d="M1.3,4.5C1.9,2.9,1.4,1.1,0.1,0C1.4,1.1,1.9,2.9,1.3,4.5z"/>
					</g>
					<g id="Group_17572" transform="translate(0 0.364)" class="st41">
						<path id="Path_12514" class="st42" d="M21.7,8.2c-0.7,1-1.6,1.8-2.6,2.4c-4.3,2.5-11.3,2.5-15.7,0S-1,4,3.3,1.5
							C4.6,0.8,6,0.3,7.5,0C5.7,0.4,5.2,1.7,6.6,2.5C7.4,2.9,8.4,3,9.3,2.9C8.5,3,7.8,3.3,7.1,3.7C4.8,5,4.8,7.1,7.1,8.4
							c2.6,1.3,5.6,1.3,8.2,0c0.6-0.3,1-0.7,1.4-1.3c-0.3,0.6-0.1,1.1,0.7,1.6C18.7,9.5,21,9.2,21.7,8.2z"/>
					</g>
					<g id="Group_17573" transform="translate(5.718)">
						
							<linearGradient id="Path_12515_1_" gradientUnits="userSpaceOnUse" x1="-2244.5442" y1="164.1287" x2="-2246.2192" y2="162.7947" gradientTransform="matrix(16.468 0 0 -9.5361 36982.082 1565.1549)">
							<stop  offset="0" style="stop-color:#FFFFFF"/>
							<stop  offset="0.199" style="stop-color:#F5FCFE"/>
							<stop  offset="0.528" style="stop-color:#DCF7FE"/>
							<stop  offset="0.944" style="stop-color:#B4EEFE"/>
							<stop  offset="1" style="stop-color:#AEEDFE"/>
						</linearGradient>
						<path id="Path_12515" class="st46" d="M13.3,1.9L13.4,2h0.2l0.1,0.1l0.1,0.1c0.1,0,0.1,0.1,0.1,0.1l0.2,0.1
							c0.1,0.1,0.2,0.1,0.3,0.2l0.1,0.1l0.1,0.1l0.1,0.1C14.8,3,14.9,3,14.9,3.1s0.2,0.1,0.2,0.2c1.3,1.1,1.8,2.9,1.2,4.5v0.1V8l0,0
							v0.1c-0.1,0.2-0.2,0.3-0.2,0.5v0.1c-0.7,1-3,1.3-4.3,0.5c-0.7-0.4-0.9-1-0.7-1.6V7.5c0.5-0.9,0.3-2-0.5-2.7l-0.1-0.1l-0.1-0.1
							l0,0l0,0h-0.1l0,0l0,0l-0.2-0.2L10,4.3H9.9L9.8,4.2L9.7,4.1H9.6L9.5,4H9.4L9.2,3.9L9.1,3.8H9H8.9H8.8l0,0H8.7H8.6H8.5H8.4V3.5
							C6.8,3.1,5.2,3,3.7,3.3H3.6c-0.9,0.2-1.9,0-2.7-0.4C-0.5,2.1,0,0.8,1.8,0.4h0.1c0.2-0.1,0.5-0.1,0.8-0.2h0.1h0.1H3h0.1
							c2.6-0.3,5.3-0.1,7.8,0.7C11,0.9,11.1,1,11.2,1s0.2,0.1,0.3,0.1l0.2,0.1l0.2,0.1h0.2c0.1,0.1,0.2,0.1,0.3,0.1l0.2,0.1
							c0.1,0,0.1,0.1,0.2,0.1l0.1,0.1l0.2,0.1l0,0L13.3,1.9z"/>
					</g>
				</g>
				<g id="Group_17575" transform="translate(8.773)">
					<path id="Path_12516" class="st40" d="M7.9,0.8C5.3,0,2.7-0.2,0.1,0.1C2.7-0.2,5.4,0,7.9,0.8z"/>
				</g>
				<g id="Group_17576" transform="translate(16.538 0.833)">
					<path id="Path_12517" class="st39" d="M0.1,0c0.1,0,0.2,0.1,0.3,0.1C0.3,0.1,0.2,0,0.1,0z"/>
				</g>
				<g id="Group_17577" transform="translate(20.548 3.069)">
					<path id="Path_12518" class="st39" d="M0.1,0c0.1,0.1,0.1,0.1,0.2,0.2C0.2,0.1,0.2,0.1,0.1,0z"/>
				</g>
			</g>
		</g>
		
			<rect id="Rectangle_408" x="24.8" y="38.5" transform="matrix(0.43 -0.9028 0.9028 0.43 -5.3695 70.1203)" class="st26" width="56.1" height="1.7"/>
	</g>
	
		<radialGradient id="Ellipse_550_1_" cx="-218.3201" cy="684.8569" r="0.406" gradientTransform="matrix(7.0177 -7.0177 -7.0177 -7.0177 6119.1035 3599.2285)" gradientUnits="userSpaceOnUse">
		<stop  offset="0" style="stop-color:#83E4FE"/>
		<stop  offset="0.661" style="stop-color:#467BFB"/>
		<stop  offset="1" style="stop-color:#345BFB"/>
	</radialGradient>
	<circle id="Ellipse_550" class="st47" cx="519" cy="322" r="5"/>
	
		<radialGradient id="Ellipse_551_1_" cx="-218.3201" cy="684.8569" r="0.406" gradientTransform="matrix(7.0177 -7.0177 -7.0177 -7.0177 6260.7632 3686.2651)" gradientUnits="userSpaceOnUse">
		<stop  offset="0" style="stop-color:#83E4FE"/>
		<stop  offset="0.661" style="stop-color:#467BFB"/>
		<stop  offset="1" style="stop-color:#345BFB"/>
	</radialGradient>
	<circle id="Ellipse_551" class="st48" cx="860.9" cy="532.1" r="5"/>
	
		<radialGradient id="Path_12519_1_" cx="-201.2638" cy="783.725" r="0.522" gradientTransform="matrix(14.532 0 0 -14.532 3397.3345 11768.2627)" gradientUnits="userSpaceOnUse">
		<stop  offset="0" style="stop-color:#F9E836"/>
		<stop  offset="1" style="stop-color:#DB1AB8"/>
	</radialGradient>
	<path id="Path_12519" class="st49" d="M481.7,382.5c0,4-3.3,7.3-7.3,7.3s-7.3-3.3-7.3-7.3s3.3-7.3,7.3-7.3l0,0
		C478.5,375.2,481.7,378.5,481.7,382.5z"/>
	
		<radialGradient id="Path_12520_1_" cx="-144.0244" cy="771.866" r="0.522" gradientTransform="matrix(9.056 0 0 -9.056 2069.5215 7323.6157)" gradientUnits="userSpaceOnUse">
		<stop  offset="0" style="stop-color:#F9E836"/>
		<stop  offset="1" style="stop-color:#DB1AB8"/>
	</radialGradient>
	<path id="Path_12520" class="st50" d="M771,335.7c0,2.5-2,4.5-4.5,4.5s-4.5-2-4.5-4.5s2-4.5,4.5-4.5l0,0
		C768.9,331.1,771,333.2,771,335.7z"/>
	<g id="Group_17581" transform="translate(451.109 409.171)">
		
			<linearGradient id="Path_12521_1_" gradientUnits="userSpaceOnUse" x1="-1659.377" y1="391.7458" x2="-1658.377" y2="391.7458" gradientTransform="matrix(192.111 0 0 -130.1368 315535.25 51045.6211)">
			<stop  offset="0" style="stop-color:#5356CF"/>
			<stop  offset="1" style="stop-color:#9373FB"/>
		</linearGradient>
		<path id="Path_12521" class="st51" d="M66.8,1.4c-1.2-0.7-2.6-1.2-4.1-1.3C47.3-1.2,49.3,26.6,33.8,22.4
			c-1.2-0.6-24.7-11.9-33.7-3.2l192.1,110.9c-0.4-0.8-8.1-16.4-21.4-24.1c-0.9-0.5-1.8-1-2.7-1.4c-0.3-0.2-0.7-0.3-1-0.5
			c-6.7-3.9-10.3-14.4-13.5-24.7s-6.1-20.5-11.6-23.7c-0.3-0.2-0.7-0.4-1.1-0.5c-11.1-4.2-14.8,20.5-29.1,12.2
			c-2-1.2-3.8-2.6-5.4-4.3C89.1,46.1,80,9,66.8,1.4z"/>
	</g>
	
		<linearGradient id="Path_12522_1_" gradientUnits="userSpaceOnUse" x1="-278.4525" y1="798.5007" x2="-279.5544" y2="799.6509" gradientTransform="matrix(81.545 0 0 -69.2094 23160.043 55690.8594)">
		<stop  offset="0" style="stop-color:#4F24FF"/>
		<stop  offset="1" style="stop-color:#13D9E2"/>
	</linearGradient>
	<path id="Path_12522" class="st52" d="M455.7,375.2v-1v-12.1c0-3-2.1-4.2-4.8-2.7l-72,41.5c-2.8,1.8-4.6,4.9-4.7,8.2v13.1
		c0,5.1,3.6,7.1,8,4.6l23.7-13.7l17-9.8l24.7-14.3c0.4-0.3,0.8-0.5,1.2-0.8l5.4,3.1c0.2,0.1,0.4,0.1,0.6-0.1
		c0.5-0.3,0.8-0.8,0.8-1.4L455.7,375.2z M399.8,395.2c-1.2,1.3-1.9,3-1.8,4.7C397.9,398.2,398.6,396.5,399.8,395.2z M404.1,394.7
		c-0.1-0.4-0.3-0.7-0.6-0.9C403.8,394,404,394.3,404.1,394.7c0.1,0.5,0.2,1,0.2,1.6C404.3,395.7,404.3,395.2,404.1,394.7z
		 M418.9,385.2c0.1-0.3,0.2-0.6,0.3-0.9C419.1,384.6,419,384.9,418.9,385.2c-0.2,0.5-0.5,0.9-0.9,1.2
		C418.4,386,418.7,385.6,418.9,385.2L418.9,385.2z"/>
	
		<linearGradient id="Path_12523_1_" gradientUnits="userSpaceOnUse" x1="-278.4529" y1="798.5003" x2="-279.5547" y2="799.6505" gradientTransform="matrix(81.545 0 0 -69.2094 23160.043 55650.1055)">
		<stop  offset="0" style="stop-color:#4F24FF"/>
		<stop  offset="1" style="stop-color:#13D9E2"/>
	</linearGradient>
	<path id="Path_12523" class="st53" d="M455.7,334.5v-1v-12.1c0-3-2.1-4.2-4.8-2.7l-72,41.5c-2.8,1.8-4.6,4.9-4.7,8.2v13.1
		c0,5.1,3.6,7.1,8,4.6l23.7-13.7l17-9.8l24.7-14.3c0.4-0.3,0.9-0.5,1.2-0.8l5.4,3.1c0.2,0.1,0.4,0.1,0.6-0.1
		c0.5-0.3,0.8-0.8,0.8-1.4L455.7,334.5z M399.8,354.4c-1.2,1.3-1.9,3-1.8,4.7C397.9,357.4,398.6,355.7,399.8,354.4z M404.1,353.9
		c-0.1-0.4-0.3-0.7-0.6-0.9C403.8,353.3,404,353.6,404.1,353.9c0.1,0.5,0.2,1,0.2,1.6C404.3,354.9,404.3,354.4,404.1,353.9
		L404.1,353.9z M418.9,344.4c0.1-0.3,0.2-0.6,0.3-0.9C419.1,343.8,419,344.1,418.9,344.4c-0.2,0.5-0.5,0.9-0.9,1.2
		C418.4,345.3,418.7,344.9,418.9,344.4z"/>
	<g id="Group_17587" transform="translate(585.055 314.514)">
		<g id="Group_17583" transform="translate(0 7.114)" class="st54">
			<g id="Group_17582">
				
					<linearGradient id="Ellipse_552_1_" gradientUnits="userSpaceOnUse" x1="-2056.9197" y1="467.028" x2="-2055.1936" y2="467.028" gradientTransform="matrix(0.156 -55.1698 -95.2476 -0.2693 44851.8047 -113278.7188)">
					<stop  offset="0" style="stop-color:#5356CF"/>
					<stop  offset="1" style="stop-color:#95F7FF"/>
				</linearGradient>
				<path id="Ellipse_552" class="st55" d="M0.2,27.6c0-15.2,21.4-27.5,47.7-27.5s47.6,12.5,47.5,27.7S74,55.4,47.7,55.3
					S0.1,42.8,0.2,27.6z"/>
			</g>
		</g>
		<g id="Group_17585" transform="translate(10.453)">
			
				<linearGradient id="Path_12524_1_" gradientUnits="userSpaceOnUse" x1="-2064.3323" y1="480.3033" x2="-2063.3323" y2="480.3033" gradientTransform="matrix(74.4061 0 0 -34.361 153598.9688 16542.252)">
				<stop  offset="0" style="stop-color:#5356CF"/>
				<stop  offset="1" style="stop-color:#9373FB"/>
			</linearGradient>
			<path id="Path_12524" class="st56" d="M74.5,22.4c0,0.2,0,0.4,0,0.6s0,0.3-0.1,0.5c0,0.2-0.1,0.4-0.1,0.6s-0.1,0.3-0.1,0.5
				s-0.1,0.4-0.1,0.5c0,0.2-0.1,0.3-0.1,0.5c-0.1,0.2-0.1,0.4-0.2,0.5c-0.1,0.2-0.1,0.3-0.2,0.5s-0.2,0.4-0.2,0.6
				c-0.1,0.2-0.1,0.3-0.2,0.5s-0.2,0.4-0.3,0.6c-0.1,0.2-0.2,0.3-0.3,0.4c-0.1,0.2-0.3,0.4-0.4,0.7c-0.1,0.1-0.2,0.3-0.3,0.4
				c-0.2,0.2-0.3,0.5-0.5,0.7c-0.1,0.1-0.2,0.2-0.2,0.3c-0.3,0.4-0.6,0.8-1,1.1c-0.1,0.1-0.2,0.2-0.3,0.3c-0.3,0.3-0.5,0.6-0.8,0.8
				c-0.1,0.1-0.3,0.3-0.4,0.4c-0.2,0.2-0.4,0.3-0.5,0.5s-0.3,0.3-0.5,0.4c-0.2,0.2-0.4,0.3-0.6,0.5c-0.2,0.1-0.4,0.3-0.6,0.4
				c-0.2,0.1-0.4,0.3-0.6,0.4c-0.2,0.1-0.4,0.3-0.6,0.4c-0.2,0.1-0.4,0.3-0.7,0.4c-0.3,0.2-0.6,0.4-0.9,0.5
				c-0.6,0.3-1.1,0.6-1.7,0.9c-0.2,0.1-0.3,0.2-0.5,0.3c-0.5,0.2-0.9,0.4-1.4,0.6c-0.2,0.1-0.3,0.1-0.5,0.2
				c-0.6,0.3-1.2,0.5-1.9,0.8l-0.3,0.1c-0.5,0.2-1.1,0.4-1.6,0.6c-0.2,0.1-0.5,0.1-0.7,0.2c-0.3,0.1-0.6,0.2-0.9,0.3
				c-0.3,0.1-0.5,0.1-0.8,0.2c-0.3,0.1-0.6,0.2-0.9,0.2c-0.3,0.1-0.5,0.1-0.8,0.2c-0.3,0.1-0.6,0.1-0.9,0.2
				c-0.3,0.1-0.5,0.1-0.8,0.2c-0.3,0.1-0.6,0.1-1,0.2c-0.2,0-0.5,0.1-0.7,0.1c-0.7,0.1-1.4,0.2-2.1,0.3c-0.1,0-0.2,0-0.3,0
				c-0.6,0.1-1.2,0.2-1.9,0.2c-0.2,0-0.5,0-0.7,0.1c-0.4,0-0.8,0.1-1.2,0.1c-0.3,0-0.5,0-0.8,0.1c-0.4,0-0.8,0-1.2,0.1
				c-0.2,0-0.5,0-0.7,0c-0.4,0-0.7,0-1.1,0c-0.3,0-0.5,0-0.8,0c-0.4,0-0.8,0-1.2,0c-0.2,0-0.5,0-0.7,0c-0.4,0-0.7,0-1.1,0
				c-0.2,0-0.5,0-0.7,0c-0.4,0-0.8,0-1.1-0.1c-0.2,0-0.4,0-0.7,0c-0.5,0-0.9-0.1-1.4-0.1c-0.1,0-0.3,0-0.4,0
				c-0.6-0.1-1.2-0.1-1.8-0.2c-0.1,0-0.2,0-0.3,0c-0.5-0.1-1-0.1-1.5-0.2c-0.2,0-0.4-0.1-0.6-0.1c-0.4-0.1-0.8-0.1-1.1-0.2
				c-0.2,0-0.4-0.1-0.6-0.1c-0.4-0.1-0.8-0.2-1.2-0.3c-0.2-0.1-0.5-0.1-0.7-0.2c-0.4-0.1-0.8-0.2-1.1-0.3c-0.2-0.1-0.4-0.1-0.6-0.2
				c-0.6-0.2-1.2-0.4-1.8-0.5c-0.1,0-0.2-0.1-0.3-0.1c-0.7-0.2-1.3-0.5-2-0.7c-0.1-0.1-0.3-0.1-0.4-0.2c-0.8-0.3-1.7-0.7-2.5-1.1
				c-0.1,0-0.2-0.1-0.2-0.1c-0.8-0.4-1.7-0.8-2.4-1.3c-7.3-4.2-11-9.8-11-15.3v12.5c0,5.5,3.6,11.1,11,15.3c0.8,0.5,1.6,0.9,2.4,1.3
				c0.1,0,0.2,0.1,0.2,0.1c0.8,0.4,1.6,0.7,2.5,1.1c0.1,0,0.1,0.1,0.2,0.1s0.1,0,0.2,0.1c0.6,0.3,1.3,0.5,2,0.7
				c0.1,0,0.2,0.1,0.3,0.1c0.6,0.2,1.2,0.4,1.8,0.5c0.1,0,0.2,0.1,0.3,0.1c0.1,0,0.2,0.1,0.3,0.1c0.4,0.1,0.7,0.2,1.1,0.3
				c0.2,0.1,0.5,0.1,0.7,0.2c0.4,0.1,0.8,0.2,1.2,0.3c0.2,0,0.3,0.1,0.5,0.1h0.1c0.4,0.1,0.8,0.1,1.1,0.2c0.2,0,0.4,0.1,0.6,0.1
				c0.5,0.1,1,0.2,1.5,0.2c0.1,0,0.2,0,0.3,0l0,0c0.6,0.1,1.2,0.2,1.8,0.2c0.1,0,0.3,0,0.4,0c0.5,0,0.9,0.1,1.4,0.1l0,0
				c0.2,0,0.4,0,0.6,0c0.4,0,0.8,0.1,1.1,0.1c0.2,0,0.5,0,0.7,0c0.4,0,0.7,0,1.1,0h0.1c0.2,0,0.4,0,0.6,0c0.4,0,0.8,0,1.2,0
				c0.3,0,0.5,0,0.8,0c0.4,0,0.7,0,1.1,0h0.2c0.2,0,0.3,0,0.5,0c0.4,0,0.8,0,1.2-0.1c0.3,0,0.5,0,0.8-0.1c0.4,0,0.8-0.1,1.2-0.1
				c0.1,0,0.3,0,0.4,0c0.1,0,0.2,0,0.3,0c0.6-0.1,1.2-0.1,1.9-0.2c0.1,0,0.2,0,0.3,0c0.7-0.1,1.4-0.2,2.1-0.3c0.1,0,0.1,0,0.2,0
				c0.2,0,0.4-0.1,0.5-0.1c0.3-0.1,0.6-0.1,1-0.2c0.3-0.1,0.5-0.1,0.8-0.2c0.3-0.1,0.6-0.1,0.9-0.2c0.3-0.1,0.5-0.1,0.8-0.2
				c0.3-0.1,0.6-0.2,0.9-0.2c0.3-0.1,0.5-0.1,0.8-0.2c0.3-0.1,0.6-0.2,0.9-0.3c0.1,0,0.3-0.1,0.4-0.1c0.1,0,0.2-0.1,0.3-0.1
				c0.5-0.2,1.1-0.4,1.6-0.6c0.1,0,0.2-0.1,0.3-0.1c0.6-0.2,1.2-0.5,1.9-0.8c0.2-0.1,0.3-0.1,0.5-0.2c0.5-0.2,0.9-0.4,1.4-0.6
				c0.2-0.1,0.3-0.2,0.5-0.3c0.6-0.3,1.2-0.6,1.7-0.9c0.2-0.1,0.3-0.2,0.5-0.3c0.2-0.1,0.3-0.2,0.4-0.3c0.2-0.1,0.5-0.3,0.7-0.4
				c0.2-0.1,0.4-0.3,0.6-0.4c0.2-0.1,0.4-0.3,0.6-0.4c0.2-0.1,0.4-0.3,0.6-0.4c0.2-0.2,0.4-0.3,0.6-0.5s0.3-0.3,0.5-0.4
				s0.4-0.3,0.5-0.5c0.1-0.1,0.2-0.1,0.2-0.2s0.1-0.1,0.2-0.2c0.3-0.3,0.6-0.6,0.8-0.8c0.1-0.1,0.2-0.2,0.3-0.3
				c0.3-0.4,0.7-0.7,1-1.1l0,0c0.1-0.1,0.1-0.2,0.2-0.3c0.2-0.2,0.4-0.5,0.5-0.7c0.1-0.1,0.2-0.3,0.3-0.4c0.1-0.2,0.3-0.4,0.4-0.7
				c0-0.1,0.1-0.1,0.1-0.2c0-0.1,0.1-0.2,0.1-0.3c0.1-0.2,0.2-0.4,0.3-0.6c0.1-0.2,0.1-0.3,0.2-0.5s0.2-0.4,0.2-0.6
				c0-0.1,0.1-0.2,0.1-0.3s0-0.2,0.1-0.2c0.1-0.2,0.1-0.4,0.2-0.5c0-0.2,0.1-0.3,0.1-0.5S74,37.1,74,37s0.1-0.2,0.1-0.3s0-0.1,0-0.2
				c0-0.2,0.1-0.4,0.1-0.6c0-0.2,0-0.3,0.1-0.5c0-0.2,0-0.4,0-0.6c0-0.1,0-0.2,0-0.3s0-0.2,0-0.3l0.1-12.7
				C74.5,21.9,74.5,22.2,74.5,22.4z"/>
			<g id="Group_17584" transform="translate(0.035)">
				
					<linearGradient id="Ellipse_553_1_" gradientUnits="userSpaceOnUse" x1="-2088.4861" y1="469.5772" x2="-2089.5879" y2="470.7274" gradientTransform="matrix(0.1217 -43.0398 -74.3057 -0.2101 35220.3203 -89787.9219)">
					<stop  offset="0" style="stop-color:#4F24FF"/>
					<stop  offset="1" style="stop-color:#13D9E2"/>
				</linearGradient>
				<path id="Ellipse_553" class="st57" d="M0.2,21.5C0.2,9.6,16.9,0,37.4,0.1s37.1,9.7,37.1,21.6S57.8,43.2,37.3,43.1
					S0.1,33.4,0.2,21.5z"/>
			</g>
		</g>
		<g id="Group_17586" transform="translate(26.445 7.504)">
			<path id="Path_12525" class="st17" d="M39.7,9.5c4.4,2.5,5.1,6.6-0.1,10.9l4.5,2.6l-5.7,3.3l-4.3-2.5c-4.2,2.2-8.6,3.6-13.3,4.4
				l-3.9-5.8c4.2-0.6,8.2-1.9,12-3.9c2.7-1.6,3.1-2.5,2.1-3c-3.6-2.1-16.4,8.7-27,2.6c-4.6-2.7-5.2-6.8,0.5-11.2L0.1,4.2l5.7-3.3
				l4.4,2.5c3.3-1.6,6.9-2.8,10.6-3.4l4.1,5.7c-3.5,0.6-6.9,1.7-10,3.4c-2.8,1.6-2.9,2.6-1.9,3.2C16.4,14.2,29.2,3.5,39.7,9.5z"/>
		</g>
	</g>
</g>
</svg>
