<svg xmlns="http://www.w3.org/2000/svg" width="139.078" height="65.053" viewBox="0 0 139.078 65.053">
  <g id="Group_1484" data-name="Group 1484" transform="translate(-626 -2352.749)">
    <g id="mm-logo" transform="translate(676.566 2352.874)">
      <path id="Path_1925" data-name="Path 1925" d="M34.636,1,19.824,11.96,22.579,5.5Z" transform="translate(1.405 -1)" fill="#e17726" stroke="#e17726" stroke-linecap="round" stroke-linejoin="round" stroke-width="0.25"/>
      <path id="Path_1926" data-name="Path 1926" d="M2.663,1l14.68,11.062L14.72,5.5Z" transform="translate(-0.788 -1)" fill="#e27625" stroke="#e27625" stroke-linecap="round" stroke-linejoin="round" stroke-width="0.25"/>
      <path id="Path_1927" data-name="Path 1927" d="M28.676,23.533l-3.941,6.021,8.439,2.323,2.417-8.212Z" transform="translate(2.032 1.878)" fill="#e27625" stroke="#e27625" stroke-linecap="round" stroke-linejoin="round" stroke-width="0.25"/>
      <path id="Path_1928" data-name="Path 1928" d="M1.273,23.665l2.4,8.212L12.1,29.554,8.173,23.533Z" transform="translate(-0.965 1.878)" fill="#e27625" stroke="#e27625" stroke-linecap="round" stroke-linejoin="round" stroke-width="0.25"/>
      <path id="Path_1929" data-name="Path 1929" d="M10.736,15.089,8.392,18.626l8.351.38-.278-8.987Z" transform="translate(-0.056 0.152)" fill="#e27625" stroke="#e27625" stroke-linecap="round" stroke-linejoin="round" stroke-width="0.25"/>
      <path id="Path_1930" data-name="Path 1930" d="M25.831,15.1,20.014,9.928l-.19,9.089,8.351-.38Z" transform="translate(1.405 0.14)" fill="#e27625" stroke="#e27625" stroke-linecap="round" stroke-linejoin="round" stroke-width="0.25"/>
      <path id="Path_1931" data-name="Path 1931" d="M10.873,29.532l5.054-2.44L11.577,23.7Z" transform="translate(0.261 1.9)" fill="#e27625" stroke="#e27625" stroke-linecap="round" stroke-linejoin="round" stroke-width="0.25"/>
      <path id="Path_1932" data-name="Path 1932" d="M20.266,27.092l5.04,2.44L24.617,23.7Z" transform="translate(1.461 1.9)" fill="#e27625" stroke="#e27625" stroke-linecap="round" stroke-linejoin="round" stroke-width="0.25"/>
      <path id="Path_1933" data-name="Path 1933" d="M25.306,29.149l-5.04-2.44.41,3.273-.044,1.388Z" transform="translate(1.461 2.284)" fill="#d5bfb2" stroke="#d5bfb2" stroke-linecap="round" stroke-linejoin="round" stroke-width="0.25"/>
      <path id="Path_1934" data-name="Path 1934" d="M10.873,29.149l4.688,2.221-.029-1.388.4-3.273Z" transform="translate(0.261 2.284)" fill="#d5bfb2" stroke="#d5bfb2" stroke-linecap="round" stroke-linejoin="round" stroke-width="0.25"/>
      <path id="Path_1935" data-name="Path 1935" d="M15.583,22.077l-4.19-1.227,2.959-1.359Z" transform="translate(0.328 1.362)" fill="#233447" stroke="#233447" stroke-linecap="round" stroke-linejoin="round" stroke-width="0.25"/>
      <path id="Path_1936" data-name="Path 1936" d="M20.513,22.077l1.231-2.586,2.974,1.359Z" transform="translate(1.493 1.362)" fill="#233447" stroke="#233447" stroke-linecap="round" stroke-linejoin="round" stroke-width="0.25"/>
      <path id="Path_1937" data-name="Path 1937" d="M11.318,29.554l.733-6.021-4.659.132Z" transform="translate(-0.184 1.878)" fill="#cc6228" stroke="#cc6228" stroke-linecap="round" stroke-linejoin="round" stroke-width="0.25"/>
      <path id="Path_1938" data-name="Path 1938" d="M24.1,23.533l.718,6.021,3.941-5.889Z" transform="translate(1.951 1.878)" fill="#cc6228" stroke="#cc6228" stroke-linecap="round" stroke-linejoin="round" stroke-width="0.25"/>
      <path id="Path_1939" data-name="Path 1939" d="M28.175,17.651l-8.351.38.776,4.282,1.231-2.587,2.974,1.359Z" transform="translate(1.405 1.127)" fill="#cc6228" stroke="#cc6228" stroke-linecap="round" stroke-linejoin="round" stroke-width="0.25"/>
      <path id="Path_1940" data-name="Path 1940" d="M11.776,21.085l2.959-1.359,1.231,2.587.776-4.282-8.351-.38Z" transform="translate(-0.056 1.127)" fill="#cc6228" stroke="#cc6228" stroke-linecap="round" stroke-linejoin="round" stroke-width="0.25"/>
      <path id="Path_1941" data-name="Path 1941" d="M8.392,17.651l3.5,6.824-.117-3.39Z" transform="translate(-0.056 1.127)" fill="#e27525" stroke="#e27525" stroke-linecap="round" stroke-linejoin="round" stroke-width="0.25"/>
      <path id="Path_1942" data-name="Path 1942" d="M24.256,21.085l-.132,3.39,3.5-6.824Z" transform="translate(1.954 1.127)" fill="#e27525" stroke="#e27525" stroke-linecap="round" stroke-linejoin="round" stroke-width="0.25"/>
      <path id="Path_1943" data-name="Path 1943" d="M15.885,17.987l-.777,4.282.982,5.056.22-6.663Z" transform="translate(0.802 1.17)" fill="#e27525" stroke="#e27525" stroke-linecap="round" stroke-linejoin="round" stroke-width="0.25"/>
      <path id="Path_1944" data-name="Path 1944" d="M19.871,17.987l-.41,2.66.205,6.678.982-5.056Z" transform="translate(1.358 1.17)" fill="#e27525" stroke="#e27525" stroke-linecap="round" stroke-linejoin="round" stroke-width="0.25"/>
      <path id="Path_1945" data-name="Path 1945" d="M20.624,21.923l-.982,5.056.7.5,4.351-3.39.132-3.39Z" transform="translate(1.381 1.516)" fill="#f5841f" stroke="#f5841f" stroke-linecap="round" stroke-linejoin="round" stroke-width="0.25"/>
      <path id="Path_1946" data-name="Path 1946" d="M11.393,20.7l.117,3.39,4.351,3.39.7-.5-.982-5.056Z" transform="translate(0.328 1.516)" fill="#f5841f" stroke="#f5841f" stroke-linecap="round" stroke-linejoin="round" stroke-width="0.25"/>
      <path id="Path_1947" data-name="Path 1947" d="M21.832,31.093l.044-1.388-.381-.322H15.9l-.366.322.029,1.388-4.688-2.221,1.641,1.344,3.326,2.294h5.7l3.34-2.294,1.626-1.344Z" transform="translate(0.261 2.56)" fill="#c0ac9d" stroke="#c0ac9d" stroke-linecap="round" stroke-linejoin="round" stroke-width="0.25"/>
      <path id="Path_1948" data-name="Path 1948" d="M20.938,26.764l-.7-.5H16.1l-.7.5L15,30.038l.366-.322h5.6l.381.322Z" transform="translate(0.789 2.228)" fill="#161616" stroke="#161616" stroke-linecap="round" stroke-linejoin="round" stroke-width="0.25"/>
      <path id="Path_1949" data-name="Path 1949" d="M35.209,12.676l1.245-6.05L34.579,1,20.266,11.594l5.509,4.647,7.779,2.265,1.714-2-.747-.541,1.187-1.081-.908-.7,1.187-.906Z" transform="translate(1.461 -1)" fill="#763e1a" stroke="#763e1a" stroke-linecap="round" stroke-linejoin="round" stroke-width="0.25"/>
      <path id="Path_1950" data-name="Path 1950" d="M1,6.626l1.26,6.05-.806.6,1.2.906-.908.7,1.187,1.081-.747.541,1.714,2,7.78-2.265,5.509-4.647L2.875,1Z" transform="translate(-1 -1)" fill="#763e1a" stroke="#763e1a" stroke-linecap="round" stroke-linejoin="round" stroke-width="0.25"/>
      <path id="Path_1951" data-name="Path 1951" d="M33.061,16.78l-7.779-2.265,2.344,3.536-3.5,6.824,4.63-.058h6.915Z" transform="translate(1.954 0.726)" fill="#f5841f" stroke="#f5841f" stroke-linecap="round" stroke-linejoin="round" stroke-width="0.25"/>
      <path id="Path_1952" data-name="Path 1952" d="M11.645,14.515,3.866,16.78,1.273,24.817h6.9l4.63.058L9.3,18.051Z" transform="translate(-0.965 0.726)" fill="#f5841f" stroke="#f5841f" stroke-linecap="round" stroke-linejoin="round" stroke-width="0.25"/>
      <path id="Path_1953" data-name="Path 1953" d="M20.651,19.648l.5-8.563L23.4,4.991H13.354l2.256,6.094.5,8.563.19,2.689.015,6.649h4.131l.015-6.649Z" transform="translate(0.578 -0.49)" fill="#f5841f" stroke="#f5841f" stroke-linecap="round" stroke-linejoin="round" stroke-width="0.25"/>
    </g>
    <g id="Group_1483" data-name="Group 1483" transform="translate(626 2400.296)">
      <path id="Path_1917" data-name="Path 1917" d="M152.243,17.646c-1-.658-2.1-1.125-3.135-1.71a13.365,13.365,0,0,1-1.978-1.2,1.99,1.99,0,0,1,.249-3.127c1.494-.994,3.97-.438,4.234,1.593a.082.082,0,0,0,.088.073h2.257a.082.082,0,0,0,.088-.1,4.44,4.44,0,0,0-1.656-3.317,5.251,5.251,0,0,0-3.195-1.1c-5.962,0-6.5,6.3-3.3,8.286.367.234,3.516,1.812,4.63,2.5a2.281,2.281,0,0,1,.981,2.937,2.887,2.887,0,0,1-2.725,1.461,2.7,2.7,0,0,1-2.55-1.8,3.18,3.18,0,0,1-.088-.716.094.094,0,0,0-.088-.088h-2.446a.094.094,0,0,0-.088.088,3.912,3.912,0,0,0,1.641,3.639,5.889,5.889,0,0,0,3.634,1.2c3.34,0,5.069-1.885,5.42-3.843A4.524,4.524,0,0,0,152.243,17.646Z" transform="translate(-35.55 -8.762)" fill="#161616"/>
      <path id="Path_1918" data-name="Path 1918" d="M58.242,9.047H55.971a.1.1,0,0,0-.088.058L53.876,15.71a.092.092,0,0,1-.176,0L51.693,9.105a.08.08,0,0,0-.088-.058H47.869a.094.094,0,0,0-.088.088V26a.094.094,0,0,0,.088.088h2.447A.094.094,0,0,0,50.4,26V13.182a.091.091,0,0,1,.176-.029L52.6,19.8l.146.468a.08.08,0,0,0,.088.059h1.875a.1.1,0,0,0,.088-.059l.146-.468,2.022-6.649a.09.09,0,0,1,.176.029V26a.094.094,0,0,0,.088.088h2.447A.094.094,0,0,0,59.765,26V9.135a.094.094,0,0,0-.088-.088Z" transform="translate(-47.781 -8.725)" fill="#161616"/>
      <path id="Path_1919" data-name="Path 1919" d="M118.963,9.047a.1.1,0,0,0-.088.058l-2.006,6.605a.092.092,0,0,1-.176,0l-2.007-6.605a.08.08,0,0,0-.088-.058h-3.722a.094.094,0,0,0-.088.088V26a.094.094,0,0,0,.088.088h2.447a.094.094,0,0,0,.088-.088V13.182a.091.091,0,0,1,.176-.029l2.021,6.649.147.468a.08.08,0,0,0,.088.059h1.875a.1.1,0,0,0,.088-.059l.147-.468,2.022-6.649a.09.09,0,0,1,.176.029V26a.094.094,0,0,0,.088.088h2.446a.094.094,0,0,0,.088-.088V9.135a.094.094,0,0,0-.088-.088Z" transform="translate(-39.732 -8.725)" fill="#161616"/>
      <path id="Path_1920" data-name="Path 1920" d="M91.374,9.047H79.814a.094.094,0,0,0-.088.088v2.1a.094.094,0,0,0,.088.088h4.468V26a.094.094,0,0,0,.088.088h2.447A.094.094,0,0,0,86.905,26V11.327h4.468a.094.094,0,0,0,.088-.088v-2.1A.084.084,0,0,0,91.374,9.047Z" transform="translate(-43.7 -8.725)" fill="#161616"/>
      <path id="Path_1921" data-name="Path 1921" d="M104.013,26.092h2.226a.094.094,0,0,0,.088-.117l-4.6-16.922a.08.08,0,0,0-.088-.058H98.445a.1.1,0,0,0-.088.058l-4.6,16.922a.094.094,0,0,0,.088.117h2.227a.1.1,0,0,0,.088-.058l1.333-4.925a.08.08,0,0,1,.088-.058H102.5a.1.1,0,0,1,.088.058l1.333,4.925A.121.121,0,0,0,104.013,26.092Zm-5.846-7.453,1.787-6.591a.092.092,0,0,1,.176,0l1.787,6.591a.094.094,0,0,1-.088.117H98.255A.094.094,0,0,1,98.167,18.639Z" transform="translate(-41.908 -8.732)" fill="#161616"/>
      <path id="Path_1922" data-name="Path 1922" d="M137.686,26.092h2.226a.094.094,0,0,0,.088-.117L135.4,9.053a.08.08,0,0,0-.088-.058h-3.194a.1.1,0,0,0-.088.058l-4.6,16.922a.094.094,0,0,0,.088.117h2.227a.1.1,0,0,0,.088-.058l1.333-4.925a.08.08,0,0,1,.088-.058h4.923a.1.1,0,0,1,.088.058l1.333,4.925A.1.1,0,0,0,137.686,26.092Zm-5.846-7.453,1.787-6.591a.092.092,0,0,1,.176,0l1.787,6.591a.094.094,0,0,1-.088.117h-3.575A.094.094,0,0,1,131.84,18.639Z" transform="translate(-37.607 -8.732)" fill="#161616"/>
      <path id="Path_1923" data-name="Path 1923" d="M67.513,23.585V18.354a.094.094,0,0,1,.088-.088H74.12a.094.094,0,0,0,.088-.088v-2.1a.094.094,0,0,0-.088-.088H67.6a.094.094,0,0,1-.088-.088V11.427a.094.094,0,0,1,.088-.088h7.413a.094.094,0,0,0,.088-.088v-2.1a.094.094,0,0,0-.088-.088H64.979a.094.094,0,0,0-.088.088V26a.094.094,0,0,0,.088.088H75.322A.094.094,0,0,0,75.41,26V23.775a.094.094,0,0,0-.088-.088H67.586A.1.1,0,0,1,67.513,23.585Z" transform="translate(-45.594 -8.723)" fill="#161616"/>
      <path id="Path_1924" data-name="Path 1924" d="M172.588,25.938l-8.468-8.724a.089.089,0,0,1,0-.117l7.619-7.891a.084.084,0,0,0-.059-.146h-3.12a.076.076,0,0,0-.059.029l-6.461,6.693a.085.085,0,0,1-.147-.059V9.147a.094.094,0,0,0-.088-.088h-2.447a.094.094,0,0,0-.088.088V26.011a.094.094,0,0,0,.088.088h2.447a.094.094,0,0,0,.088-.088V18.588c0-.073.1-.117.147-.059l7.325,7.54a.111.111,0,0,0,.059.029h3.12C172.6,26.084,172.647,25.982,172.588,25.938Z" transform="translate(-33.539 -8.723)" fill="#161616"/>
    </g>
  </g>
</svg>
