<?xml version="1.0" encoding="utf-8"?>
<!-- Generator: Adobe Illustrator 25.3.0, SVG Export Plug-In . SVG Version: 6.00 Build 0)  -->
<svg version="1.1" id="Layer_1" xmlns="http://www.w3.org/2000/svg" xmlns:xlink="http://www.w3.org/1999/xlink" x="0px" y="0px"
	 viewBox="0 0 632 505.9" style="enable-background:new 0 0 632 505.9;" xml:space="preserve">
<style type="text/css">
	.st0{fill:#0090FF;}
	.st1{fill:url(#Path_11672_1_);}
	.st2{fill:#3054EF;}
	.st3{fill:#FFFFFF;}
	.st4{opacity:0.51;fill:#3054EF;enable-background:new    ;}
	.st5{opacity:0.4;fill:#24126A;enable-background:new    ;}
	.st6{fill:#42E8E0;}
	.st7{opacity:0.3;}
	.st8{fill:url(#Path_11686_1_);}
	.st9{opacity:0.3;fill:#0F054C;enable-background:new    ;}
	.st10{fill:url(#Path_11688_1_);}
	.st11{fill:#0F054C;}
	.st12{opacity:0.4;fill:#3544F2;enable-background:new    ;}
	.st13{fill:url(#Path_11692_1_);}
	.st14{fill:url(#Path_11693_1_);}
	.st15{fill:url(#Path_11694_1_);}
	.st16{fill:url(#Path_11696_1_);}
	.st17{fill:url(#Path_11698_1_);}
	.st18{fill:url(#Path_11702_1_);}
	.st19{fill:url(#Path_11703_1_);}
	.st20{fill:url(#Path_11704_1_);}
	.st21{fill:#5351AF;}
	.st22{fill:url(#Path_11707_1_);}
	.st23{fill:url(#Path_11709_1_);}
	.st24{fill:url(#Path_11713_1_);}
	.st25{fill:url(#Path_11714_1_);}
	.st26{fill:url(#Path_11715_1_);}
	.st27{fill:url(#Path_11717_1_);}
	.st28{fill:url(#Path_11720_1_);}
	.st29{opacity:0.57;fill:url(#Path_11722_1_);enable-background:new    ;}
	.st30{fill:#9FFFF8;}
	.st31{opacity:0.2;}
	.st32{opacity:0.4;fill:#42E8E0;enable-background:new    ;}
	.st33{opacity:0.2;fill:#42E8E0;enable-background:new    ;}
</style>
<g id="Group_17141" transform="translate(-245.915 -34.035)">
	<g id="Group_17096" transform="translate(245.915 183.847)">
		<path id="Path_11671" class="st0" d="M185.4,305.5c-4.4,0.1-8.8-0.9-12.8-2.9L5.2,205.9c-3.4-1.9-5.2-4.6-5.2-7.6
			c0-3.6,2.7-7.1,7.3-9.8L326.6,4.1c8.7-5,21.9-5.6,29.4-1.2l167.4,96.6c3.4,1.9,5.2,4.6,5.2,7.6c0,3.6-2.7,7.1-7.3,9.8L202,301.3
			C196.9,304.1,191.2,305.5,185.4,305.5z M173,301.9c7.3,4.2,20.2,3.7,28.7-1.2l319.3-184.3c4.4-2.5,6.9-5.9,6.9-9.2
			c0-2.7-1.7-5.2-4.8-7L355.6,3.6c-7.3-4.2-20.2-3.7-28.7,1.2L7.7,189.1c-4.4,2.5-6.9,5.9-6.9,9.2c0,2.7,1.7,5.2,4.8,7L173,301.9z"
			/>
	</g>
	<g id="Group_17097" transform="translate(246.276 139.299)">
		
			<linearGradient id="Path_11672_1_" gradientUnits="userSpaceOnUse" x1="18.2269" y1="567.5607" x2="17.9979" y2="567.5607" gradientTransform="matrix(527.8459 0 0 -297.2717 -9292.668 168891)">
			<stop  offset="0" style="stop-color:#2436DB"/>
			<stop  offset="1" style="stop-color:#3560EE"/>
		</linearGradient>
		<path id="Path_11672" class="st1" d="M527.8,107.1l-24,4.1L355.4,25.6c-7.4-4.3-20.4-3.8-29,1.2L42.5,190.7L0,198V213h0
			c0,2.7,1.6,5.4,5,7.3L172.4,317c7.4,4.3,20.4,3.8,29-1.2l319.3-184.3c4.6-2.7,7-6.1,7.1-9.3h0V107.1z"/>
		<path id="Path_11673" class="st2" d="M172.4,301.9L5,205.2c-7.4-4.3-6.5-11.8,2.1-16.8L326.4,4.1c8.6-5,21.6-5.5,29-1.2
			l167.4,96.6c7.4,4.3,6.5,11.8-2.1,16.8L201.5,300.6C192.9,305.6,179.9,306.1,172.4,301.9z"/>
		<path id="Path_11674" class="st3" d="M520.7,116.3L201.5,300.6c-8.6,5-21.6,5.5-29,1.2L5,205.2c-3-1.7-4.6-4-4.9-6.4
			c-0.5,3.1,1.1,6.1,4.9,8.3l167.4,96.6c7.4,4.3,20.4,3.8,29-1.2l319.3-184.3c5.2-3,7.5-6.9,7-10.4
			C527.3,110.8,525,113.9,520.7,116.3z"/>
		<path id="Path_11675" class="st4" d="M172.8,298.1L11.3,204.9c-7.2-4.2-6.3-11.4,2-16.2L326.7,7.8c8.3-4.8,20.9-5.3,28.1-1.2
			l161.4,93.2c7.2,4.2,6.3,11.4-2,16.2L200.9,296.9C192.5,301.7,180,302.3,172.8,298.1z"/>
	</g>
	<path id="Path_11680" class="st5" d="M728,250.5c-2.8,1.4-6.1,1.4-8.9,0c-2.5-1.4-2.5-3.7,0-5.2c2.8-1.4,6.1-1.4,8.9,0
		C730.5,246.7,730.5,249,728,250.5z"/>
	<path id="Path_11681" class="st5" d="M694,225.6l17.5,10.1c2.1,1.2,1.9,3.4-0.6,4.8l0,0c-2.5,1.4-6.2,1.6-8.3,0.3L685,230.8
		c-2.1-1.2-1.9-3.4,0.6-4.8l0,0C688.1,224.6,691.8,224.4,694,225.6z"/>
	<path id="Path_11682" class="st5" d="M594.3,165.2l17.5,10.1c2.1,1.2,1.9,3.4-0.6,4.8l0,0c-2.5,1.4-6.2,1.6-8.3,0.3l-17.5-10.1
		c-2.1-1.2-1.9-3.4,0.6-4.8l0,0C588.5,164.1,592.2,163.9,594.3,165.2z"/>
	<path id="Path_11683" class="st6" d="M728,244.2c-2.8,1.4-6.1,1.4-8.9,0c-2.5-1.4-2.5-3.7,0-5.2c2.8-1.4,6.1-1.4,8.9,0
		C730.5,240.5,730.5,242.8,728,244.2z"/>
	<path id="Path_11684" class="st6" d="M694,219.4l17.5,10.1c2.1,1.2,1.9,3.4-0.6,4.8l0,0c-2.5,1.4-6.2,1.6-8.3,0.3L685,224.5
		c-2.1-1.2-1.9-3.4,0.6-4.8l0,0C688.1,218.3,691.8,218.2,694,219.4z"/>
	<path id="Path_11685" class="st6" d="M594.3,158.9l17.5,10.1c2.1,1.2,1.9,3.4-0.6,4.8l0,0c-2.5,1.4-6.2,1.6-8.3,0.3l-17.5-10.1
		c-2.1-1.2-1.9-3.4,0.6-4.8l0,0C588.5,157.8,592.2,157.7,594.3,158.9z"/>
	<g id="Group_17104" transform="translate(784.386 378.229)" class="st7">
		
			<linearGradient id="Path_11686_1_" gradientUnits="userSpaceOnUse" x1="-520.5645" y1="325.5636" x2="-519.7704" y2="324.4116" gradientTransform="matrix(93.532 0 0 -37.1992 48698.7109 12121.5059)">
			<stop  offset="0" style="stop-color:#BCBEFF"/>
			<stop  offset="0.227" style="stop-color:#AAADF7"/>
			<stop  offset="0.68" style="stop-color:#7B82E5"/>
			<stop  offset="1" style="stop-color:#5761D7"/>
		</linearGradient>
		<path id="Path_11686" class="st8" d="M93.5,35.1V27l-2.3-1.3c-0.6,3.8-5.2,6.4-8.9,6.9L56.6,47.7l-11.2,4.1L9.4,33.3l0.8-0.5
			c-3.1-1.4-4.7-4.7-6.4-7.7l-2.4,1.4L0,26.9v8.4l0,0c0,1.6,1.1,3.2,3.2,4.4l36,20.8c4.8,2.4,10.5,2.4,15.3,0l36-20.8
			c2.1-1.2,3.1-2.8,3.2-4.3C93.5,35.3,93.5,35.2,93.5,35.1L93.5,35.1z"/>
		<path id="Path_11687" class="st9" d="M82.3,32.7L56.6,47.7l-9.8,3.5v11c2.7,0.1,5.3-0.6,7.6-1.8l36-20.8c2.1-1.2,3.1-2.8,3.2-4.3
			c0-0.1,0-0.1,0-0.2h0V27l-2.1-1.1h-0.2C90.5,29.6,86.1,32.1,82.3,32.7z"/>
		<g id="Group_17102">
			
				<linearGradient id="Path_11688_1_" gradientUnits="userSpaceOnUse" x1="-520.6635" y1="326.0846" x2="-519.6635" y2="326.0846" gradientTransform="matrix(93.5284 0 0 -53.9977 48696.8398 17634.7988)">
				<stop  offset="0" style="stop-color:#E9E9FD"/>
				<stop  offset="0.36" style="stop-color:#D2D2F9"/>
				<stop  offset="0.706" style="stop-color:#C4C3F6"/>
				<stop  offset="1" style="stop-color:#C0BFF6"/>
			</linearGradient>
			<path id="Path_11688" class="st10" d="M39.1,52.2l-36-20.8c-4.2-2.4-4.2-6.4,0-8.8l36-20.8c4.8-2.4,10.5-2.4,15.3,0l36,20.8
				c4.2,2.4,4.2,6.4,0,8.8l-36,20.8C49.6,54.6,43.9,54.6,39.1,52.2z"/>
		</g>
		<g id="Group_17103" class="st7">
			<path id="Path_11689" class="st11" d="M39.1,52.2l-36-20.8c-4.2-2.4-4.2-6.4,0-8.8l36-20.8c4.8-2.4,10.5-2.4,15.3,0l36,20.8
				c4.2,2.4,4.2,6.4,0,8.8l-36,20.8C49.6,54.6,43.9,54.6,39.1,52.2z"/>
		</g>
	</g>
	<g id="Group_17111" transform="translate(784.386 323.607)">
		<g id="Group_17110">
			<path id="Path_11690" class="st0" d="M46.8,80.5c-2.4,0-4.7-0.5-6.8-1.6L4,58.2c-1.9-1.1-2.9-2.5-2.9-4.1s1-3,2.9-4.1l36-20.8
				c4.3-2.2,9.3-2.2,13.6,0l36,20.8c1.9,1.1,2.9,2.5,2.9,4.1s-1,3-2.9,4.1l-36,20.8C51.5,80,49.1,80.6,46.8,80.5z M46.8,28.2
				c-2.3,0-4.5,0.5-6.5,1.5l-36,20.8c-1.7,1-2.6,2.2-2.6,3.5s0.9,2.6,2.6,3.6l36,20.8c4.1,2.1,8.9,2.1,12.9,0l36-20.8
				c1.7-1,2.6-2.2,2.6-3.5s-0.9-2.6-2.6-3.5l-36-20.8C51.2,28.7,49,28.2,46.8,28.2L46.8,28.2z"/>
			<g id="Group_17109">
				<path id="Path_11691" class="st12" d="M93.5,46.1V33.8l-2.3-1.3c-0.6,3.8-5.2,6.4-8.9,6.9L56.6,54.5l-11.2,4.1L9.4,40l0.8-0.5
					c-3.1-1.4-4.7-4.7-6.4-7.7l-2.4,1.4L0,33.7v12.5l0,0c0,1.6,1.1,3.2,3.2,4.4l36,20.8c4.8,2.4,10.5,2.4,15.3,0l36-20.8
					c2.1-1.2,3.1-2.8,3.2-4.3C93.5,46.2,93.5,46.2,93.5,46.1L93.5,46.1z"/>
				<g id="Group_17108">
					<g id="Group_17107">
						
							<linearGradient id="Path_11692_1_" gradientUnits="userSpaceOnUse" x1="-520.0414" y1="379.3015" x2="-520.2704" y2="379.3015" gradientTransform="matrix(93.532 0 0 -37.1985 48698.7109 14153.1094)">
							<stop  offset="0" style="stop-color:#3054EF"/>
							<stop  offset="1" style="stop-color:#4970EF"/>
						</linearGradient>
						<path id="Path_11692" class="st13" d="M93.5,35.1V27l-2.3-1.3c-0.6,3.8-5.2,6.4-8.9,6.9L56.6,47.7l-11.2,4.1L9.4,33.3l0.8-0.5
							c-3.1-1.4-4.7-4.7-6.4-7.7l-2.4,1.4L0,26.9v8.4l0,0c0,1.6,1.1,3.2,3.2,4.4l36,20.8c4.8,2.4,10.5,2.4,15.3,0l36-20.8
							c2.1-1.2,3.1-2.8,3.2-4.3C93.5,35.3,93.5,35.2,93.5,35.1L93.5,35.1z"/>
						
							<linearGradient id="Path_11693_1_" gradientUnits="userSpaceOnUse" x1="-520.2339" y1="379.2054" x2="-520.4629" y2="379.2054" gradientTransform="matrix(46.7679 0 0 -36.423 24406.123 13855.8857)">
							<stop  offset="0" style="stop-color:#3054EF"/>
							<stop  offset="1" style="stop-color:#4970EF"/>
						</linearGradient>
						<path id="Path_11693" class="st14" d="M82.3,32.7L56.6,47.7l-9.8,3.5v11c2.7,0.1,5.3-0.6,7.6-1.8l36-20.8
							c2.1-1.2,3.1-2.8,3.2-4.3c0-0.1,0-0.1,0-0.2h0V27l-2.1-1.1h-0.2C90.5,29.6,86.1,32.1,82.3,32.7z"/>
						<g id="Group_17105">
							
								<linearGradient id="Path_11694_1_" gradientUnits="userSpaceOnUse" x1="-520.6635" y1="380.7067" x2="-519.6635" y2="380.7067" gradientTransform="matrix(93.5284 0 0 -53.9992 48696.8398 20584.8457)">
								<stop  offset="0" style="stop-color:#E9E9FD"/>
								<stop  offset="0.36" style="stop-color:#D2D2F9"/>
								<stop  offset="0.706" style="stop-color:#C4C3F6"/>
								<stop  offset="1" style="stop-color:#C0BFF6"/>
							</linearGradient>
							<path id="Path_11694" class="st15" d="M39.1,52.2l-36-20.8c-4.2-2.4-4.2-6.4,0-8.8l36-20.8c4.8-2.4,10.5-2.4,15.3,0l36,20.8
								c4.2,2.4,4.2,6.4,0,8.8l-36,20.8C49.6,54.6,43.9,54.6,39.1,52.2z"/>
						</g>
						<g id="Group_17106" transform="translate(0.003 27.508)">
							<path id="Path_11695" class="st3" d="M90.4,3.9l-36,20.8c-4.8,2.4-10.5,2.4-15.3,0L3.2,3.9C1.6,3.2,0.4,1.7,0,0
								c-0.2,1.8,0.8,3.6,3.1,4.9l36,20.8c4.8,2.4,10.5,2.4,15.3,0l36-20.8c2.3-1.3,3.4-3.2,3.1-4.9C93.1,1.7,92,3.2,90.4,3.9z"/>
						</g>
					</g>
				</g>
			</g>
		</g>
	</g>
	<g id="Group_17114" transform="translate(572.246 477.692)" class="st7">
		
			<linearGradient id="Path_11696_1_" gradientUnits="userSpaceOnUse" x1="-308.4244" y1="226.1007" x2="-307.6304" y2="224.9487" gradientTransform="matrix(93.528 0 0 -37.1994 28855.5762 8421.6016)">
			<stop  offset="0" style="stop-color:#BCBEFF"/>
			<stop  offset="0.227" style="stop-color:#AAADF7"/>
			<stop  offset="0.68" style="stop-color:#7B82E5"/>
			<stop  offset="1" style="stop-color:#5761D7"/>
		</linearGradient>
		<path id="Path_11696" class="st16" d="M93.5,35.1V27l-2.3-1.3c-0.6,3.8-5.2,6.4-8.9,6.9L56.6,47.7l-11.2,4.1L9.4,33.3l0.8-0.5
			c-3.1-1.4-4.7-4.7-6.4-7.7l-2.4,1.4L0,26.9v8.4l0,0c0,1.6,1.1,3.2,3.2,4.4l36,20.8c4.8,2.4,10.5,2.4,15.3,0l36-20.8
			c2.1-1.2,3.1-2.8,3.2-4.3C93.5,35.3,93.5,35.2,93.5,35.1L93.5,35.1z"/>
		<path id="Path_11697" class="st9" d="M82.3,32.7L56.6,47.7l-9.8,3.5v11c2.7,0.1,5.3-0.6,7.6-1.8l36-20.8c2.1-1.2,3.1-2.8,3.2-4.3
			c0-0.1,0-0.1,0-0.2h0V27l-2.1-1.1h-0.2C90.5,29.6,86.1,32.1,82.3,32.7z"/>
		<g id="Group_17112">
			
				<linearGradient id="Path_11698_1_" gradientUnits="userSpaceOnUse" x1="-308.5234" y1="226.6217" x2="-307.5234" y2="226.6217" gradientTransform="matrix(93.5285 0 0 -53.9987 28855.7246 12264.2812)">
				<stop  offset="0" style="stop-color:#E9E9FD"/>
				<stop  offset="0.36" style="stop-color:#D2D2F9"/>
				<stop  offset="0.706" style="stop-color:#C4C3F6"/>
				<stop  offset="1" style="stop-color:#C0BFF6"/>
			</linearGradient>
			<path id="Path_11698" class="st17" d="M39.1,52.2l-36-20.8c-4.2-2.4-4.2-6.4,0-8.8l36-20.8c4.8-2.4,10.5-2.4,15.3,0l36,20.8
				c4.2,2.4,4.2,6.4,0,8.8l-36,20.8C49.6,54.6,43.9,54.6,39.1,52.2z"/>
		</g>
		<g id="Group_17113" class="st7">
			<path id="Path_11699" class="st11" d="M39.1,52.2l-36-20.8c-4.2-2.4-4.2-6.4,0-8.8l36-20.8c4.8-2.4,10.5-2.4,15.3,0l36,20.8
				c4.2,2.4,4.2,6.4,0,8.8l-36,20.8C49.6,54.6,43.9,54.6,39.1,52.2z"/>
		</g>
	</g>
	<g id="Group_17122" transform="translate(572.246 419.106)">
		<g id="Group_17121">
			<path id="Path_11700" class="st0" d="M46.8,80.5c-2.4,0-4.7-0.5-6.8-1.6L4,58.2c-1.9-1.1-2.9-2.5-2.9-4.1s1-3,2.9-4.1l36-20.8
				c4.3-2.2,9.3-2.2,13.6,0l36,20.8c1.9,1.1,2.9,2.5,2.9,4.1s-1,3-2.9,4.1l-36,20.8C51.5,80,49.1,80.6,46.8,80.5z M40.3,78.4
				c4.1,2.1,8.9,2.1,12.9,0l36-20.8c1.7-1,2.6-2.2,2.6-3.5s-0.9-2.6-2.6-3.6l-36-20.8c-4.1-2.1-8.9-2.1-12.9,0l-36,20.8
				c-1.7,1-2.6,2.2-2.6,3.6s0.9,2.6,2.6,3.5L40.3,78.4z"/>
			<g id="Group_17120">
				<path id="Path_11701" class="st12" d="M93.5,46.1V33.8l-2.3-1.3c-0.6,3.8-5.2,6.4-8.9,6.9L56.6,54.5l-11.2,4.1L9.4,40l0.8-0.5
					c-3.1-1.4-4.7-4.7-6.4-7.7l-2.4,1.4L0,33.7v12.5l0,0c0,1.6,1.1,3.2,3.2,4.4l36,20.8c4.8,2.4,10.5,2.4,15.3,0l36-20.8
					c2.1-1.2,3.1-2.8,3.2-4.3C93.5,46.2,93.5,46.2,93.5,46.1L93.5,46.1z"/>
				<g id="Group_17119">
					<g id="Group_17118">
						
							<linearGradient id="Path_11702_1_" gradientUnits="userSpaceOnUse" x1="-307.9014" y1="283.8034" x2="-308.1304" y2="283.8034" gradientTransform="matrix(93.528 0 0 -37.2055 28855.5684 10602.7178)">
							<stop  offset="0" style="stop-color:#3054EF"/>
							<stop  offset="1" style="stop-color:#4970EF"/>
						</linearGradient>
						<path id="Path_11702" class="st18" d="M93.5,35.2V27l-2.3-1.3c-0.6,3.8-5.2,6.4-8.9,6.9L56.6,47.7l-11.2,4.1L9.4,33.3l0.8-0.5
							c-3.1-1.4-4.7-4.7-6.4-7.7l-2.4,1.4L0,26.9v8.4l0,0c0,1.6,1.1,3.2,3.2,4.4l36,20.8c4.8,2.4,10.5,2.4,15.3,0l36-20.8
							c2.1-1.2,3.1-2.8,3.2-4.3C93.5,35.3,93.5,35.2,93.5,35.2L93.5,35.2z"/>
						
							<linearGradient id="Path_11703_1_" gradientUnits="userSpaceOnUse" x1="-308.0939" y1="283.7074" x2="-308.3229" y2="283.7074" gradientTransform="matrix(46.764 0 0 -36.431 14483.5654 10379.8184)">
							<stop  offset="0" style="stop-color:#3054EF"/>
							<stop  offset="1" style="stop-color:#4970EF"/>
						</linearGradient>
						<path id="Path_11703" class="st19" d="M82.3,32.7L56.6,47.7l-9.8,3.5v11c2.7,0.1,5.3-0.6,7.6-1.8l36-20.8
							c2.1-1.2,3.1-2.8,3.2-4.3c0-0.1,0-0.1,0-0.2h0V27l-2.1-1.1h-0.2C90.5,29.6,86.1,32.1,82.3,32.7z"/>
						<g id="Group_17115">
							
								<linearGradient id="Path_11704_1_" gradientUnits="userSpaceOnUse" x1="-308.5234" y1="285.2077" x2="-307.5234" y2="285.2077" gradientTransform="matrix(93.5285 0 0 -53.9994 28855.7246 15428.0352)">
								<stop  offset="0" style="stop-color:#E9E9FD"/>
								<stop  offset="0.36" style="stop-color:#D2D2F9"/>
								<stop  offset="0.706" style="stop-color:#C4C3F6"/>
								<stop  offset="1" style="stop-color:#C0BFF6"/>
							</linearGradient>
							<path id="Path_11704" class="st20" d="M39.1,52.2l-36-20.8c-4.2-2.4-4.2-6.4,0-8.8l36-20.8c4.8-2.4,10.5-2.4,15.3,0l36,20.8
								c4.2,2.4,4.2,6.4,0,8.8l-36,20.8C49.6,54.6,43.9,54.6,39.1,52.2z"/>
						</g>
						<g id="Group_17116" transform="translate(9.914 5.597)">
							<path id="Path_11705" class="st21" d="M36.9,42.8c-2.1,0-4.2-0.5-6.1-1.5L2.6,25.1c-1.7-1-2.6-2.3-2.6-3.7s0.9-2.7,2.6-3.7
								L30.7,1.5c3.9-1.9,8.4-1.9,12.2,0l28.1,16.2c1.7,1,2.6,2.3,2.6,3.7s-0.9,2.7-2.6,3.7L43,41.3C41.1,42.3,39,42.8,36.9,42.8z
								 M31,40.8c3.7,1.8,8,1.8,11.6,0l28.1-16.2c1.5-0.9,2.3-2,2.3-3.2s-0.8-2.3-2.3-3.2L42.7,2C39,0.2,34.7,0.2,31,2L2.9,18.2
								c-1.5,0.9-2.3,2-2.3,3.2s0.8,2.3,2.3,3.2L31,40.8z"/>
						</g>
						<g id="Group_17117" transform="translate(0.002 27.507)">
							<path id="Path_11706" class="st3" d="M90.4,3.9l-36,20.8c-4.8,2.4-10.5,2.4-15.3,0L3.2,3.9C1.6,3.2,0.4,1.7,0,0
								c-0.2,1.8,0.8,3.6,3.1,4.9l36,20.8c4.8,2.4,10.5,2.4,15.3,0l36-20.8c2.3-1.3,3.4-3.2,3.1-4.9C93.1,1.7,92,3.2,90.4,3.9z"/>
						</g>
					</g>
				</g>
			</g>
		</g>
	</g>
	<g id="Group_17125" transform="translate(264.64 188.601)" class="st7">
		
			<linearGradient id="Path_11707_1_" gradientUnits="userSpaceOnUse" x1="-0.8185" y1="515.1917" x2="-2.448254e-02" y2="514.0396" gradientTransform="matrix(93.528 0 0 -37.1994 85.8109 19175.6055)">
			<stop  offset="0" style="stop-color:#BCBEFF"/>
			<stop  offset="0.227" style="stop-color:#AAADF7"/>
			<stop  offset="0.68" style="stop-color:#7B82E5"/>
			<stop  offset="1" style="stop-color:#5761D7"/>
		</linearGradient>
		<path id="Path_11707" class="st22" d="M93.5,35.1V27l-2.3-1.3c-0.6,3.8-5.2,6.4-8.9,6.9L56.6,47.7l-11.2,4.1L9.4,33.3l0.8-0.5
			c-3.1-1.4-4.7-4.7-6.4-7.7l-2.4,1.4L0,26.9v8.4l0,0c0,1.6,1.1,3.2,3.2,4.4l36,20.8c4.8,2.4,10.5,2.4,15.3,0l36-20.8
			c2.1-1.2,3.1-2.8,3.2-4.3C93.5,35.3,93.5,35.2,93.5,35.1L93.5,35.1z"/>
		<path id="Path_11708" class="st9" d="M82.3,32.7L56.6,47.7l-9.8,3.5v11c2.7,0.1,5.3-0.6,7.6-1.8l36-20.8c2.1-1.2,3.1-2.8,3.2-4.3
			c0-0.1,0-0.1,0-0.2h0V27l-2.1-1.1h-0.2C90.6,29.6,86.1,32.1,82.3,32.7z"/>
		<g id="Group_17123">
			
				<linearGradient id="Path_11709_1_" gradientUnits="userSpaceOnUse" x1="-0.9175" y1="515.7126" x2="8.252347e-02" y2="515.7126" gradientTransform="matrix(93.5285 0 0 -53.9989 85.8099 27874.9199)">
				<stop  offset="0" style="stop-color:#E9E9FD"/>
				<stop  offset="0.36" style="stop-color:#D2D2F9"/>
				<stop  offset="0.706" style="stop-color:#C4C3F6"/>
				<stop  offset="1" style="stop-color:#C0BFF6"/>
			</linearGradient>
			<path id="Path_11709" class="st23" d="M39.1,52.2l-36-20.8c-4.2-2.4-4.2-6.4,0-8.8l36-20.8c4.8-2.4,10.5-2.4,15.3,0l36,20.8
				c4.2,2.4,4.2,6.4,0,8.8l-36,20.8C49.6,54.6,43.9,54.6,39.1,52.2z"/>
		</g>
		<g id="Group_17124" class="st7">
			<path id="Path_11710" class="st11" d="M39.1,52.2l-36-20.8c-4.2-2.4-4.2-6.4,0-8.8l36-20.8c4.8-2.4,10.5-2.4,15.3,0l36,20.8
				c4.2,2.4,4.2,6.4,0,8.8l-36,20.8C49.6,54.6,43.9,54.6,39.1,52.2z"/>
		</g>
	</g>
	<g id="Group_17133" transform="translate(264.64 34.035)">
		<g id="Group_17132" transform="translate(0 101.312)">
			<path id="Path_11711" class="st0" d="M46.8,80.5c-2.4,0-4.7-0.5-6.8-1.6L4,58.2c-1.9-1.1-2.9-2.5-2.9-4.1s1-3,2.9-4.1l36-20.8
				c4.3-2.2,9.3-2.2,13.6,0l36,20.8c1.9,1.1,2.9,2.5,2.9,4.1s-1,3-2.9,4.1l-36,20.8C51.5,80,49.1,80.6,46.8,80.5z M46.8,28.2
				c-2.3,0-4.5,0.5-6.5,1.5l-36,20.8c-1.7,1-2.6,2.2-2.6,3.5s0.9,2.6,2.6,3.5l36,20.8c4.1,2.1,8.9,2.1,12.9,0l36-20.8
				c1.7-1,2.6-2.2,2.6-3.5s-0.9-2.6-2.6-3.5l-36-20.8C51.2,28.7,49,28.2,46.8,28.2L46.8,28.2z"/>
			<g id="Group_17131">
				<path id="Path_11712" class="st12" d="M93.5,46.1V33.8l-2.3-1.3c-0.6,3.8-5.2,6.4-8.9,6.9L56.6,54.5l-11.2,4.1L9.4,40l0.8-0.5
					c-3.1-1.4-4.7-4.7-6.4-7.7l-2.4,1.4L0,33.7v12.5l0,0c0,1.6,1.1,3.2,3.2,4.4l36,20.8c4.8,2.4,10.5,2.4,15.3,0l36-20.8
					c2.1-1.2,3.1-2.8,3.2-4.3C93.5,46.2,93.5,46.2,93.5,46.1L93.5,46.1z"/>
				<g id="Group_17130">
					<g id="Group_17129">
						
							<linearGradient id="Path_11713_1_" gradientUnits="userSpaceOnUse" x1="-0.2955" y1="567.5616" x2="-0.5245" y2="567.5616" gradientTransform="matrix(93.528 0 0 -37.1994 85.8109 21156.627)">
							<stop  offset="0" style="stop-color:#3054EF"/>
							<stop  offset="1" style="stop-color:#4970EF"/>
						</linearGradient>
						<path id="Path_11713" class="st24" d="M93.5,35.1V27l-2.3-1.3c-0.6,3.8-5.2,6.4-8.9,6.9L56.6,47.7l-11.2,4.1L9.4,33.3l0.8-0.5
							c-3.1-1.4-4.7-4.7-6.4-7.7l-2.4,1.4L0,26.9v8.4l0,0c0,1.6,1.1,3.2,3.2,4.4l36,20.8c4.8,2.4,10.5,2.4,15.3,0l36-20.8
							c2.1-1.2,3.1-2.8,3.2-4.3C93.5,35.3,93.5,35.2,93.5,35.1L93.5,35.1z"/>
						
							<linearGradient id="Path_11714_1_" gradientUnits="userSpaceOnUse" x1="-0.4879" y1="567.4669" x2="-0.7169" y2="567.4669" gradientTransform="matrix(46.768 0 0 -36.4349 98.6718 20719.6797)">
							<stop  offset="0" style="stop-color:#3054EF"/>
							<stop  offset="1" style="stop-color:#4970EF"/>
						</linearGradient>
						<path id="Path_11714" class="st25" d="M82.3,32.7L56.6,47.7l-9.8,3.5v11c2.7,0.1,5.3-0.6,7.6-1.8l36-20.8
							c2.1-1.2,3.1-2.8,3.2-4.3c0-0.1,0-0.1,0-0.2h0V27l-2.1-1.1h-0.2C90.6,29.6,86.1,32.1,82.3,32.7z"/>
						
							<linearGradient id="Path_11715_1_" gradientUnits="userSpaceOnUse" x1="-0.8176" y1="566.9337" x2="-6.062612e-02" y2="565.6947" gradientTransform="matrix(87.42 0 0 -30.824 85.2374 17483.0918)">
							<stop  offset="0.242" style="stop-color:#5761D7"/>
							<stop  offset="0.392" style="stop-color:#7A81E5"/>
							<stop  offset="0.546" style="stop-color:#979BF0"/>
							<stop  offset="0.7" style="stop-color:#ABAEF8"/>
							<stop  offset="0.852" style="stop-color:#B7BAFD"/>
							<stop  offset="1" style="stop-color:#BCBEFF"/>
						</linearGradient>
						<path id="Path_11715" class="st26" d="M10.2,32.8l34.1-19.7c1.5-0.8,3.4-0.8,4.9,0l33.5,19.3l-0.4,0.2
							c3.8-0.5,8.3-3.1,8.9-6.9L53.7,4.8L42.8,2l-8.9,5.2l-30,17.9C5.5,28.1,7.2,31.3,10.2,32.8z"/>
						<path id="Path_11716" class="st9" d="M46.8,3l-4-1.1l-8.9,5.2l-30,17.9c1.7,3,3.3,6.3,6.4,7.7l34.1-19.7
							c0.8-0.4,1.6-0.6,2.4-0.6L46.8,3z"/>
						<g id="Group_17126">
							
								<linearGradient id="Path_11717_1_" gradientUnits="userSpaceOnUse" x1="-0.9175" y1="568.9667" x2="8.252347e-02" y2="568.9667" gradientTransform="matrix(93.5285 0 0 -53.9988 85.8099 30750.5039)">
								<stop  offset="0" style="stop-color:#E9E9FD"/>
								<stop  offset="0.36" style="stop-color:#D2D2F9"/>
								<stop  offset="0.706" style="stop-color:#C4C3F6"/>
								<stop  offset="1" style="stop-color:#C0BFF6"/>
							</linearGradient>
							<path id="Path_11717" class="st27" d="M39.1,52.2l-36-20.8c-4.2-2.4-4.2-6.4,0-8.8l36-20.8c4.8-2.4,10.5-2.4,15.3,0l36,20.8
								c4.2,2.4,4.2,6.4,0,8.8l-36,20.8C49.6,54.6,43.9,54.6,39.1,52.2z M49.2,4.8c-1.5-0.8-3.4-0.8-4.9,0l-36,20.8
								c-1.3,0.8-1.3,2,0,2.8l36,20.8c1.5,0.8,3.4,0.8,4.9,0l36-20.8c1.3-0.8,1.3-2,0-2.8L49.2,4.8z"/>
						</g>
						<g id="Group_17127" transform="translate(0.002 4.236)">
							<path id="Path_11718" class="st3" d="M85.2,21.4l-36-20.8c-1.5-0.8-3.4-0.8-4.9,0l-36,20.8c-0.9,0.5-1.2,1.3-0.9,1.9
								c0.2-0.4,0.5-0.7,0.9-0.9l36-20.8c1.5-0.8,3.4-0.8,4.9,0l36,20.8c0.4,0.2,0.7,0.5,0.9,0.9C86.4,22.6,86.1,21.9,85.2,21.4z"/>
							<path id="Path_11719" class="st3" d="M90.4,27.2l-36,20.8c-4.8,2.4-10.5,2.4-15.3,0l-36-20.8C1.6,26.4,0.4,25,0,23.3
								c-0.2,1.8,0.8,3.6,3.1,4.9l36,20.8c4.8,2.4,10.5,2.4,15.3,0l36-20.8c2.3-1.3,3.4-3.2,3.1-4.9C93.1,25,92,26.4,90.4,27.2z"/>
						</g>
						<g id="Group_17128" transform="translate(1.436 0.828)">
							
								<linearGradient id="Path_11720_1_" gradientUnits="userSpaceOnUse" x1="-2.3596" y1="568.0401" x2="-1.3596" y2="568.0401" gradientTransform="matrix(90.6555 0 0 -52.3404 213.9093 29757.625)">
								<stop  offset="0" style="stop-color:#E9E9FD"/>
								<stop  offset="0.36" style="stop-color:#D2D2F9"/>
								<stop  offset="0.706" style="stop-color:#C4C3F6"/>
								<stop  offset="1" style="stop-color:#C0BFF6"/>
							</linearGradient>
							<path id="Path_11720" class="st28" d="M38.7,50.8L2.7,30c-3.7-2.1-3.7-5.5,0-7.6l36-20.8c4.2-2.1,9.1-2.1,13.2,0l36,20.8
								c3.7,2.1,3.7,5.5,0,7.6L52,50.8C47.8,52.9,42.9,52.9,38.7,50.8z M48.8,3.4c-2.2-1.1-4.7-1.1-6.9,0l-36,20.8
								c-1.9,1.1-1.9,2.9,0,4l36,20.8c2.2,1.1,4.7,1.1,6.9,0l36-20.8c1.9-1.1,1.9-2.9,0-4L48.8,3.4z"/>
						</g>
					</g>
					<path id="Path_11721" class="st12" d="M49.2,4.8c-1.5-0.8-3.4-0.8-4.9,0l-36,20.8c-1.3,0.8-1.3,2,0,2.8l36,20.8
						c1.5,0.8,3.4,0.8,4.9,0l36-20.8c1.3-0.8,1.3-2,0-2.8L49.2,4.8z"/>
				</g>
			</g>
		</g>
		
			<linearGradient id="Path_11722_1_" gradientUnits="userSpaceOnUse" x1="-0.4533" y1="671.7778" x2="-0.4533" y2="672.7778" gradientTransform="matrix(78.846 0 0 -151.0715 82.5041 101637.5781)">
			<stop  offset="0" style="stop-color:#83E4FE"/>
			<stop  offset="0.2973" style="stop-color:#83E4FE;stop-opacity:0.96"/>
			<stop  offset="0.6978" style="stop-color:#FFFFFF;stop-opacity:0.48"/>
			<stop  offset="1" style="stop-color:#FFFFFF;stop-opacity:0"/>
		</linearGradient>
		<path id="Path_11722" class="st29" d="M86.2,128.3V0H7.3l0,128.3c0,0.6,0.4,1.2,1,1.4l36,20.8c1.5,0.8,3.4,0.8,4.9,0l36-20.8
			C85.8,129.5,86.1,128.9,86.2,128.3z"/>
	</g>
	<g id="Group_17134" transform="translate(514.506 197.746)">
		<path id="Path_11723" class="st30" d="M82.8,66.7c0-20.3-14.2-44.9-31.8-55.1c-8.8-5.1-16.8-5.6-22.5-2.2l0,0l-6,3.5l1.7,0.2
			c-3.2,3.9-5,9.6-5,16.9c0,20.3,14.2,44.9,31.8,55.1c6,3.5,11.7,4.8,16.5,4.2l-0.1,1.6l6.1-3.6l0.1,0l0.2-0.1h0
			C79.4,83.7,82.8,76.7,82.8,66.7z"/>
		
			<ellipse id="Ellipse_490" transform="matrix(0.866 -0.5 0.5 0.866 -19.9372 29.4418)" class="st6" cx="45" cy="51.9" rx="26" ry="45"/>
	</g>
	<g id="Group_17135" transform="translate(470.676 95.556)">
		<path id="Path_11724" class="st30" d="M52.4,81.3C64.2,64.8,66.9,36.4,58.5,18C54.3,8.7,48,3.7,41.4,3.1l0,0l-6.9-0.6l1.3,1.1
			C31,5,26.2,8.5,21.9,14.5C10.1,31,7.4,59.3,15.8,77.8c2.9,6.3,6.7,10.7,11,13l-1,1.2l7,0.6l0.1,0l0.3,0l0,0
			C39.7,93.1,46.6,89.4,52.4,81.3z"/>
		
			<ellipse id="Ellipse_491" transform="matrix(9.561989e-02 -0.9954 0.9954 9.561989e-02 -19.7664 72.7287)" class="st6" cx="30.1" cy="47.2" rx="45" ry="26"/>
	</g>
	<g id="Group_17136" transform="translate(450.914 243.594)" class="st31">
		<path id="Path_11725" class="st30" d="M82.8,66.7c0-20.3-14.2-44.9-31.8-55.1c-8.8-5.1-16.8-5.6-22.5-2.2l0,0l-6,3.5l1.7,0.2
			c-3.2,3.9-5,9.6-5,16.9c0,20.3,14.2,44.9,31.8,55.1c6,3.5,11.7,4.8,16.5,4.2l-0.1,1.6l6.1-3.6l0.1,0l0.2-0.1h0
			C79.4,83.7,82.8,76.7,82.8,66.7z"/>
		
			<ellipse id="Ellipse_492" transform="matrix(0.866 -0.5 0.5 0.866 -19.9373 29.4406)" class="st6" cx="45" cy="51.9" rx="26" ry="45"/>
	</g>
	<path id="Path_11726" class="st32" d="M497.9,343.4c-21.9,0-43.9-4.8-60.6-14.5c-16.2-9.4-25.2-21.9-25.2-35.2s8.9-25.8,25.2-35.1
		c33.4-19.3,87.7-19.3,121.1,0c16.2,9.4,25.2,21.9,25.2,35.2c0,13.3-8.9,25.8-25.2,35.2l-0.2-0.3l0.2,0.3
		C541.8,338.6,519.9,343.4,497.9,343.4z M497.9,244.8c-21.8,0-43.6,4.8-60.3,14.4c-16,9.3-24.9,21.5-24.9,34.6
		c0,13.1,8.8,25.4,24.9,34.6c33.2,19.2,87.3,19.2,120.5,0l0,0c16-9.3,24.9-21.5,24.9-34.6s-8.8-25.3-24.9-34.6
		C541.6,249.6,519.8,244.8,497.9,244.8L497.9,244.8z"/>
	<path id="Path_11727" class="st33" d="M497.9,356.7c-27.8,0-55.7-6.1-76.9-18.4c-20.6-11.9-31.9-27.7-31.9-44.6
		s11.3-32.7,31.9-44.6c42.4-24.5,111.3-24.5,153.7,0c20.6,11.9,31.9,27.7,31.9,44.6s-11.3,32.7-31.9,44.6
		C553.6,350.6,525.8,356.7,497.9,356.7z M497.9,231.5c-27.7,0-55.4,6.1-76.5,18.3c-20.4,11.8-31.6,27.4-31.6,44
		c0,16.6,11.2,32.2,31.6,44c42.2,24.4,110.9,24.4,153.1,0c20.4-11.8,31.6-27.4,31.6-44c0-16.6-11.2-32.2-31.6-44
		C553.4,237.6,525.7,231.5,497.9,231.5L497.9,231.5z"/>
	<path id="Path_11728" class="st6" d="M497.9,332.9c-17.3,0-34.6-3.8-47.7-11.4c-12.8-7.4-19.9-17.2-19.9-27.7s7.1-20.3,19.9-27.7
		c26.3-15.2,69.1-15.2,95.5,0c12.8,7.4,19.9,17.2,19.9,27.7c0,10.5-7.1,20.3-19.9,27.7l-0.2-0.3l0.2,0.3
		C532.5,329.1,515.2,332.9,497.9,332.9z M497.9,255.3c-17.2,0-34.3,3.8-47.4,11.3c-12.6,7.3-19.5,16.9-19.5,27.2s6.9,19.9,19.5,27.2
		c26.1,15.1,68.7,15.1,94.8,0c12.6-7.3,19.5-16.9,19.5-27.2s-6.9-19.9-19.5-27.2C532.3,259.1,515.1,255.3,497.9,255.3L497.9,255.3z"
		/>
	<g>
		<path class="st30" d="M502,255.2c-8.8-5.1-16.8-5.5-22.5-2.2l-6,3.5l1.7,0.2c-3.2,3.9-5,9.6-5,16.9c0,2.4,0.2,4.8,0.6,7.3l57,32.9
			l6-3.5c0,0,0,0,0,0C533.8,290,519.5,265.4,502,255.2z"/>
		<path class="st6" d="M473.4,256.6c-6.2,3.6-9.3,11.1-9.3,20.5l63.6,36.7c0-9.4-3.1-20.5-9.3-31.2
			C505.9,261,485.8,249.4,473.4,256.6z"/>
	</g>
	<g id="Group_17140" transform="translate(310.108 307.245)">
		<path id="Path_11731" class="st5" d="M102.4,90.8L2.6,33.1c-2.1-1.2-2.8-3.9-1.6-6c0.4-0.7,0.9-1.2,1.6-1.6l15.2-8.9
			c5.1-2.9,11.4-2.9,16.5,0l99.9,57.7c2.1,1.2,2.8,3.9,1.6,6c-0.4,0.7-0.9,1.2-1.6,1.6l-15.2,8.9C113.8,93.7,107.5,93.7,102.4,90.8z
			"/>
		<path id="Path_11732" class="st0" d="M52.4,31.9l-16-9.2l3.2-1.8l16,9.2L52.4,31.9z"/>
		<path id="Path_11733" class="st0" d="M97.5,58.5l-4.9-2.8l3.2-1.8l4.9,2.8L97.5,58.5z"/>
		<path id="Path_11734" class="st0" d="M61.7,37.3l-4.9-2.8l3.2-1.8l4.9,2.8L61.7,37.3z"/>
		<path id="Path_11735" class="st0" d="M110.7,79.3c-3,0-5.9-0.8-8.4-2.2L2.4,19.4c-2.3-1.3-3.1-4.2-1.7-6.5c0.4-0.7,1-1.3,1.7-1.7
			l15.2-8.9c5.2-3,11.6-3,16.8,0l99.9,57.7c2.3,1.3,3.1,4.2,1.7,6.5c-0.4,0.7-1,1.3-1.7,1.7l-15.2,8.9
			C116.5,78.5,113.6,79.3,110.7,79.3z M26.1,0.7c-2.8,0-5.6,0.7-8.1,2.2L2.8,11.8c-1.9,1.1-2.6,3.6-1.5,5.5c0.4,0.6,0.9,1.1,1.5,1.5
			l99.9,57.7c5,2.9,11.1,2.9,16.1,0l15.2-8.9c1.9-1.1,2.6-3.6,1.5-5.5c-0.4-0.6-0.9-1.1-1.5-1.5L34.1,2.9
			C31.7,1.5,28.9,0.7,26.1,0.7L26.1,0.7z"/>
	</g>
</g>
</svg>
