<?xml version="1.0" encoding="utf-8"?>
<!-- Generator: Adobe Illustrator 25.3.0, SVG Export Plug-In . SVG Version: 6.00 Build 0)  -->
<svg version="1.1" id="Layer_1" xmlns="http://www.w3.org/2000/svg" xmlns:xlink="http://www.w3.org/1999/xlink" x="0px" y="0px"
	 viewBox="0 0 472.4 651.3" style="enable-background:new 0 0 472.4 651.3;" xml:space="preserve">
<style type="text/css">
	.st0{opacity:0.33;enable-background:new    ;}
	.st1{fill:#49A5EF;}
	.st2{fill:url(#Path_12291_1_);}
	.st3{fill:#D4ECFF;}
	.st4{fill:#FFFFFF;}
	.st5{fill:#5793CE;}
	.st6{fill:#EFEFEF;}
	.st7{fill:#E9F6FF;}
	.st8{fill:#AEDEED;}
	.st9{opacity:0.4;fill:#FFFFFF;enable-background:new    ;}
	.st10{fill:#B2D3EA;}
	.st11{fill:#396CAA;}
	.st12{opacity:0.17;fill:#49A5EF;}
	.st13{fill:#0A2042;}
	.st14{fill:#173D7A;}
	.st15{fill:url(#Path_12312_1_);}
	.st16{fill:#FFC2B0;}
	.st17{fill:url(#Path_12314_1_);}
	.st18{fill:url(#Path_12315_1_);}
	.st19{fill:url(#Union_6_1_);}
	.st20{fill:#EA9C92;}
	.st21{fill:url(#Path_12321_1_);}
	.st22{opacity:0.14;enable-background:new    ;}
	.st23{fill:url(#Path_12324_1_);}
	.st24{fill:url(#Path_12343_1_);}
	.st25{fill:url(#Union_7_1_);}
	.st26{fill:url(#Union_8_1_);}
	.st27{fill:#3054EF;}
	.st28{fill:#25FFFE;}
	.st29{fill:#3B62FF;}
</style>
<g id="Group_17472" transform="translate(-77.415 -47.852)">
	<path id="Path_12289" class="st0" d="M493.3,696.6L301.1,585.8c-6.7-3.9-5.8-10.6,1.9-15l0,0c7.7-4.4,19.4-4.9,26.1-1.1
		l192.2,110.8c6.7,3.9,5.8,10.6-1.9,15l0,0C511.6,699.9,500,700.4,493.3,696.6z"/>
	<path id="Path_12290" class="st1" d="M525.5,160.9L334.8,50.7c-6.3-3.6-12-3.7-16.3-1l0,0l-23.9,13.9l16,3c0,0.8-0.1,1.6-0.1,2.5
		V519c0,17.9,10.9,38.6,24.3,46.3l188.1,108.6c-1.7,5.4-5.4,16.7-5.4,16.7l23.4-13.6l0,0c5.4-2.8,8.9-9.8,8.9-19.9V207.2
		C549.8,189.4,538.9,168.6,525.5,160.9z"/>
	
		<linearGradient id="Path_12291_1_" gradientUnits="userSpaceOnUse" x1="17.166" y1="794.2015" x2="17.117" y2="794.2635" gradientTransform="matrix(239.262 0 0 -511.399 -3677.9458 406514.375)">
		<stop  offset="0" style="stop-color:#3054EF"/>
		<stop  offset="1" style="stop-color:#49A5EF"/>
	</linearGradient>
	<path id="Path_12291" class="st2" d="M310.5,519c0,17.9,10.9,38.6,24.3,46.3l188.1,108.6c-1.7,5.4-5.4,16.7-5.4,16.7l23.4-13.6l0,0
		c5.4-2.8,8.9-9.8,8.9-19.9V207.2c0-9.3-3-19.4-7.7-28L310.5,312.9V519z"/>
	<path id="Path_12292" class="st3" d="M501.5,689.4L310.7,579.3c-13.4-7.7-24.3-28.5-24.3-46.3V83c0-17.9,10.9-26.1,24.3-18.3
		l190.8,110.1c13.4,7.7,24.3,28.5,24.3,46.3v449.9C525.7,688.9,514.9,697.1,501.5,689.4z"/>
	<path id="Path_12293" class="st4" d="M504,173.2L313.2,63.1c-6.9-4-13.1-3.7-17.5-0.1c4.1-2,9.4-1.6,15.1,1.7l190.7,110.1
		c13.4,7.7,24.3,28.5,24.3,46.3v449.9c0,8.7-2.6,15-6.7,18.4c5.6-2.7,9.2-9.7,9.2-20V219.6C528.2,201.7,517.4,181,504,173.2z"/>
	<path id="Path_12294" class="st4" d="M497.9,674.5L314.6,568.7c-10-5.7-18-21.2-18-34.4V90.7c0-13.3,8.1-19.4,18-13.6l183.3,105.8
		c10,5.7,18,21.2,18,34.4v443.5C516,674.2,507.9,680.3,497.9,674.5z"/>
	<path id="Path_12295" class="st5" d="M499.4,673.9L316.2,568c-10-5.7-18-21.2-18-34.4V90.1c0-7.5,2.5-12.6,6.5-14.7
		c-4.8,1.5-8,7-8,15.4v443.5c0,13.3,8.1,28.7,18,34.4l183.3,105.8c4.4,2.5,8.4,2.8,11.5,1.1C506.6,676.5,503.1,676,499.4,673.9z"/>
	<path id="Path_12296" class="st6" d="M423,538.3l-90-51.9V267.7l42.4,24.5c29.4,17,47.6,48.4,47.6,82.4V538.3z"/>
	<g id="Group_17473" transform="translate(215.169 243.01)">
		<path id="Path_12297" class="st3" d="M85.6,3.5L85.6,3.5C76.6-1.9,64-1.2,50,6.8C22.4,22.7,0,61.6,0,93.5v23l0,0l0.9,0.6l90.1,53
			l1.4-27.5l1.1-10.7l4.8-16.6l0.5-2.5l10.2-20.7l8.1-10.1l6.5-7.8l15.9-12.6l1.4-1l7.8-3.4l10.5-2.7h8.2l9.2,1.6L85.6,3.5z"/>
		<path id="Path_12298" class="st3" d="M97.1,216.1l2.9-1.7V109.7c-1.5,2.1-2.2,4.7-2.9,7.4V216.1z"/>
		<path id="Path_12299" class="st3" d="M188.2,268.5l-91.1-52.5l0.9-99.1l3.5-10l10.5-18.1L124.6,74l11.2-9l12.2-7.4l22.1-2.5
			l11.7,6.6l6.5,10l2.1,15.3l-0.7,165.7L188.2,268.5z"/>
		<path id="Path_12300" class="st5" d="M85.7,3.5C78.1-1,68-1.3,56.7,3.5L149.5,57l10-2.6h8.2l9.2,1.6L85.7,3.5L85.7,3.5z"/>
		<g id="Group_17472-2" transform="translate(32.612 2.607)">
			<path id="Path_12301" class="st7" d="M26.3,0c-3.1,1.1-6.1,2.6-8.9,4.2c-2,1.2-4,2.5-6,3.9l92.5,53.4l3.2-2.5l1.4-1l7.8-3.4
				l3.1-0.8L26.3,0z"/>
			<path id="Path_12302" class="st4" d="M91.9,70.9l12.6-9.9L12,7.6c-4.3,3-8.3,6.5-12,10.2L91.9,70.9z"/>
			<path id="Path_12303" class="st5" d="M158.5,264.3l-2.9,1.7V87.2c0-30-21.1-42.2-47.1-27.2s-47.1,51.6-47.1,81.6v24.1l-2.9,1.7
				v-24.1c0-31.9,22.4-70.7,50-86.6s50-3,50,28.9L158.5,264.3z"/>
		</g>
	</g>
	<path id="Path_12304" class="st8" d="M242.8,319.4l-5.1,21l2.6,33.9l-6.5-3.8l-8.3-18.4l7.3-23.3L242.8,319.4z"/>
	<g id="Group_17475" transform="translate(320.398 352.447)">
		<path id="Path_12305" class="st9" d="M71.4,101.1c-0.6,0-1.2-0.2-1.7-0.5L3.5,62.3C1.3,60.8,0,58.4,0,55.8V3.7
			c-0.1-1.3,0.5-2.6,1.6-3.3c0.9-0.5,2.1-0.4,3,0.2l66.2,38.2c2.1,1.5,3.4,3.9,3.5,6.6v52.1c0.1,1.3-0.5,2.6-1.6,3.3
			C72.3,100.9,71.9,101.1,71.4,101.1z M2.8,2.1c-0.1,0-0.2,0-0.2,0.1C2.4,2.3,2.1,2.8,2.1,3.7v52.1c0,1.9,0.9,3.6,2.4,4.7l66.2,38.2
			c0.2,0.1,0.6,0.3,0.9,0.2c0.2-0.1,0.5-0.6,0.5-1.5V45.3c0-1.9-0.9-3.6-2.4-4.7L3.5,2.3C3.3,2.2,3.1,2.2,2.8,2.1z"/>
		<g id="Group_17474" transform="translate(20.449 30.624)">
			<path id="Path_12306" class="st10" d="M3.6,33.8l-0.5-0.3c-1.9-1.4-3.1-3.6-3.1-6V2.7c0-2.3,1.4-3.4,3.1-2.4l0.5,0.3
				c1.9,1.4,3.1,3.6,3.1,6v24.8C6.7,33.8,5.3,34.8,3.6,33.8z"/>
			<path id="Path_12307" class="st10" d="M16.9,41.5l-0.5-0.3c-1.9-1.4-3.1-3.6-3.1-6V20.7c0-2.3,1.4-3.4,3.1-2.4l0.5,0.3
				c1.9,1.4,3.1,3.6,3.1,6v14.5C20,41.4,18.6,42.5,16.9,41.5z"/>
			<path id="Path_12308" class="st11" d="M30.2,49.2l-0.5-0.3c-1.9-1.4-3.1-3.6-3.1-6V8.4C26.6,6.1,28,5,29.8,6l0.5,0.3
				c1.9,1.4,3.1,3.6,3.1,6v34.6C33.4,49.1,32,50.2,30.2,49.2z"/>
		</g>
	</g>
	<g id="Group_17480" transform="translate(77.415 290.458)">
		<ellipse id="Ellipse_546" class="st12" cx="67.3" cy="312.3" rx="47.2" ry="27.3"/>
		<g id="Group_17479">
			<path id="Path_12309" class="st13" d="M44.1,26.3c0,0,1.1,21.7,2.7,36.3s36.8-11.2,36.8-11.2V34.7L44.1,26.3z"/>
			<g id="Group_17477" transform="translate(18.523 8.601)">
				<path id="Path_12310" class="st14" d="M44.4,287.9c0.5,1.3,9.6,12.4,18.8,15.2c2.7,1,5.5,1.3,8.4,1.2c1.5-0.2,2.6-1.6,2.4-3.1
					c0-0.2-0.1-0.4-0.1-0.6c-3.1-8.5-9.4-15.4-17.5-19.3C40.8,273.7,44.4,287.9,44.4,287.9z"/>
				<path id="Path_12311" class="st14" d="M41.3,292.2c2,4.8,3.5,9.7,4.5,14.8c0.6,4.1-1.6,9.4-3.5,13c-1,1.8-3.3,2.6-5.1,1.6
					c-0.3-0.2-0.5-0.3-0.8-0.6c-4.2-3.6-6.8-8.7-7.4-14.1c-1.1-11.4,0-13.3,0-13.3L41.3,292.2z"/>
				
					<linearGradient id="Path_12312_1_" gradientUnits="userSpaceOnUse" x1="-77.9449" y1="495.2639" x2="-77.9449" y2="494.2659" gradientTransform="matrix(56.5802 0 0 -153.4913 4457.2676 76131.7891)">
					<stop  offset="0" style="stop-color:#DFFEFF"/>
					<stop  offset="1" style="stop-color:#01B0F9"/>
				</linearGradient>
				<path id="Path_12312" class="st15" d="M19.4,155c-0.7,10-0.7,20.1,0,30.2c1.2,15.8,5.4,89.9,6.2,107.8c0,0-0.4,5.4,10.1,4.2
					s9.6-7.2,9.6-7.2s14.7-0.2,15.1-8.8s15-103.3,15-137.3L19.4,155z"/>
				<g id="Group_17476">
					<path id="Path_12313" class="st16" d="M80.8,80.9L88,92l24.7,29.8c-0.6,1.8-2.1,3.1-3.9,3.5c-2.4,0.6-23.2-19.3-32.2-28
						c-2.4-2.3-2.8-6-0.9-8.8L80.8,80.9z"/>
					
						<linearGradient id="Path_12314_1_" gradientUnits="userSpaceOnUse" x1="-76.0695" y1="493.833" x2="-76.0205" y2="493.236" gradientTransform="matrix(20.52 0 0 -57.1755 1637.6398 28281.125)">
						<stop  offset="0" style="stop-color:#3054EF"/>
						<stop  offset="1" style="stop-color:#49A5EF"/>
					</linearGradient>
					<path id="Path_12314" class="st17" d="M66.8,35.2c0,0,11.4-0.3,15.4,16.2s7.1,37.2,3.6,38.9c-10.4,5.2-16.9-0.9-16.9-0.9
						L66.8,35.2z"/>
					
						<linearGradient id="Path_12315_1_" gradientUnits="userSpaceOnUse" x1="-78.1527" y1="494.7773" x2="-78.1037" y2="494.1803" gradientTransform="matrix(69.6329 0 0 -132.2468 5486.5117 65492.6445)">
						<stop  offset="0" style="stop-color:#3054EF"/>
						<stop  offset="1" style="stop-color:#49A5EF"/>
					</linearGradient>
					<path id="Path_12315" class="st18" d="M70.2,35.9c-2-0.8-4.1-0.9-6.2-0.3c-9.7,2.8-46.3,13.5-52.3,18.7
						c-7,6,10.4,39.4,10.2,50.4c-0.2,11-1.5,23.9-2.5,35.8S17.2,158.9,27,164s26.4,5.3,38.9-4.2s10.2-16,9.7-22.9
						s-4.8-36.7-4.4-45.2c3.1-2.4,5.7-5.4,7.6-8.8c3.3-5.5-2.5-15.7-4.9-22.4s1.3-14.2,0.6-19.6C74.1,38.1,72.3,36.8,70.2,35.9z"/>
					<path id="Path_12316" class="st4" d="M58.5,47.3c0.8,6-4.8,11.7-12.3,12.7s-14.4-3.1-15.1-9.1s4.8-11.7,12.3-12.7
						S57.8,41.3,58.5,47.3z"/>
					
						<linearGradient id="Union_6_1_" gradientUnits="userSpaceOnUse" x1="-75.9343" y1="491.992" x2="-75.9343" y2="491.35" gradientTransform="matrix(19.75 0 0 -26.7546 1544.5089 13197.0273)">
						<stop  offset="0" style="stop-color:#FF817B"/>
						<stop  offset="1" style="stop-color:#FFBFAB"/>
					</linearGradient>
					<path id="Union_6" class="st19" d="M35,50.3c-0.4-3,1.4-5.8,4.3-7.5c0.4-3.7,1.2-9.9,2.1-11.8c1.3-2.7,7.9,2.7,7.9,2.7
						c3.5,1.2,0.9,3.4,0.9,3.4l0.9,5.5c1.9,1.1,3.3,3,3.6,5.2c0.6,4.3-3.4,8.4-8.8,9.1c-0.5,0.1-1.1,0.1-1.6,0.1
						C39.5,57,35.5,54.2,35,50.3z"/>
					<path id="Path_12319" class="st16" d="M69.7,20.7c-0.6,10.8-9.9,19-20.7,18.4s-19-9.9-18.4-20.7C31.3,7.6,40.5-0.6,51.3,0
						c0,0,0,0,0,0C62.1,0.7,70.4,9.9,69.7,20.7C69.7,20.7,69.7,20.7,69.7,20.7z"/>
					<path id="Path_12320" class="st20" d="M40.4,34.4c-0.1,0.6-0.2,1.3-0.3,2c1.3,6.8,11.5,9.8,11.5,9.8l-1.5-9c0,0,1.2-1,0.9-2.1
						C47,33.7,41.9,32.6,40.4,34.4z"/>
					
						<linearGradient id="Path_12321_1_" gradientUnits="userSpaceOnUse" x1="-77.4653" y1="493.1168" x2="-77.4653" y2="492.4748" gradientTransform="matrix(39.1593 0 0 -39.1592 3083.6736 19315.5391)">
						<stop  offset="0" style="stop-color:#FF817B"/>
						<stop  offset="1" style="stop-color:#FFBFAB"/>
					</linearGradient>
					<path id="Path_12321" class="st21" d="M69.7,20.7c-0.6,10.8-9.9,19-20.7,18.4s-19-9.9-18.4-20.7C31.3,7.6,40.5-0.6,51.3,0
						c0,0,0,0,0,0C62.1,0.7,70.4,9.9,69.7,20.7C69.7,20.7,69.7,20.7,69.7,20.7z"/>
					<path id="Path_12322" class="st16" d="M1.9,102.5l2.2,52.4l7.7,0.8l5-47.2L1.9,102.5z"/>
					<path id="Path_12323" class="st22" d="M27.1,98.1c-0.4-1.8-3.8-3.3-4.3-5.7c-2.6-12.2-3.3-30.2-3.3-30.2l-2.1,24.6
						c2.5,7.3,4.6,14,4.5,17.9c-0.1,6.4-0.6,13.6-1.2,20.7v0C20.7,125.4,29.7,109.3,27.1,98.1z"/>
					
						<linearGradient id="Path_12324_1_" gradientUnits="userSpaceOnUse" x1="-76.0244" y1="494.0017" x2="-75.9754" y2="493.4047" gradientTransform="matrix(20.1576 0 0 -63.6653 1541.9926 31515.9668)">
						<stop  offset="0" style="stop-color:#3054EF"/>
						<stop  offset="1" style="stop-color:#49A5EF"/>
					</linearGradient>
					<path id="Path_12324" class="st23" d="M13.2,53.2c0,0-6.1,2.3-9.6,21.2s-6.1,37.7,0.1,40.1s11.3,4.3,13.2-0.8s2.9-29.3,3.2-38
						S20.6,54.9,13.2,53.2z"/>
					<path id="Path_12325" class="st16" d="M110.9,119.7c2.2,0.9,4.1,2.2,5.7,3.8c1.4,1.6,2.8,3.4,3.9,5.2c1.9,2.8,3.5,9,2.4,9.8
						s-7.8-10.3-8.9-7.7s0,5-1.4,5s-6.2-11.1-9.9-14.6S110.9,119.7,110.9,119.7z"/>
				</g>
				<path id="Path_12326" class="st11" d="M45.3,289.9c1.4,0,2.8-0.2,4.2-0.4l0,0l2.9-115.2L45.3,289.9z"/>
			</g>
			<g id="Group_17478" transform="translate(0 161.566)">
				<path id="Path_12327" class="st5" d="M52.7,74.7l-4.1-5.3L5.8,44.6c-1.5-1.1-2.5-2.9-2.5-4.8l0-35.1L0.8,1.5l2.3-1.3l0,0
					c0.5-0.3,1.2-0.3,1.7,0.1l48.6,28.1c1.5,1.1,2.5,2.9,2.5,4.8l0,38.2c0.1,0.8-0.3,1.6-0.9,2l0,0L52.7,74.7z"/>
				<path id="Path_12328" class="st5" d="M23.1,54.6l-3-1.8l-16.7-29l0-19.1L0.8,1.5l2.3-1.3l0,0c0.5-0.3,1.2-0.3,1.7,0.1l48.6,28.1
					c0.8,0.5,1.4,1.3,1.8,2.1L23.1,54.6z"/>
				<path id="Path_12329" class="st5" d="M1.9,3L0.8,1.5l2.3-1.3l0,0c0.5-0.3,1.2-0.3,1.7,0.1l0.9,0.5L1.9,3z"/>
				<path id="Path_12330" class="st5" d="M53.9,28.7c1.2,1.1,1.9,2.5,2,4.1l-4.7,2.7l-2.3-4L53.9,28.7z"/>
				<path id="Path_12331" class="st3" d="M51.1,29.8L2.5,1.6C1.2,0.8,0,1.7,0,3.5l0,38.2c0,1.9,0.9,3.7,2.5,4.8l48.6,28.1
					c1.4,0.8,2.5,0,2.5-1.9l0-38.2C53.6,32.6,52.6,30.9,51.1,29.8z"/>
			</g>
			<path id="Path_12332" class="st4" d="M41.1,218.7l-2.3-1.3v-19.9l2.3,1.3V218.7z"/>
			<path id="Path_12333" class="st4" d="M35.7,215.6l-2.3-1.3v-19.9l2.3,1.3V215.6z"/>
			<path id="Path_12334" class="st4" d="M30.3,212.5l-2.3-1.3v-19.9l2.3,1.3V212.5z"/>
			<path id="Path_12335" class="st16" d="M22.7,163c0,0-2,12.2-1.7,16.1c0.3,3.9,2.4,10.4,4,10.2s0.1-15.8,2.8-14.2s3.1,4.2,4.4,3.3
				s-2.2-14.3-1.3-20.1S22.7,163,22.7,163z"/>
			<path id="Path_12336" class="st20" d="M76.2,29.9c9.8,3.5,11.7,1.4,11.8,1.2c0.1-0.6,0.2-1.2,0.2-1.8c0.1-2.1-0.1-4.2-0.7-6.3
				l-25.5-3.4C62.1,19.6,66.1,26.3,76.2,29.9z"/>
			<path id="Path_12337" class="st13" d="M89,9.8C86.6,7.8,78.3-2,63.3,0.3c-9.4,1.4-17.2,7.8-19,22.4c-1,9.8,2.3,19.5,9,26.6
				c0.4-0.2,0.7-0.3,1.1-0.5c3.7-2.5,4.2-3.8,4.2-3.8l0.8-7.4c0-1.1-0.8-2-1.9-2.1c-1.1-0.1-2.1-0.7-2.7-1.7
				c-2.2-2.8-1.2-7.2,3.1-7.4c1.6,0.1,3-0.9,3.4-2.4c0.3-0.9,1.2-1.5,2.2-1.2c0,0,0.1,0,0.1,0c4.9,1.8,16.9,5.6,24.7,3.4
				C98.3,23.4,91.3,11.8,89,9.8z"/>
			<path id="Path_12338" class="st4" d="M77.8,38.7l6-1.6c0,0-2.9,4.5-7,5.6s-4.8-2.4-4.8-2.4L77.8,38.7z"/>
			<path id="Path_12339" class="st5" d="M32.9,178.1l-5.1-2.9l1.9,3.1l2.6,1L32.9,178.1z"/>
		</g>
	</g>
	<g id="Group_17482" transform="translate(207.43 314.601)">
		<path id="Path_12340" class="st12" d="M16.7,374.9c22.3,12.8,58.3,12.8,80.6,0s22.3-33.7,0-46.5s-58.3-12.8-80.6,0
			S-5.6,362.1,16.7,374.9z"/>
		<g id="Group_17481" transform="translate(15.901 36.575)">
			<path id="Path_12341" class="st14" d="M6.2,297.6c-4,1.7-6.5,6.1-6.1,10.9c0,1.8,0.3,3.6,0.9,5.3c1.3,2.7,5.4,6.3,12,3.7
				s21.3-16.4,21.8-25.4C35.8,275.3,16.6,293.2,6.2,297.6z"/>
			<path id="Path_12342" class="st14" d="M45,325.4c0,0-1.6,9.7-0.8,11.4s5.4,5.6,12.2,4.7S82.7,334,87,321.1
				c6.8-20-37.7,1.5-37.7,1.5L45,325.4z"/>
			
				<linearGradient id="Path_12343_1_" gradientUnits="userSpaceOnUse" x1="-205.4862" y1="443.2089" x2="-205.4862" y2="442.2109" gradientTransform="matrix(65.6081 0 0 -170.5744 13514.3525 75727.8906)">
				<stop  offset="0" style="stop-color:#DFFEFF"/>
				<stop  offset="1" style="stop-color:#01B0F9"/>
			</linearGradient>
			<path id="Path_12343" class="st24" d="M64.1,170.8l1.5,150.9c-0.2,5.2-3.6,9.7-8.2,10.5c-0.6,0.1-1.2,0.2-1.8,0.2
				c-4.7,0.4-7.4-1.6-9-3.7c-1.3-1.8-2-3.9-2-6.1l-1.9-64.4L33,200.6L19.7,302.6c-0.1,2.7-1.5,5.1-3.7,6.7c-1.8,1.2-3.9,1.8-6.1,1.6
				c-3.1-0.1-6.1-1.6-8.1-4c-1.3-1.5-2-3.5-1.9-5.5l5.3-61.3l2-78.2L64.1,170.8z"/>
			
				<linearGradient id="Union_7_1_" gradientUnits="userSpaceOnUse" x1="-204.9014" y1="441.724" x2="-204.9014" y2="441.082" gradientTransform="matrix(40.2754 0 0 -55.8219 8306.9346 24665.6855)">
				<stop  offset="0" style="stop-color:#FF817B"/>
				<stop  offset="1" style="stop-color:#FFBFAB"/>
			</linearGradient>
			<path id="Union_7" class="st25" d="M47.3,55.5c-2.9-0.5-5.1-3-5.2-6l1.4-8c-7.7-4.9-11.3-15.3-8.1-25.4
				C39.2,4.3,50.7-2.5,61.2,0.8s16,15.6,12.2,27.4c-2.8,8.8-10,14.9-17.8,16l-1.4,9.2c-1,1.6-2.7,2.5-4.6,2.4
				C48.8,55.8,48.1,55.7,47.3,55.5z"/>
			<path id="Path_12347" class="st22" d="M33,200.6L19.7,302.6c-0.1,2.7-1.5,5.1-3.7,6.7c-0.4,0.2-0.7,0.5-1.1,0.6
				c2.8-2.1,10.8-87.6,12.3-97.2S33,200.6,33,200.6z"/>
		</g>
		
			<linearGradient id="Union_8_1_" gradientUnits="userSpaceOnUse" x1="-190.0126" y1="479.4061" x2="-189.9636" y2="478.8091" gradientTransform="matrix(121.8008 0 0 -173.291 23215.5645 83159.5391)">
			<stop  offset="0" style="stop-color:#3054EF"/>
			<stop  offset="1" style="stop-color:#49A5EF"/>
		</linearGradient>
		<path id="Union_8" class="st26" d="M62.3,223.7c-6.9-0.2-13.7-2.1-19.6-5.6c-6.7-3.9-21-9.9-20.2-20c3.4-43.1-0.7-69.4,1.7-89.8
			c-16.2-30-13.8-49.5-12.6-53.5c0.9-2.7,7.1-3.9,11.2-4.4c1.6-0.2,3.1,0.9,3.3,2.6c0,0.1,0,0.2,0,0.3c0.2,4.9,0.8,9.8,1.7,14.6
			c1.3,7.8,6.8,11.1,11.6,12.4c9.5-1.8,21.4,5.8,21.6,5.9C82.4,95,86.6,99.5,86.6,99.5s20.5,8.1,38.1-14.1c1.6-2,4.7-1.7,5.7,0.4
			c1.6,3.6,3.6,9.1,1.2,14.3c-8.5,18.3-33.6,21.4-47.7,28.5c-2.2,24.8-3.6,50.8-2,80.2C82.3,217.7,69.3,223.7,62.3,223.7L62.3,223.7
			z"/>
		<path id="Path_12348" class="st16" d="M132,98.8l18.3-36.3l-5.7-3.6l-19,27.7L132,98.8z"/>
		<path id="Path_12349" class="st16" d="M11.2,60.2l8.9-40.5l7.1,0.1l-2.7,33.6L11.2,60.2z"/>
		<path id="Path_12352" class="st16" d="M20.1,19.8l0.2-4.6c0.1-1.6,0.5-3.2,1.4-4.6l4.7-7.7l1.2-1.5c1.1-1.4,3.1-1.8,4.7-0.8
			l1.1,0.7c1.4,0.9,2.2,2.4,2.1,4l-2.4,6.6l3.1-0.6c0.6-0.1,1.2,0.3,1.3,0.9c0,0,0,0,0,0l0,0c0.1,0.5-0.2,1-0.7,1.2l-5,2l-4.5,6.4
			L20.1,19.8z"/>
		<path id="Path_12353" class="st16" d="M150.4,62.7l2.1-4.1c0.8-1.4,1.1-3.1,1.1-4.7l-0.3-9l-0.3-1.9c-0.3-1.8-1.9-3.1-3.7-3
			l-1.3,0.1c-1.6,0.1-3.1,1-3.8,2.5l-1.1,6.9l-2.4-2c-0.5-0.4-1.1-0.3-1.5,0.1c0,0,0,0,0,0l0,0c-0.3,0.4-0.3,1,0,1.4l3.3,4.2
			l0.9,8.8L150.4,62.7z"/>
		<path id="Path_12354" class="st22" d="M73.2,130.3c-1.8,8.1,8.9,69.3-3,91.7c6-2.4,11.9-7.1,11.5-13.2c-1.6-29.4-0.1-55.4,2-80.2
			c10.2-5.2,26.1-8.2,37.4-16.5C109.1,116.5,74.8,123,73.2,130.3z"/>
		<path id="Path_12355" class="st4" d="M53.2,82.5l3-3.1c0,0,5,5.1,9,6c2.4,0.7,4.8,1.2,7.2,1.5l2,5.4
			C74.4,92.2,58.5,91.1,53.2,82.5z"/>
		<path id="Path_12356" class="st14" d="M75.1,65.2c0.8,0,1.6-0.4,2.1-1.1c0.8-1.2,0.3-6.7,2.9-7.6C84,55,93.5,60,94.5,45.6
			c0.5-7.5-3.1-9.5-3.1-13.6c0,0,0.3,2.1-19,0.8s-25.6,15.8-26,24s3.5,21.6,16.7,23.4c2.2,0.3,11.4-7.1,11.1-8s-3.7-0.9-3.2-3.7
			C71.4,66.1,72.9,65.2,75.1,65.2z"/>
	</g>
	<g id="Group_17485" transform="translate(326.258 486.591)">
		<g id="Group_17483">
			<path id="Path_12357" class="st6" d="M74.5,102.9L16.2,69.3c-2.6-1.5-4.7-5.5-4.7-9V17c0-3.5,2.1-5,4.7-3.5l58.3,33.7
				c2.6,1.5,4.7,5.5,4.7,9v43.3C79.2,102.8,77.1,104.4,74.5,102.9z"/>
			<path id="Path_12358" class="st27" d="M68.7,34.2L10.4,0.5c-0.9-0.6-2-0.7-3-0.2v0L1.8,3.5c0,0,2.5,0.9,4,1.5v42.4
				c0,3.5,2.1,7.5,4.7,9l55.7,32.2v5l5.7-3.3l0,0c1-0.6,1.6-1.9,1.6-3.7V43.2C73.4,39.7,71.3,35.7,68.7,34.2z"/>
			<path id="Path_12359" class="st28" d="M63,93.3L4.7,59.7c-2.6-1.5-4.7-5.5-4.7-9V7.4c0-3.5,2.1-5,4.7-3.5L63,37.5
				c2.6,1.5,4.7,5.5,4.7,9v43.3C67.7,93.3,65.6,94.8,63,93.3z"/>
			<path id="Path_12360" class="st4" d="M63,37.5L4.7,3.9C3.2,3,1.9,3.2,1.1,4.1c0.7,0,1.4,0.1,2.1,0.5l58.3,33.6
				c2.6,1.5,4.7,5.5,4.7,9v43.3c0.1,1.2-0.3,2.4-1.1,3.3c1.5-0.1,2.6-1.6,2.6-4.1V46.5C67.7,43,65.6,39,63,37.5z"/>
		</g>
		<g id="Group_17484" transform="translate(16.424 37.42)">
			<path id="Path_12361" class="st4" d="M7.9,7.3c0,2.5-1.8,3.5-3.9,2.3C1.6,8.1,0.1,5.6,0,2.8c0-2.5,1.8-3.5,3.9-2.3
				C6.3,2.1,7.7,4.6,7.9,7.3z"/>
			<path id="Path_12362" class="st4" d="M19.8,14.2c0,2.5-1.8,3.5-3.9,2.3c-2.3-1.5-3.8-4-3.9-6.8c0-2.5,1.8-3.5,3.9-2.3
				C18.2,8.9,19.6,11.5,19.8,14.2z"/>
			<path id="Path_12363" class="st4" d="M31.7,21.1c0,2.5-1.8,3.5-3.9,2.3c-2.3-1.5-3.8-4-3.9-6.8c0-2.5,1.8-3.5,3.9-2.3
				C30.1,15.8,31.5,18.3,31.7,21.1z"/>
		</g>
	</g>
	<g id="Group_17490" transform="translate(422.919 488.208)">
		<g id="Group_17487">
			<g id="Group_17486">
				<path id="Path_12364" class="st6" d="M74.5,157.1l-58.3-33.6c-2.6-1.5-4.7-5.5-4.7-9V17c0-3.5,2.1-5,4.7-3.5l58.3,33.6
					c2.6,1.5,4.7,5.5,4.7,9v97.5C79.2,157,77.1,158.6,74.5,157.1z"/>
				<path id="Path_12365" class="st27" d="M68.7,34.2L10.4,0.5c-0.9-0.6-2-0.7-3-0.2v0L1.8,3.5c0,0,2.5,0.9,4,1.5v96.6
					c0,3.5,2.1,7.5,4.7,9l55.7,32.2v5l5.7-3.3l0,0c1-0.6,1.6-1.9,1.6-3.7V43.2C73.4,39.7,71.3,35.7,68.7,34.2z"/>
				<path id="Path_12366" class="st28" d="M63,147.5L4.7,113.9c-2.6-1.5-4.7-5.5-4.7-9V7.4c0-3.5,2.1-5,4.7-3.5L63,37.5
					c2.6,1.5,4.7,5.5,4.7,9V144C67.7,147.4,65.6,149,63,147.5z"/>
				<path id="Path_12367" class="st4" d="M63,37.5L4.7,3.9C3.2,3,1.9,3.2,1.1,4.1c0.7,0,1.4,0.1,2.1,0.5l58.3,33.6
					c2.6,1.5,4.7,5.5,4.7,9v97.5c0.1,1.2-0.3,2.4-1.1,3.3c1.5-0.1,2.6-1.6,2.6-4.1V46.5C67.7,43,65.6,39,63,37.5z"/>
			</g>
		</g>
		<g id="Group_17488" transform="translate(17.748 34.84)">
			<path id="Path_12368" class="st4" d="M24.6,15.9c0,5.4-3.8,7.6-8.5,4.9S7.6,11.5,7.6,6.1s3.8-7.6,8.5-4.9S24.6,10.5,24.6,15.9z"
				/>
			<path id="Path_12369" class="st4" d="M28.1,31.2c0-0.1,0-0.2,0-0.3c-0.4-2.3-2.5-4.3-4-3.8c-2.2,0.8-5,0.4-8.1-1.4
				c-3.3-2-6-4.7-8.1-7.9c-1.4-2.2-3.6-2.6-3.9-0.8c0,0.1,0,0.1,0,0.2L0,42.9l32.2,18.6L28.1,31.2z"/>
		</g>
		<g id="Group_17489" transform="translate(13.141 90.448)">
			<path id="Path_12370" class="st4" d="M39,25.4L0,2.8V0l39,22.5V25.4z"/>
			<path id="Path_12371" class="st4" d="M27.3,30.8L0,15.1v-2.8L27.3,28V30.8z"/>
			<path id="Path_12372" class="st4" d="M23.6,22.6L0,9V6.1l23.6,13.6V22.6z"/>
			<path id="Path_12373" class="st4" d="M39,31.5l-11.8-6.8v-2.8L39,28.7V31.5z"/>
		</g>
	</g>
	<g id="Group_17496" transform="translate(422.919 350.27)">
		<g id="Group_17492">
			<g id="Group_17491">
				<path id="Path_12374" class="st6" d="M74.5,157.1l-58.3-33.6c-2.6-1.5-4.7-5.5-4.7-9V17c0-3.5,2.1-5,4.7-3.5l58.3,33.6
					c2.6,1.5,4.7,5.5,4.7,9v97.5C79.2,157,77.1,158.6,74.5,157.1z"/>
				<path id="Path_12375" class="st27" d="M68.7,34.2L10.4,0.5c-0.9-0.6-2-0.7-3-0.2v0L1.8,3.5c0,0,2.5,0.9,4,1.5v96.6
					c0,3.5,2.1,7.5,4.7,9l55.7,32.2v5l5.7-3.3l0,0c1-0.6,1.6-1.9,1.6-3.7V43.2C73.4,39.7,71.3,35.7,68.7,34.2z"/>
				<path id="Path_12376" class="st28" d="M63,147.5L4.7,113.9c-2.6-1.5-4.7-5.5-4.7-9V7.4c0-3.5,2.1-5,4.7-3.5L63,37.5
					c2.6,1.5,4.7,5.5,4.7,9V144C67.7,147.4,65.6,149,63,147.5z"/>
				<path id="Path_12377" class="st4" d="M63,37.5L4.7,3.9C3.2,3,1.9,3.2,1.1,4.1c0.7,0,1.4,0.1,2.1,0.5l58.3,33.6
					c2.6,1.5,4.7,5.5,4.7,9v97.5c0.1,1.2-0.3,2.4-1.1,3.3c1.5-0.1,2.6-1.6,2.6-4.1V46.5C67.7,43,65.6,39,63,37.5z"/>
			</g>
		</g>
		<g id="Group_17493" transform="translate(13.231 34.179)">
			<path id="Path_12378" class="st5" d="M39,25.4L0,2.8V0l39,22.5V25.4z"/>
			<path id="Path_12379" class="st5" d="M27.3,30.8L0,15.1v-2.8L27.3,28V30.8z"/>
			<path id="Path_12380" class="st5" d="M23.6,22.6L0,9V6.2l23.6,13.6V22.6z"/>
			<path id="Path_12381" class="st5" d="M39,31.5l-11.8-6.8v-2.8L39,28.7V31.5z"/>
		</g>
		<g id="Group_17494" transform="translate(13.231 57.924)">
			<path id="Path_12382" class="st5" d="M39,25.4L0,2.8V0l39,22.5V25.4z"/>
			<path id="Path_12383" class="st5" d="M27.3,30.8L0,15.1v-2.8L27.3,28L27.3,30.8z"/>
			<path id="Path_12384" class="st5" d="M23.6,22.6L0,9V6.1l23.6,13.6V22.6z"/>
			<path id="Path_12385" class="st5" d="M39,31.5l-11.8-6.8v-2.8L39,28.7V31.5z"/>
		</g>
		<g id="Group_17495" transform="translate(13.231 81.669)">
			<path id="Path_12386" class="st5" d="M39,25.4L0,2.8V0l39,22.5V25.4z"/>
			<path id="Path_12387" class="st5" d="M27.3,30.8L0,15.1v-2.8L27.3,28V30.8z"/>
			<path id="Path_12388" class="st5" d="M23.6,22.6L0,9V6.1l23.6,13.6V22.6z"/>
			<path id="Path_12389" class="st5" d="M39,31.5l-11.8-6.8v-2.8L39,28.7V31.5z"/>
		</g>
	</g>
	<g id="Group_17497" transform="translate(324.251 432.152)">
		<path id="Path_12390" class="st4" d="M27.9,18.7L0.1,2.6V0l27.9,16.1L27.9,18.7z"/>
		<path id="Path_12391" class="st4" d="M45.2,28.6l-11.9-6.9v-2.6L45.2,26V28.6z"/>
		<path id="Path_12392" class="st4" d="M28.9,24.9L17,18v-2.6l11.9,6.9V24.9z"/>
		<path id="Path_12393" class="st4" d="M54.6,39.8L33.3,27.4v-2.6l21.4,12.3V39.8z"/>
		<path id="Path_12394" class="st4" d="M69.2,53.9L37.7,35.6V33l31.6,18.2L69.2,53.9z"/>
		<path id="Path_12395" class="st4" d="M62.2,38.5l-11.9-6.9V29l11.9,6.9V38.5z"/>
		<path id="Path_12396" class="st4" d="M12,15.1L0.1,8.3V5.7L12,12.5V15.1z"/>
		<path id="Path_12397" class="st4" d="M32.6,32.7L0,13.9v-2.6l32.6,18.8V32.7z"/>
		<path id="Path_12398" class="st4" d="M20,31.1L0.4,19.8v-2.6L20,28.5V31.1z"/>
	</g>
	<g id="Group_17498" transform="translate(308.588 181.182)">
		<path id="Path_12399" class="st6" d="M181.3,146.4l-152.4-88C19,52.7,11,37.4,11,24.3l0,0c0-13.2,8-19.2,17.9-13.5l152.4,88
			c9.9,5.7,17.9,21,17.9,34.1l0,0C199.2,146.1,191.2,152.1,181.3,146.4z"/>
		<path id="Path_12400" class="st27" d="M195.4,124.3c0-13.2-8-28.4-17.9-34.1L25.2,2.1c-4.6-2.7-8.8-2.7-11.9-0.8l0,0L5.7,5.7
			l3.5,0.4c-1.3,3-2,6.3-1.9,9.5l0,0c0,13.2,8,28.4,17.9,34.1l152.4,88c1.7,1,3.6,1.7,5.5,2l-0.9,3.1l7.4-4.3h-0.1
			C193.1,136.3,195.4,131.3,195.4,124.3z"/>
		<path id="Path_12401" class="st29" d="M170.3,142L17.9,54C8,48.3,0,33,0,19.9l0,0C0,6.7,8,0.7,17.9,6.4l152.4,88
			c9.9,5.7,17.9,21,17.9,34.1l0,0C188.1,141.7,180.1,147.7,170.3,142z"/>
		<path id="Path_12402" class="st4" d="M171.8,93.4L19.4,5.4c-5-2.9-9.6-2.7-12.8-0.2c3.1-1.6,7-1.3,11.3,1.2l152.4,88
			c9.9,5.7,17.9,21,17.9,34.1c0,6.5-1.9,11.2-5.1,13.7c4-2,6.6-7.2,6.6-14.7C189.7,114.4,181.7,99.1,171.8,93.4z"/>
	</g>
	<g id="Group_17499" transform="translate(308.588 109.103)">
		<path id="Path_12403" class="st6" d="M124.1,112.9L29.7,58.5c-9.9-5.7-17.9-21-17.9-34.1l0,0c0-13.2,8-19.2,17.9-13.5l94.4,54.5
			C134,71,142,86.3,142,99.4l0,0C142,112.6,134,118.6,124.1,112.9z"/>
		<path id="Path_12404" class="st27" d="M137.5,90.7c0-13.2-8-28.4-17.9-34.1L25.2,2.1c-4.6-2.7-8.8-2.7-11.9-0.8l0,0L5.7,5.7
			l3.5,0.4c-1.3,3-2,6.3-1.9,9.5l0,0c0,13.2,8,28.4,17.9,34.1l94.4,54.5c1.7,1,3.6,1.7,5.5,2l-0.9,3.1l7.4-4.3h-0.1
			C135.2,102.7,137.5,97.8,137.5,90.7z"/>
		<path id="Path_12405" class="st29" d="M112.3,108.5L17.9,54C8,48.3,0,33,0,19.9l0,0C0,6.7,8,0.7,17.9,6.4l94.4,54.5
			c9.9,5.7,17.9,21,17.9,34.1l0,0C130.2,108.1,122.2,114.2,112.3,108.5z"/>
		<path id="Path_12406" class="st4" d="M113.8,59.8L19.4,5.4c-5-2.9-9.6-2.7-12.8-0.2c3.1-1.6,7-1.3,11.3,1.2l94.4,54.5
			c9.9,5.7,17.9,21,17.9,34.1c0,6.5-1.9,11.2-5.1,13.7c4-2.1,6.6-7.2,6.6-14.7C131.7,80.8,123.7,65.5,113.8,59.8z"/>
	</g>
	<g id="Group_17500" transform="translate(339.187 142.302)">
		<path id="Path_12407" class="st4" d="M39,25.4L0,2.8V0l39,22.5V25.4z"/>
		<path id="Path_12408" class="st4" d="M70.1,43.2L42.8,27.5v-2.8l27.3,15.7V43.2z"/>
		<path id="Path_12409" class="st4" d="M23.6,22.6L0,9V6.1l23.6,13.6V22.6z"/>
		<path id="Path_12410" class="st4" d="M39,31.5l-11.8-6.8v-2.8L39,28.7L39,31.5z"/>
	</g>
	<g id="Group_17501" transform="translate(400.077 250.504)">
		<path id="Path_12411" class="st4" d="M69.9,43.2l-39-22.5v-2.8l39,22.5V43.2z"/>
		<path id="Path_12412" class="st4" d="M27.3,18.5L0,2.8V0l27.3,15.7V18.5z"/>
		<path id="Path_12413" class="st4" d="M54.5,40.4L30.9,26.8V24l23.6,13.6V40.4z"/>
		<path id="Path_12414" class="st4" d="M69.9,49.3l-11.8-6.8v-2.8l11.8,6.8V49.3z"/>
		<path id="Path_12415" class="st4" d="M27.2,24.7l-11.8-6.8V15l11.8,6.8V24.7z"/>
	</g>
	<g id="Group_17502" transform="translate(225.703 293.181)">
		<path id="Path_12416" class="st5" d="M13.5,9.7l-6-3.5l1-1.8l6,3.5L13.5,9.7z"/>
		<path id="Path_12417" class="st5" d="M2.2,3.1l1-1.8L0.9,0C0.6,0.6,0.3,1.3,0,1.9L2.2,3.1z"/>
		<path id="Path_12418" class="st5" d="M24.8,16.2l-6-3.5l1-1.8l6,3.5L24.8,16.2z"/>
		<path id="Path_12419" class="st5" d="M36.1,22.7l-6-3.5l1-1.8l6,3.5L36.1,22.7z"/>
		<path id="Path_12420" class="st5" d="M47.4,29.2l-6-3.5l1-1.8l6,3.5L47.4,29.2z"/>
		<path id="Path_12421" class="st5" d="M58.7,35.8l-6-3.5l1-1.8l6,3.5L58.7,35.8z"/>
		<path id="Path_12422" class="st5" d="M70,42.3l-6-3.5l1-1.8l6,3.5L70,42.3z"/>
		<path id="Path_12423" class="st5" d="M81.3,48.8l-6-3.5l1-1.8l6,3.5L81.3,48.8z"/>
		<path id="Path_12424" class="st5" d="M92.6,55.3l-6-3.5l1-1.8l6,3.5L92.6,55.3z"/>
	</g>
	<g id="Group_17503" transform="translate(341.611 313.038)">
		<path id="Path_12425" class="st5" d="M6.1,5.2L0,1.7L1.2,0l4.9,2.8V5.2z"/>
		<path id="Path_12426" class="st5" d="M17.6,11.9l-6.1-3.5V5.9l6.1,3.5V11.9z"/>
		<path id="Path_12427" class="st5" d="M29.1,18.5L23,15v-2.4l6.1,3.5V18.5z"/>
		<path id="Path_12428" class="st5" d="M40.6,25.1l-6.1-3.5v-2.4l6.1,3.5V25.1z"/>
		<path id="Path_12429" class="st5" d="M52.1,31.8L46,28.3v-2.4l6.1,3.5V31.8z"/>
		<path id="Path_12430" class="st5" d="M63.6,38.4l-6.1-3.5v-2.4l6.1,3.5V38.4z"/>
	</g>
	<path id="Path_12431" class="st4" d="M396.5,251.2l-22-12.7v-2.8l22,12.7V251.2z"/>
</g>
</svg>
