<svg xmlns="http://www.w3.org/2000/svg" xmlns:xlink="http://www.w3.org/1999/xlink" width="732" height="522" viewBox="0 0 732 522"><defs><style>.a{fill:#070142;}.b{clip-path:url(#a);}.c{fill:#00b9ff;opacity:0.12;}.d{fill:#8786eb;}.e{opacity:0.87;}.f{isolation:isolate;}.g{fill:#4ec5ff;}.h{fill:#1b5aa6;}.i{fill:#349ddc;}.j{fill:url(#b);}.k{fill:#cdd7fa;opacity:0.61;}.l{fill:url(#c);}.m{fill:url(#d);}.n{fill:url(#e);}</style><clipPath id="a"><rect class="a" width="673.651" height="349.927"/></clipPath><linearGradient id="b" x1="0.742" y1="0.666" x2="-0.022" y2="1.234" gradientUnits="objectBoundingBox"><stop offset="0" stop-color="#3fffac"/><stop offset="1" stop-color="#73caff" stop-opacity="0"/></linearGradient><linearGradient id="c" x1="0.939" y1="0.727" x2="0.175" y2="1.295" xlink:href="#b"/><linearGradient id="d" x1="0.921" y1="0.493" x2="0.157" y2="1.061" xlink:href="#b"/><linearGradient id="e" x1="0.873" y1="0.621" x2="0.109" y2="1.189" xlink:href="#b"/></defs><g transform="translate(-189.342 -89.267)"><rect class="a" width="673.651" height="349.927" transform="translate(189.342 180.409)"/><g class="b" transform="translate(189.342 180.409)"><ellipse class="c" cx="227.947" cy="127.947" rx="227.947" ry="127.947" transform="translate(-51.936 158.375)"/></g><path class="d" d="M528.01,157.132c-.236.171-3.186-3.414-8.053-9.709l-.239-.308.133-.406c1.1-3.365,2.428-7.414,3.919-11.965.392.4.848.863,1.3,1.329l-11.915,4.064-.584.2-.507-.384L502,132.387c.633-.316,1.34-.667,2.045-1.016.018,4.065.038,8.276.058,12.585v0l0,.683-.562.387-10.369,7.14c-.113-.765-.223-1.511-.334-2.258l11.959,3.939.605.2.168.592c1.244,4.333,2.4,8.39,3.467,12.1-.647-.11-1.242-.21-1.834-.311,2.9-3.839,5.439-7.2,7.585-10.048l.258-.341.389.02c7.961.4,12.575.775,12.569,1.066s-4.631.452-12.6.484l.645-.321c-2.025,2.93-4.425,6.4-7.16,10.356l-1.2,1.731-.638-2.04c-1.152-3.686-2.413-7.714-3.76-12.015l.775.791-12.005-3.783-2.468-.776,2.132-1.482,10.339-7.183-.56,1.072v0c0-4.312-.005-8.522-.007-12.587l0-2.6,2.047,1.581,9.96,7.7-1.091-.185,12.008-3.774,2.038-.64-.735,1.969c-1.679,4.486-3.172,8.475-4.413,11.792-.037-.251-.075-.5-.1-.715C525.727,153.058,528.245,156.96,528.01,157.132Z" transform="translate(196.496 26.187)"/><path class="d" d="M302.827,296.813c-.274-.1.989-4.563,3.389-12.148l.118-.372.409-.123c3.394-1.011,7.476-2.228,12.065-3.6-.1.55-.228,1.189-.349,1.827-3.069-2.263-6.488-4.787-10.129-7.474l-.5-.366.027-.637c.15-3.941.314-8.177.484-12.577l2,1.1-10.309,7.218,0,0-.562.391-.638-.239c-4.034-1.525-7.975-3.015-11.776-4.45.565-.529,1.116-1.046,1.666-1.563,1.245,4.207,2.443,8.244,3.577,12.07l.181.612-.389.476c-2.855,3.49-5.525,6.757-7.97,9.745-.279-.6-.535-1.141-.792-1.684l12.58.509.426.017.206.331c4.208,6.771,6.53,10.775,6.287,10.934s-3.011-3.548-7.581-10.081l.632.348-12.59.018-2.1,0,1.312-1.684c2.371-3.05,4.962-6.38,7.732-9.937-.07.357-.138.717-.21,1.087-1.184-3.811-2.434-7.833-3.735-12.02l-.767-2.471,2.431.908c3.808,1.422,7.753,2.895,11.794,4.4l-1.2.15,0,0c3.542-2.458,7-4.855,10.339-7.175l2.133-1.481-.133,2.582c-.228,4.4-.446,8.633-.65,12.572l-.469-1,9.943,7.719,1.689,1.309-2.039.517c-4.642,1.179-8.773,2.225-12.2,3.1l.527-.494C304.874,292.618,303.1,296.908,302.827,296.813Z" transform="translate(60.102 111.146)"/><g transform="translate(365.602 89.267)"><path class="d" d="M313.587,89.29c.09-.178,2.218.7,5.951,2.416s9.075,4.283,15.593,7.482l.439.216.091.509c.939,5.319,2.02,11.431,3.2,18.073l.1.594-.429.447c-5.113,5.3-10.715,11.121-16.578,17.2v0l-.67.692-.853-.439-21.046-10.85-.554-.286-.091-.6c-1.024-6.688-1.96-12.808-2.778-18.156l-.078-.512.348-.346c5.2-5.183,9.464-9.365,12.467-12.216s4.744-4.371,4.889-4.232-1.325,1.924-4.085,5.012-6.812,7.477-11.839,12.825c.085-.274.171-.55.268-.856.943,5.329,2.022,11.425,3.2,18.087l-.645-.883,21.125,10.695-1.523.253,0,0c5.906-6.039,11.551-11.814,16.7-17.08-.113.361-.226.72-.326,1.039-1.019-6.668-1.955-12.8-2.772-18.142.185.253.371.505.529.723-6.41-3.41-11.614-6.24-15.194-8.261S313.5,89.468,313.587,89.29Z" transform="translate(-295.884 -89.267)"/><path class="d" d="M298.333,124.547c-.514-.5,5.652-7.7,13.771-16.071.664-.678,1.317-1.348,1.939-1.984-.118.377-.233.742-.346,1.106-1.6-10.249-2.363-18.211-1.713-18.317s2.484,7.677,4.253,17.9l.11.632-.457.474c-.615.64-1.262,1.315-1.921,2C305.85,118.659,298.848,125.046,298.333,124.547Z" transform="translate(-294.281 -89.259)"/><path class="d" d="M308.332,100.22c.326-.638,5.312,1.259,11.137,4.237s10.282,5.911,9.955,6.55-5.313-1.259-11.137-4.237S308,100.859,308.332,100.22Z" transform="translate(-287.645 -82.09)"/></g><g transform="translate(468.397 563.48)"><path class="d" d="M376.826,375.792c.1-.171,2.145.855,5.715,2.84s8.666,4.925,14.882,8.585l.421.248.052.515c.53,5.339,1.141,11.473,1.8,18.141l.06.6-.464.412c-5.464,4.87-11.45,10.208-17.715,15.789l0,0-.722.638-.816-.5c-7.07-4.356-13.831-8.52-20.026-12.334l-.53-.328-.045-.6c-.509-6.7-.973-12.833-1.38-18.192l-.038-.517.371-.318c5.54-4.742,10.083-8.562,13.274-11.157s5.03-3.969,5.163-3.819-1.455,1.807-4.423,4.659-7.311,6.89-12.692,11.811c.108-.268.215-.535.333-.835.534,5.349,1.142,11.47,1.807,18.157-.19-.308-.379-.612-.574-.93,6.222,3.771,13.013,7.885,20.116,12.186-.507.047-1.016.09-1.538.138l0,0c6.305-5.537,12.333-10.828,17.831-15.655-.14.349-.279.7-.4,1.011-.5-6.681-.969-12.83-1.373-18.179.166.266.331.534.472.762-6.091-3.863-11.032-7.058-14.424-9.331S376.721,375.962,376.826,375.792Z" transform="translate(-358.018 -375.774)"/><path class="d" d="M359.607,409.682c-.475-.537,6.172-7.2,14.847-14.883.708-.622,1.407-1.235,2.068-1.819-.145.369-.286.723-.427,1.077-.815-10.272-.963-18.215-.306-18.272s1.889,7.79,2.871,18.048l.06.638-.49.439c-.658.587-1.35,1.206-2.053,1.834C367.5,404.426,360.082,410.221,359.607,409.682Z" transform="translate(-356.981 -375.767)"/><path class="d" d="M370.293,386.747c.374-.614,5.173,1.639,10.716,5.028s9.734,6.633,9.361,7.245-5.171-1.638-10.716-5.028S369.919,387.359,370.293,386.747Z" transform="translate(-349.898 -368.568)"/></g><g transform="translate(849.482 338.265)"><path class="d" d="M588.468,270.8c-.163-.116,1.668-3.05,5.086-8.211s8.425-12.544,14.616-21.563l.279-.406.514-.017,27.63-.863.605-.02.379.487c6.827,8.741,14.315,18.332,22.15,28.365l0,0,.589.76-.552.783c-7.263,10.291-14.208,20.133-20.567,29.143l-.358.505-.605.008c-10.2.165-19.529.313-27.665.442l-.512.008-.3-.394c-6.688-8.8-12.09-16-15.779-21.027s-5.668-7.881-5.512-8,2.438,2.5,6.395,7.318,9.6,11.832,16.471,20.49l-.81-.384c8.133-.258,17.457-.55,27.653-.871l-.963.515c6.315-9.042,13.212-18.915,20.424-29.243.013.51.025,1.018.036,1.545l0,0c-7.782-10.07-15.224-19.7-22.008-28.473.343.161.683.324.984.467-10.166.16-19.521.308-27.641.434l.791-.422c-6.385,8.881-11.636,16.094-15.331,21.06S588.632,270.917,588.468,270.8Z" transform="translate(-588.458 -239.724)"/><path class="d" d="M638.2,286.959c-.565.439-9.772-10.449-20.56-24.32-.875-1.132-1.738-2.246-2.556-3.306l1.046.5c-15.623.283-27.652.022-27.668-.637s11.988-1.487,27.608-1.939l.645-.017.4.514c.825,1.054,1.691,2.163,2.574,3.291C630.48,274.914,638.769,286.518,638.2,286.959Z" transform="translate(-588.454 -228.116)"/><path class="d" d="M605.108,269.67c-.587-.412,3.53-7.285,9.2-15.346s10.733-14.266,11.32-13.854-3.528,7.283-9.2,15.347S605.7,270.083,605.108,269.67Z" transform="translate(-577.46 -239.242)"/></g><g transform="translate(872.179 270.136)"><path class="d" d="M602.835,205.219c-.123-.379,6.45-2.882,16.962-6.53l.459-.16.427.3,11.549,8.018.494.342.012.624c.111,5.647.233,11.829.363,18.3v0l.013.964-.913.291c-6.1,1.944-11.932,3.8-17.283,5.5l-.6.19-.484-.356c-4.162-3.081-7.971-5.9-11.312-8.372l-.419-.311,0-.486c.07-11.247.323-18.309.723-18.315s.865,7.047,1.27,18.285c-.133-.256-.268-.51-.416-.795l11.561,8.021c-.356-.055-.712-.11-1.079-.168,5.334-1.754,11.147-3.668,17.23-5.67-.3.414-.594.83-.9,1.255h0c-.065-6.47-.127-12.654-.183-18.3.173.336.349.67.5.964-4.148-3.069-7.968-5.9-11.3-8.365.309.047.619.1.885.138C609.752,203.779,602.959,205.6,602.835,205.219Z" transform="translate(-602.108 -198.53)"/><path class="d" d="M614.263,229.074c-.717.012-1.41-7.225-1.55-16.16-.007-.727-.015-1.442-.022-2.123.186.357.362.692.537,1.026-6.408-4.7-11.057-8.7-10.675-9.24s5.67,2.586,12.176,7.148l.522.366.015.66c.015.682.028,1.4.043,2.123C615.45,221.81,614.981,229.063,614.263,229.074Z" transform="translate(-601.827 -195.888)"/><path class="d" d="M609.42,209.811c-.22-.683,3.467-2.486,8.236-4.027s8.811-2.24,9.032-1.556-3.465,2.486-8.234,4.027S609.641,210.495,609.42,209.811Z" transform="translate(-597.268 -194.928)"/></g><g transform="translate(363.72 141.641)"><g transform="translate(226.005 334.846)"><path class="d" d="M432.256,358.133a27.394,27.394,0,0,1,3.829-2.6c2.556-1.621,6.347-3.964,11.225-6.947,9.759-5.966,23.879-14.484,41.22-24.875l.427-.254.467.2c13.833,5.795,29.783,12.479,47.129,19.747l.56.233.145.6,15.64,64.648,0,.005.224.934-.826.487L495.515,443.8l-.529.313-.56-.241c-17.341-7.431-33.2-14.225-47-20.144l-.469-.2-.113-.484c-4.664-19.9-8.409-36.1-10.936-47.342-1.265-5.62-2.226-10-2.847-12.981a27.92,27.92,0,0,1-.8-4.586,28.289,28.289,0,0,1,1.37,4.449c.8,2.936,1.939,7.275,3.367,12.856,2.86,11.162,6.894,27.3,11.787,47.136-.186-.219-.374-.441-.58-.685,13.857,5.8,29.77,12.464,47.172,19.752-.359.022-.718.047-1.091.071l56.695-33.643c-.2.467-.4.938-.6,1.422l0-.005c-5.47-22.883-10.7-44.76-15.469-64.691.245.288.489.575.705.831-17.284-7.413-33.179-14.232-46.96-20.143l.895-.06c-17.464,10.184-31.734,18.448-41.665,24.122-4.965,2.837-8.846,5.027-11.5,6.485A27.7,27.7,0,0,1,432.256,358.133Z" transform="translate(-432.236 -323.456)"/><path class="d" d="M494.892,428.948c-.349.083-2.208-6.24-4.93-16.533s-6.312-24.551-10.12-40.338c-.617-2.571-1.224-5.1-1.8-7.506.256.3.5.592.748.883-13.279-5.675-24.98-10.806-33.327-14.594s-13.345-6.232-13.216-6.536,5.359,1.588,13.886,4.955,20.351,8.207,33.661,13.8l.6.251.153.632,1.821,7.5c3.808,15.786,7.113,30.116,9.381,40.516S495.241,428.863,494.892,428.948Z" transform="translate(-432.23 -309.647)"/><path class="d" d="M460.544,369.7c-.364-.617,12.053-8.631,27.728-17.9s28.688-16.282,29.053-15.665-12.048,8.63-27.732,17.9S460.91,370.316,460.544,369.7Z" transform="translate(-413.481 -315.078)"/></g><g class="e" transform="translate(148.164 0)"><g class="f"><g transform="translate(48.455 19.72)"><path class="g" d="M472.327,132.625l16.751,65.361-57.763,34.591-16.751-65.363Z" transform="translate(-414.564 -132.625)"/></g><g transform="translate(0 34.591)"><path class="h" d="M450.629,226.651l-48.455-19.72-16.751-65.362,48.455,19.719Z" transform="translate(-385.422 -141.569)"/></g><path class="i" d="M433.878,175.076l-48.455-19.719,57.761-34.591,48.457,19.72Z" transform="translate(-385.422 -120.766)"/></g><path class="j" d="M491.641,140.486l-48.457-19.72-57.761,34.591,16.751,65.362,48.5,19.723,57.718-34.595Z" transform="translate(-385.422 -120.766)"/></g><path class="d" d="M438.938,169.178c.18.311-3.992,3.1-10.883,7.359s-16.5,9.987-27.191,16.174-20.45,11.668-27.577,15.52-11.623,6.079-11.8,5.768,3.992-3.1,10.881-7.358,16.5-9.988,27.2-16.179,20.447-11.663,27.572-15.515S438.759,168.868,438.938,169.178Z" transform="translate(-253.126 -89.123)"/><circle class="k" cx="25.063" cy="25.063" r="25.063" transform="translate(74.463 307.873)"/><g class="e" transform="translate(54.371 265.161)"><g class="f"><g transform="translate(48.457 19.719)"><path class="g" d="M415.918,293.13l16.751,65.362-57.762,34.59-16.75-65.362Z" transform="translate(-358.157 -293.13)"/></g><g transform="translate(0 34.59)"><path class="h" d="M394.221,387.155l-48.456-19.719-16.751-65.362,48.457,19.719Z" transform="translate(-329.014 -302.074)"/></g><path class="i" d="M377.471,335.58l-48.457-19.719,57.762-34.59,48.456,19.719Z" transform="translate(-329.014 -281.271)"/></g><path class="l" d="M435.233,300.99l-48.456-19.719-57.762,34.59,16.751,65.362,48.5,19.724,57.718-34.595Z" transform="translate(-329.014 -281.271)"/></g><g class="e" transform="translate(369.593 254.268)"><g class="f"><g transform="translate(48.455 19.719)"><path class="g" d="M605.5,286.537,622.246,351.9,564.485,386.49l-16.751-65.362Z" transform="translate(-547.734 -286.537)"/></g><g transform="translate(0 34.59)"><path class="h" d="M583.8,380.563l-48.457-19.721L518.592,295.48,567.048,315.2Z" transform="translate(-518.592 -295.48)"/></g><path class="i" d="M567.048,328.988l-48.455-19.721,57.761-34.59L624.811,294.4Z" transform="translate(-518.592 -274.677)"/></g><path class="m" d="M624.811,294.4l-48.457-19.719-57.761,34.59,16.749,65.362,48.5,19.724,57.717-34.595Z" transform="translate(-518.592 -274.677)"/></g><g class="e" transform="translate(201.273 180.963)"><g class="f"><g transform="translate(48.455 19.719)"><path class="g" d="M504.267,242.164l16.749,65.363-57.761,34.59L446.5,276.755Z" transform="translate(-446.504 -242.164)"/></g><g transform="translate(0 34.591)"><path class="h" d="M482.569,336.189,434.114,316.47l-16.751-65.362,48.455,19.719Z" transform="translate(-417.363 -251.108)"/></g><path class="i" d="M465.818,284.615,417.363,264.9,475.124,230.3l48.457,19.719Z" transform="translate(-417.363 -230.305)"/></g><path class="n" d="M523.581,250.024,475.124,230.3,417.363,264.9l16.751,65.362,48.5,19.724,57.716-34.595Z" transform="translate(-417.363 -230.305)"/></g><path class="d" d="M464.338,277.763c.181.311-3.5,2.817-9.594,6.614s-14.6,8.891-24.082,14.376-18.136,10.326-24.466,13.718-10.332,5.334-10.514,5.023,3.5-2.813,9.594-6.613,14.6-8.891,24.085-14.378,18.131-10.326,24.463-13.716S464.158,277.454,464.338,277.763Z" transform="translate(-230.462 -18.097)"/><path class="d" d="M568.474,324.668c.18.309-3.651,2.9-9.987,6.839s-15.178,9.225-25.024,14.923-18.839,10.733-25.41,14.265-10.726,5.56-10.906,5.249,3.648-2.9,9.985-6.839,15.179-9.225,25.03-14.925S551,333.449,557.568,329.918,568.292,324.358,568.474,324.668Z" transform="translate(-163.216 12.578)"/><path class="d" d="M459.2,289.856c-.349.085-2.05-5.6-4.519-14.863s-5.7-22.1-9.122-36.31-6.372-27.123-8.384-36.494-3.081-15.208-2.732-15.291,2.049,5.6,4.518,14.862,5.7,22.1,9.125,36.316,6.37,27.116,8.382,36.488S459.546,289.773,459.2,289.856Z" transform="translate(-204.815 -77.612)"/><path class="d" d="M368.769,338.551c-.349.085-2.007-5.422-4.4-14.388s-5.537-21.4-8.848-35.164-6.167-26.268-8.108-35.347-2.966-14.734-2.619-14.817,2.007,5.421,4.4,14.388,5.537,21.4,8.848,35.169,6.165,26.263,8.108,35.34S369.118,338.466,368.769,338.551Z" transform="translate(-264.231 -43.709)"/><path class="d" d="M560.819,327.472c-.349.085-1.935-5.126-4.218-13.62s-5.264-20.264-8.4-33.3-5.836-24.887-7.662-33.488-2.782-13.964-2.433-14.047,1.935,5.125,4.218,13.618,5.264,20.264,8.4,33.31,5.833,24.88,7.66,33.481S561.168,327.387,560.819,327.472Z" transform="translate(-136.114 -47.492)"/><path class="d" d="M467.614,362.244c-.151.324-5.075-1.61-12.913-5S436.115,349,424.307,343.508,401.869,332.9,394.23,329.08s-12.288-6.342-12.136-6.666,5.075,1.61,12.911,5,18.59,8.239,30.4,13.738,22.434,10.608,30.074,14.426S467.765,361.919,467.614,362.244Z" transform="translate(-239.467 11.107)"/><path class="d" d="M554.953,308.6c-.138.331-5.071-1.388-12.933-4.435s-18.654-7.421-30.512-12.4-22.54-9.624-30.219-13.1-12.363-5.8-12.223-6.129,5.071,1.388,12.933,4.435,18.655,7.421,30.515,12.4,22.537,9.622,30.217,13.1S555.092,308.266,554.953,308.6Z" transform="translate(-181.825 -21.512)"/><path class="d" d="M472.462,273.527a2.539,2.539,0,1,1-2.539-2.537A2.54,2.54,0,0,1,472.462,273.527Z" transform="translate(-182.938 -22.406)"/><path class="d" d="M452.854,249.829a2.539,2.539,0,1,1-2.539-2.537A2.539,2.539,0,0,1,452.854,249.829Z" transform="translate(-195.933 -37.922)"/><path class="d" d="M440.522,278.761a2.539,2.539,0,1,1-2.541-2.537A2.54,2.54,0,0,1,440.522,278.761Z" transform="translate(-204.106 -18.979)"/><path class="d" d="M386.444,323.411a2.537,2.537,0,1,1-2.537-2.537A2.537,2.537,0,0,1,386.444,323.411Z" transform="translate(-239.945 10.256)"/><path class="d" d="M362.734,299.817a2.538,2.538,0,1,1-2.537-2.539A2.539,2.539,0,0,1,362.734,299.817Z" transform="translate(-255.659 -5.194)"/><path class="d" d="M555.287,290.834a2.539,2.539,0,1,1-2.537-2.539A2.537,2.537,0,0,1,555.287,290.834Z" transform="translate(-128.045 -11.075)"/><path class="d" d="M411.613,170.682a2.537,2.537,0,1,1-2.537-2.537A2.538,2.538,0,0,1,411.613,170.682Z" transform="translate(-223.264 -89.365)"/><path class="d" d="M543.591,325.668a2.539,2.539,0,1,1-2.537-2.539A2.538,2.538,0,0,1,543.591,325.668Z" transform="translate(-135.796 11.732)"/><g transform="translate(0 85.908)"><path class="d" d="M296.333,207.446a27.719,27.719,0,0,1,3.829-2.6c2.557-1.62,6.347-3.966,11.225-6.947,9.759-5.966,23.879-14.486,41.221-24.875l.427-.256.467.2c13.831,5.8,29.783,12.479,47.129,19.747l.56.234.145.6,15.64,64.65v.005l.226.934-.828.487L359.6,293.113l-.532.313-.56-.239c-17.339-7.433-33.194-14.228-47-20.146l-.467-.2-.113-.486c-4.664-19.9-8.409-36.1-10.938-47.342-1.264-5.62-2.225-10-2.847-12.981a28.149,28.149,0,0,1-.8-4.586,27.933,27.933,0,0,1,1.37,4.45c.8,2.936,1.939,7.275,3.369,12.856,2.858,11.162,6.892,27.3,11.787,47.136l-.58-.685,47.171,19.75-1.089.073,56.693-33.644-.6,1.422,0,0c-5.472-22.881-10.7-44.76-15.469-64.69.244.288.489.575.7.831L352.728,174.8l.895-.06c-17.462,10.184-31.734,18.447-41.665,24.122-4.965,2.837-8.846,5.027-11.5,6.485A27.562,27.562,0,0,1,296.333,207.446Z" transform="translate(-296.315 -172.768)"/><path class="d" d="M358.971,278.261c-.349.083-2.208-6.24-4.932-16.533s-6.312-24.551-10.12-40.338c-.615-2.571-1.222-5.1-1.8-7.507.256.3.5.594.75.885-13.279-5.677-24.98-10.806-33.328-14.594s-13.344-6.234-13.216-6.536,5.361,1.588,13.887,4.953,20.349,8.209,33.661,13.806l.6.249.155.634c.584,2.4,1.2,4.933,1.821,7.5,3.808,15.786,7.113,30.114,9.38,40.516S359.319,278.176,358.971,278.261Z" transform="translate(-296.308 -158.958)"/><path class="d" d="M324.623,219.013c-.366-.619,12.052-8.633,27.728-17.9s28.688-16.283,29.053-15.667-12.048,8.631-27.732,17.9S324.989,219.63,324.623,219.013Z" transform="translate(-277.558 -164.39)"/></g><g transform="translate(330.516 70.398)"><path class="d" d="M495.11,198.057a27.9,27.9,0,0,1,3.831-2.6c2.556-1.62,6.343-3.962,11.224-6.945,9.759-5.966,23.877-14.484,41.22-24.875l.427-.256.467.2,47.131,19.745.56.234.143.6c4.819,19.918,10.108,41.78,15.64,64.648l0,.005.223.934-.826.487-56.781,33.495-.529.313-.56-.239-47-20.146-.467-.2-.113-.487c-4.664-19.895-8.407-36.1-10.938-47.34-1.262-5.62-2.225-10-2.845-12.981a27.907,27.907,0,0,1-.8-4.586,27.941,27.941,0,0,1,1.37,4.45c.8,2.936,1.937,7.275,3.369,12.856,2.857,11.162,6.89,27.3,11.786,47.136-.188-.219-.374-.439-.58-.685,13.857,5.8,29.768,12.464,47.171,19.75l-1.089.073c17.522-10.4,36.67-21.762,56.693-33.643l-.6,1.422,0,0c-5.47-22.883-10.7-44.76-15.467-64.691.246.288.489.577.7.831-17.283-7.414-33.18-14.232-46.961-20.143l.894-.06c-17.462,10.184-31.734,18.448-41.664,24.122-4.967,2.837-8.846,5.026-11.5,6.485A27.606,27.606,0,0,1,495.11,198.057Z" transform="translate(-495.091 -163.379)"/><path class="d" d="M557.746,268.87c-.349.085-2.208-6.239-4.932-16.531S546.5,227.789,542.694,212c-.615-2.572-1.222-5.1-1.8-7.509l.748.883c-13.277-5.675-24.976-10.8-33.325-14.592s-13.344-6.234-13.216-6.536,5.361,1.586,13.887,4.953,20.349,8.207,33.659,13.806l.6.249.155.633c.584,2.4,1.2,4.933,1.821,7.5,3.808,15.785,7.113,30.113,9.38,40.515S558.095,268.787,557.746,268.87Z" transform="translate(-495.084 -149.569)"/><path class="d" d="M523.4,209.622c-.366-.617,12.052-8.631,27.73-17.9s28.688-16.282,29.052-15.665-12.048,8.631-27.73,17.9S523.764,210.241,523.4,209.622Z" transform="translate(-476.335 -155.001)"/></g></g></g></svg>