<svg xmlns="http://www.w3.org/2000/svg" width="79" height="69.512" viewBox="0 0 79 69.512">
  <path id="polygon" d="M59.817,20.54a5.256,5.256,0,0,0-4.95,0L43.316,27.347l-7.838,4.332L24.133,38.486a5.256,5.256,0,0,1-4.95,0l-8.869-5.363a5.028,5.028,0,0,1-2.475-4.332V18.478a5.088,5.088,0,0,1,2.475-4.332L19.183,8.99a5.256,5.256,0,0,1,4.95,0L33,14.352a5.028,5.028,0,0,1,2.475,4.332v6.807l7.838-4.538V13.94a5.088,5.088,0,0,0-2.475-4.332L24.339-.086a5.256,5.256,0,0,0-4.95,0L2.475,9.815A4.537,4.537,0,0,0,0,13.94V33.329a5.088,5.088,0,0,0,2.475,4.332l16.708,9.695a5.256,5.256,0,0,0,4.95,0l11.345-6.6,7.838-4.538,11.345-6.6a5.256,5.256,0,0,1,4.95,0l8.869,5.157A5.028,5.028,0,0,1,70.956,39.1V49.418a5.088,5.088,0,0,1-2.475,4.332l-8.663,5.157a5.256,5.256,0,0,1-4.95,0L46,53.749a5.028,5.028,0,0,1-2.475-4.332v-6.6l-7.838,4.538v6.807a5.088,5.088,0,0,0,2.475,4.332l16.708,9.695a5.255,5.255,0,0,0,4.95,0l16.708-9.695A5.028,5.028,0,0,0,79,54.162v-19.6a5.088,5.088,0,0,0-2.475-4.332Z" transform="translate(0 0.705)" fill="#87f2e7"/>
</svg>
