<svg xmlns="http://www.w3.org/2000/svg" width="140.118" height="42.748" viewBox="0 0 140.118 42.748">
  <g id="logo" transform="translate(0.1 0.4)">
    <g id="Layer_2_1_" transform="translate(-0.1 -0.4)">
      <g id="Layer_1-2">
        <g id="Layer_2-2" transform="translate(0 0.084)">
          <g id="Layer_1-2-2">
            <path id="Path_1879" data-name="Path 1879" d="M1.9,94.047,2.933,93.6l12.654-5.5,13.687,5.947-5.146,10.629-12.569,1.771L2.111,96.24Z" transform="translate(-1.478 -69.52)" fill="#133444"/>
            <path id="Path_1880" data-name="Path 1880" d="M28.636,66.322a14.052,14.052,0,0,0-8.963-4.956c-.084,0-.148-.021-.232-.021a14.3,14.3,0,0,0-3.29,0c-.084,0-.148.021-.232.021a14.052,14.052,0,0,0-8.963,4.956h0l-.569.949-.949,1.582-.7,1.16h0A.11.11,0,0,1,4.7,70.1v.021l1.518.907,9.7,5.736,1.877,1.1V64.15l-1.877.844V62.948L17.8,62.1l1.877.844,9.532,4.323Z" transform="translate(-3.688 -48.333)" fill="#c42370"/>
            <path id="Path_1881" data-name="Path 1881" d="M28.2,119.716a15.042,15.042,0,0,1-5.525,11.578,14.4,14.4,0,0,1-4.45,2.467,13.027,13.027,0,0,1-4.112.675C6.306,134.437,0,127.5,0,119.716A14.3,14.3,0,0,1,.422,116.3l13.687,8.1L27.8,116.3A15.44,15.44,0,0,1,28.2,119.716Z" transform="translate(0.021 -91.773)" fill="#1c4d6b"/>
            <path id="Path_1882" data-name="Path 1882" d="M58.132,61.284l1.645.759-1.877.844V61.2Z" transform="translate(-45.668 -48.293)"/>
            <path id="Path_1883" data-name="Path 1883" d="M57.9,75.765l1.877-.865V88.608l-1.877-1.1Z" transform="translate(-45.668 -59.104)"/>
            <path id="Path_1884" data-name="Path 1884" d="M66.8,74.9V88.608l13.117-7.74Z" transform="translate(-52.691 -59.104)" fill="#1d4259"/>
            <path id="Path_1885" data-name="Path 1885" d="M66.8,0V15.8l13.117,5.968Z" transform="translate(-52.691)" fill="#4b6b9a"/>
            <path id="Path_1886" data-name="Path 1886" d="M17.8,70.56V84.268l-1.877-1.1L4.7,76.528h0a.11.11,0,0,1,.042-.084h0l1.645-2.72L15.919,69.4v2.067Z" transform="translate(-3.688 -54.764)" fill="#343535"/>
            <path id="Path_1887" data-name="Path 1887" d="M17.717,74.9V88.608l-1.877-1.1L4.621,80.868H4.6l.021-.021,11.219-5.082Z" transform="translate(-3.609 -59.104)" fill="#3e5578"/>
            <path id="Path_1888" data-name="Path 1888" d="M17.717,0V15.8L4.6,21.764Z" transform="translate(-3.609)" fill="#6db2d8"/>
            <path id="Path_1889" data-name="Path 1889" d="M41.6,197c.19.084.4.169.59.253C42,197.169,41.811,197.084,41.6,197Z" transform="translate(-32.806 -155.454)" fill="#335f8a"/>
            <path id="Path_1890" data-name="Path 1890" d="M44.4,198.1a5.21,5.21,0,0,0,.612.211C44.8,198.248,44.611,198.184,44.4,198.1Z" transform="translate(-35.015 -156.322)" fill="#335f8a"/>
            <path id="Path_1891" data-name="Path 1891" d="M49.8,199.9c.169.042.316.084.464.127Z" transform="translate(-39.277 -157.743)" fill="#335f8a"/>
            <path id="Path_1892" data-name="Path 1892" d="M.322,116.3l13.687,8.1a15.356,15.356,0,0,1-.991,3.585c-1.1,2.657-3.311,5.441-7.592,3.311h0A15.085,15.085,0,0,1-.1,119.7,14.258,14.258,0,0,1,.322,116.3Z" transform="translate(0.1 -91.773)" fill="#6db2d8"/>
            <path id="Path_1893" data-name="Path 1893" d="M43.224,161.538h0c-.084.063,0,0-.274.232l-.127.084-.19.127-.232.169c.232-.169-.19.127-.274.19a1.42,1.42,0,0,0-.232.148l-.148.105a.641.641,0,0,0-.148.105s-.063.063-.084.063c.084-.063-.105.042-.19.105a1.136,1.136,0,0,0-.274.148l-.3.148-.127.063c-.084.042-.042,0-.127.063s-.19.084-.3.148a3.1,3.1,0,0,1-.359.169c.359-.169,0,0-.19.084.19-.084-.337.127-.569.211-.084.021-.548.169-.633.19s-.19.063-.274.084c-.169.042-.316.084-.464.127-.063.021-.127.021-.169.042l-.105.021-.253.063c-.084.021-.148.021-.232.042s-.148.021-.211.042-.169.021-.232.042a.158.158,0,0,0-.105.021l-.169.021H36.16c-.063,0-.127.021-.19.021s-.169.021-.253.021H33.566c-.084,0-.169-.021-.253-.021a.583.583,0,0,1-.19-.021h-.084c-.063,0-.127-.021-.169-.021a.158.158,0,0,1-.105-.021.9.9,0,0,1-.232-.042.749.749,0,0,1-.211-.042c-.063-.021-.148-.021-.232-.042l-.253-.063-.105-.021a.4.4,0,0,1-.169-.042c-.169-.042-.316-.084-.464-.127l-.274-.084a1.189,1.189,0,0,1-.253-.084c-.211-.063-.4-.148-.612-.211a4.98,4.98,0,0,1-.59-.253c-.084-.042-.19-.084-.3-.127a1.289,1.289,0,0,1-.3-.148,1.136,1.136,0,0,1-.274-.148h0c-.084-.042-.19-.105-.274-.148a1.857,1.857,0,0,1-.211-.127c-.211-.127-.337-.211-.211-.127l-.127-.084-.232-.148-.084-.042-.211-.148c-.084-.063-.169-.105-.253-.169s-.19-.127-.274-.19-.169-.148-.232-.19l-.084-.063a.826.826,0,0,1-.211-.169h0c4.281,2.13,6.474-.7,7.571-3.332a16.459,16.459,0,0,0,.991-3.585,15.408,15.408,0,0,0,.991,3.627C36.792,160.842,38.943,163.647,43.224,161.538Z" transform="translate(-20.575 -121.996)" fill="#529bba"/>
            <path id="Path_1894" data-name="Path 1894" d="M81.6,200.027c.169-.042.316-.084.464-.127Z" transform="translate(-64.37 -157.743)" fill="#335f8a"/>
            <path id="Path_1895" data-name="Path 1895" d="M86.3,198.311c.211-.063.4-.127.612-.211C86.7,198.184,86.511,198.248,86.3,198.311Z" transform="translate(-68.079 -156.322)" fill="#335f8a"/>
            <path id="Path_1896" data-name="Path 1896" d="M89,197.174c.19-.084.443-.169.633-.274C89.422,197.005,89.19,197.09,89,197.174Z" transform="translate(-70.21 -155.375)" fill="#335f8a"/>
            <path id="Path_1897" data-name="Path 1897" d="M80.909,119.716a15.042,15.042,0,0,1-5.525,11.578c-4.281,2.13-6.5-.675-7.592-3.311A16.459,16.459,0,0,1,66.8,124.4l13.687-8.1A14.3,14.3,0,0,1,80.909,119.716Z" transform="translate(-52.691 -91.773)" fill="#4b6b9a"/>
          </g>
        </g>
        <path id="Path_1898" data-name="Path 1898" d="M187.94,82.328H183.3V51.348h4.64v2.193a8.777,8.777,0,0,1,13.033.316,10.99,10.99,0,0,1,2.72,7.634,10.826,10.826,0,0,1-2.7,7.508,8.776,8.776,0,0,1-6.749,2.995,8.677,8.677,0,0,1-6.306-2.826v13.16Zm11.03-20.836a7.029,7.029,0,0,0-1.561-4.7,5.075,5.075,0,0,0-3.986-1.835,5.269,5.269,0,0,0-4.133,1.771,6.748,6.748,0,0,0-1.582,4.661,6.9,6.9,0,0,0,1.582,4.661A5.139,5.139,0,0,0,193.4,67.84a4.949,4.949,0,0,0,3.965-1.814,6.652,6.652,0,0,0,1.6-4.534Z" transform="translate(-144.622 -40.002)" fill="#6db2d8"/>
        <path id="Path_1899" data-name="Path 1899" d="M298.8,61.156a10,10,0,0,1,3.1-7.4,10.927,10.927,0,0,1,15.184.021,10.744,10.744,0,0,1-.021,15.079,10.562,10.562,0,0,1-7.676,3.037,10.16,10.16,0,0,1-7.55-3.079A10.445,10.445,0,0,1,298.8,61.156Zm4.745.084a6.791,6.791,0,0,0,1.6,4.766,5.628,5.628,0,0,0,4.344,1.771,5.687,5.687,0,0,0,4.344-1.75,6.618,6.618,0,0,0,1.624-4.682,6.654,6.654,0,0,0-1.624-4.682,5.628,5.628,0,0,0-4.344-1.771,5.567,5.567,0,0,0-4.3,1.771A6.446,6.446,0,0,0,303.541,61.24Z" transform="translate(-235.76 -39.919)" fill="#6db2d8"/>
        <path id="Path_1900" data-name="Path 1900" d="M417.421,51.342h4.64v1.793a9.133,9.133,0,0,1,2.257-1.835,5.161,5.161,0,0,1,2.383-.506,7.522,7.522,0,0,1,3.838,1.2l-2.13,4.239a4.417,4.417,0,0,0-2.573-.949c-2.531,0-3.8,1.9-3.8,5.715V71.4H417.4Z" transform="translate(-329.353 -39.996)" fill="#6db2d8"/>
        <path id="Path_1901" data-name="Path 1901" d="M496.222,30.183V45.916h-4.64V30.183H489.6V25.86h1.982V18.5h4.64v7.36h3.606v4.323Z" transform="translate(-386.326 -14.514)" fill="#6db2d8"/>
        <path id="Path_1902" data-name="Path 1902" d="M549.7,2.595a2.916,2.916,0,0,1,.886-2.109,3.029,3.029,0,0,1,4.281,0,2.8,2.8,0,0,1,.886,2.13,2.963,2.963,0,0,1-.886,2.151,2.8,2.8,0,0,1-2.13.886,2.963,2.963,0,0,1-2.151-.886A2.9,2.9,0,0,1,549.7,2.595Zm5.336,8.351V31h-4.64V10.946Z" transform="translate(-433.748 0.4)" fill="#6db2d8"/>
        <path id="Path_1903" data-name="Path 1903" d="M609.412,54.757,605.574,56.8c-.612-1.244-1.35-1.856-2.235-1.856a1.621,1.621,0,0,0-1.1.422,1.387,1.387,0,0,0-.443,1.076c0,.759.886,1.54,2.678,2.278a15.358,15.358,0,0,1,4.956,2.931,5.059,5.059,0,0,1,1.286,3.606,6.281,6.281,0,0,1-2.151,4.851,7.2,7.2,0,0,1-5.019,1.856c-3.374,0-5.736-1.645-7.149-4.914l3.965-1.835a7.862,7.862,0,0,0,1.265,1.835,2.87,2.87,0,0,0,2.024.78q2.341,0,2.341-2.151c0-.822-.612-1.6-1.814-2.3-.464-.232-.928-.464-1.392-.675s-.949-.443-1.413-.675a8.368,8.368,0,0,1-2.847-1.982,4.907,4.907,0,0,1-1.055-3.227,5.681,5.681,0,0,1,1.793-4.323,6.241,6.241,0,0,1,4.45-1.708C606.249,50.771,608.147,52.1,609.412,54.757Z" transform="translate(-470.603 -39.995)" fill="#6db2d8"/>
      </g>
    </g>
    <g id="Group_1480" data-name="Group 1480" transform="translate(92.777 33.786)">
      <g id="Group_1478" data-name="Group 1478" transform="translate(9.785)">
        <g id="Group_1477" data-name="Group 1477">
          <g id="Group_1468" data-name="Group 1468" transform="translate(30.474 1.666)">
            <path id="Path_1904" data-name="Path 1904" d="M631.2,173.248h.612V169.6H631.2Z" transform="translate(-631.2 -169.6)"/>
          </g>
          <rect id="Rectangle_33" data-name="Rectangle 33" width="0.612" height="0.612" transform="translate(30.474 0.59)"/>
          <g id="Group_1469" data-name="Group 1469">
            <path id="Path_1905" data-name="Path 1905" d="M488.914,162.248c-.675,0-1.371.253-1.371.907,0,.569.654.738,1.413.865,1.055.169,2.088.38,2.088,1.561s-1.139,1.561-2.13,1.561a2.281,2.281,0,0,1-2.214-1.2l.548-.316a1.924,1.924,0,0,0,1.687.928c.633,0,1.476-.211,1.476-.97,0-.654-.717-.844-1.518-.949-1.012-.148-1.982-.38-1.982-1.455-.021-1.1,1.1-1.476,2-1.476a2.034,2.034,0,0,1,1.982.949l-.485.316A1.811,1.811,0,0,0,488.914,162.248Z" transform="translate(-486.7 -161.7)"/>
          </g>
          <g id="Group_1470" data-name="Group 1470" transform="translate(4.829 0.105)">
            <path id="Path_1906" data-name="Path 1906" d="M510.212,162.2v2.151a1.458,1.458,0,0,1,1.286-.654c1.033,0,1.54.7,1.54,1.708v2.025h-.612v-2.025a1,1,0,0,0-1.055-1.139,1.154,1.154,0,0,0-1.16,1.2v1.961H509.6V162.2Z" transform="translate(-509.6 -162.2)"/>
          </g>
          <g id="Group_1471" data-name="Group 1471" transform="translate(8.773 1.56)">
            <path id="Path_1907" data-name="Path 1907" d="M531.59,172.873l-.021-.675a1.558,1.558,0,0,1-1.371.738,1.838,1.838,0,0,1-1.9-1.94,1.792,1.792,0,0,1,1.9-1.9,1.555,1.555,0,0,1,1.371.738v-.675h.59v3.691l-.569.021Zm-1.35-3.184a1.35,1.35,0,0,0,0,2.7,1.35,1.35,0,0,0,0-2.7Z" transform="translate(-528.3 -169.098)"/>
          </g>
          <g id="Group_1472" data-name="Group 1472" transform="translate(13.223 1.582)">
            <path id="Path_1908" data-name="Path 1908" d="M549.4,169.263h.591l.021.717a1.663,1.663,0,0,1,1.413-.78,1.909,1.909,0,0,1-.042,3.817,1.592,1.592,0,0,1-1.392-.738v2.4H549.4Zm3.269,1.856a1.3,1.3,0,1,0-2.594,0,1.275,1.275,0,0,0,1.286,1.329A1.256,1.256,0,0,0,552.669,171.119Z" transform="translate(-549.4 -169.2)"/>
          </g>
          <g id="Group_1473" data-name="Group 1473" transform="translate(17.483 1.54)">
            <path id="Path_1909" data-name="Path 1909" d="M573.143,172.184a2.131,2.131,0,0,1-1.6.654,1.919,1.919,0,1,1-.021-3.838,1.771,1.771,0,0,1,1.856,2.172h-3.142a1.244,1.244,0,0,0,1.329,1.1,1.657,1.657,0,0,0,1.181-.464l.4.38Zm-.359-1.518a1.106,1.106,0,0,0-1.244-1.1,1.259,1.259,0,0,0-1.307,1.1Z" transform="translate(-569.6 -169)"/>
          </g>
          <g id="Group_1474" data-name="Group 1474" transform="translate(21.616)">
            <path id="Path_1910" data-name="Path 1910" d="M591.414,162.248c-.675,0-1.371.253-1.371.907,0,.569.654.738,1.413.865,1.054.169,2.088.38,2.088,1.561s-1.139,1.561-2.13,1.561a2.281,2.281,0,0,1-2.214-1.2l.548-.316a1.924,1.924,0,0,0,1.687.928c.633,0,1.476-.211,1.476-.97,0-.654-.717-.844-1.518-.949-1.012-.148-1.982-.38-1.982-1.455-.021-1.1,1.1-1.476,2-1.476a2.034,2.034,0,0,1,1.982.949l-.485.316A1.84,1.84,0,0,0,591.414,162.248Z" transform="translate(-589.2 -161.7)"/>
          </g>
          <g id="Group_1475" data-name="Group 1475" transform="translate(26.425 0.084)">
            <path id="Path_1911" data-name="Path 1911" d="M612.612,162.1v2.151a1.458,1.458,0,0,1,1.286-.654c1.033,0,1.539.7,1.539,1.708v2.025h-.612v-2.025a1,1,0,0,0-1.055-1.139,1.154,1.154,0,0,0-1.16,1.2v1.961H612V162.1Z" transform="translate(-612 -162.1)"/>
          </g>
          <g id="Group_1476" data-name="Group 1476" transform="translate(31.676 0.021)">
            <path id="Path_1912" data-name="Path 1912" d="M639.621,187Z" transform="translate(-639.031 -181.686)"/>
            <path id="Path_1913" data-name="Path 1913" d="M638.207,163.15c0-.548.253-.8.654-.8h.021l.148-.527c-.063,0-.127-.021-.169-.021a1.178,1.178,0,0,0-1.244,1.329v.3H636.9v.548h.717v3.121h.612v-3.121h.738v-.527h-.738l-.021-.3Z" transform="translate(-636.9 -161.8)"/>
          </g>
          <path id="Path_1914" data-name="Path 1914" d="M650.088,168.56c-.042,0-.105.021-.148.021-.443,0-.591-.274-.591-.717v-1.9h.78v-.548h-.78V164.3l-.612.063v1.054H648v.527h.738v1.9c0,.822.38,1.286,1.16,1.265a1.424,1.424,0,0,0,.3-.042Z" transform="translate(-613.983 -163.752)"/>
        </g>
      </g>
      <g id="Group_1479" data-name="Group 1479" transform="translate(0 0.042)">
        <path id="Path_1915" data-name="Path 1915" d="M442.957,164.494a1.355,1.355,0,0,0,.527-.38,1.14,1.14,0,0,0,.274-.78,1.415,1.415,0,0,0-.169-.7,1.217,1.217,0,0,0-.422-.443,1.7,1.7,0,0,0-.569-.232,3.219,3.219,0,0,0-.633-.063H440.3v5.483h1.645a3.418,3.418,0,0,0,.844-.105,1.718,1.718,0,0,0,.654-.316,1.56,1.56,0,0,0,.422-.485,1.274,1.274,0,0,0,.148-.633,1.339,1.339,0,0,0-.359-.97A1.619,1.619,0,0,0,442.957,164.494Zm.042-.7a.79.79,0,0,1-.253.274,1.074,1.074,0,0,1-.358.148,2.323,2.323,0,0,1-.38.042h-1.033V162.49h.886a3.459,3.459,0,0,1,.485.042,1.02,1.02,0,0,1,.38.148.789.789,0,0,1,.253.274.8.8,0,0,1,.084.4A.9.9,0,0,1,443,163.8Zm-2.046,1.033h1.055a1.68,1.68,0,0,1,.991.253.832.832,0,0,1,.337.738.916.916,0,0,1-.105.443,1.058,1.058,0,0,1-.3.316,1.023,1.023,0,0,1-.443.169,2.3,2.3,0,0,1-.548.063H441v-1.982Z" transform="translate(-440.3 -161.9)"/>
        <path id="Path_1916" data-name="Path 1916" d="M463.152,170.6l-1.076,2.91L460.9,170.6h-.7l1.54,3.606-.274.717a1.441,1.441,0,0,1-.253.443.451.451,0,0,1-.38.148.985.985,0,0,1-.358-.063l-.063-.021-.063.59h.042a3.448,3.448,0,0,0,.464.042,1.1,1.1,0,0,0,.759-.253,1.943,1.943,0,0,0,.422-.675l1.793-4.534Z" transform="translate(-456.003 -168.765)"/>
      </g>
    </g>
  </g>
</svg>
