<svg xmlns="http://www.w3.org/2000/svg" xmlns:xlink="http://www.w3.org/1999/xlink" width="109" height="109" viewBox="0 0 109 109"><defs><style>.a{fill:url(#a);}.b{fill:#2395fe;}</style><linearGradient id="a" x1="0.5" x2="0.5" y2="1" gradientUnits="objectBoundingBox"><stop offset="0" stop-color="#fff"/><stop offset="1" stop-color="#aedcff"/></linearGradient></defs><g transform="translate(-666 -214)"><circle class="a" cx="54.5" cy="54.5" r="54.5" transform="translate(666 214)"/><g transform="translate(508.432 -69.268)"><path class="b" d="M242.077,345.91q6.2,0,12.4,0c3.31,0,5.324,1.991,5.328,5.275.008,6.122,0,12.245.02,18.367a2.116,2.116,0,0,1-1.073,2.029q-5.719,3.406-11.42,6.843c-.853.511-1.713,1.01-2.561,1.531a4.754,4.754,0,0,1-5.289.026l-7.212-4.323c-2.282-1.368-4.56-2.741-6.847-4.1a1.986,1.986,0,0,1-1.035-1.865c.015-6.273,0-12.547.024-18.82a4.827,4.827,0,0,1,5-4.957C233.632,345.9,237.855,345.911,242.077,345.91Zm-4.892,9.707c-.647-.144-1.056.31-1.341.862a1.485,1.485,0,0,0,.308,1.826c.948.969,1.909,1.925,2.871,2.88,1.1,1.092,1.848,1.109,2.929.033q2.946-2.933,5.867-5.891a1.637,1.637,0,1,0-2.273-2.278c-1.157,1.144-2.3,2.3-3.454,3.448-.511.505-1.017,1.348-1.574,1.389-.66.049-1.091-.911-1.644-1.409C238.405,356.056,238,355.535,237.185,355.618Zm5.01,9.6c-2.077,0-4.153-.006-6.23,0-1.207,0-1.862.576-1.865,1.6s.673,1.625,1.857,1.628q6.139.018,12.279,0c1.178,0,1.866-.627,1.866-1.622,0-1.02-.656-1.6-1.858-1.6C246.228,365.21,244.211,365.217,242.2,365.217Z" transform="translate(-30.185 -27.017)"/><path class="b" d="M190.9,379.839a1.783,1.783,0,0,1,.128,1.043c.011,4.675.073,9.352-.01,14.026a5.516,5.516,0,0,0,3.014,5.319c4.456,2.588,8.869,5.252,13.272,7.932a8.118,8.118,0,0,0,9.037.106q6.974-4.192,13.967-8.354a5.12,5.12,0,0,0,2.495-4.874c-.04-4.705-.007-9.411,0-14.117,0-.324,0-.648,0-1.192,2.062,1.836,4.3,3.187,5.555,5.554a8.061,8.061,0,0,1,.894,3.832c0,7.481-.057,14.962.053,22.441a5.422,5.422,0,0,1-5.035,5.073c-14.9-.069-29.8-.031-44.7-.039a4.759,4.759,0,0,1-4.992-5c0-7.36.044-14.72,0-22.08a8.563,8.563,0,0,1,2.9-6.746C188.572,381.765,189.737,380.827,190.9,379.839Z" transform="translate(0 -52.657)"/><path class="b" d="M264.926,315.629c1.866-1.6,3.506-3.1,5.259-4.468a4.371,4.371,0,0,1,5.247-.038c1.791,1.359,3.445,2.9,5.33,4.506Z" transform="translate(-60.919)"/></g></g></svg>