<svg width="22" height="26.000000000000004" xmlns="http://www.w3.org/2000/svg">

 <g>
  <title>background</title>
  <rect fill="none" id="canvas_background" height="28" width="24" y="-1" x="-1"/>
 </g>
 <g>
  <title>Layer 1</title>
  <path fill="#ffffff" stroke="null" transform="rotate(179.95913696289062 12.3139009475708,13.925202369689941) " id="svg_1" d="m20.662199,18.285815l-6.869681,6.562181c-0.379468,0.392553 -0.89633,0.58883 -1.465532,0.58883c-0.569202,0 -1.079521,-0.196277 -1.465532,-0.58883l-6.895852,-6.562181c-0.817819,-0.778564 -0.817819,-2.047819 0,-2.826383c0.817819,-0.778564 2.139415,-0.778564 2.957234,0l3.297447,3.153511l0,-14.197342c0,-1.105692 0.935585,-2.002021 2.093617,-2.002021c1.158032,0 2.093617,0.89633 2.093617,2.002021l0,14.197342l3.297447,-3.153511c0.817819,-0.778564 2.139415,-0.778564 2.957234,0c0.817819,0.778564 0.817819,2.041277 0,2.826383z"/>
 </g>
</svg>