<svg width="186" height="41" viewBox="0 0 186 41" fill="none" xmlns="http://www.w3.org/2000/svg">
<g clip-path="url(#clip0_1_28)">
<path fill-rule="evenodd" clip-rule="evenodd" d="M0.716997 0.908C5.34 6.576 10.417 13.697 11.238 14.848L11.332 14.98C11.77 15.591 12.132 16.045 12.405 16.39C13.014 17.156 13.195 17.383 12.831 17.59C12.5565 17.7441 12.2457 17.8214 11.931 17.814C11.5535 17.7987 11.1952 17.644 10.925 17.38C10.725 17.19 9.373 15.204 7.525 12.313C6.121 10.1 4.94 8.268 4.908 8.238C4.834 8.167 4.835 8.169 7.388 12.784C8.988 15.684 10.088 17.823 10.088 17.96C10.088 18.239 10.013 18.385 9.672 18.769C9.03522 19.5817 8.68379 20.5816 8.672 21.614C8.467 23.281 7.89 24.458 6.29 26.473C5.77394 27.0414 5.32777 27.6695 4.961 28.344C4.68243 28.8633 4.54032 29.4448 4.548 30.034C4.50041 30.7387 4.5939 31.4459 4.823 32.114C5.05466 32.8253 5.39174 33.4978 5.823 34.109C6.17384 34.5734 6.43436 35.0995 6.591 35.66C6.591 35.836 6.624 35.837 7.38 35.66C8.91187 35.3894 10.3344 34.6864 11.48 33.634C11.7037 33.4341 11.8777 33.1848 11.9879 32.9058C12.0982 32.6267 12.1417 32.3258 12.115 32.027C12.1514 31.7256 12.1004 31.4202 11.968 31.147C11.6187 30.5428 11.1116 30.045 10.501 29.707C10.0605 29.4811 9.67549 29.1603 9.37376 28.7678C9.07203 28.3753 8.86105 27.9208 8.756 27.437C8.67856 26.5454 8.90481 25.6538 9.398 24.907C9.95093 23.8798 10.2638 22.7406 10.313 21.575C10.383 20.684 10.48 20.332 10.733 20.05C10.8823 19.8942 11.0621 19.7709 11.2611 19.6876C11.4602 19.6044 11.6743 19.563 11.89 19.566C12.7392 19.5093 13.5467 19.1772 14.19 18.62C14.4137 18.4305 14.5937 18.1949 14.7177 17.9292C14.8416 17.6635 14.9065 17.3742 14.908 17.081L14.932 16.581L14.661 16.262C13.684 15.114 0.0609967 0 -3.25247e-06 0C-0.0120033 0 0.309997 0.408 0.716997 0.908ZM7.139 30.938C7.24593 30.7467 7.27783 30.5225 7.22847 30.309C7.17912 30.0954 7.05204 29.9079 6.872 29.783C6.522 29.548 5.978 29.659 5.978 29.965C5.978 30.059 6.029 30.127 6.145 30.187C6.339 30.287 6.353 30.402 6.201 30.634C6.049 30.866 6.059 31.076 6.236 31.216C6.31107 31.2668 6.39659 31.3002 6.48626 31.3136C6.57593 31.327 6.66747 31.3201 6.75412 31.2934C6.84078 31.2667 6.92034 31.221 6.98695 31.1594C7.05356 31.0979 7.10552 31.0223 7.139 30.938ZM13.81 9.317C13.373 9.248 13.354 9.24 13.56 9.208C14.2208 9.16957 14.8836 9.22887 15.527 9.384C17.2364 9.87939 18.7469 10.8994 19.845 12.3L20.232 12.735L20.785 12.645C23.0474 12.2578 25.3738 12.5526 27.468 13.492C28.0013 13.7368 28.5083 14.0353 28.981 14.383C29.0529 14.5742 29.0999 14.7738 29.121 14.977C29.2926 15.7501 29.2138 16.5577 28.896 17.283C28.8217 17.376 28.7763 17.4887 28.7652 17.6072C28.7542 17.7257 28.7781 17.8449 28.834 17.95C28.8853 18.0583 28.966 18.15 29.067 18.2146C29.168 18.2791 29.2851 18.3139 29.405 18.315C29.898 18.315 30.428 17.51 30.674 16.391L30.774 15.946L30.961 16.17C31.9886 17.3133 32.6919 18.7105 32.998 20.217L33.035 20.524L32.857 20.245C32.6018 19.8191 32.2572 19.4537 31.847 19.174C31.136 18.698 30.383 18.537 28.391 18.431C27.094 18.4156 25.8056 18.219 24.563 17.847C22.845 17.281 21.978 16.528 19.937 13.823C19.3274 12.9703 18.6506 12.1678 17.913 11.423C16.8128 10.2907 15.3714 9.55085 13.81 9.317ZM29.386 12C29.3932 11.375 29.5191 10.757 29.757 10.179C29.805 10.057 29.8649 9.94012 29.936 9.83C29.9228 9.93828 29.8949 10.0443 29.853 10.145C29.6879 10.7524 29.6623 11.3893 29.778 12.008C29.916 12.958 29.995 13.095 30.989 14.122C31.455 14.603 31.998 15.211 32.195 15.471L32.553 15.945L32.195 15.606C31.6719 15.1217 31.1155 14.6746 30.53 14.268C30.381 14.191 30.359 14.192 30.267 14.284C30.175 14.376 30.167 14.497 30.153 15.102C30.1782 15.8453 30.0231 16.5836 29.701 17.254C29.535 17.581 29.509 17.511 29.659 17.142C29.7973 16.7203 29.8393 16.273 29.782 15.833C29.782 14 29.565 13.559 28.301 12.805C27.981 12.614 27.454 12.338 27.129 12.192C26.9315 12.1119 26.74 12.0176 26.556 11.91C27.1563 12.0384 27.746 12.2122 28.32 12.43C29.058 12.717 29.179 12.754 29.269 12.719C29.328 12.7 29.361 12.519 29.386 12ZM13.342 10.592C13.2816 12.2088 13.7441 13.802 14.661 15.135C15.2516 16.0287 16.1613 16.6629 17.204 16.908C17.72 16.955 17.875 16.792 17.641 16.448C17.3147 15.9672 17.0373 15.455 16.813 14.919C16.748 14.719 16.605 14.145 16.497 13.634C16.127 11.89 15.763 11.211 14.922 10.695C14.5014 10.4655 14.0502 10.2971 13.582 10.195L13.382 10.158L13.342 10.592ZM28.309 24.324C24.16 22.637 22.698 21.172 22.698 18.7C22.6892 18.4793 22.6986 18.2582 22.726 18.039C22.8512 18.1194 22.9705 18.2086 23.083 18.306C23.924 18.988 24.867 19.279 27.475 19.663C28.56 19.7908 29.631 20.0171 30.675 20.339C31.814 20.642 32.8415 21.2666 33.6348 22.1383C34.428 23.0099 34.9534 24.0916 35.148 25.254C35.2468 26.133 35.2026 27.0222 35.017 27.887C34.8773 28.4297 34.6488 28.9457 34.341 29.414C34.31 29.424 34.279 29.304 34.271 29.139C34.2383 28.6803 34.113 28.233 33.9029 27.8239C33.6927 27.4149 33.4019 27.0527 33.048 26.759C32.202 26.029 31.072 25.448 28.309 24.324ZM25.196 24.138C25.2806 24.4293 25.3474 24.7255 25.396 25.025C25.5809 25.9468 25.4 26.9045 24.8914 27.6953C24.3828 28.486 23.5865 29.0479 22.671 29.262C22.457 29.328 21.615 29.495 20.799 29.632C19.7202 29.7503 18.6655 30.0315 17.671 30.466C17.2681 30.64 16.8904 30.8674 16.548 31.142C16.6399 31.1374 16.7301 31.1157 16.814 31.078C17.9623 30.7088 19.1589 30.5117 20.365 30.493C20.991 30.46 21.704 30.408 21.948 30.377C23.1263 30.3015 24.2391 29.8087 25.087 28.987C25.4837 28.5923 25.783 28.1106 25.961 27.58C26.0922 27.2166 26.1424 26.8289 26.108 26.444C26.1443 26.0464 26.0917 25.6457 25.954 25.271C25.814 24.8213 25.5866 24.4037 25.285 24.042L25.085 23.819L25.196 24.138ZM27.296 28.438C26.7587 27.3778 26.6251 26.1584 26.92 25.007C26.952 24.892 27.004 24.797 27.036 24.797C27.1396 24.8351 27.237 24.8884 27.325 24.955C27.579 25.128 28.088 25.419 29.446 26.166C30.7049 26.7645 31.8321 27.6075 32.762 28.646C33.3438 29.3857 33.7229 30.2642 33.862 31.195C33.9493 32.0318 33.9156 32.8768 33.762 33.704C33.5695 34.5532 33.2009 35.3526 32.68 36.0505C32.159 36.7483 31.4975 37.329 30.738 37.755C30.5958 37.8379 30.4485 37.9118 30.297 37.976C30.3336 37.8147 30.3939 37.6596 30.476 37.516C30.7264 37.0107 30.8718 36.46 30.9036 35.8969C30.9354 35.3339 30.8529 34.7703 30.661 34.24C30.2281 33.1605 29.662 32.1392 28.976 31.2C28.3451 30.3244 27.784 29.4006 27.298 28.437L27.296 28.438ZM16.914 32.363C14.9887 32.7365 13.1954 33.6097 11.714 34.895L11.256 35.286L11.656 35.35C12.4573 35.3903 13.2406 35.6026 13.9527 35.9723C14.6648 36.3421 15.289 36.8607 15.783 37.493C16.2284 38.105 16.8706 38.5452 17.602 38.74C18.069 38.8805 18.5717 38.8415 19.0114 38.6306C19.4511 38.4197 19.7962 38.0521 19.979 37.6C20.1318 37.1312 20.1166 36.6238 19.936 36.165C19.8334 35.9721 19.6898 35.804 19.5154 35.6724C19.341 35.5407 19.14 35.4488 18.9263 35.403C18.7127 35.3572 18.4916 35.3586 18.2786 35.4071C18.0656 35.4557 17.8657 35.5502 17.693 35.684C17.5775 35.7723 17.489 35.8911 17.4375 36.027C17.3859 36.1629 17.3734 36.3105 17.4012 36.4532C17.4291 36.5958 17.4963 36.7279 17.5952 36.8344C17.6941 36.9409 17.8208 37.0177 17.961 37.056C18.102 37.086 18.098 37.079 17.925 37C17.8078 36.9606 17.7066 36.8842 17.6366 36.7823C17.5666 36.6804 17.5316 36.5585 17.537 36.435C17.5516 36.2805 17.6054 36.1323 17.6933 36.0045C17.7812 35.8766 17.9003 35.7733 18.0394 35.7044C18.1784 35.6355 18.3327 35.6032 18.4877 35.6107C18.6427 35.6181 18.7932 35.6651 18.925 35.747C19.1382 35.8167 19.3217 35.9561 19.4461 36.1427C19.5706 36.3294 19.6286 36.5524 19.611 36.776C19.6141 36.9591 19.5777 37.1408 19.5043 37.3086C19.431 37.4764 19.3223 37.6265 19.1858 37.7486C19.0493 37.8707 18.8881 37.962 18.7132 38.0162C18.5382 38.0705 18.3536 38.0864 18.172 38.063C17.7169 37.9891 17.2986 37.7682 16.981 37.434C16.8221 37.2468 16.7085 37.0257 16.6488 36.7875C16.5891 36.5494 16.585 36.3008 16.6368 36.0608C16.6886 35.8208 16.795 35.596 16.9476 35.4038C17.1002 35.2115 17.2951 35.0569 17.517 34.952C17.9087 34.7783 18.3384 34.7077 18.7651 34.7469C19.1919 34.7861 19.6015 34.9338 19.955 35.176C20.814 35.744 21.179 36.264 21.919 37.969C22.12 38.4457 22.3501 38.9095 22.608 39.358C22.8579 39.8219 23.2252 40.212 23.6733 40.4893C24.1213 40.7666 24.6343 40.9213 25.161 40.938C25.6863 40.9462 26.2049 40.8191 26.667 40.569C27.0019 40.4167 27.3089 40.2091 27.575 39.955C27.4498 39.9769 27.3281 40.0152 27.213 40.069C26.7623 40.2886 26.2653 40.3962 25.7641 40.3828C25.2629 40.3694 24.7723 40.2354 24.334 39.992C23.8489 39.5578 23.527 38.9706 23.422 38.328C23.393 38.197 23.295 37.619 23.206 37.043C23.1306 36.023 22.8035 35.0376 22.254 34.175C21.6005 33.3192 20.669 32.718 19.62 32.475C18.7308 32.2847 17.8158 32.2468 16.914 32.363ZM14.47 21.082C14.5493 20.799 14.6934 20.5383 14.891 20.3207C15.0885 20.103 15.334 19.9343 15.608 19.828C16.0394 19.7401 16.4871 19.7829 16.894 19.951C17.1797 20.0868 17.4204 20.3019 17.5873 20.5707C17.7541 20.8395 17.8401 21.1507 17.835 21.467C17.72 22.085 16.728 22.579 15.588 22.587C15.005 22.587 14.788 22.512 14.568 22.212C14.4144 21.8557 14.38 21.4594 14.47 21.082ZM16.742 20.172C16.8077 20.1991 16.8663 20.2407 16.9135 20.2938C16.9608 20.3469 16.9953 20.41 17.0146 20.4784C17.0338 20.5468 17.0373 20.6186 17.0247 20.6885C17.0122 20.7585 16.9839 20.8246 16.942 20.882C16.7399 21.0919 16.4633 21.2137 16.172 21.221C15.76 21.221 15.311 20.921 15.311 20.655C15.31 20.111 16.172 19.82 16.741 20.171L16.742 20.172ZM106.142 21.728C105.212 18.633 106.742 16.066 110.02 15.241C111.991 15.0301 113.981 15.0802 115.939 15.39C116.207 15.49 116.323 15.884 116.326 16.69C116.321 17.2643 116.372 17.8377 116.479 18.402C116.604 18.868 116.531 18.959 116.04 18.952C115.595 18.945 115.327 18.685 114.951 17.896C114.351 16.637 113.626 16.237 111.934 16.232C109.775 16.226 108.195 17.68 108.452 19.432C108.62 20.575 109.762 21.7 112.325 23.246C114.764 24.717 116.187 25.927 116.754 27.01C118.271 29.91 116.976 33.01 113.597 34.57C111.454 35.3843 109.098 35.4516 106.912 34.761L105.603 34.316V32.23C105.603 30.336 105.648 30.138 106.08 30.138C106.441 30.138 106.597 30.377 106.724 31.124C106.854 32.003 107.312 32.8001 108.006 33.3546C108.7 33.9091 109.579 34.1797 110.465 34.112C111.367 34.1529 112.253 33.8699 112.964 33.3142C113.675 32.7585 114.164 31.9667 114.342 31.082C114.463 30.7429 114.502 30.3801 114.457 30.0231C114.412 29.666 114.283 29.3245 114.082 29.026C113.548 27.926 112.627 27.196 109.502 25.392C107.972 24.6225 106.777 23.319 106.144 21.728H106.142ZM44.875 16.476C44.449 16.476 44.282 16.337 44.282 15.976C44.282 15.503 44.448 15.476 47.79 15.476C50.89 15.476 51.29 15.523 51.218 15.876C51.173 16.098 50.745 16.405 50.265 16.559L49.392 16.839L49.318 23.173C49.191 25.6174 49.2615 28.068 49.529 30.501C50.095 32.472 51.821 33.606 54.256 33.606C54.9865 33.6487 55.7174 33.5299 56.3967 33.2578C57.076 32.9857 57.687 32.5672 58.186 32.032C59.524 30.766 59.738 29.564 59.734 23.314C59.734 17.149 59.623 16.64 58.299 16.514C57.699 16.456 57.499 16.314 57.499 15.955C57.499 15.506 57.699 15.474 60.49 15.474C63.315 15.474 63.481 15.502 63.481 15.974C63.4896 16.0363 63.4847 16.0997 63.4667 16.1599C63.4487 16.2201 63.418 16.2758 63.3767 16.3232C63.3354 16.3706 63.2844 16.4085 63.2272 16.4345C63.17 16.4606 63.1079 16.474 63.045 16.474C61.891 16.484 61.869 16.594 61.714 23.354C61.553 30.374 61.402 31.205 59.98 32.925C59.3538 33.5805 58.6181 34.122 57.806 34.525C56.526 35.151 56.119 35.225 53.885 35.219C52.6104 35.3462 51.3243 35.1494 50.146 34.647C48.7746 34.0819 47.643 33.0564 46.946 31.747C46.446 30.818 46.4 30.315 46.284 24.022C46.143 16.824 46.079 16.476 44.875 16.476ZM68.201 16.476C67.631 16.476 67.465 16.364 67.465 15.976C67.465 15.51 67.624 15.476 70.02 15.5L72.575 15.52L73.798 16.928C74.47 17.702 76.661 20.128 78.666 22.31C80.671 24.492 82.974 27.039 83.782 27.961C84.2743 28.5876 84.8423 29.1509 85.473 29.638C85.6727 27.6502 85.7205 25.6501 85.616 23.655L85.537 17.672L84.837 17.072C84.469 16.7479 84.0137 16.5393 83.528 16.472C83.082 16.472 82.919 16.337 82.919 15.972C82.919 15.487 83.046 15.472 86.346 15.537C89.152 15.594 89.774 15.672 89.774 15.968C89.774 16.179 89.427 16.401 88.941 16.5C88.5381 16.5686 88.1552 16.7246 87.819 16.957C87.619 17.157 87.51 19.798 87.459 26.05L87.387 34.856H86.665C86.043 34.856 85.303 34.156 81.344 29.826C78.815 27.059 75.863 23.771 74.784 22.519C74.1259 21.6999 73.4076 20.9311 72.635 20.219C72.346 20.187 72.416 31.374 72.712 32.436C72.943 33.264 73.101 33.406 74.082 33.667C74.872 33.877 75.191 34.091 75.191 34.408C75.191 34.815 74.891 34.853 71.701 34.853C68.455 34.853 68.211 34.821 68.211 34.387C68.211 34.07 68.446 33.875 68.947 33.774C70.469 33.474 70.57 32.989 70.656 25.63C70.7626 23.0923 70.7005 20.5504 70.47 18.021C70.3549 17.5256 70.0576 17.0916 69.6372 16.8054C69.2168 16.5191 68.7041 16.4015 68.201 16.476ZM94.34 16.476C93.806 16.476 93.64 16.358 93.64 15.976C93.64 15.501 93.806 15.476 97.379 15.476C100.952 15.476 101.118 15.498 101.118 15.976C101.118 16.34 100.952 16.476 100.495 16.476C100.071 16.5122 99.6722 16.6909 99.363 16.983C98.869 17.475 98.857 17.72 98.927 25.325C98.995 32.749 99.027 33.178 99.483 33.512C99.7982 33.7219 100.164 33.8435 100.542 33.864C100.951 33.864 101.118 34.007 101.118 34.364C101.118 34.839 100.952 34.864 97.379 34.864C93.891 34.864 93.64 34.833 93.64 34.399C93.64 34.049 93.885 33.899 94.628 33.776C96.103 33.541 96.179 33.06 96.087 24.476C96.014 17.599 95.982 17.17 95.525 16.838C95.1694 16.6137 94.7602 16.4887 94.34 16.476ZM120.423 16.476C120.269 16.4847 120.117 16.4395 119.993 16.3483C119.868 16.257 119.78 16.1254 119.742 15.976C119.616 15.496 119.735 15.476 123.328 15.476C126.877 15.476 127.044 15.498 127.044 15.976C127.044 16.358 126.878 16.476 126.327 16.476C124.758 16.476 124.793 16.76 127.168 23.256C128.377 26.563 129.551 29.704 129.776 30.236L130.186 31.204L132.086 26.137C134.327 20.173 134.618 19.07 134.238 17.982C134.055 17.571 133.766 17.2154 133.402 16.9509C133.038 16.6864 132.611 16.5223 132.163 16.475C131.943 16.475 131.777 16.261 131.777 15.975C131.777 15.5 131.943 15.475 135.641 15.475C139.339 15.475 139.505 15.496 139.505 15.975C139.505 16.328 139.339 16.475 138.929 16.475C137.881 16.475 137.419 17.032 137.569 18.114C137.724 19.228 142.011 31.199 142.191 31.02C142.483 30.729 147.232 17.842 147.232 17.34C147.232 16.74 146.809 16.476 145.841 16.476C145.404 16.476 145.241 16.339 145.241 15.976C145.241 15.507 145.407 15.476 148.233 15.476C150.77 15.476 151.224 15.535 151.224 15.862C151.224 16.074 150.913 16.356 150.533 16.487C149.679 16.787 149.464 17.123 148.392 19.867L145.118 28.249C143.788 31.649 142.643 34.588 142.573 34.77C142.503 34.952 142.091 35.1 141.657 35.1H140.868L139.077 30.442C138.092 27.881 136.928 24.842 136.492 23.698C135.743 21.732 135.68 21.646 135.398 22.207C135.234 22.535 134.051 25.575 132.769 28.963L130.439 35.123L129.569 35.049L128.699 34.975L125.382 26.3C124.261 23.1488 122.972 20.06 121.52 17.047C121.231 16.7365 120.843 16.5349 120.423 16.476ZM170.267 16.581C170.237 16.4387 170.223 16.2934 170.226 16.148C170.22 16.0825 170.235 16.0169 170.268 15.96C170.319 15.895 170.337 15.893 170.521 15.876C171.194 15.812 172.544 15.704 173.671 15.655L174.014 15.64H174.019C175.259 15.584 177.479 15.508 179.004 15.585C181.931 15.731 184.012 17.146 184.722 19.485C185.061 20.4587 185.179 21.4953 185.07 22.5204C184.961 23.5456 184.626 24.5337 184.089 25.414C183.507 26.2646 182.71 26.9459 181.779 27.3886C180.848 27.8314 179.816 28.0199 178.789 27.935C176.558 27.87 175.961 27.453 175.484 27.119C175.384 27.048 175.284 26.982 175.184 26.919V29.9C175.117 31.0276 175.184 32.1593 175.384 33.271C175.596 33.758 176.076 34.057 177.01 34.287C177.197 34.3246 177.377 34.3922 177.542 34.487C177.605 34.5863 177.642 34.6999 177.65 34.8174C177.658 34.9348 177.636 35.0523 177.586 35.159C177.553 35.193 177.513 35.2188 177.468 35.2343C177.424 35.2498 177.376 35.2545 177.329 35.248L173.191 35.215L170.696 35.208C170.696 35.208 170.434 35.258 170.336 35.153C170.272 35.0571 170.241 34.9431 170.247 34.828C170.257 34.703 170.305 34.584 170.383 34.486C170.551 34.3859 170.733 34.3105 170.923 34.262C171.885 33.992 172.302 33.706 172.523 33.168C172.699 32.734 172.7 31.929 172.698 25.362C172.698 19.134 172.687 17.972 172.544 17.638C172.333 17.143 171.803 17.012 171.05 16.826C170.901 16.789 170.742 16.75 170.576 16.705C170.577 16.711 170.308 16.676 170.267 16.582V16.581ZM182.314 21.663C182.387 22.3133 182.326 22.9715 182.136 23.5977C181.946 24.2238 181.631 24.8047 181.209 25.305C180.543 25.7924 179.783 26.1348 178.976 26.3099C178.17 26.4851 177.336 26.4892 176.528 26.322C176.204 26.2613 175.893 26.1481 175.606 25.987L175.586 25.976L175.214 25.776L175.192 22.188C175.179 19.94 175.202 18.475 175.255 18.266C175.303 17.081 177.055 16.933 177.906 16.977C181.561 16.982 182.207 20.062 182.314 21.664V21.663ZM158.788 15.621L158.339 15.792L157.363 16.292L156.663 18.047C156.277 19.012 155.569 20.784 155.092 21.984C154.222 24.17 153.648 25.606 153.043 27.105C152.865 27.546 152.328 28.889 151.85 30.089C151.372 31.289 150.894 32.431 150.787 32.627L150.731 32.727C150.464 33.227 149.999 34.103 149.178 34.235C148.958 34.252 148.745 34.3238 148.56 34.444C148.515 34.4801 148.478 34.5256 148.451 34.5774C148.425 34.6292 148.411 34.686 148.409 34.744V34.952C148.415 34.9837 148.428 35.0136 148.447 35.0396C148.466 35.0657 148.491 35.0873 148.519 35.103C148.589 35.1353 148.665 35.1533 148.742 35.156L151.742 35.122H154.842C154.842 35.122 155.061 35.148 155.142 35.077C155.194 35.031 155.232 34.9704 155.25 34.903V34.684C155.229 34.5599 155.171 34.445 155.084 34.354C154.898 34.2736 154.702 34.221 154.501 34.198C154.275 34.1833 154.055 34.1167 153.859 34.0034C153.663 33.8902 153.496 33.7333 153.37 33.5449C153.244 33.3565 153.164 33.1417 153.134 32.9172C153.105 32.6926 153.128 32.4643 153.201 32.25C153.276 31.835 153.776 30.299 154.338 28.75L154.533 28.216L157.784 28.191C159.572 28.177 161.116 28.191 161.215 28.212C161.356 28.248 161.554 28.649 162.134 30.078C163.013 32.243 163.083 32.507 162.889 32.912L162.851 32.993C162.75 33.3104 162.562 33.5934 162.31 33.8105C162.057 34.0277 161.749 34.1705 161.42 34.223C161.42 34.223 160.946 34.239 160.828 34.381C160.793 34.4233 160.767 34.472 160.752 34.5243C160.736 34.5767 160.73 34.6316 160.736 34.686V34.903C160.752 34.9687 160.783 35.0295 160.828 35.08C160.877 35.1114 160.935 35.1248 160.992 35.118L163.943 35.097H168.092C168.092 35.097 168.255 35.114 168.299 35.052C168.326 35.0111 168.344 34.9646 168.352 34.916V34.628C168.341 34.5411 168.306 34.4588 168.252 34.39C168.055 34.3035 167.847 34.2453 167.634 34.217C167.351 34.1429 167.088 34.0054 166.865 33.8148C166.643 33.6243 166.467 33.3857 166.35 33.117C166.285 33.009 166.226 32.911 166.168 32.832C165.832 32.2233 165.542 31.591 165.298 30.94L163.642 26.681L161.842 22.05C161.432 20.997 160.654 18.993 160.112 17.597L159.872 16.978C159.509 16.04 159.362 15.662 159.322 15.611C159.193 15.456 158.788 15.622 158.788 15.622V15.621ZM158.595 21.326C158.464 21.008 158.234 20.437 158.083 20.057C157.809 19.367 157.705 19.208 157.62 19.351C157.595 19.393 157.42 19.864 157.237 20.399C156.037 23.862 155.489 25.421 155.38 25.715C155.324 25.8515 155.283 25.9932 155.255 26.138C156.136 26.2378 157.024 26.2669 157.91 26.225C159.37 26.225 160.565 26.207 160.565 26.185C160.565 26.163 160.435 25.832 160.276 25.45C160.117 25.068 159.727 24.114 159.41 23.33C159.093 22.546 158.726 21.645 158.595 21.327V21.326Z" fill="white"/>
</g>
<defs>
<clipPath id="clip0_1_28">
<rect width="185.09" height="40.937" fill="white"/>
</clipPath>
</defs>
</svg>
