<svg xmlns="http://www.w3.org/2000/svg" width="152.29" height="54.241" viewBox="0 0 152.29 54.241">
  <g id="Group_1482" data-name="Group 1482" transform="translate(-105 -2348.805)">
    <g id="Group_1465" data-name="Group 1465" transform="translate(105 2386.422)">
      <path id="Path_1877" data-name="Path 1877" d="M-85.78,35.136l-3.051,10.97h-3.175l-4.246-16.063h3.487l2.528,11.63h.087l3-11.63h2.839l3,11.63h.087l2.54-11.63H-75.2l-4.259,16.063h-3.175l-3.051-10.97Zm15.217,8.8a2.381,2.381,0,0,0,2.578-2.216v-.872L-70.5,41c-1.208.087-1.905.635-1.905,1.482C-72.406,43.392-71.671,43.94-70.563,43.94Zm-1.071,2.353a3.692,3.692,0,0,1-4-3.611c0-2.167,1.669-3.424,4.645-3.611l3-.174v-.784c0-1.108-.784-1.756-2-1.756a1.944,1.944,0,0,0-2.142,1.482h-2.976c.125-2.316,2.092-3.91,5.255-3.91,3.063,0,5.056,1.581,5.056,3.985v8.206h-3.138v-1.83H-68A4.115,4.115,0,0,1-71.634,46.293Zm9.015-16.25h3.25V46.107h-3.25Zm5.516,0h3.25V46.107H-57.1Zm10.8,6.276a2.593,2.593,0,0,0-2.565,2.565H-43.8A2.472,2.472,0,0,0-46.306,36.319Zm2.553,6.139h2.989c-.361,2.341-2.49,3.91-5.442,3.91-3.673,0-5.877-2.353-5.877-6.164s2.229-6.276,5.753-6.276c3.474,0,5.666,2.353,5.666,5.977v1h-8.218v.2a2.659,2.659,0,0,0,2.739,2.876A2.434,2.434,0,0,0-43.754,42.458Zm5.616-11.033h3.25v2.752h2.2v2.453h-2.2v5.7c0,.909.448,1.345,1.407,1.345a6.741,6.741,0,0,0,.784-.05V46.02a7.709,7.709,0,0,1-1.544.137c-2.8,0-3.9-.934-3.9-3.262V36.631h-1.681V34.178h1.681Zm14.606,14.955c-4.67,0-7.6-3.125-7.6-8.318s2.951-8.306,7.6-8.306c3.86,0,6.8,2.453,7.06,6.039h-3.275a3.728,3.728,0,0,0-3.785-3.262c-2.54,0-4.171,2.129-4.171,5.5,0,3.424,1.619,5.541,4.184,5.541A3.633,3.633,0,0,0-19.734,40.5h3.275C-16.845,44.114-19.584,46.381-23.531,46.381ZM-9.2,46.356c-3.611,0-5.915-2.316-5.915-6.226,0-3.86,2.341-6.214,5.915-6.214s5.915,2.341,5.915,6.214C-3.284,44.052-5.588,46.356-9.2,46.356Zm0-2.478c1.594,0,2.6-1.345,2.6-3.736,0-2.366-1.021-3.736-2.6-3.736s-2.615,1.37-2.615,3.736C-11.814,42.533-10.793,43.878-9.2,43.878Zm7.583,2.229V34.178H1.522v2.129h.062A3.776,3.776,0,0,1,5.32,33.953c2.652,0,4.134,1.669,4.134,4.458v7.7H6.2V39.1c0-1.557-.735-2.453-2.192-2.453a2.363,2.363,0,0,0-2.378,2.615v6.849Zm13.125,0V34.178h3.138v2.129h.062a3.77,3.77,0,0,1,3.723-2.353c2.652,0,4.134,1.669,4.134,4.458v7.7h-3.25V39.1c0-1.557-.735-2.453-2.192-2.453a2.363,2.363,0,0,0-2.378,2.615v6.849ZM30,36.319a2.593,2.593,0,0,0-2.565,2.565H32.5A2.472,2.472,0,0,0,30,36.319Zm2.54,6.139h2.989c-.361,2.341-2.49,3.91-5.442,3.91-3.673,0-5.877-2.353-5.877-6.164s2.229-6.276,5.753-6.276c3.474,0,5.666,2.353,5.666,5.977v1H27.41v.2a2.659,2.659,0,0,0,2.739,2.876A2.411,2.411,0,0,0,32.541,42.458Zm15.59-3.848H45.117a2.3,2.3,0,0,0-2.353-2.142c-1.606,0-2.6,1.357-2.6,3.661,0,2.353,1,3.686,2.615,3.686a2.256,2.256,0,0,0,2.353-2.08h3.026c-.162,2.814-2.266,4.632-5.4,4.632-3.6,0-5.877-2.341-5.877-6.226,0-3.823,2.279-6.214,5.853-6.214C45.939,33.916,47.994,35.908,48.131,38.61Zm2.453-7.185h3.25v2.752h2.2v2.453h-2.2v5.7c0,.909.448,1.345,1.407,1.345a6.741,6.741,0,0,0,.784-.05V46.02a7.613,7.613,0,0,1-1.544.137c-2.8,0-3.9-.934-3.9-3.262V36.631H48.9V34.178h1.681Z" transform="translate(96.252 -29.757)" fill="#3b99fc"/>
    </g>
    <g id="Group_1466" data-name="Group 1466" transform="translate(160.127 2348.805)">
      <path id="Path_1878" data-name="Path 1878" d="M-7.966,1.613a18.24,18.24,0,0,1,25.409,0l.844.826a.861.861,0,0,1,0,1.243L15.4,6.513a.455.455,0,0,1-.635,0L13.6,5.379a12.723,12.723,0,0,0-17.723,0L-5.361,6.595a.455.455,0,0,1-.635,0L-8.892,3.764a.861.861,0,0,1,0-1.243ZM23.415,7.457l2.568,2.514a.861.861,0,0,1,0,1.243L14.394,22.567a.909.909,0,0,1-1.27,0L4.893,14.508a.236.236,0,0,0-.318,0l-8.222,8.058a.909.909,0,0,1-1.27,0l-11.6-11.343a.861.861,0,0,1,0-1.243l2.568-2.514a.909.909,0,0,1,1.27,0l8.231,8.058a.236.236,0,0,0,.318,0L4.094,7.466a.909.909,0,0,1,1.27,0L13.6,15.525a.236.236,0,0,0,.318,0l8.231-8.058A.9.9,0,0,1,23.415,7.457Z" transform="translate(16.78 3.539)" fill="#3b99fc"/>
    </g>
  </g>
</svg>
