<svg xmlns="http://www.w3.org/2000/svg" width="102.097" height="32" viewBox="0 0 102.097 32">
  <g id="logo" transform="translate(-0.431)">
    <path id="Path_1958" data-name="Path 1958" d="M48.9,7.027a1.631,1.631,0,0,0-.625,1.326,1.424,1.424,0,0,0,.764,1.292A14.482,14.482,0,0,0,52.513,10.8a9.932,9.932,0,0,1,4.236,1.971,4.844,4.844,0,0,1,1.493,3.841A5.068,5.068,0,0,1,56.3,20.725a7.79,7.79,0,0,1-5.1,1.564A11.814,11.814,0,0,1,43,18.992l2.569-3.059q3.125,2.651,5.729,2.651a2.946,2.946,0,0,0,1.84-.51,1.588,1.588,0,0,0,.66-1.36,1.568,1.568,0,0,0-.729-1.36,9.319,9.319,0,0,0-2.812-1.02,12.136,12.136,0,0,1-4.9-2.039A4.689,4.689,0,0,1,43.8,8.387a4.788,4.788,0,0,1,1.979-4.113,8.164,8.164,0,0,1,4.9-1.462,11.76,11.76,0,0,1,3.854.646A10.455,10.455,0,0,1,57.86,5.294L55.708,8.353a8.71,8.71,0,0,0-5.173-1.869A3.184,3.184,0,0,0,48.9,7.027Z" transform="translate(-6.522 -0.431)" fill="#181a2b"/>
    <path id="Path_1959" data-name="Path 1959" d="M118.242,18.667v3.622H103.881v-2.87l7.316-6.97c1.694-1.606,2-2.6,2-3.519,0-1.5-1.016-2.392-3.048-2.392a4.582,4.582,0,0,0-3.929,1.913L103,6.366a8.821,8.821,0,0,1,7.553-3.554c4.234,0,7.045,2.187,7.045,5.672,0,1.879-.508,3.554-3.184,6.048L110.045,18.7h8.2Z" transform="translate(-15.714 -0.431)" fill="#181a2b"/>
    <path id="Path_1960" data-name="Path 1960" d="M74,2.812h4.546V18.6H88.4v3.684H74Z" transform="translate(-11.271 -0.431)" fill="#181a2b"/>
    <path id="Path_1961" data-name="Path 1961" d="M43,32.739a2.81,2.81,0,0,1,2.884-2.927,2.683,2.683,0,0,1,2.2,1.024l-.79.768a1.667,1.667,0,0,0-1.339-.659,1.7,1.7,0,0,0-1.716,1.83,1.716,1.716,0,0,0,1.716,1.829,1.621,1.621,0,0,0,1.339-.659l.79.768a2.683,2.683,0,0,1-2.2,1.025A2.915,2.915,0,0,1,43,32.739Z" transform="translate(-6.522 -4.567)" fill="#181a2b"/>
    <path id="Path_1962" data-name="Path 1962" d="M60.19,34.811H57.737l-.477,1.082H56l2.351-5.081h1.226l2.351,5.081H60.633Zm-.375-.918-.852-1.934-.852,1.934Z" transform="translate(-8.513 -4.721)" fill="#181a2b"/>
    <path id="Path_1963" data-name="Path 1963" d="M74.234,32.669c0,1.14-.822,1.824-2.117,1.824h-.979v1.4H70V30.812h2.117A1.862,1.862,0,0,1,74.234,32.669Zm-1.137,0c0-.554-.348-.879-1.043-.879h-.916v1.759h.916C72.749,33.548,73.1,33.222,73.1,32.669Z" transform="translate(-10.658 -4.721)" fill="#181a2b"/>
    <path id="Path_1964" data-name="Path 1964" d="M83.847,30.812H83v5.081h.847Z" transform="translate(-12.65 -4.721)" fill="#181a2b"/>
    <path id="Path_1965" data-name="Path 1965" d="M92.868,31.789H91v-.977h5.081v.977H94.213v4.1H92.868Z" transform="translate(-13.876 -4.721)" fill="#181a2b"/>
    <path id="Path_1966" data-name="Path 1966" d="M107.19,34.811h-2.452l-.477,1.082H103l2.351-5.081h1.226l2.351,5.081h-1.295Zm-.374-.918-.852-1.934-.852,1.934Z" transform="translate(-15.714 -4.721)" fill="#181a2b"/>
    <path id="Path_1967" data-name="Path 1967" d="M117,30.812h1.07v4.136h2.318v.945H117Z" transform="translate(-17.859 -4.721)" fill="#181a2b"/>
    <path id="Path_1968" data-name="Path 1968" d="M13.468,5.958H6V7.819h7.472Z" transform="translate(-0.853 -0.913)" fill="#181a2b"/>
    <path id="Path_1969" data-name="Path 1969" d="M6.393,23.735v6.873H8.261V23.735Z" transform="translate(-0.913 -3.636)" fill="#181a2b" fill-rule="evenodd"/>
    <path id="Path_1970" data-name="Path 1970" d="M31.518,29.654H24.4v1.861h7.119Z" transform="translate(-3.672 -4.543)" fill="#181a2b"/>
    <path id="Path_1971" data-name="Path 1971" d="M32.05,12.811V5.939H30.182l.017,6.873Z" transform="translate(-4.558 -0.91)" fill="#181a2b" fill-rule="evenodd"/>
    <path id="Path_1972" data-name="Path 1972" d="M16.3.017H.431L.448,32l16.223-.017h15.87V0ZM30.673,1.861,30.69,15.07H22.46V1.877ZM2.3,6.906V5.046H2.282V1.894H15.493v8.163H2.316Zm.017,23.233V16.93h8.213V30.139ZM15.56,20.1V30.139H12.38l-.017-15.053H2.282V11.918H15.493l.034,4.023v1.006h1.868l-.017-1.056V1.877h3.181l.034,15.053H30.673V20.1H15.56ZM30.69,27.726v2.4H17.563l-.034-3.168h.017V25.094h-.034l-.034-3.168,13.194-.017v5.817Z" transform="translate(0)" fill="#181a2b" fill-rule="evenodd"/>
  </g>
</svg>
