<svg xmlns="http://www.w3.org/2000/svg" width="70.801" height="71.217" viewBox="0 0 70.801 71.217">
  <g id="Group_15945" data-name="Group 15945" transform="translate(-1110 -990)">
    <rect id="Rectangle" width="62" height="62" rx="5" transform="translate(1110 990)" fill="#eff3ff"/>
    <g id="Group_1449" data-name="Group 1449" transform="translate(-783.887 2398.492)">
      <g id="Group_1450" data-name="Group 1450" transform="translate(1937.487 -1408.492)">
        <ellipse id="Ellipse_253" data-name="Ellipse 253" cx="5.104" cy="5.105" rx="5.104" ry="5.105" transform="translate(0 0)" fill="#29cfbe"/>
        <path id="Path_1043" data-name="Path 1043" d="M3185.263-1301.242l-2.212,1.459v2.188l2.212,1.458,2.212-1.458v-2.188Z" transform="translate(-3180.158 1303.794)" fill="#29cfbe"/>
      </g>
      <path id="Path_1044" data-name="Path 1044" d="M2399.824-1207.553c1.61,0,4.019-.106,6.739-.266a11.585,11.585,0,0,0,.129-1.728,11.5,11.5,0,0,0-11.5-11.5,11.5,11.5,0,0,0-11.5,11.5q0,.546.05,1.08C2389.62-1208.015,2396.463-1207.553,2399.824-1207.553Z" transform="translate(-462.337 -182.985)" fill="#87f2e7"/>
      <path id="Path_1045" data-name="Path 1045" d="M1962.973-568.851l-23.988,10.66a4.4,4.4,0,0,1-3,0L1912-568.851a2.859,2.859,0,0,1-1.913-2.672v-35.77a2.913,2.913,0,0,1,3.208-2.843c6.052.515,19.012,1.563,24.192,1.563s18.14-1.048,24.192-1.563a2.913,2.913,0,0,1,3.208,2.843v35.77A2.859,2.859,0,0,1,1962.973-568.851Z" transform="translate(-0.199 -779.347)" fill="#4e5dff"/>
      <path id="Path_1047" data-name="Path 1047" d="M2667.124-971.7l.352,0v-4.457l-4.983-3.286-4.983,3.286v4.011C2661.366-971.89,2664.964-971.7,2667.124-971.7Z" transform="translate(-729.637 -418.838)" fill="#29cfbe"/>
      <path id="Path_1048" data-name="Path 1048" d="M2183.217,154.089s16.1-1.043,16.1,16.24c0,0-1.12-16.252,16.2-16.252" transform="translate(-261.829 -1520.387)" fill="none" stroke="#fff" stroke-linecap="round" stroke-miterlimit="10" stroke-width="2" stroke-dasharray="4 4"/>
      <rect id="Rectangle_31" data-name="Rectangle 31" width="54.8" height="6" transform="translate(1909.887 -1380.492)" fill="#000b89"/>
    </g>
  </g>
</svg>
