<svg width="106" height="24" viewBox="0 0 106 24" fill="none" xmlns="http://www.w3.org/2000/svg">
<circle cx="12.9977" cy="12" r="12" fill="#FF4848"/>
<path fill-rule="evenodd" clip-rule="evenodd" d="M13.7157 3.56202C13.3 2.84391 12.6386 2.84391 12.2228 3.56202L4.67323 16.8565C4.25748 17.5841 4.59764 18.1604 5.42913 18.1604H9.21811C9.98346 18.1132 10.6732 17.7069 11.089 17.0644L15.6528 9.15572C15.9835 8.47541 15.9835 7.67226 15.6528 6.99194L14.2921 4.60139L13.7157 3.56202ZM18.7329 12.3112C18.3172 11.5931 17.6463 11.5931 17.2306 12.3112L14.5944 16.8561C14.1881 17.5742 14.5282 18.1601 15.3503 18.1601H20.566C21.3975 18.1601 21.7377 17.5742 21.3219 16.8561L18.7329 12.3112Z" fill="#D0D4DE"/>
<path d="M35.1517 18H37.2097L37.9657 15.76H41.9977L42.7397 18H44.8117L41.2137 7.57H38.7497L35.1517 18ZM38.5117 14.08L39.9817 9.684L41.4517 14.08H38.5117ZM47.6907 18H49.3147L52.3107 10.384H50.3087L48.5027 15.354L46.6967 10.384H44.6947L47.6907 18ZM55.361 18.168C56.3503 18.168 57.1436 17.8413 57.741 17.188V18H59.477V12.932C59.477 12.4 59.3416 11.9287 59.071 11.518C58.8003 11.1073 58.427 10.79 57.951 10.566C57.4843 10.3327 56.9383 10.216 56.313 10.216C55.5476 10.216 54.8663 10.398 54.269 10.762C53.6716 11.126 53.261 11.6067 53.037 12.204L54.535 12.932C54.675 12.5867 54.8943 12.3113 55.193 12.106C55.4916 11.8913 55.8416 11.784 56.243 11.784C56.663 11.784 56.999 11.896 57.251 12.12C57.5123 12.3347 57.643 12.6053 57.643 12.932V13.184L55.375 13.548C54.479 13.6973 53.8163 13.982 53.387 14.402C52.9576 14.822 52.743 15.3493 52.743 15.984C52.743 16.656 52.981 17.188 53.457 17.58C53.933 17.972 54.5676 18.168 55.361 18.168ZM54.647 15.914C54.647 15.382 55.0063 15.046 55.725 14.906L57.643 14.584V14.892C57.643 15.4147 57.461 15.858 57.097 16.222C56.7423 16.586 56.2756 16.768 55.697 16.768C55.389 16.768 55.137 16.6933 54.941 16.544C54.745 16.3853 54.647 16.1753 54.647 15.914ZM61.1721 18H63.0061V7.57H61.1721V18ZM67.0094 18.168C67.9987 18.168 68.7921 17.8413 69.3894 17.188V18H71.1254V12.932C71.1254 12.4 70.9901 11.9287 70.7194 11.518C70.4487 11.1073 70.0754 10.79 69.5994 10.566C69.1327 10.3327 68.5867 10.216 67.9614 10.216C67.1961 10.216 66.5147 10.398 65.9174 10.762C65.3201 11.126 64.9094 11.6067 64.6854 12.204L66.1834 12.932C66.3234 12.5867 66.5427 12.3113 66.8414 12.106C67.1401 11.8913 67.4901 11.784 67.8914 11.784C68.3114 11.784 68.6474 11.896 68.8994 12.12C69.1607 12.3347 69.2914 12.6053 69.2914 12.932V13.184L67.0234 13.548C66.1274 13.6973 65.4647 13.982 65.0354 14.402C64.6061 14.822 64.3914 15.3493 64.3914 15.984C64.3914 16.656 64.6294 17.188 65.1054 17.58C65.5814 17.972 66.2161 18.168 67.0094 18.168ZM66.2954 15.914C66.2954 15.382 66.6547 15.046 67.3734 14.906L69.2914 14.584V14.892C69.2914 15.4147 69.1094 15.858 68.7454 16.222C68.3907 16.586 67.9241 16.768 67.3454 16.768C67.0374 16.768 66.7854 16.6933 66.5894 16.544C66.3934 16.3853 66.2954 16.1753 66.2954 15.914ZM72.8205 18H74.6545V13.534C74.6545 13.0393 74.7945 12.6427 75.0745 12.344C75.3638 12.0453 75.7372 11.896 76.1945 11.896C76.6518 11.896 77.0205 12.0453 77.3005 12.344C77.5898 12.6333 77.7345 13.03 77.7345 13.534V18H79.5685V13.1C79.5685 12.5307 79.4472 12.0313 79.2045 11.602C78.9618 11.1633 78.6212 10.8227 78.1825 10.58C77.7532 10.3373 77.2585 10.216 76.6985 10.216C76.2225 10.216 75.7932 10.3093 75.4105 10.496C75.0372 10.6827 74.7478 10.958 74.5425 11.322V10.384H72.8205V18ZM84.7873 18.168C85.338 18.168 85.8467 18.0747 86.3133 17.888C86.78 17.692 87.1813 17.426 87.5173 17.09C87.8533 16.7447 88.096 16.3573 88.2453 15.928L86.6353 15.2C86.486 15.6013 86.248 15.9187 85.9213 16.152C85.604 16.376 85.226 16.488 84.7873 16.488C84.386 16.488 84.0267 16.39 83.7093 16.194C83.4013 15.998 83.1587 15.7273 82.9813 15.382C82.804 15.0273 82.7153 14.6307 82.7153 14.192C82.7153 13.744 82.804 13.3473 82.9813 13.002C83.1587 12.6567 83.4013 12.386 83.7093 12.19C84.0267 11.994 84.386 11.896 84.7873 11.896C85.226 11.896 85.604 12.0127 85.9213 12.246C86.248 12.4793 86.486 12.7873 86.6353 13.17L88.2453 12.47C88.0867 12.022 87.8393 11.63 87.5033 11.294C87.1673 10.9487 86.766 10.6827 86.2993 10.496C85.8327 10.3093 85.3287 10.216 84.7873 10.216C84.0313 10.216 83.35 10.3887 82.7433 10.734C82.146 11.0793 81.6747 11.5507 81.3293 12.148C80.984 12.7453 80.8113 13.422 80.8113 14.178C80.8113 14.934 80.984 15.6153 81.3293 16.222C81.6747 16.8193 82.146 17.2953 82.7433 17.65C83.35 17.9953 84.0313 18.168 84.7873 18.168ZM89.6369 18H91.4709V13.534C91.4709 13.0393 91.6156 12.6427 91.9049 12.344C92.1942 12.0453 92.5629 11.896 93.0109 11.896C93.4589 11.896 93.8276 12.0453 94.1169 12.344C94.4062 12.6333 94.5509 13.03 94.5509 13.534V18H96.3849V13.1C96.3849 12.5307 96.2636 12.0313 96.0209 11.602C95.7782 11.1633 95.4376 10.8227 94.9989 10.58C94.5696 10.3373 94.0749 10.216 93.5149 10.216C93.0762 10.216 92.6796 10.2953 92.3249 10.454C91.9702 10.6033 91.6856 10.832 91.4709 11.14V7.444H89.6369V18ZM101.548 18.168C102.322 18.168 102.999 17.9953 103.578 17.65C104.166 17.2953 104.576 16.8473 104.81 16.306L103.326 15.578C103.158 15.8673 102.924 16.1053 102.626 16.292C102.336 16.4693 101.982 16.558 101.562 16.558C101.011 16.558 100.549 16.39 100.176 16.054C99.8024 15.718 99.5877 15.27 99.5317 14.71H105.02C105.057 14.6073 105.08 14.4907 105.09 14.36C105.108 14.22 105.118 14.08 105.118 13.94C105.118 13.2587 104.973 12.638 104.684 12.078C104.394 11.518 103.974 11.07 103.424 10.734C102.873 10.3887 102.201 10.216 101.408 10.216C100.698 10.216 100.054 10.3887 99.4757 10.734C98.9064 11.0793 98.4537 11.5507 98.1177 12.148C97.7911 12.736 97.6277 13.4127 97.6277 14.178C97.6277 14.9153 97.7911 15.5873 98.1177 16.194C98.4444 16.8007 98.9017 17.2813 99.4897 17.636C100.078 17.9907 100.764 18.168 101.548 18.168ZM101.408 11.728C101.893 11.728 102.294 11.8773 102.612 12.176C102.938 12.4653 103.12 12.8433 103.158 13.31H99.5737C99.6764 12.806 99.8911 12.4187 100.218 12.148C100.554 11.868 100.95 11.728 101.408 11.728Z" fill="#D0D4DE"/>
</svg>
