<svg width="88" height="24" viewBox="0 0 88 24" fill="none" xmlns="http://www.w3.org/2000/svg">
<path d="M33.0057 18H37.4017C38.5684 18 39.4784 17.72 40.1317 17.16C40.7944 16.5907 41.1257 15.8067 41.1257 14.808C41.1257 14.332 41.0324 13.884 40.8457 13.464C40.6591 13.044 40.3324 12.6847 39.8657 12.386C40.1551 12.1247 40.3651 11.8353 40.4957 11.518C40.6357 11.2007 40.7057 10.8647 40.7057 10.51C40.7057 9.59533 40.4117 8.87667 39.8237 8.354C39.2357 7.83133 38.4284 7.57 37.4017 7.57H33.0057V18ZM34.9097 11.616V9.194H37.4997C37.8917 9.194 38.2044 9.30133 38.4377 9.516C38.6711 9.73067 38.7877 10.02 38.7877 10.384C38.7877 10.748 38.6711 11.0467 38.4377 11.28C38.2044 11.504 37.8917 11.616 37.4997 11.616H34.9097ZM34.9097 16.32V13.282H37.5977C38.0924 13.282 38.4844 13.422 38.7737 13.702C39.0724 13.9727 39.2217 14.3413 39.2217 14.808C39.2217 15.2653 39.0724 15.634 38.7737 15.914C38.4844 16.1847 38.0924 16.32 37.5977 16.32H34.9097ZM42.5314 9.53H44.3654V7.57H42.5314V9.53ZM42.5314 18H44.3654V10.384H42.5314V18ZM46.0588 18H47.8928V13.534C47.8928 13.0393 48.0328 12.6427 48.3128 12.344C48.6021 12.0453 48.9754 11.896 49.4328 11.896C49.8901 11.896 50.2588 12.0453 50.5388 12.344C50.8281 12.6333 50.9728 13.03 50.9728 13.534V18H52.8068V13.1C52.8068 12.5307 52.6854 12.0313 52.4428 11.602C52.2001 11.1633 51.8594 10.8227 51.4208 10.58C50.9914 10.3373 50.4968 10.216 49.9368 10.216C49.4608 10.216 49.0314 10.3093 48.6488 10.496C48.2754 10.6827 47.9861 10.958 47.7808 11.322V10.384H46.0588V18ZM56.6676 18.168C57.6569 18.168 58.4503 17.8413 59.0476 17.188V18H60.7836V12.932C60.7836 12.4 60.6483 11.9287 60.3776 11.518C60.1069 11.1073 59.7336 10.79 59.2576 10.566C58.7909 10.3327 58.2449 10.216 57.6196 10.216C56.8543 10.216 56.1729 10.398 55.5756 10.762C54.9783 11.126 54.5676 11.6067 54.3436 12.204L55.8416 12.932C55.9816 12.5867 56.2009 12.3113 56.4996 12.106C56.7983 11.8913 57.1483 11.784 57.5496 11.784C57.9696 11.784 58.3056 11.896 58.5576 12.12C58.8189 12.3347 58.9496 12.6053 58.9496 12.932V13.184L56.6816 13.548C55.7856 13.6973 55.1229 13.982 54.6936 14.402C54.2643 14.822 54.0496 15.3493 54.0496 15.984C54.0496 16.656 54.2876 17.188 54.7636 17.58C55.2396 17.972 55.8743 18.168 56.6676 18.168ZM55.9536 15.914C55.9536 15.382 56.3129 15.046 57.0316 14.906L58.9496 14.584V14.892C58.9496 15.4147 58.7676 15.858 58.4036 16.222C58.0489 16.586 57.5823 16.768 57.0036 16.768C56.6956 16.768 56.4436 16.6933 56.2476 16.544C56.0516 16.3853 55.9536 16.1753 55.9536 15.914ZM62.4787 18H64.3127V13.534C64.3127 13.0393 64.4527 12.6427 64.7327 12.344C65.022 12.0453 65.3954 11.896 65.8527 11.896C66.31 11.896 66.6787 12.0453 66.9587 12.344C67.248 12.6333 67.3927 13.03 67.3927 13.534V18H69.2267V13.1C69.2267 12.5307 69.1054 12.0313 68.8627 11.602C68.62 11.1633 68.2794 10.8227 67.8407 10.58C67.4114 10.3373 66.9167 10.216 66.3567 10.216C65.8807 10.216 65.4514 10.3093 65.0687 10.496C64.6954 10.6827 64.406 10.958 64.2007 11.322V10.384H62.4787V18ZM74.4455 18.168C74.9962 18.168 75.5049 18.0747 75.9715 17.888C76.4382 17.692 76.8395 17.426 77.1755 17.09C77.5115 16.7447 77.7542 16.3573 77.9035 15.928L76.2935 15.2C76.1442 15.6013 75.9062 15.9187 75.5795 16.152C75.2622 16.376 74.8842 16.488 74.4455 16.488C74.0442 16.488 73.6849 16.39 73.3675 16.194C73.0595 15.998 72.8169 15.7273 72.6395 15.382C72.4622 15.0273 72.3735 14.6307 72.3735 14.192C72.3735 13.744 72.4622 13.3473 72.6395 13.002C72.8169 12.6567 73.0595 12.386 73.3675 12.19C73.6849 11.994 74.0442 11.896 74.4455 11.896C74.8842 11.896 75.2622 12.0127 75.5795 12.246C75.9062 12.4793 76.1442 12.7873 76.2935 13.17L77.9035 12.47C77.7449 12.022 77.4975 11.63 77.1615 11.294C76.8255 10.9487 76.4242 10.6827 75.9575 10.496C75.4909 10.3093 74.9869 10.216 74.4455 10.216C73.6895 10.216 73.0082 10.3887 72.4015 10.734C71.8042 11.0793 71.3329 11.5507 70.9875 12.148C70.6422 12.7453 70.4695 13.422 70.4695 14.178C70.4695 14.934 70.6422 15.6153 70.9875 16.222C71.3329 16.8193 71.8042 17.2953 72.4015 17.65C73.0082 17.9953 73.6895 18.168 74.4455 18.168ZM82.9071 18.168C83.6818 18.168 84.3584 17.9953 84.9371 17.65C85.5251 17.2953 85.9358 16.8473 86.1691 16.306L84.6851 15.578C84.5171 15.8673 84.2838 16.1053 83.9851 16.292C83.6958 16.4693 83.3411 16.558 82.9211 16.558C82.3704 16.558 81.9084 16.39 81.5351 16.054C81.1618 15.718 80.9471 15.27 80.8911 14.71H86.3791C86.4164 14.6073 86.4398 14.4907 86.4491 14.36C86.4678 14.22 86.4771 14.08 86.4771 13.94C86.4771 13.2587 86.3324 12.638 86.0431 12.078C85.7538 11.518 85.3338 11.07 84.7831 10.734C84.2324 10.3887 83.5604 10.216 82.7671 10.216C82.0578 10.216 81.4138 10.3887 80.8351 10.734C80.2658 11.0793 79.8131 11.5507 79.4771 12.148C79.1504 12.736 78.9871 13.4127 78.9871 14.178C78.9871 14.9153 79.1504 15.5873 79.4771 16.194C79.8038 16.8007 80.2611 17.2813 80.8491 17.636C81.4371 17.9907 82.1231 18.168 82.9071 18.168ZM82.7671 11.728C83.2524 11.728 83.6538 11.8773 83.9711 12.176C84.2978 12.4653 84.4798 12.8433 84.5171 13.31H80.9331C81.0358 12.806 81.2504 12.4187 81.5771 12.148C81.9131 11.868 82.3098 11.728 82.7671 11.728Z" fill="#D0D4DE"/>
<path d="M23.6383 14.9029C22.0356 21.3315 15.5244 25.2438 9.09503 23.6407C2.66833 22.0381 -1.24401 15.5265 0.359382 9.09837C1.96137 2.66903 8.47253 -1.24361 14.8999 0.359081C21.3289 1.96177 25.241 8.47405 23.6381 14.903L23.6382 14.9029H23.6383Z" fill="#F3BA2F"/>
<path fill-rule="evenodd" clip-rule="evenodd" d="M11.9993 7.6162L8.89195 10.7235L8.89202 10.7234L7.08408 8.9154L11.9993 4.0002L16.9161 8.91687L15.1081 10.7249L11.9993 7.6162ZM5.80777 10.1918L3.99971 12.0001L5.80764 13.8078L7.61571 11.9997L5.80777 10.1918ZM8.89217 13.2771L11.9995 16.3842L15.1082 13.2756L16.9172 15.0826L16.9163 15.0836L11.9995 20.0002L7.0843 15.085L7.08174 15.0824L8.89217 13.2771ZM18.1921 10.193L16.3841 12.001L18.1921 13.809L20.0001 12.0009L18.1921 10.193Z" fill="#090A0E"/>
<path d="M13.8336 11.9989H13.8344L11.9999 10.1643L10.6439 11.5198L10.4881 11.6757L10.1669 11.997L10.1643 11.9995L10.1669 12.0021L11.9999 13.8354L13.8345 12.0008L13.8354 11.9998L13.8337 11.9989" fill="#090A0E"/>
</svg>
