<svg width="127" height="24" viewBox="0 0 127 24" fill="none" xmlns="http://www.w3.org/2000/svg">
<g style="mix-blend-mode:luminosity">
<path d="M1.48041 15.3686C0.814082 13.0908 0.838147 10.6667 1.54956 8.40258C2.26098 6.13851 3.6278 4.13622 5.47719 2.6489C7.32658 1.16159 9.57548 0.256035 11.9395 0.0467556C14.3036 -0.162524 16.6766 0.333871 18.7585 1.47316C20.8404 2.61246 22.5378 4.34349 23.6359 6.44737C24.734 8.55125 25.1836 10.9335 24.9278 13.2929C24.672 15.6523 23.7223 17.8828 22.1988 19.7025C20.6754 21.5222 18.6465 22.8492 16.3687 23.5159C14.8562 23.9591 13.2711 24.0999 11.7041 23.9303C10.1371 23.7607 8.61887 23.2839 7.23621 22.5273C5.85355 21.7707 4.63355 20.749 3.64594 19.5207C2.65833 18.2923 1.92247 16.8814 1.48041 15.3686V15.3686Z" fill="url(#paint0_linear_0_1)"/>
</g>
<path d="M11.9517 14.836H13.7017V14.668C13.7017 14.2573 13.8137 13.898 14.0377 13.59C14.2711 13.282 14.5324 12.988 14.8217 12.708C15.0551 12.4747 15.2791 12.2413 15.4937 12.008C15.7177 11.7653 15.9044 11.4993 16.0537 11.21C16.2031 10.9207 16.2777 10.5893 16.2777 10.216C16.2777 9.74 16.1517 9.28733 15.8997 8.858C15.6477 8.42867 15.2837 8.07867 14.8077 7.808C14.3317 7.53733 13.7484 7.402 13.0577 7.402C12.4791 7.402 11.9517 7.514 11.4757 7.738C11.0091 7.95267 10.6264 8.256 10.3277 8.648C10.0384 9.04 9.85174 9.49733 9.76774 10.02L11.4757 10.44C11.5411 10.0293 11.7137 9.70733 11.9937 9.474C12.2831 9.23133 12.6237 9.11 13.0157 9.11C13.4544 9.11 13.7857 9.222 14.0097 9.446C14.2431 9.67 14.3597 9.94067 14.3597 10.258C14.3597 10.594 14.2431 10.888 14.0097 11.14C13.7857 11.3827 13.5291 11.6487 13.2397 11.938C13.0344 12.1433 12.8291 12.372 12.6237 12.624C12.4277 12.876 12.2644 13.1607 12.1337 13.478C12.0124 13.786 11.9517 14.1453 11.9517 14.556V14.836ZM11.9097 18H13.7717V16.04H11.9097V18Z" fill="#D0D4DE"/>
<path d="M40.9057 18.168C41.6524 18.168 42.3197 18.042 42.9077 17.79C43.5051 17.538 44.0091 17.2067 44.4197 16.796C44.8304 16.376 45.1244 15.9187 45.3017 15.424L43.5937 14.626C43.3884 15.1487 43.0524 15.5827 42.5857 15.928C42.1284 16.264 41.5684 16.432 40.9057 16.432C40.2524 16.432 39.6784 16.278 39.1837 15.97C38.6891 15.662 38.3017 15.2373 38.0217 14.696C37.7417 14.1453 37.6017 13.506 37.6017 12.778C37.6017 12.05 37.7417 11.4153 38.0217 10.874C38.3017 10.3233 38.6891 9.89867 39.1837 9.6C39.6784 9.292 40.2524 9.138 40.9057 9.138C41.5684 9.138 42.1284 9.31067 42.5857 9.656C43.0524 9.992 43.3884 10.4213 43.5937 10.944L45.3017 10.146C45.1244 9.65133 44.8304 9.19867 44.4197 8.788C44.0091 8.368 43.5051 8.032 42.9077 7.78C42.3197 7.528 41.6524 7.402 40.9057 7.402C40.1591 7.402 39.4684 7.53733 38.8337 7.808C38.1991 8.06933 37.6484 8.44267 37.1817 8.928C36.7151 9.404 36.3511 9.97333 36.0897 10.636C35.8284 11.2893 35.6977 12.0033 35.6977 12.778C35.6977 13.5527 35.8284 14.2713 36.0897 14.934C36.3511 15.5873 36.7151 16.1567 37.1817 16.642C37.6484 17.1273 38.1991 17.5053 38.8337 17.776C39.4684 18.0373 40.1591 18.168 40.9057 18.168ZM50.2808 18.168C51.0182 18.168 51.6902 18 52.2968 17.664C52.9035 17.3187 53.3888 16.8473 53.7528 16.25C54.1168 15.6433 54.2988 14.9573 54.2988 14.192C54.2988 13.4267 54.1168 12.7453 53.7528 12.148C53.3982 11.5507 52.9175 11.0793 52.3108 10.734C51.7042 10.3887 51.0275 10.216 50.2808 10.216C49.5248 10.216 48.8435 10.3887 48.2368 10.734C47.6302 11.0793 47.1448 11.5507 46.7808 12.148C46.4262 12.7453 46.2488 13.4267 46.2488 14.192C46.2488 14.9573 46.4262 15.6387 46.7808 16.236C47.1448 16.8333 47.6302 17.3047 48.2368 17.65C48.8528 17.9953 49.5342 18.168 50.2808 18.168ZM50.2808 16.488C49.8702 16.488 49.5015 16.39 49.1748 16.194C48.8575 15.998 48.6055 15.7273 48.4188 15.382C48.2415 15.0273 48.1528 14.6307 48.1528 14.192C48.1528 13.7533 48.2415 13.3613 48.4188 13.016C48.6055 12.6707 48.8575 12.4 49.1748 12.204C49.5015 11.9987 49.8702 11.896 50.2808 11.896C50.6915 11.896 51.0508 11.9987 51.3588 12.204C51.6762 12.4 51.9235 12.6707 52.1008 13.016C52.2875 13.3613 52.3808 13.7533 52.3808 14.192C52.3808 14.6307 52.2875 15.0273 52.1008 15.382C51.9235 15.7273 51.6762 15.998 51.3588 16.194C51.0508 16.39 50.6915 16.488 50.2808 16.488ZM55.6896 18H57.5236V13.534C57.5236 13.0393 57.659 12.6427 57.9296 12.344C58.2003 12.0453 58.555 11.896 58.9936 11.896C59.4416 11.896 59.7963 12.0453 60.0576 12.344C60.3283 12.6333 60.4636 13.03 60.4636 13.534V18H62.2976V13.534C62.2976 13.0393 62.433 12.6427 62.7036 12.344C62.9743 12.0453 63.329 11.896 63.7676 11.896C64.2156 11.896 64.5703 12.0453 64.8316 12.344C65.1023 12.6333 65.2376 13.03 65.2376 13.534V18H67.0716V13.1C67.0716 12.5307 66.9456 12.0313 66.6936 11.602C66.451 11.1633 66.1196 10.8227 65.6996 10.58C65.2796 10.3373 64.799 10.216 64.2576 10.216C63.7536 10.216 63.2963 10.3187 62.8856 10.524C62.4843 10.7293 62.153 11.0373 61.8916 11.448C61.6676 11.0747 61.3456 10.776 60.9256 10.552C60.515 10.328 60.053 10.216 59.5396 10.216C59.0636 10.216 58.639 10.3093 58.2656 10.496C57.8923 10.6827 57.6076 10.9627 57.4116 11.336V10.384H55.6896V18ZM68.6232 9.53H70.4572V7.57H68.6232V9.53ZM68.6232 18H70.4572V10.384H68.6232V18ZM72.1506 18H73.9846V13.534C73.9846 13.0393 74.1246 12.6427 74.4046 12.344C74.6939 12.0453 75.0672 11.896 75.5246 11.896C75.9819 11.896 76.3506 12.0453 76.6306 12.344C76.9199 12.6333 77.0646 13.03 77.0646 13.534V18H78.8986V13.1C78.8986 12.5307 78.7772 12.0313 78.5346 11.602C78.2919 11.1633 77.9512 10.8227 77.5126 10.58C77.0832 10.3373 76.5886 10.216 76.0286 10.216C75.5526 10.216 75.1232 10.3093 74.7406 10.496C74.3672 10.6827 74.0779 10.958 73.8726 11.322V10.384H72.1506V18ZM84.1454 21.08C84.8734 21.08 85.5174 20.9307 86.0774 20.632C86.6374 20.3333 87.0761 19.9227 87.3934 19.4C87.7107 18.8773 87.8694 18.2847 87.8694 17.622V10.384H86.1334V11.266C85.5547 10.566 84.7754 10.216 83.7954 10.216C83.0954 10.216 82.4701 10.3793 81.9194 10.706C81.3687 11.0233 80.9347 11.462 80.6174 12.022C80.3001 12.582 80.1414 13.2213 80.1414 13.94C80.1414 14.6493 80.3001 15.2887 80.6174 15.858C80.9347 16.4273 81.3734 16.8753 81.9334 17.202C82.4934 17.5287 83.1281 17.692 83.8374 17.692C84.7614 17.692 85.4941 17.3933 86.0354 16.796V17.622C86.0354 18.182 85.8581 18.616 85.5034 18.924C85.1487 19.2413 84.6961 19.4 84.1454 19.4C83.6601 19.4 83.2494 19.288 82.9134 19.064C82.5867 18.8493 82.3674 18.5647 82.2554 18.21L80.5474 18.854C80.7901 19.526 81.2334 20.0627 81.8774 20.464C82.5307 20.8747 83.2867 21.08 84.1454 21.08ZM84.0614 15.998C83.4734 15.998 82.9881 15.8067 82.6054 15.424C82.2321 15.032 82.0454 14.542 82.0454 13.954C82.0454 13.562 82.1294 13.212 82.2974 12.904C82.4747 12.5867 82.7174 12.3393 83.0254 12.162C83.3334 11.9847 83.6787 11.896 84.0614 11.896C84.6401 11.896 85.1114 12.092 85.4754 12.484C85.8487 12.8667 86.0354 13.3567 86.0354 13.954C86.0354 14.5513 85.8487 15.0413 85.4754 15.424C85.1114 15.8067 84.6401 15.998 84.0614 15.998ZM95.9485 18.168C96.6672 18.168 97.2972 18.0373 97.8385 17.776C98.3798 17.5147 98.8045 17.1553 99.1125 16.698C99.4205 16.2407 99.5745 15.7133 99.5745 15.116C99.5745 13.7253 98.7438 12.764 97.0825 12.232L95.1645 11.63C94.7912 11.5087 94.5065 11.3407 94.3105 11.126C94.1238 10.902 94.0305 10.6453 94.0305 10.356C94.0305 9.97333 94.1752 9.66533 94.4645 9.432C94.7632 9.18933 95.1552 9.068 95.6405 9.068C96.1818 9.068 96.6578 9.21267 97.0685 9.502C97.4792 9.782 97.7872 10.1833 97.9925 10.706L99.5605 10.006C99.2805 9.222 98.7905 8.592 98.0905 8.116C97.3998 7.64 96.5832 7.402 95.6405 7.402C94.9592 7.402 94.3525 7.53267 93.8205 7.794C93.2978 8.046 92.8872 8.40067 92.5885 8.858C92.2992 9.31533 92.1545 9.84267 92.1545 10.44C92.1545 11.1213 92.3598 11.714 92.7705 12.218C93.1812 12.7127 93.7925 13.0907 94.6045 13.352L96.6065 13.996C96.9705 14.1173 97.2412 14.276 97.4185 14.472C97.6052 14.668 97.6985 14.92 97.6985 15.228C97.6985 15.6107 97.5445 15.9187 97.2365 16.152C96.9378 16.3853 96.5412 16.502 96.0465 16.502C95.4492 16.502 94.9125 16.334 94.4365 15.998C93.9605 15.6527 93.5965 15.1813 93.3445 14.584L91.7625 15.27C91.9492 15.8487 92.2432 16.3573 92.6445 16.796C93.0552 17.2253 93.5405 17.5613 94.1005 17.804C94.6698 18.0467 95.2858 18.168 95.9485 18.168ZM104.859 18.168C105.596 18.168 106.268 18 106.875 17.664C107.482 17.3187 107.967 16.8473 108.331 16.25C108.695 15.6433 108.877 14.9573 108.877 14.192C108.877 13.4267 108.695 12.7453 108.331 12.148C107.976 11.5507 107.496 11.0793 106.889 10.734C106.282 10.3887 105.606 10.216 104.859 10.216C104.103 10.216 103.422 10.3887 102.815 10.734C102.208 11.0793 101.723 11.5507 101.359 12.148C101.004 12.7453 100.827 13.4267 100.827 14.192C100.827 14.9573 101.004 15.6387 101.359 16.236C101.723 16.8333 102.208 17.3047 102.815 17.65C103.431 17.9953 104.112 18.168 104.859 18.168ZM104.859 16.488C104.448 16.488 104.08 16.39 103.753 16.194C103.436 15.998 103.184 15.7273 102.997 15.382C102.82 15.0273 102.731 14.6307 102.731 14.192C102.731 13.7533 102.82 13.3613 102.997 13.016C103.184 12.6707 103.436 12.4 103.753 12.204C104.08 11.9987 104.448 11.896 104.859 11.896C105.27 11.896 105.629 11.9987 105.937 12.204C106.254 12.4 106.502 12.6707 106.679 13.016C106.866 13.3613 106.959 13.7533 106.959 14.192C106.959 14.6307 106.866 15.0273 106.679 15.382C106.502 15.7273 106.254 15.998 105.937 16.194C105.629 16.39 105.27 16.488 104.859 16.488ZM113.992 18.168C114.729 18.168 115.401 18 116.008 17.664C116.614 17.3187 117.1 16.8473 117.464 16.25C117.828 15.6433 118.01 14.9573 118.01 14.192C118.01 13.4267 117.828 12.7453 117.464 12.148C117.109 11.5507 116.628 11.0793 116.022 10.734C115.415 10.3887 114.738 10.216 113.992 10.216C113.236 10.216 112.554 10.3887 111.948 10.734C111.341 11.0793 110.856 11.5507 110.492 12.148C110.137 12.7453 109.96 13.4267 109.96 14.192C109.96 14.9573 110.137 15.6387 110.492 16.236C110.856 16.8333 111.341 17.3047 111.948 17.65C112.564 17.9953 113.245 18.168 113.992 18.168ZM113.992 16.488C113.581 16.488 113.212 16.39 112.886 16.194C112.568 15.998 112.316 15.7273 112.13 15.382C111.952 15.0273 111.864 14.6307 111.864 14.192C111.864 13.7533 111.952 13.3613 112.13 13.016C112.316 12.6707 112.568 12.4 112.886 12.204C113.212 11.9987 113.581 11.896 113.992 11.896C114.402 11.896 114.762 11.9987 115.07 12.204C115.387 12.4 115.634 12.6707 115.812 13.016C115.998 13.3613 116.092 13.7533 116.092 14.192C116.092 14.6307 115.998 15.0273 115.812 15.382C115.634 15.7273 115.387 15.998 115.07 16.194C114.762 16.39 114.402 16.488 113.992 16.488ZM119.401 18H121.235V13.534C121.235 13.0393 121.375 12.6427 121.655 12.344C121.944 12.0453 122.317 11.896 122.775 11.896C123.232 11.896 123.601 12.0453 123.881 12.344C124.17 12.6333 124.315 13.03 124.315 13.534V18H126.149V13.1C126.149 12.5307 126.027 12.0313 125.785 11.602C125.542 11.1633 125.201 10.8227 124.763 10.58C124.333 10.3373 123.839 10.216 123.279 10.216C122.803 10.216 122.373 10.3093 121.991 10.496C121.617 10.6827 121.328 10.958 121.123 11.322V10.384H119.401V18Z" fill="#D0D4DE"/>
<defs>
<linearGradient id="paint0_linear_0_1" x1="25.6067" y1="24.5001" x2="-4.7648" y2="-7.29325" gradientUnits="userSpaceOnUse">
<stop stop-color="#78FFFF"/>
<stop offset="1" stop-color="#803BD8" stop-opacity="0.94"/>
</linearGradient>
</defs>
</svg>
