<svg width="96" height="24" viewBox="0 0 96 24" fill="none" xmlns="http://www.w3.org/2000/svg">
<path d="M1.48041 15.3686C0.814082 13.0908 0.838147 10.6667 1.54956 8.40258C2.26098 6.13851 3.6278 4.13622 5.47719 2.6489C7.32658 1.16159 9.57548 0.256035 11.9395 0.0467556C14.3036 -0.162524 16.6766 0.333871 18.7585 1.47316C20.8404 2.61246 22.5378 4.34349 23.6359 6.44737C24.734 8.55125 25.1836 10.9335 24.9278 13.2929C24.672 15.6523 23.7223 17.8828 22.1988 19.7025C20.6754 21.5222 18.6465 22.8492 16.3687 23.5159C14.8562 23.9591 13.2711 24.0999 11.7041 23.9303C10.1371 23.7607 8.61887 23.2839 7.23621 22.5273C5.85355 21.7707 4.63355 20.749 3.64594 19.5207C2.65833 18.2923 1.92247 16.8814 1.48041 15.3686V15.3686Z" fill="url(#paint0_linear_0_1)"/>
<path d="M12.7668 13.8334L17.4121 11.7671L13.0645 3.57315L8.25233 11.5013L12.7668 13.8334Z" fill="#D0D4DE"/>
<path d="M13.0645 3.57315L12.9528 13.839L8.25232 11.5013L13.0645 3.57315Z" fill="#E7E9EE"/>
<path d="M12.75 20.8012L17.7581 12.5101L12.9265 14.6686L8.23694 12.2368L12.75 20.8012Z" fill="#D0D4DE"/>
<path d="M12.8948 9.43743L17.414 11.7671L12.7688 13.8335L8.25427 11.5014L12.8948 9.43743Z" fill="#7062FF" fill-opacity="0.7"/>
<path d="M8.25427 11.5014L12.8948 9.43743L12.7688 13.8335L8.25427 11.5014Z" fill="#7D70FF"/>
<path d="M8.22514 12.2517L12.9147 14.6836L12.7382 20.8162L8.22514 12.2517Z" fill="#E7E9EE"/>
<path d="M36.0057 18H42.9357V16.32H37.9097V13.604H42.6557V11.924H37.9097V9.25H42.9357V7.57H36.0057V18ZM47.6499 18.084C47.9579 18.084 48.2612 18.0607 48.5599 18.014V16.432C48.3826 16.46 48.2192 16.474 48.0699 16.474C47.6219 16.474 47.2952 16.3713 47.0899 16.166C46.8846 15.9607 46.7819 15.6667 46.7819 15.284V12.022H48.5319V10.384H46.7819V8.648H44.9479V9.236C44.9479 9.60933 44.8452 9.894 44.6399 10.09C44.4346 10.286 44.1452 10.384 43.7719 10.384H43.6319V12.022H44.9479V15.382C44.9479 16.2313 45.1812 16.894 45.6479 17.37C46.1239 17.846 46.7912 18.084 47.6499 18.084ZM49.9611 18H51.7951V13.534C51.7951 13.0393 51.9398 12.6427 52.2291 12.344C52.5185 12.0453 52.8871 11.896 53.3351 11.896C53.7831 11.896 54.1518 12.0453 54.4411 12.344C54.7305 12.6333 54.8751 13.03 54.8751 13.534V18H56.7091V13.1C56.7091 12.5307 56.5878 12.0313 56.3451 11.602C56.1025 11.1633 55.7618 10.8227 55.3231 10.58C54.8938 10.3373 54.3991 10.216 53.8391 10.216C53.4005 10.216 53.0038 10.2953 52.6491 10.454C52.2945 10.6033 52.0098 10.832 51.7951 11.14V7.444H49.9611V18ZM61.8719 18.168C62.6466 18.168 63.3233 17.9953 63.9019 17.65C64.4899 17.2953 64.9006 16.8473 65.1339 16.306L63.6499 15.578C63.4819 15.8673 63.2486 16.1053 62.9499 16.292C62.6606 16.4693 62.3059 16.558 61.8859 16.558C61.3353 16.558 60.8733 16.39 60.4999 16.054C60.1266 15.718 59.9119 15.27 59.8559 14.71H65.3439C65.3813 14.6073 65.4046 14.4907 65.4139 14.36C65.4326 14.22 65.4419 14.08 65.4419 13.94C65.4419 13.2587 65.2973 12.638 65.0079 12.078C64.7186 11.518 64.2986 11.07 63.7479 10.734C63.1973 10.3887 62.5253 10.216 61.7319 10.216C61.0226 10.216 60.3786 10.3887 59.7999 10.734C59.2306 11.0793 58.7779 11.5507 58.4419 12.148C58.1153 12.736 57.9519 13.4127 57.9519 14.178C57.9519 14.9153 58.1153 15.5873 58.4419 16.194C58.7686 16.8007 59.2259 17.2813 59.8139 17.636C60.4019 17.9907 61.0879 18.168 61.8719 18.168ZM61.7319 11.728C62.2173 11.728 62.6186 11.8773 62.9359 12.176C63.2626 12.4653 63.4446 12.8433 63.4819 13.31H59.8979C60.0006 12.806 60.2153 12.4187 60.5419 12.148C60.8779 11.868 61.2746 11.728 61.7319 11.728ZM66.8322 18H68.6662V13.758C68.6662 13.1793 68.8249 12.7313 69.1422 12.414C69.4689 12.0873 69.8889 11.924 70.4022 11.924H71.0602V10.3H70.6122C70.1455 10.3 69.7349 10.384 69.3802 10.552C69.0255 10.72 68.7502 11.0233 68.5542 11.462V10.384H66.8322V18ZM72.0685 9.53H73.9025V7.57H72.0685V9.53ZM72.0685 18H73.9025V10.384H72.0685V18ZM78.3119 18.168C78.7879 18.168 79.2079 18.0793 79.5719 17.902C79.9452 17.7153 80.2392 17.4447 80.4539 17.09V18H82.1899V10.384H80.3559V14.85C80.3559 15.354 80.2112 15.7553 79.9219 16.054C79.6325 16.3433 79.2639 16.488 78.8159 16.488C78.3585 16.488 77.9852 16.3433 77.6959 16.054C77.4159 15.7647 77.2759 15.3773 77.2759 14.892V10.384H75.4419V15.046C75.4419 15.9793 75.6939 16.7353 76.1979 17.314C76.7112 17.8833 77.4159 18.168 78.3119 18.168ZM83.8947 18H85.7287V13.534C85.7287 13.0393 85.864 12.6427 86.1347 12.344C86.4054 12.0453 86.76 11.896 87.1987 11.896C87.6467 11.896 88.0014 12.0453 88.2627 12.344C88.5334 12.6333 88.6687 13.03 88.6687 13.534V18H90.5027V13.534C90.5027 13.0393 90.638 12.6427 90.9087 12.344C91.1794 12.0453 91.534 11.896 91.9727 11.896C92.4207 11.896 92.7754 12.0453 93.0367 12.344C93.3074 12.6333 93.4427 13.03 93.4427 13.534V18H95.2767V13.1C95.2767 12.5307 95.1507 12.0313 94.8987 11.602C94.656 11.1633 94.3247 10.8227 93.9047 10.58C93.4847 10.3373 93.004 10.216 92.4627 10.216C91.9587 10.216 91.5014 10.3187 91.0907 10.524C90.6894 10.7293 90.358 11.0373 90.0967 11.448C89.8727 11.0747 89.5507 10.776 89.1307 10.552C88.72 10.328 88.258 10.216 87.7447 10.216C87.2687 10.216 86.844 10.3093 86.4707 10.496C86.0974 10.6827 85.8127 10.9627 85.6167 11.336V10.384H83.8947V18Z" fill="#D0D4DE"/>
<defs>
<linearGradient id="paint0_linear_0_1" x1="25.6067" y1="24.5001" x2="-4.7648" y2="-7.29325" gradientUnits="userSpaceOnUse">
<stop stop-color="#78FFFF"/>
<stop offset="1" stop-color="#803BD8" stop-opacity="0.94"/>
</linearGradient>
</defs>
</svg>
