<svg width="91" height="24" viewBox="0 0 91 24" fill="none" xmlns="http://www.w3.org/2000/svg">
<circle cx="12.9977" cy="12" r="12" fill="#8247E5"/>
<path d="M16.5987 9.58952C16.3428 9.44234 16.0138 9.44234 15.7214 9.58952L13.6744 10.8038L12.2853 11.5765L10.2749 12.7907C10.019 12.9379 9.69004 12.9379 9.39761 12.7907L7.82581 11.834C7.56993 11.6868 7.38716 11.3925 7.38716 11.0613V9.22157C7.38716 8.92721 7.53338 8.63284 7.82581 8.44887L9.39761 7.52899C9.65348 7.3818 9.98247 7.3818 10.2749 7.52899L11.8467 8.48566C12.1026 8.63284 12.2853 8.92721 12.2853 9.25836V10.4726L13.6744 9.66311V8.41207C13.6744 8.11771 13.5282 7.82335 13.2357 7.63937L10.3114 5.90999C10.0556 5.76281 9.72659 5.76281 9.43416 5.90999L6.43677 7.67617C6.14434 7.82335 5.99813 8.11771 5.99813 8.41207V11.8708C5.99813 12.1652 6.14434 12.4595 6.43677 12.6435L9.39761 14.3729C9.65348 14.5201 9.98247 14.5201 10.2749 14.3729L12.2853 13.1955L13.6744 12.386L15.6848 11.2085C15.9407 11.0613 16.2697 11.0613 16.5621 11.2085L18.1339 12.1284C18.3898 12.2756 18.5725 12.5699 18.5725 12.9011V14.7409C18.5725 15.0352 18.4263 15.3296 18.1339 15.5136L16.5987 16.4334C16.3428 16.5806 16.0138 16.5806 15.7214 16.4334L14.1496 15.5136C13.8937 15.3664 13.7109 15.072 13.7109 14.7409V13.5634L12.3219 14.3729V15.5871C12.3219 15.8815 12.4681 16.1759 12.7605 16.3598L15.7214 18.0892C15.9772 18.2364 16.3062 18.2364 16.5987 18.0892L19.5595 16.3598C19.8154 16.2127 19.9981 15.9183 19.9981 15.5871V12.0916C19.9981 11.7972 19.8519 11.5029 19.5595 11.3189L16.5987 9.58952Z" fill="#D0D4DE"/>
<path d="M36.0057 18H37.9097V14.15H39.8977C40.6071 14.15 41.2324 14.024 41.7737 13.772C42.3151 13.5107 42.7397 13.1327 43.0477 12.638C43.3651 12.1433 43.5237 11.5507 43.5237 10.86C43.5237 10.1507 43.3697 9.55333 43.0617 9.068C42.7537 8.58267 42.3244 8.214 41.7737 7.962C41.2324 7.70067 40.6071 7.57 39.8977 7.57H36.0057V18ZM37.9097 12.47V9.25H39.9257C40.4391 9.25 40.8497 9.39467 41.1577 9.684C41.4657 9.97333 41.6197 10.3653 41.6197 10.86C41.6197 11.3453 41.4657 11.7373 41.1577 12.036C40.8497 12.3253 40.4391 12.47 39.9257 12.47H37.9097ZM48.3804 18.168C49.1178 18.168 49.7898 18 50.3964 17.664C51.0031 17.3187 51.4884 16.8473 51.8524 16.25C52.2164 15.6433 52.3984 14.9573 52.3984 14.192C52.3984 13.4267 52.2164 12.7453 51.8524 12.148C51.4978 11.5507 51.0171 11.0793 50.4104 10.734C49.8038 10.3887 49.1271 10.216 48.3804 10.216C47.6244 10.216 46.9431 10.3887 46.3364 10.734C45.7298 11.0793 45.2444 11.5507 44.8804 12.148C44.5258 12.7453 44.3484 13.4267 44.3484 14.192C44.3484 14.9573 44.5258 15.6387 44.8804 16.236C45.2444 16.8333 45.7298 17.3047 46.3364 17.65C46.9524 17.9953 47.6338 18.168 48.3804 18.168ZM48.3804 16.488C47.9698 16.488 47.6011 16.39 47.2744 16.194C46.9571 15.998 46.7051 15.7273 46.5184 15.382C46.3411 15.0273 46.2524 14.6307 46.2524 14.192C46.2524 13.7533 46.3411 13.3613 46.5184 13.016C46.7051 12.6707 46.9571 12.4 47.2744 12.204C47.6011 11.9987 47.9698 11.896 48.3804 11.896C48.7911 11.896 49.1504 11.9987 49.4584 12.204C49.7758 12.4 50.0231 12.6707 50.2004 13.016C50.3871 13.3613 50.4804 13.7533 50.4804 14.192C50.4804 14.6307 50.3871 15.0273 50.2004 15.382C50.0231 15.7273 49.7758 15.998 49.4584 16.194C49.1504 16.39 48.7911 16.488 48.3804 16.488ZM53.7892 18H55.6232V7.57H53.7892V18ZM58.2406 21.094C58.9593 21.094 59.5566 20.8887 60.0326 20.478C60.5179 20.0767 60.9053 19.5073 61.1946 18.77L64.5126 10.384H62.5246L60.5646 15.634L58.5906 10.384H56.6166L59.6266 18L59.4586 18.406C59.3093 18.7233 59.1366 18.98 58.9406 19.176C58.7539 19.372 58.4506 19.47 58.0306 19.47C57.8813 19.47 57.7226 19.456 57.5546 19.428C57.3866 19.4093 57.2373 19.3813 57.1066 19.344V20.884C57.2653 20.9587 57.4426 21.01 57.6386 21.038C57.8346 21.0753 58.0353 21.094 58.2406 21.094ZM69.079 21.08C69.807 21.08 70.451 20.9307 71.011 20.632C71.571 20.3333 72.0097 19.9227 72.327 19.4C72.6443 18.8773 72.803 18.2847 72.803 17.622V10.384H71.067V11.266C70.4883 10.566 69.709 10.216 68.729 10.216C68.029 10.216 67.4037 10.3793 66.853 10.706C66.3023 11.0233 65.8683 11.462 65.551 12.022C65.2337 12.582 65.075 13.2213 65.075 13.94C65.075 14.6493 65.2337 15.2887 65.551 15.858C65.8683 16.4273 66.307 16.8753 66.867 17.202C67.427 17.5287 68.0617 17.692 68.771 17.692C69.695 17.692 70.4277 17.3933 70.969 16.796V17.622C70.969 18.182 70.7917 18.616 70.437 18.924C70.0823 19.2413 69.6297 19.4 69.079 19.4C68.5937 19.4 68.183 19.288 67.847 19.064C67.5203 18.8493 67.301 18.5647 67.189 18.21L65.481 18.854C65.7237 19.526 66.167 20.0627 66.811 20.464C67.4643 20.8747 68.2203 21.08 69.079 21.08ZM68.995 15.998C68.407 15.998 67.9217 15.8067 67.539 15.424C67.1657 15.032 66.979 14.542 66.979 13.954C66.979 13.562 67.063 13.212 67.231 12.904C67.4083 12.5867 67.651 12.3393 67.959 12.162C68.267 11.9847 68.6123 11.896 68.995 11.896C69.5737 11.896 70.045 12.092 70.409 12.484C70.7823 12.8667 70.969 13.3567 70.969 13.954C70.969 14.5513 70.7823 15.0413 70.409 15.424C70.045 15.8067 69.5737 15.998 68.995 15.998ZM78.2398 18.168C78.9771 18.168 79.6491 18 80.2558 17.664C80.8625 17.3187 81.3478 16.8473 81.7118 16.25C82.0758 15.6433 82.2578 14.9573 82.2578 14.192C82.2578 13.4267 82.0758 12.7453 81.7118 12.148C81.3571 11.5507 80.8765 11.0793 80.2698 10.734C79.6631 10.3887 78.9865 10.216 78.2398 10.216C77.4838 10.216 76.8025 10.3887 76.1958 10.734C75.5891 11.0793 75.1038 11.5507 74.7398 12.148C74.3851 12.7453 74.2078 13.4267 74.2078 14.192C74.2078 14.9573 74.3851 15.6387 74.7398 16.236C75.1038 16.8333 75.5891 17.3047 76.1958 17.65C76.8118 17.9953 77.4931 18.168 78.2398 18.168ZM78.2398 16.488C77.8291 16.488 77.4605 16.39 77.1338 16.194C76.8165 15.998 76.5645 15.7273 76.3778 15.382C76.2005 15.0273 76.1118 14.6307 76.1118 14.192C76.1118 13.7533 76.2005 13.3613 76.3778 13.016C76.5645 12.6707 76.8165 12.4 77.1338 12.204C77.4605 11.9987 77.8291 11.896 78.2398 11.896C78.6505 11.896 79.0098 11.9987 79.3178 12.204C79.6351 12.4 79.8825 12.6707 80.0598 13.016C80.2465 13.3613 80.3398 13.7533 80.3398 14.192C80.3398 14.6307 80.2465 15.0273 80.0598 15.382C79.8825 15.7273 79.6351 15.998 79.3178 16.194C79.0098 16.39 78.6505 16.488 78.2398 16.488ZM83.6486 18H85.4826V13.534C85.4826 13.0393 85.6226 12.6427 85.9026 12.344C86.192 12.0453 86.5653 11.896 87.0226 11.896C87.48 11.896 87.8486 12.0453 88.1286 12.344C88.418 12.6333 88.5626 13.03 88.5626 13.534V18H90.3966V13.1C90.3966 12.5307 90.2753 12.0313 90.0326 11.602C89.79 11.1633 89.4493 10.8227 89.0106 10.58C88.5813 10.3373 88.0866 10.216 87.5266 10.216C87.0506 10.216 86.6213 10.3093 86.2386 10.496C85.8653 10.6827 85.576 10.958 85.3706 11.322V10.384H83.6486V18Z" fill="#D0D4DE"/>
</svg>
