<svg id="Layer_1" data-name="Layer 1" xmlns="http://www.w3.org/2000/svg" xmlns:xlink="http://www.w3.org/1999/xlink" viewBox="0 0 940.91 761.86"><defs><style>.cls-1{fill:url(#linear-gradient);}.cls-2{fill:#fff;}</style><linearGradient id="linear-gradient" x1="6930.48" y1="7342.88" x2="7479.22" y2="7342.88" gradientTransform="matrix(1, 0, 0, -1, 0, 14401)" gradientUnits="userSpaceOnUse"><stop offset="0" stop-color="#3023ae"/><stop offset="0.48" stop-color="#53a0fd"/><stop offset="1" stop-color="#b4ec51"/></linearGradient></defs><path class="cls-1" d="M7200.73,6818.57l271.66,479.1H7051.75l30.4-53.4h.8l58.45-100.58,33.93,48.39L7145,7244.27h235.44L7257.81,7028q-11.13-19.64-23.24-41l-33.84-59.67,0,.08-.39-.68q-13.53-23.74-30.53-53.56Zm-61.94,109.26,1.4,2.47.12-.21L7289.42,7192h-61.74L7139,7036.22l-8.43,14.86-.12-.07L6990,7297.67h-60.93Z" transform="translate(-6729.05 -6818.57)"/><path class="cls-2" d="M6762.62,7580.43l8.2-23.6h49.43l8.21,23.6h33.94L6814.1,7452h-36.75l-48.3,128.42Zm50.39-46.92h-34.57l17.38-46.92Zm123,46.92V7501.6l52.86,78.83h31.61V7452h-31.61v79.56L6936,7452h-31.6v128.42Zm208.25,0v-42.68l46.62-85.74H7154l-25.88,52.31L7102.2,7452h-37.29l46.61,85.74v42.68Zm122.64,0v-45h19.57q15.33,0,26-5.36a37.54,37.54,0,0,0,16.15-14.72,41.52,41.52,0,0,0,5.45-21.34q0-19.24-12.19-30.6T7286.45,7452h-51.14v128.42Zm16.37-69.15h-15.84v-34.57h15.84q18.73,0,18.74,17.47Q7302,7511.28,7283.25,7511.28Zm123.93,69.15,8.2-23.6h49.43l8.21,23.6H7507L7458.65,7452h-36.74l-48.3,128.42Zm50.39-46.92H7423l17.38-46.92Zm145,46.92q20.63,0,35.86-8.17a56.73,56.73,0,0,0,23.36-22.8q8.13-14.62,8.12-33.51t-8.12-33.42a55.86,55.86,0,0,0-23.27-22.52q-15.14-8-36-8h-48.73v128.42Zm-5.8-29.63h-15.76v-71.62h15.76q19.44,0,30.24,9.39t10.8,26.42q0,17-10.8,26.41T7596.81,7550.8Z" transform="translate(-6729.05 -6818.57)"/></svg>