<?xml version="1.0" encoding="utf-8"?>
<!-- Generator: Adobe Illustrator 22.0.0, SVG Export Plug-In . SVG Version: 6.00 Build 0)  -->
<svg version="1.1" id="Calque_1" xmlns="http://www.w3.org/2000/svg" xmlns:xlink="http://www.w3.org/1999/xlink" x="0px" y="0px"
	 viewBox="0 0 1920 1080" style="enable-background:new 0 0 1920 1080;" xml:space="preserve">
<style type="text/css">
	.st0{fill:#FFFFFF;}
	.st1{fill:url(#SVGID_1_);}
	.st2{fill:url(#SVGID_2_);}
	.st3{fill:#64FFA8;}
	.st4{fill:#FF64BB;}
</style>
<circle class="st0" cx="909.6" cy="540.3" r="532.1"/>
<g id="Calque_1_1_">
	
		<linearGradient id="SVGID_1_" gradientUnits="userSpaceOnUse" x1="1288.7942" y1="812.0207" x2="741.9307" y2="265.1572" gradientTransform="matrix(-1 0 0 1 1926.5713 0)">
		<stop  offset="0" style="stop-color:#64FFA8"/>
		<stop  offset="0.5103" style="stop-color:#B3B0B2"/>
		<stop  offset="1" style="stop-color:#FF64BB"/>
	</linearGradient>
	<path class="st1" d="M910.2,590.8c35.9,29,71.7,58,105.5,89.5c41.7,38.9,100.1,61.6,157.4,55.8c99.1-10.1,176.8-96.4,176.8-195.9
		c0-18.7-2.7-37.3-7.9-55.1c-5.2-17.8-12.9-34.8-22.9-50.5c-41.6-65.1-95.7-94.9-172.3-91.2c-41.1,2-79.2,19.4-123.6,68.1l21.7,23.6
		c34.2-31.9,76.4-46.4,111.8-46.1c50.4,0.3,68.4,15.8,86.9,32.1c30.6,27.1,42,72.2,37.3,112.9c-6.5,56.5-48.5,110.8-101.9,122.7
		c-8.4,1.8-17,2.9-25.9,2.9c-42.9,0-81.5-28.8-112-55.8c-5.5-4.9-36.1-30.8-72.5-61.5 M909.3,492.3c-30.1-25.3-57.4-48-71.9-59.9
		c-11.6-9.5-23-19.5-34.6-29.2c-31.1-26.1-63.7-50.4-105-57.3c-76.6-12.9-155.5,23.5-197.1,88.7c-20.1,31.5-30.8,68.4-30.8,105.7
		c0,5.4,0.2,10.7,0.7,16.1c6,73.7,54.8,139.4,123.4,166.8c81.7,32.6,158.5-12.9,181.5-35.1l-32.3-36c-23.5,18.3-73.7,31.3-103,26.5
		C583.5,669.3,537,612.7,537,554.8c0-40.5,34.2-93.7,67.6-115.7c20.6-13.6,41.5-18,62-16.2c32.5,2.8,64.1,21.1,91.6,42.7
		c2.3,1.8,4.6,3.6,6.8,5.4c28.1,23.3,56.2,46.6,84.2,70"/>
	
		<linearGradient id="SVGID_2_" gradientUnits="userSpaceOnUse" x1="616.981" y1="649.4239" x2="1469.3638" y2="416.4846" gradientTransform="matrix(-1 0 0 1 1926.5713 0)">
		<stop  offset="0" style="stop-color:#64FFA8"/>
		<stop  offset="0.5103" style="stop-color:#B3B0B2"/>
		<stop  offset="1" style="stop-color:#FF64BB"/>
	</linearGradient>
	<path class="st2" d="M646.8,344.2c57.3-5.8,115.7,16.9,157.4,55.8c21.3,19.9,92.5,81.1,145.5,126.3c6.3,5.4,12.6,10.7,18.8,15.8
		c36.4,30.7,67,56.6,72.5,61.5c30.5,27,69,55.8,112,55.8c8.9,0,17.5-1,25.9-2.9c41.5,3.2,78.2-9.8,119-51.2
		c32.8-33.3,42.2-83,44-120.3c5.2,17.8,7.9,36.4,7.9,55.1c0,99.5-77.8,185.8-176.8,195.9c-57.3,5.8-115.7-16.9-157.4-55.8
		c-16.2-15.1-32.9-29.7-49.9-43.9c0,0,0,0,0,0.1c-1.7-1.4-3.5-2.9-5.3-4.5c-16.6-13.9-33.5-27.5-50.3-41.2
		c-15.2-12.3-30.5-24.6-45.6-37.1c-2.1-1.7-4.1-3.4-6.2-5.2c-3-2.5-6.1-5-9.2-7.6c-28-23.4-56.1-46.7-84.2-70
		c-2.2-1.8-4.5-3.6-6.8-5.4c0,0-61-53-117.3-41.8c-41.5-3.2-78.2,9.8-119,51.2c-32.8,33.3-42.2,83-44,120.3
		c-5.2-17.8-7.9-36.4-7.9-55.1C469.9,440.5,547.7,354.3,646.8,344.2z"/>
	<path id="Plume_1_" class="st3" d="M832.8,587c-14.9,16.8-35.2,34.1-35.2,34.1l19,24.5c0,0,21.8-15.3,41.8-25.5
		c4-2,6.9-5.6,8.3-9.9c5.9-18.3,15.2-31.8,15.3-31.9c1.6-2.3-0.3-4.6-2.8-3.6c-0.1,0.1-15.5,5.7-34.7,6.8
		C839.9,581.7,835.8,583.7,832.8,587z"/>
	<path id="Plume_2_" class="st3" d="M752.6,705.1c0,0,19-12,36.2-24.5c12.3-8.9,24.3-18.2,34.7-22.7c1.1-0.5,1.7-1.8,1.2-3
		c-2.9-7.9-13.9-22.3-15.2-23.9c-1.2-1.7-11.7-15.1-18.5-19.8c-1.1-0.8-2.5-0.6-3.3,0.4c-16.4,21.4-64.1,52.1-64.1,52.1L752.6,705.1
		z"/>
	<path class="st4" d="M1052.7,428.3c-2,1.6-4,3.3-5.7,5.2l-26.8,27.4c-0.8,0.8-1.8,1.1-2.9,1.1c-1.1,0-2.2-0.4-2.9-1.2l-16.9-16.6
		c-1.6-1.6-1.7-4.1-0.1-5.7c0,0,0,0,0.1-0.1l31.9-33.7l8.8-8.8l24.3,24.8L1052.7,428.3z"/>
	<path class="st4" d="M991.3,438.6c-15.2-0.1-27.8,12-28.1,27.3c0,1.1,0.4,2.2,1.2,2.9c0.8,0.8,1.8,1.1,3,1.1
		c8.2-0.6,10.2,2.9,13.5,8.7c3.6,9.2,12.7,15,22.6,14.5l0,0c1,0,2-0.4,2.7-1c7.6-6.3,12.5-15.5,13.4-25.4
		C1019.4,451.2,1006.8,438.6,991.3,438.6z"/>
	<path class="st4" d="M1007.1,487.8c-0.6-1.5-2-2.4-3.6-2.5c-7,0.4-13.6-3.9-15.8-10.6c-3.2-8.5-11.8-13.8-20.8-12.6
		c-1.6,0.1-2.9,1.2-3.4,2.7c-0.2,0.7-0.2,1.2-0.3,1.9c-0.8,8.6-3.9,16.9-8.9,23.9c-3.6,6.1-6.6,10.9-3.7,14.9
		c2.1,2.4,5.4,3.6,8.6,3.1c7.6-0.4,15.2-1.6,22.7-3.5c9.1-2.2,17.5-6.7,24.3-13.1C1007.3,491,1007.7,489.3,1007.1,487.8z"/>
</g>
</svg>
