<?xml version="1.0" encoding="utf-8"?>
<!-- Generator: Adobe Illustrator 21.0.0, SVG Export Plug-In . SVG Version: 6.00 Build 0)  -->
<svg version="1.1" id="Layer_1" xmlns="http://www.w3.org/2000/svg" xmlns:xlink="http://www.w3.org/1999/xlink" x="0px" y="0px"
	 viewBox="0 0 316 130" style="enable-background:new 0 0 316 130;" xml:space="preserve">
<style type="text/css">
	.st0{fill:#666666;}
	.st1{fill:url(#SVGID_1_);}
	.st2{fill:#474747;}
</style>
<title>supralogo_font_final</title>
<g>
	<g>
		<g>
			<path class="st0" d="M58.5,54.5c-3.6,0-7.2,0.6-10.6,2c-3.4,1.3-6.4,3.4-9,5.9s-4.7,5.6-6.1,8.9c-1.4,3.4-2.2,7-2.2,10.7
				s0.6,7.3,2,10.8c1.4,3.4,3.4,6.6,6,9.2s5.7,4.8,9.1,6.2c3.4,1.5,7.1,2.2,10.9,2.3c-3.7,0-7.5-0.6-11-2s-6.7-3.5-9.4-6.1
				s-4.9-5.8-6.4-9.3c-1.5-3.5-2.3-7.3-2.3-11.1c0-3.8,0.7-7.6,2.1-11.2c1.4-3.5,3.6-6.8,6.2-9.6c2.7-2.7,5.9-5,9.5-6.5
				c3.5-1.5,7.4-2.3,11.3-2.4v2.2H58.5z"/>
			<path class="st0" d="M58.5,57.9c-3.2,0-6.3,0.5-9.3,1.7c-2.9,1.2-5.7,2.9-7.9,5.2c-2.3,2.2-4.1,4.9-5.4,7.8
				c-1.3,2.9-1.9,6.1-2,9.4c0,3.2,0.5,6.5,1.7,9.5s3,5.8,5.3,8.1c2.3,2.3,5,4.2,8,5.5s6.3,2,9.6,2c-3.3,0-6.6-0.6-9.7-1.8
				c-3.1-1.2-5.9-3.1-8.3-5.4c-2.4-2.3-4.3-5.1-5.6-8.2s-2-6.4-2.1-9.8c0-3.4,0.6-6.7,1.8-9.9c1.2-3.1,3.1-6,5.5-8.5
				c2.4-2.4,5.2-4.4,8.4-5.7c3.1-1.3,6.5-2.1,10-2.1V57.9z"/>
			<path class="st0" d="M58.5,61.3c-2.7,0-5.4,0.4-8,1.4c-2.5,1-4.9,2.5-6.8,4.4c-2,1.9-3.6,4.2-4.7,6.7c-1.1,2.5-1.7,5.3-1.7,8.1
				c0,2.8,0.5,5.6,1.5,8.2s2.6,5,4.5,7c2,2,4.3,3.7,6.9,4.8c2.6,1.1,5.4,1.7,8.3,1.8c-2.8,0-5.7-0.5-8.4-1.5
				c-2.7-1.1-5.1-2.6-7.2-4.6c-2.1-2-3.7-4.4-4.9-7.1s-1.8-5.6-1.8-8.5s0.5-5.8,1.6-8.6c1.1-2.7,2.7-5.2,4.8-7.3
				c2.1-2.1,4.5-3.8,7.2-5s5.7-1.8,8.7-1.9C58.5,59.2,58.5,61.3,58.5,61.3z"/>
			<path class="st0" d="M58.5,64.7c-2.3,0-4.5,0.4-6.6,1.2c-2.1,0.8-4.1,2.1-5.7,3.7c-1.6,1.6-3,3.5-3.9,5.6s-1.4,4.4-1.5,6.7
				c0,2.3,0.4,4.7,1.2,6.8c0.9,2.2,2.1,4.2,3.8,5.9c1.6,1.7,3.6,3.1,5.8,4c2.2,1,4.5,1.5,6.9,1.5c-2.4,0-4.8-0.4-7-1.3
				s-4.3-2.2-6.1-3.9c-1.7-1.7-3.2-3.7-4.1-6c-1-2.2-1.5-4.7-1.5-7.1c0-2.5,0.4-4.9,1.3-7.2c0.9-2.3,2.3-4.4,4-6.2
				c1.7-1.8,3.8-3.3,6.1-4.3s4.8-1.5,7.3-1.6V64.7z"/>
			<path class="st0" d="M58.5,68.3c-1.8,0-3.6,0.3-5.3,0.9s-3.2,1.6-4.5,2.9s-2.4,2.8-3.1,4.4c-0.7,1.7-1.1,3.5-1.2,5.4
				c0,1.8,0.3,3.7,1,5.5c0.7,1.7,1.7,3.4,3,4.7c1.3,1.4,2.9,2.5,4.6,3.2c1.7,0.8,3.6,1.2,5.6,1.2c-1.9,0-3.9-0.3-5.7-1
				s-3.5-1.8-4.9-3.1c-1.4-1.3-2.6-3-3.4-4.8c-0.8-1.8-1.2-3.8-1.3-5.8c0-2,0.3-4,1-5.9s1.8-3.6,3.2-5.1s3.1-2.6,5-3.5
				c1.9-0.8,3.9-1.3,6-1.3C58.5,66,58.5,68.3,58.5,68.3z"/>
			<path class="st0" d="M58.5,71.9c-1.3,0-2.6,0.2-3.9,0.6c-1.2,0.5-2.4,1.2-3.4,2.1s-1.8,2-2.3,3.3c-0.6,1.2-0.9,2.6-0.9,4
				s0.2,2.8,0.7,4.1c0.5,1.3,1.3,2.5,2.2,3.6c1,1,2.1,1.9,3.5,2.5c1.3,0.6,2.7,0.9,4.2,1c-1.4,0-2.9-0.2-4.3-0.7
				c-1.4-0.5-2.6-1.3-3.7-2.3c-1.1-1-2-2.3-2.6-3.6c-0.6-1.4-1-2.9-1-4.4s0.2-3,0.8-4.5c0.5-1.4,1.4-2.8,2.4-3.9
				c1.1-1.1,2.4-2,3.8-2.7c1.4-0.6,3-1,4.6-1L58.5,71.9L58.5,71.9z"/>
			<path class="st0" d="M58.5,75.6c-1.7-0.1-3.4,0.5-4.7,1.7s-2.1,2.9-2.2,4.7c0,0.9,0.1,1.8,0.4,2.7c0.3,0.9,0.8,1.7,1.4,2.4
				c0.6,0.7,1.4,1.3,2.3,1.7c0.9,0.4,1.8,0.6,2.8,0.7c-1,0-2-0.1-2.9-0.4s-1.8-0.9-2.5-1.5c-0.7-0.7-1.4-1.5-1.8-2.4
				c-0.4-0.9-0.7-1.9-0.7-3c0-1,0.1-2.1,0.5-3.1s0.9-1.9,1.7-2.7c0.7-0.8,1.6-1.4,2.6-1.9s2.1-0.7,3.2-0.8L58.5,75.6L58.5,75.6z"/>
			<path class="st0" d="M58.5,79.3c-0.7-0.1-1.4,0.1-2,0.6s-1,1.2-1.1,2s0.2,1.7,0.7,2.4c0.6,0.7,1.5,1.2,2.4,1.3
				c-1,0.1-2-0.2-2.8-0.9c-0.8-0.7-1.3-1.7-1.4-2.8c-0.1-1.1,0.3-2.3,1-3.2c0.8-0.9,1.9-1.5,3.2-1.6C58.5,77.1,58.5,79.3,58.5,79.3z
				"/>
		</g>
		<g>
			<path class="st0" d="M71.9,74.9c3.6,0,7.2-0.6,10.6-2c3.4-1.3,6.4-3.4,9-5.9s4.7-5.6,6.1-8.9c1.4-3.4,2.2-7,2.2-10.7
				s-0.6-7.3-2-10.8c-1.4-3.4-3.4-6.6-6-9.2s-5.7-4.8-9.1-6.2c-3.4-1.5-7.1-2.2-10.9-2.3c3.7,0,7.5,0.6,11,2s6.7,3.5,9.4,6.1
				c2.7,2.6,4.9,5.8,6.4,9.3s2.3,7.3,2.3,11.1c0,3.8-0.7,7.6-2.1,11.2c-1.4,3.5-3.6,6.8-6.2,9.6c-2.7,2.7-5.9,5-9.5,6.5
				c-3.5,1.5-7.4,2.3-11.3,2.4L71.9,74.9L71.9,74.9z"/>
			<path class="st0" d="M71.9,71.5c3.2,0,6.3-0.5,9.3-1.7c2.9-1.2,5.7-2.9,7.9-5.2c2.3-2.2,4.1-4.9,5.4-7.8c1.3-2.9,1.9-6.1,2-9.4
				c0-3.2-0.5-6.5-1.7-9.5s-3-5.8-5.3-8.1s-5-4.2-8-5.5c-3-1.3-6.3-2-9.6-2c3.3,0,6.6,0.6,9.7,1.8c3.1,1.2,5.9,3.1,8.3,5.4
				s4.3,5.1,5.6,8.2c1.3,3.1,2,6.4,2.1,9.8c0,3.4-0.6,6.7-1.8,9.9c-1.2,3.1-3.1,6-5.5,8.5c-2.4,2.4-5.2,4.4-8.4,5.7
				c-3.1,1.3-6.5,2.1-10,2.1V71.5z"/>
			<path class="st0" d="M71.9,68.1c2.7,0,5.4-0.4,8-1.4c2.5-1,4.9-2.5,6.8-4.4c2-1.9,3.6-4.2,4.7-6.7s1.7-5.3,1.7-8.1
				c0-2.8-0.5-5.6-1.5-8.2c-1-2.6-2.6-5-4.5-7c-2-2-4.3-3.7-6.9-4.8c-2.6-1.1-5.4-1.7-8.3-1.8c2.8,0,5.7,0.5,8.4,1.5
				c2.7,1.1,5.1,2.6,7.2,4.6s3.7,4.4,4.9,7.1c1.2,2.7,1.8,5.6,1.8,8.5s-0.5,5.8-1.6,8.6c-1.1,2.7-2.7,5.2-4.8,7.3
				c-2.1,2.1-4.5,3.8-7.2,5s-5.7,1.8-8.7,1.9V68.1z"/>
			<path class="st0" d="M71.9,64.7c2.3,0,4.5-0.4,6.6-1.2s4.1-2.1,5.7-3.7c1.6-1.6,3-3.5,3.9-5.6s1.4-4.4,1.5-6.7
				c0-2.3-0.4-4.7-1.2-6.8c-0.9-2.2-2.1-4.2-3.8-5.9c-1.6-1.7-3.6-3.1-5.8-4c-2.2-1-4.5-1.5-6.9-1.5c2.4,0,4.8,0.4,7,1.3
				s4.3,2.2,6.1,3.9c1.7,1.7,3.2,3.7,4.1,6c1,2.2,1.5,4.7,1.5,7.1c0,2.5-0.4,4.9-1.3,7.2s-2.3,4.4-4,6.2s-3.8,3.3-6.1,4.3
				c-2.3,1-4.8,1.5-7.3,1.6L71.9,64.7L71.9,64.7z"/>
			<path class="st0" d="M71.9,61.1c1.8,0,3.6-0.3,5.3-0.9c1.7-0.6,3.2-1.6,4.5-2.9c1.3-1.3,2.4-2.8,3.1-4.4c0.7-1.7,1.1-3.5,1.2-5.4
				c0-1.8-0.3-3.7-1-5.5c-0.7-1.7-1.7-3.4-3-4.7c-1.3-1.4-2.9-2.5-4.6-3.2c-1.7-0.8-3.6-1.2-5.6-1.2c1.9,0,3.9,0.3,5.7,1
				c1.8,0.7,3.5,1.8,4.9,3.1s2.6,3,3.4,4.8s1.2,3.8,1.3,5.8c0,2-0.3,4-1,5.9s-1.8,3.6-3.2,5.1c-1.4,1.5-3.1,2.6-5,3.5
				c-1.9,0.8-3.9,1.3-6,1.3C71.9,63.4,71.9,61.1,71.9,61.1z"/>
			<path class="st0" d="M71.9,57.5c1.3,0,2.6-0.2,3.9-0.6c1.2-0.5,2.4-1.2,3.4-2.1c1-0.9,1.8-2,2.3-3.3c0.6-1.2,0.9-2.6,0.9-4
				s-0.2-2.8-0.7-4.1s-1.3-2.5-2.2-3.6c-1-1-2.1-1.9-3.5-2.5c-1.3-0.6-2.7-0.9-4.2-1c1.4,0,2.9,0.2,4.3,0.7s2.6,1.3,3.7,2.3
				s2,2.3,2.6,3.6c0.6,1.4,1,2.9,1,4.4s-0.2,3-0.8,4.5c-0.5,1.4-1.4,2.8-2.4,3.9c-1.1,1.1-2.4,2-3.8,2.7c-1.4,0.6-3,1-4.6,1
				L71.9,57.5L71.9,57.5z"/>
			<path class="st0" d="M71.9,53.8c1.7,0.1,3.4-0.5,4.7-1.7c1.3-1.2,2.1-2.9,2.2-4.7c0-0.9-0.1-1.8-0.4-2.7S77.6,43,77,42.3
				s-1.4-1.3-2.3-1.7s-1.8-0.6-2.8-0.7c1,0,2,0.1,2.9,0.4c0.9,0.3,1.8,0.9,2.5,1.5c0.7,0.7,1.4,1.5,1.8,2.4s0.7,1.9,0.7,3
				c0,1-0.1,2.1-0.5,3.1s-0.9,1.9-1.7,2.7c-0.7,0.8-1.6,1.4-2.6,1.9s-2.1,0.7-3.2,0.8v-1.9H71.9z"/>
			<path class="st0" d="M71.9,50.1c0.7,0.1,1.4-0.1,2-0.6s1-1.2,1.1-2s-0.2-1.7-0.7-2.4c-0.6-0.7-1.5-1.2-2.4-1.3
				c1-0.1,2,0.2,2.8,0.9s1.3,1.7,1.4,2.8s-0.3,2.3-1,3.2c-0.8,0.9-1.9,1.5-3.2,1.6C71.9,52.3,71.9,50.1,71.9,50.1z"/>
		</g>
		<g>
			
				<linearGradient id="SVGID_1_" gradientUnits="userSpaceOnUse" x1="92.9212" y1="51.1779" x2="37.2877" y2="83.2979" gradientTransform="matrix(1 0 0 -1 0 132)">
				<stop  offset="0" style="stop-color:#A51C30"/>
				<stop  offset="0.99" style="stop-color:#89216B"/>
			</linearGradient>
			<path class="st1" d="M41.8,105.3c11.3,8.3,27.3,7.3,37.5-2.9c7.8-7.8,10.5-19.1,7-29.5l-13-34.6l0,0c-0.9-4,0.3-8.2,3.2-11.1
				c3.2-3.2,7.8-4.2,11.9-3c-11.3-8.2-27.3-7.3-37.5,2.9c-7.7,7.7-10.4,19-7,29.5v0.1l13.3,34.6l0,0c0.8,4-0.4,8.1-3.3,11
				c-2.3,2.3-5.3,3.5-8.5,3.6C44.1,105.9,42.9,105.7,41.8,105.3z"/>
		</g>
	</g>
	<g>
		<g>
			<path class="st2" d="M145,41.5v6.3c-4.3-1.9-7.7-2.9-10.3-2.9c-1.5,0-2.6,0.2-3.5,0.7s-1.3,1.1-1.3,1.9c0,0.6,0.3,1.2,0.9,1.8
				c0.6,0.6,2.1,1.3,4.5,2.2s4.3,1.7,5.7,2.5s2.7,1.8,3.7,3.2s1.6,3.1,1.6,5.2c0,3-1.1,5.4-3.4,7.2c-2.3,1.8-5.3,2.7-9,2.7
				c-4,0-7.9-1-11.7-3.1v-7c2.2,1.5,4.1,2.5,5.7,3.2c1.6,0.7,3.4,1,5.3,1c3.2,0,4.8-1,4.8-3c0-0.7-0.3-1.3-1-1.9
				c-0.6-0.6-2.2-1.3-4.6-2.2c-2.4-0.9-4.3-1.7-5.7-2.4c-1.4-0.7-2.6-1.8-3.7-3.2c-1-1.4-1.5-3.1-1.5-5.3c0-2.8,1.1-5,3.4-6.7
				c2.2-1.7,5.2-2.6,9-2.6C137.5,39,141.2,39.8,145,41.5z"/>
			<path class="st2" d="M175.7,39.4h8.1v18.4c0,4.7-1.4,8.3-4.2,10.7c-2.8,2.4-6.8,3.7-12,3.7c-5.1,0-9.1-1.2-11.9-3.7
				s-4.3-6-4.3-10.7V39.4h8.1V58c0,2.3,0.7,4.1,2.2,5.4c1.5,1.4,3.4,2,5.8,2c2.5,0,4.5-0.7,6-2.1s2.2-3.4,2.2-5.9L175.7,39.4
				L175.7,39.4z"/>
			<path class="st2" d="M191.1,39.4h14.4c3.3,0,5.9,1,7.8,2.8c1.9,1.9,2.9,4.1,2.9,6.7c0,2.7-1,5-2.9,6.9s-4.5,2.9-7.8,2.9h-6.4v13
				H191V39.4H191.1z M199.2,45.3v7.5h3.8c3.4,0,5-1.3,5-3.8c0-1.4-0.4-2.4-1.3-2.9s-2.4-0.8-4.6-0.8H199.2z"/>
			<path class="st2" d="M221.9,39.4h14.5c3.1,0,5.7,0.9,7.6,2.7c2,1.8,2.9,4,2.9,6.6c0,3.6-1.9,6.2-5.6,7.9c1.6,0.7,3.2,2.7,4.6,6
				s2.9,6.3,4.2,9.2h-8.8c-0.5-1.1-1.4-3.1-2.8-6.1c-1.3-3-2.4-4.9-3.4-5.8c-0.9-0.8-1.9-1.3-3-1.3H230v13.1h-8.1V39.4z M230,45.3
				v7.4h4.3c1.4,0,2.4-0.3,3.2-1c0.8-0.6,1.2-1.6,1.2-2.7c0-2.4-1.5-3.7-4.6-3.7H230z"/>
			<path class="st2" d="M272.9,39.4l14.4,32.4h-8.7l-2.7-6.4h-14.5l-2.4,6.4h-8.5l13.1-32.4H272.9z M273.6,59.7l-5.2-12.6l-4.8,12.6
				C263.6,59.7,273.6,59.7,273.6,59.7z"/>
		</g>
		<g>
			<path class="st0" d="M131.5,79.6c3,0,5.4,0.9,7.4,2.8s2.9,4.2,2.9,7s-1,5.1-3,7s-4.5,2.8-7.5,2.8c-2.9,0-5.3-0.9-7.2-2.8
				s-2.9-4.2-2.9-6.9c0-2.9,1-5.2,2.9-7.1S128.6,79.6,131.5,79.6z M131.6,82.2c-2.2,0-4,0.7-5.4,2.1s-2.1,3.1-2.1,5.2
				s0.7,3.8,2.1,5.1s3.2,2.1,5.3,2.1c2.1,0,3.9-0.7,5.3-2.1c1.4-1.4,2.1-3.1,2.1-5.2c0-2-0.7-3.7-2.1-5.1
				C135.5,82.9,133.7,82.2,131.6,82.2z"/>
			<path class="st0" d="M153.2,99V79.9h4.8c1.9,0,3.5,0.5,4.6,1.4s1.7,2.3,1.7,3.9c0,1.1-0.3,2.1-0.8,2.9c-0.6,0.8-1.4,1.4-2.4,1.8
				c0.6,0.4,1.2,0.9,1.8,1.6s1.4,1.9,2.5,3.6c0.7,1.1,1.2,1.9,1.6,2.4l1,1.4h-3.3l-0.8-1.3c0,0-0.1-0.1-0.2-0.2l-0.5-0.8l-0.8-1.4
				l-0.9-1.5c-0.6-0.8-1.1-1.4-1.6-1.9s-0.9-0.8-1.3-1c-0.4-0.2-1-0.3-1.9-0.3H156V99H153.2z M156.7,82.2h-0.8v6h1
				c1.4,0,2.3-0.1,2.9-0.4c0.5-0.2,0.9-0.6,1.2-1.1s0.4-1,0.4-1.6s-0.2-1.1-0.5-1.6s-0.8-0.8-1.3-1C159,82.3,158,82.2,156.7,82.2z"
				/>
			<path class="st0" d="M184,79.8h1.9l8.6,19.2h-2.8l-2.5-5.7h-8.1l-2.4,5.7h-2.8L184,79.8z M188,90.9l-3.1-6.9l-2.9,6.9H188z"/>
			<path class="st0" d="M219.7,94.6v3c-2,1.1-4.3,1.6-6.9,1.6c-2.1,0-3.9-0.4-5.4-1.3s-2.7-2-3.5-3.5c-0.9-1.5-1.3-3.1-1.3-4.9
				c0-2.8,1-5.1,3-7s4.4-2.8,7.3-2.8c2,0,4.2,0.5,6.7,1.6v2.9c-2.2-1.3-4.4-1.9-6.5-1.9c-2.2,0-4,0.7-5.4,2.1s-2.2,3.1-2.2,5.2
				s0.7,3.8,2.1,5.2s3.2,2,5.5,2C215.3,96.7,217.5,96,219.7,94.6z"/>
			<path class="st0" d="M231,79.9h2.7v16.6h8.6V99H231V79.9z"/>
			<path class="st0" d="M252.6,79.9h10.8v2.4h-8.1v5.8h7.8v2.4h-7.8v5.9h8.4V99h-11.1L252.6,79.9L252.6,79.9z"/>
			<path class="st0" d="M279.2,91l-2.1-1.3c-1.3-0.8-2.2-1.6-2.8-2.3c-0.6-0.8-0.8-1.7-0.8-2.7c0-1.5,0.5-2.7,1.6-3.7
				c1-0.9,2.4-1.4,4.1-1.4c1.6,0,3.1,0.4,4.4,1.3V84c-1.4-1.3-2.9-2-4.4-2c-0.9,0-1.6,0.2-2.2,0.6s-0.9,0.9-0.9,1.6
				c0,0.6,0.2,1.1,0.6,1.6s1.1,1,2,1.6l2.1,1.2c2.3,1.4,3.5,3.2,3.5,5.3c0,1.5-0.5,2.8-1.5,3.7s-2.4,1.4-4,1.4
				c-1.9,0-3.6-0.6-5.2-1.7V94c1.5,1.9,3.2,2.8,5.1,2.8c0.9,0,1.6-0.2,2.1-0.7c0.6-0.5,0.9-1.1,0.9-1.8
				C281.7,93.1,280.8,92,279.2,91z"/>
		</g>
	</g>
</g>
</svg>
