<svg width="28" height="28" viewBox="0 0 28 28" fill="none" xmlns="http://www.w3.org/2000/svg">
<circle cx="14" cy="14" r="14" fill="black" fill-opacity="0.16"/>
<path d="M17.4997 6.31665H10.4997C8.56665 6.31665 6.99965 7.88334 6.99965 9.81595V16.8146C6.99965 18.7472 8.56665 20.3139 10.4997 20.3139H17.4997C19.4326 20.3139 20.9997 18.7472 20.9997 16.8146V9.81595C20.9997 7.88334 19.4326 6.31665 17.4997 6.31665Z" stroke="#99F8D0" stroke-linecap="round" stroke-linejoin="round"/>
<path d="M16.7988 12.8743C16.8852 13.4568 16.7857 14.0517 16.5145 14.5743C16.2433 15.097 15.8142 15.5208 15.2883 15.7855C14.7623 16.0503 14.1663 16.1424 13.5849 16.0489C13.0036 15.9553 12.4665 15.6808 12.0502 15.2645C11.6338 14.8481 11.3593 14.3111 11.2658 13.7297C11.1722 13.1484 11.2644 12.5523 11.5291 12.0264C11.7938 11.5004 12.2177 11.0713 12.7403 10.8001C13.263 10.5289 13.8578 10.4294 14.4403 10.5158C15.0344 10.6039 15.5845 10.8808 16.0092 11.3055C16.4339 11.7302 16.7107 12.2802 16.7988 12.8743Z" stroke="#99F8D0" stroke-linecap="round" stroke-linejoin="round"/>
<path d="M17.8499 9.46602H17.8596" stroke="#99F8D0" stroke-linecap="round" stroke-linejoin="round"/>
</svg>
