<svg width="28" height="28" viewBox="0 0 28 28" fill="none" xmlns="http://www.w3.org/2000/svg">
<circle cx="14" cy="14" r="14" fill="black" fill-opacity="0.16"/>
<path d="M16.7999 10.5158C17.9138 10.5158 18.9821 10.9582 19.7698 11.7457C20.5574 12.5332 20.9999 13.6013 20.9999 14.715V19.614H18.1999V14.715C18.1999 14.3437 18.0524 13.9877 17.7899 13.7252C17.5273 13.4627 17.1712 13.3152 16.7999 13.3152C16.4286 13.3152 16.0725 13.4627 15.81 13.7252C15.5474 13.9877 15.3999 14.3437 15.3999 14.715V19.614H12.5999V14.715C12.5999 13.6013 13.0424 12.5332 13.8301 11.7457C14.6177 10.9582 15.686 10.5158 16.7999 10.5158Z" stroke="#99F8D0" stroke-linecap="round" stroke-linejoin="round"/>
<path d="M9.79993 11.2157H6.99993V19.614H9.79993V11.2157Z" stroke="#99F8D0" stroke-linecap="round" stroke-linejoin="round"/>
<path d="M8.39937 9.11609C9.17241 9.11609 9.79909 8.48941 9.79909 7.71637C9.79909 6.94332 9.17241 6.31665 8.39937 6.31665C7.62633 6.31665 6.99965 6.94332 6.99965 7.71637C6.99965 8.48941 7.62633 9.11609 8.39937 9.11609Z" stroke="#99F8D0" stroke-linecap="round" stroke-linejoin="round"/>
</svg>
