<svg width="410" height="794" viewBox="0 0 410 794" fill="none" xmlns="http://www.w3.org/2000/svg">
<path d="M297.816 794H250.178V732.719C250.178 714.806 235.601 700.229 217.689 700.229H103.962C59.7856 700.229 23.8348 664.276 23.8348 620.098V619.495C23.8348 575.317 59.7856 539.364 103.962 539.364H329.638C347.55 539.364 362.127 524.786 362.127 506.874V485.404C362.127 467.491 347.55 452.913 329.638 452.913H270.758C226.582 452.913 190.631 416.961 190.631 372.783V353.298C190.631 335.386 176.054 320.808 158.142 320.808H80.1269C35.9507 320.808 0 284.855 0 240.677V240.074C0 195.896 35.9507 159.943 80.1269 159.943H232.695C250.607 159.943 265.184 145.366 265.184 127.453V0H312.822V127.437C312.822 171.615 276.871 207.568 232.695 207.568H80.1269C62.2151 207.568 47.6379 222.145 47.6379 240.058V240.661C47.6379 258.574 62.2151 273.152 80.1269 273.152H158.142C202.318 273.152 238.269 309.104 238.269 353.282V372.767C238.269 390.68 252.846 405.258 270.758 405.258H329.638C373.815 405.258 409.765 441.21 409.765 485.388V506.858C409.765 551.036 373.815 586.988 329.638 586.988H103.962C86.0499 586.988 71.4727 601.566 71.4727 619.479V620.082C71.4727 637.995 86.0499 652.573 103.962 652.573H217.689C261.865 652.573 297.816 688.525 297.816 732.703V793.984V794Z" fill="url(#paint0_linear_0_8)"/>
<defs>
<linearGradient id="paint0_linear_0_8" x1="233.5" y1="28.5" x2="437" y2="772.5" gradientUnits="userSpaceOnUse">
<stop stop-color="#6D6E71" stop-opacity="0"/>
<stop offset="0.246649" stop-color="white" stop-opacity="0.13"/>
<stop offset="0.510417" stop-color="#71D0BB" stop-opacity="0.54"/>
<stop offset="0.918727" stop-color="#5FFBD5" stop-opacity="0"/>
</linearGradient>
</defs>
</svg>
