<svg width="28" height="28" viewBox="0 0 28 28" fill="none" xmlns="http://www.w3.org/2000/svg">
<circle cx="14" cy="14" r="14" fill="black" fill-opacity="0.16"/>
<g clip-path="url(#clip0_1_2)">
<path d="M21.6999 7.01651C21.0296 7.48925 20.2874 7.85082 19.5019 8.08729C19.0803 7.60265 18.5201 7.25914 17.8969 7.10324C17.2736 6.94733 16.6176 6.98655 16.0174 7.21558C15.4172 7.44462 14.9018 7.85242 14.541 8.38383C14.1802 8.91525 13.9913 9.54464 13.9999 10.1869V10.8867C12.7698 10.9186 11.5508 10.6459 10.4516 10.0927C9.35245 9.53956 8.40715 8.72321 7.69993 7.71637C7.69993 7.71637 4.89993 14.0151 11.1999 16.8145C9.7583 17.7929 8.04094 18.2835 6.29993 18.2143C12.5999 21.7136 20.2999 18.2143 20.2999 10.1659C20.2993 9.97093 20.2805 9.77647 20.2439 9.58499C20.9583 8.88058 21.4625 7.99121 21.6999 7.01651V7.01651Z" stroke="#99F8D0" stroke-linecap="round" stroke-linejoin="round"/>
</g>
<defs>
<clipPath id="clip0_1_2">
<rect width="16.8" height="16.7966" fill="white" transform="translate(5.59993 4.91693)"/>
</clipPath>
</defs>
</svg>
