<svg width="1440" height="4752" viewBox="0 0 1440 4752" fill="none" xmlns="http://www.w3.org/2000/svg">
<g clip-path="url(#clip0_2530_3085)">
<g filter="url(#filter0_f_2530_3085)">
<ellipse cx="-76.499" cy="1223.47" rx="297.5" ry="764.517" fill="#4BBFF1" fill-opacity="0.43"/>
</g>
<g filter="url(#filter1_f_2530_3085)">
<circle cx="898.999" cy="491" r="301" fill="#34385B" fill-opacity="0.29"/>
</g>
<g filter="url(#filter2_f_2530_3085)">
<ellipse cx="28.5005" cy="3098" rx="613.5" ry="553" fill="#34385B" fill-opacity="0.6"/>
</g>
<g filter="url(#filter3_f_2530_3085)">
<ellipse cx="1292.46" cy="5040.94" rx="546.249" ry="492.381" transform="rotate(150 1292.46 5040.94)" fill="#34385B" fill-opacity="0.6"/>
</g>
<g filter="url(#filter4_f_2530_3085)">
<ellipse cx="1308.26" cy="1673.54" rx="546.249" ry="492.381" transform="rotate(150 1308.26 1673.54)" fill="#34385B" fill-opacity="0.6"/>
</g>
<g filter="url(#filter5_f_2530_3085)">
<ellipse cx="1319.5" cy="3458" rx="387.5" ry="360" fill="#4BBFF1" fill-opacity="0.43"/>
</g>
<g clip-path="url(#clip1_2530_3085)">
<g style="mix-blend-mode:color-dodge">
<g style="mix-blend-mode:color-dodge" opacity="0.36">
<g style="mix-blend-mode:color-dodge" opacity="0.36">
<path d="M634.373 1529.8L631.043 1527.33L633.756 1530.46L631.286 1533.77L634.417 1531.08L637.725 1533.55L635.012 1530.42L637.504 1527.11L634.373 1529.8Z" fill="white"/>
</g>
</g>
</g>
<g style="mix-blend-mode:color-dodge">
<path d="M316.781 1570.82L313.959 1568.7L316.274 1571.37L314.157 1574.22L316.825 1571.9L319.67 1574.02L317.355 1571.35L319.471 1568.5L316.781 1570.82Z" fill="#50BCF7"/>
</g>
<g style="mix-blend-mode:color-dodge">
<path d="M417.177 1484.33L413.869 1481.86L416.581 1484.97L414.09 1488.3L417.243 1485.59L420.55 1488.08L417.838 1484.93L420.308 1481.62L417.177 1484.33Z" fill="white"/>
</g>
<g style="mix-blend-mode:color-dodge" opacity="0.73">
<g style="mix-blend-mode:color-dodge" opacity="0.73">
<path d="M536.646 1488.9L532.015 1485.43L535.808 1489.82L532.346 1494.46L536.712 1490.68L541.342 1494.15L537.572 1489.76L541.034 1485.12L536.646 1488.9Z" fill="white"/>
</g>
</g>
<g style="mix-blend-mode:color-dodge" opacity="0.32">
<g style="mix-blend-mode:color-dodge" opacity="0.32">
<path d="M64.6133 1781.94L59.9827 1778.48L63.7534 1782.87L60.2915 1787.5L64.6795 1783.71L69.3101 1787.17L65.5395 1782.8L69.0013 1778.17L64.6133 1781.94Z" fill="white"/>
</g>
</g>
<g style="mix-blend-mode:color-dodge" opacity="0.36">
<g style="mix-blend-mode:color-dodge" opacity="0.36">
<path d="M70.1039 1926.55L66.7963 1924.08L69.4865 1927.21L67.0168 1930.52L70.148 1927.83L73.4556 1930.3L70.7654 1927.16L73.235 1923.86L70.1039 1926.55Z" fill="white"/>
</g>
</g>
<g style="mix-blend-mode:color-dodge">
<path d="M161.702 2026.91L160.048 2025.68L161.393 2027.25L160.158 2028.9L161.724 2027.55L163.377 2028.79L162.032 2027.22L163.267 2025.57L161.702 2026.91Z" fill="white"/>
</g>
<g style="mix-blend-mode:color-dodge" opacity="0.28">
<g style="mix-blend-mode:color-dodge" opacity="0.28">
<path d="M94.6463 1762.33L92.8166 1760.96L94.3156 1762.68L92.9488 1764.49L94.6683 1763.01L96.498 1764.38L94.999 1762.66L96.3658 1760.85L94.6463 1762.33Z" fill="white"/>
</g>
</g>
<g style="mix-blend-mode:color-dodge" opacity="0.32">
<g style="mix-blend-mode:color-dodge" opacity="0.32">
<path d="M196.96 1525.46L193.652 1522.96L196.342 1526.1L193.873 1529.43L197.004 1526.71L200.311 1529.19L197.621 1526.05L200.091 1522.74L196.96 1525.46Z" fill="white"/>
</g>
</g>
<g style="mix-blend-mode:color-dodge">
<path d="M43.3346 1679.81L40.0271 1677.32L42.7393 1680.45L40.2476 1683.78L43.3787 1681.07L46.6863 1683.54L43.9961 1680.41L46.4658 1677.1L43.3346 1679.81Z" fill="white"/>
</g>
<g style="mix-blend-mode:color-dodge">
<path d="M428.092 1737.82L426.284 1736.45L427.761 1738.17L426.395 1739.98L428.114 1738.5L429.944 1739.87L428.467 1738.15L429.812 1736.32L428.092 1737.82Z" fill="white"/>
</g>
<g style="mix-blend-mode:color-dodge">
<path d="M447.893 1641.55L444.563 1639.08L447.276 1642.19L444.806 1645.53L447.937 1642.81L451.245 1645.28L448.532 1642.15L451.024 1638.84L447.893 1641.55Z" fill="white"/>
</g>
<g style="mix-blend-mode:color-dodge" opacity="0.28">
<g style="mix-blend-mode:color-dodge" opacity="0.28">
<path d="M151.426 1461.94L148.118 1459.46L150.808 1462.6L148.339 1465.91L151.47 1463.19L154.777 1465.69L152.087 1462.55L154.557 1459.24L151.426 1461.94Z" fill="white"/>
</g>
</g>
<g style="mix-blend-mode:color-dodge">
<path d="M181.855 1677.87L178.636 1675.49L181.26 1678.51L178.856 1681.73L181.899 1679.11L185.119 1681.51L182.495 1678.47L184.876 1675.27L181.855 1677.87Z" fill="#50BCF7"/>
</g>
<g style="mix-blend-mode:color-dodge">
<path d="M73.0811 1563.16L71.2514 1561.82L72.7284 1563.54L71.3837 1565.35L73.1032 1563.87L74.9109 1565.24L73.4338 1563.52L74.8006 1561.69L73.0811 1563.16Z" fill="white"/>
</g>
<g style="mix-blend-mode:color-dodge">
<path d="M256.584 1799.51L254.401 1797.87L256.187 1799.93L254.555 1802.13L256.606 1800.34L258.789 1801.95L257.003 1799.9L258.657 1797.72L256.584 1799.51Z" fill="white"/>
</g>
<g style="mix-blend-mode:color-dodge">
<path d="M261.214 1439.59L256.584 1436.12L260.354 1440.49L256.893 1445.15L261.258 1441.35L265.911 1444.81L262.118 1440.42L265.58 1435.79L261.214 1439.59Z" fill="#50BCF7"/>
</g>
<g style="mix-blend-mode:color-dodge">
<path d="M33.5002 2079.84L30.1926 2077.37L32.8828 2080.48L30.4131 2083.81L33.5443 2081.1L36.8518 2083.57L34.1617 2080.44L36.6313 2077.13L33.5002 2079.84Z" fill="#50BCF7"/>
</g>
<g style="mix-blend-mode:color-dodge">
<path d="M310.298 1700.15L306.55 1697.33L309.615 1700.9L306.792 1704.66L310.365 1701.59L314.135 1704.41L311.048 1700.84L313.871 1697.07L310.298 1700.15Z" fill="white"/>
</g>
<g style="mix-blend-mode:color-dodge">
<path d="M445.115 1339.88L443.307 1338.51L444.784 1340.23L443.418 1342.07L445.137 1340.57L446.967 1341.93L445.468 1340.21L446.834 1338.4L445.115 1339.88Z" fill="white"/>
</g>
<g style="mix-blend-mode:color-dodge" opacity="0.28">
<g style="mix-blend-mode:color-dodge" opacity="0.28">
<path d="M348.38 1304.84L345.072 1302.35L347.762 1305.48L345.292 1308.79L348.424 1306.1L351.731 1308.57L349.041 1305.44L351.511 1302.13L348.38 1304.84Z" fill="white"/>
</g>
</g>
<g style="mix-blend-mode:color-dodge">
<path d="M491.773 1351.55L488.488 1349.08L491.156 1352.19L488.708 1355.5L491.817 1352.81L495.125 1355.26L492.435 1352.15L494.882 1348.86L491.773 1351.55Z" fill="white"/>
</g>
<g style="mix-blend-mode:color-dodge" opacity="0.28">
<g style="mix-blend-mode:color-dodge" opacity="0.28">
<path d="M24.6358 2219.73L23.4892 2212.47L22.8497 2219.79L15.6172 2220.94L22.9159 2221.58L24.0845 2228.82L24.702 2221.51L31.9565 2220.37L24.6358 2219.73Z" fill="white"/>
</g>
<g style="mix-blend-mode:color-dodge" opacity="0.28">
<path d="M23.7099 2218.69L13.4344 2211.01L21.8135 2220.72L14.14 2231L23.8422 2222.62L34.1396 2230.29L25.7385 2220.56L33.4341 2210.28L23.7099 2218.69Z" fill="white"/>
</g>
</g>
<g style="mix-blend-mode:color-dodge" opacity="0.28">
<g style="mix-blend-mode:color-dodge" opacity="0.28">
<path d="M220.818 1750.39L217.511 1747.92L220.201 1751.05L217.731 1754.36L220.862 1751.67L224.17 1754.14L221.48 1751.01L223.949 1747.7L220.818 1750.39Z" fill="white"/>
</g>
</g>
<g style="mix-blend-mode:color-dodge">
<path d="M442.954 1133.61L439.646 1131.14L442.336 1134.27L439.866 1137.58L442.998 1134.89L446.305 1137.36L443.615 1134.23L446.085 1130.92L442.954 1133.61Z" fill="white"/>
</g>
<g style="mix-blend-mode:color-dodge">
<path d="M592.985 1233.54L591.331 1232.3L592.676 1233.87L591.442 1235.52L593.007 1234.18L594.66 1235.41L593.315 1233.84L594.55 1232.17L592.985 1233.54Z" fill="white"/>
</g>
<g style="mix-blend-mode:color-dodge" opacity="0.47">
<path d="M717.326 1171.21L714.107 1168.8L716.731 1171.85L714.328 1175.05L717.371 1172.42L720.568 1174.82L717.944 1171.8L720.347 1168.58L717.326 1171.21Z" fill="white"/>
</g>
<g style="mix-blend-mode:color-dodge" opacity="0.28">
<g style="mix-blend-mode:color-dodge" opacity="0.28">
<path d="M523.658 1146.3L522.511 1139.04L521.872 1146.36L514.617 1147.51L521.938 1148.15L523.085 1155.39L523.724 1148.08L530.957 1146.94L523.658 1146.3Z" fill="white"/>
</g>
</g>
<g style="mix-blend-mode:color-dodge" opacity="0.28">
<g style="mix-blend-mode:color-dodge" opacity="0.28">
<path d="M246.639 2145L245.492 2137.74L244.853 2145.06L237.62 2146.21L244.919 2146.83L246.066 2154.09L246.705 2146.78L253.938 2145.64L246.639 2145Z" fill="white"/>
</g>
</g>
<g style="mix-blend-mode:color-dodge">
<path d="M740.193 1345.46L737.348 1343.34L739.663 1346.01L737.546 1348.86L740.237 1346.54L743.059 1348.66L740.744 1345.99L742.861 1343.15L740.193 1345.46Z" fill="white"/>
</g>
<g style="mix-blend-mode:color-dodge" opacity="0.32">
<g style="mix-blend-mode:color-dodge" opacity="0.32">
<path d="M589.478 1363.4L584.848 1359.94L588.64 1364.31L585.178 1368.94L589.544 1365.17L594.175 1368.63L590.404 1364.24L593.866 1359.61L589.478 1363.4Z" fill="white"/>
</g>
</g>
<g style="mix-blend-mode:color-dodge" opacity="0.28">
<g style="mix-blend-mode:color-dodge" opacity="0.28">
<path d="M619.511 1343.76L617.704 1342.4L619.181 1344.12L617.836 1345.95L619.556 1344.47L621.363 1345.82L619.886 1344.1L621.231 1342.29L619.511 1343.76Z" fill="white"/>
</g>
</g>
<g style="mix-blend-mode:color-dodge">
<path d="M706.72 1259.33L703.523 1256.92L706.147 1259.95L703.743 1263.17L706.764 1260.54L709.984 1262.95L707.36 1259.92L709.763 1256.7L706.72 1259.33Z" fill="white"/>
</g>
<g style="mix-blend-mode:color-dodge">
<path d="M623.061 1100.69L619.753 1098.22L622.444 1101.35L619.974 1104.66L623.105 1101.97L626.413 1104.44L623.722 1101.31L626.192 1098L623.061 1100.69Z" fill="white"/>
</g>
<g style="mix-blend-mode:color-dodge" opacity="0.41">
<g style="mix-blend-mode:color-dodge" opacity="0.41">
<path d="M835.186 1281.59L831.415 1278.79L834.48 1282.34L831.68 1286.11L835.23 1283.05L839 1285.85L835.935 1282.3L838.736 1278.52L835.186 1281.59Z" fill="white"/>
</g>
</g>
</g>
<g clip-path="url(#clip2_2530_3085)">
<g style="mix-blend-mode:color-dodge">
<g style="mix-blend-mode:color-dodge" opacity="0.36">
<g style="mix-blend-mode:color-dodge" opacity="0.36">
<path d="M457.249 78.5145L453.775 78.1151L457.077 79.2581L456.668 82.7156L457.821 79.43L461.279 79.8387L457.977 78.6957L458.402 75.2289L457.249 78.5145Z" fill="white"/>
</g>
</g>
</g>
<g style="mix-blend-mode:color-dodge">
<g style="mix-blend-mode:color-dodge">
<path d="M56.831 586.605L55.3025 584.739L56.3249 586.919L54.4488 588.431L56.6385 587.425L58.1577 589.275L57.1354 587.095L59.0115 585.582L56.831 586.605Z" fill="white"/>
</g>
<g style="mix-blend-mode:color-dodge">
<path d="M56.5919 586.786L52.6903 586.204L56.5058 587.158L55.5854 591.962L56.8683 587.227L61.5558 588.129L56.9637 586.872L57.7139 582.702L56.5919 586.786Z" fill="white"/>
</g>
</g>
<g style="mix-blend-mode:color-dodge">
<path d="M242.509 242.415L239.554 242.06L242.371 243.032L242.024 246.002L242.997 243.186L245.968 243.532L243.151 242.56L243.498 239.589L242.509 242.415Z" fill="#50BCF7"/>
</g>
<g style="mix-blend-mode:color-dodge" opacity="0.28">
<g style="mix-blend-mode:color-dodge" opacity="0.28">
<path d="M17.412 458.357L12.5691 457.782L17.1811 459.371L16.6046 464.213L18.2042 459.618L23.0471 460.193L18.442 458.579L19.0185 453.736L17.412 458.357Z" fill="white"/>
</g>
</g>
<g style="mix-blend-mode:color-dodge">
<path d="M279.405 136.934L275.948 136.526L279.24 137.653L278.824 141.136L279.984 137.825L283.451 138.249L280.14 137.09L280.549 133.633L279.405 136.934Z" fill="white"/>
</g>
<g style="mix-blend-mode:color-dodge" opacity="0.73">
<g style="mix-blend-mode:color-dodge" opacity="0.73">
<path d="M368.612 89.8763L363.769 89.3009L368.39 90.9062L367.814 95.7486L369.413 91.1529L374.256 91.7284L369.651 90.1138L370.228 85.2714L368.612 89.8763Z" fill="white"/>
</g>
</g>
<g style="mix-blend-mode:color-dodge" opacity="0.32">
<g style="mix-blend-mode:color-dodge" opacity="0.32">
<path d="M147.258 502.894L142.415 502.319L147.02 503.934L146.444 508.776L148.05 504.155L152.893 504.73L148.297 503.132L148.874 498.289L147.258 502.894Z" fill="white"/>
</g>
</g>
<g style="mix-blend-mode:color-dodge" opacity="0.36">
<g style="mix-blend-mode:color-dodge" opacity="0.36">
<path d="M212.212 606.134L208.754 605.726L212.04 606.878L211.63 610.335L212.783 607.05L216.241 607.459L212.955 606.306L213.365 602.849L212.212 606.134Z" fill="white"/>
</g>
</g>
<g style="mix-blend-mode:color-dodge">
<path d="M321.43 640.763L319.701 640.559L321.344 641.135L321.139 642.864L321.716 641.221L323.445 641.425L321.802 640.849L322.007 639.12L321.43 640.763Z" fill="white"/>
</g>
<g style="mix-blend-mode:color-dodge" opacity="0.28">
<g style="mix-blend-mode:color-dodge" opacity="0.28">
<path d="M160.933 475.909L159.019 475.682L160.84 476.306L160.603 478.203L161.237 476.399L163.151 476.625L161.33 476.001L161.566 474.104L160.933 475.909Z" fill="white"/>
</g>
</g>
<g style="mix-blend-mode:color-dodge" opacity="0.32">
<g style="mix-blend-mode:color-dodge" opacity="0.32">
<path d="M135.852 259.843L132.385 259.418L135.67 260.571L135.27 264.044L136.414 260.743L139.872 261.151L136.586 259.999L136.996 256.541L135.852 259.843Z" fill="white"/>
</g>
</g>
<g style="mix-blend-mode:color-dodge">
<path d="M88.6691 437.317L85.202 436.892L88.5038 438.035L88.0875 441.518L89.2313 438.216L92.6892 438.625L89.4035 437.473L89.8129 434.015L88.6691 437.317Z" fill="white"/>
</g>
<g style="mix-blend-mode:color-dodge">
<path d="M394.211 317.367L392.313 317.132L394.118 317.765L393.882 319.662L394.515 317.857L396.429 318.084L394.624 317.451L394.835 315.547L394.211 317.367Z" fill="white"/>
</g>
<g style="mix-blend-mode:color-dodge">
<path d="M368.108 238.747L364.634 238.347L367.926 239.474L367.526 242.948L368.67 239.646L372.128 240.055L368.826 238.912L369.251 235.445L368.108 238.747Z" fill="white"/>
</g>
<g style="mix-blend-mode:color-dodge" opacity="0.28">
<g style="mix-blend-mode:color-dodge" opacity="0.28">
<path d="M75.8148 232.681L72.3569 232.273L75.6427 233.425L75.2332 236.882L76.3771 233.581L79.8443 234.005L76.5585 232.853L76.968 229.396L75.8148 232.681Z" fill="white"/>
</g>
</g>
<g style="mix-blend-mode:color-dodge">
<path d="M189.051 377.472L185.695 377.09L188.886 378.19L188.487 381.555L189.604 378.355L192.97 378.753L189.769 377.637L190.161 374.297L189.051 377.472Z" fill="#50BCF7"/>
</g>
<g style="mix-blend-mode:color-dodge">
<path d="M61.2394 339.62L59.3351 339.409L61.1397 340.042L60.9195 341.93L61.5531 340.126L63.4506 340.362L61.6459 339.729L61.873 337.815L61.2394 339.62Z" fill="white"/>
</g>
<g style="mix-blend-mode:color-dodge">
<path d="M294.909 434.741L292.627 434.47L294.796 435.214L294.534 437.513L295.279 435.344L297.553 435.599L295.383 434.854L295.671 432.562L294.909 434.741Z" fill="white"/>
</g>
<g style="mix-blend-mode:color-dodge">
<path d="M146.605 170.057L141.762 169.482L146.358 171.08L145.791 175.939L147.381 171.327L152.24 171.893L147.619 170.288L148.195 165.445L146.605 170.057Z" fill="#50BCF7"/>
</g>
<g style="mix-blend-mode:color-dodge">
<path d="M250.076 733.475L246.618 733.067L249.895 734.203L249.495 737.677L250.639 734.375L254.096 734.784L250.811 733.631L251.22 730.174L250.076 733.475Z" fill="#50BCF7"/>
</g>
<g style="mix-blend-mode:color-dodge">
<path d="M292.281 339.561L288.352 339.08L292.098 340.397L291.616 344.325L292.934 340.58L296.879 341.051L293.117 339.744L293.589 335.799L292.281 339.561Z" fill="white"/>
</g>
<g style="mix-blend-mode:color-dodge">
<path d="M238.939 19.7071L237.041 19.4712L238.846 20.1043L238.619 22.0177L239.243 20.1971L241.157 20.4236L239.336 19.7999L239.572 17.9025L238.939 19.7071Z" fill="white"/>
</g>
<g style="mix-blend-mode:color-dodge" opacity="0.28">
<g style="mix-blend-mode:color-dodge" opacity="0.28">
<path d="M153.5 34.9342L150.033 34.5094L153.318 35.6616L152.909 39.1192L154.062 35.8336L157.52 36.2423L154.234 35.09L154.644 31.6325L153.5 34.9342Z" fill="white"/>
</g>
</g>
<g style="mix-blend-mode:color-dodge">
<path d="M277.945 8.5462L274.503 8.12822L277.764 9.2737L277.37 12.7219L278.507 9.44563L281.956 9.83819L278.68 8.70206L279.082 5.26989L277.945 8.5462Z" fill="white"/>
</g>
<g style="mix-blend-mode:color-dodge" opacity="0.28">
<g style="mix-blend-mode:color-dodge" opacity="0.28">
<path d="M302.553 839.324L298.656 834.509L301.276 840.126L296.476 844.014L302.078 841.402L305.982 846.192L303.355 840.601L308.171 836.703L302.553 839.324Z" fill="white"/>
</g>
<g style="mix-blend-mode:color-dodge" opacity="0.28">
<path d="M301.44 838.958L290.697 837.687L300.91 841.239L299.637 851.981L303.191 841.769L313.95 843.03L303.712 839.471L305.001 828.72L301.44 838.958Z" fill="white"/>
</g>
</g>
<g style="mix-blend-mode:color-dodge" opacity="0.28">
<g style="mix-blend-mode:color-dodge" opacity="0.28">
<path d="M248.081 413.976L244.623 413.567L247.909 414.72L247.5 418.177L248.653 414.891L252.111 415.3L248.825 414.148L249.234 410.69L248.081 413.976Z" fill="white"/>
</g>
</g>
<g style="mix-blend-mode:color-dodge" opacity="0.41">
<g style="mix-blend-mode:color-dodge" opacity="0.41">
<path d="M165 755.73L163.112 755.51L164.917 756.143L164.697 758.031L165.314 756.236L167.218 756.447L165.414 755.814L165.634 753.925L165 755.73Z" fill="white"/>
</g>
</g>
<g style="mix-blend-mode:color-dodge" opacity="0.28">
<g style="mix-blend-mode:color-dodge" opacity="0.28">
<path d="M433.25 691.133L429.353 686.318L431.973 691.935L427.173 695.823L432.765 693.195L436.662 698.01L434.052 692.41L438.852 688.522L433.25 691.133Z" fill="white"/>
</g>
</g>
<g filter="url(#filter6_d_2530_3085)">
<circle cx="123.474" cy="236.07" r="9" transform="rotate(15 123.474 236.07)" fill="#2BADF5"/>
</g>
<circle cx="122.031" cy="231.025" r="2.7" transform="rotate(15 122.031 231.025)" fill="#61C1F7"/>
</g>
<g clip-path="url(#clip3_2530_3085)">
<g style="mix-blend-mode:color-dodge">
<g style="mix-blend-mode:color-dodge" opacity="0.36">
<g style="mix-blend-mode:color-dodge" opacity="0.36">
<path d="M1066.78 3970.41L1071.16 3973.66L1067.59 3969.54L1070.84 3965.19L1066.72 3968.73L1062.37 3965.48L1065.94 3969.6L1062.66 3973.95L1066.78 3970.41Z" fill="white"/>
</g>
</g>
</g>
<g style="mix-blend-mode:color-dodge">
<path d="M1352.52 4030.18L1356.87 4033.43L1353.3 4029.34L1356.58 4024.96L1352.43 4028.53L1348.08 4025.25L1351.65 4029.4L1348.4 4033.75L1352.52 4030.18Z" fill="white"/>
</g>
<g style="mix-blend-mode:color-dodge" opacity="0.73">
<g style="mix-blend-mode:color-dodge" opacity="0.73">
<path d="M1195.35 4024.18L1201.44 4028.73L1196.45 4022.96L1201.01 4016.87L1195.26 4021.83L1189.17 4017.28L1194.13 4023.05L1189.58 4029.14L1195.35 4024.18Z" fill="white"/>
</g>
</g>
<g style="mix-blend-mode:color-dodge">
<path d="M1338.16 3696.98L1340.54 3698.78L1338.59 3696.52L1340.39 3694.14L1338.13 3696.08L1335.72 3694.28L1337.67 3696.55L1335.9 3698.95L1338.16 3696.98Z" fill="white"/>
</g>
<g style="mix-blend-mode:color-dodge">
<path d="M1312.11 3823.52L1316.49 3826.76L1312.92 3822.68L1316.17 3818.3L1312.05 3821.86L1307.7 3818.61L1311.27 3822.73L1307.99 3827.08L1312.11 3823.52Z" fill="white"/>
</g>
<g style="mix-blend-mode:color-dodge">
<path d="M1315.76 4220.06L1318.14 4221.85L1316.2 4219.59L1318 4217.18L1315.74 4219.16L1313.33 4217.36L1315.3 4219.62L1313.5 4222L1315.76 4220.06Z" fill="white"/>
</g>
<g style="mix-blend-mode:color-dodge" opacity="0.28">
<g style="mix-blend-mode:color-dodge" opacity="0.28">
<path d="M1443.03 4266.11L1447.38 4269.39L1443.84 4265.27L1447.09 4260.92L1442.97 4264.46L1438.62 4261.21L1442.16 4265.33L1438.91 4269.68L1443.03 4266.11Z" fill="white"/>
</g>
</g>
<g style="mix-blend-mode:color-dodge">
<path d="M1254.38 4204.71L1258.7 4207.96L1255.19 4203.87L1258.41 4199.52L1254.32 4203.06L1249.97 4199.84L1253.51 4203.93L1250.29 4208.25L1254.38 4204.71Z" fill="white"/>
</g>
<g style="mix-blend-mode:color-dodge">
<path d="M1318.61 4491.19L1322.96 4494.44L1319.42 4490.32L1322.67 4485.97L1318.55 4489.51L1314.2 4486.26L1317.74 4490.38L1314.49 4494.73L1318.61 4491.19Z" fill="white"/>
</g>
<g style="mix-blend-mode:color-dodge">
<path d="M1121.23 4359.84L1123.41 4361.47L1121.64 4359.41L1123.26 4357.23L1121.2 4359L1119.03 4357.38L1120.8 4359.44L1119.17 4361.64L1121.23 4359.84Z" fill="white"/>
</g>
<g style="mix-blend-mode:color-dodge" opacity="0.47">
<path d="M957.651 4441.77L961.887 4444.93L958.435 4440.93L961.596 4436.73L957.593 4440.18L953.387 4437.02L956.839 4440.99L953.677 4445.22L957.651 4441.77Z" fill="white"/>
</g>
<g style="mix-blend-mode:color-dodge" opacity="0.28">
<g style="mix-blend-mode:color-dodge" opacity="0.28">
<path d="M1212.44 4474.52L1213.94 4484.06L1214.79 4474.43L1224.33 4472.92L1214.7 4472.08L1213.19 4462.57L1212.35 4472.17L1202.83 4473.67L1212.44 4474.52Z" fill="white"/>
</g>
</g>
<g style="mix-blend-mode:color-dodge">
<path d="M927.569 4212.72L931.311 4215.5L928.265 4211.99L931.05 4208.25L927.511 4211.3L923.798 4208.51L926.844 4212.02L924.059 4215.76L927.569 4212.72Z" fill="white"/>
</g>
<g style="mix-blend-mode:color-dodge" opacity="0.32">
<g style="mix-blend-mode:color-dodge" opacity="0.32">
<path d="M1125.84 4189.14L1131.94 4193.69L1126.95 4187.95L1131.5 4181.86L1125.76 4186.82L1119.67 4182.27L1124.63 4188.04L1120.07 4194.13L1125.84 4189.14Z" fill="white"/>
</g>
</g>
<g style="mix-blend-mode:color-dodge" opacity="0.28">
<g style="mix-blend-mode:color-dodge" opacity="0.28">
<path d="M1086.33 4214.95L1088.71 4216.75L1086.77 4214.49L1088.54 4212.08L1086.28 4214.02L1083.9 4212.25L1085.84 4214.52L1084.07 4216.89L1086.33 4214.95Z" fill="white"/>
</g>
</g>
<g style="mix-blend-mode:color-dodge">
<path d="M971.604 4325.94L975.811 4329.1L972.359 4325.13L975.521 4320.89L971.546 4324.35L967.311 4321.18L970.763 4325.16L967.601 4329.39L971.604 4325.94Z" fill="white"/>
</g>
<g style="mix-blend-mode:color-dodge">
<path d="M1081.66 4534.46L1086.02 4537.71L1082.48 4533.59L1085.72 4529.24L1081.61 4532.78L1077.25 4529.53L1080.79 4533.65L1077.54 4538L1081.66 4534.46Z" fill="white"/>
</g>
<g style="mix-blend-mode:color-dodge" opacity="0.41">
<g style="mix-blend-mode:color-dodge" opacity="0.41">
<path d="M802.599 4296.68L807.56 4300.36L803.527 4295.69L807.211 4290.73L802.541 4294.76L797.581 4291.08L801.613 4295.75L797.929 4300.71L802.599 4296.68Z" fill="white"/>
</g>
</g>
</g>
<g clip-path="url(#clip4_2530_3085)">
<g style="mix-blend-mode:color-dodge">
<g style="mix-blend-mode:color-dodge" opacity="0.36">
<g style="mix-blend-mode:color-dodge" opacity="0.36">
<path d="M387.828 3171.15L382.41 3170.53L387.559 3172.31L386.921 3177.7L388.719 3172.58L394.111 3173.21L388.962 3171.43L389.626 3166.03L387.828 3171.15Z" fill="white"/>
</g>
</g>
</g>
<g style="mix-blend-mode:color-dodge">
<path d="M52.947 3426.75L48.3393 3426.19L52.7317 3427.71L52.1906 3432.34L53.7078 3427.95L58.3407 3428.49L53.9482 3426.97L54.4894 3422.34L52.947 3426.75Z" fill="#50BCF7"/>
</g>
<g style="mix-blend-mode:color-dodge">
<path d="M110.486 3262.25L105.094 3261.62L110.228 3263.37L109.579 3268.8L111.388 3263.64L116.795 3264.3L111.631 3262.5L112.27 3257.1L110.486 3262.25Z" fill="white"/>
</g>
<g style="mix-blend-mode:color-dodge" opacity="0.73">
<g style="mix-blend-mode:color-dodge" opacity="0.73">
<path d="M249.601 3188.87L242.048 3187.97L249.255 3190.47L248.356 3198.02L250.851 3190.86L258.403 3191.76L251.221 3189.24L252.12 3181.69L249.601 3188.87Z" fill="white"/>
</g>
</g>
<g style="mix-blend-mode:color-dodge" opacity="0.36">
<g style="mix-blend-mode:color-dodge" opacity="0.36">
<path d="M5.69986 3993.96L0.307424 3993.32L5.43147 3995.11L4.7929 4000.51L6.59121 3995.38L11.9837 3996.02L6.8596 3994.22L7.49817 3988.83L5.69986 3993.96Z" fill="white"/>
</g>
</g>
<g style="mix-blend-mode:color-dodge">
<path d="M176.022 4047.96L173.326 4047.64L175.888 4048.54L175.569 4051.23L176.468 4048.67L179.164 4048.99L176.602 4048.09L176.922 4045.4L176.022 4047.96Z" fill="white"/>
</g>
<g style="mix-blend-mode:color-dodge">
<path d="M289.522 3543.63L286.563 3543.27L289.377 3544.25L289.008 3547.21L289.996 3544.4L292.98 3544.75L290.166 3543.76L290.495 3540.79L289.522 3543.63Z" fill="white"/>
</g>
<g style="mix-blend-mode:color-dodge">
<path d="M248.814 3421.03L243.397 3420.4L248.531 3422.16L247.907 3427.58L249.691 3422.43L255.083 3423.07L249.934 3421.28L250.598 3415.88L248.814 3421.03Z" fill="white"/>
</g>
<g style="mix-blend-mode:color-dodge">
<path d="M134.664 3726.67L131.104 3726.25L134.487 3727.41L134.078 3731L135.24 3727.61L138.786 3728.01L135.402 3726.85L135.851 3723.28L134.664 3726.67Z" fill="white"/>
</g>
<g style="mix-blend-mode:color-dodge">
<path d="M64.7485 4192.54L59.3561 4191.9L64.4656 4193.67L63.8415 4199.09L65.6253 4193.94L71.0177 4194.58L65.8937 4192.78L66.5323 4187.39L64.7485 4192.54Z" fill="#50BCF7"/>
</g>
<g style="mix-blend-mode:color-dodge">
<path d="M130.565 3578.24L124.438 3577.49L130.279 3579.55L129.529 3585.67L131.583 3579.83L137.735 3580.57L131.869 3578.53L132.605 3572.38L130.565 3578.24Z" fill="white"/>
</g>
<g style="mix-blend-mode:color-dodge">
<path d="M47.3794 3079.44L44.4203 3079.07L47.2346 3080.06L46.8806 3083.04L47.8541 3080.2L50.8383 3080.56L47.9989 3079.59L48.3674 3076.63L47.3794 3079.44Z" fill="white"/>
</g>
<g style="mix-blend-mode:color-dodge">
<path d="M108.209 3062.04L102.842 3061.38L107.926 3063.17L107.313 3068.55L109.086 3063.44L114.464 3064.05L109.354 3062.28L109.982 3056.93L108.209 3062.04Z" fill="white"/>
</g>
<g style="mix-blend-mode:color-dodge" opacity="0.28">
<g style="mix-blend-mode:color-dodge" opacity="0.28">
<path d="M146.584 4357.61L140.507 4350.1L144.593 4358.86L137.107 4364.92L145.843 4360.85L151.931 4368.32L147.834 4359.6L155.346 4353.52L146.584 4357.61Z" fill="white"/>
</g>
<g style="mix-blend-mode:color-dodge" opacity="0.28">
<path d="M144.848 4357.04L128.094 4355.05L144.021 4360.59L142.036 4377.35L147.58 4361.42L164.358 4363.39L148.392 4357.84L150.402 4341.07L144.848 4357.04Z" fill="white"/>
</g>
</g>
<g style="mix-blend-mode:color-dodge" opacity="0.28">
<g style="mix-blend-mode:color-dodge" opacity="0.28">
<path d="M61.6366 3694.29L56.2442 3693.65L61.3682 3695.45L60.7297 3700.84L62.528 3695.72L67.9204 3696.36L62.7964 3694.56L63.4349 3689.17L61.6366 3694.29Z" fill="white"/>
</g>
</g>
<g style="mix-blend-mode:color-dodge">
<path d="M145.956 2861.11L143.26 2860.8L145.822 2861.69L145.503 2864.39L146.402 2861.83L149.098 2862.15L146.536 2861.25L146.841 2858.53L145.956 2861.11Z" fill="white"/>
</g>
<g style="mix-blend-mode:color-dodge" opacity="0.47">
<path d="M246.656 2708.37L241.408 2707.75L246.398 2709.49L245.763 2714.71L247.504 2709.72L252.727 2710.36L247.751 2708.64L248.372 2703.39L246.656 2708.37Z" fill="white"/>
</g>
<g style="mix-blend-mode:color-dodge" opacity="0.28">
<g style="mix-blend-mode:color-dodge" opacity="0.28">
<path d="M9.63498 2807.41L3.55782 2799.9L7.64354 2808.66L0.132366 2814.73L8.8935 2810.65L14.9561 2818.13L10.8849 2809.4L18.371 2803.33L9.63498 2807.41Z" fill="white"/>
</g>
</g>
<g style="mix-blend-mode:color-dodge" opacity="0.28">
<g style="mix-blend-mode:color-dodge" opacity="0.28">
<path d="M350.402 4126.51L344.325 4119L348.411 4127.76L340.925 4133.82L349.646 4129.72L355.723 4137.23L351.652 4128.5L359.138 4122.44L350.402 4126.51Z" fill="white"/>
</g>
</g>
<g style="mix-blend-mode:color-dodge">
<path d="M387.235 2891.7L382.602 2891.16L386.995 2892.67L386.454 2897.31L387.996 2892.9L392.604 2893.45L388.211 2891.94L388.753 2887.3L387.235 2891.7Z" fill="white"/>
</g>
<g style="mix-blend-mode:color-dodge" opacity="0.32">
<g style="mix-blend-mode:color-dodge" opacity="0.32">
<path d="M227.313 3011.25L219.761 3010.36L226.953 3012.83L226.054 3020.39L228.549 3013.22L236.101 3014.12L228.919 3011.6L229.818 3004.05L227.313 3011.25Z" fill="white"/>
</g>
</g>
<g style="mix-blend-mode:color-dodge" opacity="0.28">
<g style="mix-blend-mode:color-dodge" opacity="0.28">
<path d="M248.624 2969.15L245.665 2968.78L248.479 2969.76L248.15 2972.73L249.138 2969.92L252.083 2970.26L249.269 2969.28L249.612 2966.33L248.624 2969.15Z" fill="white"/>
</g>
</g>
<g style="mix-blend-mode:color-dodge">
<path d="M292.488 2815.66L287.265 2815.03L292.241 2816.74L291.62 2821.99L293.336 2817.01L298.585 2817.63L293.609 2815.92L294.23 2810.67L292.488 2815.66Z" fill="white"/>
</g>
<g style="mix-blend-mode:color-dodge">
<path d="M92.9133 2690.11L87.5209 2689.47L92.6449 2691.27L92.0063 2696.66L93.8046 2691.53L99.197 2692.17L94.073 2690.37L94.7115 2684.98L92.9133 2690.11Z" fill="white"/>
</g>
<g style="mix-blend-mode:color-dodge" opacity="0.41">
<g style="mix-blend-mode:color-dodge" opacity="0.41">
<path d="M453.483 2756.5L447.345 2755.79L453.172 2757.82L452.461 2763.96L454.49 2758.13L460.628 2758.84L454.801 2756.81L455.512 2750.67L453.483 2756.5Z" fill="white"/>
</g>
</g>
</g>
<g filter="url(#filter7_f_2530_3085)">
<ellipse cx="-142.068" cy="5562.49" rx="523.295" ry="497.489" transform="rotate(150 -142.068 5562.49)" fill="#4BBFF1" fill-opacity="0.43"/>
</g>
</g>
<defs>
<filter id="filter0_f_2530_3085" x="-1038" y="-205.048" width="1923" height="2857.03" filterUnits="userSpaceOnUse" color-interpolation-filters="sRGB">
<feFlood flood-opacity="0" result="BackgroundImageFix"/>
<feBlend mode="normal" in="SourceGraphic" in2="BackgroundImageFix" result="shape"/>
<feGaussianBlur stdDeviation="332" result="effect1_foregroundBlur_2530_3085"/>
</filter>
<filter id="filter1_f_2530_3085" x="-426.001" y="-834" width="2650" height="2650" filterUnits="userSpaceOnUse" color-interpolation-filters="sRGB">
<feFlood flood-opacity="0" result="BackgroundImageFix"/>
<feBlend mode="normal" in="SourceGraphic" in2="BackgroundImageFix" result="shape"/>
<feGaussianBlur stdDeviation="512" result="effect1_foregroundBlur_2530_3085"/>
</filter>
<filter id="filter2_f_2530_3085" x="-1929" y="1201" width="3915" height="3794" filterUnits="userSpaceOnUse" color-interpolation-filters="sRGB">
<feFlood flood-opacity="0" result="BackgroundImageFix"/>
<feBlend mode="normal" in="SourceGraphic" in2="BackgroundImageFix" result="shape"/>
<feGaussianBlur stdDeviation="672" result="effect1_foregroundBlur_2530_3085"/>
</filter>
<filter id="filter3_f_2530_3085" x="-584.94" y="3190.49" width="3754.8" height="3700.9" filterUnits="userSpaceOnUse" color-interpolation-filters="sRGB">
<feFlood flood-opacity="0" result="BackgroundImageFix"/>
<feBlend mode="normal" in="SourceGraphic" in2="BackgroundImageFix" result="shape"/>
<feGaussianBlur stdDeviation="672" result="effect1_foregroundBlur_2530_3085"/>
</filter>
<filter id="filter4_f_2530_3085" x="-569.146" y="-176.909" width="3754.8" height="3700.9" filterUnits="userSpaceOnUse" color-interpolation-filters="sRGB">
<feFlood flood-opacity="0" result="BackgroundImageFix"/>
<feBlend mode="normal" in="SourceGraphic" in2="BackgroundImageFix" result="shape"/>
<feGaussianBlur stdDeviation="672" result="effect1_foregroundBlur_2530_3085"/>
</filter>
<filter id="filter5_f_2530_3085" x="87.9993" y="2254" width="2463" height="2408" filterUnits="userSpaceOnUse" color-interpolation-filters="sRGB">
<feFlood flood-opacity="0" result="BackgroundImageFix"/>
<feBlend mode="normal" in="SourceGraphic" in2="BackgroundImageFix" result="shape"/>
<feGaussianBlur stdDeviation="422" result="effect1_foregroundBlur_2530_3085"/>
</filter>
<filter id="filter6_d_2530_3085" x="94.4719" y="211.068" width="58.0044" height="58.0044" filterUnits="userSpaceOnUse" color-interpolation-filters="sRGB">
<feFlood flood-opacity="0" result="BackgroundImageFix"/>
<feColorMatrix in="SourceAlpha" type="matrix" values="0 0 0 0 0 0 0 0 0 0 0 0 0 0 0 0 0 0 127 0" result="hardAlpha"/>
<feOffset dy="4"/>
<feGaussianBlur stdDeviation="10"/>
<feComposite in2="hardAlpha" operator="out"/>
<feColorMatrix type="matrix" values="0 0 0 0 0.180392 0 0 0 0 0.568627 0 0 0 0 0.94902 0 0 0 1 0"/>
<feBlend mode="normal" in2="BackgroundImageFix" result="effect1_dropShadow_2530_3085"/>
<feBlend mode="normal" in="SourceGraphic" in2="effect1_dropShadow_2530_3085" result="shape"/>
</filter>
<filter id="filter7_f_2530_3085" x="-1503.13" y="4214.35" width="2722.12" height="2696.28" filterUnits="userSpaceOnUse" color-interpolation-filters="sRGB">
<feFlood flood-opacity="0" result="BackgroundImageFix"/>
<feBlend mode="normal" in="SourceGraphic" in2="BackgroundImageFix" result="shape"/>
<feGaussianBlur stdDeviation="422" result="effect1_foregroundBlur_2530_3085"/>
</filter>
<clipPath id="clip0_2530_3085">
<rect width="1440" height="4752" fill="white"/>
</clipPath>
<clipPath id="clip1_2530_3085">
<rect width="1055" height="1133" fill="white" transform="translate(839 2231) rotate(-180)"/>
</clipPath>
<clipPath id="clip2_2530_3085">
<rect width="890" height="955" fill="white" transform="translate(902.264 504.054) rotate(150)"/>
</clipPath>
<clipPath id="clip3_2530_3085">
<rect width="1387.93" height="1489.29" fill="white" transform="translate(797.581 3048.71)"/>
</clipPath>
<clipPath id="clip4_2530_3085">
<rect width="1387.93" height="1489.29" fill="white" transform="translate(1081.81 3834.76) rotate(150)"/>
</clipPath>
</defs>
</svg>
