<svg width="93" height="50" viewBox="0 0 93 50" fill="none" xmlns="http://www.w3.org/2000/svg">
<path d="M49.2082 16.6667C45.7915 6.95833 36.5415 0 25.6665 0C11.8748 0 0.666504 11.2083 0.666504 25C0.666504 38.7917 11.8748 50 25.6665 50C36.5415 50 45.7915 43.0417 49.2082 33.3333H67.3332V50H83.9998V33.3333H92.3332V16.6667H49.2082ZM25.6665 33.3333C21.0832 33.3333 17.3332 29.5833 17.3332 25C17.3332 20.4167 21.0832 16.6667 25.6665 16.6667C30.2498 16.6667 33.9998 20.4167 33.9998 25C33.9998 29.5833 30.2498 33.3333 25.6665 33.3333Z" fill="#D0D4DE"/>
</svg>
