<svg width="63" height="50" viewBox="0 0 63 50" fill="none" xmlns="http://www.w3.org/2000/svg">
<path d="M49.1656 0L36.2488 7.45798V12.7013L31.7169 10.0851L18.8011 17.5431V23.0385L13.8313 20.1691L0.915527 27.6271V42.542L13.8324 50L26.7498 42.542V37.0471L31.7181 39.9165L44.635 32.4585V27.2163L49.1658 29.8325L62.0842 22.3745V7.45692L49.1656 0ZM58.7236 8.10426L49.1667 13.6221L39.6081 8.10426L49.1651 2.58644L58.7236 8.10426ZM36.2486 15.2872V21.0903L31.7183 23.706L22.1613 18.1887L31.7172 12.6709L36.2486 15.2872ZM42.3946 23.3352L39.6175 21.7321L42.3946 20.129V23.3352ZM38.4888 19.7971V16.5804L41.2738 18.1887L38.4888 19.7971ZM18.8018 25.6243V30.9228L13.8324 33.7916L4.27491 28.2738L13.8319 22.7549L18.8018 25.6243ZM24.5087 33.1665L21.9519 31.6894L24.5087 30.2123V33.1665ZM21.0414 29.6285V26.9175L23.3888 28.2727L21.0414 29.6285ZM3.15583 30.2123L12.7133 35.7312L12.7118 46.7647L3.1548 41.2469V30.2123H3.15583ZM24.5095 41.248L14.952 46.7658L14.9525 35.7323L19.7125 32.9838L24.509 35.7542L24.5095 41.248ZM21.0422 24.3304V20.1272L30.5992 25.6451L30.5987 36.6802L26.7502 34.4572V27.6254L21.0422 24.3304ZM42.3946 31.1633L32.8376 36.6811L32.8382 25.6449L37.3762 23.0246L42.394 25.9211L42.3946 31.1633ZM38.4888 13.9937V10.0436L48.0473 15.5625L48.0458 26.5976L44.6348 24.6278V17.5417L38.4888 13.9937ZM50.2854 26.5975L50.2869 15.5613L59.8439 10.0435V21.0797L50.2854 26.5975Z" fill="#D0D4DE"/>
</svg>
