<svg width="152" height="48" viewBox="0 0 152 48" fill="none" xmlns="http://www.w3.org/2000/svg">
<path d="M56.8398 18.3701H62.2454V32.5712H65.4837V18.3701H70.8895V15.3276H56.8398V18.3701ZM78.5469 19.8124C78.1265 19.8385 77.7097 19.9058 77.3024 20.0131C76.9151 20.114 76.5416 20.262 76.1903 20.4538C75.7607 20.6776 75.3782 20.9821 75.0638 21.3507C74.9199 21.5215 74.7887 21.7025 74.671 21.8923V19.8427H71.5283V32.5712H75.1223V26.0658C75.1141 25.6177 75.1878 25.1719 75.3397 24.7503C75.4817 24.3675 75.7063 24.0207 75.9975 23.7346C76.3004 23.4365 76.6603 23.2026 77.0557 23.0469C77.5028 22.8595 77.9786 22.7496 78.4626 22.722C78.9224 22.681 79.3857 22.7177 79.8332 22.8305V19.8427C79.4062 19.7947 78.9757 19.7846 78.5469 19.8124ZM92.08 21.5727C91.6677 20.7236 90.9555 20.0572 90.081 19.7019C89.2007 19.3393 88.193 19.1582 87.0579 19.1584C85.5121 19.1584 84.2905 19.5037 83.393 20.1942C82.5076 20.8668 81.8649 21.809 81.5616 22.8787L84.4868 23.8394C84.6941 23.2321 85.055 22.8095 85.5697 22.5717C86.0332 22.3451 86.5408 22.2229 87.0567 22.2138C87.9145 22.2138 88.5256 22.3986 88.8899 22.7683C89.175 23.0575 89.3454 23.4796 89.4069 24.025L87.8538 24.2637L85.6175 24.6641C85.0397 24.7816 84.4715 24.942 83.9175 25.1439C83.3088 25.3599 82.7487 25.6941 82.2695 26.1273C81.8717 26.5008 81.5679 26.9632 81.3829 27.4766C81.1953 28.0187 81.1029 28.5892 81.1096 29.1629C81.1014 29.8689 81.2711 30.5657 81.603 31.1889C81.9364 31.8079 82.44 32.3186 83.0544 32.6604C83.6936 33.0263 84.4729 33.2089 85.3924 33.2081C86.5037 33.2081 87.4221 33.0091 88.1476 32.6111C88.774 32.2484 89.325 31.769 89.7709 31.1988V32.8392H92.6038V24.7017L92.5332 23.0522C92.4787 22.5344 92.3252 22.0319 92.0812 21.5719L92.08 21.5727ZM89.0569 28.7898C88.9242 29.0446 88.7583 29.2807 88.5635 29.492C88.2868 29.7979 87.9562 30.0503 87.5881 30.2366C87.1208 30.4678 86.6035 30.5798 86.0824 30.5627C85.7528 30.571 85.4248 30.5125 85.1184 30.3907C84.8659 30.29 84.6488 30.1169 84.4944 29.8931C84.3434 29.6608 84.2671 29.3878 84.2758 29.1109C84.2725 28.9017 84.3198 28.6948 84.4136 28.5078C84.5176 28.3125 84.6637 28.1427 84.8413 28.0106C85.0768 27.8362 85.3342 27.6936 85.6069 27.5863C85.9217 27.4682 86.2433 27.3695 86.5702 27.2906L88.0124 26.9869L89.3849 26.7399L89.3503 27.5324C89.3332 27.9667 89.2342 28.3938 89.0585 28.7913L89.0569 28.7898ZM108.232 22.6529C108.064 22.0567 107.794 21.4943 107.433 20.9905C107.025 20.4317 106.486 19.9808 105.864 19.6765C105.192 19.3314 104.323 19.1589 103.256 19.1592C101.921 19.1592 100.814 19.4364 99.9359 19.9908C99.5353 20.2437 99.1691 20.5473 98.8462 20.8941V19.5486H95.7973V32.5712H99.2713V25.9641C99.2713 25.1513 99.3654 24.5 99.5537 24.0102C99.742 23.5203 99.9851 23.1486 100.283 22.895C100.555 22.6535 100.878 22.4778 101.229 22.3815C101.536 22.2965 101.854 22.2517 102.173 22.2483C102.904 22.2483 103.469 22.4052 103.868 22.7189C104.259 23.0208 104.558 23.4256 104.731 23.8879C104.903 24.3345 105.009 24.8037 105.046 25.2809L105.097 26.4195V32.5682H108.571V25.2623L108.521 24.2265C108.477 23.6941 108.38 23.1673 108.232 22.654V22.6529ZM120.223 25.7925C119.611 25.4451 118.801 25.1394 117.794 24.8755L115.489 24.2349C114.984 24.0701 114.652 23.9102 114.493 23.7551C114.414 23.6809 114.352 23.5909 114.311 23.4911C114.269 23.3914 114.249 23.284 114.252 23.1759C114.252 22.7899 114.438 22.4973 114.812 22.2897C115.185 22.0821 115.68 22.0031 116.292 22.0445C116.924 22.0938 117.425 22.262 117.793 22.5489C117.975 22.6893 118.125 22.8658 118.235 23.0674C118.345 23.2689 118.413 23.4908 118.434 23.7194L121.853 23.1027C121.753 22.3315 121.435 21.605 120.936 21.0083C120.411 20.3968 119.74 19.927 118.986 19.642C118.103 19.3069 117.163 19.1435 116.218 19.1607C115.144 19.1607 114.212 19.3314 113.42 19.6727C112.68 19.9721 112.041 20.4772 111.578 21.1283C111.136 21.784 110.908 22.5609 110.927 23.3516C110.909 23.9613 111.059 24.5642 111.359 25.0953C111.646 25.576 112.115 25.9889 112.763 26.3337C113.412 26.6786 114.278 26.9907 115.363 27.2701L117.485 27.8861C117.937 28.0425 118.233 28.1996 118.364 28.3605C118.503 28.5419 118.572 28.7664 118.561 28.9944C118.568 29.186 118.527 29.3764 118.441 29.5476C118.354 29.7189 118.226 29.8655 118.068 29.9736C117.737 30.2069 117.27 30.3233 116.667 30.3228C115.929 30.3228 115.32 30.1457 114.84 29.7914C114.358 29.4346 114.026 28.9096 113.912 28.3203L110.488 28.8517C110.709 30.2393 111.335 31.3133 112.363 32.0736C113.392 32.834 114.743 33.2135 116.417 33.2123C118.155 33.2123 119.517 32.8221 120.501 32.0418C121.485 31.2614 121.979 30.1882 121.981 28.8221C121.999 28.2063 121.855 27.5967 121.564 27.0541C121.282 26.5673 120.836 26.1478 120.225 25.7955L120.223 25.7925ZM135.481 21.5735C135.032 20.7115 134.28 20.0453 133.371 19.7019C132.441 19.3393 131.377 19.1582 130.18 19.1584C128.548 19.1584 127.258 19.5037 126.311 20.1942C125.388 20.8518 124.707 21.7961 124.376 22.8802L127.466 23.8405C127.685 23.2332 128.066 22.8107 128.609 22.5728C129.102 22.3456 129.636 22.2237 130.179 22.2149C131.084 22.2149 131.729 22.3997 132.115 22.7694C132.418 23.0583 132.595 23.4807 132.661 24.0261L131.019 24.266L128.659 24.6664C128.05 24.7836 127.449 24.9442 126.863 25.1469C126.135 25.4111 125.555 25.7376 125.123 26.1265C124.707 26.4943 124.386 26.9572 124.187 27.4758C123.989 28.0159 123.891 28.5876 123.899 29.1629C123.891 29.8726 124.071 30.5718 124.42 31.1897C124.78 31.8168 125.311 32.3277 125.952 32.6619C126.626 33.0278 127.449 33.2104 128.419 33.2096C129.592 33.2096 130.561 33.0102 131.327 32.6115C131.983 32.2534 132.565 31.774 133.042 31.1988V32.8392H136.032V24.7032C136.035 24.1524 136.009 23.6019 135.956 23.0537C135.898 22.5334 135.736 22.03 135.48 21.5735H135.481ZM132.291 28.7928C132.149 29.049 131.974 29.2851 131.77 29.495C131.434 29.8489 131.027 30.1274 130.575 30.312C130.124 30.4966 129.638 30.5831 129.151 30.5657C128.804 30.574 128.459 30.5156 128.134 30.3938C127.87 30.2952 127.641 30.122 127.475 29.8954C127.317 29.666 127.236 29.3919 127.244 29.1132C127.241 28.9032 127.291 28.6958 127.389 28.5101C127.499 28.3121 127.653 28.1415 127.838 28.0106C128.088 27.8351 128.36 27.6925 128.646 27.5863C128.979 27.4676 129.319 27.3689 129.663 27.2906L131.183 26.9869L132.632 26.7399L132.596 27.5324C132.577 27.969 132.473 28.3976 132.289 28.794L132.291 28.7928ZM146.345 26.103L151.048 19.6374H146.995L142.581 25.8642V15.3276H139.252L139.228 32.5712H142.581V26.3444L147.089 32.5712H151.36L146.345 26.103Z" fill="#D0D4DE"/>
<path d="M24.269 0C10.8664 0 0 10.7226 0 23.9494C0 37.1763 10.8657 47.8989 24.269 47.8989C37.6723 47.8989 48.538 37.1763 48.538 23.9494C48.538 10.7226 37.6716 0 24.269 0ZM39.0505 25.0767C38.7018 25.4166 38.2349 25.6082 37.748 25.6111C37.261 25.614 36.7919 25.428 36.4392 25.0922L32.8335 21.5477V30.7483C32.8333 30.9887 32.785 31.2267 32.6916 31.4483C32.5982 31.6699 32.4616 31.8706 32.2896 32.0387C31.938 32.3814 31.4665 32.5731 30.9756 32.5731C30.4847 32.5731 30.0132 32.3814 29.6616 32.0387C29.4897 31.8706 29.3531 31.6698 29.2597 31.4483C29.1663 31.2267 29.118 30.9887 29.1177 30.7483V21.5761L18.4498 32.0516L18.3382 32.1552L18.3196 32.1716C18.2559 32.2226 18.1888 32.2694 18.1188 32.3116L18.0763 32.3355C18.0045 32.377 17.9299 32.4135 17.8531 32.4448C17.799 32.4672 17.7438 32.4867 17.6877 32.5033H17.6789L17.5222 32.5412H17.5013L17.3586 32.5621H17.3206L17.1688 32.5689H17.1411L16.9658 32.5614H16.9582C16.6582 32.5347 16.3689 32.4367 16.1144 32.2756L15.9694 32.1662C15.9207 32.1278 15.8742 32.0866 15.8302 32.0429L8.81574 25.1606C8.65014 24.9914 8.51954 24.7913 8.43143 24.5716C8.34333 24.3519 8.29944 24.1169 8.3023 23.8802C8.30515 23.6435 8.35469 23.4097 8.44808 23.1922C8.54146 22.9747 8.67685 22.7778 8.84649 22.6127C9.19259 22.2754 9.65514 22.084 10.1384 22.0783C10.6216 22.0726 11.0886 22.2529 11.4426 22.5819L15.2836 26.352V17.1514C15.2839 16.9109 15.3322 16.6729 15.4256 16.4513C15.519 16.2298 15.6556 16.029 15.8275 15.8609C16.179 15.5183 16.6504 15.3265 17.1413 15.3265C17.6322 15.3265 18.1036 15.5183 18.4551 15.8609C18.627 16.029 18.7637 16.2297 18.8572 16.4513C18.9506 16.6729 18.999 16.9109 18.9994 17.1514V26.3512L29.5216 16.0245C29.8092 15.6666 30.219 15.4278 30.6722 15.3541C31.1254 15.2803 31.5898 15.3767 31.9761 15.6248C31.9928 15.6351 32.0084 15.6434 32.0243 15.6548L32.1268 15.7307C32.1743 15.7649 32.22 15.8013 32.2638 15.84L32.2907 15.8632L32.3025 15.8749L39.0675 22.5144H39.0653C39.2342 22.6828 39.368 22.8832 39.4589 23.1038C39.5497 23.3245 39.5958 23.561 39.5944 23.7996C39.593 24.0382 39.5442 24.2741 39.4508 24.4937C39.3575 24.7133 39.2214 24.9121 39.0505 25.0786V25.0767Z" fill="#D0D4DE"/>
</svg>
