<svg width="140" height="47" viewBox="0 0 140 47" fill="none" xmlns="http://www.w3.org/2000/svg">
<path d="M78.3641 39.8678C82.6284 40.456 85.2755 39.6718 87.2853 37.6626C88.5583 36.3879 89.5386 34.916 90.3737 33.352C93.8045 27.0288 102.137 11.7851 102.137 11.7851H96.1556L89.9307 24.2811L87.9718 11.7823H81.5983V12.0761C81.5983 12.0761 83.755 23.4969 84.8331 29.3788C84.98 30.2608 85.176 32.5158 83.6075 33.9374C82.7255 34.7702 81.4509 35.4076 79.2456 35.0646L78.363 39.8684L78.3641 39.8678ZM73.6095 11.7823L67.8248 24.9174L67.6779 24.8682L66.8959 12.1241H60.5727L54.4434 24.9174L54.2965 24.8191L54.0512 11.7812H48.0225L49.1988 32.7107H55.7181L62.0407 19.0841H62.1881L63.1684 32.7135H69.7363L79.2456 11.784L73.6095 11.7823ZM108.409 32.7118H102.086C103.508 25.6536 104.831 18.8405 106.253 11.7823H111.153V15.6544C111.79 14.0859 112.721 12.5665 114.241 11.9292C115.712 11.2919 118.015 11.341 120.368 12.027C119.437 13.8407 118.748 15.4092 117.721 17.3698C116.839 17.1737 116.005 16.9788 115.172 16.8799C113.31 16.6839 111.988 17.419 111.349 19.1835C110.908 20.409 110.614 21.7323 110.369 23.0065C109.682 26.2418 109.094 29.4765 108.408 32.7118H108.409ZM128.653 16.7816C129.535 15.7035 131.202 15.0662 132.379 15.4583C133.849 15.8996 134.339 17.5659 133.31 18.6931C132.967 19.0841 132.476 19.3796 131.986 19.5756C130.467 20.1638 128.898 20.1147 127.232 19.8209C127.477 18.6445 127.918 17.6642 128.653 16.7816ZM136.741 27.5159H136.545C134.143 28.4476 131.447 28.6923 129.585 28.1532C127.526 27.5651 126.349 25.8005 126.741 23.7907C132.819 24.2811 135.417 23.1539 136.839 22.3205C140.613 20.0655 141.544 14.0367 136.643 12.2722C132.329 10.7037 126.301 11.4388 123.46 14.8701C120.862 18.0071 120.127 21.438 120.519 25.3106C120.814 28.2024 122.774 32.3197 129.244 33.0057C133.166 33.3967 135.668 32.3689 135.861 32.3197L136.744 27.5159H136.741Z" fill="#D0D4DE"/>
<path d="M29.7397 34.525C28.4164 36.2896 26.4066 37.4168 24.0538 37.4168H13.7106L9.88818 46.7786H24.2499C25.6403 46.779 26.9991 46.364 28.152 45.5866C29.3048 44.8093 30.1991 43.7053 30.72 42.4161L38.4647 23.4478L29.7397 34.525Z" fill="#D0D4DE"/>
<path d="M24.985 22.8596C23.6618 24.6241 21.652 25.7514 19.2992 25.7514H8.90958L5.08496 35.1138H19.4467C20.837 35.1139 22.1957 34.6987 23.3485 33.9214C24.5013 33.1441 25.3956 32.0402 25.9168 30.7512L33.6084 11.9113L24.985 22.8596Z" fill="#D0D4DE"/>
<path d="M14.5444 0.116272H28.9056L21.1614 19.0852C20.6403 20.3742 19.7461 21.4782 18.5932 22.2555C17.4404 23.0328 16.0817 23.448 14.6913 23.4477H0.32959L8.07434 4.47881C8.59526 3.18966 9.48952 2.08559 10.6424 1.30827C11.7952 0.53096 13.154 0.115869 14.5444 0.116272Z" fill="#D0D4DE"/>
</svg>
