<svg xmlns="http://www.w3.org/2000/svg" width="207.702" height="106.377" viewBox="0 0 207.702 106.377"><defs><style>.a{fill:#87f2e7;}.b{fill:#fff;}.c{fill:#4465ef;}</style></defs><g transform="translate(-99.323 -120.93)"><g transform="translate(240.707 120.93)"><path class="a" d="M196.3,121.11l30.941,51.473c-.662-.2-1.053-.282-1.412-.437-9.547-4.173-19.1-8.338-28.62-12.569a2.241,2.241,0,0,1-1.2-1.563c-.069-12.26-.053-24.523-.053-36.785Z" transform="translate(-161.704 -120.781)"/><path class="a" d="M177.869,172.561c10.3-17.3,20.41-34.3,30.727-51.631a13.192,13.192,0,0,1,.186,1.393q.011,17.694.022,35.386a1.825,1.825,0,0,1-1.192,2.037c-9.62,4.16-19.214,8.38-28.818,12.578A8.858,8.858,0,0,1,177.869,172.561Z" transform="translate(-176.686 -120.93)"/><path class="b" d="M209.221,175.924l-32-18.744,32-14.023Z" transform="translate(-177.222 -102.514)"/><path class="b" d="M195.986,175.908V143.163l32.007,14.018Z" transform="translate(-161.675 -102.509)"/><path class="c" d="M177.835,154.81q6.991,4.081,13.979,8.163c5.235,3.061,10.448,6.162,15.716,9.166a2.609,2.609,0,0,1,1.483,2.65c-.06,8.005-.031,16.009-.36,24.179q-15.511-21.934-31.019-43.87Z" transform="translate(-176.881 -92.859)"/><path class="c" d="M227.293,155.032q-15.508,21.937-31.017,43.874l-.322-.106v-5.932c0-6.126-.029-12.253.04-18.377a2.675,2.675,0,0,1,.914-1.995c10.015-5.946,20.079-11.809,30.132-17.689Z" transform="translate(-161.707 -92.862)"/></g><path class="b" d="M150.3,129.2a1.939,1.939,0,1,1-1.939-1.939A1.939,1.939,0,0,1,150.3,129.2Zm4.483-1.939a1.939,1.939,0,1,0,1.939,1.939A1.939,1.939,0,0,0,154.787,127.262Zm6.422,0a1.939,1.939,0,1,0,1.938,1.939A1.939,1.939,0,0,0,161.21,127.262ZM150.3,160.415a1.939,1.939,0,1,1-1.939-1.939A1.939,1.939,0,0,1,150.3,160.415Zm4.483-1.939a1.939,1.939,0,1,0,1.939,1.939A1.939,1.939,0,0,0,154.787,158.475Zm6.422,0a1.939,1.939,0,1,0,1.938,1.939A1.939,1.939,0,0,0,161.21,158.475Z" transform="translate(66.276 28.937)"/><g transform="translate(12 0.27)"><rect class="a" width="16.911" height="16.911" transform="translate(87.323 173.983) rotate(-44.996)"/><path class="c" d="M131.067,144.931l20.547,20.547,11.959-11.959-32.508-32.59L98.559,153.436l11.959,11.959Z" transform="translate(9.31)"/><rect class="a" width="16.912" height="16.912" transform="translate(169.515 173.985) rotate(-45)"/><path class="c" d="M131.065,175.189l-20.547-20.547L98.559,166.6l32.506,32.506L163.571,166.6l-11.959-11.959Z" transform="translate(9.31 27.932)"/><rect class="b" width="16.912" height="16.912" transform="translate(128.417 173.974) rotate(-45)"/></g></g></svg>