<svg xmlns="http://www.w3.org/2000/svg" width="105.865" height="105.839" viewBox="0 0 105.865 105.839"><defs><style>.a{fill:#fff;}.b{fill:#4465ef;}.c{fill:#87f2e7;}</style></defs><g transform="translate(-657 -1695.866)"><path class="a" d="M174,493.767c.274-1.866.47-3.747.838-5.594a35.718,35.718,0,0,1,7.8-16.845c1.336-1.54,2.944-2.846,4.359-4.193,1.061.546,1.229,1.05.822,1.944A61.5,61.5,0,0,0,183.1,486.75c-.2,1.561-.348,3.129-.542,4.9,2.472-.306,4.785-.546,7.083-.887a60.858,60.858,0,0,0,15.827-4.506c.86-.382,1.068.22,1.51.672a22.477,22.477,0,0,1-5.8,5.988,39.7,39.7,0,0,1-19.453,7.08c-.373.04-.742.12-1.113.182h-3.308A4.936,4.936,0,0,1,174,496.868Z" transform="translate(483 1301.529)"/><path class="b" d="M297.7,304.006a133.473,133.473,0,0,1-3.292,24.126,73.239,73.239,0,0,1-8.45,21.411,51.641,51.641,0,0,1-11.386,12.727,101.42,101.42,0,0,1-8.727,6.425c-10.218,6.771-20.5,13.441-30.752,20.163-2.191,1.437-3.78,1.324-5.623-.517q-11.374-11.36-22.739-22.729c-1.842-1.843-1.948-3.429-.513-5.618,6.723-10.249,13.461-20.488,20.125-30.775a77.075,77.075,0,0,1,12.745-15.27,51.461,51.461,0,0,1,16.531-9.77,102.706,102.706,0,0,1,28.658-6.21q4.582-.371,9.179-.568c2.778-.121,4.3,1.448,4.248,4.231C297.688,302.423,297.7,303.214,297.7,304.006Zm-24.827,30.418a12.176,12.176,0,1,0-12.215,12.132A12.231,12.231,0,0,0,272.874,334.424Z" transform="translate(465.16 1398.473)"/><path class="c" d="M279,499.4l26.087-17.253.383.251c-.458,1.7-.8,3.44-1.4,5.088a38.11,38.11,0,0,1-8.246,12.872c-2.571,2.765-5.346,5.34-7.958,7.928Z" transform="translate(423.029 1292.953)"/><path class="c" d="M175.443,395.151c5.735-6.663,11.986-12.873,20.488-16.228a51.571,51.571,0,0,1,5.224-1.472l.291.373L184.19,403.915Z" transform="translate(482.176 1352.749)"/></g></svg>