<svg xmlns="http://www.w3.org/2000/svg" width="106.245" height="106.107" viewBox="0 0 106.245 106.107"><defs><style>.a{fill:#4465ef;}.b{fill:#fff;}.c{fill:#87f2e7;}</style></defs><g transform="translate(-106 -229.902)"><path class="a" d="M106,263.421a5.706,5.706,0,0,1,2.342-2.367q24.292-15.181,48.547-30.421a3.722,3.722,0,0,1,4.413-.013Q185.775,246,210.28,261.326c2.59,1.624,2.6,4.228.009,5.84q-24.534,15.28-49.07,30.557a3.615,3.615,0,0,1-4.237-.007q-24.3-15.169-48.637-30.274A5.7,5.7,0,0,1,106,265.08Z"/><path class="b" d="M106,473.594c.585-1.407,1.843-2.069,3.068-2.767,1.165-.664,2.328-1.842,3.493-1.844,1.117,0,2.243,1.207,3.354,1.9q18.844,11.768,37.678,23.551a9.563,9.563,0,0,0,10.988.029Q184.638,481.9,204.7,469.353a1.57,1.57,0,0,1,2.017-.011c1.136.781,2.357,1.436,3.537,2.154,2.594,1.579,2.626,4.221.053,5.834q-14.435,9.052-28.879,18.088-9.831,6.159-19.659,12.322c-.607.38-1.227.74-1.841,1.11h-1.659c-.437-.262-.878-.517-1.31-.788q-24.265-15.2-48.536-30.386A5.834,5.834,0,0,1,106,475.253Z" transform="translate(0 -172.842)"/><path class="c" d="M106,406.492a5.056,5.056,0,0,1,2.442-2.4c.492-.248.95-.564,1.424-.848,2.862-1.716,2.868-1.724,5.613.263a1.19,1.19,0,0,1,.456.816c.031,3.522.02,7.045.02,10.708-.35-.181-.618-.3-.867-.451-2.217-1.34-4.412-2.716-6.652-4.015A5.536,5.536,0,0,1,106,408.151Z" transform="translate(0 -124.406)"/><path class="c" d="M278.664,494.551a9.825,9.825,0,0,0,10.162.083c0,3.733.009,7.317-.022,10.9a1.073,1.073,0,0,1-.493.682c-.917.614-1.856,1.2-2.805,1.763a3.082,3.082,0,0,1-3.339-.011c-.06-.035-.116-.074-.175-.111-1.082-.674-2.576-1.115-3.132-2.089s-.186-2.482-.193-3.755C278.655,499.574,278.664,497.135,278.664,494.551Z" transform="translate(-124.748 -191.328)"/><path class="c" d="M164.4,422.51c3.235,2.014,6.281,3.9,9.309,5.815a1.027,1.027,0,0,1,.421.729c.027,3.546.019,7.092.019,10.82-.882-.54-1.635-1-2.383-1.461-2.256-1.4-4.517-2.795-6.755-4.224a1.269,1.269,0,0,1-.583-.834C164.382,429.809,164.4,426.262,164.4,422.51Z" transform="translate(-42.216 -139.246)"/><path class="c" d="M395.75,440.069c0-3.759-.006-7.279.012-10.8a.942.942,0,0,1,.286-.7c3.081-1.952,6.181-3.875,9.45-5.913v3.952c0,2.21.011,4.421-.013,6.63,0,.306-.087.759-.294.893C402.119,436.1,399.021,438.022,395.75,440.069Z" transform="translate(-209.474 -139.352)"/><path class="c" d="M347.841,458.666c0,3.755.008,7.3-.018,10.85a1.021,1.021,0,0,1-.414.727c-3.026,1.919-6.07,3.81-9.219,5.776a6.731,6.731,0,0,1-.093-.747c-.005-3.245-.017-6.49.015-9.735a1.39,1.39,0,0,1,.424-1.025C341.55,462.575,344.6,460.691,347.841,458.666Z" transform="translate(-167.79 -165.385)"/><path class="c" d="M231.591,476.044c-3.165-2.011-6.139-3.891-9.095-5.8a1.031,1.031,0,0,1-.427-.723c-.027-3.553-.019-7.106-.019-10.786.331.176.569.283.788.421,2.654,1.683,5.3,3.384,7.966,5.045a1.427,1.427,0,0,1,.806,1.39C231.568,469,231.591,472.419,231.591,476.044Z" transform="translate(-83.898 -165.436)"/><path class="c" d="M453.379,414.817v-5.162c0-1.831-.031-3.663.027-5.492a1.529,1.529,0,0,1,.579-1.046c.9-.635,1.855-1.579,2.819-1.617.9-.036,1.856.919,2.774,1.458.833.489,1.687.956,2.466,1.522a2.954,2.954,0,0,1,.174,4.811C459.413,411.21,456.458,412.909,453.379,414.817Z" transform="translate(-251.132 -124.056)"/></g></svg>