<svg xmlns="http://www.w3.org/2000/svg" width="70" height="70" viewBox="0 0 70 70"><defs><style>.a{fill:#09159c;}.b{fill:#3776f2;}.c{fill:#87f2e7;}.d{fill:#3457e6;}</style></defs><path class="a" d="M117.326,85.389q0,1.032-.064,2.051A31.942,31.942,0,0,1,87.44,117.261q-1.019.064-2.051.064A31.948,31.948,0,0,1,54.915,94.968,2.05,2.05,0,0,1,56.871,92.3H69a2.054,2.054,0,0,1,1.8,1.065,16.632,16.632,0,0,0,14.591,8.649,16.388,16.388,0,0,0,2.051-.127,16.659,16.659,0,0,0,14.45-14.45,16.387,16.387,0,0,0,.127-2.051A16.634,16.634,0,0,0,93.368,70.8,2.054,2.054,0,0,1,92.3,69V56.871a2.05,2.05,0,0,1,2.665-1.956A31.948,31.948,0,0,1,117.326,85.389Z" transform="translate(-47.326 -47.325)"/><path class="b" d="M353.938,87.44q.064-1.019.064-2.051a31.948,31.948,0,0,0-22.358-30.475,2.05,2.05,0,0,0-2.665,1.956V69a2.054,2.054,0,0,0,1.065,1.8,16.634,16.634,0,0,1,8.649,14.591,16.391,16.391,0,0,1-.127,2.051,16.588,16.588,0,0,1-4.749,9.7l10.831,10.831A31.7,31.7,0,0,0,353.938,87.44Z" transform="translate(-284.002 -47.325)"/><path class="c" d="M38.063,0A38.063,38.063,0,0,0,0,38.063a2.051,2.051,0,0,0,2.051,2.051H38.063a2.051,2.051,0,0,0,2.051-2.051V2.051A2.051,2.051,0,0,0,38.063,0Z"/><path class="a" d="M87.44,338.567v15.371q-1.019.064-2.051.064a31.948,31.948,0,0,1-30.475-22.358,2.05,2.05,0,0,1,1.956-2.665H69a2.054,2.054,0,0,1,1.8,1.065,16.632,16.632,0,0,0,14.591,8.649A16.385,16.385,0,0,0,87.44,338.567Z" transform="translate(-47.325 -284.002)"/><path class="d" d="M330.045,70.8a16.634,16.634,0,0,1,8.649,14.591,16.385,16.385,0,0,1-.127,2.051h15.371q.064-1.019.064-2.051a31.948,31.948,0,0,0-22.358-30.475,2.05,2.05,0,0,0-2.665,1.956V69A2.054,2.054,0,0,0,330.045,70.8Z" transform="translate(-284.002 -47.325)"/></svg>