<svg
  width="54"
  height="50"
  viewBox="0 0 54 50"
  fill="none"
  xmlns="http://www.w3.org/2000/svg"
>
  <path
    d="M21.2303 15.577V30.9616L33.4226 38.2693L35.3457 35.1155L25.0765 29.0385V15.577H21.2303Z"
    fill="white"
  />
  <path
    d="M41.9997 23.077C42.269 24.3078 42.3844 25.6155 42.3844 26.9232C42.3844 37.5386 33.769 46.154 23.1536 46.154C12.5382 46.154 3.92281 37.5386 3.92281 26.9232C3.92281 16.3078 12.5382 7.69241 23.1536 7.69241C25.8844 7.69241 28.4997 8.26934 30.8459 9.3078V5.19241C28.4228 4.34626 25.8459 3.84626 23.1536 3.84626C10.4228 3.84626 0.0766602 14.1924 0.0766602 26.9232C0.0766602 39.654 10.4228 50.0001 23.1536 50.0001C35.8844 50.0001 46.2305 39.654 46.2305 26.9232C46.2305 25.6155 46.0767 24.3463 45.8844 23.077H41.9997Z"
    fill="white"
  />
  <path
    d="M46.2309 7.69231V0H42.3848V7.69231H34.6925V11.5385H42.3848V19.2308H46.2309V11.5385H53.9232V7.69231H46.2309Z"
    fill="white"
  />
</svg>
