<svg width="50" height="50" viewBox="0 0 50 50" fill="none" xmlns="http://www.w3.org/2000/svg">
<path d="M33.5 30.5556C33.5 36.2778 28.0556 37.3889 26.9167 37.5833V40.3056H23.0833V37.4722C21.4722 37.0833 17.8611 35.7778 16.5 31L20.1111 29.5278C20.25 30 21.3889 34.0833 25.3611 34.0833C27.3889 34.0833 29.6944 33.0556 29.6944 30.5833C29.6944 28.4722 28.1667 27.3889 24.7222 26.1667C22.3333 25.3056 17.4167 23.9167 17.4167 18.9444C17.4167 18.7222 17.4444 13.6944 23.1389 12.4722V9.72222H26.9722V12.4444C31 13.1389 32.4722 16.3333 32.7778 17.3056L29.3333 18.7778C29.0833 18 28.0278 15.8611 25.1944 15.8611C23.6667 15.8611 21.25 16.6667 21.25 18.8889C21.25 20.9444 23.1111 21.75 27 23.0556C32.1667 24.8333 33.5 27.5 33.5 30.5556ZM13.8889 36.1111V31.9444H0V45.8333H4.16667V38.8333C8.63889 45.5556 16.3056 50 25 50C38.8056 50 50 38.8056 50 25H45.8333C45.8333 36.5 36.5 45.8333 25 45.8333C17.5833 45.8333 11.0556 41.9444 7.36111 36.1111H13.8889ZM45.8333 11.1667C41.3611 4.44444 33.6944 0 25 0C11.1944 0 0 11.1944 0 25H4.16667C4.16667 13.5 13.5 4.16667 25 4.16667C32.4167 4.16667 38.9444 8.05556 42.6389 13.8889H36.1111V18.0556H50V4.16667H45.8333V11.1667Z" fill="white"/>
</svg>
