<svg width="85" height="24" viewBox="0 0 85 24" fill="none" xmlns="http://www.w3.org/2000/svg">
<path d="M33.006 18V7.57H39.964V9.25H34.91V12.134H39.334V13.814H34.91V18H33.006ZM43.0507 18.168C42.5187 18.168 42.0567 18.0793 41.6647 17.902C41.2727 17.7247 40.9694 17.4727 40.7547 17.146C40.5401 16.81 40.4327 16.4227 40.4327 15.984C40.4327 15.564 40.5261 15.1907 40.7127 14.864C40.8994 14.528 41.1887 14.248 41.5807 14.024C41.9727 13.8 42.4674 13.6413 43.0647 13.548L45.5567 13.142V14.542L43.4147 14.906C43.0507 14.9713 42.7801 15.088 42.6027 15.256C42.4254 15.424 42.3367 15.6433 42.3367 15.914C42.3367 16.1753 42.4347 16.3853 42.6307 16.544C42.8361 16.6933 43.0881 16.768 43.3867 16.768C43.7694 16.768 44.1054 16.6887 44.3947 16.53C44.6934 16.362 44.9221 16.1333 45.0807 15.844C45.2487 15.5547 45.3327 15.2373 45.3327 14.892V12.932C45.3327 12.6053 45.2021 12.3347 44.9407 12.12C44.6887 11.896 44.3527 11.784 43.9327 11.784C43.5407 11.784 43.1907 11.8913 42.8827 12.106C42.5841 12.3113 42.3647 12.5867 42.2247 12.932L40.7267 12.204C40.8761 11.8027 41.1094 11.4573 41.4267 11.168C41.7534 10.8693 42.1361 10.636 42.5747 10.468C43.0134 10.3 43.4894 10.216 44.0027 10.216C44.6281 10.216 45.1787 10.3327 45.6547 10.566C46.1307 10.79 46.4994 11.1073 46.7607 11.518C47.0314 11.9193 47.1667 12.3907 47.1667 12.932V18H45.4307V16.698L45.8227 16.67C45.6267 16.9967 45.3934 17.272 45.1227 17.496C44.8521 17.7107 44.5441 17.8787 44.1987 18C43.8534 18.112 43.4707 18.168 43.0507 18.168ZM48.8618 18V10.384H50.5838V11.882L50.4438 11.616C50.6211 11.1587 50.9105 10.8133 51.3118 10.58C51.7225 10.3373 52.1985 10.216 52.7398 10.216C53.2998 10.216 53.7945 10.3373 54.2238 10.58C54.6625 10.8227 55.0031 11.1633 55.2458 11.602C55.4885 12.0313 55.6098 12.5307 55.6098 13.1V18H53.7758V13.534C53.7758 13.198 53.7105 12.9087 53.5798 12.666C53.4491 12.4233 53.2671 12.2367 53.0338 12.106C52.8098 11.966 52.5438 11.896 52.2358 11.896C51.9371 11.896 51.6711 11.966 51.4378 12.106C51.2045 12.2367 51.0225 12.4233 50.8918 12.666C50.7611 12.9087 50.6958 13.198 50.6958 13.534V18H48.8618ZM60.6326 18.084C59.774 18.084 59.1066 17.8507 58.6306 17.384C58.164 16.908 57.9306 16.2407 57.9306 15.382V12.022H56.6146V10.384H56.7546C57.128 10.384 57.4173 10.286 57.6226 10.09C57.828 9.894 57.9306 9.60933 57.9306 9.236V8.648H59.7646V10.384H61.5146V12.022H59.7646V15.284C59.7646 15.536 59.8066 15.7507 59.8906 15.928C59.984 16.1053 60.124 16.2407 60.3106 16.334C60.5066 16.4273 60.754 16.474 61.0526 16.474C61.118 16.474 61.1926 16.4693 61.2766 16.46C61.37 16.4507 61.4586 16.4413 61.5426 16.432V18C61.412 18.0187 61.2626 18.0373 61.0946 18.056C60.9266 18.0747 60.7726 18.084 60.6326 18.084ZM66.5995 18.168C65.8528 18.168 65.1715 17.9953 64.5555 17.65C63.9488 17.3047 63.4635 16.8333 63.0995 16.236C62.7448 15.6387 62.5675 14.9573 62.5675 14.192C62.5675 13.4267 62.7448 12.7453 63.0995 12.148C63.4635 11.5507 63.9488 11.0793 64.5555 10.734C65.1622 10.3887 65.8435 10.216 66.5995 10.216C67.3462 10.216 68.0228 10.3887 68.6295 10.734C69.2362 11.0793 69.7168 11.5507 70.0715 12.148C70.4355 12.736 70.6175 13.4173 70.6175 14.192C70.6175 14.9573 70.4355 15.6387 70.0715 16.236C69.7075 16.8333 69.2222 17.3047 68.6155 17.65C68.0088 17.9953 67.3368 18.168 66.5995 18.168ZM66.5995 16.488C67.0102 16.488 67.3695 16.39 67.6775 16.194C67.9948 15.998 68.2422 15.7273 68.4195 15.382C68.6062 15.0273 68.6995 14.6307 68.6995 14.192C68.6995 13.744 68.6062 13.352 68.4195 13.016C68.2422 12.6707 67.9948 12.4 67.6775 12.204C67.3695 11.9987 67.0102 11.896 66.5995 11.896C66.1795 11.896 65.8108 11.9987 65.4935 12.204C65.1762 12.4 64.9242 12.6707 64.7375 13.016C64.5602 13.352 64.4715 13.744 64.4715 14.192C64.4715 14.6307 64.5602 15.0273 64.7375 15.382C64.9242 15.7273 65.1762 15.998 65.4935 16.194C65.8108 16.39 66.1795 16.488 66.5995 16.488ZM72.0083 18V10.384H73.7303V12.148L73.5343 11.854C73.6743 11.3033 73.9543 10.8927 74.3743 10.622C74.7943 10.3513 75.289 10.216 75.8583 10.216C76.4836 10.216 77.0343 10.3793 77.5103 10.706C77.9863 11.0327 78.2943 11.462 78.4343 11.994L77.9163 12.036C78.1496 11.4293 78.4996 10.9767 78.9663 10.678C79.433 10.37 79.9696 10.216 80.5763 10.216C81.1176 10.216 81.5983 10.3373 82.0183 10.58C82.4476 10.8227 82.7836 11.1633 83.0263 11.602C83.269 12.0313 83.3903 12.5307 83.3903 13.1V18H81.5563V13.534C81.5563 13.198 81.4956 12.9087 81.3743 12.666C81.253 12.4233 81.085 12.2367 80.8703 12.106C80.6556 11.966 80.3943 11.896 80.0863 11.896C79.797 11.896 79.5403 11.966 79.3163 12.106C79.0923 12.2367 78.9196 12.4233 78.7983 12.666C78.677 12.9087 78.6163 13.198 78.6163 13.534V18H76.7823V13.534C76.7823 13.198 76.7216 12.9087 76.6003 12.666C76.479 12.4233 76.3063 12.2367 76.0823 12.106C75.8676 11.966 75.611 11.896 75.3123 11.896C75.023 11.896 74.7663 11.966 74.5423 12.106C74.3183 12.2367 74.1456 12.4233 74.0243 12.666C73.903 12.9087 73.8423 13.198 73.8423 13.534V18H72.0083Z" fill="#D0D4DE"/>
<path d="M12 24C18.6274 24 24 18.6274 24 12C24 5.37258 18.6274 0 12 0C5.37258 0 0 5.37258 0 12C0 18.6274 5.37258 24 12 24Z" fill="#13B5EC"/>
<path fill-rule="evenodd" clip-rule="evenodd" d="M12.9 9.675L15.6 8.1V11.25L12.9 9.675ZM15.6 16.425L12 18.525L8.4 16.425V12.75L12 14.85L15.6 12.75V16.425ZM8.4 8.1L11.1 9.675L8.4 11.25V8.1ZM12.45 10.425L15.15 12L12.45 13.575V10.425ZM11.55 13.575L8.85 12L11.55 10.425V13.575ZM15.15 7.35L12 9.15L8.85 7.35L12 5.475L15.15 7.35ZM7.5 7.05V16.875L12 19.425L16.5 16.875V7.05L12 4.5L7.5 7.05Z" fill="white"/>
</svg>
