<svg width="1245" height="768" viewBox="0 0 1245 768" fill="none" xmlns="http://www.w3.org/2000/svg">
<mask id="mask0_2254_2382" style="mask-type:alpha" maskUnits="userSpaceOnUse" x="0" y="-42" width="1440" height="810">
<rect y="-42" width="1440" height="810" fill="url(#paint0_linear_2254_2382)"/>
</mask>
<g mask="url(#mask0_2254_2382)">
<path opacity="0.0144928" d="M1184.24 522.407L1212.21 366.222C1213.26 360.385 1211.96 354.371 1208.59 349.488L1073.45 153.4C1070.8 149.56 1067.03 146.637 1062.65 145.036L869.978 74.5997C862.036 71.6963 853.137 73.4908 846.941 79.2452L747.361 171.727C741.165 177.481 738.719 186.224 741.028 194.358L797.05 391.702C798.324 396.188 800.96 400.168 804.594 403.09L990.173 552.337C994.794 556.053 1000.7 557.795 1006.59 557.184L1164.42 540.821C1174.39 539.787 1182.48 532.278 1184.24 522.407Z" stroke="url(#paint1_linear_2254_2382)" stroke-width="5"/>
<path opacity="0.0289855" d="M1162.28 537.493L1198.36 384.226C1199.72 378.445 1198.74 372.36 1195.63 367.299L1072.23 166.296C1069.78 162.31 1066.15 159.185 1061.85 157.357L874.732 77.9167C866.959 74.6164 857.992 75.9469 851.512 81.362L747.897 167.946C741.417 173.361 738.515 181.949 740.382 190.185L785.318 388.436C786.352 392.998 788.782 397.124 792.27 400.241L968.154 557.387C972.582 561.344 978.396 563.389 984.326 563.077L1141.56 554.808C1151.55 554.282 1159.99 547.228 1162.28 537.493Z" stroke="url(#paint2_linear_2254_2382)" stroke-width="5"/>
<path opacity="0.0434783" d="M1140 551.83L1183.95 401.897C1185.62 396.189 1184.97 390.051 1182.13 384.825L1070.61 179.594C1068.37 175.472 1064.9 172.153 1060.68 170.101L879.528 82.0415C871.943 78.3543 862.933 79.2185 856.187 84.2804L748.88 164.8C742.134 169.862 738.786 178.271 740.206 186.585L774.116 385.128C774.906 389.753 777.122 394.015 780.454 397.319L946.328 561.763C950.552 565.95 956.262 568.295 962.21 568.284L1118.45 568.002C1128.43 567.984 1137.2 561.402 1140 551.83Z" stroke="url(#paint3_linear_2254_2382)" stroke-width="5"/>
<path opacity="0.057971" d="M1117.44 565.409L1169.02 419.209C1171 413.591 1170.67 407.417 1168.11 402.04L1068.57 193.27C1066.55 189.022 1063.24 185.516 1059.12 183.245L884.319 86.9693C876.941 82.9059 867.912 83.3031 860.92 87.9988L750.27 162.307C743.277 167.002 739.493 175.21 740.463 183.576L763.442 381.806C763.984 386.481 765.979 390.869 769.145 394.351L924.732 565.48C928.739 569.888 934.33 572.526 940.28 572.818L1095.12 580.397C1105.06 580.883 1114.13 574.789 1117.44 565.409Z" stroke="url(#paint4_linear_2254_2382)" stroke-width="5"/>
<path opacity="0.0724638" d="M1094.65 578.22L1153.58 436.137C1155.86 430.627 1155.87 424.434 1153.59 418.921L1066.1 207.298C1064.29 202.935 1061.16 199.25 1057.15 196.764L889.061 92.6926C881.91 88.2649 872.886 88.1956 865.668 92.5129L752.026 160.481C744.808 164.799 740.6 172.782 741.118 181.177L753.294 378.498C753.585 383.21 755.351 387.712 758.341 391.365L903.399 568.558C907.178 573.174 912.636 576.101 918.572 576.694L1071.63 591.989C1081.5 592.975 1090.85 587.382 1094.65 578.22Z" stroke="url(#paint5_linear_2254_2382)" stroke-width="5"/>
<path opacity="0.0869565" d="M1071.67 590.26L1137.66 452.659C1140.25 447.272 1140.58 441.078 1138.59 435.444L1063.17 221.651C1061.59 217.185 1058.65 213.329 1054.75 210.634L893.711 99.2014C886.804 94.422 877.81 93.8879 870.386 97.8161L754.111 159.337C746.687 163.265 742.069 171.002 742.135 179.401L743.667 375.232C743.704 379.968 745.235 384.571 748.041 388.387L882.365 571.015C885.905 575.828 891.214 579.036 897.122 579.93L1048.01 602.776C1057.79 604.257 1067.39 599.178 1071.67 590.26Z" stroke="url(#paint6_linear_2254_2382)" stroke-width="5"/>
<path opacity="0.101449" d="M1048.54 601.525L1121.29 468.753C1124.17 463.505 1124.83 457.328 1123.14 451.587L1059.77 236.304C1058.43 231.746 1055.68 227.729 1051.92 224.83L898.225 106.484C891.579 101.367 882.639 100.371 875.03 103.9L756.484 158.886C748.875 162.415 743.86 169.884 743.475 178.263L734.554 372.034C734.336 376.78 735.626 381.474 738.239 385.443L861.66 572.873C864.951 577.871 870.098 581.352 875.962 582.546L1024.32 612.76C1033.98 614.728 1043.8 610.174 1048.54 601.525Z" stroke="url(#paint7_linear_2254_2382)" stroke-width="5"/>
<path opacity="0.115942" d="M1025.31 612.016L1104.5 484.398C1107.66 479.306 1108.66 473.162 1107.27 467.331L1055.9 251.227C1054.8 246.589 1052.25 242.421 1048.62 239.325L902.562 114.525C896.194 109.084 887.332 107.631 879.56 110.752L759.103 159.136C751.331 162.257 745.936 169.437 745.101 177.771L725.949 368.931C725.474 373.675 726.517 378.446 728.929 382.558L841.316 574.155C844.349 579.325 849.319 583.071 855.124 584.563L1000.59 621.944C1010.11 624.392 1020.12 620.371 1025.31 612.016Z" stroke="url(#paint8_linear_2254_2382)" stroke-width="5"/>
<path opacity="0.130435" d="M1002.02 621.734L1087.3 499.577C1090.74 494.655 1092.07 488.564 1090.99 482.658L1051.53 266.394C1050.67 261.688 1048.33 257.379 1044.86 254.091L906.68 123.308C900.606 117.559 891.845 115.654 883.932 118.361L761.928 160.093C754.015 162.799 748.256 169.672 746.976 177.936L717.841 365.95C717.109 370.677 717.901 375.514 720.105 379.759L821.362 574.886C824.127 580.214 828.906 584.217 834.638 586.003L976.873 630.335C986.233 633.252 996.405 629.773 1002.02 621.734Z" stroke="url(#paint9_linear_2254_2382)" stroke-width="5"/>
<path opacity="0.144928" d="M978.712 630.685L1069.74 514.272C1073.45 509.536 1075.1 503.514 1074.34 497.55L1046.66 281.775C1046.05 277.015 1043.93 272.574 1040.62 269.103L910.542 132.814C904.777 126.774 896.14 124.423 888.108 126.708L764.92 161.761C756.888 164.046 750.783 170.592 749.061 178.763L710.222 363.116C709.233 367.812 709.771 372.701 711.758 377.07L801.825 575.092C804.315 580.565 808.891 584.814 814.534 586.891L953.215 637.94C962.388 641.316 972.691 638.384 978.712 630.685Z" stroke="url(#paint10_linear_2254_2382)" stroke-width="5"/>
<path opacity="0.15942" d="M955.434 638.875L1051.84 528.47C1055.8 523.934 1057.78 517.998 1057.33 511.993L1041.28 297.342C1040.92 292.539 1039.03 287.979 1035.89 284.331L914.108 143.023C908.665 136.707 900.175 133.919 892.047 135.778L768.037 164.143C759.909 166.002 753.476 172.203 751.319 180.258L703.079 360.453C701.834 365.105 702.114 370.034 703.878 374.514L782.733 574.801C784.939 580.405 789.3 584.89 794.839 587.254L929.656 644.771C938.619 648.595 949.024 646.215 955.434 638.875Z" stroke="url(#paint11_linear_2254_2382)" stroke-width="5"/>
<path opacity="0.173913" d="M932.222 646.314L1033.63 542.156C1037.84 537.833 1040.13 532.002 1040 525.971L1035.38 313.065C1035.27 308.233 1033.62 303.564 1030.65 299.748L917.342 153.911C912.234 147.337 903.914 144.12 895.712 145.549L771.239 167.237C763.037 168.666 756.295 174.506 753.712 182.42L696.399 357.986C694.9 362.58 694.919 367.534 696.454 372.116L764.107 574.041C766.024 579.761 770.157 584.472 775.579 587.116L906.237 650.841C914.968 655.099 925.446 653.274 932.222 646.314Z" stroke="url(#paint12_linear_2254_2382)" stroke-width="5"/>
<path opacity="0.188406" d="M909.118 653.012L1015.14 555.318C1019.58 551.224 1022.19 545.514 1022.38 539.475L1028.96 328.914C1029.11 324.067 1027.69 319.301 1024.91 315.326L920.208 165.453C915.448 158.639 907.319 155.005 899.067 156.001L774.487 171.04C766.235 172.036 759.204 177.501 756.202 185.252L690.17 355.736C688.418 360.259 688.175 365.225 689.475 369.897L745.973 572.843C747.593 578.664 751.487 583.589 756.777 586.508L883 656.165C891.478 660.844 901.998 659.574 909.118 653.012Z" stroke="url(#paint13_linear_2254_2382)" stroke-width="5"/>
<path opacity="0.202899" d="M886.163 658.984L996.399 567.948C1001.07 564.094 1003.98 558.523 1004.49 552.491L1022.01 344.861C1022.42 340.012 1021.25 335.16 1018.67 331.034L922.676 177.622C918.274 170.587 910.358 166.546 902.078 167.108L777.741 175.549C769.462 176.111 762.164 181.184 758.753 188.75L684.376 353.728C682.376 358.164 681.868 363.13 682.929 367.88L728.35 571.237C729.669 577.144 733.312 582.27 738.457 585.458L859.985 660.761C868.189 665.845 878.722 665.13 886.163 658.984Z" stroke="url(#paint14_linear_2254_2382)" stroke-width="5"/>
<path opacity="0.217391" d="M863.393 664.246L977.44 580.038C982.318 576.436 985.535 571.019 986.364 565.013L1014.54 360.876C1015.21 356.037 1014.28 351.113 1011.9 346.846L924.711 190.391C920.677 183.154 912.994 178.719 904.71 178.847L780.963 180.755C772.679 180.883 765.136 185.552 761.328 192.91L678.999 351.98C676.754 356.318 675.982 361.269 676.798 366.084L711.255 569.256C712.269 575.233 715.652 580.549 720.638 583.998L837.228 664.65C845.139 670.122 855.654 669.96 863.393 664.246Z" stroke="url(#paint15_linear_2254_2382)" stroke-width="5"/>
<path opacity="0.231884" d="M840.846 668.815L958.295 591.58C963.369 588.243 966.879 582.997 968.027 577.033L1006.54 376.929C1007.47 372.115 1006.79 367.13 1004.63 362.732L926.285 203.728C922.629 196.309 915.198 191.494 906.933 191.188L784.115 186.649C775.85 186.344 768.083 190.598 763.89 197.727L674.025 350.514C671.539 354.74 670.502 359.662 671.07 364.531L694.708 566.932C695.412 572.964 698.525 578.455 703.339 582.158L814.767 667.851C822.367 673.696 832.835 674.083 840.846 668.815Z" stroke="url(#paint16_linear_2254_2382)" stroke-width="5"/>
<path opacity="0.246377" d="M818.558 672.711L938.993 602.571C944.25 599.509 948.044 594.449 949.508 588.545L998.013 392.991C999.197 388.215 998.784 383.182 996.835 378.664L927.37 217.605C924.1 210.023 916.94 204.841 908.716 204.105L787.161 193.221C778.937 192.485 770.97 196.312 766.405 203.192L669.433 349.349C666.713 353.45 665.412 358.329 665.729 363.239L678.722 564.299C679.114 570.37 681.948 576.023 686.577 579.97L792.637 670.39C799.908 676.588 810.301 677.519 818.558 672.711Z" stroke="url(#paint17_linear_2254_2382)" stroke-width="5"/>
<path opacity="0.26087" d="M796.562 675.954L919.567 613.008C924.992 610.232 929.059 605.374 930.837 599.544L988.964 409.034C990.405 404.309 990.252 399.241 988.527 394.613L927.941 231.986C925.063 224.262 918.193 218.73 910.033 217.566L790.063 200.457C781.904 199.293 773.761 202.684 768.839 209.296L665.207 348.502C662.257 352.465 660.693 357.287 660.756 362.226L663.309 561.391C663.388 567.485 665.934 573.286 670.367 577.469L770.872 672.291C777.797 678.825 788.086 680.292 796.562 675.954Z" stroke="url(#paint18_linear_2254_2382)" stroke-width="5"/>
<path opacity="0.275362" d="M774.892 678.569L900.046 622.89C905.624 620.408 909.954 615.766 912.042 610.03L979.397 425.027C981.093 420.368 981.203 415.278 979.708 410.55L927.974 246.839C925.495 238.994 918.931 233.127 910.858 231.541L792.789 208.341C784.715 206.755 776.42 209.702 771.157 216.026L661.325 347.99C658.152 351.802 656.328 356.554 656.135 361.509L648.482 558.243C648.245 564.343 650.497 570.278 654.721 574.686L749.502 673.58C756.067 680.43 766.223 682.426 774.892 678.569Z" stroke="url(#paint19_linear_2254_2382)" stroke-width="5"/>
<path opacity="0.289855" d="M753.578 680.581L880.461 632.218C886.175 630.039 890.757 625.628 893.151 620L969.318 440.945C971.266 436.364 971.641 431.266 970.382 426.449L927.447 262.129C925.371 254.183 919.13 248 911.165 245.996L795.303 216.858C787.338 214.855 778.915 217.351 773.326 223.369L657.766 347.83C654.379 351.478 652.297 356.147 651.847 361.104L634.248 554.889C633.695 560.98 635.645 567.034 639.649 571.656L728.558 674.289C734.748 681.434 744.744 683.948 753.578 680.581Z" stroke="url(#paint20_linear_2254_2382)" stroke-width="5"/>
<path opacity="0.304348" d="M732.651 682.014L860.843 640.993C866.678 639.125 871.5 634.959 874.194 629.456L958.735 456.757C960.933 452.268 961.573 447.175 960.555 442.282L926.342 277.819C924.672 269.794 918.77 263.311 910.935 260.899L797.573 225.988C789.739 223.576 781.213 225.615 775.317 231.311L654.511 348.034C650.917 351.507 648.581 356.078 647.872 361.025L620.614 551.365C619.746 557.43 621.388 563.587 625.162 568.414L708.069 674.444C713.871 681.864 723.68 684.885 732.651 682.014Z" stroke="url(#paint21_linear_2254_2382)" stroke-width="5"/>
<path opacity="0.318841" d="M712.138 682.898L841.221 649.22C847.161 647.671 852.209 643.762 855.197 638.4L947.659 472.438C950.101 468.054 951.008 462.98 950.235 458.021L924.641 293.874C923.38 285.79 917.83 279.027 910.148 276.213L799.57 235.712C791.887 232.898 783.282 234.476 777.098 239.834L651.537 348.616C647.744 351.902 645.159 356.362 644.192 361.286L607.586 547.706C606.403 553.729 607.732 559.974 611.266 564.994L688.059 674.079C693.461 681.752 703.058 685.267 712.138 682.898Z" stroke="url(#paint22_linear_2254_2382)" stroke-width="5"/>
<path opacity="0.333333" d="M692.063 683.261L821.626 656.906C827.652 655.68 832.914 652.041 836.187 646.835L936.098 487.962C938.781 483.696 939.954 478.654 939.429 473.642L922.329 310.257C921.479 302.135 916.295 295.111 908.784 291.905L801.262 246.006C793.752 242.8 785.094 243.915 778.641 248.919L648.822 349.589C644.84 352.676 642.009 357.012 640.785 361.9L595.164 543.948C593.669 549.913 594.681 556.23 597.964 561.43L668.553 673.225C673.544 681.13 682.903 685.125 692.063 683.261Z" stroke="url(#paint23_linear_2254_2382)" stroke-width="5"/>
<path opacity="0.347826" d="M672.453 683.133L802.085 664.055C808.18 663.158 813.641 659.801 817.193 654.767L924.066 503.302C926.984 499.167 928.422 494.17 928.149 489.117L919.394 326.928C918.955 318.79 914.149 311.525 906.831 307.938L802.623 256.849C795.305 253.262 786.619 253.912 779.917 258.549L646.343 350.961C642.181 353.84 639.112 358.038 637.63 362.876L583.351 540.125C581.547 546.016 582.237 552.389 585.261 557.757L649.574 671.916C654.144 680.03 663.24 684.489 672.453 683.133Z" stroke="url(#paint24_linear_2254_2382)" stroke-width="5"/>
<path opacity="0.362319" d="M653.328 682.546L782.626 670.679C788.773 670.115 794.418 667.05 798.24 662.203L911.576 518.434C914.722 514.443 916.424 509.505 916.406 504.423L915.826 343.85C915.796 335.717 911.38 328.232 904.274 324.275L803.625 268.216C796.519 264.258 787.831 264.444 780.9 268.701L644.076 352.744C639.746 355.404 636.444 359.451 634.707 364.227L572.144 536.274C570.034 542.075 570.4 548.488 573.157 554.011L631.139 670.188C635.281 678.487 644.091 683.394 653.328 682.546Z" stroke="url(#paint25_linear_2254_2382)" stroke-width="5"/>
<path opacity="0.376812" d="M634.708 681.531L763.279 676.786C769.459 676.558 775.273 673.796 779.354 669.149L898.643 533.334C902.011 529.5 903.975 524.634 904.213 519.536L911.617 360.985C911.995 352.877 907.978 345.194 901.103 340.879L804.244 280.08C797.37 275.765 788.704 275.487 781.567 279.353L641.999 354.944C637.511 357.375 633.983 361.259 631.994 365.959L561.54 532.428C559.13 538.123 559.17 544.559 561.651 550.224L613.269 668.073C616.975 676.535 625.477 681.872 634.708 681.531Z" stroke="url(#paint26_linear_2254_2382)" stroke-width="5"/>
<path opacity="0.391304" d="M616.612 680.122L744.067 682.388C750.262 682.498 756.229 680.049 760.559 675.617L885.282 547.98C888.865 544.314 891.089 539.534 891.584 534.432L906.76 378.294C907.543 370.232 903.934 362.372 897.308 357.713L804.458 292.416C797.832 287.757 789.214 287.018 781.893 290.482L640.087 357.568C635.454 359.761 631.707 363.47 629.469 368.081L551.534 528.621C548.828 534.195 548.54 540.639 550.739 546.432L595.977 665.61C599.241 674.211 607.414 679.958 616.612 680.122Z" stroke="url(#paint27_linear_2254_2382)" stroke-width="5"/>
<path opacity="0.405797" d="M599.056 678.352L725.018 687.498C731.21 687.948 737.313 685.819 741.881 681.615L871.512 562.349C875.302 558.862 877.78 554.182 878.535 549.088L901.253 395.738C902.437 387.743 899.243 379.727 892.884 374.738L804.244 305.194C797.885 300.205 789.339 299.01 781.856 302.063L638.318 360.622C633.55 362.567 629.594 366.089 627.109 370.599L542.118 524.888C539.122 530.326 538.507 536.76 540.417 542.667L579.277 662.834C582.095 671.551 589.918 677.688 599.056 678.352Z" stroke="url(#paint28_linear_2254_2382)" stroke-width="5"/>
<path opacity="0.42029" d="M582.052 676.255L706.155 692.13C712.325 692.92 718.547 691.119 723.342 687.157L857.349 576.42C861.337 573.125 864.067 568.557 865.081 563.484L895.094 413.279C896.674 405.371 893.901 397.222 887.826 391.919L803.583 318.386C797.507 313.083 789.059 311.437 781.437 314.072L636.665 364.109C631.776 365.799 627.619 369.121 624.893 373.517L533.283 521.261C530.005 526.548 529.062 532.956 530.677 538.963L563.179 659.782C565.549 668.591 573.003 675.098 582.052 676.255Z" stroke="url(#paint29_linear_2254_2382)" stroke-width="5"/>
<path opacity="0.434783" d="M565.613 673.867L687.503 696.3C693.633 697.429 699.956 695.963 704.965 692.254L842.815 590.175C846.991 587.082 849.968 582.639 851.241 577.6L888.285 430.878C890.254 423.077 887.908 414.818 882.132 409.217L802.458 331.963C796.681 326.362 788.354 324.272 780.617 326.481L635.107 368.032C630.11 369.459 625.761 372.571 622.799 376.841L525.018 517.773C521.465 522.894 520.196 529.26 521.512 535.352L547.694 656.491C549.613 665.369 556.681 672.223 565.613 673.867Z" stroke="url(#paint30_linear_2254_2382)" stroke-width="5"/>
<path opacity="0.449275" d="M549.749 671.221L669.083 700.024C675.154 701.49 681.561 700.366 686.771 696.921L827.927 603.594C832.283 600.714 835.501 596.409 837.031 591.417L880.827 448.498C883.179 440.823 881.264 432.477 875.801 426.595L800.852 345.893C795.389 340.011 787.207 337.485 779.379 339.264L633.617 372.392C628.526 373.549 623.995 376.441 620.802 380.572L517.31 514.455C513.491 519.396 511.897 525.703 512.91 531.866L532.826 653C534.293 661.922 540.959 669.1 549.749 671.221Z" stroke="url(#paint31_linear_2254_2382)" stroke-width="5"/>
<path opacity="0.463768" d="M534.467 668.354L650.917 703.32C656.911 705.12 663.384 704.342 668.781 701.173L812.71 616.661C817.234 614.004 820.687 609.85 822.473 604.917L872.728 466.102C875.454 458.572 873.973 450.161 868.837 444.015L798.753 360.147C793.618 354.002 785.604 351.049 777.709 352.394L632.174 377.189C627.002 378.07 622.301 380.731 618.883 384.711L510.146 511.337C506.069 516.085 504.153 522.317 504.859 528.535L518.582 649.344C519.598 658.288 525.846 665.766 534.467 668.354Z" stroke="url(#paint32_linear_2254_2382)" stroke-width="5"/>
<path opacity="0.478261" d="M519.773 665.301L633.026 706.206C638.924 708.337 645.444 707.909 651.013 705.026L797.183 629.359C801.864 626.935 805.547 622.945 807.586 618.083L863.995 483.653C867.086 476.286 866.039 467.833 861.244 461.443L796.148 374.692C791.354 368.302 783.53 364.933 775.593 365.842L630.753 382.422C625.515 383.022 620.654 385.441 617.019 389.259L503.508 508.449C499.183 512.99 496.949 519.13 497.346 525.389L504.962 645.562C505.528 654.504 511.346 662.257 519.773 665.301Z" stroke="url(#paint33_linear_2254_2382)" stroke-width="5"/>
<path opacity="0.492754" d="M505.671 662.096L615.429 708.702C621.213 711.158 627.761 711.084 633.488 708.496L781.37 641.675C786.198 639.493 790.102 635.677 792.393 630.9L854.637 501.114C858.083 493.929 857.471 485.456 853.028 478.841L793.029 389.496C788.586 382.881 780.975 379.109 773.02 379.58L629.331 388.088C624.042 388.402 619.034 390.571 615.187 394.215L497.379 505.819C492.817 510.141 490.27 516.174 490.355 522.457L491.967 641.69C492.088 650.606 497.463 658.61 505.671 662.096Z" stroke="url(#paint34_linear_2254_2382)" stroke-width="5"/>
<path opacity="0.507246" d="M492.16 658.774L598.142 710.828C603.794 713.604 610.351 713.885 616.22 711.601L765.294 653.594C770.256 651.663 774.373 648.035 776.912 643.354L844.665 518.451C848.455 511.464 848.277 502.996 844.197 496.174L789.384 404.529C785.304 397.707 777.927 393.544 769.978 393.578L627.885 394.184C622.56 394.207 617.415 396.117 613.366 399.576L491.74 503.474C486.952 507.564 484.097 513.474 483.869 519.767L479.594 637.764C479.273 646.633 484.195 654.862 492.16 658.774Z" stroke="url(#paint35_linear_2254_2382)" stroke-width="5"/>
<path opacity="0.521739" d="M479.242 655.372L581.181 712.606C586.684 715.695 593.232 716.332 599.227 714.36L748.979 665.106C754.063 663.434 758.385 660.004 761.168 655.432L834.093 535.63C838.215 528.858 838.469 520.416 834.761 513.408L785.21 419.757C781.502 412.749 774.38 408.21 766.462 407.808L626.391 400.704C621.045 400.433 615.778 402.076 611.535 405.339L486.569 501.44C481.567 505.287 478.41 511.058 477.869 517.346L467.84 633.822C467.082 642.621 471.542 651.049 479.242 655.372Z" stroke="url(#paint36_linear_2254_2382)" stroke-width="5"/>
<path opacity="0.536232" d="M466.912 651.922L564.563 714.056C569.899 717.451 576.417 718.444 582.522 716.791L732.449 676.2C737.643 674.794 742.161 671.573 745.184 667.121L822.937 552.618C827.379 546.076 828.061 537.683 824.734 530.51L780.501 435.148C777.174 427.975 770.326 423.075 762.463 422.241L624.828 407.642C619.477 407.074 614.1 408.443 609.672 411.5L481.846 499.74C476.641 503.333 473.189 508.951 472.335 515.217L456.697 629.899C455.51 638.605 459.499 647.205 466.912 651.922Z" stroke="url(#paint37_linear_2254_2382)" stroke-width="5"/>
<path opacity="0.550725" d="M455.167 648.458L548.301 715.202C553.453 718.894 559.923 720.242 566.12 718.914L715.731 686.866C721.02 685.733 725.725 682.733 728.982 678.414L811.214 569.382C815.962 563.086 817.068 554.765 814.129 547.447L775.257 450.671C772.318 443.353 765.763 438.109 757.979 436.847L623.174 414.991C617.835 414.125 612.362 415.212 607.758 418.052L477.547 498.399C472.153 501.727 468.413 507.176 467.247 513.405L446.158 626.029C444.549 634.62 448.062 643.367 455.167 648.458Z" stroke="url(#paint38_linear_2254_2382)" stroke-width="5"/>
<path opacity="0.565217" d="M444 645.015L532.407 716.067C537.358 720.046 543.76 721.747 550.033 720.75L698.848 697.099C704.22 696.245 709.1 693.475 712.586 689.3L798.942 585.893C803.982 579.857 805.506 571.628 802.961 564.188L769.476 466.293C766.931 458.853 760.686 453.281 753.006 451.597L621.409 422.742C616.096 421.577 610.541 422.376 605.772 424.991L473.648 497.436C468.078 500.49 464.059 505.756 462.582 511.934L436.212 622.246C434.19 630.703 437.222 639.568 444 645.015Z" stroke="url(#paint39_linear_2254_2382)" stroke-width="5"/>
<path opacity="0.57971" d="M433.402 641.624L516.891 716.673C521.625 720.929 527.94 722.98 534.272 722.318L681.827 706.891C687.266 706.322 692.312 703.792 696.022 699.772L786.143 602.12C791.46 596.359 793.395 588.244 791.249 580.703L763.159 481.984C761.013 474.442 755.096 468.562 747.542 466.463L619.511 430.885C614.241 429.421 608.619 429.926 603.695 432.307L470.122 496.873C464.391 499.643 460.101 504.712 458.316 510.823L426.846 618.583C424.422 626.885 426.97 635.842 433.402 641.624Z" stroke="url(#paint40_linear_2254_2382)" stroke-width="5"/>
<path opacity="0.594203" d="M423.364 638.317L501.762 717.046C506.264 721.567 512.474 723.964 518.846 723.64L664.692 716.238C670.185 715.959 675.386 713.678 679.312 709.825L772.838 618.038C778.417 612.562 780.755 604.583 779.011 596.963L756.31 497.711C754.567 490.091 748.993 483.921 741.588 481.415L617.46 439.411C612.25 437.648 606.575 437.855 601.507 439.992L466.945 496.726C461.066 499.205 456.515 504.063 454.426 510.092L418.048 615.073C415.232 623.2 417.295 632.222 423.364 638.317Z" stroke="url(#paint41_linear_2254_2382)" stroke-width="5"/>
<path opacity="0.608696" d="M413.874 635.124L487.03 717.207C491.285 721.981 497.37 724.719 503.765 724.737L647.471 725.137C653.003 725.152 658.347 723.129 662.481 719.454L759.051 633.618C764.876 628.44 767.607 620.617 766.269 612.939L748.934 513.445C747.597 505.767 742.381 499.328 735.148 496.426L615.239 448.307C610.105 446.247 604.392 446.15 599.191 448.036L464.088 497.013C458.076 499.193 453.276 503.827 450.886 509.759L409.801 611.746C406.605 619.68 408.184 628.739 413.874 635.124Z" stroke="url(#paint42_linear_2254_2382)" stroke-width="5"/>
<path opacity="0.623188" d="M404.918 632.076L472.7 717.183C476.693 722.196 482.634 725.269 489.034 725.63L630.188 733.587C635.743 733.9 641.218 732.143 645.554 728.656L744.806 648.838C750.861 643.969 753.975 636.321 753.044 628.608L741.038 529.156C740.107 521.443 735.262 514.756 728.223 511.467L612.828 457.562C607.786 455.207 602.05 454.804 596.729 456.43L461.524 497.749C455.394 499.622 450.354 504.021 447.669 509.841L402.087 608.632C398.525 616.354 399.62 625.424 404.918 632.076Z" stroke="url(#paint43_linear_2254_2382)" stroke-width="5"/>
<path opacity="0.637681" d="M396.48 629.201L458.777 716.996C462.494 722.235 468.274 725.635 474.66 726.34L612.869 741.586C618.433 742.2 624.026 740.718 628.556 737.428L730.13 663.673C736.397 659.123 739.883 651.669 739.359 643.943L732.629 544.815C732.105 537.088 727.643 530.174 720.819 526.512L610.209 467.161C605.277 464.514 599.534 463.801 594.104 465.161L459.223 498.946C452.992 500.507 447.724 504.657 444.749 510.351L394.889 605.759C390.973 613.252 391.588 622.307 396.48 629.201Z" stroke="url(#paint44_linear_2254_2382)" stroke-width="5"/>
<path opacity="0.652174" d="M388.545 626.526L445.265 716.671C448.694 722.121 454.294 725.841 460.647 726.889L595.54 749.137C601.097 750.054 606.796 748.853 611.511 745.772L715.051 678.103C721.512 673.88 725.358 666.64 725.239 658.922L723.719 560.392C723.6 552.674 719.533 545.555 712.944 541.534L607.367 477.09C602.56 474.156 596.827 473.131 591.3 474.218L457.158 500.616C450.84 501.859 445.357 505.75 442.098 511.303L388.184 603.154C383.931 610.401 384.07 619.414 388.545 626.526Z" stroke="url(#paint45_linear_2254_2382)" stroke-width="5"/>
<path opacity="0.666667" d="M381.093 624.078L432.165 716.233C435.294 721.879 440.696 725.909 446.999 727.299L578.226 756.243C583.761 757.464 589.552 756.551 594.443 753.687L699.594 692.109C706.233 688.221 710.425 681.211 710.709 673.524L714.318 575.861C714.602 568.174 710.939 560.874 704.606 556.507L604.286 487.335C599.62 484.118 593.912 482.78 588.302 483.589L455.297 502.768C448.909 503.689 443.224 507.309 439.687 512.708L381.952 600.842C377.376 607.828 377.045 616.774 381.093 624.078Z" stroke="url(#paint46_linear_2254_2382)" stroke-width="5"/>
<path opacity="0.681159" d="M374.107 621.882L419.48 715.706C422.297 721.53 427.484 725.86 433.718 727.591L560.953 762.908C566.448 764.433 572.319 763.814 577.376 761.177L683.792 705.672C690.589 702.127 695.113 695.365 695.797 687.729L704.44 591.196C705.124 583.56 701.873 576.102 695.813 571.406L600.951 497.879C596.443 494.385 590.776 492.733 585.096 493.258L453.611 505.41C447.169 506.005 441.295 509.345 437.489 514.576L376.169 598.848C371.287 605.558 370.494 614.411 374.107 621.882Z" stroke="url(#paint47_linear_2254_2382)" stroke-width="5"/>
<path opacity="0.695652" d="M367.565 619.959L407.208 715.112C409.702 721.099 414.658 725.718 420.805 727.785L543.744 769.136C549.185 770.966 555.12 770.647 560.334 768.244L667.672 718.777C674.609 715.58 679.451 709.082 680.529 701.52L694.099 606.37C695.177 598.808 692.346 591.215 686.578 586.206L597.348 508.706C593.014 504.942 587.404 502.977 581.668 503.213L452.071 508.548C445.592 508.815 439.542 511.864 435.474 516.915L370.812 597.192C365.64 603.613 364.394 612.349 367.565 619.959Z" stroke="url(#paint48_linear_2254_2382)" stroke-width="5"/>
<path opacity="0.710145" d="M361.445 618.334L395.347 714.477C397.509 720.608 402.217 725.504 408.258 727.904L526.624 774.935C531.995 777.069 537.98 777.055 543.341 774.895L651.265 731.412C658.325 728.568 663.468 722.348 664.935 714.88L683.311 621.361C684.778 613.893 682.371 606.19 676.913 600.886L593.464 519.8C589.32 515.773 583.784 513.495 578.006 513.438L450.645 512.186C444.145 512.122 437.934 514.873 433.613 519.73L365.854 595.897C360.41 602.016 358.721 610.61 361.445 618.334Z" stroke="url(#paint49_linear_2254_2382)" stroke-width="5"/>
<path opacity="0.724638" d="M355.725 617.026L383.895 713.822C385.716 720.079 390.16 725.24 396.078 727.968L509.617 780.314C514.9 782.75 520.922 783.044 526.419 781.135L634.604 743.563C641.766 741.076 647.194 735.149 649.043 727.796L672.092 636.144C673.941 628.792 671.963 621.002 666.83 615.423L589.289 531.142C585.35 526.861 579.905 524.271 574.097 523.918L449.304 516.326C442.799 515.93 436.442 518.374 431.878 523.025L361.269 594.98C355.571 600.786 353.451 609.215 355.725 617.026Z" stroke="url(#paint50_linear_2254_2382)" stroke-width="5"/>
<path opacity="0.73913" d="M350.38 616.053L372.846 713.171C374.318 719.536 378.484 724.946 384.261 727.997L492.745 785.281C497.926 788.016 503.969 788.623 509.59 786.973L617.719 755.221C624.965 753.093 630.66 747.472 632.883 740.255L660.462 650.698C662.685 643.481 661.138 635.63 656.344 629.794L584.811 542.715C581.092 538.188 575.754 535.29 569.932 534.637L448.016 520.968C441.524 520.24 435.036 522.37 430.238 526.804L357.03 594.458C351.098 599.941 348.559 608.183 350.38 616.053Z" stroke="url(#paint51_linear_2254_2382)" stroke-width="5"/>
<path opacity="0.753623" d="M345.386 615.434L362.194 712.545C363.311 718.998 367.184 724.645 372.802 728.01L476.031 789.847C481.092 792.879 487.142 793.802 492.877 792.416L600.641 766.379C607.952 764.612 613.897 759.309 616.484 752.246L648.439 665.004C651.026 657.941 649.912 650.052 645.472 643.982L580.02 554.5C576.536 549.738 571.322 546.534 565.499 545.58L446.752 526.112C440.289 525.053 433.686 526.862 428.665 531.067L353.11 594.348C346.961 599.498 344.019 607.531 345.386 615.434Z" stroke="url(#paint52_linear_2254_2382)" stroke-width="5"/>
<path opacity="0.768116" d="M340.719 615.184L351.933 711.967C352.689 718.489 356.256 724.356 361.698 728.028L459.496 794.025C464.422 797.349 470.463 798.59 476.301 797.475L583.404 777.03C590.761 775.625 596.937 770.651 599.878 763.762L636.044 679.041C638.984 672.152 638.304 664.251 634.229 657.966L574.908 566.478C571.675 561.492 566.6 557.987 560.792 556.729L445.482 531.755C439.066 530.365 432.362 531.848 427.129 535.813L349.479 594.662C343.134 599.471 339.802 607.275 340.719 615.184Z" stroke="url(#paint53_linear_2254_2382)" stroke-width="5"/>
<path opacity="0.782609" d="M336.351 615.316L342.056 711.457C342.446 718.028 345.693 724.098 350.942 728.069L443.162 797.827C447.936 801.439 453.954 802.999 459.882 802.161L566.038 787.17C573.423 786.127 579.812 781.492 583.095 774.795L623.297 692.791C626.58 686.095 626.332 678.206 622.633 671.729L569.468 578.63C566.5 573.431 561.581 569.63 555.802 568.067L444.177 537.891C437.823 536.173 431.036 537.324 425.603 541.04L346.109 595.412C339.587 599.873 335.883 607.428 336.351 615.316Z" stroke="url(#paint54_linear_2254_2382)" stroke-width="5"/>
<path opacity="0.797101" d="M332.256 615.843L332.552 711.035C332.572 717.634 335.488 723.891 340.528 728.15L427.047 801.267C431.655 805.161 437.632 807.041 443.639 806.487L548.577 796.797C555.971 796.115 562.552 791.828 566.165 785.341L610.221 706.24C613.834 699.753 614.014 691.901 610.702 685.256L563.694 590.937C561.003 585.538 556.257 581.446 550.521 579.578L442.808 544.514C436.534 542.471 429.678 543.286 424.057 546.743L342.97 596.607C336.291 600.714 332.231 608.002 332.256 615.843Z" stroke="url(#paint55_linear_2254_2382)" stroke-width="5"/>
<path opacity="0.811594" d="M328.407 616.775L323.41 710.721C323.059 717.327 325.633 723.754 330.448 728.291L411.172 804.361C415.596 808.53 421.518 810.732 427.592 810.465L531.051 805.912C538.436 805.588 545.189 801.657 549.119 795.396L596.839 719.373C600.768 713.113 601.373 705.322 598.455 698.53L557.58 603.379C555.18 597.793 550.623 593.416 544.945 591.244L441.346 551.616C435.167 549.252 428.261 549.728 422.464 552.916L340.031 598.255C333.216 602.004 328.82 609.007 328.407 616.775Z" stroke="url(#paint56_linear_2254_2382)" stroke-width="5"/>
<path opacity="0.826087" d="M324.777 618.121L314.621 710.533C313.897 717.126 316.118 723.703 320.692 728.507L395.554 807.125C399.779 811.563 405.631 814.085 411.758 814.109L513.494 814.517C520.85 814.547 527.757 810.978 531.989 804.96L583.173 732.176C587.405 726.159 588.428 718.452 585.912 711.539L551.122 615.936C549.027 610.178 544.674 605.524 539.069 603.048L439.765 559.187C433.698 556.507 426.757 556.641 420.798 559.552L337.265 600.363C330.333 603.749 325.62 610.452 324.777 618.121Z" stroke="url(#paint57_linear_2254_2382)" stroke-width="5"/>
<path opacity="0.84058" d="M321.338 619.888L306.172 710.489C305.074 717.048 306.934 723.757 311.252 728.814L380.209 809.576C384.22 814.274 389.985 817.116 396.154 817.436L495.935 822.615C503.245 822.995 510.284 819.794 514.803 814.034L569.248 744.639C573.767 738.879 575.201 731.281 573.093 724.27L544.317 628.589C542.538 622.674 538.405 617.75 532.888 614.972L438.036 567.215C432.097 564.225 425.138 564.015 419.029 566.642L334.64 602.933C327.612 605.956 322.601 612.343 321.338 619.888Z" stroke="url(#paint58_linear_2254_2382)" stroke-width="5"/>
<path opacity="0.855072" d="M318.063 622.082L298.049 710.606C296.579 717.11 298.069 723.93 302.117 729.228L365.154 811.732C368.936 816.681 374.599 819.841 380.796 820.46L478.405 830.213C485.653 830.937 492.803 828.107 497.593 822.62L555.087 756.75C559.877 751.263 561.714 743.796 560.017 736.712L537.163 641.317C535.712 635.261 531.816 630.076 526.401 626.999L436.135 575.689C430.339 572.394 423.379 571.84 417.134 574.176L332.127 605.969C325.023 608.626 319.735 614.684 318.063 622.082Z" stroke="url(#paint59_linear_2254_2382)" stroke-width="5"/>
<path opacity="0.869565" d="M314.923 624.705L290.239 710.9C288.398 717.326 289.511 724.239 293.275 729.763L350.405 813.611C353.941 818.802 359.487 822.278 365.7 823.199L460.934 837.316C468.102 838.379 475.343 835.924 480.387 830.722L540.716 768.503C545.76 763.301 547.99 755.988 546.707 748.856L529.66 654.102C528.548 647.92 524.903 642.485 519.605 639.11L434.036 584.593C428.398 581.001 421.454 580.102 415.087 582.14L329.695 609.471C322.535 611.762 316.993 617.478 314.923 624.705Z" stroke="url(#paint60_linear_2254_2382)" stroke-width="5"/>
<path opacity="0.884058" d="M311.892 627.761L282.727 711.385C280.52 717.714 281.249 724.697 284.716 730.434L335.973 815.234C339.251 820.656 344.662 824.445 350.878 825.67L443.553 843.936C450.624 845.33 457.935 843.252 463.215 838.347L526.159 779.89C531.44 774.986 534.051 767.849 533.183 760.694L521.808 666.924C521.045 660.634 517.666 654.958 512.5 651.289L431.715 593.913C426.25 590.032 419.339 588.789 412.865 590.523L327.316 613.436C320.121 615.364 314.345 620.727 311.892 627.761Z" stroke="url(#paint61_linear_2254_2382)" stroke-width="5"/>
<path opacity="0.898551" d="M308.942 631.248L275.497 712.075C272.928 718.285 273.269 725.318 276.427 731.25L321.873 816.619C324.876 822.262 330.138 826.36 336.344 827.891L426.289 850.082C433.247 851.799 440.606 850.098 446.106 845.502L511.44 790.907C516.939 786.311 519.92 779.371 519.467 772.218L513.608 679.762C513.204 673.383 510.105 667.477 505.086 663.519L429.149 603.63C423.872 599.468 417.011 597.883 410.443 599.309L324.96 617.862C317.749 619.427 311.763 624.429 308.942 631.248Z" stroke="url(#paint62_linear_2254_2382)" stroke-width="5"/>
<path opacity="0.913043" d="M306.046 635.165L268.535 712.983C265.609 719.053 265.557 726.115 268.395 732.227L308.114 817.789C310.83 823.64 315.927 828.043 322.11 829.882L409.169 855.768C415.999 857.798 423.387 856.474 429.086 852.198L496.584 801.549C502.283 797.272 505.62 790.549 505.58 783.424L505.063 692.599C505.026 686.149 502.222 680.024 497.364 675.781L426.316 613.727C421.241 609.294 414.446 607.369 407.8 608.482L322.599 622.744C315.392 623.95 309.219 628.582 306.046 635.165Z" stroke="url(#paint63_linear_2254_2382)" stroke-width="5"/>
<path opacity="0.927536" d="M303.177 639.51L261.822 714.12C258.547 720.029 258.1 727.098 260.606 733.372L294.708 818.763C297.123 824.81 302.038 829.514 308.185 831.66L392.221 861.007C398.908 863.342 406.304 862.392 412.183 858.444L481.617 811.815C487.497 807.867 491.174 801.38 491.543 794.307L496.175 705.415C496.514 698.913 494.02 692.583 489.336 688.06L423.197 624.184C418.337 619.49 411.625 617.229 404.916 618.025L320.206 628.074C313.021 628.927 306.684 633.182 303.177 639.51Z" stroke="url(#paint64_linear_2254_2382)" stroke-width="5"/>
<path opacity="0.942029" d="M300.309 644.277L255.343 715.497C251.727 721.226 250.883 728.279 253.048 734.698L281.663 819.565C283.763 825.794 288.482 830.793 294.58 833.248L375.471 865.816C382 868.444 389.383 867.866 395.423 864.254L466.563 821.705C472.604 818.092 476.606 811.861 477.378 804.865L486.951 718.191C487.672 711.658 485.5 705.135 481.006 700.338L419.773 634.981C415.141 630.037 408.528 627.443 401.77 627.92L317.752 633.845C310.609 634.349 304.132 638.223 300.309 644.277Z" stroke="url(#paint65_linear_2254_2382)" stroke-width="5"/>
<path opacity="0.956522" d="M297.417 649.461L249.08 717.124C245.131 722.651 243.891 729.666 245.705 736.212L268.986 820.215C270.759 826.612 275.266 831.9 281.302 834.663L358.941 870.211C365.3 873.122 372.65 872.911 378.831 869.641L451.446 831.22C457.627 827.949 461.936 821.991 463.106 815.097L477.394 730.91C478.504 724.366 476.668 717.664 472.377 712.6L416.024 646.096C411.632 640.913 405.135 637.992 398.344 638.147L315.211 640.046C308.128 640.208 301.535 643.696 297.417 649.461Z" stroke="url(#paint66_linear_2254_2382)" stroke-width="5"/>
<path opacity="0.971014" d="M294.475 655.054L243.014 719.007C238.744 724.314 237.108 731.268 238.564 737.922L256.684 820.736C258.117 827.286 262.398 832.856 268.358 835.928L342.656 874.211C348.831 877.392 356.128 877.544 362.429 874.621L436.29 840.362C442.591 837.439 447.189 831.77 448.748 825.002L467.511 743.554C469.016 737.019 467.528 730.154 463.453 724.829L411.935 657.506C407.796 652.098 401.429 648.855 394.62 648.687L312.558 646.666C305.553 646.493 298.868 649.594 294.475 655.054Z" stroke="url(#paint67_linear_2254_2382)" stroke-width="5"/>
<path opacity="0.985507" d="M291.459 661.045L237.129 721.155C232.55 726.221 230.52 733.093 231.61 739.835L244.762 821.151C245.844 827.839 249.882 833.684 255.754 837.062L326.637 877.836C332.616 881.275 339.842 881.782 346.243 879.211L421.119 849.136C427.519 846.565 432.387 841.201 434.325 834.581L457.31 756.104C459.214 749.602 458.087 742.589 454.242 737.01L407.491 669.19C403.615 663.567 397.396 660.009 390.584 659.518L309.77 653.691C302.859 653.193 296.105 655.906 291.459 661.045Z" stroke="url(#paint68_linear_2254_2382)" stroke-width="5"/>
<path d="M288.346 667.426L231.405 723.574C226.53 728.381 224.108 735.148 224.827 741.957L233.223 821.482C233.942 828.292 237.722 834.404 243.494 838.087L310.904 881.107C316.676 884.79 323.812 885.645 330.291 883.429L405.954 857.548C412.433 855.332 417.55 850.286 419.857 843.839L446.797 768.546C449.104 762.099 448.35 754.953 444.748 749.129L402.679 681.122C399.077 675.299 393.019 671.433 386.22 670.618L306.82 661.107C300.021 660.293 293.222 662.619 288.346 667.426Z" stroke="url(#paint69_linear_2254_2382)" stroke-width="5"/>
</g>
<defs>
<linearGradient id="paint0_linear_2254_2382" x1="720" y1="-42" x2="720" y2="768" gradientUnits="userSpaceOnUse">
<stop offset="0.748717" stop-color="#D9D9D9"/>
<stop offset="1" stop-color="#D9D9D9" stop-opacity="0"/>
</linearGradient>
<linearGradient id="paint1_linear_2254_2382" x1="1183.39" y1="541.368" x2="759.934" y2="85.4132" gradientUnits="userSpaceOnUse">
<stop stop-color="#2E43FF" stop-opacity="0.66"/>
<stop offset="1" stop-color="#46FFBC"/>
</linearGradient>
<linearGradient id="paint2_linear_2254_2382" x1="1160.42" y1="556.319" x2="764.932" y2="83.0418" gradientUnits="userSpaceOnUse">
<stop stop-color="#2E43FF" stop-opacity="0.66"/>
<stop offset="1" stop-color="#46FFBC"/>
</linearGradient>
<linearGradient id="paint3_linear_2254_2382" x1="1137.14" y1="570.468" x2="770.262" y2="81.5335" gradientUnits="userSpaceOnUse">
<stop stop-color="#2E43FF" stop-opacity="0.66"/>
<stop offset="1" stop-color="#46FFBC"/>
</linearGradient>
<linearGradient id="paint4_linear_2254_2382" x1="1113.6" y1="583.804" x2="775.876" y2="80.8983" gradientUnits="userSpaceOnUse">
<stop stop-color="#2E43FF" stop-opacity="0.66"/>
<stop offset="1" stop-color="#46FFBC"/>
</linearGradient>
<linearGradient id="paint5_linear_2254_2382" x1="1089.85" y1="596.322" x2="781.721" y2="81.1434" gradientUnits="userSpaceOnUse">
<stop stop-color="#2E43FF" stop-opacity="0.66"/>
<stop offset="1" stop-color="#46FFBC"/>
</linearGradient>
<linearGradient id="paint6_linear_2254_2382" x1="1065.92" y1="608.017" x2="787.749" y2="82.2726" gradientUnits="userSpaceOnUse">
<stop stop-color="#2E43FF" stop-opacity="0.66"/>
<stop offset="1" stop-color="#46FFBC"/>
</linearGradient>
<linearGradient id="paint7_linear_2254_2382" x1="1041.87" y1="618.888" x2="793.908" y2="84.2879" gradientUnits="userSpaceOnUse">
<stop stop-color="#2E43FF" stop-opacity="0.66"/>
<stop offset="1" stop-color="#46FFBC"/>
</linearGradient>
<linearGradient id="paint8_linear_2254_2382" x1="1017.75" y1="628.936" x2="800.149" y2="87.1875" gradientUnits="userSpaceOnUse">
<stop stop-color="#2E43FF" stop-opacity="0.66"/>
<stop offset="1" stop-color="#46FFBC"/>
</linearGradient>
<linearGradient id="paint9_linear_2254_2382" x1="993.595" y1="638.165" x2="806.423" y2="90.9674" gradientUnits="userSpaceOnUse">
<stop stop-color="#2E43FF" stop-opacity="0.66"/>
<stop offset="1" stop-color="#46FFBC"/>
</linearGradient>
<linearGradient id="paint10_linear_2254_2382" x1="969.455" y1="646.582" x2="812.681" y2="95.6206" gradientUnits="userSpaceOnUse">
<stop stop-color="#2E43FF" stop-opacity="0.66"/>
<stop offset="1" stop-color="#46FFBC"/>
</linearGradient>
<linearGradient id="paint11_linear_2254_2382" x1="945.375" y1="654.195" x2="818.875" y2="101.138" gradientUnits="userSpaceOnUse">
<stop stop-color="#2E43FF" stop-opacity="0.66"/>
<stop offset="1" stop-color="#46FFBC"/>
</linearGradient>
<linearGradient id="paint12_linear_2254_2382" x1="921.397" y1="661.016" x2="824.958" y2="107.507" gradientUnits="userSpaceOnUse">
<stop stop-color="#2E43FF" stop-opacity="0.66"/>
<stop offset="1" stop-color="#46FFBC"/>
</linearGradient>
<linearGradient id="paint13_linear_2254_2382" x1="897.565" y1="667.058" x2="830.885" y2="114.713" gradientUnits="userSpaceOnUse">
<stop stop-color="#2E43FF" stop-opacity="0.66"/>
<stop offset="1" stop-color="#46FFBC"/>
</linearGradient>
<linearGradient id="paint14_linear_2254_2382" x1="873.92" y1="672.337" x2="836.611" y2="122.739" gradientUnits="userSpaceOnUse">
<stop stop-color="#2E43FF" stop-opacity="0.66"/>
<stop offset="1" stop-color="#46FFBC"/>
</linearGradient>
<linearGradient id="paint15_linear_2254_2382" x1="850.502" y1="676.872" x2="842.093" y2="131.566" gradientUnits="userSpaceOnUse">
<stop stop-color="#2E43FF" stop-opacity="0.66"/>
<stop offset="1" stop-color="#46FFBC"/>
</linearGradient>
<linearGradient id="paint16_linear_2254_2382" x1="827.35" y1="680.682" x2="847.288" y2="141.172" gradientUnits="userSpaceOnUse">
<stop stop-color="#2E43FF" stop-opacity="0.66"/>
<stop offset="1" stop-color="#46FFBC"/>
</linearGradient>
<linearGradient id="paint17_linear_2254_2382" x1="804.501" y1="683.79" x2="852.158" y2="151.532" gradientUnits="userSpaceOnUse">
<stop stop-color="#2E43FF" stop-opacity="0.66"/>
<stop offset="1" stop-color="#46FFBC"/>
</linearGradient>
<linearGradient id="paint18_linear_2254_2382" x1="781.992" y1="686.219" x2="856.664" y2="162.622" gradientUnits="userSpaceOnUse">
<stop stop-color="#2E43FF" stop-opacity="0.66"/>
<stop offset="1" stop-color="#46FFBC"/>
</linearGradient>
<linearGradient id="paint19_linear_2254_2382" x1="759.855" y1="687.995" x2="860.769" y2="174.414" gradientUnits="userSpaceOnUse">
<stop stop-color="#2E43FF" stop-opacity="0.66"/>
<stop offset="1" stop-color="#46FFBC"/>
</linearGradient>
<linearGradient id="paint20_linear_2254_2382" x1="738.123" y1="689.148" x2="864.438" y2="186.877" gradientUnits="userSpaceOnUse">
<stop stop-color="#2E43FF" stop-opacity="0.66"/>
<stop offset="1" stop-color="#46FFBC"/>
</linearGradient>
<linearGradient id="paint21_linear_2254_2382" x1="716.826" y1="689.703" x2="867.639" y2="199.981" gradientUnits="userSpaceOnUse">
<stop stop-color="#2E43FF" stop-opacity="0.66"/>
<stop offset="1" stop-color="#46FFBC"/>
</linearGradient>
<linearGradient id="paint22_linear_2254_2382" x1="695.994" y1="689.694" x2="870.341" y2="213.693" gradientUnits="userSpaceOnUse">
<stop stop-color="#2E43FF" stop-opacity="0.66"/>
<stop offset="1" stop-color="#46FFBC"/>
</linearGradient>
<linearGradient id="paint23_linear_2254_2382" x1="675.652" y1="689.151" x2="872.516" y2="227.978" gradientUnits="userSpaceOnUse">
<stop stop-color="#2E43FF" stop-opacity="0.66"/>
<stop offset="1" stop-color="#46FFBC"/>
</linearGradient>
<linearGradient id="paint24_linear_2254_2382" x1="655.825" y1="688.107" x2="874.138" y2="242.801" gradientUnits="userSpaceOnUse">
<stop stop-color="#2E43FF" stop-opacity="0.66"/>
<stop offset="1" stop-color="#46FFBC"/>
</linearGradient>
<linearGradient id="paint25_linear_2254_2382" x1="636.535" y1="686.598" x2="875.181" y2="258.125" gradientUnits="userSpaceOnUse">
<stop stop-color="#2E43FF" stop-opacity="0.66"/>
<stop offset="1" stop-color="#46FFBC"/>
</linearGradient>
<linearGradient id="paint26_linear_2254_2382" x1="617.803" y1="684.657" x2="875.627" y2="273.913" gradientUnits="userSpaceOnUse">
<stop stop-color="#2E43FF" stop-opacity="0.66"/>
<stop offset="1" stop-color="#46FFBC"/>
</linearGradient>
<linearGradient id="paint27_linear_2254_2382" x1="599.645" y1="682.321" x2="875.453" y2="290.126" gradientUnits="userSpaceOnUse">
<stop stop-color="#2E43FF" stop-opacity="0.66"/>
<stop offset="1" stop-color="#46FFBC"/>
</linearGradient>
<linearGradient id="paint28_linear_2254_2382" x1="582.079" y1="679.626" x2="874.645" y2="306.724" gradientUnits="userSpaceOnUse">
<stop stop-color="#2E43FF" stop-opacity="0.66"/>
<stop offset="1" stop-color="#46FFBC"/>
</linearGradient>
<linearGradient id="paint29_linear_2254_2382" x1="565.117" y1="676.609" x2="873.186" y2="323.668" gradientUnits="userSpaceOnUse">
<stop stop-color="#2E43FF" stop-opacity="0.66"/>
<stop offset="1" stop-color="#46FFBC"/>
</linearGradient>
<linearGradient id="paint30_linear_2254_2382" x1="548.771" y1="673.309" x2="871.066" y2="340.917" gradientUnits="userSpaceOnUse">
<stop stop-color="#2E43FF" stop-opacity="0.66"/>
<stop offset="1" stop-color="#46FFBC"/>
</linearGradient>
<linearGradient id="paint31_linear_2254_2382" x1="533.049" y1="669.762" x2="868.274" y2="358.431" gradientUnits="userSpaceOnUse">
<stop stop-color="#2E43FF" stop-opacity="0.66"/>
<stop offset="1" stop-color="#46FFBC"/>
</linearGradient>
<linearGradient id="paint32_linear_2254_2382" x1="517.958" y1="666.007" x2="864.804" y2="376.169" gradientUnits="userSpaceOnUse">
<stop stop-color="#2E43FF" stop-opacity="0.66"/>
<stop offset="1" stop-color="#46FFBC"/>
</linearGradient>
<linearGradient id="paint33_linear_2254_2382" x1="503.504" y1="662.082" x2="860.65" y2="394.09" gradientUnits="userSpaceOnUse">
<stop stop-color="#2E43FF" stop-opacity="0.66"/>
<stop offset="1" stop-color="#46FFBC"/>
</linearGradient>
<linearGradient id="paint34_linear_2254_2382" x1="489.688" y1="658.025" x2="855.811" y2="412.153" gradientUnits="userSpaceOnUse">
<stop stop-color="#2E43FF" stop-opacity="0.66"/>
<stop offset="1" stop-color="#46FFBC"/>
</linearGradient>
<linearGradient id="paint35_linear_2254_2382" x1="476.509" y1="653.873" x2="850.285" y2="430.319" gradientUnits="userSpaceOnUse">
<stop stop-color="#2E43FF" stop-opacity="0.66"/>
<stop offset="1" stop-color="#46FFBC"/>
</linearGradient>
<linearGradient id="paint36_linear_2254_2382" x1="463.967" y1="649.663" x2="844.075" y2="448.546" gradientUnits="userSpaceOnUse">
<stop stop-color="#2E43FF" stop-opacity="0.66"/>
<stop offset="1" stop-color="#46FFBC"/>
</linearGradient>
<linearGradient id="paint37_linear_2254_2382" x1="452.056" y1="645.432" x2="837.187" y2="466.795" gradientUnits="userSpaceOnUse">
<stop stop-color="#2E43FF" stop-opacity="0.66"/>
<stop offset="1" stop-color="#46FFBC"/>
</linearGradient>
<linearGradient id="paint38_linear_2254_2382" x1="440.77" y1="641.217" x2="829.626" y2="485.028" gradientUnits="userSpaceOnUse">
<stop stop-color="#2E43FF" stop-opacity="0.66"/>
<stop offset="1" stop-color="#46FFBC"/>
</linearGradient>
<linearGradient id="paint39_linear_2254_2382" x1="430.102" y1="637.052" x2="821.402" y2="503.206" gradientUnits="userSpaceOnUse">
<stop stop-color="#2E43FF" stop-opacity="0.66"/>
<stop offset="1" stop-color="#46FFBC"/>
</linearGradient>
<linearGradient id="paint40_linear_2254_2382" x1="420.04" y1="632.973" x2="812.527" y2="521.292" gradientUnits="userSpaceOnUse">
<stop stop-color="#2E43FF" stop-opacity="0.66"/>
<stop offset="1" stop-color="#46FFBC"/>
</linearGradient>
<linearGradient id="paint41_linear_2254_2382" x1="410.572" y1="629.013" x2="803.012" y2="539.251" gradientUnits="userSpaceOnUse">
<stop stop-color="#2E43FF" stop-opacity="0.66"/>
<stop offset="1" stop-color="#46FFBC"/>
</linearGradient>
<linearGradient id="paint42_linear_2254_2382" x1="401.684" y1="625.204" x2="792.874" y2="557.047" gradientUnits="userSpaceOnUse">
<stop stop-color="#2E43FF" stop-opacity="0.66"/>
<stop offset="1" stop-color="#46FFBC"/>
</linearGradient>
<linearGradient id="paint43_linear_2254_2382" x1="393.361" y1="621.579" x2="782.129" y2="574.646" gradientUnits="userSpaceOnUse">
<stop stop-color="#2E43FF" stop-opacity="0.66"/>
<stop offset="1" stop-color="#46FFBC"/>
</linearGradient>
<linearGradient id="paint44_linear_2254_2382" x1="385.584" y1="618.166" x2="770.796" y2="592.016" gradientUnits="userSpaceOnUse">
<stop stop-color="#2E43FF" stop-opacity="0.66"/>
<stop offset="1" stop-color="#46FFBC"/>
</linearGradient>
<linearGradient id="paint45_linear_2254_2382" x1="378.335" y1="614.995" x2="758.896" y2="609.126" gradientUnits="userSpaceOnUse">
<stop stop-color="#2E43FF" stop-opacity="0.66"/>
<stop offset="1" stop-color="#46FFBC"/>
</linearGradient>
<linearGradient id="paint46_linear_2254_2382" x1="371.593" y1="612.093" x2="746.451" y2="625.947" gradientUnits="userSpaceOnUse">
<stop stop-color="#2E43FF" stop-opacity="0.66"/>
<stop offset="1" stop-color="#46FFBC"/>
</linearGradient>
<linearGradient id="paint47_linear_2254_2382" x1="365.336" y1="609.487" x2="733.485" y2="642.45" gradientUnits="userSpaceOnUse">
<stop stop-color="#2E43FF" stop-opacity="0.66"/>
<stop offset="1" stop-color="#46FFBC"/>
</linearGradient>
<linearGradient id="paint48_linear_2254_2382" x1="359.541" y1="607.2" x2="720.023" y2="658.61" gradientUnits="userSpaceOnUse">
<stop stop-color="#2E43FF" stop-opacity="0.66"/>
<stop offset="1" stop-color="#46FFBC"/>
</linearGradient>
<linearGradient id="paint49_linear_2254_2382" x1="354.182" y1="605.255" x2="706.09" y2="674.402" gradientUnits="userSpaceOnUse">
<stop stop-color="#2E43FF" stop-opacity="0.66"/>
<stop offset="1" stop-color="#46FFBC"/>
</linearGradient>
<linearGradient id="paint50_linear_2254_2382" x1="349.235" y1="603.674" x2="691.716" y2="689.804" gradientUnits="userSpaceOnUse">
<stop stop-color="#2E43FF" stop-opacity="0.66"/>
<stop offset="1" stop-color="#46FFBC"/>
</linearGradient>
<linearGradient id="paint51_linear_2254_2382" x1="344.673" y1="602.474" x2="676.928" y2="704.794" gradientUnits="userSpaceOnUse">
<stop stop-color="#2E43FF" stop-opacity="0.66"/>
<stop offset="1" stop-color="#46FFBC"/>
</linearGradient>
<linearGradient id="paint52_linear_2254_2382" x1="340.468" y1="601.675" x2="661.756" y2="719.355" gradientUnits="userSpaceOnUse">
<stop stop-color="#2E43FF" stop-opacity="0.66"/>
<stop offset="1" stop-color="#46FFBC"/>
</linearGradient>
<linearGradient id="paint53_linear_2254_2382" x1="336.592" y1="601.292" x2="646.229" y2="733.469" gradientUnits="userSpaceOnUse">
<stop stop-color="#2E43FF" stop-opacity="0.66"/>
<stop offset="1" stop-color="#46FFBC"/>
</linearGradient>
<linearGradient id="paint54_linear_2254_2382" x1="333.017" y1="601.337" x2="630.381" y2="747.121" gradientUnits="userSpaceOnUse">
<stop stop-color="#2E43FF" stop-opacity="0.66"/>
<stop offset="1" stop-color="#46FFBC"/>
</linearGradient>
<linearGradient id="paint55_linear_2254_2382" x1="329.712" y1="601.825" x2="614.241" y2="760.298" gradientUnits="userSpaceOnUse">
<stop stop-color="#2E43FF" stop-opacity="0.66"/>
<stop offset="1" stop-color="#46FFBC"/>
</linearGradient>
<linearGradient id="paint56_linear_2254_2382" x1="326.648" y1="602.763" x2="597.841" y2="772.991" gradientUnits="userSpaceOnUse">
<stop stop-color="#2E43FF" stop-opacity="0.66"/>
<stop offset="1" stop-color="#46FFBC"/>
</linearGradient>
<linearGradient id="paint57_linear_2254_2382" x1="323.796" y1="604.161" x2="581.216" y2="785.189" gradientUnits="userSpaceOnUse">
<stop stop-color="#2E43FF" stop-opacity="0.66"/>
<stop offset="1" stop-color="#46FFBC"/>
</linearGradient>
<linearGradient id="paint58_linear_2254_2382" x1="321.124" y1="606.025" x2="564.396" y2="796.887" gradientUnits="userSpaceOnUse">
<stop stop-color="#2E43FF" stop-opacity="0.66"/>
<stop offset="1" stop-color="#46FFBC"/>
</linearGradient>
<linearGradient id="paint59_linear_2254_2382" x1="318.602" y1="608.359" x2="547.414" y2="808.08" gradientUnits="userSpaceOnUse">
<stop stop-color="#2E43FF" stop-opacity="0.66"/>
<stop offset="1" stop-color="#46FFBC"/>
</linearGradient>
<linearGradient id="paint60_linear_2254_2382" x1="316.2" y1="611.165" x2="530.303" y2="818.764" gradientUnits="userSpaceOnUse">
<stop stop-color="#2E43FF" stop-opacity="0.66"/>
<stop offset="1" stop-color="#46FFBC"/>
</linearGradient>
<linearGradient id="paint61_linear_2254_2382" x1="313.889" y1="614.445" x2="513.096" y2="828.94" gradientUnits="userSpaceOnUse">
<stop stop-color="#2E43FF" stop-opacity="0.66"/>
<stop offset="1" stop-color="#46FFBC"/>
</linearGradient>
<linearGradient id="paint62_linear_2254_2382" x1="311.637" y1="618.196" x2="495.824" y2="838.609" gradientUnits="userSpaceOnUse">
<stop stop-color="#2E43FF" stop-opacity="0.66"/>
<stop offset="1" stop-color="#46FFBC"/>
</linearGradient>
<linearGradient id="paint63_linear_2254_2382" x1="309.416" y1="622.416" x2="478.518" y2="847.774" gradientUnits="userSpaceOnUse">
<stop stop-color="#2E43FF" stop-opacity="0.66"/>
<stop offset="1" stop-color="#46FFBC"/>
</linearGradient>
<linearGradient id="paint64_linear_2254_2382" x1="307.197" y1="627.1" x2="461.211" y2="856.44" gradientUnits="userSpaceOnUse">
<stop stop-color="#2E43FF" stop-opacity="0.66"/>
<stop offset="1" stop-color="#46FFBC"/>
</linearGradient>
<linearGradient id="paint65_linear_2254_2382" x1="304.952" y1="632.242" x2="443.933" y2="864.614" gradientUnits="userSpaceOnUse">
<stop stop-color="#2E43FF" stop-opacity="0.66"/>
<stop offset="1" stop-color="#46FFBC"/>
</linearGradient>
<linearGradient id="paint66_linear_2254_2382" x1="302.652" y1="637.832" x2="426.713" y2="872.306" gradientUnits="userSpaceOnUse">
<stop stop-color="#2E43FF" stop-opacity="0.66"/>
<stop offset="1" stop-color="#46FFBC"/>
</linearGradient>
<linearGradient id="paint67_linear_2254_2382" x1="300.271" y1="643.862" x2="409.579" y2="879.525" gradientUnits="userSpaceOnUse">
<stop stop-color="#2E43FF" stop-opacity="0.66"/>
<stop offset="1" stop-color="#46FFBC"/>
</linearGradient>
<linearGradient id="paint68_linear_2254_2382" x1="297.784" y1="650.32" x2="392.562" y2="886.284" gradientUnits="userSpaceOnUse">
<stop stop-color="#2E43FF" stop-opacity="0.66"/>
<stop offset="1" stop-color="#46FFBC"/>
</linearGradient>
<linearGradient id="paint69_linear_2254_2382" x1="295.164" y1="657.193" x2="375.685" y2="892.597" gradientUnits="userSpaceOnUse">
<stop stop-color="#2E43FF" stop-opacity="0.66"/>
<stop offset="1" stop-color="#46FFBC"/>
</linearGradient>
</defs>
</svg>
