<svg width="554" height="576" viewBox="0 0 554 576" fill="none" xmlns="http://www.w3.org/2000/svg">
<g filter="url(#filter0_d_1835_1332)">
<rect width="256.344" height="256.344" transform="matrix(0.866025 0.5 -0.866025 0.5 277 163.488)" fill="url(#paint0_linear_1835_1332)"/>
<rect width="256.344" height="256.344" transform="matrix(0.866025 0.5 -0.866025 0.5 277 163.488)" fill="url(#paint1_linear_1835_1332)"/>
</g>
<g filter="url(#filter1_d_1835_1332)">
<rect width="256.344" height="256.344" transform="matrix(0.866025 0.5 -0.866025 0.5 277 80.9506)" fill="url(#paint2_linear_1835_1332)"/>
<rect width="256.344" height="256.344" transform="matrix(0.866025 0.5 -0.866025 0.5 277 80.9506)" fill="url(#paint3_linear_1835_1332)"/>
</g>
<g filter="url(#filter2_d_1835_1332)">
<rect width="256.344" height="256.344" transform="matrix(0.866025 0.5 -0.866025 0.5 277 0)" fill="url(#paint4_linear_1835_1332)" shape-rendering="crispEdges"/>
</g>
<g style="mix-blend-mode:overlay">
<path d="M275.928 137.061C287.294 143.624 305.968 143.718 317.497 137.061C328.863 130.499 328.863 119.624 317.497 113.061C305.968 106.405 287.294 106.499 275.928 113.061C264.399 119.718 264.399 130.405 275.928 137.061ZM285.183 148.405L282.423 146.811C277.064 145.78 272.355 143.999 268.133 141.561C263.912 139.124 260.664 136.311 258.878 133.218L256.117 131.624C244.101 124.686 224.453 124.78 212.437 131.718L205.78 135.561C201.395 138.093 201.395 142.03 205.78 144.561L262.937 177.561C267.159 179.999 274.141 180.093 278.526 177.561L285.183 173.718C297.199 166.78 297.199 155.343 285.183 148.405Z" fill="white"/>
</g>
<defs>
<filter id="filter0_d_1835_1332" x="0" y="163.488" width="554" height="412.344" filterUnits="userSpaceOnUse" color-interpolation-filters="sRGB">
<feFlood flood-opacity="0" result="BackgroundImageFix"/>
<feColorMatrix in="SourceAlpha" type="matrix" values="0 0 0 0 0 0 0 0 0 0 0 0 0 0 0 0 0 0 127 0" result="hardAlpha"/>
<feOffset dy="101"/>
<feGaussianBlur stdDeviation="27.5"/>
<feComposite in2="hardAlpha" operator="out"/>
<feColorMatrix type="matrix" values="0 0 0 0 0 0 0 0 0 0 0 0 0 0 0 0 0 0 0.25 0"/>
<feBlend mode="normal" in2="BackgroundImageFix" result="effect1_dropShadow_1835_1332"/>
<feBlend mode="normal" in="SourceGraphic" in2="effect1_dropShadow_1835_1332" result="shape"/>
</filter>
<filter id="filter1_d_1835_1332" x="0" y="80.9506" width="554" height="412.344" filterUnits="userSpaceOnUse" color-interpolation-filters="sRGB">
<feFlood flood-opacity="0" result="BackgroundImageFix"/>
<feColorMatrix in="SourceAlpha" type="matrix" values="0 0 0 0 0 0 0 0 0 0 0 0 0 0 0 0 0 0 127 0" result="hardAlpha"/>
<feOffset dy="101"/>
<feGaussianBlur stdDeviation="27.5"/>
<feComposite in2="hardAlpha" operator="out"/>
<feColorMatrix type="matrix" values="0 0 0 0 0 0 0 0 0 0 0 0 0 0 0 0 0 0 0.25 0"/>
<feBlend mode="normal" in2="BackgroundImageFix" result="effect1_dropShadow_1835_1332"/>
<feBlend mode="normal" in="SourceGraphic" in2="effect1_dropShadow_1835_1332" result="shape"/>
</filter>
<filter id="filter2_d_1835_1332" x="0" y="0" width="554" height="412.344" filterUnits="userSpaceOnUse" color-interpolation-filters="sRGB">
<feFlood flood-opacity="0" result="BackgroundImageFix"/>
<feColorMatrix in="SourceAlpha" type="matrix" values="0 0 0 0 0 0 0 0 0 0 0 0 0 0 0 0 0 0 127 0" result="hardAlpha"/>
<feOffset dy="101"/>
<feGaussianBlur stdDeviation="27.5"/>
<feComposite in2="hardAlpha" operator="out"/>
<feColorMatrix type="matrix" values="0 0 0 0 0 0 0 0 0 0 0 0 0 0 0 0 0 0 0.25 0"/>
<feBlend mode="normal" in2="BackgroundImageFix" result="effect1_dropShadow_1835_1332"/>
<feBlend mode="normal" in="SourceGraphic" in2="effect1_dropShadow_1835_1332" result="shape"/>
</filter>
<linearGradient id="paint0_linear_1835_1332" x1="0" y1="0" x2="256.344" y2="256.344" gradientUnits="userSpaceOnUse">
<stop stop-color="#50BCF6"/>
<stop offset="0.841856" stop-color="#C4C4C4" stop-opacity="0"/>
</linearGradient>
<linearGradient id="paint1_linear_1835_1332" x1="0" y1="0" x2="256.344" y2="256.344" gradientUnits="userSpaceOnUse">
<stop stop-color="#C4C4C4" stop-opacity="0.22"/>
<stop offset="0.841856" stop-color="#C4C4C4" stop-opacity="0"/>
</linearGradient>
<linearGradient id="paint2_linear_1835_1332" x1="0" y1="0" x2="256.344" y2="256.344" gradientUnits="userSpaceOnUse">
<stop stop-color="#50BCF7"/>
<stop offset="0.841856" stop-color="#C4C4C4" stop-opacity="0"/>
</linearGradient>
<linearGradient id="paint3_linear_1835_1332" x1="0" y1="0" x2="256.344" y2="256.344" gradientUnits="userSpaceOnUse">
<stop stop-color="#50BCF6" stop-opacity="0.22"/>
<stop offset="0.841856" stop-color="#C4C4C4" stop-opacity="0"/>
</linearGradient>
<linearGradient id="paint4_linear_1835_1332" x1="0" y1="0" x2="256.344" y2="256.344" gradientUnits="userSpaceOnUse">
<stop stop-color="#50BCF7"/>
<stop offset="0.841856" stop-color="#C4C4C4" stop-opacity="0"/>
</linearGradient>
</defs>
</svg>
