<svg xmlns="http://www.w3.org/2000/svg" width="168" height="52" viewBox="0 0 168 52">
  <g id="Group_16939" data-name="Group 16939" transform="translate(0.445)">
    <rect id="Rectangle_238" data-name="Rectangle 238" width="168" height="52" rx="7" transform="translate(-0.445)" fill="#fff"/>
    <g id="Group_5293" data-name="Group 5293" transform="translate(12.35 6.603)">
      <g id="Group_5285" data-name="Group 5285" transform="translate(0 0)">
        <g id="Group_5284" data-name="Group 5284" transform="translate(0 0)">
          <path id="Path_616" data-name="Path 616" d="M35.42,22.047a7.571,7.571,0,0,1,3.6-6.349,7.749,7.749,0,0,0-6.1-3.3c-2.567-.27-5.058,1.536-6.366,1.536-1.334,0-3.348-1.51-5.519-1.466a8.125,8.125,0,0,0-6.84,4.177c-2.958,5.121-.752,12.646,2.088,16.785,1.418,2.027,3.074,4.29,5.242,4.211,2.121-.087,2.913-1.352,5.473-1.352,2.536,0,3.28,1.352,5.491,1.305,2.276-.037,3.71-2.036,5.078-4.082a16.749,16.749,0,0,0,2.322-4.729,7.31,7.31,0,0,1-4.471-6.737Z" transform="translate(-12.792 -4.338)"/>
          <path id="Path_617" data-name="Path 617" d="M28.089,11.554a7.448,7.448,0,0,0,1.7-5.337,7.586,7.586,0,0,0-4.905,2.537,7.088,7.088,0,0,0-1.749,5.14,6.265,6.265,0,0,0,4.95-2.34Z" transform="translate(-9.638 -6.217)"/>
        </g>
      </g>
      <g id="Group_5286" data-name="Group 5286" transform="translate(38.66 15.372)">
        <path id="Path_618" data-name="Path 618" d="M57.075,35.56H54.111l-1.624-5.1H46.843L45.3,35.56H42.41L48,18.2h3.454ZM52,28.317l-1.468-4.531q-.232-.694-.876-3.272H49.6q-.261,1.108-.825,3.272L47.34,28.322Z" transform="translate(-42.41 -17.931)"/>
        <path id="Path_619" data-name="Path 619" d="M67.483,28.077a7.118,7.118,0,0,1-1.727,5.05,5.049,5.049,0,0,1-3.836,1.65A3.84,3.84,0,0,1,58.363,33h-.052v6.6H55.524V26.092q0-2.009-.1-4.123h2.453l.155,1.985h.052a4.951,4.951,0,0,1,7.924-.491A6.9,6.9,0,0,1,67.483,28.077Zm-2.835.1a5.157,5.157,0,0,0-.825-3.015A2.849,2.849,0,0,0,61.4,23.926a2.894,2.894,0,0,0-1.868.683,3.167,3.167,0,0,0-1.1,1.792,3.643,3.643,0,0,0-.131.848v2.088a3.347,3.347,0,0,0,.838,2.308,2.778,2.778,0,0,0,2.177.941,2.849,2.849,0,0,0,2.447-1.211,5.331,5.331,0,0,0,.881-3.2Z" transform="translate(-38.438 -16.859)"/>
        <path id="Path_620" data-name="Path 620" d="M78.521,28.077a7.112,7.112,0,0,1-1.728,5.05,5.045,5.045,0,0,1-3.839,1.65A3.836,3.836,0,0,1,69.4,33h-.052v6.6H66.562V26.092q0-2.009-.1-4.123h2.447l.155,1.985h.052a4.952,4.952,0,0,1,7.926-.491,6.918,6.918,0,0,1,1.481,4.614Zm-2.835.1a5.157,5.157,0,0,0-.826-3.015,2.845,2.845,0,0,0-2.421-1.237,2.9,2.9,0,0,0-1.869.683A3.164,3.164,0,0,0,69.475,26.4a3.715,3.715,0,0,0-.131.848v2.088a3.357,3.357,0,0,0,.835,2.308,2.783,2.783,0,0,0,2.18.941,2.849,2.849,0,0,0,2.447-1.211,5.331,5.331,0,0,0,.877-3.2Z" transform="translate(-35.068 -16.859)"/>
        <path id="Path_621" data-name="Path 621" d="M90.559,30.757a4.63,4.63,0,0,1-1.543,3.608,6.838,6.838,0,0,1-4.732,1.519,8.282,8.282,0,0,1-4.5-1.082l.645-2.319a7.628,7.628,0,0,0,4.023,1.109,3.8,3.8,0,0,0,2.45-.71,2.318,2.318,0,0,0,.875-1.9,2.42,2.42,0,0,0-.722-1.78,6.711,6.711,0,0,0-2.4-1.343q-4.568-1.7-4.561-4.981a4.408,4.408,0,0,1,1.6-3.51A6.3,6.3,0,0,1,85.948,18a8.431,8.431,0,0,1,3.942.825l-.7,2.269a6.84,6.84,0,0,0-3.325-.8,3.365,3.365,0,0,0-2.292.722,2.062,2.062,0,0,0-.7,1.566,2.124,2.124,0,0,0,.8,1.7A9.014,9.014,0,0,0,86.2,25.634a8.573,8.573,0,0,1,3.3,2.112,4.412,4.412,0,0,1,1.06,3.011Z" transform="translate(-31.001 -17.994)"/>
        <path id="Path_622" data-name="Path 622" d="M96.872,24.726H93.8v6.081q0,2.319,1.624,2.319A4.95,4.95,0,0,0,96.665,33l.077,2.113a6.3,6.3,0,0,1-2.164.308A3.339,3.339,0,0,1,92,34.413a4.938,4.938,0,0,1-.928-3.377V24.724H89.244V22.635h1.827V20.342l2.733-.825v3.118h3.067v2.088Z" transform="translate(-28.113 -17.529)"/>
        <path id="Path_623" data-name="Path 623" d="M108.562,28.129a6.871,6.871,0,0,1-1.65,4.742,5.891,5.891,0,0,1-4.589,1.907A5.6,5.6,0,0,1,97.93,32.95a6.657,6.657,0,0,1-1.637-4.613,6.8,6.8,0,0,1,1.688-4.767,5.841,5.841,0,0,1,4.548-1.856,5.72,5.72,0,0,1,4.438,1.827,6.584,6.584,0,0,1,1.6,4.587Zm-2.887.09a5.633,5.633,0,0,0-.747-2.972,2.749,2.749,0,0,0-2.5-1.5,2.791,2.791,0,0,0-2.552,1.5,5.743,5.743,0,0,0-.747,3.024,5.626,5.626,0,0,0,.747,2.971,2.844,2.844,0,0,0,5.025-.026,5.654,5.654,0,0,0,.771-2.992Z" transform="translate(-25.962 -16.86)"/>
        <path id="Path_624" data-name="Path 624" d="M114.188,24.417a4.829,4.829,0,0,0-.877-.077,2.629,2.629,0,0,0-2.269,1.109,4.177,4.177,0,0,0-.7,2.48v6.56h-2.782l.026-8.581q0-2.165-.1-3.943h2.424l.1,2.4h.077a4.284,4.284,0,0,1,1.391-1.984,3.365,3.365,0,0,1,2.011-.671,4.467,4.467,0,0,1,.7.051v2.654Z" transform="translate(-22.543 -16.86)"/>
        <path id="Path_625" data-name="Path 625" d="M124.762,27.645a6.527,6.527,0,0,1-.1,1.262h-8.354a3.634,3.634,0,0,0,1.211,2.836,4.135,4.135,0,0,0,2.731.876,9.234,9.234,0,0,0,3.378-.593l.436,1.932a10.442,10.442,0,0,1-4.2.774,6.083,6.083,0,0,1-4.576-1.714,6.329,6.329,0,0,1-1.662-4.6,7.179,7.179,0,0,1,1.548-4.716,5.333,5.333,0,0,1,4.379-2.009,4.668,4.668,0,0,1,4.1,2.009,6.774,6.774,0,0,1,1.109,3.942Zm-2.654-.722a3.785,3.785,0,0,0-.54-2.139,2.43,2.43,0,0,0-2.219-1.16,2.641,2.641,0,0,0-2.219,1.134,4.152,4.152,0,0,0-.824,2.164h5.8Z" transform="translate(-20.672 -16.866)"/>
      </g>
      <g id="Group_5288" data-name="Group 5288" transform="translate(40.312 0.442)">
        <g id="Group_5287" data-name="Group 5287">
          <path id="Path_626" data-name="Path 626" d="M50.691,10.978a4.285,4.285,0,0,1-1.381,3.469,5.493,5.493,0,0,1-3.633,1.076,16.838,16.838,0,0,1-2-.1V7.027a14.767,14.767,0,0,1,2.356-.178,5.079,5.079,0,0,1,3.381.975,3.941,3.941,0,0,1,1.278,3.154Zm-1.436.038a3.12,3.12,0,0,0-.791-2.292,3.118,3.118,0,0,0-2.312-.8,5.789,5.789,0,0,0-1.1.089V14.4a7.222,7.222,0,0,0,.924.038,3.236,3.236,0,0,0,2.424-.873,3.5,3.5,0,0,0,.85-2.545Z" transform="translate(-43.676 -6.471)"/>
          <path id="Path_627" data-name="Path 627" d="M56.319,11.775a3.375,3.375,0,0,1-.811,2.33,2.893,2.893,0,0,1-2.254.937,2.75,2.75,0,0,1-2.159-.9,3.275,3.275,0,0,1-.8-2.266,3.343,3.343,0,0,1,.829-2.342,2.872,2.872,0,0,1,2.235-.914,2.814,2.814,0,0,1,2.179.9A3.249,3.249,0,0,1,56.319,11.775ZM54.9,11.82a2.783,2.783,0,0,0-.367-1.461,1.351,1.351,0,0,0-1.227-.736,1.372,1.372,0,0,0-1.254.736,2.821,2.821,0,0,0-.367,1.485,2.783,2.783,0,0,0,.367,1.461,1.381,1.381,0,0,0,1.241.736,1.365,1.365,0,0,0,1.227-.749,2.766,2.766,0,0,0,.38-1.472Z" transform="translate(-41.657 -5.926)"/>
          <path id="Path_628" data-name="Path 628" d="M64.85,8.719l-1.925,6.153H61.672l-.8-2.672a20,20,0,0,1-.495-1.988h-.025A14.553,14.553,0,0,1,59.86,12.2l-.847,2.672H57.745l-1.81-6.153h1.406l.7,2.925q.253,1.038.418,1.975h.025q.153-.771.508-1.958l.873-2.937h1.12l.837,2.872q.3,1.051.493,2.026h.038a19.361,19.361,0,0,1,.418-2.026l.747-2.872h1.343Z" transform="translate(-39.934 -5.896)"/>
          <path id="Path_629" data-name="Path 629" d="M69.463,14.9H68.093V11.378q0-1.629-1.24-1.629a1.235,1.235,0,0,0-.988.448,1.589,1.589,0,0,0-.38,1.055v3.655H64.112v-4.4q0-.811-.05-1.761h1.2l.064.962h.038a1.976,1.976,0,0,1,.709-.743,2.312,2.312,0,0,1,1.24-.346,1.958,1.958,0,0,1,1.436.557,2.708,2.708,0,0,1,.709,2.039Z" transform="translate(-37.453 -5.926)"/>
          <path id="Path_630" data-name="Path 630" d="M71.408,15.532H70.041V6.556h1.367Z" transform="translate(-35.627 -6.556)"/>
          <path id="Path_631" data-name="Path 631" d="M78.668,11.775a3.375,3.375,0,0,1-.811,2.33,2.9,2.9,0,0,1-2.254.937,2.741,2.741,0,0,1-2.159-.9,3.275,3.275,0,0,1-.8-2.266,3.343,3.343,0,0,1,.829-2.342A2.872,2.872,0,0,1,75.7,8.622a2.817,2.817,0,0,1,2.18.9A3.249,3.249,0,0,1,78.668,11.775Zm-1.42.044a2.783,2.783,0,0,0-.367-1.461,1.348,1.348,0,0,0-1.226-.736,1.369,1.369,0,0,0-1.254.736,2.821,2.821,0,0,0-.367,1.485,2.783,2.783,0,0,0,.367,1.461,1.381,1.381,0,0,0,1.241.736,1.363,1.363,0,0,0,1.226-.749A2.754,2.754,0,0,0,77.248,11.82Z" transform="translate(-34.834 -5.926)"/>
          <path id="Path_632" data-name="Path 632" d="M83.512,14.9H82.283l-.1-.709h-.038a2.107,2.107,0,0,1-1.8.848,1.855,1.855,0,0,1-1.4-.557,1.748,1.748,0,0,1-.482-1.253,1.912,1.912,0,0,1,.944-1.722,4.9,4.9,0,0,1,2.654-.582v-.115q0-1.217-1.278-1.215a2.861,2.861,0,0,0-1.6.456l-.271-.9a3.946,3.946,0,0,1,2.111-.531q2.412,0,2.415,2.545v2.266A9.61,9.61,0,0,0,83.512,14.9Zm-1.42-2.115v-.949q-2.263-.039-2.263,1.24a.927.927,0,0,0,.261.722.957.957,0,0,0,.668.24,1.381,1.381,0,0,0,.837-.285,1.168,1.168,0,0,0,.5-.969Z" transform="translate(-33.057 -5.925)"/>
          <path id="Path_633" data-name="Path 633" d="M89.66,15.532H88.446l-.064-.988h-.038a2.045,2.045,0,0,1-1.976,1.128,2.316,2.316,0,0,1-1.848-.873,3.4,3.4,0,0,1-.734-2.266,3.567,3.567,0,0,1,.8-2.419,2.453,2.453,0,0,1,1.9-.861,1.844,1.844,0,0,1,1.733.835h.026V6.556h1.369v7.319Q89.611,14.773,89.66,15.532Zm-1.416-2.595V11.912a2.014,2.014,0,0,0-.038-.431,1.559,1.559,0,0,0-.495-.829,1.344,1.344,0,0,0-.914-.335,1.4,1.4,0,0,0-1.2.608,2.61,2.61,0,0,0-.439,1.557,2.43,2.43,0,0,0,.42,1.481,1.408,1.408,0,0,0,1.2.607,1.318,1.318,0,0,0,1.081-.506A1.686,1.686,0,0,0,88.243,12.938Z" transform="translate(-31.432 -6.556)"/>
          <path id="Path_634" data-name="Path 634" d="M98.658,11.775a3.375,3.375,0,0,1-.811,2.33,2.891,2.891,0,0,1-2.254.937,2.754,2.754,0,0,1-2.159-.9,3.275,3.275,0,0,1-.8-2.266,3.343,3.343,0,0,1,.829-2.342A2.872,2.872,0,0,1,95.7,8.622a2.812,2.812,0,0,1,2.177.9,3.249,3.249,0,0,1,.784,2.256Zm-1.418.044a2.783,2.783,0,0,0-.367-1.461,1.352,1.352,0,0,0-1.228-.736,1.374,1.374,0,0,0-1.254.736,2.821,2.821,0,0,0-.364,1.485,2.783,2.783,0,0,0,.367,1.461,1.4,1.4,0,0,0,2.47-.013,2.778,2.778,0,0,0,.377-1.472Z" transform="translate(-28.732 -5.926)"/>
          <path id="Path_635" data-name="Path 635" d="M104.144,14.9h-1.367V11.378q0-1.629-1.241-1.629a1.23,1.23,0,0,0-.987.448,1.582,1.582,0,0,0-.38,1.055v3.655H98.8v-4.4q0-.811-.048-1.761h1.2l.064.962h.038a2,2,0,0,1,.709-.743A2.317,2.317,0,0,1,102,8.62a1.958,1.958,0,0,1,1.436.557,2.7,2.7,0,0,1,.709,2.039Z" transform="translate(-26.862 -5.926)"/>
          <path id="Path_636" data-name="Path 636" d="M110.812,10.1h-1.506v2.989c0,.76.268,1.14.8,1.14a2.41,2.41,0,0,0,.61-.064l.035,1.044a3.074,3.074,0,0,1-1.063.153,1.636,1.636,0,0,1-1.265-.493,2.413,2.413,0,0,1-.457-1.659V10.1h-.9V9.077h.9V7.95l1.341-.4V9.076h1.506V10.1Z" transform="translate(-24.325 -6.254)"/>
          <path id="Path_637" data-name="Path 637" d="M116.734,15.532h-1.369v-3.5q0-1.655-1.239-1.655a1.305,1.305,0,0,0-1.305.959,1.719,1.719,0,0,0-.064.492v3.7H111.39V6.556h1.367v3.712h.026a2.068,2.068,0,0,1,1.848-1.012,1.907,1.907,0,0,1,1.407.557,2.8,2.8,0,0,1,.7,2.064v3.655Z" transform="translate(-23.004 -6.556)"/>
          <path id="Path_638" data-name="Path 638" d="M122.487,11.537a3.3,3.3,0,0,1-.051.62h-4.1a1.793,1.793,0,0,0,.594,1.393,2.038,2.038,0,0,0,1.343.431,4.532,4.532,0,0,0,1.659-.291l.214.95a5.152,5.152,0,0,1-2.065.38,2.983,2.983,0,0,1-2.246-.842,3.1,3.1,0,0,1-.816-2.259,3.524,3.524,0,0,1,.762-2.317,2.611,2.611,0,0,1,2.151-.987,2.288,2.288,0,0,1,2.011.987A3.285,3.285,0,0,1,122.487,11.537Zm-1.305-.354a1.842,1.842,0,0,0-.261-1.051,1.194,1.194,0,0,0-1.089-.57,1.305,1.305,0,0,0-1.089.557,2.07,2.07,0,0,0-.406,1.064h2.848Z" transform="translate(-21.288 -5.929)"/>
        </g>
      </g>
    </g>
  </g>
</svg>
