<svg xmlns="http://www.w3.org/2000/svg" xmlns:xlink="http://www.w3.org/1999/xlink" width="238" height="111" viewBox="0 0 238 111"><defs><style>.a{fill:url(#a);}.b{clip-path:url(#b);}.c{opacity:0.7;}.d{fill:url(#c);}</style><linearGradient id="a" x1="0.847" y1="0.5" x2="0.192" y2="0.5" gradientUnits="objectBoundingBox"><stop offset="0" stop-color="#a4ffe9"/><stop offset="1" stop-color="#dbddff"/></linearGradient><clipPath id="b"><rect class="a" width="238" height="111" rx="10" transform="translate(95 587)"/></clipPath><linearGradient id="c" x1="0.851" y1="-0.071" x2="0.473" y2="0.829" gradientUnits="objectBoundingBox"><stop offset="0" stop-color="#f4f6fa" stop-opacity="0.149"/><stop offset="1" stop-color="#f4f6fa"/></linearGradient></defs><g class="b" transform="translate(-95 -587)"><g class="c" transform="translate(337.405 -172.286) rotate(60)"><path class="d" d="M-576.381,9079.364v-76a12,12,0,0,1,12-12,12,12,0,0,1,12,12v76a12,12,0,0,1-12,12A12,12,0,0,1-576.381,9079.364Zm59-15v-76a12,12,0,0,1,12-12,12,12,0,0,1,12,12v76a12,12,0,0,1-12,12A12,12,0,0,1-517.381,9064.362Zm31-37v-69a12,12,0,0,1,12-12,12,12,0,0,1,12,12v69a12,12,0,0,1-12,12A12,12,0,0,1-486.38,9027.363Zm-60,0v-76a12,12,0,0,1,12-12,12,12,0,0,1,12,12v76a12,12,0,0,1-12,12A12,12,0,0,1-546.382,9027.363Zm-29.9-58.17v-76a12,12,0,0,1,12-12,12,12,0,0,1,12,12v76a12,12,0,0,1-12,12A12,12,0,0,1-576.283,8969.193Zm58.9-12.829v-76a12,12,0,0,1,12-12,12,12,0,0,1,12,12v76a12,12,0,0,1-12,12A12,12,0,0,1-517.381,8956.364Zm31-29v-76a12,12,0,0,1,12-12,12,12,0,0,1,12,12v76a12,12,0,0,1-12,12A12,12,0,0,1-486.38,8927.364Zm-60-7v-6a12,12,0,0,1,12-12,12,12,0,0,1,12,12v6a12,12,0,0,1-12,12A12,12,0,0,1-546.382,8920.364Z" transform="translate(1159.381 -8431.424)"/></g></g></svg>