<svg xmlns="http://www.w3.org/2000/svg" width="185.997" height="175.629" viewBox="0 0 185.997 175.629">
  <g id="Group_3034" data-name="Group 3034" transform="translate(-280.671 -59.588)">
    <path id="Path_2902" data-name="Path 2902" d="M315.749,206.508c-.849,1.02-1.764,2.329-.861,3.634.808,1.169,2.461.757,3.225-.233a2.171,2.171,0,0,0-.614-3.172c-.87-.495-2.535-.2-2.678.951a.279.279,0,0,0,.417.239c.594-.416,1.1-1.021,1.895-.561a1.411,1.411,0,0,1,.224,2.2c-.641.614-1.766.586-1.967-.4a3.527,3.527,0,0,1,.783-2.334c.16-.254-.225-.566-.424-.327" transform="translate(-3.032 -1.777)" fill="#180659"/>
    <path id="Path_2903" data-name="Path 2903" d="M440.836,177.039c-.85,1.02-1.765,2.329-.862,3.634.808,1.168,2.462.757,3.225-.233a2.171,2.171,0,0,0-.613-3.172c-.871-.495-2.536-.2-2.679.951a.279.279,0,0,0,.417.239c.594-.416,1.1-1.021,1.895-.561a1.411,1.411,0,0,1,.224,2.2c-.641.614-1.765.586-1.967-.4a3.532,3.532,0,0,1,.783-2.334c.161-.254-.225-.566-.423-.327" transform="translate(-4.238 -1.523)" fill="#180659"/>
    <path id="Path_2904" data-name="Path 2904" d="M292.94,229.659a1.514,1.514,0,0,0-.761,1.686,1.5,1.5,0,0,0,1.813,1.024,1.413,1.413,0,0,0,1.078-1.753,1.842,1.842,0,0,0-1.99-.958.344.344,0,0,0,.091.672c.355,0,1-.038,1.144.409.12.367-.262.765-.6.818a.646.646,0,0,1-.374-1.215c.447-.253.052-.913-.4-.684" transform="translate(-2.816 -1.977)" fill="#180659"/>
    <path id="Path_2905" data-name="Path 2905" d="M468.969,217.929a1.514,1.514,0,0,0-.761,1.686,1.5,1.5,0,0,0,1.813,1.024,1.413,1.413,0,0,0,1.077-1.753,1.842,1.842,0,0,0-1.99-.958.344.344,0,0,0,.091.672c.356,0,1-.038,1.144.409.12.367-.262.765-.6.818a.646.646,0,0,1-.374-1.215c.447-.253.052-.913-.4-.684" transform="translate(-4.513 -1.876)" fill="#180659"/>
    <path id="Path_2906" data-name="Path 2906" d="M310.064,222.751a3.708,3.708,0,0,0-.156-.856l-.416.32a5.653,5.653,0,0,0,.549.259c.173.071.415.174.54-.037s-.1-.349-.256-.42a5.155,5.155,0,0,1-.547-.291.286.286,0,0,0-.416.32,3.679,3.679,0,0,0,.261.824.238.238,0,0,0,.44-.119" transform="translate(-2.982 -1.909)" fill="#180659"/>
    <path id="Path_2907" data-name="Path 2907" d="M309.722,222.626a1.083,1.083,0,0,0-.706.724.326.326,0,0,0,.226.4,1.014,1.014,0,0,0,.394.026c.061-.007.122-.026.183-.031a.561.561,0,0,1,.091-.013c.056-.014.059-.006.01.023.049.078.013.279.051.378a.6.6,0,0,0,.273.318.322.322,0,0,0,.467-.19c.1-.256.2-.507.313-.754l-.248.143c.271,0,.7,0,.8-.319a.435.435,0,0,0-.021-.315c-.046-.105-.271-.219-.293-.289s.13-.274.134-.371a.441.441,0,0,0-.1-.316c-.249-.273-.657-.009-.91.121-.353.18-.043.707.31.53a4.5,4.5,0,0,1,.417-.229l-.214-.028c-.07-.1-.12-.091-.151.036-.026.059-.048.117-.069.176a.548.548,0,0,0,.01.263.588.588,0,0,0,.137.21c.056.055.233.111.252.18l.027-.206s-.329-.019-.324-.019a.283.283,0,0,0-.249.143,8.587,8.587,0,0,0-.4.8l.435-.115c-.021-.014-.015-.374-.032-.422a.61.61,0,0,0-.259-.331c-.3-.174-.57.055-.862-.02l.225.4a1.552,1.552,0,0,1,.347-.444.272.272,0,0,0-.262-.451" transform="translate(-2.979 -1.911)" fill="#180659"/>
    <path id="Path_2908" data-name="Path 2908" d="M328.29,212.321a.38.38,0,0,0-.048.315c.022-.085.045-.171.067-.255l-.006,0a.323.323,0,0,0-.051.388.48.48,0,0,0,.434.242.394.394,0,0,0,.355-.271,1,1,0,0,0,.02-.631.382.382,0,0,0-.27-.272.541.541,0,0,0-.412.067.607.607,0,0,0-.245.332.53.53,0,0,0,.358.679.388.388,0,0,0,.3-.708.284.284,0,0,1,.127.17c0-.009-.009-.019-.01-.028,0-.065.006.116,0,.048s-.02.1-.008.052.03-.049-.022.044c.029-.052-.063.066-.032.036s-.089.057-.039.031l-.066.03c-.079.006-.1.01-.058.012l-.374-.286c.011.028.017.057.027.084s.01.038,0-.016a.318.318,0,0,1,0,.044.835.835,0,0,1,0,.087c0,.029,0,.019,0-.027,0,.019-.008.038-.013.057.032-.055.063-.108.094-.163a.311.311,0,0,1,.168-.075c.029,0,.153.049.057.009a.317.317,0,0,0-.29.02l.358.093c-.016-.024-.016-.02,0,.012a.175.175,0,0,1,0,.056.237.237,0,0,0-.136-.277.24.24,0,0,0-.292.1" transform="translate(-3.163 -1.824)" fill="#180659"/>
    <path id="Path_2909" data-name="Path 2909" d="M381.335,191.41a.38.38,0,0,0-.048.315l.067-.255-.006,0a.323.323,0,0,0-.051.388.48.48,0,0,0,.434.242.394.394,0,0,0,.355-.271,1,1,0,0,0,.02-.631.382.382,0,0,0-.27-.272.54.54,0,0,0-.412.067.6.6,0,0,0-.245.332.53.53,0,0,0,.358.679.388.388,0,0,0,.3-.708.284.284,0,0,1,.127.17c0-.009-.009-.019-.01-.028,0-.065.006.116,0,.048s-.02.1-.008.052.03-.049-.022.044c.029-.052-.063.066-.032.036s-.089.057-.039.031l-.066.03c-.079.006-.1.01-.058.012l-.374-.286c.011.028.017.057.027.084s.009.038,0-.016a.316.316,0,0,1,0,.044c0,.03,0,.059,0,.087s0,.019,0-.027c0,.019-.008.038-.013.057.032-.055.063-.108.094-.163a.308.308,0,0,1,.168-.075c.029,0,.153.049.057.009a.317.317,0,0,0-.29.02l.358.093c-.016-.024-.016-.02,0,.012a.175.175,0,0,1,0,.056.237.237,0,0,0-.136-.277.24.24,0,0,0-.292.1" transform="translate(-3.675 -1.644)" fill="#180659"/>
    <path id="Path_2910" data-name="Path 2910" d="M462.215,161.6a3.663,3.663,0,0,0-.905-2.218l-.44.34c.5.391,1.254,1.228,1.911,1.294.608.06,1.328-.617,1.788-.943l-.405-.406c-.3.616-.89,1.53-.539,2.225.343.678,1.41.872,2.068,1.013.028-.2.054-.406.082-.611-.589,0-1.86-.294-2.278.282a1.585,1.585,0,0,0-.132.922c-.007.588-.023,1.177-.032,1.765l.525-.07c-.192-.718-.338-2.112-1.036-2.555-.735-.467-1.672.282-2.371.461q.154.265.308.53a5.724,5.724,0,0,0,1.235-1.614,2.651,2.651,0,0,0-.249-2.078c-.126-.289-.607-.083-.509.215a2.212,2.212,0,0,1,.036,1.914,6.788,6.788,0,0,1-.961,1.113.32.32,0,0,0,.308.53,4.5,4.5,0,0,0,.7-.252c.482-.212.612-.376,1.089-.1.435.251.462.495.619.955q.171.507.314,1.022a.269.269,0,0,0,.525-.071,8.375,8.375,0,0,1,.1-1.9c.166-.515.356-.39.764-.4.349-.01.7-.038,1.045-.044s.436-.535.083-.612a3.753,3.753,0,0,1-1.363-.422c-.653-.5-.1-1.335.18-1.916.117-.239-.145-.595-.406-.405-.4.29-.933.792-1.431.78-.561-.014-1.182-.655-1.573-1.015a.281.281,0,0,0-.44.34c.376.668.692,1.34,1.015,2.035.09.193.362.079.373-.1" transform="translate(-4.437 -1.371)" fill="#180659"/>
    <path id="Path_2911" data-name="Path 2911" d="M451.207,127.05c-.4.383-.749.79-1.177,1.142-.278.229.021.693.345.594.379-.118.918-.446,1.176-.088a6.36,6.36,0,0,1,.486,1.334.313.313,0,0,0,.612-.083c0-.269.009-.533.021-.8s-.076-.5.2-.572a3.3,3.3,0,0,1,.6.086,4.571,4.571,0,0,0,.789-.048.274.274,0,0,0,.137-.507c-.219-.149-1.137-.519-1.163-.723-.033-.258.515-.791.655-.991.214-.305-.187-.588-.461-.462-.393.181-.878.558-1.251.255a6.2,6.2,0,0,1-.744-.966.344.344,0,0,0-.582.241c.05.492.452,1.422.125,1.825-.21.258.075.751.392.509.773-.591.218-1.543.164-2.334l-.635.173c.3.4.731,1.3,1.237,1.469.475.156,1.234-.408,1.633-.589-.136-.177-.272-.354-.408-.53-.362.385-1.046,1.065-.893,1.65s1.219.826,1.721.971c.024-.177.049-.356.072-.533a9.125,9.125,0,0,1-1.406-.118.683.683,0,0,0-.581.146c-.4.381-.2,1.361-.247,1.851l.612-.083c-.134-.408-.276-.814-.417-1.219a1.905,1.905,0,0,0-.331-.771c-.4-.374-1.275.1-1.7.226l.345.593a3.759,3.759,0,0,0,1.1-1.314.273.273,0,0,0-.427-.33" transform="translate(-4.337 -1.077)" fill="#180659"/>
    <path id="Path_2912" data-name="Path 2912" d="M451.207,228.955c-.4.383-.749.79-1.177,1.142-.278.229.021.693.345.594.379-.118.918-.446,1.176-.088a6.36,6.36,0,0,1,.486,1.334.313.313,0,0,0,.612-.083c0-.269.009-.533.021-.8s-.076-.5.2-.572a3.3,3.3,0,0,1,.6.086,4.569,4.569,0,0,0,.789-.048.274.274,0,0,0,.137-.507c-.219-.149-1.137-.519-1.163-.723-.033-.258.515-.791.655-.991.214-.305-.187-.588-.461-.462-.393.181-.878.558-1.251.255a6.2,6.2,0,0,1-.744-.966.344.344,0,0,0-.582.241c.05.492.452,1.422.125,1.825-.21.258.075.751.392.509.773-.591.218-1.543.164-2.334l-.635.173c.3.4.731,1.3,1.237,1.469.475.156,1.234-.408,1.633-.589-.136-.177-.272-.354-.408-.53-.362.385-1.046,1.065-.893,1.65s1.219.826,1.721.971c.024-.177.049-.356.072-.533a9.127,9.127,0,0,1-1.406-.118.683.683,0,0,0-.581.146c-.4.381-.2,1.361-.247,1.851l.612-.083c-.134-.408-.276-.814-.417-1.219a1.905,1.905,0,0,0-.331-.771c-.4-.374-1.275.1-1.7.226l.345.593a3.759,3.759,0,0,0,1.1-1.314.273.273,0,0,0-.427-.33" transform="translate(-4.337 -1.955)" fill="#180659"/>
    <path id="Path_2913" data-name="Path 2913" d="M396.812,195.248c.87.115.313,1.4.205,1.883-.062.277.311.564.521.3.29-.36.486-.76.75-1.131.414-.583,1.172-.564,1.843-.687.277-.052.209-.415,0-.5-.382-.152-.805-.154-1.178-.289-.488-.177-.32-.855-.314-1.3a.3.3,0,0,0-.545-.148c-.441.58-.484,1.383-1.417,1.242a.3.3,0,1,0-.08.6,1.691,1.691,0,0,0,1.222-.169c.431-.312.418-.913.735-1.317l-.5-.207c-.014.471-.206,1.306.171,1.693a.741.741,0,0,0,.41.191,13.61,13.61,0,0,1,1.358.205l.068-.508a4.5,4.5,0,0,0-1.854.351c-.5.328-.7,1.1-1.11,1.534l.521.3a2.873,2.873,0,0,0,.232-1.954.986.986,0,0,0-1.038-.64.273.273,0,0,0,0,.546" transform="translate(-3.821 -1.664)" fill="#180659"/>
    <path id="Path_2914" data-name="Path 2914" d="M347.195,61.91a20.731,20.731,0,0,0-4.842,1.882,27.537,27.537,0,0,0-4.639,2.85,32.194,32.194,0,0,0-8.152,9.305c-4.1,7.09-5.367,15.722-2.542,23.508,2.463,6.791,7.859,13.064,14.879,15.334a30.765,30.765,0,0,0,4.743,1.034,46.554,46.554,0,0,0,10.516.457c8.827-.642,17.8-4.035,24.111-10.4a24.6,24.6,0,0,0,7.067-18.75c-.345-6.9-2.637-14.051-7.768-18.868-5.293-4.97-12.547-7.449-19.684-8.028-7.431-.6-15.079.813-21.307,5.053a33.173,33.173,0,0,0-6.767,6.169,26.476,26.476,0,0,0-3.468,5.111c-.2.412-.64,1.063-.564,1.533.018-.13.035-.261.052-.392-.031.06-.062.121-.092.181-.284.586.591,1.1.876.513.029-.058.129-.266.006-.082s.119-.134.188-.231.112-.175.168-.262c.362-.549.748-1.082,1.114-1.626a37.258,37.258,0,0,1,4.33-5.243,31.967,31.967,0,0,1,7.272-5.61,28.038,28.038,0,0,1,10.281-3.233,35.686,35.686,0,0,1,20.613,3.439,24.438,24.438,0,0,1,7.664,6.118,23.062,23.062,0,0,1,4.232,9c1.638,6.289,1.542,13.1-1.679,18.888-3.94,7.074-11.618,11.588-19.226,13.689a42.694,42.694,0,0,1-20.2.509,21.613,21.613,0,0,1-13.032-9.134,25.461,25.461,0,0,1-3.157-22.143,31.3,31.3,0,0,1,14.6-17.742,19.913,19.913,0,0,1,4.627-2.035c.518-.133.3-.907-.22-.8" transform="translate(-3.138 -0.518)" fill="#180659"/>
    <path id="Path_2915" data-name="Path 2915" d="M331,140.5c-2.893-1.684-3.716,4.225-3.782,5.888-.108,2.714.476,6.277,2.666,8.138a3.738,3.738,0,0,0,6.341-2.041,15.357,15.357,0,0,0-.435-8.483,6.4,6.4,0,0,0-2.476-3.484,3.423,3.423,0,0,0-4.1.18.783.783,0,0,0,.944,1.224c1.989-1.064,3.436.616,4.268,2.292a8.86,8.86,0,0,1,.9,6.179,6.575,6.575,0,0,1-1.348,2.566,1.846,1.846,0,0,1-2.27.251c-1.643-.876-2.108-3.354-2.319-5.021a15.266,15.266,0,0,1,.009-3.725c.1-.8.257-2.928,1.359-3.045a.5.5,0,0,0,.249-.92" transform="translate(-3.154 -1.205)" fill="#180659"/>
    <path id="Path_2916" data-name="Path 2916" d="M332.581,154.968a16.319,16.319,0,0,0,1.992.272,9.816,9.816,0,0,0,2.051-.255,14.348,14.348,0,0,0,3.869-1.369,11.417,11.417,0,0,0,5.483-5.467,5.966,5.966,0,0,0-1.423-6.87c-2.005-1.647-4.861-1.84-7.342-1.974a26.363,26.363,0,0,0-5.142.092c-1.191.173-2.695.619-3.062,1.911-.1.371.348.779.691.532a5.477,5.477,0,0,1,2.624-1.2,23.379,23.379,0,0,1,3.763-.091c2.223.066,4.815.111,6.828,1.188a4.519,4.519,0,0,1,2.015,5.547,9.615,9.615,0,0,1-4.54,4.967,14.747,14.747,0,0,1-3.613,1.488,15.979,15.979,0,0,1-2.085.388,19.879,19.879,0,0,1-2.033.274c-.312.008-.414.518-.077.57" transform="translate(-3.172 -1.199)" fill="#180659"/>
    <path id="Path_2917" data-name="Path 2917" d="M334.012,154.51a26.407,26.407,0,0,0-2.368,6.866c-.637,2.389-1.167,4.8-1.614,7.235a109.344,109.344,0,0,0-1.63,14.656c-.042.9,1.351.9,1.4,0,.13-2.469.324-4.934.609-7.39.277-2.4.719-4.755,1.167-7.124.442-2.338.961-4.664,1.532-6.974a48.526,48.526,0,0,0,1.7-7.054c.04-.44-.59-.554-.8-.215" transform="translate(-3.166 -1.329)" fill="#180659"/>
    <path id="Path_2918" data-name="Path 2918" d="M328.986,182.941c-1.817,2.465-2.521,5.872-2.885,8.855a8.2,8.2,0,0,0,.222,3.964,3.978,3.978,0,0,0,2.8,2.337c3.766,1.121,7.743.124,11.462-.757a153.4,153.4,0,0,0,31.53-11.611c1.758-.853,3.523-1.713,5.226-2.67.444-.25,2.122-1.027,2.035-1.72l-.266.465.047-.028c.591-.359.051-1.291-.543-.93l-.047.028h.543c-.476-.346-1.6.409-2.007.607-1.269.616-2.5,1.319-3.755,1.955-4.819,2.439-9.767,4.641-14.8,6.6a140.364,140.364,0,0,1-15.682,5.075,58.5,58.5,0,0,1-8.553,1.859,12.154,12.154,0,0,1-5.14-.421c-1.52-.521-1.81-1.918-1.767-3.374a23.007,23.007,0,0,1,.787-5.009c.432-1.665,1.084-3.263,1.518-4.921a.4.4,0,0,0-.723-.305" transform="translate(-3.142 -1.556)" fill="#180659"/>
    <path id="Path_2919" data-name="Path 2919" d="M370.673,117.686a20.786,20.786,0,0,0-3.994,9.964c-.133.88-.235,1.766-.288,2.655-.026.422-.035.845-.048,1.267-.013.443-.015.513-.369.764-1.488,1.055-3.136,1.888-4.683,2.848a28.078,28.078,0,0,0-4.063,3.076,6.183,6.183,0,0,1-1.937,1.37,18.143,18.143,0,0,1-2.664.288,5.467,5.467,0,0,0-3.6,2.867,8.682,8.682,0,0,0-1.145,4.894c.306,1.982,2.431,2.406,3.955,3.19,1.591.819,3.718,1.395,4.9-.38.405-.607-.359-1.139-.9-.9-1.387.611-2.856-.471-4.045-1.035a9.138,9.138,0,0,1-1.809-.769c-.505-.405-.333-1.31-.236-1.856.269-1.525.855-3.272,2.271-4.1a3.741,3.741,0,0,1,2.077-.348,5.25,5.25,0,0,0,2.272-.4,19.76,19.76,0,0,0,3.537-2.623,40.933,40.933,0,0,1,4.105-2.569c.65-.371,1.3-.74,1.942-1.124a6.572,6.572,0,0,0,1.945-1.422,3.138,3.138,0,0,0,.467-2.027c0-.846.039-1.689.118-2.531.355-3.745,1.676-7.157,2.971-10.648a.471.471,0,0,0-.781-.455" transform="translate(-3.353 -1.012)" fill="#180659"/>
    <path id="Path_2920" data-name="Path 2920" d="M354.08,141.1c.422.539,1.293.587,1.924.683.6.09,1.43.243,1.861-.3a.5.5,0,0,0,.072-.567c-.272-.633-1.115-.7-1.712-.774a2.951,2.951,0,0,0-2.042.153.524.524,0,0,0-.1.8" transform="translate(-3.412 -1.206)" fill="#180659"/>
    <path id="Path_2921" data-name="Path 2921" d="M362.554,135.959a7.661,7.661,0,0,1,3.3,4.472c.688,1.966,1.452,4.124,1.1,6.235-.169,1.027,1.371,1.488,1.587.437.539-2.625-.251-5.185-1.152-7.637-.775-2.111-2.044-4.447-4.521-4.67-.635-.057-.823.87-.315,1.163" transform="translate(-3.492 -1.161)" fill="#180659"/>
    <path id="Path_2922" data-name="Path 2922" d="M361.162,146.226c-1.169-1.02-2.242,1.042-2.583,1.928-.436,1.133-.449,3.4.967,3.862,1.533.506,2.356-1.229,2.571-2.466.211-1.21.055-2.793-1.087-3.519-.5-.316-.978.537-.456.78a.851.851,0,0,1,.609.674,3.411,3.411,0,0,1,.06,1.023,2.919,2.919,0,0,1-.924,2.183c-.782.538-.812-1.129-.8-1.574.012-.417.65-2.572,1.323-2.344a.33.33,0,0,0,.319-.548" transform="translate(-3.454 -1.257)" fill="#180659"/>
    <path id="Path_2923" data-name="Path 2923" d="M356.26,150.634a10.486,10.486,0,0,0,3.273,1.059c.676.067.686-.888.149-1.1s-1.1-.339-1.646-.517a4.649,4.649,0,0,0-1.519-.39c-.468.01-.737.724-.257.947" transform="translate(-3.432 -1.289)" fill="#180659"/>
    <path id="Path_2924" data-name="Path 2924" d="M357.87,145.836a7.388,7.388,0,0,0,1.691.546c.513.135.991.424,1.448.055a.347.347,0,0,0,.09-.341c-.152-.573-.861-.624-1.362-.731a3.768,3.768,0,0,0-1.8-.061.3.3,0,0,0-.069.532" transform="translate(-3.449 -1.25)" fill="#180659"/>
    <path id="Path_2925" data-name="Path 2925" d="M356.835,150a5.692,5.692,0,0,1-.007-2.314,2.346,2.346,0,0,1,1.654-1.777,4.1,4.1,0,0,1,2.39.7c.781.568.445,1.386.58,2.173a.281.281,0,0,0,.51.067,2.873,2.873,0,0,0-.307-2.719A4.223,4.223,0,0,0,358.4,144.9c-2.186.239-3.463,3.528-2.372,5.32.208.342.848.23.806-.219" transform="translate(-3.428 -1.247)" fill="#180659"/>
    <path id="Path_2926" data-name="Path 2926" d="M361.774,148.562a13.549,13.549,0,0,0,6.546-1,40.57,40.57,0,0,0,6.133-2.815,18.009,18.009,0,0,0,4.9-3.881,24.088,24.088,0,0,0,2.365-3.4c3.281-5.368,2.6-13.067-1.256-17.936-1.986-2.51-5.362-4.751-8.686-3.749a.756.756,0,0,0,.4,1.456c2.628-.666,5.087.973,6.725,2.9a14.664,14.664,0,0,1,3.2,9.58,15.817,15.817,0,0,1-7.244,12.876,36.325,36.325,0,0,1-6.348,3.194,49,49,0,0,1-6.732,1.743c-.488.117-.53.945,0,1.032" transform="translate(-3.484 -0.995)" fill="#180659"/>
    <path id="Path_2927" data-name="Path 2927" d="M350.748,115.777c-1.8,1.569-2.343,4.26-2.331,6.553a44.768,44.768,0,0,0,1.277,8.216,4.991,4.991,0,0,0,1.362,3.136,3.527,3.527,0,0,0,3.3.644,11.792,11.792,0,0,1,3.71-.312,10.214,10.214,0,0,1,1.981.37c.633.179,1.238.5,1.876.637a.754.754,0,0,0,.578-1.371,7.933,7.933,0,0,0-3.234-1.115,13.093,13.093,0,0,0-5.026-.024,2.922,2.922,0,0,1-1.379.1c-1.148-.33-1.211-1.553-1.409-2.548a54.491,54.491,0,0,1-1.308-7.259,12.564,12.564,0,0,1,1.438-6.375.536.536,0,0,0-.838-.648" transform="translate(-3.359 -0.996)" fill="#180659"/>
    <path id="Path_2928" data-name="Path 2928" d="M352.559,116.679a2.768,2.768,0,0,0,1.454,2.795,5.083,5.083,0,0,0,3.888.339,12.115,12.115,0,0,0,3.633-1.723,13.352,13.352,0,0,0,1.6-1.269,2.47,2.47,0,0,0,1.016-1.47.5.5,0,0,0-.628-.479c-.472.1-.714.465-1.054.785a12.81,12.81,0,0,1-1.214,1.029,12.368,12.368,0,0,1-2.572,1.459c-2.058.853-4.514.956-5.411-1.466-.114-.308-.64-.394-.712,0" transform="translate(-3.398 -0.989)" fill="#180659"/>
    <path id="Path_2929" data-name="Path 2929" d="M371.846,112.428a10.765,10.765,0,0,0,1.645.694,8.516,8.516,0,0,1,1.594.974,18.564,18.564,0,0,1,2.684,2.528,15.043,15.043,0,0,1,2.1,2.967,10.549,10.549,0,0,1,.735,1.73,3.868,3.868,0,0,0,.594,1.519.514.514,0,0,0,.849-.225,2.922,2.922,0,0,0-.245-1.861,12.026,12.026,0,0,0-.792-1.83,16.733,16.733,0,0,0-2.389-3.32,18.671,18.671,0,0,0-2.971-2.712c-.945-.671-2.52-1.618-3.718-1.147a.38.38,0,0,0-.089.684" transform="translate(-3.583 -0.961)" fill="#180659"/>
    <path id="Path_2930" data-name="Path 2930" d="M349.078,115.117a6.346,6.346,0,0,0-2.115,2.179,15.238,15.238,0,0,0-1.531,2.881,23.362,23.362,0,0,0-1.507,6.781c-.1,1.111-.041,2.274-.226,3.373a1.25,1.25,0,0,1-.7,1.065c-.623.306-1.314.518-1.961.769-1.174.457-2.344.921-3.516,1.382a12.5,12.5,0,0,1-1.589.542,9.366,9.366,0,0,1-1.876.16A2.392,2.392,0,0,0,331.6,135.7a12.609,12.609,0,0,0-.853,3.862c-.075.819,1.179.8,1.268,0a10.443,10.443,0,0,1,.92-3.3c.264-.535.7-.495,1.25-.5a10.917,10.917,0,0,0,1.65-.08A16.323,16.323,0,0,0,339.1,134.6c1.134-.438,2.265-.885,3.4-1.33a3.941,3.941,0,0,0,2.389-1.584,6.341,6.341,0,0,0,.449-2.706,27.49,27.49,0,0,1,1.074-7.065,14.866,14.866,0,0,1,1.405-3.167c.6-1.009,1.486-1.813,2.084-2.812a.605.605,0,0,0-.821-.822" transform="translate(-3.189 -0.99)" fill="#180659"/>
    <path id="Path_2931" data-name="Path 2931" d="M339.009,137.618a5.958,5.958,0,0,1,.98,2.4.529.529,0,0,0,1.011,0,3.412,3.412,0,0,0-1.3-3.092.493.493,0,0,0-.7.7" transform="translate(-3.267 -1.178)" fill="#180659"/>
    <path id="Path_2932" data-name="Path 2932" d="M343,140.713c.156-.393.252-.491.71-.548a9.769,9.769,0,0,1,1.035-.068,7.078,7.078,0,0,1,1.892.156,3.364,3.364,0,0,1,2.279,2.052c.321.847,1.694.475,1.366-.377a4.884,4.884,0,0,0-4.237-3.172,7.107,7.107,0,0,0-3.207.235c-.741.306-1.4,1.265-.706,1.952a.527.527,0,0,0,.869-.229" transform="translate(-3.295 -1.194)" fill="#180659"/>
    <path id="Path_2933" data-name="Path 2933" d="M350.569,150.083a5.8,5.8,0,0,1,1.416,2.92,27.069,27.069,0,0,1,.778,3.654,52.789,52.789,0,0,1,.448,7.3,142.776,142.776,0,0,1-.769,15.246q-.45,4.369-1.176,8.7c-.087.519.346,1.2.959.96,6.02-2.33,12.057-4.621,18.061-6.99.8-.316.925-1.15,1.213-1.9q1.053-2.73,2.28-5.389c2.24-4.872,4.831-10.029,8.723-13.8a26.256,26.256,0,0,1,10.246-5.664,24.8,24.8,0,0,1,5.738-1.234c1.035-.064,1.042-1.685,0-1.621a26.125,26.125,0,0,0-6.456,1.387,27.831,27.831,0,0,0-10.724,6.045,35.768,35.768,0,0,0-5.809,7.978,82.365,82.365,0,0,0-4.147,8.462c-.66,1.545-1.3,3.1-1.862,4.686l.556-.557-15.964,6.21-2.271.883.96.96a142.723,142.723,0,0,0,1.745-16.122c.259-5.217.469-10.606-.414-15.775a25.387,25.387,0,0,0-1.029-4.139,5.9,5.9,0,0,0-1.931-2.946c-.432-.318-.968.386-.572.743" transform="translate(-3.378 -1.285)" fill="#180659"/>
    <path id="Path_2934" data-name="Path 2934" d="M394.221,153.584c-8.988,2.816-14.973,11.609-15.683,20.815a23.237,23.237,0,0,0,0,3.713,6.424,6.424,0,0,0,.921,3.164,4.583,4.583,0,0,0,4.216,1.83,34.344,34.344,0,0,0,7.117-1.324,43.087,43.087,0,0,0,13.436-6.184c2.438-1.713,4.9-3.826,6.032-6.667a9.069,9.069,0,0,0,.5-4.131,16.277,16.277,0,0,0-2.248-7.3,11.048,11.048,0,0,0-8.155-5.085,15.449,15.449,0,0,0-5.861.51,12.7,12.7,0,0,0-4.062,1.673,3.156,3.156,0,0,0-.419.31c-.045.045-.085.1-.13.141-.263.263.189-.063.129-.125l-.053.026c-.55.26-.07,1.076.476.816.143-.067-.506.073-.053.029.158-.015.316-.059.472-.088.546-.1,1.068-.278,1.6-.424a34.06,34.06,0,0,1,4.8-1.1A10.024,10.024,0,0,1,406,157.037a12.85,12.85,0,0,1,2.9,6.531,14.6,14.6,0,0,1,.219,2.363c0,.243-.006.485-.028.727-.007.075-.042.37-.028.269.012-.083-.044.262-.062.357a9.773,9.773,0,0,1-3.221,5,35.632,35.632,0,0,1-11.675,6.914,42.952,42.952,0,0,1-9.409,2.416,7.185,7.185,0,0,1-2.4.033c-1.927-.395-2.363-2.3-2.455-4.028a23.08,23.08,0,0,1,12.078-21.712,29.362,29.362,0,0,1,2.7-1.374c.542-.235.155-1.125-.4-.951" transform="translate(-3.649 -1.312)" fill="#180659"/>
    <path id="Path_2935" data-name="Path 2935" d="M352.637,133.919a19.175,19.175,0,0,0,.777,4.31c.315.95.988,3.056,2.18,3.111a.442.442,0,0,0,.425-.324c.093-.619-.291-.985-.6-1.493a10.754,10.754,0,0,1-.868-1.851c-.464-1.253-.787-2.569-1.138-3.858-.114-.417-.82-.352-.777.105" transform="translate(-3.4 -1.15)" fill="#180659"/>
    <path id="Path_2936" data-name="Path 2936" d="M353.563,134.309a14.017,14.017,0,0,0,.347,3.64c.166.7.438,2.548,1.306,2.714a.258.258,0,0,0,.279-.113c.248-.393.081-.7-.075-1.111-.2-.534-.38-1.074-.529-1.625a20.959,20.959,0,0,1-.645-3.506.342.342,0,0,0-.683,0" transform="translate(-3.408 -1.154)" fill="#180659"/>
    <path id="Path_2937" data-name="Path 2937" d="M348.756,140.992a5.047,5.047,0,0,0,2.818-.809,10.613,10.613,0,0,0,2.483-1.826c.588-.576-.315-1.479-.9-.9a10.563,10.563,0,0,1-2.2,1.669c-.773.437-1.66.663-2.387,1.175a.377.377,0,0,0,.188.7" transform="translate(-3.359 -1.182)" fill="#180659"/>
    <path id="Path_2938" data-name="Path 2938" d="M343.646,132.287c1.093,1.1,2.314,1.879,3.1,3.264a8.227,8.227,0,0,1,.8,1.95,14.862,14.862,0,0,1,.282,2.2c.069.589,1.033.868,1.149.156.536-3.3-1.935-7.044-4.947-8.237-.387-.154-.653.4-.389.669" transform="translate(-3.312 -1.133)" fill="#180659"/>
    <path id="Path_2939" data-name="Path 2939" d="M371.678,123.248a31.3,31.3,0,0,1,.435,4.818.555.555,0,0,0,.826.475c2.238-1.248,4.957-.749,7.4-1.188a.472.472,0,0,0,.347-.456c-.143-1.336-.326-2.671-.583-3.99-.225-1.152-.805-1.539-1.952-1.672-2.083-.243-4.816-.132-6.282,1.586-.414.486.284,1.195.706.707,1.2-1.39,3.175-1.332,4.862-1.309a3.008,3.008,0,0,1,1.276.161c.453.245.456.888.541,1.338q.3,1.581.49,3.179l.346-.455c-2.572.5-5.368-.414-7.7,1.15l.826.474a33.44,33.44,0,0,0-.866-5c-.111-.44-.741-.248-.667.184" transform="translate(-3.583 -1.043)" fill="#180659"/>
    <path id="Path_2940" data-name="Path 2940" d="M367.2,132.832a21.286,21.286,0,0,1,3.647.624,7.478,7.478,0,0,1,2.9,1.824,9.88,9.88,0,0,1,1.906,2.817,11.929,11.929,0,0,1,.75,3.874.311.311,0,0,0,.621,0,9.676,9.676,0,0,0-.67-4.035,8.165,8.165,0,0,0-1.948-3.157,9.079,9.079,0,0,0-7.126-2.531c-.315.015-.427.532-.079.584" transform="translate(-3.538 -1.138)" fill="#180659"/>
    <path id="Path_2941" data-name="Path 2941" d="M381.37,135.54c.336.979,1,1.849,1.423,2.793a14.727,14.727,0,0,1,1.009,3.117,10.349,10.349,0,0,1-.665,6.447,13.281,13.281,0,0,1-4.3,4.934,29.04,29.04,0,0,1-3.144,1.957c-.867.476-2.345.907-2.75,1.879a.4.4,0,0,0,.276.487,2.329,2.329,0,0,0,1.628-.4q.949-.474,1.88-.983a26.573,26.573,0,0,0,3.456-2.225,13.931,13.931,0,0,0,4.438-5.449,11.835,11.835,0,0,0,.618-6.807,14.22,14.22,0,0,0-1.136-3.457,7.479,7.479,0,0,0-1.991-2.864c-.351-.263-.875.173-.74.569" transform="translate(-3.595 -1.161)" fill="#180659"/>
    <path id="Path_2942" data-name="Path 2942" d="M359.183,151.864a120.087,120.087,0,0,0-.809,12.93,47.92,47.92,0,0,1-.422,6.365c-.332,1.864-1.368,3.627-1.509,5.517-.152,2.008,2.012,2.065,3.465,2.108a22.6,22.6,0,0,0,5.99-.633c1.629-.4,3.556-.9,4.587-2.336a6.357,6.357,0,0,0,.907-2.356c.236-1.038.449-2.083.647-3.129.434-2.289.768-4.6,1.029-6.912a28.515,28.515,0,0,1,1.191-6.712c.282-.77-.936-1.093-1.222-.337a21.238,21.238,0,0,0-1.09,5.209c-.21,1.844-.427,3.683-.721,5.515q-.462,2.88-1.085,5.733a5.367,5.367,0,0,1-.86,2.339,4.483,4.483,0,0,1-2.1,1.211,20.781,20.781,0,0,1-5.412,1.04,21.679,21.679,0,0,1-2.662-.012,2.553,2.553,0,0,1-1.131-.175c-.407-.288-.13-.943-.021-1.346a41.247,41.247,0,0,0,1.388-5.072c.252-1.849.266-3.728.342-5.59q.132-3.278.245-6.555a64.042,64.042,0,0,0,.019-6.7c-.029-.408-.7-.569-.769-.1" transform="translate(-3.436 -1.305)" fill="#180659"/>
    <path id="Path_2943" data-name="Path 2943" d="M353.614,177.8a4.333,4.333,0,0,0,2.528-1.1c.613-.472,1.582-1.239,1.488-2.11a.344.344,0,0,0-.427-.326c-.707.156-1.189.934-1.722,1.381a8.423,8.423,0,0,1-2.128,1.19c-.489.216-.216.963.261.965" transform="translate(-3.404 -1.5)" fill="#180659"/>
    <path id="Path_2944" data-name="Path 2944" d="M358.925,161.855c.743,2.433,3.82,2.441,5.921,2.542a14.045,14.045,0,0,0,7.349-1.346c.688-.365.082-1.387-.608-1.041a12.9,12.9,0,0,1-6.119,1.158c-.993-.023-1.993-.1-2.979-.208-1.042-.118-2.31-.4-2.841-1.41a.4.4,0,0,0-.723.305" transform="translate(-3.46 -1.389)" fill="#180659"/>
    <path id="Path_2945" data-name="Path 2945" d="M353.806,161.867a3.528,3.528,0,0,0,2.576.36,6.794,6.794,0,0,0,2.931-.805.475.475,0,0,0-.363-.864c-.829.153-1.61.488-2.455.613a12.394,12.394,0,0,1-2.447.112.345.345,0,0,0-.242.584" transform="translate(-3.41 -1.382)" fill="#180659"/>
    <path id="Path_2946" data-name="Path 2946" d="M336.545,154.285a26.287,26.287,0,0,0-2.083,7.27c-.215,1.235-.429,2.475-.6,3.717a8.861,8.861,0,0,0,0,3.555,1.477,1.477,0,0,0,1.923,1.132c.893-.389,1.018-1.793,1.284-2.6q1.251-3.783,2.7-7.5c1.062-2.719,2.021-5.666,3.877-7.966.391-.486-.288-1.184-.693-.694a25.98,25.98,0,0,0-3.709,7.073c-1.1,2.722-2.092,5.489-3.006,8.278a10,10,0,0,1-.661,1.992c-.616,1.009-.719-.792-.723-1.229a25.923,25.923,0,0,1,.527-4.4,76.239,76.239,0,0,1,1.864-8.331c.118-.417-.513-.706-.715-.3" transform="translate(-3.217 -1.3)" fill="#180659"/>
    <path id="Path_2947" data-name="Path 2947" d="M330.876,183.486a30.6,30.6,0,0,1,4.426.241,12.327,12.327,0,0,1,4.119,1.7,16.938,16.938,0,0,1,5.559,6.307c.359.662,1.369.072,1.01-.591a18.047,18.047,0,0,0-6.171-6.856,12.8,12.8,0,0,0-4.444-1.743,7.188,7.188,0,0,0-4.656.363.313.313,0,0,0,.156.579" transform="translate(-3.187 -1.57)" fill="#180659"/>
    <path id="Path_2948" data-name="Path 2948" d="M385.874,182.174a1.656,1.656,0,0,0,.935,2.147,5.549,5.549,0,0,0,3.117.3,22.116,22.116,0,0,0,6.83-1.839,29.209,29.209,0,0,0,6.154-3.568,7.4,7.4,0,0,0,3.253-4.961c.1-.883-1.274-.868-1.377,0-.2,1.731-1.621,3.024-2.952,3.991a31.432,31.432,0,0,1-4.88,2.9A23.175,23.175,0,0,1,391.461,183a18.141,18.141,0,0,1-2.762.359,2.013,2.013,0,0,1-2.235-1.182.343.343,0,0,0-.59,0" transform="translate(-3.719 -1.495)" fill="#180659"/>
    <path id="Path_2949" data-name="Path 2949" d="M391.494,164.912a22.215,22.215,0,0,1,1.777,6.588c.123.85.135,1.884,1.2,2.013a6.942,6.942,0,0,0,2.82-.636,22.4,22.4,0,0,0,5.5-2.951,9.134,9.134,0,0,0,2.323-1.905c.52-.782.087-1.927-.119-2.753a22.857,22.857,0,0,0-1.177-3.476c-.265-.62-.818-2.43-1.8-1.745a.5.5,0,0,0,.252.932h.131l-.382-.158a5.745,5.745,0,0,1,.827,1.664c.2.483.378.974.541,1.468.191.578.358,1.165.5,1.756.1.414.441,1.264.225,1.681-.192.372-.916.761-1.229,1q-.637.48-1.3.928a23.5,23.5,0,0,1-2.741,1.609,16.4,16.4,0,0,1-3.028,1.154c-.325.087-1.006.384-1.253.147-.124-.119-.1-.72-.133-.9q-.074-.48-.163-.958c-.371-1.973-.849-4.333-2.28-5.831-.255-.266-.637.071-.487.377" transform="translate(-3.774 -1.377)" fill="#180659"/>
    <path id="Path_2950" data-name="Path 2950" d="M392,164.862a8.81,8.81,0,0,0,2.011-1.365,17.667,17.667,0,0,1,2.364-1.409,17.334,17.334,0,0,1,2.552-1.018,11.214,11.214,0,0,1,1.4-.352c.575-.1,1.139-.044,1.712-.1a.425.425,0,0,0,.112-.831,5.731,5.731,0,0,0-3.114.248,16.882,16.882,0,0,0-2.823,1.074,17.638,17.638,0,0,0-2.669,1.6,5.1,5.1,0,0,0-1.849,1.856c-.069.172.137.354.3.3" transform="translate(-3.776 -1.375)" fill="#180659"/>
    <path id="Path_2951" data-name="Path 2951" d="M380.646,107.251c5.015.936,8.567,5.7,10.26,10.208a38.6,38.6,0,0,1,1.932,8.059,13.773,13.773,0,0,1,.334,4.351,5.073,5.073,0,0,1-1.962,2.828,11.267,11.267,0,0,1-8.18,2.8c-.864-.105-.878,1.287,0,1.368a12.578,12.578,0,0,0,8.249-2.47,8.764,8.764,0,0,0,2.686-2.7,6.394,6.394,0,0,0,.55-4.141c-.71-5.892-1.9-11.968-5.814-16.641-1.9-2.269-4.818-4.668-7.943-4.488-.443.026-.6.732-.111.823" transform="translate(-3.667 -0.916)" fill="#180659"/>
    <path id="Path_2952" data-name="Path 2952" d="M382.237,135c.328,1.156.831,2.253,1.161,3.411.166.585.285,1.175.4,1.771a2.235,2.235,0,0,0,.526,1.345.318.318,0,0,0,.489-.062c.63-.851-.025-2.591-.29-3.5a8.984,8.984,0,0,0-1.648-3.339c-.256-.3-.74.021-.639.373" transform="translate(-3.685 -1.158)" fill="#180659"/>
    <path id="Path_2953" data-name="Path 2953" d="M392.475,132.261a10.162,10.162,0,0,1,.7,3.525c-.138,1.18-1.277,2.1-2.2,2.693a13.819,13.819,0,0,1-3.154,1.492,15.026,15.026,0,0,1-1.725.455,4.866,4.866,0,0,0-1.623.387.589.589,0,0,0,.139,1.062,3.9,3.9,0,0,0,1.975-.15,15.212,15.212,0,0,0,2.082-.6,13.847,13.847,0,0,0,3.766-2.018,4.755,4.755,0,0,0,2.052-3.2,6.876,6.876,0,0,0-1.2-3.985.443.443,0,0,0-.805.34" transform="translate(-3.704 -1.134)" fill="#180659"/>
    <path id="Path_2954" data-name="Path 2954" d="M372.608,161.391c2.626,2.158,6.23-.082,8.512-1.645a38.943,38.943,0,0,1,8.991-4.527c1.624-.578,3.276-1.075,4.941-1.523s3.385-.728,5.026-1.227c1.526-.464.548-2.445.1-3.422a9.665,9.665,0,0,0-1.155-1.881c-.446-.572-1.122-1.023-1.517-1.616a3.67,3.67,0,0,1-.324-1.25,7.214,7.214,0,0,0-.337-1.1,8.143,8.143,0,0,0-4.95-4.742c-.806-.28-1.151,1-.352,1.276a6.751,6.751,0,0,1,3.084,2.219,8.723,8.723,0,0,1,1.42,3.536c.315,1.251,1.611,2,2.293,3.062a8.373,8.373,0,0,1,.872,1.764,6.624,6.624,0,0,0,.281.979c-.079-.143.683-.194-.029-.114a7.262,7.262,0,0,0-.737.168c-5.8,1.332-11.648,2.979-16.727,6.174a49.28,49.28,0,0,1-4.221,2.708,6.147,6.147,0,0,1-4.7.357c-.438-.13-.85.492-.468.805" transform="translate(-3.591 -1.192)" fill="#180659"/>
    <path id="Path_2955" data-name="Path 2955" d="M379.259,160.539c3.55-2.169,5.88-5.661,9.085-8.25a33.574,33.574,0,0,1,5.575-3.5,7.027,7.027,0,0,0,2.233-1.567,5.364,5.364,0,0,0,1.008-2.6c.139-.764-1.008-1.1-1.18-.325a4.06,4.06,0,0,1-1.186,2.472,15.1,15.1,0,0,1-2.452,1.387,30.592,30.592,0,0,0-5.2,3.487c-3,2.542-5.284,5.839-8.3,8.367-.3.252.087.737.414.537" transform="translate(-3.651 -1.239)" fill="#180659"/>
    <path id="Path_2956" data-name="Path 2956" d="M400.166,151.663a2.671,2.671,0,0,0,.55,1.437c.3.332.747.036.79-.328a2.8,2.8,0,0,0-.419-1.5.5.5,0,0,0-.63-.206.514.514,0,0,0-.291.595" transform="translate(-3.858 -1.3)" fill="#180659"/>
    <path id="Path_2957" data-name="Path 2957" d="M398.811,147.466c1.339-.019,2.582-.728,3.923-.689a3.4,3.4,0,0,1,2.733,2.027,8.9,8.9,0,0,1,1.167,3.421,9.653,9.653,0,0,1,.055,1.649,11.407,11.407,0,0,0-.226,1.589.577.577,0,0,0,.717.547c.669-.147.747-.851.824-1.433a9.59,9.59,0,0,0,.033-2.353,10.385,10.385,0,0,0-1.418-4.231,4.937,4.937,0,0,0-3.192-2.558,7.648,7.648,0,0,0-4.847,1.174.463.463,0,0,0,.232.856" transform="translate(-3.84 -1.252)" fill="#180659"/>
    <path id="Path_2958" data-name="Path 2958" d="M402.972,148.633a4.244,4.244,0,0,1,.967,2.318c.17,1.02.253,2.062.378,3.089.1.808,1.384.812,1.278,0-.269-2.066-.222-4.744-2.11-6.071-.4-.283-.838.329-.512.664" transform="translate(-3.884 -1.273)" fill="#180659"/>
    <path id="Path_2959" data-name="Path 2959" d="M410.467,164.115a7.634,7.634,0,0,1,1.767-4.005,7.89,7.89,0,0,1,4.353-2.031,45.406,45.406,0,0,0,4.557-.852c1.237-.376,2.846-1.017,3.448-2.256a.318.318,0,0,0-.431-.431c-.744.352-1.4.838-2.181,1.128a13.852,13.852,0,0,1-2.38.608,37.784,37.784,0,0,0-4.984.944c-2.8.9-5.488,3.72-4.8,6.9a.34.34,0,0,0,.651,0" transform="translate(-3.95 -1.33)" fill="#180659"/>
    <path id="Path_2960" data-name="Path 2960" d="M407.031,172.988a10.216,10.216,0,0,0,8.253.562,11.59,11.59,0,0,0,6.522-6c1.315-2.675,1.846-5.671,3.237-8.308.633-1.2,1.558-2.188,2.261-3.345a39.113,39.113,0,0,0,5.03-13.039c.984-5.29.886-11.2-2.474-15.676a14.577,14.577,0,0,0-5.075-4.281,10.6,10.6,0,0,0-5.087-1.4.209.209,0,0,0-.055.407,28.689,28.689,0,0,1,4.134,1.653,15.206,15.206,0,0,1,4.164,3.3c3.363,3.852,3.867,9.09,3.19,13.976a37.614,37.614,0,0,1-4.637,13.369,15.427,15.427,0,0,1-1.27,2.01,22.816,22.816,0,0,0-3.537,7.4c-1.031,3.081-2.407,6.078-5.307,7.809a10.86,10.86,0,0,1-9.009.763.443.443,0,0,0-.34.806" transform="translate(-3.922 -1.046)" fill="#180659"/>
    <path id="Path_2961" data-name="Path 2961" d="M429.571,136.893a31.364,31.364,0,0,1-1.084,8.175,24.659,24.659,0,0,1-1.439,3.848c-.6,1.248-1.444,2.362-2.035,3.6a.51.51,0,0,0,.8.616,12.83,12.83,0,0,0,2.27-3.617,23.626,23.626,0,0,0,1.551-4.135,19.759,19.759,0,0,0,.478-8.565c-.054-.311-.535-.227-.539.073" transform="translate(-4.097 -1.176)" fill="#180659"/>
    <path id="Path_2962" data-name="Path 2962" d="M407.933,124.273a13.16,13.16,0,0,1-2.907,10,23.657,23.657,0,0,1-3.633,3.61c-.719.591-1.468,1.144-2.223,1.687-.306.22-.613.439-.907.674a4.975,4.975,0,0,0-.845,1.03c-.294.382.317.8.643.5.3-.28.755-.52,1.091-.774.392-.3.8-.565,1.2-.849.742-.525,1.469-1.073,2.174-1.647a21.855,21.855,0,0,0,3.9-4.066c2.181-3,3.209-6.71,1.935-10.283a.225.225,0,0,0-.434.12" transform="translate(-3.831 -1.068)" fill="#180659"/>
    <path id="Path_2963" data-name="Path 2963" d="M408.6,132.306a18.427,18.427,0,0,1-1.984,3.114,26.516,26.516,0,0,1-2.471,2.921,47.777,47.777,0,0,1-5.727,5.061.412.412,0,1,0,.5.65,64.634,64.634,0,0,0,6.042-5.224,21.636,21.636,0,0,0,2.317-2.887,17.446,17.446,0,0,0,1.624-3.508c.066-.174-.227-.3-.3-.128" transform="translate(-3.839 -1.138)" fill="#180659"/>
    <path id="Path_2964" data-name="Path 2964" d="M338.046,196.915a1.913,1.913,0,0,0,.384,2.311,3.649,3.649,0,0,0,2.685.922,25.659,25.659,0,0,0,6.975-1.074,61.392,61.392,0,0,0,6.725-2.356,42.279,42.279,0,0,0,5.66-2.538,8.113,8.113,0,0,0,3.92-4.5c.3-.967-1.207-1.375-1.509-.416-.605,1.926-2.327,3.111-4.042,3.992a62.133,62.133,0,0,1-6.334,2.665,45.173,45.173,0,0,1-7.179,2.173,26.5,26.5,0,0,1-3.757.494c-1.029.057-2.666-.019-2.663-1.44a.467.467,0,0,0-.864-.234" transform="translate(-3.257 -1.625)" fill="#180659"/>
    <path id="Path_2965" data-name="Path 2965" d="M316.235,232.1a3.3,3.3,0,0,0,1.633-2.8c0-.325-.124-.781.069-1.066a1.519,1.519,0,0,1,.579-.4,4.859,4.859,0,0,0,1.345-.911c.762-.8,1.058-2.049,1.947-2.722a8.023,8.023,0,0,1,1.6-.659A3.038,3.038,0,0,0,324.7,222.4c.683-1.05.948-2.315,1.624-3.382a17,17,0,0,1,2.795-3.237,17.41,17.41,0,0,1,6.936-4.15c1.271-.368,2.71-.353,3.852-1.076a11.015,11.015,0,0,0,1.328-1.081,6.789,6.789,0,0,1,1.948-1.186c1.493-.615,3.01-1.18,4.513-1.769,1.422-.556,2.836-1.158,4.3-1.592a11,11,0,0,1,2.253-.454c.765-.06,1.519.049,2.283.043,1.46-.012,2.517-.778,3.789-1.366,2.691-1.243,5.77-1.249,8.675-1.206,1.857.028,3.709.087,5.565.137a48.4,48.4,0,0,1,5.265.287,2.435,2.435,0,0,1,1.827,1.013,3.2,3.2,0,0,0,1.333,1.174c1.042.445,2.61.069,3.483.838.733.644,1.809-.415,1.079-1.079a4.661,4.661,0,0,0-3.13-.869,1.981,1.981,0,0,1-1.44-.549,5.253,5.253,0,0,0-1.394-1.354,10.85,10.85,0,0,0-4.032-.669c-1.667-.134-3.314-.331-4.987-.387a42.168,42.168,0,0,0-9.306.417,15.322,15.322,0,0,0-4.137,1.429,7.127,7.127,0,0,1-2.021.829,16.172,16.172,0,0,1-2.329-.02c-3.12.061-6.134,1.641-8.985,2.756a31.229,31.229,0,0,0-4.221,1.747c-1.245.715-2.033,1.938-3.5,2.251a21.891,21.891,0,0,0-4.094,1.115,17.572,17.572,0,0,0-3.475,1.968,18.745,18.745,0,0,0-5.612,6.041c-.684,1.29-.822,3.013-2.375,3.528a4.492,4.492,0,0,0-1.768.88,6.672,6.672,0,0,0-1.1,1.513,4.173,4.173,0,0,1-1.208,1.491,6.1,6.1,0,0,0-1.382.909c-.526.582-.4,1.233-.382,1.954a2.671,2.671,0,0,1-.991,2.084c-.4.337.118.992.556.721" transform="translate(-3.042 -1.726)" fill="#180659"/>
    <path id="Path_2966" data-name="Path 2966" d="M388.733,205.629c1.6-.569,2.872,1.229,4.292,1.656a12.511,12.511,0,0,0,2.307.285,14.1,14.1,0,0,1,2.525.541c1.516.45,2.978,1.059,4.479,1.554a16.121,16.121,0,0,0,4.62.829c1.859.061,3.468,1.436,5.017,2.365s3.094,1.826,4.612,2.783a16.566,16.566,0,0,1,3.594,2.869,9.294,9.294,0,0,1,1.33,1.93,12.092,12.092,0,0,1,.807,2.459,5.432,5.432,0,0,0,1.114,2.228,16.544,16.544,0,0,0,1.889,1.63,17.311,17.311,0,0,1,3.233,4.287.5.5,0,0,0,.9-.38,8.113,8.113,0,0,0-2.281-4.114c-1.113-1.182-2.776-1.944-3.311-3.567-.261-.794-.38-1.623-.671-2.41a9.2,9.2,0,0,0-1.268-2.382,14.581,14.581,0,0,0-3.579-3.216c-1.5-1.006-3.086-1.884-4.641-2.8l-2.477-1.456A18.809,18.809,0,0,0,408.7,209.3a8.788,8.788,0,0,0-2.521-.357,15.3,15.3,0,0,1-2.626-.513c-1.641-.444-3.223-1.08-4.853-1.56a17.791,17.791,0,0,0-2.587-.578,14.125,14.125,0,0,1-2.979-.355c-1.514-.561-3.069-2.483-4.785-1.223-.418.306-.193,1.119.384.913" transform="translate(-3.742 -1.759)" fill="#180659"/>
    <path id="Path_2967" data-name="Path 2967" d="M430.865,231.885l.547.523a2.063,2.063,0,0,0,.539.453.1.1,0,0,0,.129-.129,2.079,2.079,0,0,0-.453-.539l-.523-.547c-.151-.157-.4.088-.239.239" transform="translate(-4.153 -1.994)" fill="#180659"/>
    <path id="Path_2968" data-name="Path 2968" d="M380.989,79.542c-2.182-.65-4.123.969-4.961,2.892a15.924,15.924,0,0,0-.891,7.208,27.188,27.188,0,0,0,.535,4.1,5.692,5.692,0,0,0,1.245,2.867,4.377,4.377,0,0,0,3.057,1.171,4.544,4.544,0,0,0,3.491-.969c.267-.291.209-.927-.263-.993-1.5-.21-3.937.793-5.046-.707a6.029,6.029,0,0,1-.746-2.423,30.791,30.791,0,0,1-.438-3.184,18.582,18.582,0,0,1,.2-5.823,4.088,4.088,0,0,1,3.7-3.251.455.455,0,0,0,.121-.888" transform="translate(-3.616 -0.684)" fill="#180659"/>
    <path id="Path_2969" data-name="Path 2969" d="M382.5,81.129a9.381,9.381,0,0,1,2.183,3.712,21.207,21.207,0,0,1,.547,4.915,7.953,7.953,0,0,1-.77,4.461,4.57,4.57,0,0,1-1.3,1.395c-.55.378-1.2.353-1.75.684a.56.56,0,0,0,0,.957c1.3.8,3.238-.625,4.01-1.62a8.177,8.177,0,0,0,1.413-5.217c-.043-3.587-.368-7.972-3.836-9.935a.414.414,0,0,0-.5.647" transform="translate(-3.674 -0.692)" fill="#180659"/>
    <path id="Path_2970" data-name="Path 2970" d="M376.393,87.545a9.714,9.714,0,0,0,1.085.106,2.35,2.35,0,0,1,.943.108c.373.249.3,1.566.338,1.987a21.486,21.486,0,0,1,.267,2.216c0,.38-.171.382-.517.456-.4.087-.805.148-1.21.209-.838.126-.5,1.535.359,1.3.8-.217,2.157-.239,2.62-1.059.517-.917.083-2.426-.025-3.394-.1-.893-.048-2.143-.755-2.822a3.586,3.586,0,0,0-3.1-.489c-.629.191-.731,1.245,0,1.38" transform="translate(-3.624 -0.741)" fill="#180659"/>
    <path id="Path_2971" data-name="Path 2971" d="M369.47,76.6a34.746,34.746,0,0,0-2.608,13.025c-.021,1.1.008,2.2.051,3.3a17.019,17.019,0,0,1,.073,3.455,10.184,10.184,0,0,1-1.5,2.876,13.816,13.816,0,0,0-1.264,9.845l.425-1.047a11.433,11.433,0,0,1-1.079.513c.1-.043.048-.019-.1.041-.109.044-.218.088-.328.131q-.377.147-.759.283-.951.339-1.921.625a44.572,44.572,0,0,1-12.732,1.651,67.035,67.035,0,0,1-10.949-1c-1.131-.193-1.613,1.545-.477,1.732a65.114,65.114,0,0,0,18.094.615,36.564,36.564,0,0,0,9.565-2.247,14.4,14.4,0,0,0,1.623-.739.949.949,0,0,0,.426-1.047,12.526,12.526,0,0,1,.586-7.464c.486-1.212,1.332-2.227,1.824-3.427a9.137,9.137,0,0,0,.234-4.133c-.347-5.569-.374-11.4,1.311-16.772.09-.286-.372-.494-.493-.208" transform="translate(-3.236 -0.658)" fill="#180659"/>
    <path id="Path_2972" data-name="Path 2972" d="M367.837,84.9a49.56,49.56,0,0,1,2.4-9.017.541.541,0,0,0-.145-.547A26.527,26.527,0,0,0,363,71.641a36.155,36.155,0,0,0-18.562-1.615,44.734,44.734,0,0,0-14.182,5.136c-.745.413-.08,1.552.668,1.143,7-3.827,14.843-6.069,22.858-5.42a33.582,33.582,0,0,1,13.42,3.951,17.846,17.846,0,0,1,2.212,1.383l-.258-.635a22.838,22.838,0,0,0-1.831,9.246c.013.283.457.375.517.07" transform="translate(-3.181 -0.598)" fill="#180659"/>
    <path id="Path_2973" data-name="Path 2973" d="M333.171,105a24.439,24.439,0,0,1-3.031-21.255,28.676,28.676,0,0,1,2.29-5.312c.165-.238.332-.476.494-.717.033-.05.068-.1.1-.147,6.642-3.571,14.057-5.651,21.635-5.037a32.229,32.229,0,0,1,12.882,3.793,19.61,19.61,0,0,1,1.746,1.058,22.49,22.49,0,0,0-1.638,7.647,37.747,37.747,0,0,0-.482,5.433c-.02,1.055.007,2.112.049,3.166a16.3,16.3,0,0,1,.068,3.316,9.763,9.763,0,0,1-1.443,2.759,13.213,13.213,0,0,0-1.366,8.723c-.157.072-.317.142-.475.21.1-.042.051-.02-.094.039l-.315.126q-.361.141-.728.272-.914.326-1.844.6a42.612,42.612,0,0,1-12.22,1.588c-3.525-.021-6.152.6-9.623,0-.033-.006-.441,0-.981-.979A22.55,22.55,0,0,1,333.171,105" transform="translate(-3.171 -0.624)" fill="#180659"/>
    <path id="Path_2974" data-name="Path 2974" d="M410.774,214.02c.753.537,1,1.54,1.691,2.156a24.372,24.372,0,0,0,2.44,1.631c.911.632,1.752,1.339,2.6,2.05.576.485,1.368,1.184,2.172.954a.434.434,0,0,0,.19-.72,9.61,9.61,0,0,0-1.012-.556,9.875,9.875,0,0,1-1.111-.9,22.981,22.981,0,0,0-2.532-1.87,11.279,11.279,0,0,1-2.474-1.6c-.539-.6-.914-1.289-1.665-1.656a.3.3,0,0,0-.3.511" transform="translate(-3.959 -1.838)" fill="#180659"/>
    <path id="Path_2975" data-name="Path 2975" d="M419.637,222.219c-.042.149-.085.3-.126.447a1.441,1.441,0,0,0-.046.491.349.349,0,0,0,.645.174,2.781,2.781,0,0,0,.291-.9.4.4,0,0,0-.765-.211" transform="translate(-4.044 -1.911)" fill="#180659"/>
    <path id="Path_2976" data-name="Path 2976" d="M417.475,221.969q-.155.244-.31.488a1.117,1.117,0,0,0-.231.571.353.353,0,0,0,.526.3,1.153,1.153,0,0,0,.4-.465l.3-.492c.273-.44-.416-.839-.691-.4" transform="translate(-4.019 -1.909)" fill="#180659"/>
    <path id="Path_2977" data-name="Path 2977" d="M415.244,220.094l-.425.326a1.4,1.4,0,0,0-.191.176.427.427,0,0,0-.1.274.189.189,0,0,0,.139.183.474.474,0,0,0,.239,0,1.04,1.04,0,0,0,.237-.136c.138-.1.269-.207.4-.309a.307.307,0,0,0,.106-.4.3.3,0,0,0-.4-.106" transform="translate(-3.996 -1.895)" fill="#180659"/>
    <path id="Path_2978" data-name="Path 2978" d="M411.277,217.1a4.648,4.648,0,0,1-.826.44c-.233.093-.514.162-.605.417a.183.183,0,0,0,.048.181c.225.2.566.085.82-.01a5.211,5.211,0,0,0,.9-.446c.369-.229.022-.823-.341-.583" transform="translate(-3.951 -1.869)" fill="#180659"/>
    <path id="Path_2979" data-name="Path 2979" d="M409.631,214.584a3.968,3.968,0,0,0-1.268.151.336.336,0,0,0,0,.64,3.828,3.828,0,0,0,1.268.019c.517-.029.52-.839,0-.81" transform="translate(-3.935 -1.847)" fill="#180659"/>
    <path id="Path_2980" data-name="Path 2980" d="M407.43,212.283a7.392,7.392,0,0,0-1.35.042.388.388,0,0,0,0,.744,7.39,7.39,0,0,0,1.35.042.414.414,0,0,0,0-.827" transform="translate(-3.912 -1.828)" fill="#180659"/>
    <path id="Path_2981" data-name="Path 2981" d="M380.674,204.425a3.142,3.142,0,0,0,1.083,1.983c.336.25.646-.263.417-.541a4.462,4.462,0,0,1-1-1.578.257.257,0,0,0-.5.137" transform="translate(-3.67 -1.757)" fill="#180659"/>
    <path id="Path_2982" data-name="Path 2982" d="M383.426,206.334c.788.542,2.3,1.513,3.281,1.042a.123.123,0,0,0,.025-.192,3.136,3.136,0,0,0-1.323-.506,9.569,9.569,0,0,1-1.762-.723.219.219,0,0,0-.221.379" transform="translate(-3.695 -1.773)" fill="#180659"/>
    <path id="Path_2983" data-name="Path 2983" d="M389.1,208.486a12.784,12.784,0,0,1,3.321.379c.437.113.86.271,1.306.341.431.069.871.021,1.3.1a6.771,6.771,0,0,1,1.318.551,3.407,3.407,0,0,0,1.175.237,4.107,4.107,0,0,1,1.6.259,4.171,4.171,0,0,1,1.193,1.044.271.271,0,0,0,.424-.327c-.481-.761-1.365-.879-2.172-1.123-1.032-.312-1.961-.874-2.964-1.247a4.454,4.454,0,0,0-1.315-.179,7.752,7.752,0,0,1-1.655-.407,8.954,8.954,0,0,0-3.53-.274c-.4.048-.429.655,0,.65" transform="translate(-3.748 -1.789)" fill="#180659"/>
    <path id="Path_2984" data-name="Path 2984" d="M403.032,212.8c.027.006.054.01.081.015l.083.011a.222.222,0,0,0,.121-.028.3.3,0,0,0,.15-.127.323.323,0,0,0-.049-.38l-.057-.055a.337.337,0,0,0-.328-.087.336.336,0,0,0-.236.415.325.325,0,0,0,.087.149.314.314,0,0,0,.149.086" transform="translate(-3.883 -1.826)" fill="#180659"/>
    <path id="Path_2985" data-name="Path 2985" d="M378.128,203.829a1.71,1.71,0,0,0,.246,1.44.119.119,0,0,0,.185-.024,3.193,3.193,0,0,0,.143-1.416c.019-.375-.536-.36-.573,0" transform="translate(-3.645 -1.752)" fill="#180659"/>
    <path id="Path_2986" data-name="Path 2986" d="M375.952,204.359a3.381,3.381,0,0,1,.015.529,1.625,1.625,0,0,0-.014.531.3.3,0,0,0,.55.072,1.866,1.866,0,0,0,.1-1.133.335.335,0,0,0-.325-.325.327.327,0,0,0-.325.325" transform="translate(-3.624 -1.757)" fill="#180659"/>
    <path id="Path_2987" data-name="Path 2987" d="M366.713,204.174c-.067.254-.153.5-.245.745a1.278,1.278,0,0,0-.112.71.241.241,0,0,0,.3.168c.519-.216.7-.914.842-1.407a.4.4,0,0,0-.78-.215" transform="translate(-3.532 -1.755)" fill="#180659"/>
    <path id="Path_2988" data-name="Path 2988" d="M363.722,203.557c-.172.45-.469.853-.611,1.31a.388.388,0,0,0,.643.374,3.651,3.651,0,0,0,.806-1.452.438.438,0,0,0-.3-.534.443.443,0,0,0-.534.3" transform="translate(-3.5 -1.75)" fill="#180659"/>
    <path id="Path_2989" data-name="Path 2989" d="M356.242,206.027c-2.4.231-5.083.486-6.985,2.089a6.536,6.536,0,0,1-1.444,1.049,9.954,9.954,0,0,1-2.061.484c-.78.168-1.928.509-2.02,1.446a.228.228,0,0,0,.288.219c.39-.143.7-.428,1.077-.6a6.8,6.8,0,0,1,1.6-.414,5.615,5.615,0,0,0,2.782-1.325,6.6,6.6,0,0,1,3.089-1.566c1.252-.266,2.515-.459,3.75-.791.316-.085.265-.622-.079-.589" transform="translate(-3.314 -1.774)" fill="#180659"/>
    <path id="Path_2990" data-name="Path 2990" d="M337,213.662c-.9.347-1.842.009-2.756.27a5.035,5.035,0,0,0-1.956,1.3c-.8.745-1.586,1.507-2.375,2.264a7.8,7.8,0,0,0-1.826,2.16.4.4,0,0,0,.451.586,5.573,5.573,0,0,0,2.954-1.321,37.593,37.593,0,0,1,2.876-2.826c.207-.151.014-.5-.2-.35a21.287,21.287,0,0,0-2.334,2.18c-.786.728-2.114,1.93-3.291,1.548l.238.586a8.749,8.749,0,0,1,1.821-2.082q1.093-1.044,2.18-2.094a4.238,4.238,0,0,1,2.118-1.316,9.013,9.013,0,0,0,2.268-.516c.212-.1.061-.472-.162-.386" transform="translate(-3.162 -1.839)" fill="#180659"/>
    <path id="Path_2991" data-name="Path 2991" d="M328.335,221.718c-.035.355-.074.71-.1,1.066a1.085,1.085,0,0,0,.155.83.234.234,0,0,0,.328,0,1.138,1.138,0,0,0,.236-.83c.015-.355.019-.711.027-1.066.01-.419-.6-.4-.641,0" transform="translate(-3.164 -1.906)" fill="#180659"/>
    <path id="Path_2992" data-name="Path 2992" d="M329.829,221.344c.049.346.027.9.352,1.118a.171.171,0,0,0,.205-.026c.265-.313.072-.885.021-1.252a.3.3,0,0,0-.368-.209.307.307,0,0,0-.209.369" transform="translate(-3.18 -1.902)" fill="#180659"/>
    <path id="Path_2993" data-name="Path 2993" d="M331.838,220.533c.088.167.174.334.265.5a.6.6,0,0,0,.337.317.1.1,0,0,0,.119-.067.627.627,0,0,0-.084-.467c-.086-.168-.177-.333-.265-.5-.131-.245-.5-.028-.371.217" transform="translate(-3.199 -1.896)" fill="#180659"/>
    <path id="Path_2994" data-name="Path 2994" d="M333.543,219.073c.268.183.746.537,1.087.4a.191.191,0,0,0,.111-.274.844.844,0,0,0-.43-.311,4.118,4.118,0,0,1-.5-.278c-.293-.19-.557.273-.272.467" transform="translate(-3.214 -1.882)" fill="#180659"/>
    <path id="Path_2995" data-name="Path 2995" d="M336.5,216.624l.449.354c.152.12.323.307.535.224.071-.029.155-.081.167-.168.033-.244-.1-.341-.279-.481l-.449-.353a.308.308,0,0,0-.423,0,.3.3,0,0,0,0,.423" transform="translate(-3.243 -1.861)" fill="#180659"/>
    <path id="Path_2996" data-name="Path 2996" d="M326.764,221.031c-.5.591-1.132,1.607-.834,2.413.076.2.394.3.509.066a6.387,6.387,0,0,0,.29-1.037,3.391,3.391,0,0,1,.538-1.054c.214-.291-.268-.666-.5-.389" transform="translate(-3.141 -1.902)" fill="#180659"/>
    <path id="Path_2997" data-name="Path 2997" d="M320.812,230.687a5.222,5.222,0,0,1,.813-1.86q.067-.324.359-.205a.4.4,0,0,1,.392.135,1.486,1.486,0,0,0,.461.135,1.66,1.66,0,0,0,1.656-1.318.167.167,0,0,0-.242-.185c-.681.407-.854,1.048-1.789.807-.285-.072-.479-.268-.783-.1-.324.173-.49.7-.637,1a10.7,10.7,0,0,0-.587,1.5c-.072.229.283.325.358.1" transform="translate(-3.089 -1.958)" fill="#180659"/>
    <path id="Path_2998" data-name="Path 2998" d="M421.9,205.735c.488.587,1.505,1.245,1.226,2.141a7.129,7.129,0,0,1-1.61,2.082c-.19.22-.015.642.308.53.863-.3,1.458-1,2.281-1.367,1.124-.495,1.6.5,2.563.777a.321.321,0,0,0,.309-.532,9.838,9.838,0,0,1-.769-.856,1.517,1.517,0,0,1-.331-1.726,13.5,13.5,0,0,1,1.434-2.229c.185-.269-.239-.6-.455-.351a7.013,7.013,0,0,1-1.756,1.383,2.716,2.716,0,0,1-1.05.466,2.438,2.438,0,0,1-1.244-.374.308.308,0,0,0-.372.482,1.948,1.948,0,0,0,2.237.336,8.077,8.077,0,0,0,2.594-1.884l-.455-.351c-.616.892-1.554,1.9-1.684,3.028-.117,1.012.737,1.866,1.4,2.526l.31-.532c-.931-.27-1.333-1.137-2.42-.931s-1.751,1.172-2.761,1.522l.308.53c.645-.746,1.844-1.707,1.9-2.773a2.669,2.669,0,0,0-1.686-2.26.232.232,0,0,0-.279.362" transform="translate(-4.063 -1.757)" fill="#180659"/>
    <path id="Path_2999" data-name="Path 2999" d="M283.643,204.685c1.185-.073,2.327-.58,3.513-.611.721-.019,1.018.61,1.337,1.168a10.985,10.985,0,0,1,.8,1.786c.147.413.8.245.666-.184-.273-.875-1.071-2.692-.473-3.49a8.862,8.862,0,0,1,2.729-1.842c.31-.174.1-.727-.249-.591a5.785,5.785,0,0,1-3.037.584c-.9-.223-1.421-1.817-1.687-2.576-.1-.276-.594-.358-.645,0-.135.959.481,2.2.009,3.072a4.2,4.2,0,0,1-1.389,1.165q-.756.526-1.524,1.035c-.369.246-.023.845.349.6.62-.415,1.236-.836,1.845-1.267a4.492,4.492,0,0,0,1.19-1.023c.721-1.055-.019-2.26.165-3.4H286.6c.321.976.863,2.5,1.885,2.951,1.044.463,2.675-.134,3.655-.514l-.249-.591c-.673.377-1.335.773-1.976,1.2a3.191,3.191,0,0,0-1.133,1.068,2.12,2.12,0,0,0-.08,1.48c.161.782.377,1.555.593,2.324l.666-.184a9.965,9.965,0,0,0-.932-2.063,3.085,3.085,0,0,0-1.055-1.269,2.874,2.874,0,0,0-1.741,0,15.372,15.372,0,0,0-2.655.683c-.243.1-.24.513.066.494" transform="translate(-2.732 -1.711)" fill="#180659"/>
    <path id="Path_3000" data-name="Path 3000" d="M452.508,194.445a8.444,8.444,0,0,0-5.229,8.54,7.579,7.579,0,0,0,2.215,4.54,8.137,8.137,0,0,0,5.385,1.973,10.484,10.484,0,0,0,5.927-.969,9.465,9.465,0,0,0,3.71-3.976,7.47,7.47,0,0,0,.631-5.715,8.925,8.925,0,0,0-2.954-4.292,8.456,8.456,0,0,0-11.248.781.4.4,0,0,0,.56.56,7.9,7.9,0,0,1,9.206-1.274,7.067,7.067,0,0,1,3.419,8.513A9,9,0,0,1,461.339,207a7.512,7.512,0,0,1-4.788,1.552,10.573,10.573,0,0,1-5.343-.955,6.29,6.29,0,0,1-2.76-3.645c-1.128-3.721,1.211-7.182,4.188-9.207.144-.1.056-.378-.128-.3" transform="translate(-4.311 -1.66)" fill="#180659"/>
    <path id="Path_3001" data-name="Path 3001" d="M448.263,198.72c-.231.974,1.366.616,1.843.535a23.593,23.593,0,0,0,4.031-1.071,11.635,11.635,0,0,0,5.771-4.072c.254-.372-.338-.7-.6-.349a10.556,10.556,0,0,1-4.465,3.468,20.072,20.072,0,0,1-2.836.953,22.173,22.173,0,0,1-3.266.6.246.246,0,0,0-.481-.065" transform="translate(-4.321 -1.667)" fill="#180659"/>
    <path id="Path_3002" data-name="Path 3002" d="M447.767,200.827a5.629,5.629,0,0,0,3.7.085,19.281,19.281,0,0,0,4.062-1.583c1.289-.646,2.72-.683,4.049-1.219a9.238,9.238,0,0,0,3.147-2.123c.3-.3-.168-.772-.467-.468a8.838,8.838,0,0,1-3.179,2.1c-1.077.405-2.246.455-3.3.926a24.247,24.247,0,0,1-3.739,1.523,9.439,9.439,0,0,1-4.08.292c-.258-.043-.476.328-.2.464" transform="translate(-4.315 -1.683)" fill="#180659"/>
    <path id="Path_3003" data-name="Path 3003" d="M463.635,197.4c-1.114,2.206-3.447,3.043-5.7,3.62a33.294,33.294,0,0,0-3.4.958,5.48,5.48,0,0,0-2.561,1.48c-.438.681.231,1.286.879,1.362,1.205.143,2.464-.261,3.684-.194a2.132,2.132,0,0,1,1.04.2c.4.305.144.787-.107,1.046a4.681,4.681,0,0,1-1.491.828c-1.206.534-2.524.839-3.709,1.4-.393.186-.086.693.27.642a15.424,15.424,0,0,0,3.949-1.437c.817-.37,1.854-.786,2.05-1.778.489-2.471-3.834-1.582-5.062-1.514-.248.014-1.161.108-.588-.293a6.954,6.954,0,0,1,.84-.5,10.676,10.676,0,0,1,1.726-.68c1.221-.38,2.481-.612,3.7-.982,2.08-.63,4.184-1.786,4.946-3.956a.261.261,0,0,0-.474-.2" transform="translate(-4.356 -1.698)" fill="#180659"/>
    <path id="Path_3004" data-name="Path 3004" d="M464.516,199.9s-1.246,1.141-1.447,1.315a11.043,11.043,0,0,0-1.748,1.409.984.984,0,0,0-.058,1.19c.418.561,1.651.559,1.9,1.184a.31.31,0,0,0,.591,0c.244-.641-.3-1.01-.838-1.207-.434-.157-1.2-.285-.74-.831a7.4,7.4,0,0,1,1-.76c.36-.291,2.883-2.235,1.6-2.637a.233.233,0,0,0-.259.338" transform="translate(-4.445 -1.718)" fill="#180659"/>
    <path id="Path_3005" data-name="Path 3005" d="M424.5,96.818a6.626,6.626,0,0,1,2.634-3.379.254.254,0,0,0,.035-.029c.065-.032.132-.062.2-.091a12.768,12.768,0,0,1,2.011-.529,5.53,5.53,0,0,1,3.693.158,5.634,5.634,0,0,1,3.291,4.542,2.737,2.737,0,0,1,.612-.339c.053-.022.1-.042.158-.061a6.394,6.394,0,0,0-2.808-4.349,6.061,6.061,0,0,0-4.439-.866,15.987,15.987,0,0,0-2.52.778,4.711,4.711,0,0,0-2.027,1.3.258.258,0,0,0-.056.106,6.653,6.653,0,0,0-.428,8.731c.258-.137.511-.28.757-.438a5.676,5.676,0,0,1-.7-1.036,6.006,6.006,0,0,1-.417-4.5" transform="translate(-4.082 -0.79)" fill="#180659"/>
    <path id="Path_3006" data-name="Path 3006" d="M437.222,98.755a.719.719,0,0,1-.823.235c-.007.068-.014.136-.024.2a5.536,5.536,0,0,1-1.654,3.451,6.841,6.841,0,0,1-3.444,1.362,6.651,6.651,0,0,1-3.844-.21,4.713,4.713,0,0,1-.671-.371,9.285,9.285,0,0,1-.8.5l.049.039a5.853,5.853,0,0,0,4.072,1.064,9.83,9.83,0,0,0,4.34-1.2,5.675,5.675,0,0,0,2.559-3.432,7.485,7.485,0,0,0,.267-1.671c-.024.025-.062.061-.031.023" transform="translate(-4.106 -0.85)" fill="#180659"/>
    <path id="Path_3007" data-name="Path 3007" d="M424.033,100.593c-.6.419-3.078,2.715-1.519,3.275.727.261,1.743-.238,2.411-.49a22.373,22.373,0,0,0,2.706-1.276,62.633,62.633,0,0,1,5.876-2.742c1.689-.7,3.634-1.487,4.851-2.916.482-.565.987-1.511.427-2.191-.634-.77-1.912-.45-2.688-.123a.51.51,0,1,0,.394.936c.392-.17,1.259-.53,1.534-.129.263.386-.306.915-.592,1.183a10.592,10.592,0,0,1-2.255,1.52c-1.558.835-3.233,1.415-4.838,2.145-1.637.746-3.192,1.664-4.828,2.414-.42.193-.844.381-1.276.545-.17.064-1.257.558-1.414.416-.268-.242,1.346-1.943,1.541-2.14.21-.213-.069-.61-.329-.427" transform="translate(-4.068 -0.807)" fill="#180659"/>
    <path id="Path_3008" data-name="Path 3008" d="M423.775,99.616a11.167,11.167,0,0,0-2.954,2.8c-.467.592-1.332,1.865-.692,2.616.284.334.827.334,1.227.379a6.339,6.339,0,0,0,2.067-.156,20.1,20.1,0,0,0,3.873-1.492c2.745-1.236,5.478-2.512,8.171-3.858,1.936-.966,4.764-2.06,4.814-4.641a2.426,2.426,0,0,0-1.671-2.377,4.647,4.647,0,0,0-3.737.677c-.46.261-.055.925.409.7,1.062-.512,2.532-1.189,3.6-.288,1.051.889.415,2.427-.418,3.2a13.61,13.61,0,0,1-3.31,1.916q-1.93.959-3.872,1.892a49.291,49.291,0,0,1-7.722,3.274,7.777,7.777,0,0,1-2.074.313c-.554,0-.866-.012-.691-.659a2.876,2.876,0,0,1,.515-.907,38.346,38.346,0,0,1,2.794-2.962.273.273,0,0,0-.329-.428" transform="translate(-4.048 -0.798)" fill="#180659"/>
    <path id="Path_3009" data-name="Path 3009" d="M425.239,99.264a2.507,2.507,0,0,0,.55,1.95.393.393,0,0,0,.389.1.576.576,0,0,0,.176-.1.4.4,0,0,0,.1-.389c-.131-.57-.454-1.064-.555-1.652-.067-.392-.643-.271-.663.09" transform="translate(-4.099 -0.852)" fill="#180659"/>
    <path id="Path_3010" data-name="Path 3010" d="M310.142,178.938a21.787,21.787,0,0,0-6.017,8.221,16.547,16.547,0,0,0-1.327,5,5.751,5.751,0,0,0,1.728,4.528,5.236,5.236,0,0,1,1.307,1.946,3.986,3.986,0,0,1-.051,2.291,7.573,7.573,0,0,1-2.97,3.882,27.1,27.1,0,0,0-3.632,2.645,6.262,6.262,0,0,0-1.748,4.425,8.693,8.693,0,0,1-.5,3.19,6.129,6.129,0,0,1-1.438,1.947,28.057,28.057,0,0,1-4.578,3.01c-.315.2-.117.737.26.618,2.788-.876,5.844-2.63,6.92-5.516.667-1.789.078-3.837.9-5.567.7-1.469,2.207-2.345,3.513-3.2,2.442-1.607,4.988-4.146,4.543-7.359-.226-1.634-1.349-2.547-2.331-3.751-1.289-1.581-.926-3.7-.465-5.525a20.83,20.83,0,0,1,6.279-10.385c.267-.24-.124-.623-.392-.393" transform="translate(-2.803 -1.54)" fill="#180659"/>
    <path id="Path_3011" data-name="Path 3011" d="M404.46,185.78a5.6,5.6,0,0,0,5.579,3.166c3.162-.14,6.092-1.712,9.218-2.153,2.92-.412,6.059-.053,8.384,1.905a6.565,6.565,0,0,1,2.113,3.046c.411,1.339.129,2.706.268,4.073.3,2.914,2.934,3.714,5.356,4.458,2.574.791,5.7,1.826,6.385,4.808.693,3.031-2.514,3.922-4.75,4.523-2.41.647-4.938,1.79-5.768,4.359a4.216,4.216,0,0,0,.486,3.709,16.379,16.379,0,0,0,2.482,2.455c.88.824,1.7,1.928,1.055,3.163-.609,1.168-2.059,1.819-3.2,2.342-.389.179-.114.832.292.695,1.947-.657,4.467-1.983,4.07-4.445-.353-2.188-2.777-3.078-3.909-4.771a3.524,3.524,0,0,1,.175-3.954,6.787,6.787,0,0,1,3.794-2.423c2.121-.633,4.857-1.012,5.938-3.241,1.074-2.211-.287-4.813-2.1-6.16a12.933,12.933,0,0,0-3.876-1.77,17.032,17.032,0,0,1-4.078-1.512c-1.462-.926-1.461-2.415-1.429-3.977a7.594,7.594,0,0,0-.69-3.617,8.886,8.886,0,0,0-5.535-4.419c-3.546-1.011-7.256-.056-10.66,1.023-2.846.9-7.484,2.017-9.106-1.491-.127-.274-.608-.076-.492.208" transform="translate(-3.899 -1.597)" fill="#180659"/>
    <path id="Path_3012" data-name="Path 3012" d="M407.341,197.933a1.962,1.962,0,0,0,.821,2.7,6.019,6.019,0,0,0,1.932.626c.825.173,1.656.332,2.481.509,1.615.344,3.052,1.065,3.6,2.736a4.647,4.647,0,0,1-1.23,4.307.2.2,0,0,0,.244.316c2.744-1.17,2.624-5.05.636-6.877a7.668,7.668,0,0,0-4.109-1.531,25.1,25.1,0,0,1-2.545-.457c-.869-.242-1.991-1.04-1.384-2.069.171-.289-.26-.532-.445-.261" transform="translate(-3.924 -1.703)" fill="#180659"/>
    <path id="Path_3013" data-name="Path 3013" d="M374.291,191.086c-.592,1.466-.723,3.262.554,4.417a6.536,6.536,0,0,0,4.461,1.244,25.747,25.747,0,0,0,6.12-.97c1.507-.383,5.174-1.994,5.482.61.03.253.427.461.559.152.61-1.436-1.054-2.494-2.3-2.524a10.214,10.214,0,0,0-2.784.518c-1.031.273-2.063.544-3.106.768a14.582,14.582,0,0,1-6.181.306A3.4,3.4,0,0,1,375,194.384a3.5,3.5,0,0,1-.112-3.132c.13-.388-.454-.527-.6-.166" transform="translate(-3.604 -1.643)" fill="#180659"/>
    <path id="Path_3014" data-name="Path 3014" d="M315.838,180.058a13.18,13.18,0,0,0-3.656,4.992,3.717,3.717,0,0,0,1.173,4.465c1.3,1.1,3.134,1.914,3.341,3.815.246,2.247-1.51,4.173-2.74,5.862-.161.222.17.418.352.272,1.63-1.317,3.087-2.847,3.379-5.019a4.556,4.556,0,0,0-1.96-4.371c-1.251-.973-3.133-1.875-2.968-3.744a7.868,7.868,0,0,1,1.266-3.124,13.73,13.73,0,0,1,2.19-2.771c.247-.242-.121-.6-.375-.376" transform="translate(-3.007 -1.55)" fill="#180659"/>
    <path id="Path_3015" data-name="Path 3015" d="M309.43,206.6c-1.135,1.382-2.3,2.744-3.4,4.155a13.206,13.206,0,0,0-2.228,3.75c-.366,1.07-.671,2.694.159,3.633.921,1.042,2.871,1.006,4.107.771a.207.207,0,0,0,0-.4c-.666-.107-1.334-.249-1.989-.409-.626-.153-1.358-.287-1.606-.959-.422-1.141.224-2.7.754-3.692a23.071,23.071,0,0,1,2.037-2.979l2.648-3.5c.209-.277-.26-.642-.482-.373" transform="translate(-2.925 -1.778)" fill="#180659"/>
    <path id="Path_3016" data-name="Path 3016" d="M372.445,145.768c.345.692.823,1.3,1.139,2.011a9.648,9.648,0,0,1,.681,2.355,14.947,14.947,0,0,1-.325,5.549c-.116.536.7.766.824.227a15.692,15.692,0,0,0,.342-6.008c-.255-1.561-.914-3.578-2.274-4.521-.251-.174-.5.156-.387.388" transform="translate(-3.59 -1.251)" fill="#180659"/>
    <path id="Path_3017" data-name="Path 3017" d="M359.456,152.851c.328,1.166,1.772,1.415,2.813,1.443a6.61,6.61,0,0,0,3.866-1.17,3.793,3.793,0,0,0,1.917-2.891,2.793,2.793,0,0,0-2.021-2.716c-.518-.167-.746.658-.225.815a1.953,1.953,0,0,1,1.339,2.538,4.011,4.011,0,0,1-2.015,1.889,5.028,5.028,0,0,1-5.276-.139.24.24,0,0,0-.4.231" transform="translate(-3.465 -1.27)" fill="#180659"/>
    <path id="Path_3018" data-name="Path 3018" d="M359.687,156.916c.746,2.016,3.883,2.246,5.681,2.349a20.125,20.125,0,0,0,3.946-.169,10.8,10.8,0,0,0,3.924-1.037c.273-.166.187-.7-.177-.654-1.159.147-2.282.615-3.443.807a19.146,19.146,0,0,1-3.587.25,15.718,15.718,0,0,1-3.335-.38,7.008,7.008,0,0,1-2.657-1.436c-.163-.124-.42.083-.351.27" transform="translate(-3.467 -1.348)" fill="#180659"/>
    <path id="Path_3019" data-name="Path 3019" d="M353.588,156.7a5.477,5.477,0,0,0,3.022.252c.844-.125,2.287-.406,2.837-1.123.09-.117-.033-.286-.163-.285a4.475,4.475,0,0,0-1.283.395,7.151,7.151,0,0,1-1.572.287,12.671,12.671,0,0,1-2.732.072c-.211-.028-.3.316-.109.4" transform="translate(-3.408 -1.339)" fill="#180659"/>
    <path id="Path_3020" data-name="Path 3020" d="M377.337,109.112a9.4,9.4,0,0,1,3.823,2.929,18.413,18.413,0,0,1,2.214,4.178,53.7,53.7,0,0,1,3.218,10.337.6.6,0,0,0,.571.435,7.794,7.794,0,0,0,1.505-.207l-.547-.223a2.973,2.973,0,0,1,.408,1.832c-.056.288-.459,1.129-.882.949-.289-.124-.3-1.115-.315-1.357a8.211,8.211,0,0,1,.056-1.529c.085-.7-1.009-.692-1.1,0-.155,1.218-.321,4.483,1.769,3.916a2.14,2.14,0,0,0,1.419-1.515,4.11,4.11,0,0,0-.521-2.786.5.5,0,0,0-.548-.222,6.5,6.5,0,0,1-1.248-.045l.571.435a54.64,54.64,0,0,0-3.647-11.067c-1.179-2.724-3.26-6.4-6.567-6.739a.367.367,0,0,0-.184.679" transform="translate(-3.636 -0.934)" fill="#180659"/>
    <path id="Path_3021" data-name="Path 3021" d="M388.319,111.319c2.219-.262,3.193,2.093,3.826,3.815a19.7,19.7,0,0,1,.8,2.756,3.225,3.225,0,0,1,.1,1.117c-.057.377-.333.587-.43.944a.464.464,0,0,0,.443.581c.988-.02,1.169-1.329,1.1-2.1a14.292,14.292,0,0,0-1.094-3.821c-.775-1.927-2.272-4.721-4.824-3.975-.359.105-.309.729.092.681" transform="translate(-3.74 -0.951)" fill="#180659"/>
    <path id="Path_3022" data-name="Path 3022" d="M394.248,125.293c.93-.285,1.317.871,1.106,1.61a1.466,1.466,0,0,1-.652.843c-.267.159-.451.178-.615.465a.384.384,0,0,0,.135.518c.562.316,1.159-.145,1.541-.569a2.4,2.4,0,0,0,.608-1.813c-.116-1.294-1.1-2.5-2.463-1.859-.455.212-.133.951.34.806" transform="translate(-3.795 -1.07)" fill="#180659"/>
    <path id="Path_3023" data-name="Path 3023" d="M341.854,75.448c.609,1.583-1.3,3.792-4.256,4.934s-5.854.784-6.463-.8,1.3-3.792,4.256-4.934,5.854-.784,6.463.8" transform="translate(-3.191 -0.637)" fill="#180659"/>
    <path id="Path_3024" data-name="Path 3024" d="M356.532,81.823a12.824,12.824,0,0,0-3.717,3.656.25.25,0,0,0,.34.339,12.822,12.822,0,0,0,3.651-3.721.2.2,0,0,0-.274-.275" transform="translate(-3.401 -0.704)" fill="#180659"/>
    <path id="Path_3025" data-name="Path 3025" d="M339.731,91.756q-.917.839-1.822,1.686a6.34,6.34,0,0,0-1.508,1.713.231.231,0,0,0,.313.313,6.321,6.321,0,0,0,1.711-1.51q.848-.907,1.685-1.824a.268.268,0,0,0-.378-.379" transform="translate(-3.243 -0.789)" fill="#180659"/>
    <path id="Path_3026" data-name="Path 3026" d="M353.343,99c-.628.582-1.255,1.165-1.874,1.757a5.227,5.227,0,0,0-1.407,1.63.189.189,0,0,0,.232.232,5.2,5.2,0,0,0,1.628-1.409c.592-.619,1.174-1.246,1.755-1.876a.236.236,0,0,0-.334-.334" transform="translate(-3.375 -0.852)" fill="#180659"/>
    <path id="Path_3027" data-name="Path 3027" d="M359.036,94.483a.507.507,0,0,0,.326.282l-.156-.091a.353.353,0,0,0,.052.051.384.384,0,0,0,.253.105.371.371,0,0,0,.253-.105.585.585,0,0,0,0-.812.376.376,0,0,0-.445-.058.449.449,0,0,0-.254.406.348.348,0,0,0,.524.3l.015-.007-.085.036a.464.464,0,0,0,.175-.1c.014-.013.026-.027.04-.039l-.075.057a.208.208,0,0,1,.031-.021l-.445-.058c.013.011.044.049,0,0s-.013-.014-.006,0l-.037-.087a.244.244,0,0,1,.016.058c0-.032-.008-.064-.013-.1a.313.313,0,0,1,0,.06l.013-.1a.244.244,0,0,1-.016.058l.036-.086c-.015.03-.043.056.023-.022l.433-.056c.081.057.038.03.017.009l.1.25a1.237,1.237,0,0,0-.026-.18l.014.1a.417.417,0,0,1,0-.07.4.4,0,0,0-.2-.353.409.409,0,0,0-.56.56" transform="translate(-3.461 -0.808)" fill="#180659"/>
    <path id="Path_3028" data-name="Path 3028" d="M332.278,87.145a.438.438,0,0,0,.417.1.379.379,0,0,0,.284-.47.565.565,0,0,0-.239-.319.409.409,0,0,0-.5.058.438.438,0,0,0-.112.411.383.383,0,0,0,.466.272.393.393,0,0,0,.228-.573.385.385,0,0,0-.334-.183.376.376,0,0,0-.356.272.341.341,0,0,0,.088.335.35.35,0,0,0,.335.089.266.266,0,0,0,.026-.009l-.093.013h.009l-.093-.013.009,0-.083-.036.008,0-.07-.055.006,0-.054-.07,0,.007-.036-.083,0,.008c0-.032-.008-.062-.013-.093a.033.033,0,0,1,0,.017c0-.031.008-.061.013-.092l0,.008c.011-.028.023-.056.035-.083a.043.043,0,0,1-.009.014l.054-.07-.006,0,.07-.055-.008,0,.083-.036h-.007l.092-.012h-.006l.092.012-.011,0,.083.036,0,0,.07.055-.007-.008.053.07,0-.01c.012.027.024.055.035.082l0-.012.012.092a.065.065,0,0,1,0-.02c0,.031-.009.061-.013.092a.225.225,0,0,1,.007-.028c-.012.028-.023.056-.035.082l.01-.018-.053.069a.062.062,0,0,1,.014-.014l-.069.054.011-.007-.081.035.013,0-.091.012h.018l-.091-.013a.082.082,0,0,1,.021.006l-.081-.035a.143.143,0,0,1,.027.015L332.346,87a.241.241,0,0,1,.039.04l-.053-.068a.783.783,0,0,1,.049.077v-.335a.207.207,0,0,1-.015.025c.017-.022.034-.045.052-.066a.2.2,0,0,1-.021.02l.066-.052a.164.164,0,0,1-.025.015l.076-.033a.223.223,0,0,1-.037.011l.084-.012a.12.12,0,0,1-.038,0l.083.011a.224.224,0,0,1-.028-.006.344.344,0,0,0-.2.016.294.294,0,0,0-.148.127.316.316,0,0,0,.049.375" transform="translate(-3.202 -0.744)" fill="#180659"/>
    <path id="Path_3029" data-name="Path 3029" d="M348.189,76.384a.462.462,0,0,0-.31.6.582.582,0,0,0,.679.351.687.687,0,0,0,.519-.482.658.658,0,0,0-.252-.686.612.612,0,0,0-.717-.024.661.661,0,0,0-.271.706.626.626,0,0,0,1.183.029.388.388,0,0,0-.173-.427.381.381,0,0,0-.459.058c-.016.02-.034.038-.051.057.047-.033.053-.038.016-.017a.106.106,0,0,1,.069-.023c.035,0,.034,0,0,0,.053.01.065.012.037,0s-.018,0,.031.016a.137.137,0,0,1,.048.048c.013.019.044.144.028.071,0,.015,0,.029,0,.043.013-.04.012-.038,0,.007l-.024.027c.03-.029.028-.028-.007,0a.369.369,0,0,1-.1.01c.05,0,.018,0-.015-.013q.039.04.015.015a.04.04,0,0,1-.017-.031c0-.033,0-.037,0-.011V76.7c.023-.031.035-.04,0-.012.048-.039-.04.032.006,0-.039.01-.043.011-.01,0l.02,0c-.038-.012-.044-.013-.017,0a.081.081,0,0,1,.026.039c.026.044.027.137-.03.164.293-.142.083-.586-.215-.512" transform="translate(-3.353 -0.655)" fill="#180659"/>
    <path id="Path_3030" data-name="Path 3030" d="M340.826,105.878l.092.176a.277.277,0,0,0,.309.126.624.624,0,0,0,.513-.6.522.522,0,0,0-.555-.47.532.532,0,0,0-.521.561.639.639,0,0,0,.635.608.365.365,0,0,0,.347-.265.678.678,0,0,0-.175-.68.588.588,0,0,0-.733-.052.555.555,0,0,0-.149.769.692.692,0,0,0,.373.272.623.623,0,0,0,.492-.05.345.345,0,0,0,.164-.345.354.354,0,0,0-.248-.288,1.383,1.383,0,0,0-.212-.043l.023,0c-.049-.015-.052-.015-.007,0a.187.187,0,0,1,0,.285.1.1,0,0,1-.056.033c-.055,0-.061.006-.02,0a.263.263,0,0,1-.118-.039c-.028-.038-.032-.04-.011,0l-.017-.034c0-.05,0-.053,0-.011s0,.039,0-.01l.347-.265c-.067,0,.013.012.028.014s.021.011-.009-.006a.279.279,0,0,0,.026.022l-.021-.02c.022.032.026.037.012.016s-.019-.057-.014,0a.144.144,0,0,1-.05.147c-.017.012-.083.034-.033.02-.037.01-.054,0-.009,0s-.081-.013-.008,0c-.018,0-.052-.027-.018,0a.166.166,0,0,1-.083-.148.155.155,0,0,0,.007-.023c.017-.019.018-.021,0,0,0,0-.055.052-.021.021-.05.043-.1.084-.15.125h.387l-.152-.131a.237.237,0,0,0-.37.287" transform="translate(-3.282 -0.905)" fill="#180659"/>
    <path id="Path_3031" data-name="Path 3031" d="M368.749,75.373c.2.04.683.554.855.677q.536.385,1.067.78c.7.52,1.381,1.072,2.031,1.655a32.243,32.243,0,0,1,3.487,3.739c.353.433,1.041-.124.763-.589a16.6,16.6,0,0,0-3.934-4.31c-.718-.579-1.46-1.134-2.227-1.648-.5-.335-1.447-1.2-2.079-.9a.333.333,0,0,0-.151.373l.012.046a.251.251,0,0,0,.176.176" transform="translate(-3.553 -0.643)" fill="#180659"/>
    <path id="Path_3032" data-name="Path 3032" d="M366.554,62.17a15.925,15.925,0,0,0,2.288,1.984q1.174.978,2.262,2.054a34.251,34.251,0,0,1,3.849,4.538,33.812,33.812,0,0,1,2.985,5.074c.429.9.82,1.826,1.167,2.765.243.656.8,1.764,1.626.975a.626.626,0,0,0,.162-.614.726.726,0,0,0-.375-.488.55.55,0,0,0-.651.084l-.044.049a.5.5,0,0,0,.218.826l.062.024-.394-.518.172-.306.5-.065c.133.055-.058-.466-.081-.529-.091-.249-.184-.5-.281-.742-.173-.44-.355-.877-.548-1.31q-.554-1.242-1.209-2.436a33.156,33.156,0,0,0-6.985-8.777c-1.256-1.121-2.8-2.588-4.445-3.057a.284.284,0,0,0-.273.47" transform="translate(-3.533 -0.531)" fill="#180659"/>
    <path id="Path_3033" data-name="Path 3033" d="M372.852,78.222a19.257,19.257,0,0,0-1.473,6.677,31.8,31.8,0,0,0,.921,10.549c.142.541.34,1.079.446,1.628a2.087,2.087,0,0,1-.48,1.677,14.686,14.686,0,0,0-2.516,5.941,9.457,9.457,0,0,0,1.394,6.79c.418.61,1.407.052,1-.587a8.687,8.687,0,0,1-1.168-6.117,11.749,11.749,0,0,1,1.005-3.1c.457-.948,1.072-1.771,1.608-2.668a3.194,3.194,0,0,0,.27-2.645c-.3-1.105-.613-2.2-.832-3.325a32.2,32.2,0,0,1-.552-6.958,30.872,30.872,0,0,1,.353-3.941c.194-1.257.489-2.5.635-3.761.038-.324-.477-.452-.615-.167" transform="translate(-3.563 -0.672)" fill="#180659"/>
    <path id="Path_3034" data-name="Path 3034" d="M376.94,101.237c-.906.637-1.867,1.182-2.808,1.765a2.189,2.189,0,0,0-1.245,1.683,1.206,1.206,0,0,0,1.086,1.268c.769.031,1.675-.725,2.26-1.15a4.958,4.958,0,0,0,1.65-1.808c.231-.493.375-1.331-.133-1.716-.554-.419-1.407.172-1.883.465a6.514,6.514,0,0,0-2.238,1.848.291.291,0,0,0,.394.395,8.763,8.763,0,0,0,1.3-.949,10.676,10.676,0,0,1,1.37-.872c1-.514.379.711.069,1.079a5.685,5.685,0,0,1-1.231,1.047c-.324.213-1.055.812-1.433.83-.627.028-.417-.77-.153-1.074a3,3,0,0,1,.638-.494,24.94,24.94,0,0,0,2.617-1.976c.183-.159-.06-.482-.262-.34" transform="translate(-3.595 -0.871)" fill="#180659"/>
    <path id="Path_3035" data-name="Path 3035" d="M316.569,231.04c-.81.7-1.9.922-2.507,1.84a5.368,5.368,0,0,0-.969,2.865.579.579,0,0,0,.41.538.343.343,0,0,0,.149.021.592.592,0,0,0,.538-.409,10.1,10.1,0,0,1,.944-2.525,4.041,4.041,0,0,1,1.074-.782,6.249,6.249,0,0,0,1-.907.452.452,0,0,0-.638-.64" transform="translate(-3.018 -1.988)" fill="#180659"/>
    <path id="Path_3036" data-name="Path 3036" d="M428.308,229.453c-.514,1.7,1.587,2.831,2.594,3.785a8.866,8.866,0,0,1,1.621,2.327c.263.495.73,1.863,1.54,1.59,1.429-.481-.893-3.65-1.356-4.228a11.277,11.277,0,0,0-2.084-1.8,11.3,11.3,0,0,1-1.706-1.836.367.367,0,0,0-.609.16" transform="translate(-4.128 -1.973)" fill="#180659"/>
    <path id="Path_3037" data-name="Path 3037" d="M411.151,82.957a1.279,1.279,0,0,0,1.613,1.07.433.433,0,0,0,.313-.313c.024-.17.051-.339.071-.509s.082-.325.107-.5a.66.66,0,0,0-.443-.78c-.524-.2-1.323-.067-1.47.556a.967.967,0,0,0,.118.739.952.952,0,0,0,.75.423.649.649,0,0,0,.172-1.273.365.365,0,0,1,.208.508l-.39.3a.428.428,0,0,1,.275-.031l-.443-.442c.025.173.085.328.107.5s.048.339.071.509c.068-.17.138-.338.206-.508a.333.333,0,0,1-.3-.037.425.425,0,0,1-.228-.312c-.085-.41-.8-.326-.742.1" transform="translate(-3.964 -0.705)" fill="#180659"/>
    <path id="Path_3038" data-name="Path 3038" d="M459.949,93.586a1.9,1.9,0,0,0-.639-.107.722.722,0,0,0-.643.433.7.7,0,0,0,.146.769,1.618,1.618,0,0,0,.544.311.9.9,0,0,0,.592.077.739.739,0,0,0,.5-.445.769.769,0,0,0-.5-1.039" transform="translate(-4.421 -0.805)" fill="#180659"/>
    <path id="Path_3039" data-name="Path 3039" d="M296.572,153.376a1.059,1.059,0,0,0,.841.325,1.276,1.276,0,0,0,.924-.589,1.2,1.2,0,1,0-1.914-1.46,1.471,1.471,0,0,0-.373.912,1.125,1.125,0,0,0,.547,1.009.8.8,0,0,0,1.1-1.1l-.04-.056-.128-.166c.085.121.112.154.079.1a.6.6,0,0,1,.063.228c-.01-.1.067-.037-.018.1a.447.447,0,0,0,.018-.065c.034-.1-.038.1-.042.1l.035-.061c.056-.106-.119.118-.052.065a.229.229,0,0,0,.049-.05c.024-.044-.126.075-.081.06a.256.256,0,0,0,.057-.034c.066-.052-.2.059-.083.04,0,0-.221.017-.117.017s-.115-.016-.116-.017c.116.018-.157-.075-.08-.031.034.022.021.012-.038-.029a.226.226,0,0,1-.092-.093c-.091-.106,0,.043-.049-.091s-.023-.051-.014-.019c.024.088-.019-.217-.018-.1,0,.1.015-.1.015-.108a.308.308,0,0,1-.019.065c0-.012.09-.175.038-.089a.473.473,0,0,0-.045.075c-.016.05.1-.1.056-.073a.261.261,0,0,0-.05.05c-.047.064.162-.1.061-.049-.02.01-.04.02-.058.031l-.052.036c-.07.055.079-.034.091-.038-.112.035.153-.012.082-.011s.185.039.066,0a.67.67,0,0,0-.746.3.684.684,0,0,0,.1.8" transform="translate(-2.854 -1.302)" fill="#180659"/>
    <path id="Path_3040" data-name="Path 3040" d="M301.487,119.742l-.143-.213c.028.1.055.208.084.312a.551.551,0,0,0-.053-.274.32.32,0,0,0-.083-.144c-.02-.026-.041-.054-.061-.078a.475.475,0,0,0-.209-.134.486.486,0,0,0-.249-.057.492.492,0,0,0-.25.057.48.48,0,0,0-.209.134.653.653,0,0,0-.189.458c.007.058.015.114.023.172a.644.644,0,0,0,.166.287l.014.012a.477.477,0,0,0,.208.134.325.325,0,0,0,.163.044.245.245,0,0,0,.11.01l-.312-.086.214.145.136.057a.427.427,0,0,0,.226.011.275.275,0,0,0,.143-.039.436.436,0,0,0,.183-.118.683.683,0,0,0,.146-.25.429.429,0,0,0,.01-.226.435.435,0,0,0-.067-.212" transform="translate(-2.893 -1.026)" fill="#180659"/>
  </g>
</svg>
