<svg xmlns="http://www.w3.org/2000/svg" width="189.531" height="159.716" viewBox="0 0 189.531 159.716">
  <g id="Group_3035" data-name="Group 3035" transform="translate(-516.232 -75.501)">
    <path id="Path_2668" data-name="Path 2668" d="M599.294,135.493a12.86,12.86,0,0,0,3.412.939,32.623,32.623,0,0,0,9.856-.053c9.274-1.315,19.013-5.01,25.147-12.384,7.349-8.834,8.709-21.187,4.328-31.669a26.152,26.152,0,0,0-11.691-13.3c-7.145-3.744-15.525-3.391-23.138-1.424-7.81,2.017-15.474,5.773-20.669,12.118a28.408,28.408,0,0,0-6.364,16.419,28.972,28.972,0,0,0,4.312,16.638c3.179,5.345,7.951,10.559,14.037,12.521a7.317,7.317,0,0,0,.905.248c.712.133,1.017-.959.3-1.094-3.977-.746-7.665-3.893-10.274-6.782a30.521,30.521,0,0,1-8.088-17.5,27.537,27.537,0,0,1,3.468-16c3.6-6.281,9.641-10.7,16.273-13.378,7.563-3.052,16.45-4.8,24.448-2.471a23.578,23.578,0,0,1,13.653,10.86,30.29,30.29,0,0,1,.58,29.781c-4.3,7.775-11.874,12.227-20.187,14.7-5.916,1.759-12.995,3.068-19.055,1.107-.262-.084-.651-.234-.682-.249-.655-.311-1.23.666-.571.979" transform="translate(-5.593 -0.656)" fill="#180659"/>
    <path id="Path_2669" data-name="Path 2669" d="M612.114,136.628a74.58,74.58,0,0,0,2.76,14.66.566.566,0,0,0,1.091-.3,73.114,73.114,0,0,1-2.719-14.358c-.056-.722-1.188-.728-1.132,0" transform="translate(-5.901 -1.172)" fill="#180659"/>
    <path id="Path_2670" data-name="Path 2670" d="M634.761,127.414c2.418,1.238,4.417,3.675,5.971,5.819a41.317,41.317,0,0,1,4.946,9.268c1.65,4.233,2.883,8.581,2.464,13.168a12.09,12.09,0,0,1-5.088,8.972c-.585.423-.021,1.407.571.979a13,13,0,0,0,5.272-7.573c1.03-4.323.272-8.79-1.085-12.937-2.005-6.12-5.036-12.375-9.9-16.75a12.72,12.72,0,0,0-2.583-1.924c-.648-.331-1.221.646-.571.979" transform="translate(-6.117 -1.088)" fill="#180659"/>
    <path id="Path_2671" data-name="Path 2671" d="M607.882,159.155a26.466,26.466,0,0,0,8.065-7.452c2.856-3.866,4.544-8.192,6.277-12.626.97-2.48,2.742-4.679,5.71-4.082,2.861.575,3.432,3.965,3.216,6.433a19.886,19.886,0,0,1-2.644,7.431,47.445,47.445,0,0,1-3.873,6.11,44.928,44.928,0,0,1-10.918,10.458c-.6.4-.037,1.386.571.979a45.963,45.963,0,0,0,10.537-9.838,48.27,48.27,0,0,0,4.376-6.612,23.744,23.744,0,0,0,2.969-7.6c.351-2.274.174-5.007-1.3-6.888a5.26,5.26,0,0,0-5.732-1.4c-2.1.736-3.234,2.745-4,4.706a73.823,73.823,0,0,1-3.253,7.687,37.848,37.848,0,0,1-5.02,7.3,21.91,21.91,0,0,1-5.549,4.411.567.567,0,0,0,.571.979" transform="translate(-5.852 -1.152)" fill="#180659"/>
    <path id="Path_2672" data-name="Path 2672" d="M607.175,159.574a9.164,9.164,0,0,1,6.146,6.894c.148.714,1.239.412,1.091-.3a10.307,10.307,0,0,0-6.937-7.685c-.7-.224-.993.869-.3,1.093" transform="translate(-5.85 -1.364)" fill="#180659"/>
    <path id="Path_2673" data-name="Path 2673" d="M612.991,143.662a18.219,18.219,0,0,1-7.414,9.795c-1.078.7-3.159,1.28-2.8,2.943a6.365,6.365,0,0,0,2.2,3.736c.591.427,1.157-.555.571-.979a4.3,4.3,0,0,1-1.368-2.163,1.27,1.27,0,0,1-.1-.987c.138-.592.382-.6.884-.875a19.188,19.188,0,0,0,3.964-2.892,19.462,19.462,0,0,0,5.143-8.276c.22-.7-.872-1-1.091-.3" transform="translate(-5.811 -1.233)" fill="#180659"/>
    <path id="Path_2674" data-name="Path 2674" d="M619.855,161.348c-1.479,3.746-2.541,7.549-.536,11.323,1.679,3.158,4.731,4.961,8.053,5.952a21.187,21.187,0,0,0,9.188.364,41.463,41.463,0,0,0,12.045-4.008l-.774-.2a12.1,12.1,0,0,1,.632,2.182c.269,1.321.025,2.76.391,4.04a4.047,4.047,0,0,0,4.235,2.6,6.8,6.8,0,0,0,6.687-8.084,21.74,21.74,0,0,0-3.958-10.785,3.362,3.362,0,0,0-2.829-1.743A15.742,15.742,0,0,0,647.1,164.7a3.989,3.989,0,0,0-.94.438c-.266.232.366.12.148,0a5.457,5.457,0,0,0-1.839-.216,34.453,34.453,0,0,0-9.143.683c-.714.141-.412,1.233.3,1.093a34.491,34.491,0,0,1,7.836-.7c.9.031,1.862.3,2.746.263a2.618,2.618,0,0,0,.971-.361c.777-.364,1.57-.695,2.378-.985,1.168-.418,3.339-1.374,4.471-.511a9.175,9.175,0,0,1,2.177,3.12,24.357,24.357,0,0,1,1.937,5.125,13.364,13.364,0,0,1,.472,5.1,5.382,5.382,0,0,1-3.385,4.152c-1.778.836-5.121.932-5.366-1.691a18.646,18.646,0,0,0-1.054-6.008.574.574,0,0,0-.774-.2c-5.206,2.561-11.063,4.512-16.942,4.139a13.955,13.955,0,0,1-9.407-4.069,9.043,9.043,0,0,1-2.407-5.714,17.244,17.244,0,0,1,1.67-6.707c.267-.678-.826-.973-1.091-.3" transform="translate(-5.96 -1.386)" fill="#180659"/>
    <path id="Path_2675" data-name="Path 2675" d="M636.344,127.148a15.512,15.512,0,0,1,4.922-3.212c1.809-.726,4.157-1.418,6.088-.84,1.827.546,3.261,2.259,4.39,3.724.546.706.68,1.682,1.245,2.33.5.575,1.262.519,1.921.761,1.755.643,2.425,2.871,2.969,4.464q.466,1.362.877,2.743c.327,1.092.808,2.322.287,3.421a1.68,1.68,0,0,0-.167,1.572,17.509,17.509,0,0,1,.985,3.193,19.673,19.673,0,0,1,.312,6.3c-.383,2.189-2.765,4.024-4.554,5.111-1.585.963-4.745,2.648-6.484,1.239-.562-.455-1.367.342-.8.8,1.558,1.262,3.549.841,5.288.183a15.423,15.423,0,0,0,5.386-3.439,9.24,9.24,0,0,0,1.892-2.446,6.575,6.575,0,0,0,.458-3.153,23.146,23.146,0,0,0-.938-6.993c-.213-.61-.615-1.148-.4-1.8a5.911,5.911,0,0,0,.365-1.106,7.788,7.788,0,0,0-.537-3.188c-.621-2.079-1.189-4.438-2.452-6.241a4.692,4.692,0,0,0-1.771-1.588,11.157,11.157,0,0,0-1.164-.347c-.79-.28-.95-1.2-1.349-1.848a12.675,12.675,0,0,0-4.346-4.336c-2.139-1.137-4.75-.658-6.946.074a16.75,16.75,0,0,0-6.278,3.816c-.528.5.273,1.3.8.8" transform="translate(-6.125 -1.049)" fill="#180659"/>
    <path id="Path_2676" data-name="Path 2676" d="M606.994,158.651a2.989,2.989,0,0,1-2.989.1,5.856,5.856,0,0,0-2.169-.44,4.707,4.707,0,0,0-3.549,1.409,2.5,2.5,0,0,0-.12,3.039,3.875,3.875,0,0,0,1.245,1.154c.252.156.854.293,1.029.509.262.32-.008.339-.327.667-2.054,2.117-.381,5.04,1.117,6.982a5.441,5.441,0,0,0,7.037,1.65c1.526-.875,2-2.662,3.138-3.921,1.064-1.173,2.339-2.035,2.927-3.563.262-.681-.832-.977-1.091-.3-.58,1.51-2.161,2.422-3.138,3.659-1,1.261-1.416,2.878-3.068,3.452a4.273,4.273,0,0,1-4.636-1.327c-.909-1.033-2.28-3.023-2.172-4.459.076-1.005.855-1.364,1.43-2.036a1.066,1.066,0,0,0,.273-1.093c-.17-.431-.6-.55-.985-.721-.874-.381-2.168-1.009-2.124-2.159.085-2.212,3.674-1.9,4.981-1.36a3.829,3.829,0,0,0,3.763-.259c.643-.344.071-1.323-.571-.979" transform="translate(-5.762 -1.363)" fill="#180659"/>
    <path id="Path_2677" data-name="Path 2677" d="M603.434,155.183c-2.079-.944-5.66-1.815-7.621-.138a2.27,2.27,0,0,0-.7,2.606c.529,1.317,1.993,1.823,2.653,3.034.35.64,1.327.069.977-.572-.628-1.15-4.037-3.049-2-4.352,1.665-1.062,4.483-.341,6.117.4.659.3,1.235-.677.571-.979" transform="translate(-5.735 -1.327)" fill="#180659"/>
    <path id="Path_2678" data-name="Path 2678" d="M580.82,162.2c-.746.751-1.854.765-2.831.967a5.346,5.346,0,0,0-2.523,1.167,4.151,4.151,0,0,0-1.2,2.135c-.237.921-.236,2.148-.912,2.885-.608.661-1.568.771-2.086,1.566a4.214,4.214,0,0,0-.477,2.581,5.664,5.664,0,0,1-.857,3.595,2.848,2.848,0,0,0-.619,2.4c.116.316.65.495.817.107.741-1.713,1.972-3.211,2-5.16.013-1.151-.387-2.481.721-3.243.714-.49,1.4-.727,1.855-1.514.934-1.608.369-3.771,2.2-4.829,1.546-.9,3.566-.435,4.661-2.084.3-.453-.369-.951-.743-.574" transform="translate(-5.488 -1.395)" fill="#180659"/>
    <path id="Path_2679" data-name="Path 2679" d="M565.863,180.429a4.464,4.464,0,0,0,2.084-2.9,2.938,2.938,0,0,1,1.317-1.908c.727-.427,1.594-.4,2.307-.874a.54.54,0,0,0-.544-.932c-1.367.613-2.636.634-3.534,1.99a5.206,5.206,0,0,0-.631,1.772,5.211,5.211,0,0,1-1.44,2.286c-.27.294.078.8.441.572" transform="translate(-5.45 -1.496)" fill="#180659"/>
    <path id="Path_2680" data-name="Path 2680" d="M580.794,163.428c1.344-.529,2.351-1.311,3.854-1.4a7.064,7.064,0,0,1,2.408.226,19.994,19.994,0,0,0,2,.634c1.366.242,2.517-.53,3.809-.831a12.823,12.823,0,0,1,4.935.171c.628.086,1.164-.782.476-1.13a8.385,8.385,0,0,0-4.62-.576,10.416,10.416,0,0,0-2.485.611,3.584,3.584,0,0,1-2.8.142c-2.724-.944-6.145-.984-7.97,1.642a.354.354,0,0,0,.4.516" transform="translate(-5.595 -1.381)" fill="#180659"/>
    <path id="Path_2681" data-name="Path 2681" d="M637.023,166.115c.384,2.049,1.089,3.967,1.286,6.062a23.8,23.8,0,0,1,.1,2.861c-.027,1.014-.248,2.044-.2,3.052a.41.41,0,0,0,.8.109c.717-1.9.494-4.452.254-6.429a14.472,14.472,0,0,0-1.694-5.887.3.3,0,0,0-.548.231" transform="translate(-6.141 -1.427)" fill="#180659"/>
    <path id="Path_2682" data-name="Path 2682" d="M644.062,138.137a11.261,11.261,0,0,0,2.721-1c.351-.188.571-.346.537-.776-.064-.811-.567-1.273-.331-2.159a2.29,2.29,0,0,1,2.423-1.677c1.369.113,2.117,1.479,3.49.36a2.207,2.207,0,0,0,.776-1.381c.113-.79-.551-1.814.147-2.423.342-.3-.1-.852-.479-.623-1.479.892.407,3.628-1.431,4-.63.127-1.541-.641-2.182-.744a3.276,3.276,0,0,0-1.805.227,3.124,3.124,0,0,0-1.843,2.741,3.16,3.16,0,0,0,.109.991,6.058,6.058,0,0,1,.264.646c-.15.452-2.095,1.019-2.6,1.348a.261.261,0,0,0,.2.475" transform="translate(-6.206 -1.105)" fill="#180659"/>
    <path id="Path_2683" data-name="Path 2683" d="M659.231,140.992c-.587.873-1.695.8-2.578,1.254-.935.477-1.851.992-2.772,1.5-1.974,1.077-3.962,2.127-5.941,3.2-.494.268-.055,1.016.441.754q3.479-1.84,6.956-3.686.795-.422,1.589-.844a8.478,8.478,0,0,1,1.674-.529,1.73,1.73,0,0,0,1.275-1.368.354.354,0,0,0-.644-.272" transform="translate(-6.244 -1.212)" fill="#180659"/>
    <path id="Path_2684" data-name="Path 2684" d="M613.549,165.942c-1.484,4.144,2.414,8.056,6.452,7.891.726-.03.73-1.163,0-1.133-3.339.136-6.6-2.991-5.361-6.457.247-.688-.847-.984-1.091-.3" transform="translate(-5.912 -1.425)" fill="#180659"/>
    <path id="Path_2685" data-name="Path 2685" d="M522.065,234.254c.136-2.471,1.6-4.472,2.37-6.752a6.581,6.581,0,0,0,.365-2.865,9.055,9.055,0,0,1-.275-2.289,9.365,9.365,0,0,1,.956-2.487c1.319-2.914,2.619-5.837,3.948-8.746a6.946,6.946,0,0,1,2.455-3.391c1.035-.666,2.182-1.138,3.178-1.87,1.885-1.385,2.526-3.655,4.107-5.287.736-.758,1.86-1.134,2.459-2.029a4.653,4.653,0,0,0,.485-1.441,2.941,2.941,0,0,1,.989-1.53,17.893,17.893,0,0,0,2.028-1.762c.808-.977.754-1.96.831-3.172.17-2.675,3.258-4.9,5.492-5.9a2.657,2.657,0,0,1,2.1-.343,2.649,2.649,0,0,0,1.274.21,10.253,10.253,0,0,0,3.376-1.382c2.808-1.49,5.647-2.774,8.549-4.075.582-.262.16-1.288-.439-1.043a75.106,75.106,0,0,0-7.8,3.553,14.9,14.9,0,0,1-3.432,1.627c-.975.236-1.772-.452-2.78-.189a12.469,12.469,0,0,0-6.287,4.369,5.423,5.423,0,0,0-1.29,2.968,5.179,5.179,0,0,1-.279,2.2,4.342,4.342,0,0,1-1.164,1.2,7.656,7.656,0,0,0-2.009,1.96,6.768,6.768,0,0,0-.474,1.5c-.271.88-.962,1.146-1.651,1.646-1.975,1.431-2.576,3.94-4.336,5.545-1.847,1.684-4.394,2.137-5.62,4.515-1.482,2.872-2.657,5.951-3.977,8.9-.6,1.341-1.56,2.881-1.721,4.373s.551,2.846.176,4.368c-.64,2.594-2.671,4.812-2.383,7.61a.39.39,0,0,0,.78,0" transform="translate(-5.025 -1.533)" fill="#180659"/>
    <path id="Path_2686" data-name="Path 2686" d="M659.884,175.476c1.9,1.9,4.68.508,6.98.481,3.437-.041,6.624,1.688,9.544,3.317a7.117,7.117,0,0,1,3.206,2.693c.617,1.271.334,2.621,1.332,3.748a5.729,5.729,0,0,1,1.284,1.986c.194.546.323,1.114.522,1.659a5.605,5.605,0,0,0,2.4,2.867,28.28,28.28,0,0,1,6.608,6.466,20.366,20.366,0,0,1,2.482,3.855,11.43,11.43,0,0,0,2.373,3.572c1.835,1.792,2.769,4.112,4.329,6.1a6.73,6.73,0,0,0,2.336,1.994,8.145,8.145,0,0,0,1.378.46,3.384,3.384,0,0,1,2.233,1.638,49.546,49.546,0,0,1,2.252,4.645c.885,1.867,2.181,3.783,1.768,5.93a14.836,14.836,0,0,0-.6,4.578,43.245,43.245,0,0,1,.636,4.689.583.583,0,0,0,1.166,0,22.831,22.831,0,0,0-.513-3.756,10.985,10.985,0,0,1-.186-2.375,21.2,21.2,0,0,1,.6-2.83c.6-3.029-1.465-5.931-2.711-8.56a18.512,18.512,0,0,0-1.873-3.556c-.986-1.259-2.219-1.238-3.573-1.858-2.328-1.065-3.291-3.906-4.656-5.885a21.915,21.915,0,0,0-2.274-2.547c-1.222-1.292-1.691-3.074-2.632-4.562a34.223,34.223,0,0,0-6.1-7.255c-.983-.86-2.168-1.417-3.169-2.242-1.284-1.057-1.34-2.7-2-4.115a6,6,0,0,0-1.052-1.475,4.023,4.023,0,0,1-.938-2.288,5.107,5.107,0,0,0-2-3.243,23.742,23.742,0,0,0-3.866-2.285,24.341,24.341,0,0,0-5.03-2.063A11.85,11.85,0,0,0,665.2,175c-1.576.259-3.406.87-4.82-.175-.382-.284-.822.324-.5.647" transform="translate(-6.361 -1.505)" fill="#180659"/>
    <path id="Path_2687" data-name="Path 2687" d="M576.623,154.233c-.673-1.151-1.828-1.831-2.662-2.846a4.475,4.475,0,0,1-.5-5.232c1.168-2.5,1.614-5.394-.156-7.732-.2-.263-.746-.229-.707.191.079.871,1.182,1.208,1.832,1.636a15.351,15.351,0,0,1,3.2,2.666,6.87,6.87,0,0,1,1.761,4.036,5.708,5.708,0,0,1-1.56,3.929c-1.217,1.506-2.954,3.035-1.418,4.938a8.757,8.757,0,0,0,2.916,2.114,5.74,5.74,0,0,1,2.66,3.626c.2.555,1.085.317.889-.245a9.37,9.37,0,0,0-1.4-2.881c-.809-1-2-1.32-3.054-1.982a4.584,4.584,0,0,1-1.668-1.575c-.511-1.1.474-2.014,1.087-2.752a11.629,11.629,0,0,0,1.916-2.772,6.321,6.321,0,0,0-.81-5.871,11.237,11.237,0,0,0-2.437-2.579c-.411-.327-.838-.635-1.271-.933-.3-.208-1.871-1.008-1.885-1.354l-.707.192a6.077,6.077,0,0,1,.658,5.24c-.4,1.4-1.384,2.664-1.457,4.15-.15,3.054,2.455,4.473,4.193,6.487.279.323.791-.092.582-.45" transform="translate(-5.513 -1.19)" fill="#180659"/>
    <path id="Path_2688" data-name="Path 2688" d="M579.292,157.494c-2.619-.975-5.6-2.065-8.378-1.034a5.455,5.455,0,0,0-2.551,1.971c-.465.636-.836,1.346-1.344,1.953a8.739,8.739,0,0,1-1.849,1.535c-.291.2-.3.744.108.823,1.826.355,3.645.748,5.468,1.114a9.4,9.4,0,0,0,4.474.15,5.208,5.208,0,0,0,2.651-1.829,4.988,4.988,0,0,0,.8-1.539c.25-.792.184-1.888.911-2.437.387-.292.015-.957-.386-.663a3.437,3.437,0,0,0-1.154,2.277,4.518,4.518,0,0,1-2.742,3.264c-1.594.6-3.369.14-4.968-.192s-3.216-.661-4.82-1.013c.037.275.072.548.108.823a8.642,8.642,0,0,0,2.347-2.024c.829-1.106,1.409-2.4,2.693-3.071,2.684-1.4,5.74,0,8.461.5a.316.316,0,0,0,.167-.609" transform="translate(-5.446 -1.344)" fill="#180659"/>
    <path id="Path_2689" data-name="Path 2689" d="M582.962,161.057c-.877-2.525-1.5-5.582-.289-8.124a6.542,6.542,0,0,1,2.708-2.536c1.013-.655,1.772-1.617,2.783-2.254l-.632-.364q-.086,2.466-.173,4.932c-.061,1.692-.4,3.035-1.875,4.024a9.03,9.03,0,0,0-2.692,1.934,3.446,3.446,0,0,0-.536,2.714c.086.474.805.273.722-.2-.334-1.9,1.067-2.68,2.474-3.488a5.4,5.4,0,0,0,2.144-2.053,6.823,6.823,0,0,0,.6-3.157q.091-2.354.18-4.708a.423.423,0,0,0-.632-.363,9.84,9.84,0,0,0-1.509,1.265,13.625,13.625,0,0,1-2.012,1.447,5.927,5.927,0,0,0-2.444,2.746,10.072,10.072,0,0,0,.6,8.434c.184.3.718.108.593-.251" transform="translate(-5.602 -1.269)" fill="#180659"/>
    <path id="Path_2690" data-name="Path 2690" d="M571.132,160.289a15.749,15.749,0,0,1,4.008-1.654,19.672,19.672,0,0,1,4.3-.323c.282-.007.365-.449.069-.511a10.686,10.686,0,0,0-8.454,2.385c-.058.049.016.138.078.1" transform="translate(-5.505 -1.357)" fill="#180659"/>
    <path id="Path_2691" data-name="Path 2691" d="M584.317,153.762a10.431,10.431,0,0,0-1.978,8.378.27.27,0,0,0,.529-.071,20.352,20.352,0,0,1,.194-4.206,15.232,15.232,0,0,1,1.452-3.984.114.114,0,0,0-.2-.116" transform="translate(-5.612 -1.323)" fill="#180659"/>
    <path id="Path_2692" data-name="Path 2692" d="M575.953,145.413c.29,3.178-1.608,6.866.314,9.846a.19.19,0,0,0,.352-.1,10.567,10.567,0,0,0-.422-1.987,9.7,9.7,0,0,1-.167-2.953,18.257,18.257,0,0,0,.161-4.843.121.121,0,0,0-.237.032" transform="translate(-5.547 -1.251)" fill="#180659"/>
    <path id="Path_2693" data-name="Path 2693" d="M525.4,222.716a8.507,8.507,0,0,0,.938,2.412.143.143,0,0,0,.26-.11,15.109,15.109,0,0,0-.715-2.435.251.251,0,0,0-.483.133" transform="translate(-5.065 -1.915)" fill="#180659"/>
    <path id="Path_2694" data-name="Path 2694" d="M526.817,221.843l.475.931a2.955,2.955,0,0,0,.5.816.168.168,0,0,0,.279-.163,2.983,2.983,0,0,0-.421-.861l-.527-.9a.176.176,0,0,0-.3.178" transform="translate(-5.079 -1.908)" fill="#180659"/>
    <path id="Path_2695" data-name="Path 2695" d="M528.609,220.846l.369.261a.638.638,0,0,0,.379.164.122.122,0,0,0,.117-.153.665.665,0,0,0-.288-.318l-.387-.28c-.2-.142-.388.186-.19.326" transform="translate(-5.095 -1.898)" fill="#180659"/>
    <path id="Path_2696" data-name="Path 2696" d="M529.7,219.089a1.215,1.215,0,0,0,.42.226.085.085,0,0,0,.094-.123,1.253,1.253,0,0,0-.3-.376.173.173,0,1,0-.21.273" transform="translate(-5.106 -1.884)" fill="#180659"/>
    <path id="Path_2697" data-name="Path 2697" d="M530.055,217.305a3.119,3.119,0,0,0,.438.212.736.736,0,0,0,.458.088.156.156,0,0,0,.068-.259.957.957,0,0,0-.378-.158,2.568,2.568,0,0,1-.407-.188.176.176,0,0,0-.178.3" transform="translate(-5.109 -1.868)" fill="#180659"/>
    <path id="Path_2698" data-name="Path 2698" d="M530.75,215.37c.337.138.952.411,1.268.134a.142.142,0,0,0,0-.2c-.146-.161-.325-.146-.525-.175a3.676,3.676,0,0,1-.633-.161c-.256-.088-.351.3-.11.4" transform="translate(-5.115 -1.851)" fill="#180659"/>
    <path id="Path_2699" data-name="Path 2699" d="M531.154,212.727a2.545,2.545,0,0,0,1.743-.067.17.17,0,0,0-.04-.306,13.049,13.049,0,0,0-1.641-.088c-.261-.032-.322.411-.062.462" transform="translate(-5.119 -1.827)" fill="#180659"/>
    <path id="Path_2700" data-name="Path 2700" d="M532.349,210.358a6.6,6.6,0,0,0,.94-.045.205.205,0,0,0,0-.394,6.6,6.6,0,0,0-.94-.045.242.242,0,0,0,0,.483" transform="translate(-5.13 -1.807)" fill="#180659"/>
    <path id="Path_2701" data-name="Path 2701" d="M545.437,198.946c-.993,1.193-2.269,2.095-3.3,3.25-.588.658-1.758,2.084-1.438,3.078.712,2.212,4.755-1.437,5.483-2.036a30.9,30.9,0,0,0,3.437-3.31,12.093,12.093,0,0,0,2.4-3.194,1.248,1.248,0,0,0-.741-1.75c-1.2-.259-2.734,1.049-3.456,1.854a.285.285,0,0,0,.4.4c.409-.324,3.319-2.577,2.949-.453-.08.46-.808,1.106-1.087,1.454q-.36.448-.736.879a30.844,30.844,0,0,1-3.841,3.714,28.032,28.032,0,0,1-2.39,1.746c-.3.191-1.444,1.059-1.616,0-.071-.437.757-1.458,1-1.759,1.026-1.277,2.362-2.24,3.3-3.6.148-.215-.2-.485-.364-.282" transform="translate(-5.212 -1.678)" fill="#180659"/>
    <path id="Path_2702" data-name="Path 2702" d="M539.619,206.289c-.535.221-.369.966-.067,1.316a1.687,1.687,0,0,0,1.727.441.234.234,0,0,0,0-.4c-.339-.2-.79-.114-1.132-.341s-.308-.508-.317-.853c0-.1-.106-.205-.211-.162" transform="translate(-5.199 -1.776)" fill="#180659"/>
    <path id="Path_2703" data-name="Path 2703" d="M543.331,207.436a1.076,1.076,0,0,0,.206.494.2.2,0,0,0,.336-.089,1.069,1.069,0,0,0-.082-.53.238.238,0,0,0-.46.126" transform="translate(-5.238 -1.783)" fill="#180659"/>
    <path id="Path_2704" data-name="Path 2704" d="M544.284,207.008l.242.3c.091.11.172.231.333.222a.21.21,0,0,0,.2-.152c.042-.176-.064-.278-.17-.4l-.262-.306a.243.243,0,0,0-.341,0,.246.246,0,0,0,0,.341" transform="translate(-5.246 -1.779)" fill="#180659"/>
    <path id="Path_2705" data-name="Path 2705" d="M546.893,205.323a21.981,21.981,0,0,0,2.3-1.745,8.923,8.923,0,0,0,1.977-2.1c.089-.16-.1-.4-.271-.271a25.779,25.779,0,0,0-1.843,1.809,24.957,24.957,0,0,1-2.37,1.951c-.209.152-.015.5.206.353" transform="translate(-5.269 -1.732)" fill="#180659"/>
    <path id="Path_2706" data-name="Path 2706" d="M552.014,200.328a1.189,1.189,0,0,0,.808.137.257.257,0,0,0,.185-.246.39.39,0,0,0-.008-.067.252.252,0,0,0-.177-.178,3.667,3.667,0,0,1-.6-.137c-.281-.114-.482.361-.207.492" transform="translate(-5.32 -1.72)" fill="#180659"/>
    <path id="Path_2707" data-name="Path 2707" d="M553.085,199.243c.232.066.792.321.894-.046s-.51-.44-.743-.5a.285.285,0,0,0-.152.549" transform="translate(-5.33 -1.711)" fill="#180659"/>
    <path id="Path_2708" data-name="Path 2708" d="M554.12,197.25a4.566,4.566,0,0,0,.9-2.958c-.084-.65-.621-1.469-1.368-1.181-.138.054-.22.286-.047.362.806.355.889,1.008.737,1.8a6.152,6.152,0,0,1-.63,1.738.238.238,0,0,0,.411.241" transform="translate(-5.336 -1.662)" fill="#180659"/>
    <path id="Path_2709" data-name="Path 2709" d="M547.188,190.207c.127.468.253,1.159.688,1.438a.166.166,0,0,0,.247-.142,1.416,1.416,0,0,0-.171-.7c-.1-.241-.181-.488-.256-.737a.263.263,0,0,0-.507.14" transform="translate(-5.275 -1.635)" fill="#180659"/>
    <path id="Path_2710" data-name="Path 2710" d="M548.4,189.665c.091.34.427,1.025.872.924a.179.179,0,0,0,.123-.217c-.037-.169-.213-.271-.323-.392a1.146,1.146,0,0,1-.242-.434.223.223,0,0,0-.43.119" transform="translate(-5.287 -1.631)" fill="#180659"/>
    <path id="Path_2711" data-name="Path 2711" d="M550.728,188.236a2.872,2.872,0,0,0,.24.306.759.759,0,0,0,.123.123,1.274,1.274,0,0,0,.188.092c.051.024.123-.029.084-.084s-.059-.1-.088-.146a.785.785,0,0,0-.108-.129,2.393,2.393,0,0,1-.22-.29c-.089-.138-.311-.007-.219.128" transform="translate(-5.309 -1.619)" fill="#180659"/>
    <path id="Path_2712" data-name="Path 2712" d="M552.507,185.931a3.781,3.781,0,0,0,1.351.492.146.146,0,0,0,.1-.248,3.779,3.779,0,0,0-1.277-.662c-.239-.1-.41.307-.176.418" transform="translate(-5.325 -1.597)" fill="#180659"/>
    <path id="Path_2713" data-name="Path 2713" d="M559.544,189.458c.491-.836,1.4-.922,2.23-1.225a4.3,4.3,0,0,0,1.475-.922c1.067-.975,2.608-1.4,3.489-2.542.072-.094-.025-.273-.143-.184a12.632,12.632,0,0,1-2.113,1.163,9.469,9.469,0,0,0-1.789,1.261c-1.119.884-2.862.81-3.534,2.225-.122.256.237.476.384.225" transform="translate(-5.39 -1.589)" fill="#180659"/>
    <path id="Path_2714" data-name="Path 2714" d="M573.638,178.178a3.541,3.541,0,0,0,1.624.177c.686-.146,1.118-.692,1.735-.98,1.127-.525,2.662-.15,3.58-1.1a.2.2,0,0,0-.189-.326c-1.032.325-2.086.4-3.117.693a3.428,3.428,0,0,0-1.1.543,2.8,2.8,0,0,1-2.418.564c-.277-.046-.4.356-.119.43" transform="translate(-5.529 -1.515)" fill="#180659"/>
    <path id="Path_2715" data-name="Path 2715" d="M583.638,175.914a3.4,3.4,0,0,1,.367-.236c.06-.033.125-.059.184-.092a.6.6,0,0,0,.164-.164.183.183,0,0,0-.127-.307.516.516,0,0,0-.24.009,1.715,1.715,0,0,0-.214.105,3.338,3.338,0,0,0-.388.252.259.259,0,0,0-.09.343.252.252,0,0,0,.343.09" transform="translate(-5.623 -1.508)" fill="#180659"/>
    <path id="Path_2716" data-name="Path 2716" d="M613.273,154.38a5.524,5.524,0,0,1,4.81,2.059,7.545,7.545,0,0,1,2.214,4.5c.055.384.644.222.584-.162a7.648,7.648,0,0,0-.86-2.875,12.79,12.79,0,0,0-2.1-2.424c-1.168-1.127-3.118-2.372-4.739-1.43a.181.181,0,0,0,.09.334" transform="translate(-5.911 -1.323)" fill="#180659"/>
    <path id="Path_2717" data-name="Path 2717" d="M618.366,147.71c1.93.087,3.76.107,5.27,1.489a7.558,7.558,0,0,1,2.552,4.418.278.278,0,0,0,.556,0c.014-1.9-1.391-3.784-2.772-4.991a6.5,6.5,0,0,0-5.653-1.269c-.207.038-.146.344.048.353" transform="translate(-5.96 -1.267)" fill="#180659"/>
    <path id="Path_2718" data-name="Path 2718" d="M621.9,139.459a7.854,7.854,0,0,1,5.917.687,6.988,6.988,0,0,1,3.084,4.323.325.325,0,0,0,.627-.173c-1.024-4.107-5.69-7.164-9.782-5.2-.212.1-.054.4.154.362" transform="translate(-5.993 -1.192)" fill="#180659"/>
    <path id="Path_2719" data-name="Path 2719" d="M608.891,152.078c1.44.691,2.237,2.255,3.183,3.459.218.278.687-.085.49-.379-.91-1.354-1.934-2.866-3.528-3.425-.2-.07-.339.252-.146.345" transform="translate(-5.869 -1.306)" fill="#180659"/>
    <path id="Path_2720" data-name="Path 2720" d="M639.037,170.822c.745.033,1.25.088,1.581.825a6.85,6.85,0,0,1,.406,1.882,11.2,11.2,0,0,1-.2,3.784c-.092.426.559.61.657.18a11.607,11.607,0,0,0,.052-5.075c-.119-.549-.263-1.7-.761-2.065-.456-.337-1.21-.148-1.733-.088a.279.279,0,0,0,0,.557" transform="translate(-6.158 -1.465)" fill="#180659"/>
    <path id="Path_2721" data-name="Path 2721" d="M623.091,158.376a19.613,19.613,0,0,0,6.76.185,36.957,36.957,0,0,0,13.22-3.794,19.616,19.616,0,0,0,5.705-3.866.439.439,0,0,0-.62-.622c-3.125,3.084-7.7,4.939-11.861,6.1a37.267,37.267,0,0,1-6.445,1.2c-2.223.215-4.471,0-6.685.227a.289.289,0,0,0-.075.565" transform="translate(-6.005 -1.293)" fill="#180659"/>
    <path id="Path_2722" data-name="Path 2722" d="M625.724,155.184a19.48,19.48,0,0,0,5.605-.2,38.56,38.56,0,0,0,16.644-6.364c.439-.3.024-1.017-.419-.717A37.979,37.979,0,0,1,631.5,154.15c-1.917.274-3.864.225-5.775.5a.278.278,0,0,0,0,.531" transform="translate(-6.03 -1.273)" fill="#180659"/>
    <path id="Path_2723" data-name="Path 2723" d="M637.877,153.341c.686.846.332,2,.94,2.863a.3.3,0,0,0,.543-.229c-.057-.3-.187-.568-.264-.859s-.112-.617-.189-.921a2.759,2.759,0,0,0-.674-1.21c-.223-.241-.554.11-.355.355" transform="translate(-6.149 -1.316)" fill="#180659"/>
    <path id="Path_2724" data-name="Path 2724" d="M641.661,152.087a1.631,1.631,0,0,1,.668,1.105,12.107,12.107,0,0,0,.483,1.325c.142.32.588.078.532-.224-.173-.919-.419-2.387-1.5-2.648-.257-.062-.436.308-.186.441" transform="translate(-6.185 -1.306)" fill="#180659"/>
    <path id="Path_2725" data-name="Path 2725" d="M648.852,149.62c1.016-1.529,3.078-2.437,4.66-3.287q1.3-.7,2.636-1.306c1.129-.513,2.352-1.251,3.593-.653a.3.3,0,0,0,.3-.519,2.751,2.751,0,0,0-2.672-.11,32.962,32.962,0,0,0-3.653,1.692,38.9,38.9,0,0,0-3.63,2.118c-.714.476-1.5.989-1.661,1.887a.233.233,0,0,0,.424.178" transform="translate(-6.251 -1.235)" fill="#180659"/>
    <path id="Path_2726" data-name="Path 2726" d="M654.15,145.576a50.345,50.345,0,0,1,1.147,6.156c.16,1.8.54,4.082-.17,5.8-.168.408.5.586.662.183.77-1.863.379-4.235.193-6.186a17.468,17.468,0,0,0-1.4-6.132c-.125-.249-.483-.068-.43.181" transform="translate(-6.306 -1.251)" fill="#180659"/>
    <path id="Path_2727" data-name="Path 2727" d="M646.905,133.471a2.819,2.819,0,0,0-.13,3.31,3.083,3.083,0,0,0,3.28.786,2.82,2.82,0,0,0,2.069-2.624c.09-1.217-.207-2.626-1.572-2.913-.441-.093-.63.568-.187.68,1.113.283,1.165,1.895.866,2.8a2.173,2.173,0,0,1-1.917,1.38c-2.048.24-2.759-1.592-2.075-3.283.08-.2-.228-.308-.334-.141" transform="translate(-6.23 -1.137)" fill="#180659"/>
    <path id="Path_2728" data-name="Path 2728" d="M649.179,133.043a1.306,1.306,0,0,0-1.362,1.627,1.691,1.691,0,0,0,2.143,1.183,1.752,1.752,0,0,0,.928-2.16,1.577,1.577,0,0,0-2.318-.405.229.229,0,0,0,.16.386c.4.034.942-.116,1.3.175.284.235.052.988-.235,1.151-.985.558-1.759-1.293-.612-1.43a.263.263,0,0,0,0-.526" transform="translate(-6.245 -1.145)" fill="#180659"/>
    <path id="Path_2729" data-name="Path 2729" d="M655.365,131.9c1.629,3.139,2.891,6.1,2.937,9.7a.4.4,0,0,0,.8,0c-.1-3.466-1.042-7.321-3.363-9.992-.186-.215-.5.059-.378.292" transform="translate(-6.318 -1.132)" fill="#180659"/>
    <path id="Path_2730" data-name="Path 2730" d="M649.742,123.793a3.092,3.092,0,0,0,.968-.277,2.467,2.467,0,0,1,1.115-.338,1.488,1.488,0,0,1,.891.829c.251.513.5,1.028.745,1.542.073.151.363.527.332.7s-.7.573-.831.678c-.41.334.175.918.581.582.5-.409,1.257-.766,1.033-1.5a13.767,13.767,0,0,0-1.361-2.77c-.828-1.381-2.7-.789-3.615.214-.107.117-.044.361.142.343" transform="translate(-6.262 -1.054)" fill="#180659"/>
    <path id="Path_2731" data-name="Path 2731" d="M640.845,119.607c1.41.89,3.156,1.041,4.7,1.61a10.711,10.711,0,0,1,4.174,3.185c.364.388.949-.106.714-.552-1.7-3.237-6.07-4.225-9.332-4.854a.336.336,0,0,0-.258.611" transform="translate(-6.176 -1.024)" fill="#180659"/>
    <path id="Path_2732" data-name="Path 2732" d="M626.325,102.718c.469-1.694,2.094.079,2.54.764a9.708,9.708,0,0,1,.963,1.931,20.3,20.3,0,0,1,.911,3.726c.4,2.36,1.181,6.008-.83,7.887a.339.339,0,0,0,0,.472c.028.033.056.065.085.1a.465.465,0,0,0,.556.071c1.4-.737,1.635-3.167,1.626-4.548a26.908,26.908,0,0,0-.98-6.6,8.863,8.863,0,0,0-2.8-4.907,1.552,1.552,0,0,0-2.615,1.033c-.04.314.461.364.541.073" transform="translate(-6.033 -0.871)" fill="#180659"/>
    <path id="Path_2733" data-name="Path 2733" d="M625.841,102.687c.224.321.421.321.775.5a4.718,4.718,0,0,1,1.664,1.584,11.071,11.071,0,0,1,1.49,3.8c.592,2.573,1.4,5.731-.018,8.157a.476.476,0,0,0,.822.481c1.555-2.782.7-6.32-.052-9.232a10.6,10.6,0,0,0-1.909-4.153c-.514-.626-1.805-1.979-2.7-1.4a.192.192,0,0,0-.067.259" transform="translate(-6.033 -0.881)" fill="#180659"/>
    <path id="Path_2734" data-name="Path 2734" d="M626.247,102.674c.408-.453.62-1.017,1.04-1.469a5.443,5.443,0,0,1,1.659-1.163,28.143,28.143,0,0,1,3.872-1.329c1.467-.455,3.517-1.1,4.769.2,1.086,1.131.877,3.209.993,4.644a.268.268,0,0,0,.523.07,6.308,6.308,0,0,0-.647-5.052c-.986-1.32-2.772-1.469-4.268-1.167a25.832,25.832,0,0,0-5.382,1.729c-1.384.629-2.809,1.74-3.019,3.348-.03.234.314.352.46.19" transform="translate(-6.033 -0.837)" fill="#180659"/>
    <path id="Path_2735" data-name="Path 2735" d="M638.332,106c-1.461,4.3-3.171,9.616-8.09,10.92a.468.468,0,0,0,.248.9,10.341,10.341,0,0,0,5.292-4.013,18.76,18.76,0,0,0,2.86-7.723.161.161,0,0,0-.31-.085" transform="translate(-6.073 -0.912)" fill="#180659"/>
    <path id="Path_2736" data-name="Path 2736" d="M578.247,165.7a4.309,4.309,0,0,0-.892,2.78c.041.256.387.2.46,0,.146-.4.169-.844.282-1.255a7.1,7.1,0,0,1,.519-1.31.213.213,0,0,0-.368-.215" transform="translate(-5.566 -1.426)" fill="#180659"/>
    <path id="Path_2737" data-name="Path 2737" d="M580.146,166.4a2.123,2.123,0,0,0,.29,1.174.161.161,0,0,0,.268-.071,1.189,1.189,0,0,0-.038-.514q-.062-.293-.1-.589c-.034-.263-.447-.273-.421,0" transform="translate(-5.593 -1.431)" fill="#180659"/>
    <path id="Path_2738" data-name="Path 2738" d="M582.5,165.391a5.154,5.154,0,0,0,.48.451c.172.142.355.321.589.281a.221.221,0,0,0,.152-.268c-.039-.192-.271-.3-.416-.418a5.214,5.214,0,0,1-.447-.4c-.231-.232-.582.122-.359.359" transform="translate(-5.615 -1.42)" fill="#180659"/>
    <path id="Path_2739" data-name="Path 2739" d="M585.1,164.446a3.966,3.966,0,0,0,.737.525.252.252,0,0,0,.3-.394,4.39,4.39,0,0,0-.756-.619.283.283,0,0,0-.385.1.29.29,0,0,0,.1.386" transform="translate(-5.639 -1.411)" fill="#180659"/>
    <path id="Path_2740" data-name="Path 2740" d="M592.571,161.835c-1.328.706-2.959,1.134-4.1,2.135-.154.134.015.346.183.315,1.493-.273,2.8-1.4,4.066-2.188a.152.152,0,0,0-.153-.263" transform="translate(-5.673 -1.393)" fill="#180659"/>
    <path id="Path_2741" data-name="Path 2741" d="M594.607,165.846a7.278,7.278,0,0,1,2.727.532,12.2,12.2,0,0,1,1.894,1.226c.218.147.445-.133.338-.338-.879-1.694-3.288-1.886-4.959-1.873a.226.226,0,0,0,0,.452" transform="translate(-5.73 -1.424)" fill="#180659"/>
    <path id="Path_2742" data-name="Path 2742" d="M666.539,178.46a2.857,2.857,0,0,1,.685-.517c.237-.124.577-.147.755-.351a.3.3,0,0,0-.06-.472,1.207,1.207,0,0,0-1.056.2,2.505,2.505,0,0,0-.829.747c-.219.3.253.641.505.39" transform="translate(-6.42 -1.524)" fill="#180659"/>
    <path id="Path_2743" data-name="Path 2743" d="M669.089,177.975c-.163.158-.321.321-.469.492a1.084,1.084,0,0,0-.314.562.18.18,0,0,0,.227.172,1.276,1.276,0,0,0,.466-.4c.144-.162.294-.317.45-.468.236-.227-.124-.586-.359-.359" transform="translate(-6.443 -1.532)" fill="#180659"/>
    <path id="Path_2744" data-name="Path 2744" d="M670.537,178.766a3.38,3.38,0,0,0-.512.643.985.985,0,0,0-.2.767.245.245,0,0,0,.354.145c.194-.111.281-.363.385-.552a2.634,2.634,0,0,1,.412-.561.313.313,0,0,0-.442-.442" transform="translate(-6.457 -1.538)" fill="#180659"/>
    <path id="Path_2745" data-name="Path 2745" d="M672.734,180.282l-.144.3a1.611,1.611,0,0,0-.14.32c-.052.22.247.444.412.24a3.2,3.2,0,0,0,.32-.594.268.268,0,0,0-.093-.357.263.263,0,0,0-.356.093" transform="translate(-6.483 -1.551)" fill="#180659"/>
    <path id="Path_2746" data-name="Path 2746" d="M674.707,181.965a3.737,3.737,0,0,0-.1.5.676.676,0,0,0,.036.492.2.2,0,0,0,.316.041.732.732,0,0,0,.116-.441,3,3,0,0,1,.1-.464.242.242,0,0,0-.465-.128" transform="translate(-6.503 -1.565)" fill="#180659"/>
    <path id="Path_2747" data-name="Path 2747" d="M676.4,182.551a5.133,5.133,0,0,0-.174.829c-.032.242-.05.479.169.633a.166.166,0,0,0,.171,0c.2-.127.207-.336.227-.551a4.471,4.471,0,0,1,.144-.763.279.279,0,0,0-.537-.148" transform="translate(-6.519 -1.57)" fill="#180659"/>
    <path id="Path_2748" data-name="Path 2748" d="M694.249,205.91a8.81,8.81,0,0,0-2.709-2.979c-.589-.347-1.662-.872-2.217-.189-.672.827.054,2.836.374,3.676a9.281,9.281,0,0,0,2.09,3.251c.515.516,1.136.9,1.652,1.415s.908,1.155,1.455,1.657c.563.517,1.849,1.626,2.688,1.086,1.919-1.236-2.016-5.081-2.774-5.862-.246-.254-.714.084-.5.386.56.792,1.214,1.516,1.834,2.261a8.417,8.417,0,0,1,.838,1.073c.369.631.629,1.868-.473,1.264a7.1,7.1,0,0,1-2.021-1.851,19.137,19.137,0,0,0-1.89-1.74,8.459,8.459,0,0,1-2.6-4.841c-.12-.746-.187-1.488.817-1.021a4.738,4.738,0,0,1,1.055.7,15.5,15.5,0,0,1,1.927,2.062c.205.253.632-.078.452-.349" transform="translate(-6.643 -1.743)" fill="#180659"/>
    <path id="Path_2749" data-name="Path 2749" d="M688.575,200.526c-1.171.416-2.271,1.978-1.447,3.187a.238.238,0,0,0,.439-.118,3.709,3.709,0,0,1,.142-1.553,2.316,2.316,0,0,1,1.041-1.1c.22-.12.07-.5-.174-.413" transform="translate(-6.621 -1.726)" fill="#180659"/>
    <path id="Path_2750" data-name="Path 2750" d="M687.163,205.738c.218-.025.732-.024.732-.34,0-.342-.527-.238-.732-.211a.285.285,0,0,0-.275.276.277.277,0,0,0,.275.276" transform="translate(-6.622 -1.766)" fill="#180659"/>
    <path id="Path_2751" data-name="Path 2751" d="M687.522,206.959a2.032,2.032,0,0,0,.513-.1.33.33,0,0,0,.232-.3.316.316,0,0,0-.232-.3,1.081,1.081,0,0,0-.276-.021l-.237.025a.359.359,0,0,0-.35.35c.008.17.156.375.35.35" transform="translate(-6.625 -1.776)" fill="#180659"/>
    <path id="Path_2752" data-name="Path 2752" d="M688.721,209.028a3.871,3.871,0,0,0,1.1,1.67,4,4,0,0,0,1.763,1.118c.155.022.36-.143.238-.309a6.062,6.062,0,0,0-1.414-1.037,4.211,4.211,0,0,1-1.372-1.575c-.083-.177-.379-.052-.317.134" transform="translate(-6.64 -1.798)" fill="#180659"/>
    <path id="Path_2753" data-name="Path 2753" d="M694.246,214.763a2.491,2.491,0,0,0,.61.8.987.987,0,0,0,.866.319.17.17,0,0,0,.1-.246c-.128-.232-.393-.342-.6-.5a2.316,2.316,0,0,1-.567-.62.238.238,0,0,0-.411.241" transform="translate(-6.693 -1.846)" fill="#180659"/>
    <path id="Path_2754" data-name="Path 2754" d="M698.1,216.353a.857.857,0,0,0,.3.221.7.7,0,0,0,.265.077.156.156,0,0,0,.151-.152.7.7,0,0,0-.078-.266.842.842,0,0,0-.221-.3.294.294,0,0,0-.415.415" transform="translate(-6.729 -1.858)" fill="#180659"/>
    <path id="Path_2755" data-name="Path 2755" d="M703.087,217.5a4.455,4.455,0,0,0,1.922-.046c.2-.072.243-.4,0-.448a7.854,7.854,0,0,0-1.922.036.229.229,0,0,0,0,.458" transform="translate(-6.776 -1.868)" fill="#180659"/>
    <path id="Path_2756" data-name="Path 2756" d="M704.488,219.331c.373.109,1.053.154,1.215-.3a.223.223,0,0,0-.153-.27.966.966,0,0,0-.471.021,1.157,1.157,0,0,1-.441.007.282.282,0,0,0-.15.543" transform="translate(-6.79 -1.883)" fill="#180659"/>
    <path id="Path_2757" data-name="Path 2757" d="M706.959,220.369c-.386.22-.771.436-1.145.677a3.407,3.407,0,0,0-.914.723c-.161.211.1.452.314.408a3.464,3.464,0,0,0,1.043-.528c.358-.218.7-.46,1.043-.7a.338.338,0,0,0-.341-.583" transform="translate(-6.795 -1.897)" fill="#180659"/>
    <path id="Path_2758" data-name="Path 2758" d="M707.753,222.9a16.246,16.246,0,0,0-1.688,1.458c-.2.218.06.608.33.427a16.694,16.694,0,0,0,1.742-1.5c.264-.236-.119-.608-.384-.386" transform="translate(-6.806 -1.918)" fill="#180659"/>
    <path id="Path_2759" data-name="Path 2759" d="M708.185,224.753a3.672,3.672,0,0,0-1.033,1.725.193.193,0,0,0,.289.166,5.39,5.39,0,0,0,1.2-1.538c.187-.269-.245-.607-.457-.353" transform="translate(-6.817 -1.934)" fill="#180659"/>
    <path id="Path_2760" data-name="Path 2760" d="M708.828,226.809a2.467,2.467,0,0,0-.655,1.583.182.182,0,0,0,.306.128,7.924,7.924,0,0,0,.931-1.37c.252-.357-.331-.688-.582-.341" transform="translate(-6.827 -1.951)" fill="#180659"/>
    <path id="Path_2761" data-name="Path 2761" d="M581.56,102.791a24.1,24.1,0,0,0,9.866-3.3c3.456-1.866,6.851-3.853,10.273-5.781,1.657-.934,3.454-2,5.414-2.009s3.563,1.156,4.941,2.419a21.856,21.856,0,0,1,2.26,2.441c6.309,7.82,11.826,19.061,8.735,29.264-1.672,5.521-7.03,8.027-12.038,9.913-.478.18-.271.957.214.774,4.522-1.7,9.587-3.9,11.829-8.5,2.334-4.784,1.916-10.766.522-15.735a45.734,45.734,0,0,0-7.665-14.96c-2.221-2.948-5.291-6.8-9.367-6.381a14.921,14.921,0,0,0-5.63,2.3l-6.28,3.544c-4.084,2.306-8.273,4.915-13.074,5.214-.513.032-.516.835,0,.8" transform="translate(-5.603 -0.783)" fill="#180659"/>
    <path id="Path_2762" data-name="Path 2762" d="M642.037,92.326a26.156,26.156,0,0,0-11.691-13.3c-7.146-3.745-15.525-3.392-23.138-1.424-7.81,2.017-15.474,5.773-20.669,12.118a28.408,28.408,0,0,0-6.364,16.419,28.974,28.974,0,0,0,4.312,16.638c3.179,5.345,7.95,10.559,14.037,12.521a7.332,7.332,0,0,0,.9.245,13.214,13.214,0,0,0,3.286.884,32.623,32.623,0,0,0,9.856-.053c9.274-1.315,19.013-5.01,25.147-12.384,7.349-8.834,8.709-21.187,4.328-31.669m-60.669,17.845a28.1,28.1,0,0,1-.1-2.813,52.043,52.043,0,0,0,8-2.371,95.533,95.533,0,0,0,9.05-3.843q2.809-1.361,5.535-2.882a5.369,5.369,0,0,1,3.481-.95c2.373.315,4.347,2.187,5.848,3.916a33.215,33.215,0,0,1,4.9,7.875c2.278,4.924,4.367,11.11,2.291,16.445a11.733,11.733,0,0,1-.8,1.665c.972-3.535,1.28-9.368-2.165-16.383-3.177-6.539-5.8-9.83-8.516-10.67-2.65-.822-5.191.628-8.408,2.462-6.271,3.574-17.034,6.6-17.143,6.627l-.246.068.012.256a37.691,37.691,0,0,0,3.547,14.572,29.065,29.065,0,0,1-5.288-13.975M619.6,133.656a47.579,47.579,0,0,1-10.565,2.03c4.475-1.311,8.781-3.574,11.3-7.568,3.159-5.009,2.022-11.063.091-16.3a40.434,40.434,0,0,0-4.447-8.777,18.642,18.642,0,0,0-5.77-5.868,6.2,6.2,0,0,0-6.153-.326c-3.812,2.014-7.577,4.033-11.569,5.681a60.655,60.655,0,0,1-11.179,3.678,27.255,27.255,0,0,1,3.525-12.038c3.6-6.281,9.641-10.7,16.273-13.378,7.562-3.052,16.45-4.8,24.448-2.472a23.578,23.578,0,0,1,13.653,10.86,30.292,30.292,0,0,1,.58,29.782c-4.3,7.775-11.874,12.226-20.187,14.7" transform="translate(-5.593 -0.656)" fill="#180659"/>
    <path id="Path_2763" data-name="Path 2763" d="M605.54,102.035c.515,1.174-.914,2.937-3.192,3.94s-4.543.862-5.058-.312.914-2.937,3.192-3.94,4.543-.862,5.058.312" transform="translate(-5.757 -0.87)" fill="#180659"/>
  </g>
</svg>
