<svg id="Group_16940" data-name="Group 16940" xmlns="http://www.w3.org/2000/svg" xmlns:xlink="http://www.w3.org/1999/xlink" width="178" height="52" viewBox="0 0 178 52">
  <defs>
    <linearGradient id="linear-gradient" x1="1.108" y1="-13.072" x2="-0.187" y2="-12.396" gradientUnits="objectBoundingBox">
      <stop offset="0" stop-color="#00a0ff"/>
      <stop offset="0.007" stop-color="#00a1ff"/>
      <stop offset="0.26" stop-color="#00beff"/>
      <stop offset="0.512" stop-color="#00d2ff"/>
      <stop offset="0.76" stop-color="#00dfff"/>
      <stop offset="1" stop-color="#00e3ff"/>
    </linearGradient>
    <linearGradient id="linear-gradient-2" x1="1.319" y1="-37.935" x2="-1.056" y2="-37.935" gradientUnits="objectBoundingBox">
      <stop offset="0" stop-color="#ffe000"/>
      <stop offset="0.409" stop-color="#ffbd00"/>
      <stop offset="0.775" stop-color="orange"/>
      <stop offset="1" stop-color="#ff9c00"/>
    </linearGradient>
    <linearGradient id="linear-gradient-3" x1="0.513" y1="-26.039" x2="-0.847" y2="-24.253" gradientUnits="objectBoundingBox">
      <stop offset="0" stop-color="#ff3a44"/>
      <stop offset="1" stop-color="#c31162"/>
    </linearGradient>
    <linearGradient id="linear-gradient-4" x1="-0.535" y1="-25.472" x2="0.073" y2="-24.674" gradientUnits="objectBoundingBox">
      <stop offset="0" stop-color="#32a071"/>
      <stop offset="0.068" stop-color="#2da771"/>
      <stop offset="0.476" stop-color="#15cf74"/>
      <stop offset="0.801" stop-color="#06e775"/>
      <stop offset="1" stop-color="#00f076"/>
    </linearGradient>
  </defs>
  <rect id="Rectangle_237" data-name="Rectangle 237" width="178" height="52" rx="7" fill="#fff"/>
  <g id="Group_16937" data-name="Group 16937" transform="translate(13.168 8.254)">
    <g id="Group_16937-2" data-name="Group 16937" transform="translate(41.031 0)">
      <path id="Path_11299" data-name="Path 11299" d="M338.988,753.767a3.541,3.541,0,0,1-.98,2.613,3.886,3.886,0,0,1-2.915,1.16,4.031,4.031,0,0,1-2.914-1.173,4.141,4.141,0,0,1,0-5.831,4.01,4.01,0,0,1,2.914-1.18,4.178,4.178,0,0,1,1.626.332,3.2,3.2,0,0,1,1.238.872l-.69.688a2.705,2.705,0,0,0-2.174-.924,3.048,3.048,0,0,0-2.167.867,3.26,3.26,0,0,0,0,4.518,3.07,3.07,0,0,0,2.167.867,3.025,3.025,0,0,0,2.212-.874,2.449,2.449,0,0,0,.664-1.587h-2.876v-.942h3.837A2.716,2.716,0,0,1,338.988,753.767Zm6.086-4.23h-4.623v7.825h4.623V756.4h-3.6v-2.48h3.25v-.943h-3.25V750.5h3.6Zm4.3.959h2.211v-.959h-5.442v.959h2.211v6.865h1.02Z" transform="translate(-330.566 -749.357)" fill="#181a2b"/>
      <path id="Path_11300" data-name="Path 11300" d="M397.028,757.667v-7.825h1.017v7.825Zm5.532-6.865h2.22v-.959h-5.45v.959h2.219v6.865h1.011Z" transform="translate(-372.073 -749.662)" fill="#181a2b"/>
      <path id="Path_11301" data-name="Path 11301" d="M433.818,756.355a4.153,4.153,0,0,1-5.812,0,4.2,4.2,0,0,1,0-5.812,4.136,4.136,0,0,1,5.8.006,4.185,4.185,0,0,1,.007,5.805Zm-5.057-.656a3.068,3.068,0,0,0,4.3,0,3.3,3.3,0,0,0,0-4.5,3.068,3.068,0,0,0-4.3,0,3.3,3.3,0,0,0,0,4.5Zm8.667,1.664v-4.876l-.045-1.51h.045l4.031,6.387h1.062v-7.825H441.5v4.58l.043,1.505H441.5l-3.849-6.086h-1.239v7.825Z" transform="translate(-390.806 -749.357)" fill="#181a2b"/>
      <path id="path46" d="M365.652,791.263a5.552,5.552,0,1,0,5.643,5.552A5.5,5.5,0,0,0,365.652,791.263Zm0,8.916a3.371,3.371,0,1,1,3.173-3.364A3.226,3.226,0,0,1,365.652,800.18Zm-12.3-8.916a5.552,5.552,0,1,0,5.635,5.552A5.5,5.5,0,0,0,353.356,791.263Zm0,8.916a3.371,3.371,0,1,1,3.166-3.364A3.23,3.23,0,0,1,353.356,800.18Zm-14.633-7.216v2.36h5.7a4.878,4.878,0,0,1-1.3,2.963,5.893,5.893,0,0,1-4.4,1.721,6.266,6.266,0,0,1,0-12.531,6.08,6.08,0,0,1,4.294,1.683L344.7,787.5a8.372,8.372,0,0,0-5.978-2.378,8.626,8.626,0,1,0,0,17.246,8.026,8.026,0,0,0,6.088-2.421,7.73,7.73,0,0,0,2.062-5.507,7.845,7.845,0,0,0-.128-1.473Zm59.835,1.83a5.205,5.205,0,0,0-4.811-3.53,5.3,5.3,0,0,0-5.294,5.552,5.462,5.462,0,0,0,5.571,5.55,5.583,5.583,0,0,0,4.682-2.46l-1.914-1.261a3.222,3.222,0,0,1-2.768,1.535,2.857,2.857,0,0,1-2.72-1.683l7.512-3.071-.26-.632Zm-7.661,1.849a3.062,3.062,0,0,1,2.934-3.237,2.185,2.185,0,0,1,2.089,1.177l-5.023,2.06Zm-6.106,5.386h2.471V785.712h-2.471Zm-4.044-9.529h-.084a3.91,3.91,0,0,0-2.953-1.236,5.554,5.554,0,0,0,0,11.1,3.853,3.853,0,0,0,2.953-1.261h.084v.8c0,2.123-1.147,3.263-3,3.263a3.114,3.114,0,0,1-2.832-1.982l-2.147.886a5.357,5.357,0,0,0,4.979,3.282c2.9,0,5.338-1.682,5.338-5.78V791.6h-2.34Zm-2.826,7.68a3.374,3.374,0,0,1,0-6.73,3.387,3.387,0,0,1,0,6.73Zm32.2-14.468h-5.907v16.317h2.464v-6.182h3.443a5.079,5.079,0,1,0,0-10.134Zm.064,7.865h-3.507v-5.6h3.507a2.8,2.8,0,1,1,0,5.6Zm15.226-2.345a4.629,4.629,0,0,0-4.391,2.5l2.186.906a2.337,2.337,0,0,1,2.249-1.2,2.365,2.365,0,0,1,2.594,2.1v.171a5.46,5.46,0,0,0-2.573-.632c-2.354,0-4.753,1.28-4.753,3.671,0,2.187,1.929,3.595,4.095,3.595a3.5,3.5,0,0,0,3.147-1.6h.084V802h2.379v-6.258C430.426,792.85,428.24,791.232,425.409,791.232Zm-.3,8.942c-.806,0-1.928-.395-1.928-1.382,0-1.263,1.4-1.747,2.612-1.747a4.451,4.451,0,0,1,2.251.548A2.978,2.978,0,0,1,425.112,800.173Zm13.98-8.584-2.83,7.074h-.085l-2.927-7.074h-2.656l4.4,9.885-2.509,5.5h2.574l6.776-15.384Zm-22.2,10.44h2.47V785.712h-2.47Z" transform="translate(-329.87 -771.831)" fill="#181a2b"/>
    </g>
    <g id="Group_16938" data-name="Group 16938" transform="translate(0 0.361)">
      <g id="g48" transform="translate(0 0.424)">
        <path id="path64" d="M220.061,751.564a2.58,2.58,0,0,0-.612,1.835v28.866a2.585,2.585,0,0,0,.612,1.836l.1.087,16.365-16.169v-.382l-16.365-16.169Z" transform="translate(-219.449 -751.469)" fill="url(#linear-gradient)"/>
      </g>
      <g id="g66" transform="translate(17.074 11.2)">
        <path id="path78" d="M270.848,791.636l-5.449-5.392v-.382l5.455-5.392.122.071,6.461,3.633c1.844,1.031,1.844,2.728,0,3.766l-6.461,3.627Z" transform="translate(-265.399 -780.47)" fill="url(#linear-gradient-2)"/>
      </g>
      <g id="g80" transform="translate(0.612 16.784)">
        <path id="path88" d="M243.137,801.01l-5.578-5.513L221.1,811.769a2.171,2.171,0,0,0,2.747.076l19.293-10.834" transform="translate(-221.097 -795.497)" fill="url(#linear-gradient-3)"/>
      </g>
      <g id="g90" transform="translate(0.612 0)">
        <path id="path104" d="M243.137,761.6l-19.293-10.836a2.177,2.177,0,0,0-2.747.084l16.462,16.265Z" transform="translate(-221.097 -750.329)" fill="url(#linear-gradient-4)"/>
      </g>
    </g>
  </g>
</svg>
