<svg xmlns="http://www.w3.org/2000/svg" xmlns:xlink="http://www.w3.org/1999/xlink" width="279" height="238" viewBox="0 0 279 238"><defs><style>.a{fill:#fff;stroke:#eaedf2;}.b{fill:none;}.c{clip-path:url(#a);}.d{opacity:0.7;}.e{clip-path:url(#b);}.f{fill:#7d8dff;}.g{fill:#87f2e7;}.h{fill:#3b4bff;}.i{fill:#3544f2;}.j{fill:#3643dc;}</style><clipPath id="a"><rect class="a" width="279" height="238" transform="translate(421 1165)"/></clipPath><clipPath id="b"><rect class="b" width="576" height="288" transform="translate(0.5)"/></clipPath></defs><g class="c" transform="translate(-421 -1165)"><g class="d" transform="translate(179.5 1165)"><g class="e"><path class="f" d="M602.175-49.486,546.131-80.46l15.113-13.529,41,30.145,0-.581L561.369-94.48a.234.234,0,0,0-.3.014l-15.5,13.877a.235.235,0,0,0-.076.2.232.232,0,0,0,.119.179l56.557,31.257Z"/><path class="f" d="M601.959-7.106,546.593-79.669l55.579,30.717,0-.534L545.842-80.619a.232.232,0,0,0-.291.051.235.235,0,0,0-.009.3L601.955-6.337Z"/><path class="f" d="M373.459,339.306l75.392-33.993,7.389,34.416.48,0-7.472-34.8a.233.233,0,0,0-.325-.164L372.329,339.3Z"/><path class="f" d="M600.267,324.413l-49.459,15.8,1.519.008,47.938-15.313Z"/><path class="f" d="M602.251-64.425,561.914-94.079l40.495-1.344,0-.47-41.19,1.367a.237.237,0,0,0-.217.165.236.236,0,0,0,.086.259l41.157,30.257Z"/><path class="f" d="M601.389,104.511,546.8,101.293l44.1-26.744L601.5,82.8l0-.592-10.437-8.127a.235.235,0,0,0-.266-.015l-44.887,27.218a.235.235,0,0,0,.108.435l55.366,3.264Z"/><path class="f" d="M196.3,338.4l8.992-15.336,1.812,15.391.473,0-1.9-16.143a.234.234,0,0,0-.185-.2.237.237,0,0,0-.251.111L195.753,338.4Z"/><path class="f" d="M600.267,324.413l-49.459,15.8,1.518.008,47.938-15.313Z"/><path class="f" d="M600.28,321.861,548.426,308.98a.239.239,0,0,0-.284.171l-7.848,31.007.484,0,7.761-30.667,51.738,12.852Z"/><path class="f" d="M600.828,214.434,572.5,230.693l-21.4-5.717,49.769-19.057,0-.5L550.258,224.8a.235.235,0,0,0,.023.446l22.189,5.928a.248.248,0,0,0,.06.008.234.234,0,0,0,.118-.031l28.177-16.171Z"/><path class="f" d="M456.72,339.731l-7.383-34.389,28.617,10.153-12.362,24.281.525,0,12.376-24.309a.235.235,0,0,0,.009-.194.239.239,0,0,0-.139-.134L449.1,304.759a.234.234,0,0,0-.308.27l7.45,34.7Z"/><path class="f" d="M466.117,339.779,478.3,315.838l15.164,24.081.556,0-15.542-24.684a.219.219,0,0,0-.21-.109.233.233,0,0,0-.2.128l-12.483,24.519Z"/><path class="f" d="M493.469,339.919l.556,0-15.116-24.007,51.663,24.193,1.119.006-53.307-24.963a.235.235,0,0,0-.3.337Z"/><path class="f" d="M478.184,315.576l52.387,24.532,1.12.006-52.517-24.593,68.887-6.05-7.767,30.687.484,0,7.819-30.894a.238.238,0,0,0-.049-.21.242.242,0,0,0-.2-.081l-70.085,6.155a.235.235,0,0,0-.08.446Z"/><path class="f" d="M207.573,338.46l-1.843-15.647L230.1,338.575l.871,0-25.407-16.431a.233.233,0,0,0-.251,0,.235.235,0,0,0-.109.227l1.9,16.085Z"/><path class="f" d="M363.245,180.334a.241.241,0,0,1-.117-.031.236.236,0,0,1-.112-.156L360.607,168.5a.235.235,0,0,1,.04-.185.232.232,0,0,1,.163-.1l59.6-6.906a.227.227,0,0,1,.257.183.235.235,0,0,1-.158.273l-57.187,18.549A.227.227,0,0,1,363.245,180.334Zm-2.126-11.673,2.3,11.135,54.694-17.74Z"/><path class="f" d="M174.264,338.29l3.074-33.6,27.784,17.726L195.754,338.4l.542,0,9.345-15.939a.234.234,0,0,0-.076-.316l-28.3-18.055a.241.241,0,0,0-.23-.013.237.237,0,0,0-.13.19l-3.112,34.018Z"/><path class="f" d="M205.438,322.579a.234.234,0,0,1-.125-.037l-28.3-18.054a.234.234,0,0,1-.009-.39l48.316-33.946a.234.234,0,0,1,.354.276l-20.016,52a.239.239,0,0,1-.146.139A.264.264,0,0,1,205.438,322.579Zm-27.877-18.3,27.762,17.712,19.636-51.013Z"/><path class="f" d="M291.224,323.947h0l-85.786-1.368a.233.233,0,0,1-.215-.318l20.016-52a.234.234,0,0,1,.367-.1l65.77,53.369a.234.234,0,0,1-.149.416Zm-85.445-1.832,84.771,1.352-64.992-52.738Z"/><path class="f" d="M230.1,338.575l.871,0-24.719-15.987,84.084,1.341-26.887,14.812.964.005,26.923-14.832a.234.234,0,0,0-.109-.44l-85.786-1.368h0a.234.234,0,0,0-.129.431Z"/><path class="f" d="M264.415,338.75l26.145-14.4-8.9,14.491.549,0,9.218-15a.237.237,0,0,0-.03-.285.234.234,0,0,0-.283-.044l-27.661,15.238Z"/><path class="f" d="M282.207,338.84l9.124-14.852,51.953,15.164,1.705.009-53.7-15.673a.23.23,0,0,0-.266.1l-9.367,15.248Z"/><path class="f" d="M519.6,201.6a.213.213,0,0,1-.086-.017l-99.169-39.815a.234.234,0,0,1-.062-.4l50.205-41.38a.226.226,0,0,1,.19-.05.23.23,0,0,1,.161.11L519.8,201.245a.236.236,0,0,1-.022.274A.233.233,0,0,1,519.6,201.6ZM420.888,161.48l98.151,39.408-48.461-80.363Z"/><path class="f" d="M519.6,201.6a.234.234,0,0,1-.2-.113l-48.963-81.2a.237.237,0,0,1-.023-.191.232.232,0,0,1,.128-.144l41.139-18.4a.231.231,0,0,1,.215.012.234.234,0,0,1,.115.183l7.824,99.594a.235.235,0,0,1-.162.242A.231.231,0,0,1,519.6,201.6Zm-48.624-81.324L519.29,200.4l-7.72-98.272Z"/><path class="f" d="M519.6,201.6h-.02a.234.234,0,0,1-.213-.215l-7.824-99.593a.236.236,0,0,1,.061-.178.24.24,0,0,1,.171-.076l34.257-.29a.328.328,0,0,1,.187.091.235.235,0,0,1,.042.2l-26.433,99.884A.234.234,0,0,1,519.6,201.6Zm-7.57-99.6,7.7,97.969,26-98.254Z"/><path class="f" d="M600.874,205.415,550.381,224.75l-30.172-23.213,80.729-8.651,0-.472-81.363,8.719a.236.236,0,0,0-.2.17.232.232,0,0,0,.083.249L550.2,225.2a.232.232,0,0,0,.227.033l50.445-19.316Z"/><path class="f" d="M511.777,102.008a.238.238,0,0,1-.217-.147.234.234,0,0,1,.055-.257l34.114-32.623a.234.234,0,0,1,.254-.047.237.237,0,0,1,.143.215l.143,32.333a.233.233,0,0,1-.232.235l-34.257.291ZM545.659,69.7l-33.291,31.837,33.431-.284Z"/><path class="f" d="M601.709,41.872l-55.584,26.9-.161-148.5L601.955-6.337l0-.769L545.915-80.557a.234.234,0,0,0-.262-.079.234.234,0,0,0-.159.222l.163,149.564a.235.235,0,0,0,.109.2.241.241,0,0,0,.124.036.232.232,0,0,0,.1-.024L601.706,42.4Z"/><path class="f" d="M546.033,101.717a.235.235,0,0,1-.233-.233l-.143-32.333a.232.232,0,0,1,.077-.175.24.24,0,0,1,.184-.059l45.03,5.114a.235.235,0,0,1,.1.434l-44.887,27.218A.224.224,0,0,1,546.033,101.717Zm.094-32.3.14,31.654L590.212,74.42Z"/><path class="f" d="M601.61,61.195,590.823,74.017l-44.1-5.009L601.706,42.4l0-.523-55.92,27.067a.234.234,0,0,0,.076.444L590.9,74.5l.026,0a.234.234,0,0,0,.18-.084l10.505-12.486Z"/><path class="f" d="M601.518,79.271l-10.225-5.084,10.313-12.258,0-.734L590.742,74.113a.234.234,0,0,0-.05.2.24.24,0,0,0,.125.163l10.7,5.319Z"/><path class="f" d="M601.5,82.206l-8.593-6.691,8.605,4.279,0-.523-10.492-5.217a.235.235,0,0,0-.248.4L601.5,82.8Z"/><path class="f" d="M291.159,323.938l52.125,15.214,1.7.009-53.133-15.509,94.252-48.517-22.77,64.119.5,0,22.913-64.523a.234.234,0,0,0-.066-.256.238.238,0,0,0-.262-.032l-95.3,49.058a.235.235,0,0,0,.042.434Z"/><path class="f" d="M363.834,339.257l22.826-64.276,61.806,29.991L372.329,339.3l1.13.006,75.657-34.112a.235.235,0,0,0,.006-.425l-62.493-30.325a.242.242,0,0,0-.192-.006.235.235,0,0,0-.131.138l-22.969,64.678Z"/><path class="f" d="M390.606,200.943a.238.238,0,0,1-.14-.047l-27.361-20.609a.235.235,0,0,1,.221-.408l43.434,15.806a.234.234,0,0,1-.014.445l-16.072,4.8A.224.224,0,0,1,390.606,200.943Zm-25.964-20.085,26.011,19.592,15.28-4.566Z"/><path class="f" d="M406.678,196.14a.244.244,0,0,1-.079-.014L363.166,180.32a.236.236,0,0,1-.155-.224.233.233,0,0,1,.163-.219l57.187-18.549a.234.234,0,0,1,.29.31L406.9,195.993A.233.233,0,0,1,406.678,196.14Zm-42.711-16.028,42.579,15.5,13.483-33.679Z"/><path class="f" d="M386.525,274.89a.194.194,0,0,1-.034,0,.234.234,0,0,1-.2-.245l4.081-73.947a.235.235,0,0,1,.167-.212l16.072-4.8a.233.233,0,0,1,.23.055.238.238,0,0,1,.065.228l-20.153,78.749A.235.235,0,0,1,386.525,274.89Zm4.307-74-3.939,71.392,19.456-76.029Z"/><path class="f" d="M519.6,201.6h-.01L406.668,196.14a.235.235,0,0,1-.186-.108.232.232,0,0,1-.02-.214l13.754-34.354a.234.234,0,0,1,.3-.131l99.168,39.816a.234.234,0,0,1-.088.452ZM407.02,195.687l111.2,5.378-97.657-39.209Z"/><path class="f" d="M420.432,161.785a.225.225,0,0,1-.085-.016.233.233,0,0,1-.146-.188L408.623,71.969a.234.234,0,0,1,.376-.214l61.784,48.231a.233.233,0,0,1,.005.366l-50.2,41.38A.236.236,0,0,1,420.432,161.785ZM409.161,72.476,420.612,161.1l49.652-40.924Z"/><path class="f" d="M470.638,120.406a.237.237,0,0,1-.143-.05L408.711,72.124a.233.233,0,0,1-.089-.213.237.237,0,0,1,.137-.186L462.58,47.577a.234.234,0,0,1,.329.188l7.963,72.38a.235.235,0,0,1-.119.231A.238.238,0,0,1,470.638,120.406ZM409.306,71.994l61.039,47.65-7.867-71.507Z"/><path class="f" d="M462.675,48.026a.172.172,0,0,1-.039,0,.233.233,0,0,1-.188-.176L436.76-58.817a.238.238,0,0,1,.031-.182.23.23,0,0,1,.152-.1l108.74-21.542a.236.236,0,0,1,.24.1.235.235,0,0,1,0,.259L462.873,47.919A.235.235,0,0,1,462.675,48.026ZM437.274-58.69l25.5,105.9L545.23-80.076Z"/><path class="f" d="M470.638,120.406a.252.252,0,0,1-.116-.031.236.236,0,0,1-.116-.178l-7.963-72.38a.235.235,0,0,1,.407-.184l49.1,53.982a.233.233,0,0,1-.078.372l-41.138,18.4A.235.235,0,0,1,470.638,120.406Zm-7.65-71.923,7.849,71.342,40.549-18.134Z"/><path class="f" d="M511.777,102.008h-.007a.24.24,0,0,1-.166-.077L462.5,47.949a.234.234,0,0,1,.232-.385L545.95,68.923a.236.236,0,0,1,.1.4L511.94,101.942A.233.233,0,0,1,511.777,102.008Zm-48.4-53.794,48.413,53.223,33.634-32.165Z"/><path class="f" d="M545.89,69.385a.277.277,0,0,1-.057-.007L462.618,48.019a.236.236,0,0,1-.139-.355L545.532-80.542a.233.233,0,0,1,.263-.1.234.234,0,0,1,.168.225l.163,149.564a.235.235,0,0,1-.091.186A.239.239,0,0,1,545.89,69.385Zm-82.84-21.74,82.606,21.2-.161-148.468Z"/><path class="f" d="M386.525,274.89a.238.238,0,0,1-.17-.075.233.233,0,0,1-.056-.218l20.153-78.749a.234.234,0,0,1,.145-.162.236.236,0,0,1,.216.026L492.3,254.765a.235.235,0,0,1-.09.424l-105.645,19.7A.311.311,0,0,1,386.525,274.89Zm20.3-78.6-19.978,78.067,104.729-19.526Z"/><path class="f" d="M449.018,305.214a.226.226,0,0,1-.1-.023l-62.493-30.325a.235.235,0,0,1,.06-.442l105.644-19.7a.237.237,0,0,1,.247.114.234.234,0,0,1-.027.27L449.2,305.133A.233.233,0,0,1,449.018,305.214ZM387.27,274.755l61.689,29.935,42.6-49.379Z"/><path class="f" d="M492.17,255.193a.24.24,0,0,1-.132-.042L406.546,196.1a.236.236,0,0,1-.089-.269.244.244,0,0,1,.234-.159l112.922,5.461a.235.235,0,0,1,.2.342L492.38,255.065a.237.237,0,0,1-.152.121A.279.279,0,0,1,492.17,255.193ZM407.489,196.18l84.6,58.433,27.143-53.03Z"/><path class="f" d="M478.283,315.6a.215.215,0,0,1-.078-.014L448.941,305.2a.233.233,0,0,1-.1-.374L491.993,254.8a.235.235,0,0,1,.407.205l-13.887,60.406a.237.237,0,0,1-.116.153A.241.241,0,0,1,478.283,315.6Zm-28.862-10.725,28.693,10.181,13.616-59.226Z"/><path class="f" d="M478.283,315.6a.234.234,0,0,1-.176-.081.237.237,0,0,1-.052-.206L491.942,254.9a.235.235,0,0,1,.162-.172.24.24,0,0,1,.23.056l56.2,54.251a.233.233,0,0,1,.059.246.236.236,0,0,1-.2.156L478.3,315.6Zm14.024-60.183L478.585,315.1l69.251-6.081Z"/><path class="f" d="M492.17,255.193a.235.235,0,0,1-.208-.342l27.431-53.591a.234.234,0,0,1,.157-.122.231.231,0,0,1,.2.043l30.74,23.649a.235.235,0,0,1-.035.4l-58.171,29.942A.249.249,0,0,1,492.17,255.193Zm27.512-53.468-26.97,52.69,57.194-29.438Z"/><path class="f" d="M548.368,309.443a.231.231,0,0,1-.162-.066l-56.2-54.25a.235.235,0,0,1,.1-.394l80.36-24.013a.234.234,0,0,1,.291.294l-24.161,78.264a.234.234,0,0,1-.166.157A.247.247,0,0,1,548.368,309.443Zm-55.745-54.375,55.635,53.707,23.919-77.48Z"/><path class="f" d="M492.17,255.193a.235.235,0,0,1-.107-.444l58.172-29.941a.232.232,0,0,1,.168-.018l22.189,5.928a.234.234,0,0,1,.006.451l-80.36,24.014A.229.229,0,0,1,492.17,255.193Zm58.2-29.927-55.841,28.743,77.142-23.052Z"/><path class="f" d="M145.142,285.055a.235.235,0,0,1-.118-.437l66.55-38.97a.247.247,0,0,1,.18-.024.233.233,0,0,1,.143.112l13.763,24.493a.233.233,0,0,1,.007.215.237.237,0,0,1-.17.131l-80.313,14.476A.2.2,0,0,1,145.142,285.055ZM211.6,246.174l-65.2,38.181,78.687-14.183Z"/><path class="f" d="M225.454,270.578h-.021a.233.233,0,0,1-.182-.118l-13.763-24.494a.235.235,0,0,1-.009-.213.238.238,0,0,1,.168-.132l41.087-8.164a.235.235,0,0,1,.225.381l-27.324,32.658A.233.233,0,0,1,225.454,270.578Zm-13.4-24.56,13.437,23.914,26.679-31.886Z"/><path class="f" d="M341.716,105.559a.236.236,0,0,1-.226-.294L354.4,55.554a.235.235,0,0,1,.454.118l-12.906,49.711A.237.237,0,0,1,341.716,105.559Z"/><path class="f" d="M341.716,105.559a.235.235,0,0,1-.226-.294L354.4,55.554a.237.237,0,0,1,.112-.145.234.234,0,0,1,.183-.02l54.232,16.326a.235.235,0,0,1,.036.435l-67.138,33.384A.232.232,0,0,1,341.716,105.559Zm13.073-49.651-12.716,48.977L408.22,71.993Z"/><path class="f" d="M360.836,168.692a.236.236,0,0,1-.224-.167l-19.12-63.133a.235.235,0,0,1,.361-.259l78.716,56.227a.235.235,0,0,1-.109.424l-59.6,6.906Zm-18.7-62.776L361.005,168.2l58.8-6.813Z"/><path class="f" d="M420.432,161.785a.228.228,0,0,1-.135-.043l-78.716-56.227a.231.231,0,0,1-.1-.209.234.234,0,0,1,.129-.192L408.751,71.73a.233.233,0,0,1,.215,0,.238.238,0,0,1,.122.178l11.578,89.611a.234.234,0,0,1-.234.264ZM342.171,105.36l77.96,55.687L408.664,72.3Z"/><path class="f" d="M319.874,212.91a.234.234,0,0,1-.171-.394L360.665,168.3a.232.232,0,0,1,.235-.067.234.234,0,0,1,.167.179l2.409,11.642a.234.234,0,0,1-.089.235l-43.371,32.576A.237.237,0,0,1,319.874,212.91ZM360.7,168.951l-38.88,41.97L362.986,180Z"/><path class="f" d="M319.874,212.91a.236.236,0,0,1-.215-.142.233.233,0,0,1,.075-.28l43.371-32.576a.237.237,0,0,1,.282,0l27.361,20.609a.235.235,0,0,1-.1.419l-70.732,11.966A.188.188,0,0,1,319.874,212.91Zm43.372-32.516-42.458,31.889,69.243-11.715Z"/><path class="f" d="M386.525,274.89a.238.238,0,0,1-.158-.063l-66.652-61.98a.234.234,0,0,1,.121-.4l70.732-11.967a.234.234,0,0,1,.273.244l-4.08,73.947a.234.234,0,0,1-.147.2A.231.231,0,0,1,386.525,274.89Zm-66.142-62.063,65.937,61.315,4.037-73.153Z"/><path class="f" d="M601.158,149.756l-81.177,51.1L546.193,101.8l55.091,23.273,0-.508-55.161-23.3a.237.237,0,0,0-.195.006.233.233,0,0,0-.123.151l-26.433,99.884a.236.236,0,0,0,.088.249.236.236,0,0,0,.264.009l81.428-51.253Z"/><path class="f" d="M600.94,192.414l-80.355,8.611,80.57-50.712,0-.557-81.681,51.412a.234.234,0,0,0,.124.433h.026l81.311-8.714Z"/><path class="f" d="M601.287,124.569l-53.9-22.772,54.005,3.184,0-.47-55.34-3.262a.221.221,0,0,0-.243.18.236.236,0,0,0,.137.27l55.341,23.378Z"/><path class="f" d="M225.454,270.578a.23.23,0,0,1-.188-.1.234.234,0,0,1,.009-.289L252.6,237.535a.238.238,0,0,1,.18-.083l54.007-.19h0a.235.235,0,0,1,.087.452l-81.332,32.847A.214.214,0,0,1,225.454,270.578Zm27.435-32.657-26.652,31.854,79.332-32.039Z"/><path class="f" d="M291.224,323.947a.234.234,0,0,1-.147-.052l-65.77-53.369a.235.235,0,0,1,.06-.4L306.7,237.279a.238.238,0,0,1,.236.036.235.235,0,0,1,.083.223l-15.562,86.216a.232.232,0,0,1-.232.193Zm-65.312-53.535,65.152,52.868,15.416-85.406Z"/><path class="f" d="M252.778,237.921a.235.235,0,0,1-.081-.455l67.1-25.011a.235.235,0,0,1,.289.33l-13.088,24.821a.233.233,0,0,1-.207.125l-54.007.19Zm66.6-24.811-65.287,24.337,52.552-.184Z"/><path class="f" d="M291.224,323.947a.225.225,0,0,1-.138-.046.232.232,0,0,1-.092-.23l15.562-86.216a.231.231,0,0,1,.123-.166.235.235,0,0,1,.207-.005l79.74,37.158a.235.235,0,0,1,.008.422l-95.3,49.057A.224.224,0,0,1,291.224,323.947Zm15.74-86.109L291.54,323.286l94.453-48.62Z"/><path class="f" d="M386.525,274.89a.264.264,0,0,1-.1-.022l-79.739-37.159a.231.231,0,0,1-.123-.137.234.234,0,0,1,.014-.185l13.088-24.821a.236.236,0,0,1,.368-.063l66.651,61.98a.235.235,0,0,1-.161.407Zm-79.415-37.5,78.168,36.426-65.339-60.758Z"/><path class="f" d="M600.691,241.183,573.082,230.9l27.743-15.922,0-.543-28.413,16.307a.234.234,0,0,0,.035.424l28.239,10.518Z"/><path class="f" d="M354.622,55.848a.235.235,0,0,1-.129-.43l54.191-36.242a.235.235,0,0,1,.261.39L354.754,55.808A.232.232,0,0,1,354.622,55.848Z"/><path class="f" d="M408.854,72.174a.218.218,0,0,1-.067-.01L354.556,55.838a.235.235,0,0,1-.063-.42l54.191-36.242a.235.235,0,0,1,.365.195l.041,52.568a.235.235,0,0,1-.236.235ZM355.167,55.532,408.62,71.624l-.04-51.814Z"/><path class="f" d="M408.854,72.174a.23.23,0,0,1-.126-.038.234.234,0,0,1-.108-.2l-.04-52.569a.234.234,0,0,1,.344-.207l53.862,28.42a.234.234,0,0,1-.014.421L408.951,72.154A.234.234,0,0,1,408.854,72.174Zm.2-52.413.04,51.816,53.052-23.8Z"/><path class="f" d="M462.675,48.026a.237.237,0,0,1-.109-.027L408.7,19.579a.235.235,0,0,1-.112-.287l28.174-78.244a.228.228,0,0,1,.234-.154.234.234,0,0,1,.216.179L462.9,47.736a.235.235,0,0,1-.084.241A.241.241,0,0,1,462.675,48.026ZM409.1,19.259l53.222,28.082-25.382-105.4Z"/><path class="f" d="M600.525,273.716,548.79,308.641l23.833-77.2,27.935,35.944,0-.76L572.717,230.8a.235.235,0,0,0-.41.074l-24.162,78.264a.236.236,0,0,0,.085.258.233.233,0,0,0,.138.046.241.241,0,0,0,.133-.04l52.021-35.119Z"/><path class="f" d="M600.28,321.862l-51.342-12.754,51.584-34.824,0-.568-52.287,35.3a.234.234,0,0,0,.075.422l51.964,12.909Z"/><path class="f" d="M600.562,266.629l-27.338-35.176,27.465,10.23,0-.5-28.078-10.458a.234.234,0,0,0-.267.363l28.212,36.3Z"/><path class="g" d="M561.242-96.738a2.447,2.447,0,0,0-2.459,2.434,2.447,2.447,0,0,0,2.434,2.46,2.447,2.447,0,0,0,2.46-2.435A2.447,2.447,0,0,0,561.242-96.738Z"/><path class="h" d="M561.242-96.738a2.447,2.447,0,0,1,2.435,2.459,2.447,2.447,0,0,1-2.46,2.435,2.447,2.447,0,0,1-2.434-2.46,2.447,2.447,0,0,1,2.459-2.434m.005-.939a3.39,3.39,0,0,0-3.4,3.368,3.389,3.389,0,0,0,3.368,3.4,3.388,3.388,0,0,0,3.4-3.368,3.389,3.389,0,0,0-3.368-3.4Z"/><path class="g" d="M177.147,302.78a1.51,1.51,0,1,0,1.5,1.518A1.51,1.51,0,0,0,177.147,302.78Z"/><path class="h" d="M177.147,302.78a1.51,1.51,0,1,1-1.518,1.5,1.511,1.511,0,0,1,1.518-1.5m0-.939a2.449,2.449,0,1,0,2.436,2.461,2.451,2.451,0,0,0-2.436-2.461Z"/><path class="g" d="M205.45,320.254a2.091,2.091,0,1,0,2.079,2.1A2.091,2.091,0,0,0,205.45,320.254Z"/><path class="h" d="M205.45,320.254a2.091,2.091,0,1,1-2.1,2.08,2.09,2.09,0,0,1,2.1-2.08m0-.938a3.029,3.029,0,1,0,3.014,3.044,3.031,3.031,0,0,0-3.014-3.044Z"/><path class="g" d="M590.931,72.451a1.814,1.814,0,1,0,1.8,1.823A1.814,1.814,0,0,0,590.931,72.451Z"/><path class="h" d="M590.931,72.451a1.814,1.814,0,1,1-1.823,1.8,1.814,1.814,0,0,1,1.823-1.8m0-.939a2.752,2.752,0,1,0,2.738,2.766,2.755,2.755,0,0,0-2.738-2.766Z"/><circle class="i" cx="3.109" cy="3.109" r="3.109" transform="translate(467.53 117.062)"/><path class="h" d="M470.655,117.063a3.109,3.109,0,1,1-3.125,3.092,3.108,3.108,0,0,1,3.125-3.092m.005-.939a4.047,4.047,0,1,0,4.026,4.068,4.051,4.051,0,0,0-4.026-4.068Z"/><path class="j" d="M513.109,101.78a1.331,1.331,0,1,0-1.338,1.324A1.33,1.33,0,0,0,513.109,101.78Z"/><path class="h" d="M511.785,100.442a1.331,1.331,0,1,1-1.338,1.324,1.33,1.33,0,0,1,1.338-1.324m0-.939a2.27,2.27,0,1,0,2.259,2.281,2.273,2.273,0,0,0-2.259-2.281Z"/><path class="g" d="M545.875,72.213a3.063,3.063,0,1,0-3.047-3.079A3.064,3.064,0,0,0,545.875,72.213Z"/><path class="h" d="M545.907,66.087a3.063,3.063,0,1,1-3.079,3.047,3.064,3.064,0,0,1,3.079-3.047m0-.939a4,4,0,1,0,3.981,4.022,4.008,4.008,0,0,0-3.981-4.022Z"/><path class="g" d="M547.641-80.4a1.912,1.912,0,0,0-1.9-1.923,1.913,1.913,0,0,0-1.923,1.9,1.913,1.913,0,0,0,1.9,1.923A1.913,1.913,0,0,0,547.641-80.4Z"/><path class="h" d="M545.738-82.327a1.913,1.913,0,0,1,1.9,1.923,1.914,1.914,0,0,1-1.923,1.9,1.913,1.913,0,0,1-1.9-1.923,1.913,1.913,0,0,1,1.923-1.9m.005-.939a2.855,2.855,0,0,0-2.866,2.837,2.855,2.855,0,0,0,2.837,2.867A2.855,2.855,0,0,0,548.58-80.4a2.855,2.855,0,0,0-2.837-2.866Z"/><path class="j" d="M406.693,193.138a2.768,2.768,0,1,0,2.754,2.782A2.767,2.767,0,0,0,406.693,193.138Z"/><path class="h" d="M406.693,193.138a2.768,2.768,0,1,1-2.781,2.753,2.768,2.768,0,0,1,2.781-2.753m.005-.938a3.706,3.706,0,1,0,3.687,3.724A3.71,3.71,0,0,0,406.7,192.2Z"/><path class="g" d="M449.031,302.6a2.378,2.378,0,1,0,2.365,2.39A2.377,2.377,0,0,0,449.031,302.6Z"/><path class="h" d="M449.031,302.6a2.378,2.378,0,1,1-2.389,2.365,2.378,2.378,0,0,1,2.389-2.365m.005-.938a3.316,3.316,0,1,0,3.3,3.332,3.32,3.32,0,0,0-3.3-3.332Z"/><path class="g" d="M478.3,312.281a3.083,3.083,0,1,0,3.066,3.1A3.083,3.083,0,0,0,478.3,312.281Z"/><path class="h" d="M478.3,312.281a3.083,3.083,0,1,1-3.1,3.067,3.082,3.082,0,0,1,3.1-3.067m0-.939a4.022,4.022,0,1,0,4,4.042,4.026,4.026,0,0,0-4-4.042Z"/><path class="g" d="M492.18,253.232a1.726,1.726,0,1,0,1.716,1.734A1.726,1.726,0,0,0,492.18,253.232Z"/><path class="h" d="M492.18,253.232a1.726,1.726,0,1,1-1.735,1.717,1.725,1.725,0,0,1,1.735-1.717m0-.938a2.664,2.664,0,1,0,2.651,2.677,2.666,2.666,0,0,0-2.651-2.677Z"/><path class="g" d="M550.359,221.676a3.34,3.34,0,1,0,3.323,3.357A3.34,3.34,0,0,0,550.359,221.676Z"/><path class="h" d="M550.359,221.676A3.34,3.34,0,1,1,547,225a3.34,3.34,0,0,1,3.357-3.323m.005-.939a4.279,4.279,0,1,0,4.257,4.3,4.284,4.284,0,0,0-4.257-4.3Z"/><path class="g" d="M145.15,283.447a1.374,1.374,0,1,0,1.367,1.381A1.374,1.374,0,0,0,145.15,283.447Z"/><path class="h" d="M145.15,283.447a1.374,1.374,0,1,1-1.381,1.367,1.374,1.374,0,0,1,1.381-1.367m.005-.939a2.313,2.313,0,1,0,2.3,2.325,2.315,2.315,0,0,0-2.3-2.325Z"/><path class="g" d="M211.7,243.629a2.222,2.222,0,1,0,2.211,2.233A2.221,2.221,0,0,0,211.7,243.629Z"/><path class="h" d="M211.7,243.629a2.222,2.222,0,1,1-2.233,2.21,2.222,2.222,0,0,1,2.233-2.21m.005-.939a3.161,3.161,0,1,0,3.144,3.177,3.164,3.164,0,0,0-3.144-3.177Z"/><path class="g" d="M341.724,103.983a1.342,1.342,0,1,0,1.334,1.348A1.342,1.342,0,0,0,341.724,103.983Z"/><path class="h" d="M341.724,103.983a1.342,1.342,0,1,1-1.349,1.335,1.341,1.341,0,0,1,1.349-1.335m0-.939A2.28,2.28,0,1,0,344,105.336a2.283,2.283,0,0,0-2.269-2.292Z"/><path class="g" d="M420.449,158.493a3.058,3.058,0,1,0,3.042,3.073A3.058,3.058,0,0,0,420.449,158.493Z"/><path class="h" d="M420.449,158.493a3.058,3.058,0,1,1-3.073,3.042,3.056,3.056,0,0,1,3.073-3.042m.005-.939a4,4,0,1,0,3.976,4.017,4,4,0,0,0-3.976-4.017Z"/><path class="g" d="M360.829,169.983a1.526,1.526,0,1,0-1.518-1.534A1.526,1.526,0,0,0,360.829,169.983Z"/><path class="h" d="M360.844,166.932a1.526,1.526,0,1,1-1.533,1.517,1.525,1.525,0,0,1,1.533-1.517m.005-.939a2.464,2.464,0,1,0,2.452,2.477,2.466,2.466,0,0,0-2.452-2.477Z"/><path class="g" d="M363.255,178.375a1.725,1.725,0,1,0,1.715,1.733A1.725,1.725,0,0,0,363.255,178.375Z"/><path class="h" d="M363.255,178.375a1.725,1.725,0,1,1-1.733,1.716,1.724,1.724,0,0,1,1.733-1.716m.005-.938a2.663,2.663,0,1,0,2.649,2.676,2.666,2.666,0,0,0-2.649-2.676Z"/><path class="g" d="M390.614,199.359a1.35,1.35,0,1,0,1.343,1.356A1.35,1.35,0,0,0,390.614,199.359Z"/><path class="h" d="M390.614,199.359a1.35,1.35,0,1,1-1.357,1.342,1.349,1.349,0,0,1,1.357-1.342m0-.939a2.288,2.288,0,1,0,2.276,2.3,2.291,2.291,0,0,0-2.276-2.3Z"/><path class="g" d="M519.614,199.02a2.347,2.347,0,1,0,2.334,2.359A2.347,2.347,0,0,0,519.614,199.02Z"/><path class="h" d="M519.614,199.02a2.347,2.347,0,1,1-2.359,2.335,2.346,2.346,0,0,1,2.359-2.335m.005-.938a3.285,3.285,0,1,0,3.268,3.3,3.287,3.287,0,0,0-3.268-3.3Z"/><path class="g" d="M546.048,98.785a2.7,2.7,0,1,0,2.684,2.711A2.7,2.7,0,0,0,546.048,98.785Z"/><path class="h" d="M546.048,98.785a2.7,2.7,0,1,1-2.711,2.684,2.7,2.7,0,0,1,2.711-2.684m.005-.938a3.636,3.636,0,1,0,3.618,3.654,3.639,3.639,0,0,0-3.618-3.654Z"/><path class="g" d="M225.47,267.419a2.925,2.925,0,1,0,2.91,2.94A2.926,2.926,0,0,0,225.47,267.419Z"/><path class="h" d="M225.47,267.419a2.925,2.925,0,1,1-2.94,2.91,2.925,2.925,0,0,1,2.94-2.91m.005-.939a3.864,3.864,0,1,0,3.844,3.884,3.868,3.868,0,0,0-3.844-3.884Z"/><path class="g" d="M254.464,237.7a1.685,1.685,0,1,0-1.693,1.676A1.686,1.686,0,0,0,254.464,237.7Z"/><path class="h" d="M252.788,236a1.685,1.685,0,1,1-1.693,1.676A1.686,1.686,0,0,1,252.788,236m.005-.938A2.623,2.623,0,1,0,255.4,237.7a2.626,2.626,0,0,0-2.609-2.636Z"/><path class="g" d="M291.238,321.066a2.647,2.647,0,1,0,2.633,2.66A2.648,2.648,0,0,0,291.238,321.066Z"/><path class="h" d="M291.238,321.066a2.647,2.647,0,1,1-2.66,2.633,2.647,2.647,0,0,1,2.66-2.633m.005-.938a3.585,3.585,0,1,0,3.567,3.6,3.589,3.589,0,0,0-3.567-3.6Z"/><path class="g" d="M306.8,234.729a2.768,2.768,0,1,0,2.753,2.782A2.768,2.768,0,0,0,306.8,234.729Z"/><path class="h" d="M306.8,234.729a2.768,2.768,0,1,1-2.782,2.754,2.768,2.768,0,0,1,2.782-2.754m.005-.938a3.706,3.706,0,1,0,3.686,3.725,3.709,3.709,0,0,0-3.686-3.725Z"/><path class="g" d="M386.539,272.241a2.414,2.414,0,1,0,2.4,2.426A2.413,2.413,0,0,0,386.539,272.241Z"/><path class="h" d="M386.539,272.241a2.414,2.414,0,1,1-2.427,2.4,2.413,2.413,0,0,1,2.427-2.4m.005-.939a3.353,3.353,0,1,0,3.335,3.37,3.357,3.357,0,0,0-3.335-3.37Z"/><path class="j" d="M319.884,210.9a1.772,1.772,0,1,0,1.763,1.781A1.772,1.772,0,0,0,319.884,210.9Z"/><path class="h" d="M319.884,210.9a1.772,1.772,0,1,1-1.781,1.762,1.771,1.771,0,0,1,1.781-1.762m.005-.939a2.711,2.711,0,1,0,2.7,2.724,2.714,2.714,0,0,0-2.7-2.724Z"/><path class="g" d="M354.634,53.494a2.12,2.12,0,1,0,2.109,2.13A2.119,2.119,0,0,0,354.634,53.494Z"/><path class="h" d="M354.634,53.494A2.12,2.12,0,1,1,352.5,55.6a2.12,2.12,0,0,1,2.13-2.109m.005-.939a3.058,3.058,0,1,0,3.042,3.074,3.063,3.063,0,0,0-3.042-3.074Z"/><path class="j" d="M408.863,70.365a1.575,1.575,0,1,0,1.566,1.583A1.574,1.574,0,0,0,408.863,70.365Z"/><path class="h" d="M408.863,70.365a1.575,1.575,0,1,1-1.582,1.567,1.575,1.575,0,0,1,1.582-1.567m.005-.938a2.513,2.513,0,1,0,2.5,2.525,2.515,2.515,0,0,0-2.5-2.525Z"/><path class="g" d="M414.509-68.467a2.5,2.5,0,0,0-2.514,2.489,2.5,2.5,0,0,0,2.489,2.515A2.5,2.5,0,0,0,417-65.952,2.5,2.5,0,0,0,414.509-68.467Z"/><path class="h" d="M414.509-68.467A2.5,2.5,0,0,1,417-65.952a2.5,2.5,0,0,1-2.514,2.489,2.5,2.5,0,0,1-2.489-2.515,2.5,2.5,0,0,1,2.514-2.489m.005-.938a3.445,3.445,0,0,0-3.458,3.423,3.445,3.445,0,0,0,3.423,3.458,3.445,3.445,0,0,0,3.458-3.423,3.445,3.445,0,0,0-3.423-3.458Z"/><path class="g" d="M408.8,22.76a3.389,3.389,0,1,0-3.371-3.406A3.388,3.388,0,0,0,408.8,22.76Z"/><path class="h" d="M408.832,15.983a3.389,3.389,0,1,1-3.406,3.371,3.388,3.388,0,0,1,3.406-3.371m.005-.939a4.328,4.328,0,1,0,4.3,4.349,4.333,4.333,0,0,0-4.3-4.349Z"/><path class="g" d="M462.685,46.062A1.73,1.73,0,1,0,464.4,47.8,1.73,1.73,0,0,0,462.685,46.062Z"/><path class="h" d="M462.685,46.062a1.73,1.73,0,1,1-1.739,1.72,1.728,1.728,0,0,1,1.739-1.72m0-.939a2.668,2.668,0,1,0,2.655,2.682,2.67,2.67,0,0,0-2.655-2.682Z"/><path class="g" d="M437-60.795a1.922,1.922,0,0,0-1.932,1.913,1.922,1.922,0,0,0,1.913,1.933,1.922,1.922,0,0,0,1.932-1.913A1.923,1.923,0,0,0,437-60.795Z"/><path class="h" d="M437-60.795a1.923,1.923,0,0,1,1.913,1.933,1.922,1.922,0,0,1-1.932,1.913,1.922,1.922,0,0,1-1.913-1.933A1.922,1.922,0,0,1,437-60.795m.005-.938a2.865,2.865,0,0,0-2.876,2.847,2.865,2.865,0,0,0,2.847,2.876,2.865,2.865,0,0,0,2.876-2.847A2.865,2.865,0,0,0,437-61.733Z"/><path class="g" d="M548.379,307.412a1.8,1.8,0,1,0,1.787,1.805A1.8,1.8,0,0,0,548.379,307.412Z"/><path class="h" d="M548.379,307.412a1.8,1.8,0,1,1-1.806,1.787,1.8,1.8,0,0,1,1.806-1.787m0-.939a2.735,2.735,0,1,0,2.722,2.749,2.738,2.738,0,0,0-2.722-2.749Z"/><circle class="g" cx="2.236" cy="2.236" r="2.236" transform="translate(570.295 228.709)"/><path class="h" d="M572.543,228.709a2.236,2.236,0,1,1-2.248,2.224,2.236,2.236,0,0,1,2.248-2.224m0-.939a3.175,3.175,0,1,0,3.158,3.191,3.178,3.178,0,0,0-3.158-3.191Z"/></g></g></g></svg>