<svg xmlns="http://www.w3.org/2000/svg" width="174.385" height="164.276" viewBox="0 0 174.385 164.276">
  <g id="Group_3036" data-name="Group 3036" transform="translate(-1008.104 -70.941)">
    <path id="Path_3041" data-name="Path 3041" d="M1059.671,99.482c.756-.06.875-1.8,1.037-2.339a26.989,26.989,0,0,1,2.2-5.414c3.717-6.677,10.394-11.2,17.336-14.01a52.7,52.7,0,0,1,19.864-4.105c9.382-.051,19.23,2.422,25.349,10.022,5.724,7.109,7.389,16.38,6.4,25.263-.01.082-.061.5-.03.251s-.021.39,0-.03a.16.16,0,0,1-.007.038c-.271,1.329,1.765,1.9,2.038.562a34.6,34.6,0,0,0-3.456-22.584,27.575,27.575,0,0,0-11.821-11.828,37.1,37.1,0,0,0-13.871-3.6,52.248,52.248,0,0,0-19.053,2.095c-8.528,2.546-17.127,6.837-22.376,14.292a21.36,21.36,0,0,0-4.043,10.618c.012-.164-.018.038-.009.043l-.014.057c.032,0,.192-.278.316-.3a.5.5,0,0,0,.132.974" transform="translate(-10.211 -0.616)" fill="#180659"/>
    <path id="Path_3042" data-name="Path 3042" d="M1075.347,78.656c-5.4,3.029-10.4,7.081-13.567,12.487a29.937,29.937,0,0,0-3.674,17.5c.937,11.427,7.7,23.711,18.856,27.861a33.556,33.556,0,0,0,15.874,2.092c.223-.032.6-.068,1.041-.106.737-.062,1.471-.148,2.2-.244a59.3,59.3,0,0,0,17.946-5.231c7.665-3.688,14.323-9.55,17.813-17.432a26.892,26.892,0,0,0,1.249-3.372c.386-1.327-1.571-1.817-2.038-.562a32.909,32.909,0,0,1-6.517,10.99,36.856,36.856,0,0,1-9.094,7.115,54.783,54.783,0,0,1-17.8,6.066c-.512.087-1.025.166-1.539.24-.4.057-.085.015-.447.06-.2.026-.411.051-.617.074-.539.062-1.078.112-1.62.157-.979.081-1.943.248-2.93.283a33.624,33.624,0,0,1-7.691-.691,30.578,30.578,0,0,1-7.4-2.339,22.938,22.938,0,0,1-6.367-4.822,33.43,33.43,0,0,1-8.237-15.252,30.979,30.979,0,0,1,.6-17.295c1.985-5.764,6.026-10.358,10.825-13.993,1.207-.915,2.391-1.854,3.628-2.73a.5.5,0,0,0-.5-.857" transform="translate(-10.199 -0.677)" fill="#180659"/>
    <path id="Path_3043" data-name="Path 3043" d="M1059.654,101.934c2.863-7.179,9.068-12.629,15.794-16.132a45.188,45.188,0,0,1,10.391-3.765c1.71-.41,3.441-.761,5.179-1.034l.365-.054c-.151.021.011,0,.151-.019l.448-.053a36.909,36.909,0,0,1,14.169.936,17.492,17.492,0,0,1,7.7,4.307,28.823,28.823,0,0,1,7.621,19.386c-.08,2.695-.729,5.644-2.9,7.438a.852.852,0,0,0-.226.854,8.415,8.415,0,0,1,.365,3.684,13.2,13.2,0,0,1-4.067,8.245c-4.249,4.236-10.328,6.407-15.982,7.989a51.8,51.8,0,0,1-14.915,1.973,41.323,41.323,0,0,1-4.512-.358c-.42-.055-.844-.076-1.265-.13.134.017-.051-.013-.086-.013-.056,0-.1-.023-.162-.023l-.133.018q-.26.092.046.028c.187.1.171-.019.065-.054-.586-.2-.838.73-.255.924a.929.929,0,0,1,.089.029c-.561-.239-.107-.052.089.054a6.656,6.656,0,0,0,1.019.4,18.39,18.39,0,0,0,4,.689,44.684,44.684,0,0,0,14.776-1.407c8.826-2.185,21.272-6.683,22.9-17.128a11.367,11.367,0,0,0-.28-5.382l-.226.854c2.07-1.709,2.967-4.387,3.287-6.971a24.86,24.86,0,0,0-.993-9.841c-1.9-6.555-5.859-13.217-12.3-16.077-5.132-2.279-11.006-2.707-16.549-2.261a50.918,50.918,0,0,0-16.213,4.127c-8.131,3.57-15.472,9.909-18.4,18.5-.22.644.76.885,1,.277" transform="translate(-10.206 -0.679)" fill="#180659"/>
    <path id="Path_3044" data-name="Path 3044" d="M1121.157,127.948a10.483,10.483,0,0,0,2.844-.3c1-.161,1.989-.347,2.977-.551a20.953,20.953,0,0,0,2.878-.659,5.166,5.166,0,0,0,1.965-1.679c1.34-1.52,2.661-3.054,4.033-4.547,1.4-1.522,2.993-2.938,4.29-4.543a.835.835,0,0,0-1.179-1.181,43.372,43.372,0,0,0-3.96,4.156q-1.989,2.188-3.9,4.445c-.548.65-1.1,1.7-1.942,1.96-.889.279-1.843.428-2.752.621-.931.2-1.864.388-2.8.577a11.9,11.9,0,0,0-2.737.673c-.557.262-.2.974.279,1.032" transform="translate(-10.803 -0.984)" fill="#180659"/>
    <path id="Path_3045" data-name="Path 3045" d="M1142.911,109.2c-3.359-1.288-5.679,3.339-3.612,5.83.805.969,2.667,2.046,3.886,1.29a2.366,2.366,0,0,0,.335-3.7.63.63,0,0,0-.944.542c.069.536.5,1.853-.513,1.719a2.417,2.417,0,0,1-1.793-1.461,2.205,2.205,0,0,1,2.467-2.936c.782.094.8-1.04.173-1.282" transform="translate(-10.976 -0.938)" fill="#180659"/>
    <path id="Path_3046" data-name="Path 3046" d="M1143.89,109.423a3.191,3.191,0,0,1-.288-1.07c-.092-.417-.162-.841-.221-1.264a15.139,15.139,0,0,1-.138-2.394c.028-1.294.1-3.877,1.721-4.3,1.009-.267.838.684.829,1.372-.012.863-.057,1.727-.068,2.591-.015,1.154-.272,3.238.784,3.96a.518.518,0,0,0,.7-.184,1.713,1.713,0,0,0,.123-1.307A16.247,16.247,0,0,1,1147.2,105c-.024-1.188.048-2.374.032-3.561a2.451,2.451,0,0,0-.805-2.193,2.287,2.287,0,0,0-2.347.036c-1.778.993-2.02,3.261-2.068,5.093a15.239,15.239,0,0,0,.279,3.346,2.974,2.974,0,0,0,1.17,2.26c.348.23.694-.271.43-.558" transform="translate(-11.01 -0.852)" fill="#180659"/>
    <path id="Path_3047" data-name="Path 3047" d="M1146.227,111.9a5.28,5.28,0,0,1,.443-3.021,7.992,7.992,0,0,1,.879-1.318c.881-.8,2.5.812,3.11,1.376a8.781,8.781,0,0,1,2.644,3.521c.38,1.291-.584,2.356-1.3,3.292a6.883,6.883,0,0,0-.665,2.517q-.382,1.652-.852,3.281c-.612,2.121-1.34,4.206-2.159,6.255-1.579,3.948-3.195,8.206-6.474,11.058-3.837,3.338-8.8,4.484-13.329,6.51-.446.2-.1.784.306.725a28,28,0,0,0,13.874-5.794c3.808-3.2,5.615-8.116,7.35-12.645a65.04,65.04,0,0,0,2.295-7.179q.23-.9.434-1.811a15.8,15.8,0,0,1,.389-1.868c.011-.03-.128.084-.049-.068a1.563,1.563,0,0,1,.211-.227,6.705,6.705,0,0,0,.73-1,4.265,4.265,0,0,0,.073-4.648,13.606,13.606,0,0,0-3.562-3.816c-1.146-.851-3.139-1.756-4.148-.208a8.356,8.356,0,0,0-1.067,1.782,5.1,5.1,0,0,0-.061,3.412c.159.471.983.433.924-.125" transform="translate(-10.877 -0.913)" fill="#180659"/>
    <path id="Path_3048" data-name="Path 3048" d="M1130.127,124.478c-.619,1.673-.05,3.99.532,5.607a13.152,13.152,0,0,0,3.117,4.94,12.378,12.378,0,0,0,10.49,3.423.847.847,0,0,0-.224-1.656,12.658,12.658,0,0,1-4.9-.467,11.189,11.189,0,0,1-4.282-2.579,11.33,11.33,0,0,1-2.733-4.211,13.463,13.463,0,0,1-.633-2.448c-.144-.864-.1-1.762-.3-2.61a.557.557,0,0,0-1.066,0" transform="translate(-10.892 -1.068)" fill="#180659"/>
    <path id="Path_3049" data-name="Path 3049" d="M1064.974,164.216c-.488-.93-1.324-1.639-1.793-2.6a3.223,3.223,0,0,1,.2-3.274,7.163,7.163,0,0,1,2.273-2.147c.483-.3,1.442-.574,1.289.307a7.843,7.843,0,0,0-.321,1.341.668.668,0,0,0,.839.639c1.291-.415.927.644.475,1.38a.661.661,0,0,0,.39.96c.31.091.607-.016.9.047.535.116.2.711-.018,1.048-.334.524.217,1.022.727.946.573-.085.147.883.031,1.05a2.725,2.725,0,0,1-.723.679,3.08,3.08,0,0,1-1.816.514,3.168,3.168,0,0,1-1.656-.561c-.51-.355-.777-.9-1.249-1.283-.364-.294-1.05-.144-1.015.42a3.37,3.37,0,0,0,2.182,2.49,4.335,4.335,0,0,0,3.642-.1,3.586,3.586,0,0,0,2.171-2.7,1.621,1.621,0,0,0-1.908-1.754l.727.946a2.613,2.613,0,0,0,.375-2.357c-.444-.991-1.263-.42-2.018-.648q.2.48.39.96a2.654,2.654,0,0,0,.455-2.629,1.854,1.854,0,0,0-2.41-.689l.839.639c.011-.759.567-1.352.312-2.142a1.739,1.739,0,0,0-1.318-1.116c-1.479-.324-3.044,1.1-3.96,2.1a4.965,4.965,0,0,0-1.459,4.127,6.634,6.634,0,0,0,2.714,4.136c.476.3.975-.283.737-.738" transform="translate(-10.233 -1.331)" fill="#180659"/>
    <path id="Path_3050" data-name="Path 3050" d="M1062.107,159.326c-1.793-1.63-4.3-.177-5.129,1.736a5.66,5.66,0,0,0,1.81,6.551,6.739,6.739,0,0,0,6.767.893c1.316-.555,2.359-1.6,3.76-1.969a4.231,4.231,0,0,1,3.869.766,3.015,3.015,0,0,1,.662,3.941,1.837,1.837,0,0,1-2.365.687c-.746-.5-.555-1.852.473-1.514.834.276,1.191-1.041.361-1.315a2.1,2.1,0,0,0-2.621,1.355,2.409,2.409,0,0,0,1.482,2.834c2.738,1.045,4.788-2.176,4.256-4.571-.609-2.735-3.623-3.973-6.162-3.441-1.561.327-2.661,1.4-4.068,2.043a5.57,5.57,0,0,1-4.9-.142,4.642,4.642,0,0,1-2.509-4.4,3.014,3.014,0,0,1,3.955-2.846.368.368,0,0,0,.356-.611" transform="translate(-10.186 -1.366)" fill="#180659"/>
    <path id="Path_3051" data-name="Path 3051" d="M1062.918,157.337a5.187,5.187,0,0,0-6.4-1.162,6.706,6.706,0,0,0-3.416,5.9,10.863,10.863,0,0,0,2.754,7.114,6.6,6.6,0,0,0,3.214,1.953,10.479,10.479,0,0,0,4.11.608,10.079,10.079,0,0,0,3.851-1.459c1.047-.585,4.272-2.65,4.9-.6.181.593,1.119.338.93-.257-.972-3.075-4.993-.7-6.753.136a7.743,7.743,0,0,1-4.624.915,7.993,7.993,0,0,1-4.47-1.87c-2.12-2.192-3.44-5.666-2.326-8.636a4.892,4.892,0,0,1,3.254-3.071c1.731-.47,2.938.389,4.333,1.272.546.347,1-.4.645-.837" transform="translate(-10.152 -1.339)" fill="#180659"/>
    <path id="Path_3052" data-name="Path 3052" d="M1060.074,154.754a4.82,4.82,0,0,0,.633,1.6,5.7,5.7,0,0,0,.464.615,5.566,5.566,0,0,1,.632.669.631.631,0,0,0,1.089-.637,7.249,7.249,0,0,0-1.049-1.081,4.766,4.766,0,0,1-.91-1.4.446.446,0,0,0-.86.237" transform="translate(-10.219 -1.328)" fill="#180659"/>
    <path id="Path_3053" data-name="Path 3053" d="M1071.042,132.524a34.093,34.093,0,0,0-6.219,5.065,80.144,80.144,0,0,0-5.68,5.91,20.325,20.325,0,0,0-4.064,6c-.727,1.961-.868,4.722,1.5,5.559a6.2,6.2,0,0,0,3.9-.186,8.39,8.39,0,0,0,3.807-2.118.5.5,0,0,0-.482-.829,6.313,6.313,0,0,0-1.853.816,11.8,11.8,0,0,1-2.132.9c-1.247.368-3.408.695-3.834-.979a5.907,5.907,0,0,1,.811-3.84,19.994,19.994,0,0,1,2.42-3.47,70.8,70.8,0,0,1,5.8-6.233q1.6-1.524,3.284-2.952c1.112-.945,2.326-1.815,3.358-2.847a.5.5,0,0,0-.608-.788" transform="translate(-10.167 -1.14)" fill="#180659"/>
    <path id="Path_3054" data-name="Path 3054" d="M1072.776,134a22.642,22.642,0,0,0-4.032,2.982q-2,1.666-3.869,3.478t-3.6,3.757a22.666,22.666,0,0,0-2.959,3.771c-.5.879-1.39,2.8-.5,3.678.93.918,2.719-.261,3.544-.8,1.325-.86,2.542-1.91,3.776-2.892,1.351-1.076,2.7-2.156,4.005-3.291a48.489,48.489,0,0,0,7.454-8.159c.5-.685-.67-1.384-1.145-.669-3.148,4.732-7.772,8.458-12.149,12a20.329,20.329,0,0,1-3.608,2.6c-.228.113-.826.466-1.017.3-.148-.128.087-.86.135-1.019a6.844,6.844,0,0,1,.957-1.9,44.242,44.242,0,0,1,5.9-6.584q1.809-1.758,3.744-3.381c1.277-1.072,2.72-2,3.9-3.181a.442.442,0,0,0-.533-.691" transform="translate(-10.194 -1.153)" fill="#180659"/>
    <path id="Path_3055" data-name="Path 3055" d="M1069.862,165.6c1.262.934,2.995.685,4.427.313,1.738-.45,3.384-1.369,5.2-1.486a3.616,3.616,0,0,1,3.755,2.268c.612,1.535-.413,2.957-.035,4.5a.669.669,0,0,0,1.289-.356c-.236-.884.2-1.772.249-2.66a4.807,4.807,0,0,0-3.441-4.922,8.65,8.65,0,0,0-5.157.6,26.493,26.493,0,0,1-2.822.923,8.369,8.369,0,0,1-3.137.031.43.43,0,0,0-.329.781" transform="translate(-10.312 -1.404)" fill="#180659"/>
    <path id="Path_3056" data-name="Path 3056" d="M1090.072,148.372a13.434,13.434,0,0,1-.634,5.32c-.613,1.648-1.82,2.99-1.936,4.809a5.154,5.154,0,0,0,5.7,5.41c.848-.1.893-1.416,0-1.363a4.032,4.032,0,0,1-3.631-1.67,4.192,4.192,0,0,1,.073-4.478c1.389-2.612,2.19-5.333.919-8.162-.109-.243-.509-.119-.5.135" transform="translate(-10.484 -1.275)" fill="#180659"/>
    <path id="Path_3057" data-name="Path 3057" d="M1084.461,138.227l.027.043a.266.266,0,0,0,.459,0l.027-.043a.3.3,0,1,0-.513,0" transform="translate(-10.454 -1.186)" fill="#180659"/>
    <path id="Path_3058" data-name="Path 3058" d="M1084.131,138.791a28.193,28.193,0,0,1,4.206,6.07,17.456,17.456,0,0,1,1.222,3.531,16.816,16.816,0,0,1,.31,1.746c.067.535.03,1.067.459,1.445a.47.47,0,0,0,.656,0c.719-.8.129-2.607-.095-3.559a18.938,18.938,0,0,0-1.313-3.728,13.819,13.819,0,0,0-5.055-6.013c-.327-.2-.619.24-.39.507" transform="translate(-10.451 -1.19)" fill="#180659"/>
    <path id="Path_3059" data-name="Path 3059" d="M1091.875,138.536c1.306.774,1.191,2.579.838,3.837a36.127,36.127,0,0,1-1.534,3.707c-.819,2.02-1.286,4.826.592,6.434a2.719,2.719,0,0,0,4.56-1.651,2.135,2.135,0,0,0-.967-2.442,1.978,1.978,0,0,0-2.385.428.632.632,0,0,0,.893.894.778.778,0,0,1,.974-.055c.412.355.192,1.122-.007,1.528a1.347,1.347,0,0,1-2.239.352c-1.561-1.295-.815-3.8-.15-5.36.709-1.666,1.653-3.318,1.7-5.176a3.093,3.093,0,0,0-1.945-3.278.429.429,0,0,0-.329.781" transform="translate(-10.513 -1.186)" fill="#180659"/>
    <path id="Path_3060" data-name="Path 3060" d="M1095.41,138.159a9.99,9.99,0,0,1-.588,6.276c-.776,1.684-1.962,3.1-2.044,5.028-.033.766,1.153.763,1.188,0,.1-2.09,1.741-3.871,2.269-5.878a9.254,9.254,0,0,0,.31-2.911,4.852,4.852,0,0,0-.92-2.607.118.118,0,0,0-.215.091" transform="translate(-10.535 -1.188)" fill="#180659"/>
    <path id="Path_3061" data-name="Path 3061" d="M1084.344,172.159a20.185,20.185,0,0,0,2.8-2.3c.916-.809,1.821-1.63,2.731-2.445l2.729-2.446q.651-.583,1.3-1.166c.451-.405.907-.674,1-1.3a.478.478,0,0,0-.453-.6c-1.02.046-1.836,1.209-2.551,1.864l-2.828,2.594c-.943.865-1.89,1.724-2.827,2.6a20.11,20.11,0,0,0-2.542,2.556c-.291.391.264.872.644.644" transform="translate(-10.447 -1.394)" fill="#180659"/>
    <path id="Path_3062" data-name="Path 3062" d="M1084.989,170.152a7.823,7.823,0,0,0-1.875,2.481c-.358.935.588,2.107,1.035,2.865,1.279,2.171,2.625,4.31,4.089,6.362a.738.738,0,0,0,1.136.147c4.736-4.067,9.585-8,14.217-12.192.7-.632-.336-1.664-1.033-1.034-4.583,4.142-9.168,8.309-14.06,12.088l.989.26c-1.135-1.668-2.265-3.339-3.333-5.051-.5-.809-.986-1.631-1.5-2.435-.41-.643-.305-.936.079-1.525a9.471,9.471,0,0,0,.847-1.508c.158-.375-.26-.776-.593-.458" transform="translate(-10.441 -1.451)" fill="#180659"/>
    <path id="Path_3063" data-name="Path 3063" d="M1094.279,162.544c.314.727,1.3,1.2,1.929,1.647.805.57,1.605,1.145,2.387,1.747,1.489,1.147,2.873,2.477,4.467,3.482.683.43,1.233-.6.619-1.06-1.557-1.17-3.025-2.446-4.564-3.637-.693-.537-1.4-1.064-2.112-1.569-.677-.478-1.512-1.235-2.373-1.224a.415.415,0,0,0-.353.616" transform="translate(-10.549 -1.394)" fill="#180659"/>
    <path id="Path_3064" data-name="Path 3064" d="M1085.057,176.887a6.5,6.5,0,0,0-.225,1.613c-.079.548-.18,1.094-.266,1.643-.124.788-.5,1.8-.133,2.546a.256.256,0,0,0,.4.052c.657-.676.591-2.106.728-3.007s.488-2.117-.031-2.908a.262.262,0,0,0-.472.061" transform="translate(-10.453 -1.521)" fill="#180659"/>
    <path id="Path_3065" data-name="Path 3065" d="M1085.6,177.247c-.351,1.338-.727,2.636-.97,4-.253,1.427-.463,2.867-.655,4.3q-.551,4.119-1.1,8.239a10.259,10.259,0,0,1-.887,3.809,32.268,32.268,0,0,1-2.02,2.8,15.071,15.071,0,0,0-1.608,3.292,2.439,2.439,0,0,0,.852,2.709c1.627,1.486,4.107,1.658,6.194,1.742a27.863,27.863,0,0,0,7.553-.749,21.494,21.494,0,0,0,3.635-1.156c1.237-.542,1.512-1.453,1.867-2.674.734-2.525,1.508-5.037,2.175-7.581.744-2.837,1.75-5.587,2.53-8.414a21.035,21.035,0,0,1,1-3.1,6.178,6.178,0,0,1,1.352-2.233c.93-.778-.408-2.108-1.331-1.332a9.414,9.414,0,0,0-2.195,3.962,55.964,55.964,0,0,0-1.73,6.355c-.553,2.4-1.392,4.725-2.095,7.085q-.517,1.741-.965,3.5c-.141.55-.279,1.1-.418,1.653a1.58,1.58,0,0,1-1.2,1.383,26.276,26.276,0,0,1-7.289,1.561,16.906,16.906,0,0,1-6.661-.5c-.912-.328-2.2-1.086-1.942-2.246.266-1.192,1.4-2.359,2.128-3.287a14.058,14.058,0,0,0,1.646-2.4,10.573,10.573,0,0,0,.875-3.282c.392-2.813.734-5.633,1.1-8.45.193-1.483.372-2.973.516-4.462s.123-2.963.132-4.463a.249.249,0,0,0-.486-.065" transform="translate(-10.394 -1.524)" fill="#180659"/>
    <path id="Path_3066" data-name="Path 3066" d="M1084.684,184.145c-.128,1.536,1,2.505,2.34,2.994a21.767,21.767,0,0,0,5.478,1.039,18.628,18.628,0,0,0,10.468-2.212c.669-.363.076-1.371-.594-1.018a17.686,17.686,0,0,1-8.57,2.066,26.434,26.434,0,0,1-4.694-.572c-1.347-.273-3.552-.567-3.766-2.3a.33.33,0,0,0-.661,0" transform="translate(-10.457 -1.583)" fill="#180659"/>
    <path id="Path_3067" data-name="Path 3067" d="M1082.868,198.408a7.1,7.1,0,0,1,2.789.476,9.165,9.165,0,0,1,1.941,1.547.167.167,0,0,0,.281-.117c.043-.99-1.025-1.728-1.818-2.122a4.416,4.416,0,0,0-3.24-.13.177.177,0,0,0,.047.346" transform="translate(-10.438 -1.703)" fill="#180659"/>
    <path id="Path_3068" data-name="Path 3068" d="M1128.655,177.313c.007,1.268-.024,2.51.075,3.776.107,1.374.272,2.75.438,4.119.3,2.52.655,5.035.984,7.551.306,2.356.522,4.565,1.955,6.541.629.867,1.317,1.688,1.946,2.557.7.963,1.53,2.185.491,3.18-1.6,1.532-4.436,1.449-6.491,1.427a26.668,26.668,0,0,1-7.061-1.028c-.618-.177-1.229-.374-1.831-.6s-.919-.393-1.114-1.046c-.384-1.292-.641-2.624-1-3.922-.636-2.278-1.413-4.512-2.071-6.783-.748-2.578-1.288-5.216-2.068-7.788-.438-1.439-1.159-3.4-2.341-4.4-.923-.774-2.261.554-1.331,1.332a5.331,5.331,0,0,1,1.163,1.829,14.433,14.433,0,0,1,.915,2.519c.689,2.546,1.538,5.024,2.292,7.548.742,2.482,1.362,5,2.106,7.484a17.423,17.423,0,0,0,1.116,3.549c.6,1.055,2.035,1.379,3.1,1.716a27.854,27.854,0,0,0,7.482,1.27,15.356,15.356,0,0,0,6.842-.917,4.074,4.074,0,0,0,2.126-2.012c.453-1.113-.25-2.184-.711-3.188-1-2.168-3.1-3.78-3.534-6.192-.553-3.051-.821-6.185-1.23-9.26q-.313-2.33-.682-4.652c-.254-1.6-.671-3.119-1.08-4.682a.249.249,0,0,0-.486.065" transform="translate(-10.691 -1.524)" fill="#180659"/>
    <path id="Path_3069" data-name="Path 3069" d="M1129.487,184.145c-.215,1.731-2.417,2.024-3.766,2.3a26.434,26.434,0,0,1-4.694.572,17.693,17.693,0,0,1-8.572-2.066c-.668-.352-1.263.655-.594,1.018a18.633,18.633,0,0,0,10.469,2.212,22.634,22.634,0,0,0,5.339-.991c1.391-.479,2.612-1.439,2.479-3.042a.33.33,0,0,0-.661,0" transform="translate(-10.716 -1.583)" fill="#180659"/>
    <path id="Path_3070" data-name="Path 3070" d="M1132.14,198.061a4.406,4.406,0,0,0-3.239.13c-.8.4-1.862,1.13-1.818,2.122a.167.167,0,0,0,.281.117,8.866,8.866,0,0,1,1.94-1.547,7.213,7.213,0,0,1,2.79-.476.177.177,0,0,0,.047-.346" transform="translate(-10.866 -1.703)" fill="#180659"/>
    <path id="Path_3071" data-name="Path 3071" d="M1104.166,183.939c.634-.887,1.385-2.046,2.538-2.191,1.124-.142,2.445-.263,3.229.709.539.666,1.482-.283.942-.942-1.077-1.319-2.927-1.291-4.466-1.04a4,4,0,0,0-2.948,3.167.387.387,0,0,0,.7.3" transform="translate(-10.638 -1.553)" fill="#180659"/>
    <path id="Path_3072" data-name="Path 3072" d="M1104.89,182.447a2.791,2.791,0,0,1,2.683-1.093,3.25,3.25,0,0,1,2.549,1.149.593.593,0,0,0,.983-.574c-.436-1.512-2.359-1.823-3.7-1.815a3.549,3.549,0,0,0-2.073.494,2.356,2.356,0,0,0-.939,1.632.271.271,0,0,0,.493.208" transform="translate(-10.647 -1.551)" fill="#180659"/>
    <path id="Path_3073" data-name="Path 3073" d="M1088.417,158.481c1.241.521,3.147.023,4.4-.3a2.128,2.128,0,0,0,1.26-.752,6.735,6.735,0,0,0,1.022-1.6c.167-.443-.321-.793-.711-.712a1.722,1.722,0,0,0-1.073.814c-.375.519-.5.757-1.154.914a37.359,37.359,0,0,0-3.741.716.478.478,0,0,0,0,.913" transform="translate(-10.49 -1.335)" fill="#180659"/>
    <path id="Path_3074" data-name="Path 3074" d="M1094.555,156.271a18.152,18.152,0,0,0,4.293-.439q2.224-.321,4.433-.729t4.4-.893a11.339,11.339,0,0,1,4.392-.476,3.693,3.693,0,0,1,1.527.608c.485.35.777.787,1.418.831a7.542,7.542,0,0,0,1.622-.2q1.17-.183,2.331-.407a74.484,74.484,0,0,0,8.492-2.242c.878-.281.485-1.689-.38-1.381a59.38,59.38,0,0,1-8.481,2.28q-1,.195-2,.36a6.154,6.154,0,0,1-1.186.18,1.523,1.523,0,0,1-.916-.457,5.431,5.431,0,0,0-2.9-1.04,13.563,13.563,0,0,0-3.959.507q-2.193.488-4.4.906t-4.424.765a24.935,24.935,0,0,0-4.415.733.559.559,0,0,0,.148,1.092" transform="translate(-10.547 -1.299)" fill="#180659"/>
    <path id="Path_3075" data-name="Path 3075" d="M1119.887,128.743c.634,1.8,1.562,3.506,2.361,5.24.858,1.861,1.681,3.741,2.4,5.66a51.59,51.59,0,0,1,1.735,5.589c.229.92.43,1.846.593,2.781.095.543.18,1.09.245,1.638.034.28.18.792-.057.99-.759.627.248,1.951,1.06,1.376a2.094,2.094,0,0,0,.843-2.05,28.2,28.2,0,0,0-.452-3.06,42.532,42.532,0,0,0-1.823-6.542,64.186,64.186,0,0,0-2.551-6.072,37.668,37.668,0,0,0-3.3-5.989c-.352-.481-1.279-.224-1.046.44" transform="translate(-10.796 -1.103)" fill="#180659"/>
    <path id="Path_3076" data-name="Path 3076" d="M1126.163,151.575c.169,1.362.494,2.7.729,4.054a63.681,63.681,0,0,1,.848,9.2c.083,3.146.046,6.294.193,9.438.073,1.562.2,3.122.4,4.673.184,1.42.285,3.171,1.191,4.337a.55.55,0,0,0,.914-.242c.28-1.445-.3-3.15-.47-4.594-.192-1.609-.3-3.227-.358-4.846-.121-3.146-.082-6.3-.193-9.441a47.169,47.169,0,0,0-1.023-8.94,14.157,14.157,0,0,0-1.416-3.859c-.2-.351-.865-.225-.81.219" transform="translate(-10.857 -1.301)" fill="#180659"/>
    <path id="Path_3077" data-name="Path 3077" d="M1096.566,163.95c1.993,1.111,4.823.822,7.022.692a62.537,62.537,0,0,0,7.383-.974,74.626,74.626,0,0,0,8.756-2.056c1.4-.432,2.786-.924,4.142-1.486a15.154,15.154,0,0,0,3.9-1.983c.422-.351-.03-1.059-.525-.905-1.372.427-2.659,1.261-4,1.806-1.262.515-2.548.967-3.849,1.369a73.432,73.432,0,0,1-8.444,2.006c-2.4.44-4.8.79-7.227,1a34.408,34.408,0,0,1-3.672.135c-1.118-.025-2.222-.175-3.339-.155a.3.3,0,0,0-.149.554" transform="translate(-10.57 -1.354)" fill="#180659"/>
    <path id="Path_3078" data-name="Path 3078" d="M1103.1,169.179a6.374,6.374,0,0,0,3.268.468c1.083,0,2.171-.072,3.249-.169a42.528,42.528,0,0,0,6.438-1.092,43.664,43.664,0,0,0,12.1-5.106.554.554,0,0,0-.558-.956,45.193,45.193,0,0,1-11.752,4.726,45.781,45.781,0,0,1-6.231,1.1c-1.029.109-2.06.175-3.094.218a12.858,12.858,0,0,0-3.342.19.344.344,0,0,0-.081.62" transform="translate(-10.633 -1.397)" fill="#180659"/>
    <path id="Path_3079" data-name="Path 3079" d="M1113.222,177.77c3.876,1.231,8.329-.487,11.282-3,.319-.271-.138-.711-.455-.455a13.7,13.7,0,0,1-5.188,2.494,18.949,18.949,0,0,1-5.549.3.336.336,0,0,0-.089.657" transform="translate(-10.73 -1.5)" fill="#180659"/>
    <path id="Path_3080" data-name="Path 3080" d="M1093.356,177.879a12.2,12.2,0,0,0,7.655-.457c.393-.159.245-.789-.18-.653a16.967,16.967,0,0,1-7.417.689c-.245-.029-.284.36-.057.421" transform="translate(-10.539 -1.522)" fill="#180659"/>
    <path id="Path_3081" data-name="Path 3081" d="M1126.642,126.151a16,16,0,0,0-.806,5.745,13.64,13.64,0,0,0,1.541,5.326,20.421,20.421,0,0,0,2.794,4.639,6.354,6.354,0,0,0,4.321,2.263.457.457,0,0,0,.121-.893,12.225,12.225,0,0,1-2.29-.847,6.651,6.651,0,0,1-1.958-1.806,26.538,26.538,0,0,1-2.335-4.1,12.974,12.974,0,0,1-1.407-5.074,30.44,30.44,0,0,1,.345-5.214c.023-.191-.271-.213-.325-.044" transform="translate(-10.853 -1.085)" fill="#180659"/>
    <path id="Path_3082" data-name="Path 3082" d="M1145.86,110.135c-.289.8-.629,2.085-.049,2.834.536.69,1.437.465,2.122.173l-.748-.576c-.083.528-.427,1.458-.017,1.932s1.306.256,1.813.073l-.6-.243c.058.117-.082.484-.033.663a.887.887,0,0,0,.542.582,1.406,1.406,0,0,0,1.556-.328.49.49,0,0,0-.59-.765c-.592.269-.36-.286-.562-.686a.532.532,0,0,0-.6-.243,2.05,2.05,0,0,1-.638.163c-.029.155-.03.145,0-.032a3.5,3.5,0,0,1,.126-.98c.054-.424-.463-.58-.766-.44-.384.176-.47.249-.791-.088s-.248-.351-.267-.8a5.165,5.165,0,0,0-.215-1.239.15.15,0,0,0-.286,0" transform="translate(-11.043 -0.947)" fill="#180659"/>
    <path id="Path_3083" data-name="Path 3083" d="M1030.957,234.249c.1-.611.16-1.21.21-1.828.061-.785-.033-1.485.577-2.06a6.147,6.147,0,0,0,1.717-2.652c.484-1.326,1.68-1.316,2.671-2.089.783-.612.868-1.513,1.28-2.351.315-.639.82-.631,1.414-.892a2.915,2.915,0,0,0,1.1-.9,4.664,4.664,0,0,0,.772-1.27c.178-.522-.054-.7-.268-1.121-.255-.5.253-.87.452-1.357.25-.61.152-1.254.609-1.787a2.005,2.005,0,0,1,1.575-.7,3.517,3.517,0,0,0,1.6-.031,2.485,2.485,0,0,0,.955-.911c.511-.695.989-.689,1.8-.8a4.692,4.692,0,0,0,3.138-1.636c.22-.31-.2-.662-.5-.5a15.246,15.246,0,0,1-1.6.947,9.121,9.121,0,0,1-2.071.4,1.839,1.839,0,0,0-1.083.56c-.385.4-.58,1-1.155,1.133-.541.127-1.113-.116-1.674-.012a2.873,2.873,0,0,0-1.27.592c-.976.789-.849,1.91-1.441,2.9a1.916,1.916,0,0,0-.4,1.068c.034.561.564.691.312,1.266a2.581,2.581,0,0,1-1.436,1.4,2.521,2.521,0,0,0-1.3.692c-.694.811-.57,2.067-1.5,2.706-.863.6-1.954.733-2.515,1.718-.336.589-.416,1.283-.753,1.874-.36.634-.958.966-1.4,1.513a2.319,2.319,0,0,0-.373,1.493,22.075,22.075,0,0,0,.043,2.56c.024.266.451.374.5.068" transform="translate(-9.933 -1.819)" fill="#180659"/>
    <path id="Path_3084" data-name="Path 3084" d="M1050.107,212.157a1.276,1.276,0,0,0,1.067-.653c.171-.249.278-.534.444-.785a1.362,1.362,0,0,1,1.269-.593c1.582-.063,1.895-.907,2.094-2.319.146-1.04.873-1.467,1.731-1.936a4.091,4.091,0,0,1,1.588-.575,12.206,12.206,0,0,0,1.462-.061,19.778,19.778,0,0,0,2.863-1.03,26.881,26.881,0,0,0,2.973-1.176c.4-.211.12-.821-.3-.717a25.858,25.858,0,0,0-2.9,1.054,17.013,17.013,0,0,1-2.863,1.027,9.727,9.727,0,0,0-2.59.385,6.9,6.9,0,0,0-2.092,1.316,2.554,2.554,0,0,0-.686,1.548,3.947,3.947,0,0,1-.154,1.075c-.271.591-.8.57-1.378.616a1.906,1.906,0,0,0-1.427.632c-.4.474-.545,1.415-1.168,1.652-.272.1-.26.557.073.543" transform="translate(-10.121 -1.742)" fill="#180659"/>
    <path id="Path_3085" data-name="Path 3085" d="M1065.153,203.03c1.292.247,1.8-1.029,2.714-1.64.621-.415,1.3-.057,1.976-.287a6.945,6.945,0,0,0,.876-.448,7.1,7.1,0,0,1,1.216-.336.3.3,0,0,0,.13-.491c-.4-.456-.9-.342-1.428-.12-.305.128-.568.341-.872.467-.573.24-.9.034-1.453.1-1.371.164-1.858,1.78-3.158,2.132a.325.325,0,0,0,0,.622" transform="translate(-10.266 -1.718)" fill="#180659"/>
    <path id="Path_3086" data-name="Path 3086" d="M1071.546,200.064a3.191,3.191,0,0,0,2.691-.419,4.919,4.919,0,0,1,1.343-.821,8.82,8.82,0,0,1,1.819-.22c1.067-.1,1.537-.824,2.487-1.2a15.717,15.717,0,0,1,3.379-.658c.57-.087.329-.957-.239-.868a19.681,19.681,0,0,0-3.116.572c-1,.325-1.718,1.212-2.772,1.272a5.377,5.377,0,0,0-2.662.59,7.3,7.3,0,0,1-1.276.872,8.425,8.425,0,0,1-1.654.2c-.357.054-.31.592,0,.677" transform="translate(-10.328 -1.686)" fill="#180659"/>
    <path id="Path_3087" data-name="Path 3087" d="M1100.759,194.146c.96.674,2.008.315,3.066.1,1.54-.308,2.934.173,4.454.193a.44.44,0,0,0,.117-.861,9.694,9.694,0,0,0-3.776-.423c-1.187.088-2.426.73-3.609.39a.328.328,0,0,0-.252.6" transform="translate(-10.61 -1.663)" fill="#180659"/>
    <path id="Path_3088" data-name="Path 3088" d="M1108.011,194.411a6.078,6.078,0,0,0,2.976.072,5.58,5.58,0,0,1,3.308.57c.558.273,1.04-.585.483-.828a6.48,6.48,0,0,0-3.02-.688,18.931,18.931,0,0,1-3.659.224c-.4-.052-.407.527-.088.649" transform="translate(-10.679 -1.666)" fill="#180659"/>
    <path id="Path_3089" data-name="Path 3089" d="M1132.514,197.828c1.484,1.122,3.488.089,4.928,1.214a6.565,6.565,0,0,0,1.8,1.29,6.388,6.388,0,0,0,1.336.208,3.758,3.758,0,0,1,1.6.693,3.1,3.1,0,0,0,2.386.214,4.971,4.971,0,0,1,3.427.768c.983.541,1.9,1,2.159,2.157.151.665.505,1.3,1.283,1.2.56-.069.571-.959,0-.892-.409.048-.505-1.121-.622-1.365a2.788,2.788,0,0,0-.7-.879,10.352,10.352,0,0,0-2.184-1.34,6.3,6.3,0,0,0-2.412-.734,6.153,6.153,0,0,0-1.38.138,2.126,2.126,0,0,1-1.752-.368,5.466,5.466,0,0,0-2.337-.693c-.936-.165-1.423-.858-2.159-1.378-1.557-1.1-3.415-.1-5.038-.806a.331.331,0,0,0-.334.571" transform="translate(-10.916 -1.698)" fill="#180659"/>
    <path id="Path_3090" data-name="Path 3090" d="M1151.261,205.474a7.571,7.571,0,0,1,1.686.253,14.275,14.275,0,0,1,1.37.863,7.135,7.135,0,0,0,1.3.322,4.217,4.217,0,0,1,1.559.871c1.491,1.261,2.412,3.339,4.337,4.029a.416.416,0,0,0,.409-.108.4.4,0,0,0,0-.6c-.17-.2-.541-.292-.76-.438a5.435,5.435,0,0,1-.9-.787,27.474,27.474,0,0,0-2.709-2.921,5.116,5.116,0,0,0-1.462-.827,6.825,6.825,0,0,1-1.926-.692,2.5,2.5,0,0,0-3.017-.245c-.124.1-.005.261.114.275" transform="translate(-11.097 -1.763)" fill="#180659"/>
    <path id="Path_3091" data-name="Path 3091" d="M1161.168,211.738a3.447,3.447,0,0,1,1.323.763c.517.358,1.05.7,1.573,1.045a4.863,4.863,0,0,1,1.25,1.187,1.105,1.105,0,0,0,.7.48c.184.048.423.03.607.059.466.074.5.246.738.6a5.513,5.513,0,0,0,.669.825c.309.305.654.574.949.894a8.416,8.416,0,0,1,.688,1.107.318.318,0,0,0,.573-.074c.263-.909-.677-1.654-1.265-2.2a6.268,6.268,0,0,1-1.007-1.2,2.044,2.044,0,0,0-.967-.908c-.288-.1-.314-.029-.6-.048-.366-.024-.4-.113-.605-.392a4.061,4.061,0,0,0-1.148-.982c-.974-.63-2.192-1.723-3.395-1.769-.346-.014-.437.559-.083.617" transform="translate(-11.192 -1.818)" fill="#180659"/>
    <path id="Path_3092" data-name="Path 3092" d="M1169.878,218.652c.187.767.8,1.091,1.47,1.416a3.117,3.117,0,0,1,1.077.669c.4.481.359,1.185.583,1.741.4,1.005,1.527,1.4,2.154,2.261a7.364,7.364,0,0,1,.842,1.545,3.414,3.414,0,0,0,.66,1.319.225.225,0,0,0,.372-.1,4.3,4.3,0,0,0-.915-2.715,6.559,6.559,0,0,0-.95-1.214c-.408-.4-1.072-.713-1.351-1.22-.486-.884-.3-1.83-1.209-2.48-.712-.511-1.785-.611-2.243-1.429a.27.27,0,0,0-.49.207" transform="translate(-11.278 -1.88)" fill="#180659"/>
    <path id="Path_3093" data-name="Path 3093" d="M1176.589,226.465a4.432,4.432,0,0,0,1.438,1.824,2.049,2.049,0,0,1,.7,1.59,3.735,3.735,0,0,0,.177,1.268,5.2,5.2,0,0,0,1.629,1.843,3.134,3.134,0,0,1,.887,1.113,2.677,2.677,0,0,0,.758,1.208.1.1,0,0,0,.165-.1,4.6,4.6,0,0,0-.92-2.491c-.561-.664-1.5-1.132-1.772-2.008-.279-.914.066-1.719-.59-2.532-.585-.724-1.547-1.07-1.949-1.939-.136-.292-.619-.085-.521.22" transform="translate(-11.343 -1.947)" fill="#180659"/>
    <path id="Path_3094" data-name="Path 3094" d="M1182.561,235.8a3.312,3.312,0,0,0,.5,1.416c.059.066.148.007.156-.064a3.31,3.31,0,0,0-.392-1.424.136.136,0,0,0-.262.072" transform="translate(-11.4 -2.029)" fill="#180659"/>
    <path id="Path_3095" data-name="Path 3095" d="M1041.57,223.29a7.742,7.742,0,0,0,1.718-1.989c.543-.9,1.563-1.159,2.177-1.96.131-.171-.085-.4-.266-.346a4.826,4.826,0,0,0-2.22,1.535c-.248.331-.4.722-.636,1.064a11.094,11.094,0,0,1-1.14,1.328.26.26,0,0,0,.367.368" transform="translate(-10.037 -1.885)" fill="#180659"/>
    <path id="Path_3096" data-name="Path 3096" d="M1047.521,217.755c.293-.1.656-.243.755-.565a.345.345,0,0,0-.331-.434.849.849,0,0,0-.4.146c-.042.027-.085.054-.13.077l-.066.035c-.01,0-.084.039-.031.017a.387.387,0,0,0-.263.462.381.381,0,0,0,.463.263" transform="translate(-10.094 -1.866)" fill="#180659"/>
    <path id="Path_3097" data-name="Path 3097" d="M1038.582,225.029a15.253,15.253,0,0,1-2.21,1.574.886.886,0,0,0-.491.918,3.091,3.091,0,0,1-1.3,2.661,1.481,1.481,0,0,0-.733,1.31.137.137,0,0,0,.254.068,10.47,10.47,0,0,0,1.813-2.956c.309-1.031.651-1.192,1.475-1.67a6.047,6.047,0,0,0,1.682-1.415.347.347,0,0,0-.49-.491" transform="translate(-9.967 -1.937)" fill="#180659"/>
    <path id="Path_3098" data-name="Path 3098" d="M1057.192,210.545a18.652,18.652,0,0,0-3.509,1.633c-.726.426-1.768.867-1.889,1.807-.031.243.03.481.016.721-.037.631-.249.71-.6,1.112a1.219,1.219,0,0,0-.405.815c.032.707.806.774,1.342.631a90.127,90.127,0,0,0,6.758-3.7c.638-.488,1.5-1.188,1.388-2.1-.1-.871-1.018-1.064-1.751-.979a.269.269,0,0,0,0,.537c.214.017.429.04.643.068q.756.577.265,1.175a4.347,4.347,0,0,1-.9.947,13.342,13.342,0,0,1-1.955,1.3c-.773.445-1.538.9-2.323,1.326-.561.307-1.766,1.252-2.422,1.131-1-.182.08-1.271.26-1.747.293-.776.168-1.392.946-1.919a33.877,33.877,0,0,1,4.314-2.333.232.232,0,0,0-.177-.423" transform="translate(-10.13 -1.812)" fill="#180659"/>
    <path id="Path_3099" data-name="Path 3099" d="M1063.883,206.86a6.327,6.327,0,0,0,2-.818,18.267,18.267,0,0,1,2.42-.974c.757-.261,1.525-.485,2.29-.72a5.213,5.213,0,0,0,1.9-.754c.154-.127.016-.347-.149-.36a6.1,6.1,0,0,0-2.23.58c-.759.251-1.521.492-2.28.74a13.759,13.759,0,0,0-1.985.8c-.721.366-1.346.886-2.072,1.239-.16.078-.037.287.111.265" transform="translate(-10.254 -1.75)" fill="#180659"/>
    <path id="Path_3100" data-name="Path 3100" d="M1079.878,202.167c-1.012.491-1.968,1.1-2.947,1.656a14.555,14.555,0,0,0-2.647,1.614c-.138.123.011.323.168.29a10.609,10.609,0,0,0,2.968-1.386,19.8,19.8,0,0,0,2.753-1.791c.227-.184-.062-.5-.3-.383" transform="translate(-10.356 -1.74)" fill="#180659"/>
    <path id="Path_3101" data-name="Path 3101" d="M1076.1,207.535c.6-.317,1.218-.6,1.84-.876a4.63,4.63,0,0,0,1.606-.808c.066-.072.05-.224-.064-.242a2.918,2.918,0,0,0-1.615.423,13.5,13.5,0,0,0-1.984,1.132.215.215,0,0,0,.217.371" transform="translate(-10.371 -1.77)" fill="#180659"/>
    <path id="Path_3102" data-name="Path 3102" d="M1078.486,208.414a30.923,30.923,0,0,0,3.163-1.331.137.137,0,0,0-.069-.254,6.351,6.351,0,0,0-3.328,1.186c-.26.15-.031.529.234.4" transform="translate(-10.394 -1.781)" fill="#180659"/>
    <path id="Path_3103" data-name="Path 3103" d="M1082.373,209.636a15.584,15.584,0,0,1,4.275-1.216q2.18-.442,4.374-.82c1.463-.252,2.931-.458,4.4-.676a43.082,43.082,0,0,0,4.721-.725.228.228,0,0,0-.06-.446,27.722,27.722,0,0,0-4.5.46c-1.637.222-3.267.514-4.893.805-2.814.5-6.016.78-8.494,2.3a.182.182,0,0,0,.183.314" transform="translate(-10.432 -1.771)" fill="#180659"/>
    <path id="Path_3104" data-name="Path 3104" d="M1117.025,206.1c3.224.774,6.529,1.273,9.783,1.92,1.566.311,3.132.624,4.687.986.746.173,1.49.361,2.226.57a5.014,5.014,0,0,0,2.022.407c.134-.018.159-.207.076-.29a4.048,4.048,0,0,0-1.913-.789c-.741-.2-1.487-.375-2.235-.538-1.616-.353-3.245-.643-4.869-.958a60.172,60.172,0,0,0-9.744-1.561.129.129,0,0,0-.034.252" transform="translate(-10.768 -1.772)" fill="#180659"/>
    <path id="Path_3105" data-name="Path 3105" d="M1135.371,206.966a11.442,11.442,0,0,1,1.163.138,3.017,3.017,0,0,0,.951.086.092.092,0,0,0,.046-.17,4.345,4.345,0,0,0-2.159-.426c-.24-.013-.237.355,0,.372" transform="translate(-10.944 -1.779)" fill="#180659"/>
    <path id="Path_3106" data-name="Path 3106" d="M1145.953,207.556c1.114,0,1.783,1.1,2.765,1.44a11.185,11.185,0,0,1,1.482.4c.328.158.247.211.611.135a.157.157,0,0,0,.069-.262,3.773,3.773,0,0,0-.979-.766,9.479,9.479,0,0,1-1.344-.444c-.885-.518-1.5-1.176-2.606-1.069-.358.035-.373.572,0,.57" transform="translate(-11.045 -1.782)" fill="#180659"/>
    <path id="Path_3107" data-name="Path 3107" d="M1148.283,204.5a4.138,4.138,0,0,0,.032.805c.031.223.045.52.275.623a.16.16,0,0,0,.215-.057c.109-.206,0-.38-.058-.588a3.443,3.443,0,0,1-.126-.783.169.169,0,0,0-.339,0" transform="translate(-11.07 -1.759)" fill="#180659"/>
    <path id="Path_3108" data-name="Path 3108" d="M1147.047,203.8a4,4,0,0,1-.241.515,2.751,2.751,0,0,0-.253.477.236.236,0,0,0,.061.233c.016.012.032.026.049.037a.242.242,0,0,0,.289-.037,2.413,2.413,0,0,0,.484-1.116.2.2,0,0,0-.39-.108" transform="translate(-11.053 -1.753)" fill="#180659"/>
    <path id="Path_3109" data-name="Path 3109" d="M1145.4,202.789l-.722.429a1.162,1.162,0,0,0-.542.511.173.173,0,0,0,.146.255,1.166,1.166,0,0,0,.708-.23l.722-.429a.31.31,0,0,0-.313-.535" transform="translate(-11.03 -1.746)" fill="#180659"/>
    <path id="Path_3110" data-name="Path 3110" d="M1158.238,214.132c-.452-.271-2.62-1.383-2.672-.078-.02.482.626.984.912,1.307a5.383,5.383,0,0,0,1.738,1.4c.745.35,1.511.647,2.254,1.006a4.553,4.553,0,0,0,1.942.585c1.011,0,1.31-.967.471-1.553a.1.1,0,0,0-.14.107c.531,1.487-1.512.515-2.083.238a18.065,18.065,0,0,0-1.686-.722,4.749,4.749,0,0,1-1.95-1.227c-.1-.1-.857-.874-.8-1.025.219-.568,1.449.184,1.766.379.267.164.515-.26.246-.421" transform="translate(-11.14 -1.838)" fill="#180659"/>
    <path id="Path_3111" data-name="Path 3111" d="M1165.056,218.223a2.386,2.386,0,0,1-.979,1.049c-.319.186-.841.262-.979.634a.153.153,0,0,0,.07.173c.414.2,1.069-.25,1.4-.487a1.86,1.86,0,0,0,.84-1.219c.036-.2-.257-.365-.355-.15" transform="translate(-11.213 -1.878)" fill="#180659"/>
    <path id="Path_3112" data-name="Path 3112" d="M1153.4,211.775a1.946,1.946,0,0,0-.56,1.394c0,.384.141,1.075.6,1.158a.117.117,0,0,0,.146-.111c0-.321-.242-.6-.286-.927a1.566,1.566,0,0,1,.36-1.257c.151-.174-.091-.426-.256-.257" transform="translate(-11.114 -1.823)" fill="#180659"/>
    <path id="Path_3113" data-name="Path 3113" d="M1155.705,216.823q.22.2.453.375a1.348,1.348,0,0,0,.49.309c.121.024.252-.1.173-.224a1.61,1.61,0,0,0-.408-.334c-.159-.119-.31-.246-.459-.377-.17-.152-.422.1-.25.251" transform="translate(-11.141 -1.864)" fill="#180659"/>
    <path id="Path_3114" data-name="Path 3114" d="M1166.924,220.321c.04.748.669,1.18,1.229,1.587.8.579,1.771,1.545,2.76,1.708a.113.113,0,0,0,.126-.164,5.064,5.064,0,0,0-1.721-1.421c-.6-.406-1.883-.991-2.029-1.761a.186.186,0,0,0-.365.05" transform="translate(-11.25 -1.895)" fill="#180659"/>
    <path id="Path_3115" data-name="Path 3115" d="M1172.9,225.575a7.848,7.848,0,0,0,.8,1.2,1.9,1.9,0,0,0,1.061.787.148.148,0,0,0,.178-.178,2.3,2.3,0,0,0-.72-1.031c-.327-.35-.681-.671-1.011-1.017a.2.2,0,0,0-.305.235" transform="translate(-11.307 -1.94)" fill="#180659"/>
    <path id="Path_3116" data-name="Path 3116" d="M1175.546,228.872a3.411,3.411,0,0,0,.922,1.406.066.066,0,0,0,.11-.064c-.157-.509-.377-.977-.578-1.466-.113-.276-.567-.159-.454.125" transform="translate(-11.332 -1.968)" fill="#180659"/>
    <path id="Path_3117" data-name="Path 3117" d="M1019.744,221.024a.108.108,0,0,1,.066-.052.323.323,0,0,0-.093.036.343.343,0,0,1-.046.027c.033-.014.032-.015,0,0-.089.02-.175.048-.263.074-.049.015-.1.029-.149.04l-.075.017c-.044.007-.051.009-.019,0a.959.959,0,0,1-.151.007c-.025,0-.05,0-.075,0,.035,0,.029,0-.015-.007a.669.669,0,0,0-.717.143.8.8,0,0,0-.181.6.549.549,0,0,0,.174.374c.03.025.061.049.093.07s.035.024,0,0c.027.028.027.028,0,0,.018.035.018.035,0,0,.009.039.011.038.006,0a.4.4,0,0,1,0,.059c0,.04,0,.04,0,0a.478.478,0,0,1-.019.064c.012-.028.009-.023-.009.013-.011.02-.023.039-.036.057.024-.035-.049.054-.058.063-.176.179-.336.415-.2.67a.536.536,0,0,0,.615.222.314.314,0,0,0,.137-.518.411.411,0,0,0-.181-.109c-.038-.006-.075-.011-.114-.014s-.035,0,.012,0a.239.239,0,0,1,.135.262.24.24,0,0,0-.01.028c-.023.025-.021.022,0-.007l.044-.044a1.094,1.094,0,0,0,.319-.515.794.794,0,0,0-.076-.572.705.705,0,0,0-.1-.138.292.292,0,0,0-.046-.04c-.075-.058-.091-.07-.049-.039a.128.128,0,0,1,.024.064c.01.053.013.056.009.01,0-.02,0-.04,0-.059-.007.046-.007.05,0,.009.005-.018.01-.036.016-.054-.018.041-.018.044,0,.01l-.025.029c.029-.027.024-.025-.012.007a.32.32,0,0,1-.057.024c-.033,0-.028,0,.017.009a1.087,1.087,0,0,0,.21.038,1.47,1.47,0,0,0,.578-.068c.345-.1.9-.332.682-.792-.079-.166-.29-.118-.38,0" transform="translate(-9.813 -1.902)" fill="#180659"/>
    <path id="Path_3118" data-name="Path 3118" d="M1018.454,223.666c-.046.129-.16.39-.3.445-.472.186-.16.886.266.633.178-.105.424-.035.363.213a.372.372,0,0,0,.352.463,1.138,1.138,0,0,0,.584-.138.626.626,0,0,1,.156-.045c-.083.011-.031-.084-.05.014a.978.978,0,0,0,.049.37.592.592,0,0,0,.281.361,1.679,1.679,0,0,0,1.183-.064.663.663,0,0,0,.467-.793c-.039-.136-.178-.26-.2-.4-.023-.161.2-.235.322-.288a1.213,1.213,0,0,0,.718-.73.875.875,0,0,0,.022-.512.538.538,0,0,0-.139-.227c-.017-.016-.194-.171-.139-.059a.847.847,0,0,1-.02-.179.4.4,0,0,0-.1-.219.319.319,0,0,0-.41-.065.234.234,0,0,0-.116.2c0-.082,0,.133.009.165s.009.06.013.09a.635.635,0,0,0,.147.38c.044.045.107.067.153.106s.061-.034.036.059a.633.633,0,0,1-.165.345c-.214.2-.527.241-.722.479a.689.689,0,0,0-.05.788c.025.05.041.117.069.164s.052-.014.018-.013a.777.777,0,0,0-.156.057,1.94,1.94,0,0,1-.309.071,1.9,1.9,0,0,1-.224.02c-.045,0-.09,0-.135,0l.1.067s-.022-.187-.026-.223a.689.689,0,0,0-.443-.634.824.824,0,0,0-.455,0c-.112.029-.274.151-.385.132l.255.45A.913.913,0,0,0,1018,224.2l.544.419a2.414,2.414,0,0,0,.281-.392,1.449,1.449,0,0,0,.135-.494c.033-.305-.416-.325-.507-.068" transform="translate(-9.813 -1.915)" fill="#180659"/>
    <path id="Path_3119" data-name="Path 3119" d="M1021.307,222.036a1.193,1.193,0,0,0-.375.093.547.547,0,0,0-.263.3.448.448,0,0,0-.03.191.819.819,0,0,0,.023.131c0,.012.023.062.017.069s0-.081,0-.073l-.035.068a1.515,1.515,0,0,1-.081.14c0,.008-.049.068-.028.042s-.037.04-.043.046-.067.056-.013.017c-.02.014-.041.025-.06.038-.055.038.049-.009-.015.009a.276.276,0,0,1-.068.017c.09,0-.009,0-.014-.006.043.006.049.006.016,0l-.029-.01c-.025-.006.056.031,0,0s.03.035-.013-.006l-.09-.089a.476.476,0,0,0-.091-.076.435.435,0,0,1-.1-.043c.035.015.038.016.01,0l-.056-.023a.248.248,0,0,0-.14,0c.05,0,.1.013.151.019a.588.588,0,0,0-.077-.03.171.171,0,0,0-.208.119.453.453,0,0,0-.011.081l.027-.1c.038-.049.034-.045-.012.016a.229.229,0,0,0-.033.119.484.484,0,0,0,0,.055.433.433,0,0,0,.078.24.773.773,0,0,0,.308.256.746.746,0,0,0,.824-.158,1.161,1.161,0,0,0,.227-.308.824.824,0,0,0,.136-.415.452.452,0,0,0-.031-.142c-.01-.023-.019-.045-.029-.066.012.029.013.029,0,0s-.009-.03,0,0-.007.036,0,.017,0-.015-.008.01a.27.27,0,0,1,.024-.04c-.027.042.013-.012.019-.018.022-.019.024-.022.007-.009a.371.371,0,0,1,.042-.026,1.65,1.65,0,0,1,.151-.075.206.206,0,0,0,.1-.232.209.209,0,0,0-.2-.153" transform="translate(-9.83 -1.912)" fill="#180659"/>
    <path id="Path_3120" data-name="Path 3120" d="M1020.1,220.5a51.989,51.989,0,0,1,2.778-7.718,39.271,39.271,0,0,1,3.638-6.645,22.567,22.567,0,0,1,2.752-3.265l-.531-.409a12.646,12.646,0,0,0-1.71,3.087.331.331,0,0,0,.152.374c.577.3,1.076-.2,1.489-.553.437-.368.844-.77,1.247-1.174a12.548,12.548,0,0,1,2.591-2.185l-.378-.492q-.888,1.121-1.773,2.245a11.518,11.518,0,0,0-1.486,2.172.342.342,0,0,0,.291.509,1.782,1.782,0,0,0,1.043-.343c.355-.232.7-.492,1.04-.743q1.041-.761,2.057-1.557l-.461-.461c-1.02.984-2.038,1.961-3,3s-1.9,2.106-2.757,3.234c-.226.3.275.685.519.4a73.21,73.21,0,0,1,5.7-6.174c.266-.246-.1-.738-.394-.512q-.945.714-1.9,1.411-.48.347-.964.689a1.472,1.472,0,0,1-.88.379l.291.509a11.767,11.767,0,0,1,1.448-2.146q.86-1.117,1.719-2.233c.2-.26-.178-.575-.428-.429a12.177,12.177,0,0,0-2.4,1.992c-.37.371-.737.746-1.122,1.1-.182.169-.365.337-.562.489-.116.091-.428.387-.593.3l.151.373a11.221,11.221,0,0,1,1.605-2.853c.26-.334-.154-.788-.478-.478a26.078,26.078,0,0,0-4.662,6.159c-.632,1.128-1.2,2.289-1.737,3.467-.556,1.226-1.093,2.47-1.562,3.733a16.292,16.292,0,0,0-1.141,4.692.211.211,0,0,0,.412.056" transform="translate(-9.83 -1.734)" fill="#180659"/>
    <path id="Path_3121" data-name="Path 3121" d="M1031.053,207.332a8.358,8.358,0,0,0-1.276,1.084c-.407.387-.8.787-1.177,1.2a31.744,31.744,0,0,0-2.1,2.551,33.942,33.942,0,0,0-3.415,5.7,28.756,28.756,0,0,0-1.41,3.468c-.139.43.518.6.669.184a36.592,36.592,0,0,1,2.711-5.883,33.993,33.993,0,0,1,3.8-5.244c.4-.457.817-.9,1.236-1.346s.884-.846,1.257-1.326c.156-.2-.041-.544-.3-.384" transform="translate(-9.849 -1.785)" fill="#180659"/>
    <path id="Path_3122" data-name="Path 3122" d="M1021.295,221.246c.483-1.425.949-2.856,1.557-4.235a41.972,41.972,0,0,1,2.058-4.005c.213-.37.416-.744.624-1.115a2.167,2.167,0,0,0,.44-1.154c-.009-.073-.073-.15-.156-.12a1.694,1.694,0,0,0-.719.742c-.209.324-.42.648-.62.979-.4.671-.78,1.364-1.147,2.058a30.2,30.2,0,0,0-1.889,4.259,12.636,12.636,0,0,0-.607,2.53c-.035.275.379.3.46.062" transform="translate(-9.841 -1.813)" fill="#180659"/>
    <path id="Path_3123" data-name="Path 3123" d="M1026.866,206.641a15.921,15.921,0,0,0-1.622,2.187q-.357.562-.7,1.133a2.233,2.233,0,0,0-.493,1.232.132.132,0,0,0,.2.113,2.245,2.245,0,0,0,.786-.963q.355-.586.729-1.162c.489-.756.989-1.5,1.435-2.282.117-.205-.168-.442-.335-.259" transform="translate(-9.872 -1.779)" fill="#180659"/>
    <path id="Path_3124" data-name="Path 3124" d="M1035.162,138.1a6.315,6.315,0,0,0-.3-1.813l-.516.4c.419.318.718.788,1.288.841a1.386,1.386,0,0,0,.8-.239c.255-.145.51-.292.765-.439-.134-.173-.266-.347-.4-.519-.482.429-.993,1.026-.744,1.722a1.133,1.133,0,0,0,.674.642c.168.074.339.147.508.22a2.514,2.514,0,0,0,.261.112c.064.02.2,0,.249.038l.2-.478a2.252,2.252,0,0,0-.56-.082c-.19-.019-.381-.037-.572-.041-.321-.008-.71-.056-.936.22-.443.54-.145,1.326-.232,1.949l.546.074a4.318,4.318,0,0,0-.145-1.049,1.852,1.852,0,0,0-.4-.866,1.351,1.351,0,0,0-.962-.2,4.509,4.509,0,0,0-1.116.16l.241.573.671-.424a1.885,1.885,0,0,0,.545-.442,1.214,1.214,0,0,0,.211-.622,1.184,1.184,0,0,0-.187-.69.225.225,0,0,0-.408.054,3.359,3.359,0,0,0-.068.535.572.572,0,0,1-.116.408,1.893,1.893,0,0,1-.426.3l-.537.34a.315.315,0,0,0,.242.573,5.759,5.759,0,0,1,.828-.18c.182-.023.607-.116.752.025a1.6,1.6,0,0,1,.261.671,2.772,2.772,0,0,1,.062.839c-.017.307.5.387.547.073a4,4,0,0,0,.023-.829,1.572,1.572,0,0,1,.072-.833c.063-.105.177-.063.291-.059.151.006.3.016.451.019a5.268,5.268,0,0,0,.927.012.264.264,0,0,0,0-.5c-.039-.007-.1-.093-.132-.114a.762.762,0,0,0-.141-.075c-.133-.061-.269-.117-.4-.174-.18-.078-.48-.156-.582-.339-.23-.414.313-.854.575-1.086.285-.254-.081-.7-.4-.519l-.592.337c-.172.1-.388.271-.6.249-.376-.041-.639-.508-.907-.73a.355.355,0,0,0-.588.342c.143.567.249,1.143.41,1.7a.29.29,0,0,0,.568-.077" transform="translate(-9.962 -1.171)" fill="#180659"/>
    <path id="Path_3125" data-name="Path 3125" d="M1191.936,216.029c.209-.921.387-1.85.625-2.765a.354.354,0,0,0-.587-.342c-.5.4-.954,1.213-1.664,1.235a1.9,1.9,0,0,1-.929-.377l-1.057-.6c-.317-.181-.689.264-.4.519.511.452,1.309,1.141,1,1.922-.145.362-.584.5-.911.637l-.7.3a2.494,2.494,0,0,0-.307.137c-.11.067-.165.16-.292.194a.263.263,0,0,0,.069.514c.5.023,1.023-.047,1.528-.063.255-.009.511-.023.767-.029.239-.006.36,0,.462.234a2.848,2.848,0,0,1,.126,1.289,6.454,6.454,0,0,0,.023,1.4c.051.309.56.237.546-.074a4.883,4.883,0,0,1,.11-1.351,5.47,5.47,0,0,1,.2-.646,1.775,1.775,0,0,1,.289-.571.7.7,0,0,1,.549-.134q.358,0,.713.038a8.43,8.43,0,0,1,1.444.288.314.314,0,0,0,.241-.572l-.877-.555a3.477,3.477,0,0,1-.739-.524,1.013,1.013,0,0,1-.237-.673c-.009-.293-.02-.585-.029-.879a.224.224,0,0,0-.439-.059,2.188,2.188,0,0,0-.194,1.005,1.7,1.7,0,0,0,.332.925,2.992,2.992,0,0,0,.814.635l1.052.666c.08-.19.16-.382.242-.572a7.452,7.452,0,0,0-1.736-.269,2.062,2.062,0,0,0-1.459.267,2.83,2.83,0,0,0-.619,1.34,6.335,6.335,0,0,0-.211,1.642l.546-.074c-.146-.968.31-2.155-.3-3.026-.322-.458-.952-.352-1.442-.339a8.442,8.442,0,0,0-1.768.167l.2.478a1.479,1.479,0,0,1,.379-.1,4.233,4.233,0,0,0,.426-.181l.772-.334a1.707,1.707,0,0,0,1.067-.991c.341-1.036-.464-1.906-1.172-2.535l-.4.519q.6.344,1.2.689a2.148,2.148,0,0,0,1.155.386c.912-.047,1.393-.846,2.053-1.348l-.517-.4a12.63,12.63,0,0,0-.514,2.875.29.29,0,0,0,.568.077" transform="translate(-11.439 -1.833)" fill="#180659"/>
    <path id="Path_3126" data-name="Path 3126" d="M1066.726,185.6a1.6,1.6,0,0,0,0-.748,3.811,3.811,0,0,0-.206-.649l-.568.331c.038.038.074.077.108.118l.025.03c-.03-.037.017.023.023.031.071.1.141.192.216.287a1.321,1.321,0,0,0,.519.419,1.113,1.113,0,0,0,.891-.049,2.125,2.125,0,0,0,.632-.494l-.5-.388-.185.433a2.938,2.938,0,0,0-.209.462.3.3,0,0,0,.133.326.289.289,0,0,0,.351-.045,2.883,2.883,0,0,0,.241-.442l.223-.411a.32.32,0,0,0-.5-.389c-.044.037-.086.072-.131.107l-.013.01-.067.049a1.8,1.8,0,0,1-.267.172c-.091.047.028-.007-.027.012-.027.009-.053.018-.081.025-.008,0-.093.018-.053.013s-.056,0-.055,0l-.066,0c.06.006-.011,0-.024-.009-.037-.01-.052-.018-.008,0a.445.445,0,0,1-.057-.029c-.015-.008-.029-.018-.042-.027-.035-.021-.035-.028,0,0-.033-.029-.064-.057-.094-.089s-.053-.059-.078-.088l-.042-.053c.028.037.017.022,0-.007a3.808,3.808,0,0,0-.367-.458.342.342,0,0,0-.447-.027.346.346,0,0,0-.088.439c.011.022.021.044.031.065l.026.058c-.008-.018.015.037.017.044s.017.045.026.066c.038.1.07.2.1.308a4.62,4.62,0,0,0,.2.593.231.231,0,0,0,.213.162.224.224,0,0,0,.212-.162" transform="translate(-10.275 -1.584)" fill="#180659"/>
    <path id="Path_3127" data-name="Path 3127" d="M1066.1,184.814c.019.157.071.3.1.455.024.105-.042.136-.135.183a3.872,3.872,0,0,1-1.049.265c-.336.059-.275.528,0,.621a3.473,3.473,0,0,0,.672.152c.135.018.355-.012.463.083a.861.861,0,0,1,.172.369c.073.215.147.429.219.644.084.246.483.362.612.08a5.167,5.167,0,0,0,.236-.595c.059-.184.081-.386.149-.566l-.085.147-.053.03.107.006.142.008.355.02.673.037a.327.327,0,0,0,.279-.487,1.266,1.266,0,0,0-.538-.487c-.166-.091-.455-.153-.437-.395a.275.275,0,0,0-.272-.272.278.278,0,0,0-.271.272.875.875,0,0,0,.39.746c.177.158.456.246.568.463l.28-.488-.78-.053a1.575,1.575,0,0,0-.769.018c-.239.12-.256.375-.317.6a3.912,3.912,0,0,1-.234.652l.612.08c-.084-.252-.165-.5-.255-.755a1.423,1.423,0,0,0-.307-.556.962.962,0,0,0-.676-.25,3.133,3.133,0,0,1-.765-.129v.621a3,3,0,0,0,1.364-.483.655.655,0,0,0,.109-.871,2.184,2.184,0,0,1-.212-.265c-.081-.161-.375-.093-.353.1" transform="translate(-10.265 -1.59)" fill="#180659"/>
    <path id="Path_3128" data-name="Path 3128" d="M1047.294,199.5a.874.874,0,0,0-.46,1.133,1.57,1.57,0,0,0,1.174.875.9.9,0,0,0,.455,0,.735.735,0,0,0,.384-.311,2.248,2.248,0,0,0,.161-.3,2.385,2.385,0,0,0,.173-.442,1.179,1.179,0,0,0-.081-.848.941.941,0,0,0-.677-.463,2.066,2.066,0,0,0-1.04-.012c-.313.108-.67.391-.584.762a.266.266,0,0,0,.442.117.608.608,0,0,0,.11-.136c.027-.048.008-.014,0,0a.535.535,0,0,1,.046-.049.527.527,0,0,1,.049-.046c-.012.01-.045.028,0,0,.02-.012.039-.024.059-.034a.25.25,0,0,1,.037-.018c-.028.012-.031.014-.01.006.043-.008.083-.025.127-.032-.042.006.031,0,.04,0,.03,0,.059,0,.089,0a1.429,1.429,0,0,1,.159.01l.041,0,.106.016a2.278,2.278,0,0,1,.282.052l.059.019c-.055-.02.036.02.038.021s.051.039.006,0c.021.018.037.038.056.056-.036-.034-.01-.016,0,0l.04.069c.008.016.013.051,0,0,.005.018.012.035.017.053s.009.045.015.066c.014.047,0-.071,0,.013a1.26,1.26,0,0,1,0,.136.643.643,0,0,1-.023.113,1.443,1.443,0,0,1-.043.142,2.6,2.6,0,0,1-.115.265c-.019.039-.038.078-.058.116l-.037.061c-.029.045.032-.057-.015.018,0,.006-.041.039,0,.009,0,0-.066.032-.041.024s-.061,0-.007,0a.585.585,0,0,1-.093,0l-.016,0-.071-.015c-.042-.01-.082-.02-.123-.032s-.091-.029-.135-.045l-.052-.021c.043.018-.037-.019-.037-.019-.042-.021-.083-.044-.123-.068-.013-.008-.087-.059-.057-.037a1.014,1.014,0,0,1-.1-.092c-.013-.013-.025-.027-.037-.041-.038-.039,0,.01-.026-.032-.015-.023-.03-.045-.042-.067s-.036-.072-.014-.021a1.037,1.037,0,0,1-.036-.112c-.005-.019-.009-.038-.015-.057l-.007-.035c0,.025,0,.029,0,.01a.942.942,0,0,1,0-.13c0-.015,0-.031,0-.046-.007.048.005-.018.007-.028a.826.826,0,0,1,.037-.13c0,.01-.013.027.006-.01.011-.019.022-.039.035-.057a.5.5,0,0,1,.059-.062.175.175,0,0,0,.07-.214.171.171,0,0,0-.2-.1" transform="translate(-10.091 -1.714)" fill="#180659"/>
    <path id="Path_3129" data-name="Path 3129" d="M1034.082,173.066a3.958,3.958,0,0,0-2.24,2.262,4.476,4.476,0,0,0-.177,3.752,4.871,4.871,0,0,0,5.851,2.308,5.676,5.676,0,0,0,3.988-5.295,4.58,4.58,0,0,0-4.124-4.128,5.217,5.217,0,0,0-3.366.855,6.692,6.692,0,0,0-1.376,1.175,3.809,3.809,0,0,0-.967,1.636c-.068.3.317.577.546.318.317-.357.569-.761.872-1.13a6.153,6.153,0,0,1,1-.977,4.77,4.77,0,0,1,2.432-1.008,3.862,3.862,0,0,1,3.971,2.489c.617,1.944-.769,3.984-2.43,4.892a4.263,4.263,0,0,1-5.2-.764,3.411,3.411,0,0,1-.577-3.418,5.361,5.361,0,0,1,.772-1.493,3.116,3.116,0,0,1,1.2-1.064c.235-.1.066-.48-.172-.409" transform="translate(-9.942 -1.48)" fill="#180659"/>
    <path id="Path_3130" data-name="Path 3130" d="M1032.632,174.939a1.547,1.547,0,0,0-.74,1.181.476.476,0,0,0,.223.517.742.742,0,0,0,.673-.054,8.193,8.193,0,0,0,2.65-2.077,3.537,3.537,0,0,0,.545-.735c.112-.238.019-.591.2-.785.145-.154-.067-.352-.226-.226a.821.821,0,0,0-.217.622,1.509,1.509,0,0,1-.45.787,8.829,8.829,0,0,1-1.236,1.221,6.887,6.887,0,0,1-1.482.961c-.165.072-.414.1-.412-.153a1.335,1.335,0,0,1,.076-.382,2.433,2.433,0,0,1,.469-.782.061.061,0,0,0-.073-.1" transform="translate(-9.948 -1.487)" fill="#180659"/>
    <path id="Path_3131" data-name="Path 3131" d="M1037.454,172.618a.921.921,0,0,1,.023.563,1.468,1.468,0,0,1-.3.481,4.556,4.556,0,0,0-.643.868,4.123,4.123,0,0,1-.273.5,2.188,2.188,0,0,1-.392.391,5.616,5.616,0,0,0-.715.749,4.839,4.839,0,0,1-1.388,1.379,3.162,3.162,0,0,1-1.167.292c-.23.023-.734-.039-.667.326a.138.138,0,0,0,.23.06c.027-.032.2-.027.245-.031.1-.009.206-.018.309-.03a4.952,4.952,0,0,0,.576-.094,2.594,2.594,0,0,0,.993-.463,11.021,11.021,0,0,0,1.378-1.535c.253-.282.577-.5.807-.8s.333-.663.55-.967a4.916,4.916,0,0,0,.685-.927.8.8,0,0,0-.073-.873.109.109,0,0,0-.181.106" transform="translate(-9.948 -1.485)" fill="#180659"/>
    <path id="Path_3132" data-name="Path 3132" d="M1032.135,178.82c.14.645.841.762,1.394.648.393-.081.767-.205,1.166-.263a2.4,2.4,0,0,0,1.035-.38c.624-.423.971-1.111,1.569-1.555a9.011,9.011,0,0,0,.877-.67,4.077,4.077,0,0,0,.63-.768,4.187,4.187,0,0,0,.629-2.177.143.143,0,0,0-.286,0,3.878,3.878,0,0,1-1.7,3.117,5.473,5.473,0,0,0-.76.586c-.232.231-.419.5-.645.738a2.724,2.724,0,0,1-.76.584,3.763,3.763,0,0,1-1.018.237,8.937,8.937,0,0,1-1.126.271.79.79,0,0,1-.82-.418.1.1,0,0,0-.186.052" transform="translate(-9.95 -1.494)" fill="#180659"/>
    <path id="Path_3133" data-name="Path 3133" d="M1034.228,180.812c.712.288,1.536-.213,2.1-.613.32-.227.626-.475.953-.693s.69-.4,1.006-.639a5.647,5.647,0,0,0,.848-.864c.249-.3.492-.6.715-.911a4.3,4.3,0,0,0,.85-2.076c.018-.191-.279-.189-.3,0a4.1,4.1,0,0,1-.857,1.984,6.827,6.827,0,0,1-1.505,1.641c-.3.208-.625.375-.929.575-.287.189-.557.405-.833.61a5.1,5.1,0,0,1-.864.543,2.7,2.7,0,0,1-1.156.236.107.107,0,0,0-.028.208" transform="translate(-9.97 -1.506)" fill="#180659"/>
    <path id="Path_3134" data-name="Path 3134" d="M1149.694,156.306c-.23.4-.415.833-.65,1.235s-.485.8-.759,1.175c-.2.28.221.551.453.349l.9-.781a5.508,5.508,0,0,1,.821-.685c.31-.173.659.1.931.246.36.188.725.371,1.088.554.279.141.607-.223.351-.456q-.471-.43-.941-.863c-.237-.219-.612-.456-.576-.822a3,3,0,0,1,.444-.986c.191-.379.376-.746.6-1.106.127-.2-.153-.4-.32-.247-.534.48-1.044.985-1.558,1.487-.141.137-.191.225-.386.135-.156-.07-.306-.157-.458-.235-.323-.166-.644-.334-.968-.5a.273.273,0,0,0-.33.427l1.418,1.437c.242.245.618-.132.377-.378q-.706-.721-1.41-1.444l-.33.428c.387.2.779.388,1.169.58.314.156.658.368,1,.156a2.461,2.461,0,0,0,.43-.408l.429-.44c.308-.315.611-.633.905-.96l-.32-.247c-.249.406-.539.785-.785,1.192a2.435,2.435,0,0,0-.469,1.177,1.364,1.364,0,0,0,.581,1.008q.547.506,1.088,1.016c.118-.152.235-.3.352-.456-.412-.216-.823-.431-1.238-.641a1.458,1.458,0,0,0-1.173-.242,3.488,3.488,0,0,0-.967.725l-1.061.919.453.349a11.034,11.034,0,0,0,.771-1.213,6.918,6.918,0,0,0,.587-1.3.246.246,0,0,0-.448-.189" transform="translate(-11.07 -1.325)" fill="#180659"/>
    <path id="Path_3135" data-name="Path 3135" d="M1151.362,184.933a1.21,1.21,0,0,0-1.159,1.15,1.552,1.552,0,0,0,.671,1.382,1.466,1.466,0,0,0,2.168-1.586,1.148,1.148,0,0,0-.747-.706,2.811,2.811,0,0,0-.28-.093c-.095-.028-.182-.068-.281-.09a1.718,1.718,0,0,0-.639-.045.216.216,0,0,0-.156.239.223.223,0,0,0,.214.188,4.216,4.216,0,0,1,.865.1.955.955,0,0,1,.574.384.914.914,0,0,1-.34,1.061,1.1,1.1,0,0,1-.491.217.577.577,0,0,1-.109.01.873.873,0,0,1-.153-.006c.014,0,.036.006-.018,0-.029-.006-.057-.014-.086-.022a.426.426,0,0,1-.093-.036.968.968,0,0,1-.38-.338,1.279,1.279,0,0,1-.065-.112c-.011-.022-.022-.043-.032-.064.016.035,0-.009-.006-.014a1.283,1.283,0,0,1-.044-.137c-.007-.028-.013-.056-.019-.084-.011-.056,0,.023-.007-.04a.767.767,0,0,1,.133-.56.86.86,0,0,1,.539-.351c.252-.045.185-.436-.059-.438" transform="translate(-11.088 -1.592)" fill="#180659"/>
    <path id="Path_3136" data-name="Path 3136" d="M1170.877,205.118a.893.893,0,0,0-.222.218,1.2,1.2,0,0,0-.137.283.838.838,0,0,0,.052.647,1.056,1.056,0,0,0,1.13.531,1.2,1.2,0,0,0,.911-.869,1,1,0,0,0-.075-.75,1.045,1.045,0,0,0-.533-.445,1.141,1.141,0,0,0-.736-.029,1.315,1.315,0,0,0-.707.453.261.261,0,0,0,.041.314.268.268,0,0,0,.314.041,1.094,1.094,0,0,0,.139-.1c-.035.028.01-.007.019-.013l.054-.037a1.024,1.024,0,0,1,.1-.059c.019-.011.038-.02.057-.03.072-.036-.046.014.031-.013a1.238,1.238,0,0,1,.122-.038l.051-.012c.076-.018-.032,0,.016,0a1.137,1.137,0,0,1,.116-.006l.068,0c-.048,0-.006,0,.019,0a.867.867,0,0,1,.1.028c.014,0,.061.025.011,0l.041.02a.9.9,0,0,1,.1.059c.042.029.007.006,0,0,.019.018.039.036.057.055l.037.042c-.033-.04-.008-.011,0,0l.034.057c.007.011.019.047,0,0a.585.585,0,0,1,.034.121c0-.014,0-.037,0,.015,0,.03,0,.058,0,.087,0,.08.012-.035-.006.044l-.012.052a.917.917,0,0,1-.037.112c0-.011.022-.045,0,0l-.027.053a.981.981,0,0,1-.071.108c.031-.041,0,0-.01.01l-.041.043-.034.032s-.057.048-.028.024-.032.022-.03.021l-.04.025-.061.033c-.048.026.034-.008-.024.009-.033.01-.065.021-.1.028-.015,0-.064.008-.007,0l-.045,0a.842.842,0,0,1-.112,0c-.052,0-.007,0,0,0l-.077-.016c-.032-.009-.064-.02-.1-.032.057.022-.011-.007-.019-.011l-.04-.022-.038-.024c-.058-.035.033.034-.018-.013-.027-.026-.053-.051-.078-.078-.006-.006-.047-.063-.016-.017-.012-.018-.025-.037-.036-.056l-.02-.039c-.026-.051.005.029-.007-.021-.006-.022-.013-.043-.018-.063s-.012-.075-.006-.021c-.006-.051-.009-.1-.014-.153.006.057,0-.016,0-.023s0-.068,0-.03a.516.516,0,0,1,.033-.114c.015-.036-.021.038.011-.022q.015-.028.033-.057a.513.513,0,0,1,.068-.077c.144-.138-.047-.4-.217-.282" transform="translate(-11.284 -1.762)" fill="#180659"/>
    <path id="Path_3137" data-name="Path 3137" d="M1170.646,169.977c-.073-1.1-1.594-1.174-2.39-.942a4.273,4.273,0,0,0-2.356,1.957,16.378,16.378,0,0,0-1.323,2.94c-.382,1.026-.73,2.065-1.1,3.1a19.855,19.855,0,0,1-1.525,3.4c-.153.264.173.652.448.448a16.294,16.294,0,0,0,2.3-2.2,22.225,22.225,0,0,1,2.291-2.262c.825-.683,1.694-1.314,2.494-2.028a5.5,5.5,0,0,0,1.837-2.475,2.02,2.02,0,0,0-1.1-2.462c-.351-.128-.6.46-.257.61a1.419,1.419,0,0,1,.639,1.839,5.647,5.647,0,0,1-1.786,2.157c-.75.651-1.547,1.246-2.3,1.887a22.322,22.322,0,0,0-2.1,2.081,16.821,16.821,0,0,1-2.347,2.29l.447.447a31.8,31.8,0,0,0,2.363-5.6c.331-.937.67-1.875,1.085-2.778a5.342,5.342,0,0,1,1.635-2.246,2.619,2.619,0,0,1,1.4-.5,1.407,1.407,0,0,1,1.217.47c.121.165.443.135.426-.115" transform="translate(-11.201 -1.454)" fill="#180659"/>
    <path id="Path_3138" data-name="Path 3138" d="M1169.054,165.992a2.7,2.7,0,0,0,.613,1.4,6.234,6.234,0,0,0,1.131,1.159,5.9,5.9,0,0,0,2.982,1.252c.439.048.54-.691.1-.773a6.418,6.418,0,0,1-2.61-1.1,5.775,5.775,0,0,1-1.02-.953c-.311-.365-.562-.771-.9-1.112a.178.178,0,0,0-.3.125" transform="translate(-11.27 -1.428)" fill="#180659"/>
    <path id="Path_3139" data-name="Path 3139" d="M1169.316,166.056a4.428,4.428,0,0,0,.294-.346c.1-.151.174-.327.263-.486.167-.3.331-.6.5-.894.338-.581.7-1.147,1.082-1.7.767-1.121,1.587-2.2,2.427-3.267a30.177,30.177,0,0,1,2.712-3.177,15.794,15.794,0,0,1,3.07-2.255,29.7,29.7,0,0,1,3.917-1.834l-.468-.358a13.043,13.043,0,0,1-.7,3.958,18.831,18.831,0,0,1-1.631,3.414c-.646,1.1-1.345,2.172-2.036,3.246s-1.406,2.163-2.158,3.213a35.627,35.627,0,0,1-2.765,3.43c-.336.364.209.911.545.545a47.279,47.279,0,0,0,4.735-6.419,38.436,38.436,0,0,0,3.858-6.869,13.64,13.64,0,0,0,.892-4.518.373.373,0,0,0-.469-.358,22.661,22.661,0,0,0-6.877,3.874,23.318,23.318,0,0,0-2.808,3.144c-.867,1.093-1.729,2.189-2.53,3.331-.447.636-.868,1.292-1.257,1.965-.2.341-.4.686-.563,1.043q-.119.251-.23.506a2.347,2.347,0,0,0-.156.611c-.028.181.2.383.35.2" transform="translate(-11.269 -1.303)" fill="#180659"/>
    <path id="Path_3140" data-name="Path 3140" d="M1169.408,165.615a1.244,1.244,0,0,0-.854-.353,6.753,6.753,0,0,0-.97-.067,4.285,4.285,0,0,0-1.8.437c-.988.469-1.805,1.251-2.839,1.631l.506.288c-.036-.146.134-.329.208-.44.124-.183.252-.364.381-.543q.358-.5.734-.982c.531-.684,1.086-1.352,1.668-2a3.04,3.04,0,0,1,.848-.723,2.185,2.185,0,0,1,1.036-.189,22.007,22.007,0,0,0,2.38.144.408.408,0,0,0,.4-.4.4.4,0,0,0-.4-.4c-1.335.122-2.782-.536-4.008.264a7.516,7.516,0,0,0-1.493,1.506q-.731.861-1.41,1.766c-.257.342-.507.691-.758,1.04a1.428,1.428,0,0,0-.38,1.167.415.415,0,0,0,.507.288,20.312,20.312,0,0,0,2.825-1.6,3.89,3.89,0,0,1,1.556-.445,6.455,6.455,0,0,1,.929.007,1.447,1.447,0,0,0,.9-.114.187.187,0,0,0,.038-.289" transform="translate(-11.208 -1.394)" fill="#180659"/>
    <path id="Path_3141" data-name="Path 3141" d="M1174.113,169.44c.186.566.538,1.059.733,1.624a3.207,3.207,0,0,1,.052,1.83,25.874,25.874,0,0,1-1.277,3.754.365.365,0,0,0,.167.41.381.381,0,0,0,.44-.056,14.971,14.971,0,0,0,3.051-3.635,7.658,7.658,0,0,0,1.042-2.14,4.206,4.206,0,0,0-.05-2.353,9.789,9.789,0,0,0-1.232-2.41c-.252-.387-.867-.035-.623.365.75,1.227,1.586,2.555,1.236,4.056a6.427,6.427,0,0,1-.919,1.983c-.4.62-.819,1.229-1.27,1.81a10.466,10.466,0,0,1-1.748,1.811l.606.353a21.264,21.264,0,0,0,1.324-4.006,3.705,3.705,0,0,0-.156-1.989,4.529,4.529,0,0,0-1-1.629.23.23,0,0,0-.381.222" transform="translate(-11.314 -1.432)" fill="#180659"/>
    <path id="Path_3142" data-name="Path 3142" d="M1176.105,159.767a1.25,1.25,0,0,0-1.307.682,1.386,1.386,0,0,0,1.7,1.992,1.537,1.537,0,0,0,.708-.575,1.212,1.212,0,0,0,.267-.911,1.6,1.6,0,0,0-.511-.811,1.167,1.167,0,0,0-.805-.438.255.255,0,0,0-.249.22.252.252,0,0,0,.181.278.668.668,0,0,1,.4.3,2.267,2.267,0,0,1,.154.21,1.352,1.352,0,0,1,.071.123.607.607,0,0,1,.031.063c-.02-.049.014.049.014.049.006.022.012.044.016.065,0-.016,0-.062,0,.007s0,.021,0,0c-.011.184-.018.11-.009.072a.661.661,0,0,1-.108.253c-.023.04-.049.077-.073.115-.058.088.028-.027-.014.02-.016.016-.03.035-.045.051-.031.034-.063.065-.1.1-.013.012-.072.056-.016.015a.767.767,0,0,1-.069.047l-.057.033c-.01,0-.072.035-.03.017s-.05.016-.047.016l-.064.018-.064.014c-.019,0-.067,0,0,0-.055,0-.109.007-.164,0l-.065-.006c.017,0,.067.014,0,0-.043-.011-.085-.022-.127-.035-.065-.021-.019-.008,0,0l-.058-.029-.057-.034c-.02-.013-.073-.058-.028-.018-.031-.028-.062-.056-.09-.085l-.041-.048c.044.053,0,0-.01-.015-.022-.035-.044-.07-.063-.108,0-.008-.034-.066-.016-.028s-.018-.05-.02-.06a.869.869,0,0,1-.033-.121c0-.01-.01-.074-.006-.031s0-.05,0-.048c0-.042,0-.083,0-.125,0,.018-.014.067,0-.009.008-.038.017-.074.028-.11.094-.318.327-.766.732-.764a.177.177,0,0,0,.047-.346" transform="translate(-11.324 -1.375)" fill="#180659"/>
    <path id="Path_3143" data-name="Path 3143" d="M1171.037,162.784a8.325,8.325,0,0,0,1.073,1.282,10.081,10.081,0,0,0,1.219,1.143,8,8,0,0,0,1.428.86c.252.122.5.244.763.348s.594.207.827-.022a.335.335,0,0,0,0-.464c-.162-.177-.453-.172-.669-.268-.242-.106-.481-.218-.719-.333a7.108,7.108,0,0,1-1.3-.784,12.74,12.74,0,0,1-1.115-1.018,8.64,8.64,0,0,0-1.167-1.079c-.206-.142-.458.133-.335.335" transform="translate(-11.289 -1.398)" fill="#180659"/>
    <path id="Path_3144" data-name="Path 3144" d="M1170.845,163.5l.01-.027-.152.153c-.115-.056-.157-.05-.129.017.009.032.018.062.028.094a1.791,1.791,0,0,0,.072.2,2.794,2.794,0,0,0,.164.327,4.451,4.451,0,0,0,.484.631,6.509,6.509,0,0,0,1.158,1.012,9.067,9.067,0,0,0,2.831,1.315.425.425,0,0,0,.5-.246.42.42,0,0,0-.173-.53,12.311,12.311,0,0,1-4.486-3.551.4.4,0,0,0-.67.391,6.549,6.549,0,0,0,2.584,2.877,9.093,9.093,0,0,0,1.849,1.085,1.008,1.008,0,0,0,.541.1.762.762,0,0,0,.47-.392c.177-.254.486-.753.042-.957a.385.385,0,0,0-.557.227l-.005.019c-.117.4.507.688.688.291l.009-.019-.518.136.015.01-.136-.136-.02-.028V166.3l-.013.034c.034-.058.066-.115.1-.172-.067.079-.135.16-.2.242-.039.05-.091.16-.141.19l.208-.056a.9.9,0,0,1-.3-.1c-.111-.046-.22-.1-.326-.155-.233-.122-.456-.26-.675-.4-.4-.26-.8-.524-1.186-.812a4.572,4.572,0,0,1-1.658-1.992l-.669.39a14.141,14.141,0,0,0,4.624,3.718l.328-.777a9.716,9.716,0,0,1-2.993-1.465,7.722,7.722,0,0,1-1.141-1.149,2.5,2.5,0,0,0-.51-.554c-.181-.109-.481-.048-.464.208a.213.213,0,0,0,.416.057" transform="translate(-11.284 -1.401)" fill="#180659"/>
    <path id="Path_3145" data-name="Path 3145" d="M1175.611,159.98a1.566,1.566,0,0,0-.162,1.056.626.626,0,0,0,.411.449.685.685,0,0,0,.515-.052.614.614,0,0,0,.319-.41.651.651,0,0,0-.187-.595.673.673,0,0,0-.614-.179.832.832,0,0,0-.473.371,1.041,1.041,0,0,0-.1,1.069.875.875,0,0,0,1.413.1,1.075,1.075,0,0,0,.233-.574.882.882,0,0,0-.567-.953.842.842,0,0,0-.764.2,1.382,1.382,0,0,0-.215.246,1.134,1.134,0,0,0-.134.206.64.64,0,0,0-.047.49.676.676,0,0,0,1.19.166.374.374,0,0,0,.019-.341.4.4,0,0,0-.249-.221,1.2,1.2,0,0,0-.344-.033l.117.016a.351.351,0,0,1-.078-.021l.105.045c-.042-.021-.061-.052.02.025-.053-.05.057.092.021.027l.045.105a.245.245,0,0,1-.016-.057c.005.04.011.078.016.117a.159.159,0,0,1,0-.049c-.006.039-.011.077-.016.117a.2.2,0,0,1,.014-.048l-.045.105a.954.954,0,0,1,.075-.129c.012-.017.023-.034.035-.05.055-.078-.039.044-.01.011a1.033,1.033,0,0,1,.09-.1c.055-.053-.083.044-.012.012.021-.01.041-.022.061-.031l-.1.044a.526.526,0,0,1,.088-.025l-.116.016a.457.457,0,0,1,.09,0l-.115-.015a.327.327,0,0,1,.085.023l-.1-.044.039.021s-.086-.067-.041-.027-.028-.038-.028-.038.023.038.027.046c.042.079-.03-.089,0-.006a.689.689,0,0,1,.021.09c0-.039-.011-.076-.016-.115a.712.712,0,0,1,0,.184c.005-.038.011-.075.016-.114-.005.028-.01.055-.017.08l-.012.039c-.016.042-.009.026.02-.046-.01.017-.018.036-.029.054s-.015.022-.023.033c.048-.058.056-.072.029-.04-.01.01-.019.02-.03.029-.034.029-.02.019.042-.031a.381.381,0,0,0-.048.029c-.06.035.113-.037.014-.009a.491.491,0,0,1-.074.015l.113-.015a.647.647,0,0,1-.132,0l.113.015a.782.782,0,0,1-.117-.032c-.034-.012.06.022.058.024l-.032-.018c-.013-.007-.045-.033.012.011s.018.016.008,0c-.053-.061.042.075.007.013a.157.157,0,0,0-.016-.028c-.023-.034.026.047.02.048s-.026-.125-.013-.029c.01.073,0-.014,0-.034s0-.022,0-.033c0-.052-.018.09,0,.04.006-.022.01-.044.016-.065a.375.375,0,0,0,.026-.076s-.037.078-.017.043c.008-.013.014-.028.021-.041a.78.78,0,0,1,.041-.068c.006-.01.013-.019.019-.028.022-.035-.029.036-.028.035a.416.416,0,0,0,.055-.057c.027-.03-.038.029-.036.028.045-.029-.025.007-.038.012.039-.014.023.016-.05,0,.008,0,.018,0,.027,0,.035,0-.058-.009-.058-.009l.027.007c.034.013-.052-.021-.051-.022s.032.015.033.019-.066-.064-.042-.033a.167.167,0,0,0,.027.027c.035.029-.052-.071-.028-.034l.014.024c0,.006-.033-.086-.023-.05s-.011-.059-.006-.058,0,.038,0,.037.016-.091.007-.058.022-.054.024-.053l-.016.028s.068-.076.029-.039c-.011.01-.035.028.014-.008s0-.007-.01,0c-.034.025.084-.027.043-.018l-.024.007c-.013,0-.051.009.017,0s.022,0,.008,0c-.078-.009.079.023.025,0s.077.042.027.013c-.024-.014-.034-.036.034.028-.009-.009-.031-.038,0,0s-.014-.029-.022-.042c-.03-.053.009.01.008.019a.225.225,0,0,0-.015-.044c-.01-.033-.019-.065-.026-.1l-.007-.038c0-.008-.011-.063,0-.022s0,0,0-.009,0-.044,0-.065a1.782,1.782,0,0,1,.006-.194s-.008.045,0,.011l.009-.052c.008-.039.018-.076.028-.114a.262.262,0,0,0-.477-.2" transform="translate(-11.329 -1.376)" fill="#180659"/>
    <path id="Path_3146" data-name="Path 3146" d="M1178.765,154.2a4.288,4.288,0,0,0,1.4,1.8,3.3,3.3,0,0,0,2.049,1.024.4.4,0,0,0,.2-.736,16.077,16.077,0,0,1-2.824-2.3l-.51.511a10.369,10.369,0,0,0,1.455,1.125.371.371,0,0,0,.539-.414,3.758,3.758,0,0,0-.854-1.763.36.36,0,0,0-.608.253,3.131,3.131,0,0,0,.729,1.739.384.384,0,0,0,.651-.27,4.829,4.829,0,0,0-.095-.817c-.055-.26-.159-.5-.238-.758a.355.355,0,0,0-.693.094c-.044.5.171,1.835.939,1.64.379-.1.426-.512.411-.838a4.038,4.038,0,0,0-.189-1.092.335.335,0,0,0-.655.089,4.9,4.9,0,0,0,.029,1.256c.057.364.133.945.6,1,.537.057.555-.53.576-.907.024-.438.018-.876,0-1.315a.375.375,0,0,0-.75,0,10.011,10.011,0,0,0,.021,1.281.965.965,0,0,0,.469.865.41.41,0,0,0,.589-.24,4.067,4.067,0,0,0,.19-2.095.4.4,0,0,0-.716-.093,4.058,4.058,0,0,0-.347,1.828,1.522,1.522,0,0,0,.241.914.615.615,0,0,0,.89.025,2.989,2.989,0,0,0,.765-1.5,6.15,6.15,0,0,0,.327-1.977.41.41,0,0,0-.689-.287c-.538.442-1.083.877-1.61,1.331l.609.47c.272-.362.513-.745.8-1.093l-.572-.237a15.452,15.452,0,0,1-.469,3.278c-.07.272.194.6.489.489a1.908,1.908,0,0,0,1.034-1.621.378.378,0,0,0-.728-.2l-.039.106a.377.377,0,0,0,.727.2c.013-.036.026-.071.04-.106l-.728-.2c-.064.343-.146.9-.518,1.056l.489.489a13.8,13.8,0,0,0,.372-3.489.338.338,0,0,0-.624-.17c-.274.363-.6.682-.887,1.029a.393.393,0,0,0-.03.51.383.383,0,0,0,.5.1c.578-.446,1.142-.911,1.711-1.369l-.69-.286a4.474,4.474,0,0,1-.185,1.353,5.85,5.85,0,0,1-.384,1.173,1.88,1.88,0,0,1-.15.249c-.018.024-.042.046-.059.07l-.047.048c.216.147.3.165.262.055a1.34,1.34,0,0,0-.052-.26,3.015,3.015,0,0,1-.021-.326,2.967,2.967,0,0,1,.243-1.251l-.716-.094a3.285,3.285,0,0,1-.208,1.673l.589-.24c-.119-.054-.111-.35-.124-.491a6.356,6.356,0,0,1-.021-.962h-.75q0,.439-.016.876c-.006.133-.011.266-.017.4,0,.079-.008.159-.012.238,0,.027,0,.054-.005.079-.017.122,0,.108.044-.042l.172-.1-.044.014h.207c.09.111.12.129.089.053-.012-.037-.024-.073-.035-.111-.018-.061-.035-.124-.049-.187-.034-.137-.062-.277-.082-.416a4.556,4.556,0,0,1-.036-.831l-.655.088a5,5,0,0,1,.062.641c0,.1,0,.208-.005.311a.6.6,0,0,0-.01.157c.017.06-.039.034.031-.032l.173-.1.008,0,.2.055c-.1-.051-.171-.285-.2-.39a1.582,1.582,0,0,1-.067-.527l-.693.094a5.217,5.217,0,0,1,.252,1.387l.651-.27a2,2,0,0,1-.557-1.2l-.664.179a3.821,3.821,0,0,1,.705,1.525l.539-.414a7.452,7.452,0,0,1-1.314-1,.361.361,0,0,0-.51.511,16.41,16.41,0,0,0,2.935,2.476c.067-.246.134-.491.2-.737a2.813,2.813,0,0,1-1.609-.868,12.391,12.391,0,0,1-1.477-1.37.216.216,0,0,0-.358.209" transform="translate(-11.364 -1.31)" fill="#180659"/>
    <path id="Path_3147" data-name="Path 3147" d="M1069.352,148.839c3.458-2.047,6.341-5.336,8.8-8.48.348-.445-.248-1.084-.637-.637-1.308,1.5-2.5,3.085-3.87,4.535a34.539,34.539,0,0,1-4.591,4.064c-.3.225-.039.722.3.519" transform="translate(-10.305 -1.202)" fill="#180659"/>
    <path id="Path_3148" data-name="Path 3148" d="M1087.255,149.558a10,10,0,0,1-.868,3.006c-.378.8-.87,1.538-1.211,2.353a7.333,7.333,0,0,0-.067,5.057.642.642,0,0,0,.6.461,1.357,1.357,0,0,0,.167-.023.633.633,0,0,0,.459-.6c-.027-.88-.259-1.738-.258-2.624a5.723,5.723,0,0,1,.8-2.768,8.813,8.813,0,0,0,1.241-4.857.435.435,0,0,0-.87,0" transform="translate(-10.457 -1.284)" fill="#180659"/>
    <path id="Path_3149" data-name="Path 3149" d="M1086.423,162.918a1.655,1.655,0,0,0,.675,1,.545.545,0,0,0,.593-.043.524.524,0,0,0,.192-.562,1.237,1.237,0,0,0-.181-.326c-.035-.044-.028-.04,0,0-.022-.033-.045-.064-.065-.1-.034-.054-.059-.111-.091-.166s.025.08,0,0c-.011-.037-.026-.074-.038-.111a.563.563,0,1,0-1.086.3" transform="translate(-10.473 -1.396)" fill="#180659"/>
    <path id="Path_3150" data-name="Path 3150" d="M1089.677,173.161a5.6,5.6,0,0,0,.579-2.392l-1.161.314c.769,1.257,1.378,2.709,2.251,3.889.384.518,1.423.241,1.148-.484a20.663,20.663,0,0,0-2.323-4.035.628.628,0,0,0-1.161.315c-.02.725-.172,1.434-.2,2.156a.47.47,0,0,0,.87.236" transform="translate(-10.497 -1.465)" fill="#180659"/>
    <path id="Path_3151" data-name="Path 3151" d="M1091.947,176.265a6.191,6.191,0,0,0,.683-1.106,4.683,4.683,0,0,1,.835-.9.76.76,0,0,0,0-1.063.769.769,0,0,0-1.063,0,3.514,3.514,0,0,0-1.486,2.8c.068.478.733.568,1.031.273" transform="translate(-10.517 -1.489)" fill="#180659"/>
    <path id="Path_3152" data-name="Path 3152" d="M1092.916,170.322c.563-.655,1.071-1.354,1.65-2,.286-.317.582-.626.884-.928.151-.152.312-.294.455-.453a2.106,2.106,0,0,0,.253-.3,1.4,1.4,0,0,0,.111-.336.35.35,0,0,0-.424-.424,1.012,1.012,0,0,0-.357.09,2.446,2.446,0,0,0-.266.2,5.316,5.316,0,0,0-.521.48c-.313.307-.612.63-.9.96a12.291,12.291,0,0,0-1.6,2.162.459.459,0,0,0,.117.589.453.453,0,0,0,.6-.036" transform="translate(-10.529 -1.428)" fill="#180659"/>
    <path id="Path_3153" data-name="Path 3153" d="M1094.326,170.827c-.057.118-.113.234-.181.346s-.069.2-.181.262a.279.279,0,0,0,0,.478l.005,0a.35.35,0,0,0,.412-.054,11.268,11.268,0,0,0,.848-.943q.41-.468.85-.909c.294-.292.6-.579.9-.857.158-.143.319-.283.482-.418a1.3,1.3,0,0,0,.423-.557c.117-.3-.213-.5-.462-.463a1.271,1.271,0,0,0-.632.349c-.163.137-.324.276-.482.418q-.475.428-.907.9c-.281.305-.553.622-.81.948a5.448,5.448,0,0,0-.747,1.121.352.352,0,0,0,.053.412l.008.007.434-.335-.068-.129v.124a2.577,2.577,0,0,0,.126-.671c.007-.041-.052-.075-.073-.031" transform="translate(-10.545 -1.444)" fill="#180659"/>
    <path id="Path_3154" data-name="Path 3154" d="M1092.128,167.762c.463.732.962,1.43,1.5,2.112.256.327.515.646.791.957s.6.736,1.016.789c.154.02.259-.14.27-.27a1.154,1.154,0,0,0-.217-.592,5.242,5.242,0,0,0-.342-.49c-.264-.356-.539-.7-.825-1.038-.542-.641-1.109-1.251-1.712-1.837-.242-.235-.667.069-.477.369" transform="translate(-10.528 -1.44)" fill="#180659"/>
    <path id="Path_3155" data-name="Path 3155" d="M1093.567,166.278c.263.433.474.892.745,1.323.282.447.609.862.932,1.279.3.392.624.769.949,1.144a3.351,3.351,0,0,0,1.219,1.086.468.468,0,0,0,.571-.572,3.664,3.664,0,0,0-.92-1.268c-.334-.384-.66-.775-.99-1.161s-.63-.759-.965-1.122-.719-.707-1.043-1.093c-.233-.28-.683.08-.5.385" transform="translate(-10.542 -1.427)" fill="#180659"/>
    <path id="Path_3156" data-name="Path 3156" d="M1059.393,150.511c.211-.949.433-1.894.6-2.85a.571.571,0,0,0-.387-.683.562.562,0,0,0-.683.388,9.355,9.355,0,0,0-.255,3.107.583.583,0,0,0,.5.566.577.577,0,0,0,.632-.413c.252-.938.5-1.878.741-2.818l-1.123-.309-.488,2.1a1.562,1.562,0,0,0-.015.881.8.8,0,0,0,.941.546.568.568,0,0,0,.408-.408,22.445,22.445,0,0,0,.662-3.939h-1.172l.046,3.029a.591.591,0,0,0,1.156.157,31.7,31.7,0,0,0,1.014-3.765.606.606,0,0,0-.413-.728.6.6,0,0,0-.727.413,11.066,11.066,0,0,0-.385,4.19.626.626,0,0,0,.442.581.611.611,0,0,0,.679-.277,13.787,13.787,0,0,0,1.249-5.325.617.617,0,0,0-1.209-.164,15.682,15.682,0,0,0-.21,4.237.627.627,0,0,0,1.23.167,36.3,36.3,0,0,0,1.45-5.638.648.648,0,0,0-.44-.774.635.635,0,0,0-.773.439,13.022,13.022,0,0,0-.487,4.543.629.629,0,0,0,1.233.168q.844-2.561,1.69-5.122l-1.23-.167q-.279,2.241-.559,4.482a.624.624,0,0,0,1.163.315,21.855,21.855,0,0,0,2.659-6.917.644.644,0,0,0-.435-.765.636.636,0,0,0-.765.435,40.566,40.566,0,0,0-1.649,4.932.623.623,0,0,0,1.133.478,15.4,15.4,0,0,0,2.145-5.132.623.623,0,0,0-1.033-.6,9.907,9.907,0,0,0-2.42,3.031.617.617,0,1,0,1.065.623,14.962,14.962,0,0,1,2.463-2.969l-.938-.724a20.792,20.792,0,0,1-1.633,2.49.584.584,0,0,0,.916.708c.88-1.008,1.751-2.026,2.641-3.025.415-.465.821-.943,1.253-1.392a2.919,2.919,0,0,1,1.159-.826l-.579-1c-.689.783-1.393,1.555-2.064,2.354l.963.744a12.038,12.038,0,0,1,5.258-4.507l-.726-.943c-2.166,1.765-4.3,3.563-6.458,5.339l.8.8,2.993-3.131a.558.558,0,0,0-.789-.79,31.747,31.747,0,0,0-5.326,5.741c-.3.413.3,1.034.717.718.822-.629,1.651-1.248,2.478-1.87l-.714-.716q-1.729,2.885-3.736,5.588a.537.537,0,0,0,.192.73.545.545,0,0,0,.729-.191A38.9,38.9,0,0,1,1070.29,141l-.78-.78a66.281,66.281,0,0,1-4.786,5.366l.755.754c1.538-1.61,3.146-3.16,4.717-4.737l-.788-.79c-1.416,1.64-2.836,3.276-4.226,4.938a.571.571,0,0,0,0,.785.562.562,0,0,0,.784,0c1.248-1.3,2.545-2.547,3.82-3.816.608-.606,1.259-1.19,1.825-1.835a2.082,2.082,0,0,0,.571-2.324.619.619,0,0,0-.968-.125,27.116,27.116,0,0,1-3.4,3.636l.836.646a19.647,19.647,0,0,1,2.434-3.335l-.875-.676a13.036,13.036,0,0,1-2.293,2.419l.882.681a16.822,16.822,0,0,1,2.011-2.634.565.565,0,0,0-.8-.8q-1.423,1.12-2.832,2.259l.913.7a5.266,5.266,0,0,0,.882-1.81c.125-.462-.423-.955-.854-.657l-.693.479.8.8.367-.783a.6.6,0,0,0-.09-.7.59.59,0,0,0-.705-.091,2.655,2.655,0,0,0-.849.884c-.278.477.3,1.141.8.8a57.675,57.675,0,0,1,5.022-3.146l-.821-.822a17.721,17.721,0,0,0-1.594,2.931.616.616,0,0,0,.967.747,15.128,15.128,0,0,0,2.986-3.466l-1.15-.486c-.009.065-.028.127-.041.19s-.02.061.013-.016c-.014.03-.028.059-.042.087-.027.051-.059.1-.089.147-.081.136.044-.04-.037.054-.17.2-.354.38-.534.567a2.1,2.1,0,0,0-.734,1.571.644.644,0,0,0,1.085.451,18.781,18.781,0,0,0,2.468-2.883l-1.179-.5a7.051,7.051,0,0,1-.5,1.218,8.838,8.838,0,0,1-.747,1.2c-.082.111-.062.085-.152.2-.073.089-.148.177-.224.264-.151.174-.311.34-.476.5s-.355.33-.542.483c-.15.122-.3.232-.506.373a.665.665,0,0,0-.233.888.654.654,0,0,0,.887.233,9.492,9.492,0,0,0,3.736-5.016.642.642,0,0,0-.373-.761.653.653,0,0,0-.805.264,17.019,17.019,0,0,1-2.253,2.633l1.085.45a1.507,1.507,0,0,1,0-.189c-.007.17.007.016.019-.032.038-.151-.048.06.017-.039.035-.052.066-.107.1-.161.082-.132-.084.092.02-.027.045-.052.087-.1.133-.153.082-.089.167-.175.251-.263a2.667,2.667,0,0,0,.868-1.4.641.641,0,0,0-.365-.743.633.633,0,0,0-.785.258,14.206,14.206,0,0,1-2.77,3.231l1.029.6a16.872,16.872,0,0,1,1.505-2.8c.341-.518-.321-1.107-.822-.822-1.716.979-3.384,2.042-5,3.177l.8.8a1.384,1.384,0,0,1,.432-.466l-.8-.8-.369.782a.606.606,0,0,0,.091.706.584.584,0,0,0,.7.09l.693-.478-.854-.657a4.409,4.409,0,0,1-.765,1.532.575.575,0,0,0,.15.75.591.591,0,0,0,.763-.045c.94-.757,1.878-1.515,2.808-2.283l-.8-.8a22.347,22.347,0,0,0-2.183,2.866.559.559,0,0,0,.145.725.572.572,0,0,0,.737-.044,12.457,12.457,0,0,0,2.461-2.651c.359-.517-.462-1.157-.875-.676a25.6,25.6,0,0,0-2.565,3.586.534.534,0,0,0,.137.688.541.541,0,0,0,.7-.042,30.79,30.79,0,0,0,3.516-3.518l-.968-.125c-.023-.044-.023-.031,0,.039,0-.061-.005-.055,0,.022,0,.024-.027.186-.005.085a.848.848,0,0,1-.137.347,3.793,3.793,0,0,1-.6.723l-1.742,1.8c-1.151,1.186-2.285,2.393-3.459,3.555l.784.785c1.429-1.629,2.827-3.282,4.23-4.933a.573.573,0,0,0,0-.79.563.563,0,0,0-.788,0c-1.56,1.59-3.091,3.216-4.683,4.773-.492.481.263,1.236.755.754A57.022,57.022,0,0,0,1070.29,141a.569.569,0,0,0,0-.78.561.561,0,0,0-.78,0,40.49,40.49,0,0,0-5.461,5.9l.921.538q2-2.707,3.717-5.6a.533.533,0,0,0-.082-.633.522.522,0,0,0-.633-.081c-.825.624-1.649,1.25-2.48,1.867l.717.718a32.1,32.1,0,0,1,5.21-5.48l-.789-.79-3.006,3.118a.568.568,0,0,0,.8.8c2.164-1.769,4.348-3.513,6.5-5.293a.6.6,0,0,0,.047-.787.61.61,0,0,0-.773-.155,14.128,14.128,0,0,0-5.711,4.923c-.389.574.5,1.262.964.744.7-.777,1.361-1.584,2.038-2.377a.616.616,0,0,0,.093-.723.6.6,0,0,0-.672-.274,7,7,0,0,0-2.785,2.431c-.914,1.055-1.85,2.091-2.776,3.136l.825.826a21.906,21.906,0,0,0,1.748-2.6.6.6,0,0,0-.937-.724,16.225,16.225,0,0,0-2.684,3.191l1.065.623a9.07,9.07,0,0,1,2.23-2.779l-1.033-.6a14.356,14.356,0,0,1-2.024,4.835l1.133.479a40.714,40.714,0,0,1,1.653-4.932l-1.2-.33a20.8,20.8,0,0,1-2.537,6.617l1.163.315q.282-2.241.563-4.482a.618.618,0,0,0-.543-.616.631.631,0,0,0-.686.449q-.847,2.559-1.693,5.121l1.232.167a11.985,11.985,0,0,1,.446-4.207l-1.213-.335a37.657,37.657,0,0,1-1.444,5.64h1.207a14.609,14.609,0,0,1,.189-3.907h-1.231a12.243,12.243,0,0,1-1.057,4.716l1.121.3a10.177,10.177,0,0,1,.322-3.875l-1.14-.314a30.8,30.8,0,0,1-1.009,3.767l1.156.156q-.025-1.514-.05-3.029a.586.586,0,1,0-1.172,0,20.657,20.657,0,0,1-.617,3.628l.408-.408a.92.92,0,0,1,.481.225c-.029-.04-.007-.063,0,0,0-.017.01-.159,0-.077s.023-.083.026-.1l.165-.715.33-1.43a.582.582,0,1,0-1.123-.309c-.245.94-.49,1.879-.729,2.82l1.131.154a8.408,8.408,0,0,1,.174-2.812l-1.071-.3c-.163,1.005-.272,2.016-.392,3.029-.058.492.755.595.861.117" transform="translate(-10.205 -1.156)" fill="#180659"/>
    <path id="Path_3157" data-name="Path 3157" d="M1115.144,125.759a13.2,13.2,0,0,0,4.066-8.245,8.4,8.4,0,0,0-.364-3.684.852.852,0,0,1,.226-.854c2.17-1.794,2.818-4.744,2.9-7.439a26.675,26.675,0,0,0-2.1-10.654,29.461,29.461,0,0,0-2.965-5.6c-5.846-4.527-15.034-8.92-26.812-5.8-21.223,5.615-26.6,18.252-26.6,18.252-1.464,16.81,8.759,27.885,14.845,32.914,1.009.356,2.04.654,3.078.907.938.089,1.888.15,2.827.168a51.793,51.793,0,0,0,14.915-1.974c5.654-1.58,11.735-3.752,15.982-7.988" transform="translate(-10.251 -0.71)" fill="#180659"/>
    <path id="Path_3158" data-name="Path 3158" d="M1077.874,91.1c1.775,2.082-.042,6.552-4.06,9.984s-8.713,4.527-10.489,2.445.044-6.553,4.061-9.984,8.714-4.527,10.489-2.445" transform="translate(-10.244 -0.775)" fill="#180659"/>
    <path id="Path_3159" data-name="Path 3159" d="M1101.7,90.248a.487.487,0,0,0-.04.206.725.725,0,0,0,.089.342c.022.051.045.1.066.15a.654.654,0,0,0,.352.271.609.609,0,0,0,.382-.03.59.59,0,0,0,.341-.694c-.015-.053-.028-.107-.043-.16a.681.681,0,0,0-.335-.416.549.549,0,0,0-.492-.028.41.41,0,0,0-.177.115.534.534,0,0,0-.143.244" transform="translate(-10.62 -0.773)" fill="#180659"/>
    <path id="Path_3160" data-name="Path 3160" d="M1104.232,109.5a.821.821,0,0,0,1.022.771.7.7,0,0,0,.48-.54.822.822,0,0,0,0-.351.774.774,0,0,0-.058-.154c-.017-.033-.019-.01,0,0,.01.029.011.032,0,.011a.531.531,0,0,0-.025-.062.7.7,0,0,0-.617-.327.788.788,0,0,0-.288.038,1.126,1.126,0,0,0-.142.059c-.01,0,.114-.058.071-.03s-.132.05-.19.088a.8.8,0,0,0-.333.926,1.006,1.006,0,0,0,.635.652.925.925,0,0,0,1-.306.807.807,0,0,0-.051-1.081.592.592,0,0,0-.494-.162.56.56,0,0,0-.429.281c-.042.082.072-.143.043-.051-.115.148-.137.177-.067.089.043-.051.047-.058.014-.024l.09-.072a1.066,1.066,0,0,0-.162.129l.091-.073c.121-.044.148-.057.08-.041l.183-.025a.247.247,0,0,1-.06,0l.182.024c-.113-.021.15.088.058.031.1.082.123.1.075.051.024.031.049.06.073.091-.032-.06-.021-.033.034.083l-.007-.029c.02-.076-.072-.151-.09-.223-.026-.044-.013-.011.04.1a.273.273,0,0,1-.019.21c-.04.107-.046.133-.017.075-.052.061-.064.077-.038.048.07-.076-.043.026-.007,0,.054-.03.013-.021-.125.027q.071,0-.021-.006l-.246-.189a.286.286,0,0,1-.02-.187l-.008.026c.027-.058.032-.073.015-.044s-.008.016.032-.04c-.061.07.09-.06.011-.012.164-.1-.041.015-.077.034a.3.3,0,0,1,.223-.032c-.09-.023.092.061.01,0l.054.042c-.028-.03-.028-.028,0,0a.173.173,0,0,1,.046.09.287.287,0,0,1-.012-.058.488.488,0,0,0-.957.13" transform="translate(-10.644 -0.937)" fill="#180659"/>
    <path id="Path_3161" data-name="Path 3161" d="M1096.516,102.21a9.161,9.161,0,0,0-1.948,2.558c-.087.229.2.4.387.3a8.933,8.933,0,0,0,2.213-2.2c.388-.446-.257-1.1-.653-.654" transform="translate(-10.552 -0.879)" fill="#180659"/>
    <path id="Path_3162" data-name="Path 3162" d="M1090.656,120.385a9.176,9.176,0,0,0-2.6,3.326c-.14.384.338.679.655.5a9.268,9.268,0,0,0,2.875-3.11c.389-.577-.458-1.167-.934-.721" transform="translate(-10.489 -1.035)" fill="#180659"/>
    <path id="Path_3163" data-name="Path 3163" d="M1078.935,109.775c-.916.806-2.113,1.589-2.586,2.747a.4.4,0,0,0,.487.488c1.167-.433,1.993-1.623,2.823-2.51a.512.512,0,0,0-.724-.725" transform="translate(-10.376 -0.944)" fill="#180659"/>
    <path id="Path_3164" data-name="Path 3164" d="M1072.751,122.77l.008,0-.137-.106.007.007c-.036-.046-.07-.091-.106-.136l.008.012c-.023-.054-.046-.106-.067-.16a.079.079,0,0,1,.006.021l-.024-.173a.062.062,0,0,1,0,.018c.008-.058.016-.114.023-.172l0,.014.063-.152-.006.011a.627.627,0,0,0,0,.634.628.628,0,0,0,.225.225.617.617,0,0,0,.317.086h.007c.025,0,.149-.017.173-.023l.013,0a.729.729,0,0,0,.164-.07l.006,0,.132-.1,0,0a.685.685,0,0,0,.059-.076.665.665,0,0,0,.059-.078c.01-.019.063-.145.068-.165l0-.006c.005-.016.025-.169.026-.185v-.008a.668.668,0,0,0-.093-.345.684.684,0,1,0-.935.936" transform="translate(-10.338 -1.046)" fill="#180659"/>
    <path id="Path_3165" data-name="Path 3165" d="M1099.368,127.74a1.1,1.1,0,0,0,.7-.291,1.1,1.1,0,0,0,.29-.7c-.012-.088-.023-.176-.035-.265a1,1,0,0,0-.255-.438l-.2-.156a.988.988,0,0,0-.5-.136,1.1,1.1,0,0,0-.7.291.733.733,0,0,0-.2.319.751.751,0,0,0-.086.384l.036.264a1,1,0,0,0,.255.438l.2.156a.988.988,0,0,0,.5.136" transform="translate(-10.589 -1.083)" fill="#180659"/>
    <path id="Path_3166" data-name="Path 3166" d="M1103.994,196.9a11.475,11.475,0,0,0,3.035.356,12.925,12.925,0,0,0,1.515-.126,4.983,4.983,0,0,0,1.5-.364.3.3,0,0,0-.147-.547c-.476.032-.939.173-1.41.248a11.785,11.785,0,0,1-1.459.136,14.074,14.074,0,0,1-2.9-.187c-.313-.055-.453.406-.134.485" transform="translate(-10.641 -1.689)" fill="#180659"/>
    <path id="Path_3167" data-name="Path 3167" d="M1109.9,198.683a3.858,3.858,0,0,0,1.025-.026,2.436,2.436,0,0,0,.469-.111,1.1,1.1,0,0,0,.451-.338.22.22,0,0,0-.153-.37,1.789,1.789,0,0,0-.488.013c-.151.034-.3.073-.456.1-.037.007-.073.013-.112.018.086-.012-.029,0-.047,0-.074.008-.15.013-.224.016a3.833,3.833,0,0,1-.466-.014.355.355,0,0,0-.354.354.365.365,0,0,0,.354.355" transform="translate(-10.697 -1.703)" fill="#180659"/>
    <path id="Path_3168" data-name="Path 3168" d="M1101.695,140.724a3.621,3.621,0,0,0-.687,2.955,19.956,19.956,0,0,0,.845,3.872,6,6,0,0,0,1.574,2.842,1.129,1.129,0,0,0,1.824-.512,7.138,7.138,0,0,0-.154-3.453,23.3,23.3,0,0,0-.852-3.826c-.278-.77-.718-2.072-1.63-2.3a.9.9,0,0,0-1.147,1.027c.067.424.623.308.747,0,.163-.4.778.751.814.825a7.907,7.907,0,0,1,.389.98,18.561,18.561,0,0,1,.522,2.014c.125.608.226,1.223.312,1.838.041.281.43,2.178.133,2.416-.871.7-1.885-3.055-2-3.548-.355-1.475-.912-3.3-.149-4.718.176-.328-.274-.724-.538-.415" transform="translate(-10.614 -1.208)" fill="#180659"/>
    <path id="Path_3169" data-name="Path 3169" d="M1104.632,142.073a33.591,33.591,0,0,0-3.516,2.747,5.985,5.985,0,0,0-2.067,2.8,1.269,1.269,0,0,0,1.374,1.649c1.13-.111,2.316-1.259,3.12-1.98a21.578,21.578,0,0,0,2.785-3.074c.546-.724.957-1.853-.046-2.417-1.023-.576-2.112.346-2.884.934a6.393,6.393,0,0,0-2.351,2.7c-.091.253.239.374.407.237.59-.479,1.055-1.079,1.616-1.588a7.967,7.967,0,0,1,1.038-.8c.256-.164.892-.633,1.194-.6,1.032.122.042,1.08-.142,1.311q-.379.474-.777.93a19.071,19.071,0,0,1-1.7,1.722,6.109,6.109,0,0,1-2.049,1.48c-1.545.316.164-1.768.479-2.1,1.2-1.264,2.607-2.31,3.817-3.559.19-.2-.059-.551-.3-.39" transform="translate(-10.595 -1.219)" fill="#180659"/>
    <path id="Path_3170" data-name="Path 3170" d="M1100.185,143.214c1.563.747,3.244,1.232,4.8,2,.316.156,2.625,1.511,1.384,1.842a3.363,3.363,0,0,1-1.252-.253c-.387-.1-.769-.226-1.147-.363a17.577,17.577,0,0,1-2.346-1.076c-.265-.143-2.549-1.239-1.895-1.769.277-.224,1.253.046,1.549.112a7.894,7.894,0,0,1,1.159.355c.747.288,1.425.711,2.183.972.249.085.382-.237.237-.407a6.733,6.733,0,0,0-3.347-1.757c-.92-.261-2.29-.662-2.921.355s.43,1.835,1.188,2.3a22.689,22.689,0,0,0,3.491,1.772c.975.385,2.417,1,3.491.753a1.274,1.274,0,0,0,.78-2,5.532,5.532,0,0,0-2.735-1.862,31.928,31.928,0,0,0-4.427-1.426c-.261-.062-.454.327-.191.453" transform="translate(-10.589 -1.228)" fill="#180659"/>
    <path id="Path_3171" data-name="Path 3171" d="M1112.54,133.191a5.531,5.531,0,0,0,.338,1.643c.154.519.316,1.036.481,1.552s.257,1.217.85,1.38a1.542,1.542,0,0,0,.781-.057c.271-.068.542-.143.812-.218q1.5-.418,2.963-.945a3.7,3.7,0,0,0,.706-.284.889.889,0,0,0,.393-.927,3.237,3.237,0,0,0-.222-.648l-.315-.809q-.324-.83-.646-1.659a7.466,7.466,0,0,0-.359-.907.655.655,0,0,0-.932-.286.507.507,0,0,0,0,.863l.034.019-.187-.188c-.086-.14.025.061.034.082-.014-.034-.045-.12.016.041.036.1.073.189.11.284l.25.647q.244.628.485,1.255.251.647.5,1.295c.014.038.029.074.042.111l.011.03q.021.1.021.045c-.007,0,.068-.261.141-.246-.068-.014-.25.091-.316.115l-.356.126q-1.23.43-2.486.784-.3.085-.608.166l-.325.085a1.3,1.3,0,0,0-.3.079c.013-.041.289.144.261.169a1.919,1.919,0,0,0-.1-.29c-.077-.222-.156-.443-.233-.664q-.256-.727-.529-1.447a5.265,5.265,0,0,0-.71-1.44c-.2-.253-.592-.03-.6.248" transform="translate(-10.725 -1.127)" fill="#180659"/>
    <path id="Path_3172" data-name="Path 3172" d="M1114.188,136.774a4.471,4.471,0,0,1,.427-.464c.151-.157.313-.3.473-.448a2.656,2.656,0,0,1,1.057-.593,2.708,2.708,0,0,1,1.26-.064,2.745,2.745,0,0,1,.612.187,2.558,2.558,0,0,0,.77.337c.388.043.543-.424.407-.71a1.447,1.447,0,0,0-.762-.544,3.667,3.667,0,0,0-.828-.26,3.582,3.582,0,0,0-1.755.1,3.741,3.741,0,0,0-1.383.832,2.324,2.324,0,0,0-.487.673,2.428,2.428,0,0,0-.162.389,3.227,3.227,0,0,0-.05.389.232.232,0,0,0,.421.177" transform="translate(-10.737 -1.155)" fill="#180659"/>
    <path id="Path_3173" data-name="Path 3173" d="M1115.471,139.354l.035.118a.977.977,0,0,1,.032.118.383.383,0,0,0,.1.168.378.378,0,0,0,.166.1.493.493,0,0,0,.161.018.719.719,0,0,0,.13-.019.873.873,0,0,0,.122-.051l.026-.015a1.089,1.089,0,0,0,.107-.083l.011-.01a.988.988,0,0,0,.069-.088l.005-.007c.006-.009.013-.019.018-.028a.8.8,0,0,0,.035-.078.75.75,0,0,0,.033-.083.672.672,0,0,0,.013-.087.636.636,0,0,0,.011-.089,1.028,1.028,0,0,0-.018-.145.188.188,0,0,0-.008-.033.519.519,0,0,0-.057-.132c-.023-.034-.052-.068-.077-.1l-.012-.014a.622.622,0,0,0-.439-.18.6.6,0,0,0-.186.028.684.684,0,0,0-.171.078.763.763,0,0,0-.146.12,1.142,1.142,0,0,0-.089.118,1.41,1.41,0,0,0-.072.172.8.8,0,0,0-.021.155v.018c0,.045.011.093.019.137a.225.225,0,0,0,.01.037,1.192,1.192,0,0,0,.054.126l.012.018c.027.035.053.072.083.105l.015.015a.688.688,0,0,0,.271.155.677.677,0,0,0,.161.024h.02c.022,0,.054-.007.069-.009s.048,0,.07-.01l.017,0c.034-.012.084-.034.117-.05l.011-.006.006,0a1.106,1.106,0,0,0,.1-.078l.016-.016a.527.527,0,0,0,.138-.334c-.005-.042-.011-.084-.017-.126a.462.462,0,0,0-.121-.208.554.554,0,0,0-.382-.16.57.57,0,0,0-.3.082.527.527,0,0,0-.187.189.515.515,0,0,0-.058.139.538.538,0,0,0,0,.269.448.448,0,0,0,.215.288l.108.046a.349.349,0,0,0,.18.009.232.232,0,0,0,.114-.032.337.337,0,0,0,.146-.093.455.455,0,0,0,.119-.206l.005-.016c-.016.037-.032.073-.047.11l.01-.017-.072.094a.1.1,0,0,1,.015-.014l-.1.073c.04-.031.08-.059.121-.091l-.1.074a.13.13,0,0,1,.026-.015l-.113.048.024-.007-.126.017h.021l-.126-.017.016,0-.113-.049.014.009-.1-.074.007.006-.074-.573,0,0,.074-.1-.016.016.1-.074a.1.1,0,0,1-.022.014l.112-.048a.1.1,0,0,1-.029.008l.125-.016a.274.274,0,0,1-.041,0l.125.016a.185.185,0,0,1-.045-.012l.112.047a.173.173,0,0,1-.042-.024l.1.073a.206.206,0,0,1-.03-.031l.072.094a.149.149,0,0,1-.016-.028c.015.037.031.074.047.111a.181.181,0,0,1-.012-.041l.017.124a.161.161,0,0,1,0-.045c-.006.042-.011.082-.017.124a.185.185,0,0,1,.013-.048c-.015.037-.031.073-.047.11a.251.251,0,0,1,.031-.052l-.072.094a.253.253,0,0,1,.047-.047l-.093.072a.319.319,0,0,1,.057-.033l-.11.047a.253.253,0,0,1,.053-.015l-.122.017a.224.224,0,0,1,.045,0l-.122-.016a.167.167,0,0,1,.044.012l-.109-.047a.156.156,0,0,1,.035.022l-.092-.071a.166.166,0,0,1,.027.026l-.071-.092a.277.277,0,0,1,.033.055l-.046-.107a.2.2,0,0,1,.015.055c0-.04-.011-.078-.016-.118a.356.356,0,0,1,0,.062l.015-.115a.3.3,0,0,1-.016.064c.014-.034.028-.067.042-.1-.019.041-.035.082-.052.124.014-.034.029-.067.043-.1a.278.278,0,0,1-.028.048l.063-.082a.148.148,0,0,1-.031.031l.08-.061a.358.358,0,0,1-.034.02l.092-.04a.172.172,0,0,1-.032.01l.428.173a.848.848,0,0,1-.059-.106c-.02-.036-.039-.072-.058-.108a.4.4,0,0,0-.209-.162l-.093-.012a.265.265,0,0,0-.136.03.181.181,0,0,0-.077.046.261.261,0,0,0-.09.1.364.364,0,0,0-.036.271" transform="translate(-10.752 -1.194)" fill="#180659"/>
    <path id="Path_3174" data-name="Path 3174" d="M1118.81,137.936a.99.99,0,0,0-.08.1.18.18,0,0,0-.018.027.694.694,0,0,0-.068.158.256.256,0,0,0-.007.031,1.3,1.3,0,0,0-.019.14.767.767,0,0,0,.017.18.4.4,0,0,0,.016.059.611.611,0,0,0,.058.131c.023.032.071.094.077.1a1.206,1.206,0,0,0,.1.078.583.583,0,0,0,.326.091.626.626,0,0,0,.328-.1.667.667,0,0,0,.2-.2.473.473,0,0,0,.069-.159.56.56,0,0,0,.02-.176.665.665,0,0,0-.079-.288.6.6,0,0,0-.245-.249.617.617,0,0,0-.283-.078.474.474,0,0,0-.245.065s-.071.054-.1.08l-.023.02a.493.493,0,0,0-.037.043,1.331,1.331,0,0,0-.108.146,1.371,1.371,0,0,0-.071.163.559.559,0,0,0-.018.057c-.006.028-.008.058-.012.085s-.01.059-.011.088a.712.712,0,0,0,.022.177.6.6,0,0,0,.172.293.65.65,0,0,0,.255.151l.027.008c.039.008.1.015.139.019h.021a.634.634,0,0,0,.177-.027.674.674,0,0,0,.165-.077.725.725,0,0,0,.215-.214.159.159,0,0,0,.015-.024l.008-.016c.019-.043.04-.087.056-.132a.187.187,0,0,0,.008-.033.87.87,0,0,0,.02-.161.555.555,0,0,0-.03-.193.745.745,0,0,0-.16-.273l-.022-.023a1.4,1.4,0,0,0-.122-.1.88.88,0,0,0-.177-.081.349.349,0,0,0-.063-.017.871.871,0,0,0-.2-.021.6.6,0,0,0-.277.071.478.478,0,0,0-.188.193l-.05.116a.383.383,0,0,0-.009.194.251.251,0,0,0,.034.122.361.361,0,0,0,.1.157l.006,0a.6.6,0,0,0,.1.079l.12.051a.4.4,0,0,0,.156.018.3.3,0,0,1,.059,0l-.134-.019a.317.317,0,0,1,.074.021l-.12-.051a.31.31,0,0,1,.056.032c-.035-.026-.068-.053-.1-.079a.265.265,0,0,1,.041.041l-.079-.1a.2.2,0,0,1,.026.045l-.05-.121a.182.182,0,0,1,.011.039l-.018-.135a.161.161,0,0,1,0,.045l.018-.135a.213.213,0,0,1-.012.043l.051-.121a.243.243,0,0,1-.032.054l.079-.1a.2.2,0,0,1-.036.036c.035-.026.068-.053.1-.079a.178.178,0,0,1-.038.023l.121-.052a.161.161,0,0,1-.036.01l.134-.018a.168.168,0,0,1-.032,0l.133.018a.123.123,0,0,1-.032-.008l.12.05a.131.131,0,0,1-.031-.017l.1.077a.131.131,0,0,1-.024-.023l.078.1a.15.15,0,0,1-.019-.032c.017.04.034.079.049.119a.349.349,0,0,1-.011-.042l.018.132a.243.243,0,0,1,0-.066l-.018.131a.414.414,0,0,1,.026-.09l-.049.116a.445.445,0,0,1,.055-.093l-.075.1a.386.386,0,0,1,.037-.041l-.339.141h.011l-.127-.017a.14.14,0,0,1,.039.011l-.115-.049a.2.2,0,0,1,.035.021l-.1-.074a.2.2,0,0,1,.028.029l-.073-.1a.2.2,0,0,1,.023.041l-.048-.113a.168.168,0,0,1,.011.039c-.006-.042-.012-.083-.017-.125a.166.166,0,0,1,0,.04c.006-.042.012-.083.017-.125a.179.179,0,0,1-.009.033c.016-.037.031-.074.047-.111a.206.206,0,0,1-.016.027l.072-.094a.159.159,0,0,1-.026.026l.094-.072a.2.2,0,0,1-.037.022l.11-.047a.19.19,0,0,1-.047.012l.122-.016h-.042l.122.016a.136.136,0,0,1-.036-.01l.109.047-.028-.016.092.071-.013-.015.071.091q-.044-.058-.092-.116c.024.031.047.06.07.091a.3.3,0,0,1-.035-.06c.014.035.029.069.044.1a.322.322,0,0,1-.019-.067l.016.113a.293.293,0,0,1,0-.077c-.005.037-.009.073-.014.11a.22.22,0,0,1,.017-.061l-.041.1,0-.006a.307.307,0,0,0,.048-.149.3.3,0,0,0-.008-.159l-.04-.1a.3.3,0,0,0-.1-.112.194.194,0,0,0-.088-.052.294.294,0,0,0-.153-.035.41.41,0,0,0-.282.117" transform="translate(-10.784 -1.186)" fill="#180659"/>
    <path id="Path_3175" data-name="Path 3175" d="M1101.585,164.474a6.335,6.335,0,0,0,.729,2.227,7.318,7.318,0,0,0,1.241,2.294c.271.258.845.1.8-.333a6.6,6.6,0,0,0-.931-2.229,6.9,6.9,0,0,0-1.391-2.146.267.267,0,0,0-.451.187" transform="translate(-10.62 -1.414)" fill="#180659"/>
    <path id="Path_3176" data-name="Path 3176" d="M1112.742,162.672c-1.06,1.4-1,3.442-1.4,5.1l1.235.168c.2-1.529.631-3.027.846-4.556.087-.623-.862-.9-.956-.264a17.155,17.155,0,0,1-1.062,4.5.627.627,0,1,0,1.15.486,12.2,12.2,0,0,0,.548-2.707,19.427,19.427,0,0,0,.336-2.539.375.375,0,0,0-.692-.187" transform="translate(-10.714 -1.399)" fill="#180659"/>
    <path id="Path_3177" data-name="Path 3177" d="M1119.612,161.327c.094.979.277,1.946.354,2.925.06.732-.14,1.629.335,2.229a.576.576,0,0,0,.812,0c.446-.536.2-1.6.131-2.229a8.9,8.9,0,0,0-.841-3.139.428.428,0,0,0-.791.214" transform="translate(-10.793 -1.385)" fill="#180659"/>
    <path id="Path_3178" data-name="Path 3178" d="M1121.588,160.647c.281,1.506.419,3,.571,4.526a.6.6,0,0,0,1.205,0,9.971,9.971,0,0,0-1.083-4.818c-.2-.41-.768-.106-.694.292" transform="translate(-10.812 -1.379)" fill="#180659"/>
  </g>
</svg>
