<svg xmlns="http://www.w3.org/2000/svg" width="154.151" height="191.489" viewBox="0 0 154.151 191.489">
  <g id="Group_3037" data-name="Group 3037" transform="translate(-771.835 -43.728)">
    <path id="Path_2764" data-name="Path 2764" d="M838.021,141.235a34.154,34.154,0,0,1-19.7-5.953c-6.193-4.369-9.849-10.5-10.3-17.255s2.374-13.313,7.939-18.46a36.163,36.163,0,0,1,43.544-2.879c6.194,4.368,9.849,10.5,10.3,17.254s-2.374,13.314-7.939,18.461a34.664,34.664,0,0,1-21.29,8.747c-.856.057-1.709.085-2.556.085m1.767-48.716q-1.2,0-2.414.08c-16.052,1.061-28.418,12.415-27.568,25.31.41,6.21,3.8,11.862,9.543,15.914a34.389,34.389,0,0,0,41.309-2.731c5.163-4.774,7.779-10.822,7.37-17.032-.808-12.244-13.246-21.541-28.24-21.541" transform="translate(-7.789 -0.781)" fill="#180659"/>
    <path id="Path_2765" data-name="Path 2765" d="M849.129,92.152c1.359-5.653,6.518-9.82,11.444-12.375a25.328,25.328,0,0,1,7.654-2.556c9.65-1.651,20.714-.28,28.748,5.653a25.3,25.3,0,0,1,9.815,21.5c-.405,8.029-4.871,16.24-12.525,19.384a41.442,41.442,0,0,1-13.251,2.688,63.19,63.19,0,0,1-12.487-.349,16.933,16.933,0,0,1-2.242-.333.348.348,0,0,0-.185.671c.8.229,1.538.562,2.355.744.942.21,1.888.424,2.843.57a44.2,44.2,0,0,0,6.666.413,49.1,49.1,0,0,0,14.319-1.965,24.1,24.1,0,0,0,5.964-2.645,20.112,20.112,0,0,0,4.681-4.33,25.327,25.327,0,0,0,5.268-11.837A27.274,27.274,0,0,0,900.438,83.5a31.815,31.815,0,0,0-14.683-7.516,43.609,43.609,0,0,0-15.4-.812,29.161,29.161,0,0,0-7.212,1.6c-5.478,2.171-10.741,5.778-13.752,10.964a12.968,12.968,0,0,0-1.548,4.066c-.161.836,1.085,1.2,1.289.356" transform="translate(-8.173 -0.644)" fill="#180659"/>
    <path id="Path_2766" data-name="Path 2766" d="M797.375,235.5c.235-.706-.239-1.508.1-2.158a8.467,8.467,0,0,1,.688-.9,10.23,10.23,0,0,0,.675-1.2c.413-.792.814-1.591,1.239-2.376a3.518,3.518,0,0,1,.829-1.057c.281-.24.483-.337.578-.7a.221.221,0,0,0-.21-.277c-.608-.021-1.16.647-1.49,1.1a24.033,24.033,0,0,0-1.541,2.792c-.239.445-.468.9-.743,1.323a8.778,8.778,0,0,0-.654.969c-.408.871.315,1.527.162,2.371a.191.191,0,0,0,.367.1" transform="translate(-7.681 -1.953)" fill="#180659"/>
    <path id="Path_2767" data-name="Path 2767" d="M801.347,226.831a23.591,23.591,0,0,0,2.568-3.591,1.7,1.7,0,0,0,.359-1.289,2.556,2.556,0,0,0-.2-.543,2.4,2.4,0,0,1-.2-.432c-.087-.428.123-.567.377-.843a25.034,25.034,0,0,1,3.208-2.859,3.984,3.984,0,0,0,1.086-1.049c.347-.58.151-1.143.236-1.769.123-.916,1.314-1.178,1.823-1.866.6-.814.1-1.469-.276-2.237-.7-1.425,1.66-2.524,2.761-2.629a3.939,3.939,0,0,0,1.367-.238,1.476,1.476,0,0,0,.461-.332c.067-.072.11-.173.18-.242.312-.309.5-.164.865-.1a4.809,4.809,0,0,0,3.659-1.188c1.3-.943,2.577-1.9,4.23-1.215.533.221.777-.585.368-.874-2.494-1.77-4.8,1.794-6.959,2.39-.738.2-1.372-.163-2.077-.031-.608.115-.753.752-1.309.939-.511.172-1.106.081-1.634.227a4.464,4.464,0,0,0-1.542.773c-.8.617-1.611,1.6-1.167,2.647.2.472.773.99.53,1.53-.2.431-.791.671-1.158.937a2.386,2.386,0,0,0-.808.864c-.306.643.082,1.394-.25,2a5.335,5.335,0,0,1-1.49,1.3q-.912.727-1.757,1.533a6.272,6.272,0,0,0-1.455,1.6,1.565,1.565,0,0,0,.151,1.385,1.2,1.2,0,0,1-.148,1.318c-.249.393-.505.781-.764,1.167-.517.768-1.084,1.515-1.549,2.316a.326.326,0,0,0,.51.394" transform="translate(-7.72 -1.748)" fill="#180659"/>
    <path id="Path_2768" data-name="Path 2768" d="M812.03,210.981c.182.448.479,1.066.977,1.219.326.1.513-.258.4-.519a2.554,2.554,0,0,0-.393-.5,2.616,2.616,0,0,1-.287-.5c-.177-.388-.859-.108-.7.293" transform="translate(-7.828 -1.812)" fill="#180659"/>
    <path id="Path_2769" data-name="Path 2769" d="M813.489,210.237a4.166,4.166,0,0,0,.327.395,1.452,1.452,0,0,0,.4.336.315.315,0,0,0,.381-.494,3.457,3.457,0,0,0-.383-.278,3.307,3.307,0,0,1-.309-.281c-.2-.206-.6.073-.415.321" transform="translate(-7.842 -1.807)" fill="#180659"/>
    <path id="Path_2770" data-name="Path 2770" d="M815.562,209.273a2.228,2.228,0,0,0,.371.291.813.813,0,0,0,.437.159.254.254,0,0,0,.251-.251.722.722,0,0,0-.2-.4,2.1,2.1,0,0,0-.332-.331.376.376,0,0,0-.532.532" transform="translate(-7.861 -1.796)" fill="#180659"/>
    <path id="Path_2771" data-name="Path 2771" d="M801.276,229.125a6.2,6.2,0,0,1,2.206-2.544,3.7,3.7,0,0,0,1.793-1.985c.029-.125-.113-.262-.232-.178-.447.308-.779.747-1.216,1.073-.48.358-1.055.555-1.518.936a5.5,5.5,0,0,0-1.507,2.5c-.1.278.336.456.475.2" transform="translate(-7.72 -1.932)" fill="#180659"/>
    <path id="Path_2772" data-name="Path 2772" d="M807.738,221.643a9.379,9.379,0,0,1,2.229-2.585,9.668,9.668,0,0,0,2.283-2.442c.04-.083-.028-.22-.136-.177a10.211,10.211,0,0,0-2.719,2.241,8.466,8.466,0,0,0-2.17,2.663c-.151.344.344.649.513.3" transform="translate(-7.782 -1.863)" fill="#180659"/>
    <path id="Path_2773" data-name="Path 2773" d="M815.534,214.288c.561-.5,1.124-1,1.672-1.51a7.253,7.253,0,0,0,1.4-1.513.151.151,0,0,0-.168-.219c-1.318.471-2.344,1.888-3.235,2.907a.237.237,0,0,0,.335.335" transform="translate(-7.858 -1.817)" fill="#180659"/>
    <path id="Path_2774" data-name="Path 2774" d="M815.1,215.14a23.624,23.624,0,0,0-2.588,2.49c-.435.432-.882.853-1.332,1.27a3.367,3.367,0,0,0-.984,1.121c-.044.107.084.212.183.182a3.2,3.2,0,0,0,1.2-.9c.447-.421.887-.848,1.331-1.272a15.733,15.733,0,0,0,2.459-2.617c.107-.162-.111-.393-.272-.274" transform="translate(-7.811 -1.852)" fill="#180659"/>
    <path id="Path_2775" data-name="Path 2775" d="M820.3,210.57a15.608,15.608,0,0,0,2.7-2.436c.043-.06-.029-.143-.1-.123a7.4,7.4,0,0,0-2.937,2.231.232.232,0,0,0,.328.328" transform="translate(-7.904 -1.791)" fill="#180659"/>
    <path id="Path_2776" data-name="Path 2776" d="M823.74,213.384a26.428,26.428,0,0,0-5.008,4.754,7.4,7.4,0,0,0-1.527,2.832c-.164.948.69,1.353,1.506,1.367a5.109,5.109,0,0,0,2.92-1.316,30.785,30.785,0,0,0,2.626-2.119,18.621,18.621,0,0,0,2.263-2.471,5.768,5.768,0,0,0,1.4-2.616,1.182,1.182,0,0,0-1.493-1.3,5.925,5.925,0,0,0-3.059,1.416c-.244.211.113.569.355.355.519-.464,2.832-2.07,3.383-1,.362.7-.7,2.04-1.072,2.578a19.914,19.914,0,0,1-4.643,4.5,11.317,11.317,0,0,1-1.337.911c-.447.242-2.2.967-2.062-.343a4.528,4.528,0,0,1,.7-1.428,12.834,12.834,0,0,1,.916-1.358,32.753,32.753,0,0,1,4.459-4.436c.229-.2-.1-.509-.328-.328" transform="translate(-7.878 -1.83)" fill="#180659"/>
    <path id="Path_2777" data-name="Path 2777" d="M815.993,221.521c-.391,1.094-.6,2.573.717,3.127.9.38,3,.2,3.432-.8a.216.216,0,0,0-.128-.313c-.761-.146-1.511.412-2.29.445-1.452.061-1.39-1.226-1.132-2.289a.311.311,0,0,0-.6-.166" transform="translate(-7.864 -1.905)" fill="#180659"/>
    <path id="Path_2778" data-name="Path 2778" d="M823.158,221.724a22.089,22.089,0,0,0,3.147-2.784,12.567,12.567,0,0,0,2.544-3.24,5.648,5.648,0,0,0,.659-3.148c-.086-.57-.619-1.931-1.393-1.648a.177.177,0,0,0-.12.211c.076.391.482.544.683.882a2.881,2.881,0,0,1,.362,1.342,4.846,4.846,0,0,1-1.32,2.984,53.472,53.472,0,0,1-4.821,5.063c-.163.168.053.481.258.336" transform="translate(-7.933 -1.815)" fill="#180659"/>
    <path id="Path_2779" data-name="Path 2779" d="M821.1,222.931l.084.238a.613.613,0,0,0,.08.175.491.491,0,0,0,.147.12.264.264,0,0,0,.382-.156.537.537,0,0,0,.026-.153.567.567,0,0,0-.072-.224l-.1-.23a.3.3,0,0,0-.543.229" transform="translate(-7.916 -1.916)" fill="#180659"/>
    <path id="Path_2780" data-name="Path 2780" d="M842.571,192.806a28.688,28.688,0,0,1,.374,7.055c-.161,2.031-.73,4.237.319,6.123a13.617,13.617,0,0,0,3.773,4.1,7.489,7.489,0,0,0,11.893-4.19,4.692,4.692,0,0,0-1.576-4.75,3.526,3.526,0,0,0-4.205-.132,3.123,3.123,0,0,0-.3,4.651c1.255,1.157,3.629.509,3.336-1.418-.055-.36-.593-.31-.68,0a1.167,1.167,0,0,1-1.5.779,1.626,1.626,0,0,1-.819-1.882,2.012,2.012,0,0,1,2.829-1.319c2.856,1.187,1.76,5.08.035,6.741a6.4,6.4,0,0,1-6.708,1.4,10.015,10.015,0,0,1-3.509-2.552c-1.092-1.148-2.062-2.331-2.079-3.987-.019-1.838.327-3.655.269-5.5a15.485,15.485,0,0,0-.937-5.255.265.265,0,0,0-.51.141" transform="translate(-8.123 -1.657)" fill="#180659"/>
    <path id="Path_2781" data-name="Path 2781" d="M853.454,193.933a8.353,8.353,0,0,0-2.979,6.415,7.311,7.311,0,0,0,.919,3.376c.447.813,1.256,2.15,2.281,2.2a.416.416,0,0,0,.4-.523c-.128-.481-.494-.732-.818-1.09a6.413,6.413,0,0,1-1.634-4.2,10.022,10.022,0,0,1,2.307-5.813c.214-.3-.23-.571-.473-.366" transform="translate(-8.199 -1.669)" fill="#180659"/>
    <path id="Path_2782" data-name="Path 2782" d="M853.133,194.624c-.863,1.26-.469,2.747.106,4.046.378.852,1.187,2.926,2.387,2.77a.482.482,0,0,0,.409-.713c-.194-.4-.62-.6-.885-.961a9.118,9.118,0,0,1-.76-1.324,5.61,5.61,0,0,1-.671-3.572.322.322,0,0,0-.585-.247" transform="translate(-8.22 -1.674)" fill="#180659"/>
    <path id="Path_2783" data-name="Path 2783" d="M858.142,203.746c1.276,2.259,4.262,2.88,6.666,2.89a12.084,12.084,0,0,0,7.012-2.207,10.35,10.35,0,0,0,4.161-6.486,12.827,12.827,0,0,0-1.374-8.228,39.763,39.763,0,0,1-2.42-4.791c-.288-.827-.545-1.918.169-2.608a.76.76,0,0,1,1-.182.7.7,0,0,1,.226.831.5.5,0,0,0,.779.6,1.619,1.619,0,0,0-.474-2.516,2.162,2.162,0,0,0-2.919,1.211c-.636,1.373-.007,2.935.575,4.207.7,1.522,1.61,2.93,2.318,4.444a10.834,10.834,0,0,1,.13,9.245,9.463,9.463,0,0,1-6.316,4.859c-2.8.708-6.845.6-8.869-1.784-.318-.374-.893.105-.664.513" transform="translate(-8.272 -1.557)" fill="#180659"/>
    <path id="Path_2784" data-name="Path 2784" d="M861.331,162.134c-.072,1.176-.2,2.325-.194,3.507,0,1.265.06,2.533.129,3.8q.2,3.649.491,7.292t.7,7.275a53.5,53.5,0,0,0,.872,6.162,9.779,9.779,0,0,0,2.587,5.109c1.476,1.314,3.349.544,4.093-1.138a9.34,9.34,0,0,0,.584-2.7,5.147,5.147,0,0,0-.388-2.92c-.427-.889-1.066-1.657-1.481-2.555a6.627,6.627,0,0,1-.606-3.349c.2-2.182,1.877-4.4,4.223-4.389a2.782,2.782,0,0,1,2.6,1.663,2.061,2.061,0,0,1-1.072,2.688.55.55,0,1,0,.425,1.01,3.226,3.226,0,0,0,1.759-4.11,4.007,4.007,0,0,0-4.259-2.4,5.486,5.486,0,0,0-4.177,3.12,7.328,7.328,0,0,0-.194,5.633,15.34,15.34,0,0,0,1.463,2.753,4.87,4.87,0,0,1,.429,3.486c-.144.947-.379,2.391-1.531,2.61-1.05.2-1.854-1.307-2.25-2.063a17.7,17.7,0,0,1-1.511-6.144c-.3-2.469-.555-4.94-.792-7.415q-.406-4.22-.681-8.454-.134-2.043-.262-4.087c-.1-1.482-.339-2.915-.522-4.383a.218.218,0,0,0-.436,0" transform="translate(-8.302 -1.394)" fill="#180659"/>
    <path id="Path_2785" data-name="Path 2785" d="M833.384,165.772c.081,2,.415,3.994.674,5.979q.391,3,.621,6.025a114.331,114.331,0,0,1,.3,11.824,21.433,21.433,0,0,1-.72,5.93c-.525,1.67-1.4,3.6-3.245,4.115-1.963.545-3.344-1.172-3.71-2.941-.361-1.748.658-3.356.958-5.029.5-2.8-1.444-6-4.559-5.72a4,4,0,0,0-3.184,2c-.609,1.154-.494,2.88.939,3.327a1.683,1.683,0,0,0,.853.049c.246-.053.531-.365.73-.387.629-.07-.134,1.872-.236,2.245a16.656,16.656,0,0,0-.652,5.668,9.562,9.562,0,0,0,4.358,7.639,15.934,15.934,0,0,0,5.676,1.771,8.666,8.666,0,0,0,5.231-.943c3.411-1.783,5.173-5.27,6.042-8.874a.52.52,0,0,0-1-.277c-.86,3.125-2.582,6.275-5.5,7.9a7.349,7.349,0,0,1-4.505.92,14.942,14.942,0,0,1-5.169-1.57c-2.854-1.588-4.018-4.978-3.928-8.089a25.31,25.31,0,0,1,1.066-5.347,2,2,0,0,0-.241-1.758,1.333,1.333,0,0,0-1.533-.461c-.243.1-.419.365-.678.38-.442.026-.618-.448-.617-.813a2.246,2.246,0,0,1,1.268-1.818,2.932,2.932,0,0,1,3.694.758c1.121,1.354.886,2.977.389,4.528a7.646,7.646,0,0,0-.479,4.6,5.047,5.047,0,0,0,2.579,3.279,3.955,3.955,0,0,0,3.977-.7,8.123,8.123,0,0,0,2.365-3.918,21.355,21.355,0,0,0,.987-5.013,84.592,84.592,0,0,0-.163-12.831c-.158-2.07-.388-4.132-.674-6.188a31.973,31.973,0,0,0-1.358-6.323c-.1-.286-.569-.263-.556.075" transform="translate(-7.907 -1.425)" fill="#180659"/>
    <path id="Path_2786" data-name="Path 2786" d="M828.046,139.244c-1.557,1.633-1.82,4.139-1.846,6.3-.01.882.3,1.922,1.334,2.023.476.048.639-.187,1.013-.4.081-.174.128-.193.143-.055l.358.333a5.9,5.9,0,0,0,.587.477,1.129,1.129,0,0,0,1.805-.546c.057-.141.073-.439.17-.549.2-.224.209-.106.525-.02a1.992,1.992,0,0,0,1.329-.105,3.893,3.893,0,0,0,1.868-2.386,7.392,7.392,0,0,1,2.128-2.906c.421-.355-.131-1.071-.591-.766a6.319,6.319,0,0,0-1.8,1.786c-.534.8-.748,1.748-1.263,2.548a1.355,1.355,0,0,1-1.374.745c-.363-.082-.664-.288-1.057-.179-.609.167-.758.743-.97,1.256l-.049.136c-.061.129-.072.139-.034.031-.162-.028-.43-.352-.56-.452a2.283,2.283,0,0,0-1.072-.616c-.367-.027-.515.2-.788.369-.641.4-.621-.506-.614-.943a10.476,10.476,0,0,1,1.294-5.668.345.345,0,0,0-.54-.416" transform="translate(-7.965 -1.198)" fill="#180659"/>
    <path id="Path_2787" data-name="Path 2787" d="M828.006,146.894c-.706,3.994-.881,8.1-1.286,12.132-.18,1.793-.559,3.571-1.983,4.8a6.117,6.117,0,0,1-4.679,1.353,8.508,8.508,0,0,1-4.886-2.364,5.768,5.768,0,0,1-1.607-5.038,52.984,52.984,0,0,1,1.56-5.749,17.974,17.974,0,0,0,.5-5.751,5.691,5.691,0,0,0-5.528-5.376c-1.083-.022-2.721.3-2.907,1.609-.244,1.709,2,1.8,2.561,3.032.685,1.5.022,3.59-.36,5.089-.458,1.8-1.074,3.558-1.493,5.369a16.836,16.836,0,0,0,.876,10.535c1.515,3.625,3.892,6.892,7.59,8.479,3.532,1.517,7.987.767,11.309-.975.683-.358.083-1.355-.6-1.027-3.053,1.466-7.228,2.181-10.4.727-3.28-1.506-5.335-4.467-6.743-7.694a16,16,0,0,1-1.341-5.206,17.229,17.229,0,0,1,.571-5.311c.419-1.721.952-3.412,1.354-5.137a10.9,10.9,0,0,0,.407-4.481,3.167,3.167,0,0,0-.756-1.553c-.508-.543-1.555-.719-1.905-1.372-.464-.864,1.112-1.087,1.627-1.092a4.455,4.455,0,0,1,2.105.54,4.67,4.67,0,0,1,2.44,3.844,16.941,16.941,0,0,1-.524,5.708c-.841,3.263-2.636,6.832-.8,10.1a9.2,9.2,0,0,0,8.092,4.307,7.2,7.2,0,0,0,4.366-1.734,7.006,7.006,0,0,0,2.158-4.534c.284-2.1.379-4.231.547-6.342.179-2.257.408-4.534.405-6.8,0-.375-.605-.484-.674-.091" transform="translate(-7.781 -1.213)" fill="#180659"/>
    <path id="Path_2788" data-name="Path 2788" d="M823.534,165.356a12.032,12.032,0,0,0,1.806,5.63,16.81,16.81,0,0,0,3.859,4.794.627.627,0,0,0,.718.092A8.683,8.683,0,0,0,832.439,174a8.352,8.352,0,0,0,1.608-2.341,7.322,7.322,0,0,0,.524-1.575c.1-.507.307-1.241-.027-1.681a.392.392,0,0,0-.605-.078c-.36.349-.33.89-.451,1.358a7.835,7.835,0,0,1-.517,1.45,8.005,8.005,0,0,1-1.542,2.164,7.617,7.617,0,0,1-2.11,1.553l.719.092a17.206,17.206,0,0,1-3.621-4.336,12.681,12.681,0,0,1-2.225-5.248c-.04-.414-.662-.432-.659,0" transform="translate(-7.939 -1.421)" fill="#180659"/>
    <path id="Path_2789" data-name="Path 2789" d="M838.275,141.2c.607.353.76,1.124,1.034,1.726a3.4,3.4,0,0,0,1.1,1.38,7.4,7.4,0,0,0,4,1.409,4.672,4.672,0,0,0,3.463-1.861,7.935,7.935,0,0,0,1.114-1.982,7.651,7.651,0,0,0,.683-2.317.431.431,0,0,0-.8-.215,11.922,11.922,0,0,0-.685,1.785,7.49,7.49,0,0,1-1.083,1.962,3.437,3.437,0,0,1-3.619,1.378c-1.138-.3-2.553-.715-3.211-1.773-.513-.826-.758-1.733-1.753-2.095-.356-.13-.57.418-.253.6" transform="translate(-8.08 -1.198)" fill="#180659"/>
    <path id="Path_2790" data-name="Path 2790" d="M855.536,137.3c2.983,3.081,4.134,7.21,5.732,11.067,1.5,3.614,3.816,7.607,8.271,7.4l-.6-.455a13.587,13.587,0,0,1-.54,8.075,13.178,13.178,0,0,1-.852,1.815c-.226.4-.722,1.551-1.2,1.613-.261.035-.775-.313-1.017-.427q-.471-.22-.927-.468a18.894,18.894,0,0,1-1.975-1.245c-.647-.463-1.266.609-.623,1.067a18.665,18.665,0,0,0,2.322,1.422,6.157,6.157,0,0,0,2.275.9c.767.021,1.185-.66,1.567-1.221a14.132,14.132,0,0,0,1.222-2.206,15.7,15.7,0,0,0,.943-9.652.626.626,0,0,0-.6-.455c-4.532.014-6.372-4.77-7.767-8.327-1.367-3.483-2.652-7.192-5.786-9.482-.349-.255-.734.29-.45.584" transform="translate(-8.247 -1.177)" fill="#180659"/>
    <path id="Path_2791" data-name="Path 2791" d="M847.483,151.929c-2.848-1.679-5.7,1.407-6.876,3.775a6.08,6.08,0,0,0,1.464,7.338,6.234,6.234,0,0,0,7.289.529,6.71,6.71,0,0,0,3.229-6.852,7.716,7.716,0,0,0-1.91-4.067c-.961-1.036-2.513-1.813-3.848-1.007-.557.337-.047,1.216.511.874,1.08-.662,2.3.37,2.931,1.2a6.221,6.221,0,0,1,1.212,2.892,5.793,5.793,0,0,1-2.211,5.565,5.2,5.2,0,0,1-5.8.373,4.985,4.985,0,0,1-2.3-5.241c.575-2.345,3.28-5.925,6.061-4.8.343.139.551-.406.247-.586" transform="translate(-8.098 -1.303)" fill="#180659"/>
    <path id="Path_2792" data-name="Path 2792" d="M840.518,159.219a4.989,4.989,0,0,0-2.777,2.383c-.552,1.5,1.826,1.123,2.529.9a25.206,25.206,0,0,0,4.344-1.692c1.357-.737.063-2.309-.231-3.305l-.523.145a11.515,11.515,0,0,0,1.126,2.281.409.409,0,0,0,.546.144,17,17,0,0,1,1.962-.774q-.158-.376-.316-.75c-.451.241-.9.49-1.335.751a2.081,2.081,0,0,0-.76.568c-.368.6.174,1.707.327,2.321l.805-.34a6.814,6.814,0,0,0-1.111-1.692c-.332-.375-.831.163-.538.538a5.823,5.823,0,0,1,.844,1.494.44.44,0,0,0,.849-.234c-.114-.427-.566-1.408-.321-1.731a2.937,2.937,0,0,1,.764-.465q.441-.259.89-.5a.412.412,0,0,0-.316-.749,18.671,18.671,0,0,0-2.147.875l.547.143a23.284,23.284,0,0,1-1.319-2.088c-.178-.305-.62-.037-.469.275a5.3,5.3,0,0,1,.347,1.4c.1.579.107.778-.433,1.018-.907.4-1.834.764-2.769,1.1-.418.15-.837.3-1.264.425a3.338,3.338,0,0,1-.756.158c-.274.013-.308.074-.213-.154a4.966,4.966,0,0,1,2.008-1.753c.356-.206.114-.859-.289-.688" transform="translate(-8.075 -1.354)" fill="#180659"/>
    <path id="Path_2793" data-name="Path 2793" d="M850.2,158.213a8.462,8.462,0,0,0,2.826-1.451,15.216,15.216,0,0,0,1.226-.925,3.688,3.688,0,0,0,1.009-.992.931.931,0,0,0-.739-1.328,4.857,4.857,0,0,0-2.833.858c-.49.275-.051,1.027.441.754a6.853,6.853,0,0,1,1.1-.5,2.062,2.062,0,0,1,.769-.212c.618.136-.1.531-.293.7-.247.213-.5.417-.758.617-.956.743-2.105,1.247-3.027,2.011-.238.2.026.522.275.474" transform="translate(-8.193 -1.322)" fill="#180659"/>
    <path id="Path_2794" data-name="Path 2794" d="M835.7,187.012a21.973,21.973,0,0,0,7.427,1.28,56.821,56.821,0,0,0,7.117-.086c4.441-.349,9.094-1.275,12.8-3.879a.593.593,0,0,0-.6-1.023,31.273,31.273,0,0,1-12.583,3.51,56.318,56.318,0,0,1-6.734.056c-2.455-.122-4.859-.548-7.29-.869-.628-.082-.618.813-.137,1.013" transform="translate(-8.053 -1.577)" fill="#180659"/>
    <path id="Path_2795" data-name="Path 2795" d="M869.845,155.926c4.559-1.873,2.076-7.627,1.379-11.124-.79-3.969-.787-9.844,3.831-11.524a2.425,2.425,0,0,1,1.633-.149c.781.293.647.951.184,1.457a6.005,6.005,0,0,0-1.427,2.211c-.689,2.089-.069,4.279.407,6.339,1.028,4.451,1.924,9.144,1.556,13.732a14.972,14.972,0,0,1-2.174,7.042,5.272,5.272,0,0,1-3.008,2.277,4.235,4.235,0,0,1-3.586-.313c-.53-.408-1.048.5-.524.9,1.641,1.261,4.52.719,6.117-.358a9.815,9.815,0,0,0,3.445-5.386c1.454-4.679.8-9.746-.061-14.472q-.365-2-.83-3.978a15.112,15.112,0,0,1-.608-3.988,4.665,4.665,0,0,1,1.356-3.192,1.961,1.961,0,0,0,.635-2.258c-.974-2.033-3.8-.923-5.118.072a8.484,8.484,0,0,0-3.077,5.16c-.562,2.848,0,5.735.642,8.518.568,2.475,2.165,6.715-1.048,8.034-.61.251-.344,1.258.276,1" transform="translate(-8.367 -1.136)" fill="#180659"/>
    <path id="Path_2796" data-name="Path 2796" d="M866.878,126.352a47.748,47.748,0,0,0,8.8,2.125c.655.093.937-.909.276-1a47.749,47.749,0,0,1-8.8-2.125c-.634-.218-.906.786-.276,1" transform="translate(-8.354 -1.079)" fill="#180659"/>
    <path id="Path_2797" data-name="Path 2797" d="M888.649,127.287a9.27,9.27,0,0,0,1.792,1.221c.646.394,1.275.818,1.9,1.251a24.65,24.65,0,0,1,3.47,2.96c.793.807,2.036-.437,1.241-1.241a27.207,27.207,0,0,0-3.732-3.148,10.014,10.014,0,0,0-4.252-2.046c-.522-.057-.752.67-.415,1" transform="translate(-8.565 -1.087)" fill="#180659"/>
    <path id="Path_2798" data-name="Path 2798" d="M896.642,132.7a4.708,4.708,0,0,0,2.422-.435,5.138,5.138,0,0,0,2.052-1.056,3.163,3.163,0,0,0,.6-1.493,11.315,11.315,0,0,1,.277-1.777c.278-.689,1.328-.453,1.678.047a4.035,4.035,0,0,1,.448,1.832,17.829,17.829,0,0,1,.165,2c-.009.881-.491,1.9-.164,2.753a.448.448,0,0,0,.652.266c.843-.58.95-1.8,1-2.751a15.4,15.4,0,0,0-.173-2.458c-.177-1.59-.6-3.224-2.4-3.564a2.34,2.34,0,0,0-2.259.738,4.224,4.224,0,0,0-.6,2.14,4.347,4.347,0,0,1-.251,1.06c-.15.319-.457.4-.773.551a15.127,15.127,0,0,0-2.9,1.292.515.515,0,0,0,.226.856" transform="translate(-8.64 -1.085)" fill="#180659"/>
    <path id="Path_2799" data-name="Path 2799" d="M904.2,127.106a5.262,5.262,0,0,1,1.282-1.977c.351-.332.575-.418.68.121a5.214,5.214,0,0,1,.044,1.525.618.618,0,0,0,.924.53,8.7,8.7,0,0,1,.9-.514c.14-.066.916-.5,1.062-.408.319.2-.273,1.744-.382,2.057a.625.625,0,0,0,.763.764,6.9,6.9,0,0,1,1.2-.224c.185-.015.37-.022.556-.022-.018-.1-.046-.046-.083.173a3.673,3.673,0,0,1-.493.972l-.493.972a.621.621,0,0,0,.692.9,2.475,2.475,0,0,1,.533-.091.3.3,0,0,1,.034.518,3.541,3.541,0,0,1-.419.754c-.315.551-.644,1.1-.993,1.624a15.733,15.733,0,0,1-2.47,2.763,54.041,54.041,0,0,1-5.343,4.511,21.38,21.38,0,0,1-6.069,3.172,7.449,7.449,0,0,1-1.775.4,3.864,3.864,0,0,1-1.829-.482c-1.2-.556-2.367-1.191-3.51-1.857a.784.784,0,0,0-.79,1.353c1.144.667,2.31,1.3,3.51,1.858a5.067,5.067,0,0,0,3.208.566,18.523,18.523,0,0,0,6.257-2.592,35.46,35.46,0,0,0,5.329-4.089,25.046,25.046,0,0,0,4.7-5.034c.385-.628.741-1.275,1.078-1.929a3.272,3.272,0,0,0,.572-1.523c-.064-1.235-1.435-1.322-2.343-1.1l.691.9c.325-.649.67-1.292.975-1.95a1.684,1.684,0,0,0,.185-1.327c-.456-1.151-2.351-.634-3.237-.409l.764.763c.307-.869,1.053-2.879-.012-3.509-.969-.572-2.587.471-3.386.981l.924.531c.1-1.072-.035-3.9-1.82-3.2a3.728,3.728,0,0,0-2.08,3.436.341.341,0,0,0,.667.09" transform="translate(-8.559 -1.063)" fill="#180659"/>
    <path id="Path_2800" data-name="Path 2800" d="M897.135,131.718c-1.259-.29-2.152,1.466-2.553,2.407a8.967,8.967,0,0,0,3.861,11.217.648.648,0,0,0,.654-1.119,8.284,8.284,0,0,1-3.7-5.049,7.632,7.632,0,0,1,.056-3.5,9.312,9.312,0,0,1,.591-1.676c.213-.457.538-1.506,1.09-1.626a.343.343,0,0,0,0-.655" transform="translate(-8.618 -1.134)" fill="#180659"/>
    <path id="Path_2801" data-name="Path 2801" d="M859.558,133.986a11.6,11.6,0,0,1-1.323,5.153c-.4.823.848,1.541,1.224.717a10.308,10.308,0,0,0,1.093-6c-.082-.577-.989-.419-.994.135" transform="translate(-8.273 -1.149)" fill="#180659"/>
    <path id="Path_2802" data-name="Path 2802" d="M870.26,142.769c-1.221-1.362-2.523.824-3.472,1.294a10.641,10.641,0,0,1-5.522.612l.7.918a1.214,1.214,0,0,0,.025-.53l-.437.769.1-.03a.592.592,0,0,0,.14-1.07q-.067-.03-.131-.065a.734.734,0,0,0-1.066.434l-.027.106a.736.736,0,0,0,.7.918,13.893,13.893,0,0,0,4.985-.453,4.563,4.563,0,0,0,1.844-.913c.617-.551.966-1.338,1.9-1.338a.386.386,0,0,0,.269-.651" transform="translate(-8.296 -1.225)" fill="#180659"/>
    <path id="Path_2803" data-name="Path 2803" d="M876.567,143.075a8.391,8.391,0,0,1,2.747,1.218,3.574,3.574,0,0,0,2.464.926,23.713,23.713,0,0,0,6.646-.516c.717-.176.587-1.423-.179-1.324a37.905,37.905,0,0,1-6.608.471,1.979,1.979,0,0,1-1.372-.511,5.979,5.979,0,0,0-1.139-.778,3.61,3.61,0,0,0-2.56-.395.475.475,0,0,0,0,.907" transform="translate(-8.447 -1.223)" fill="#180659"/>
    <path id="Path_2804" data-name="Path 2804" d="M886.34,133.531a45.34,45.34,0,0,1,1.731,9.743,49.644,49.644,0,0,1,.088,5.021c-.027.746-.1,1.487-.136,2.231a1.256,1.256,0,0,0,.1.67c.383.887.875,1.74,1.3,2.608q1.229,2.518,2.376,5.074c.834,1.869,1.633,3.757,2.32,5.686a15.946,15.946,0,0,1,1.111,4.314,23.011,23.011,0,0,1-.384,4.669c-.312,2.009-.722,4-1.158,5.987-.78,3.56-1.736,7.089-2.414,10.67-.279,1.478-.177,2.953-.4,4.433a3.055,3.055,0,0,1-1.264,2.406,1.732,1.732,0,0,1-1.5,0,18.036,18.036,0,0,1-4.835-2.416,18.251,18.251,0,0,1-2.177-1.649,4.751,4.751,0,0,1-1.265-1.481.69.69,0,0,1-.063-.287,6.46,6.46,0,0,1,.013-.769,20.034,20.034,0,0,1,.282-2.1c.318-1.824.727-3.632,1.152-5.434.363-1.547.756-3.085,1.128-4.63a3.011,3.011,0,0,0,.082-2.186,40.244,40.244,0,0,0-2.063-3.5c-.815-1.322-1.58-2.731-2.506-3.979-.2-.27-.623-.859-.974-.93l.312.24-.054-.087c-.359-.567-1.262-.044-.9.527.018.03.036.058.055.087-.018-.134-.036-.269-.053-.4a2.507,2.507,0,0,0,.428,1.373c.348.652.779,1.272,1.165,1.9.9,1.464,1.795,2.93,2.645,4.421.141.246.28.492.414.742.052.1.1.2.156.3.019.036.033.075.053.11.08.136-.011,0,0-.014-.012.012.068.281,0-.082-.019-.1.065-.221.006-.076a3.715,3.715,0,0,0-.12.514c-.344,1.417-.708,2.829-1.052,4.247-.459,1.895-.9,3.8-1.269,5.711a15.4,15.4,0,0,0-.478,4.15c.134,1.441,1.467,2.547,2.521,3.387a24.472,24.472,0,0,0,5.086,3.136c1.337.607,2.959,1.335,4.4.668,2.173-1.008,2.365-3.754,2.395-5.843a16.754,16.754,0,0,1,.5-3.463c.4-1.849.841-3.689,1.268-5.532a93.287,93.287,0,0,0,2.3-12.142,13.15,13.15,0,0,0-.17-4.342,34.908,34.908,0,0,0-1.836-5.264c-1.447-3.488-3.092-6.893-4.816-10.251a7.787,7.787,0,0,1-.561-1.078c-.055-.174.028-.128.03-.1-.056-.817.087-1.686.1-2.509a44.811,44.811,0,0,0-1-9.845,46.884,46.884,0,0,0-1.314-4.847.386.386,0,0,0-.745.205" transform="translate(-8.447 -1.146)" fill="#180659"/>
    <path id="Path_2805" data-name="Path 2805" d="M875.849,168a11.433,11.433,0,0,1-1.391,2,13.978,13.978,0,0,0-1.337,2.592c-.38.883-.776,1.762-1.138,2.653-.294.726-.673,1.706-.194,2.421a.534.534,0,0,0,.964-.126c.125-.4.079-.815.191-1.224a10.416,10.416,0,0,1,.517-1.322c.373-.872.735-1.752,1.126-2.616a11.541,11.541,0,0,1,1.284-2.237,3.8,3.8,0,0,0,.892-1.893.494.494,0,0,0-.914-.248" transform="translate(-8.402 -1.444)" fill="#180659"/>
    <path id="Path_2806" data-name="Path 2806" d="M862.185,177.6c.6,1.675,2.758,1.711,4.261,1.739a9.127,9.127,0,0,0,5.313-1.621.675.675,0,0,0,.3-.739.594.594,0,0,0-.3-.391.641.641,0,0,0-.659,0,8.212,8.212,0,0,1-4.157,1.455,14.869,14.869,0,0,1-2.152-.087,2.559,2.559,0,0,1-1.9-.768.426.426,0,0,0-.707.411" transform="translate(-8.312 -1.52)" fill="#180659"/>
    <path id="Path_2807" data-name="Path 2807" d="M881.314,176.8c.293,1.151,1.412,1.634,2.455,1.95a21.45,21.45,0,0,0,4.443.858,10.472,10.472,0,0,0,4.042-.41c.962-.312,2.8-.99,2.879-2.165a.52.52,0,0,0-.512-.513c-.543-.009-.856.368-1.289.64a6.606,6.606,0,0,1-1.566.718,9.21,9.21,0,0,1-3.28.36,19.905,19.905,0,0,1-3.616-.614,5.536,5.536,0,0,1-2.831-1.246.437.437,0,0,0-.724.422" transform="translate(-8.496 -1.518)" fill="#180659"/>
    <path id="Path_2808" data-name="Path 2808" d="M865.026,193.991a2.9,2.9,0,0,0,1.757.832c.7.175,1.4.4,2.1.567a.543.543,0,0,0,.605-.788c-.36-.552-.983-.61-1.591-.736a9.994,9.994,0,0,1-2.351-.553.434.434,0,0,0-.523.678" transform="translate(-8.338 -1.664)" fill="#180659"/>
    <path id="Path_2809" data-name="Path 2809" d="M875.543,194.806c1.557.8,3.4.234,5,.962,1.642.749,3.164,1.719,4.846,2.4,1.643.663,3.355.844,4.684,2.112.976.931,1.861,2.241,3.161,2.738.448.172.859-.52.478-.823a17.265,17.265,0,0,1-1.7-1.424c-.523-.536-1.018-1.1-1.591-1.588-1.317-1.113-2.934-1.319-4.5-1.919-1.776-.683-3.312-1.8-5.047-2.557-1.584-.688-3.439-.45-5.122-.658-.406-.051-.55.585-.206.761" transform="translate(-8.439 -1.671)" fill="#180659"/>
    <path id="Path_2810" data-name="Path 2810" d="M892.2,201.771c.811.341,1.624.655,2.452.952a5.725,5.725,0,0,1,2.171,1.169c1.065,1.047,1.49,2.532,2.719,3.452,1.2.9,2.725,1.253,3.844,2.265A14.925,14.925,0,0,1,905,211.484c.505.64,1.021,1.6,1.758,1.975a.325.325,0,0,0,.47-.362,6.074,6.074,0,0,0-1.4-2.035,17.011,17.011,0,0,0-1.793-2.1c-1.2-1.088-2.828-1.436-4.076-2.433-1.213-.972-1.619-2.61-2.858-3.566a13.463,13.463,0,0,0-4.726-1.8c-.4-.11-.53.456-.167.609" transform="translate(-8.599 -1.732)" fill="#180659"/>
    <path id="Path_2811" data-name="Path 2811" d="M906.279,212.228a4.859,4.859,0,0,0,2,2.218,5.268,5.268,0,0,0,1.324.531c.487.118,1.166.006,1.579.3A10.41,10.41,0,0,1,912.6,216.9l1.3,1.482a16.346,16.346,0,0,1,2.284,2.9c.653,1.222.245,2.271.176,3.55a6.475,6.475,0,0,0,.722,3.175,6.794,6.794,0,0,0,.947,1.434,5.28,5.28,0,0,1,1.124,1.387c.307.737.066,1.546.841,2.01a.042.042,0,0,0,.051-.065c-.7-.8-.213-2-.592-2.926-.443-1.083-1.352-1.9-1.761-3.022a6.9,6.9,0,0,1-.1-3.455,4.732,4.732,0,0,0-.669-2.922,16.391,16.391,0,0,0-2.064-2.627c-.871-.983-1.737-1.969-2.61-2.95a2.055,2.055,0,0,0-1.041-.769c-.5-.119-1.026-.059-1.531-.186a5.041,5.041,0,0,1-2.853-2,.311.311,0,0,0-.537.314" transform="translate(-8.737 -1.823)" fill="#180659"/>
    <path id="Path_2812" data-name="Path 2812" d="M920.409,233.631a4.318,4.318,0,0,1,.846,1.778c.1.581-.146,1.123.146,1.662a.322.322,0,0,0,.553,0c.3-.655-.092-1.177-.355-1.781a7.591,7.591,0,0,0-1.044-1.772c-.065-.081-.208.028-.146.113" transform="translate(-8.873 -2.01)" fill="#180659"/>
    <path id="Path_2813" data-name="Path 2813" d="M910.945,216.286c-.51.059-1.173.194-1.388.72a.3.3,0,0,0,.283.374c.384,0,.72-.274,1.1-.321a.4.4,0,0,0,.385-.386.389.389,0,0,0-.385-.387" transform="translate(-8.768 -1.862)" fill="#180659"/>
    <path id="Path_2814" data-name="Path 2814" d="M911.345,218.523l-.4.3a.8.8,0,0,0-.354.4.26.26,0,0,0,.249.326.8.8,0,0,0,.484-.238l.39-.306c.27-.213-.092-.69-.371-.482" transform="translate(-8.778 -1.881)" fill="#180659"/>
    <path id="Path_2815" data-name="Path 2815" d="M912.861,220.54a1.889,1.889,0,0,0-.613,1.226.314.314,0,0,0,.53.22c.249-.274.393-.616.635-.894.325-.377-.211-.926-.552-.552" transform="translate(-8.794 -1.898)" fill="#180659"/>
    <path id="Path_2816" data-name="Path 2816" d="M914.364,222.261a2.458,2.458,0,0,0-.5,1.144.351.351,0,0,0,.593.246,5.109,5.109,0,0,0,.576-1,.386.386,0,0,0-.666-.39" transform="translate(-8.81 -1.912)" fill="#180659"/>
    <path id="Path_2817" data-name="Path 2817" d="M888.9,202.495a5.28,5.28,0,0,0,.958,1.4,2.054,2.054,0,0,0,.638.286,2.883,2.883,0,0,1,1,.63,4.41,4.41,0,0,0,1.644.952c.539.153,1.376.361,1.794-.1a.218.218,0,0,0,.034-.26c-.321-.444-.834-.361-1.336-.471a4.178,4.178,0,0,1-1.818-1.067,3.072,3.072,0,0,0-1.24-.584c-.53-.166-.864-.753-1.257-1.115-.211-.194-.59.06-.415.321" transform="translate(-8.569 -1.74)" fill="#180659"/>
    <path id="Path_2818" data-name="Path 2818" d="M897.627,208.831a1.9,1.9,0,0,0,1.155,1.4,2.871,2.871,0,0,1,1.375.847,2.875,2.875,0,0,0,.875.725,6.637,6.637,0,0,1,1.146.646,6.944,6.944,0,0,1,.779.848c.408.473.906,1,1.589.833a.235.235,0,0,0,.1-.388c-.385-.461-.875-.833-1.267-1.3a4.094,4.094,0,0,0-1.491-1.178,4.634,4.634,0,0,1-.986-.535,8.258,8.258,0,0,0-.774-.63c-.783-.474-1.75-.322-2.064-1.39a.228.228,0,0,0-.439.121" transform="translate(-8.653 -1.795)" fill="#180659"/>
    <path id="Path_2819" data-name="Path 2819" d="M905.67,215.076a5.283,5.283,0,0,0,1.339,1.277.362.362,0,0,0,.43-.056c.02-.024.038-.048.055-.071a.361.361,0,0,0-.055-.431,9.656,9.656,0,0,0-1.362-1.126.288.288,0,0,0-.407.407" transform="translate(-8.73 -1.848)" fill="#180659"/>
    <path id="Path_2820" data-name="Path 2820" d="M902.521,214.392a13.287,13.287,0,0,0,.979,1.118c.278.282.673.69,1.1.657a.219.219,0,0,0,.206-.271c-.063-.412-.523-.716-.816-.972a13.662,13.662,0,0,1-1.018-.986c-.288-.309-.7.138-.453.453" transform="translate(-8.7 -1.841)" fill="#180659"/>
    <path id="Path_2821" data-name="Path 2821" d="M912.9,224.8c.424,1.85,2.062,2.764,3.031,4.294.532.84,1.022,1.71,1.488,2.589a8.671,8.671,0,0,0,1.375,2.42.193.193,0,0,0,.325-.135,5.811,5.811,0,0,0-.912-2.429q-.652-1.288-1.425-2.5a9.755,9.755,0,0,0-1.479-1.9,5.013,5.013,0,0,1-1.757-2.511c-.1-.419-.741-.242-.645.177" transform="translate(-8.801 -1.932)" fill="#180659"/>
    <path id="Path_2822" data-name="Path 2822" d="M916.012,231.928l.746,1.087a2.721,2.721,0,0,0,.765.83.164.164,0,0,0,.239-.183,2.791,2.791,0,0,0-.518-1.015l-.71-1.022c-.22-.317-.742-.018-.521.3" transform="translate(-8.83 -1.993)" fill="#180659"/>
    <path id="Path_2823" data-name="Path 2823" d="M881.654,197.969c-.594-.346-2.216-1.086-2.748-.284-.546.823,1.234,1.594,1.749,1.809,1.177.494,2.412.756,3.552,1.346.5.259,2.35,1.087,2.5.009.022-.159-.037-.373-.228-.4l-.066-.01c-.161-.025-.369.07-.353.269-.009-.113-1.02-.411-1.194-.5-.321-.158-.629-.336-.958-.482a19.641,19.641,0,0,0-1.914-.673,7.238,7.238,0,0,1-1.915-.843c-.233-.16-.394-.491-.475-.148s.268.166.551.155a3.246,3.246,0,0,1,1.31.209c.269.1.433-.318.193-.458" transform="translate(-8.472 -1.699)" fill="#180659"/>
    <path id="Path_2824" data-name="Path 2824" d="M878.246,200.388a1.807,1.807,0,0,0,1.484.864.294.294,0,0,0,.078-.575,1.651,1.651,0,0,1-1.049-.589c-.219-.306-.729-.021-.513.3" transform="translate(-8.466 -1.722)" fill="#180659"/>
    <path id="Path_2825" data-name="Path 2825" d="M833.834,209.913c1.6-.955,3.175-1.965,4.777-2.924a19.272,19.272,0,0,1,4.794-2.494.47.47,0,0,0-.249-.905,19.283,19.283,0,0,0-4.885,2.54,30.2,30.2,0,0,0-4.747,3.382c-.216.2.061.548.309.4" transform="translate(-8.035 -1.753)" fill="#180659"/>
    <path id="Path_2826" data-name="Path 2826" d="M840.364,209.112a10.774,10.774,0,0,1,1.909-1.547c.435-.279,1.319-.492,1.446-1.031a.169.169,0,0,0-.075-.184c-.556-.3-1.348.4-1.8.7a10.125,10.125,0,0,0-1.858,1.682c-.223.254.134.621.374.375" transform="translate(-8.097 -1.776)" fill="#180659"/>
    <path id="Path_2827" data-name="Path 2827" d="M843.852,209.377c.271-.141.548-.276.815-.422.248-.137.53-.291.6-.583a.3.3,0,0,0-.2-.36,1.053,1.053,0,0,0-.813.235c-.261.159-.515.331-.773.5a.367.367,0,0,0,.37.634" transform="translate(-8.13 -1.791)" fill="#180659"/>
    <path id="Path_2828" data-name="Path 2828" d="M846.259,210.522c.222-.136.45-.265.667-.409.171-.114.417-.339.284-.573-.121-.212-.431-.121-.594-.031-.237.131-.459.3-.684.452-.347.229-.032.781.328.561" transform="translate(-8.154 -1.803)" fill="#180659"/>
    <path id="Path_2829" data-name="Path 2829" d="M877.222,205.266a3.737,3.737,0,0,0-1.22-.548c-.482-.15-.922-.373-1.394-.542a6.18,6.18,0,0,0-1.333-.243,15.112,15.112,0,0,0-1.977-.205.411.411,0,0,0-.108.8c1.014.271,2.134.154,3.133.469a8.231,8.231,0,0,0,1.157.411,4.346,4.346,0,0,1,1.476.312.265.265,0,0,0,.267-.457" transform="translate(-8.396 -1.754)" fill="#180659"/>
    <path id="Path_2830" data-name="Path 2830" d="M873.466,206.243c-1.613-1.248-3.738-.877-5.6-.6-.278.042-.185.447.063.465.439.034.851.135,1.293.13s.88-.039,1.322-.038a4.831,4.831,0,0,1,2.53.548c.3.18.682-.277.388-.5" transform="translate(-8.365 -1.768)" fill="#180659"/>
    <path id="Path_2831" data-name="Path 2831" d="M882.514,172.429c2.467-4.317,8.612-6.392,12.814-3.3.259.19.567-.173.422-.423a4.733,4.733,0,0,0-3.323-1.807,10.08,10.08,0,0,0-4.5.218,9.523,9.523,0,0,0-5.9,5.031c-.159.321.3.6.484.284" transform="translate(-8.503 -1.436)" fill="#180659"/>
    <path id="Path_2832" data-name="Path 2832" d="M878.823,165.324a13.95,13.95,0,0,1,5.062-6.2,8.118,8.118,0,0,1,4.064-1.057,12.759,12.759,0,0,1,2.156.163,10.04,10.04,0,0,0,1.857.305.353.353,0,0,0,.176-.651,5.518,5.518,0,0,0-2.166-.6,12.184,12.184,0,0,0-2.149-.151,9.057,9.057,0,0,0-4.3,1.13,12.3,12.3,0,0,0-5.36,6.788c-.118.385.478.651.661.279" transform="translate(-8.466 -1.353)" fill="#180659"/>
    <path id="Path_2833" data-name="Path 2833" d="M878.17,155.074a4.847,4.847,0,0,0,2.562-.088,16.187,16.187,0,0,0,2.812-.853,39.464,39.464,0,0,0,5.165-2.61.5.5,0,0,0-.5-.864,38.37,38.37,0,0,1-4.926,2.51,18.034,18.034,0,0,1-2.42.781,18.4,18.4,0,0,0-2.688.5.329.329,0,0,0,0,.628" transform="translate(-8.464 -1.297)" fill="#180659"/>
    <path id="Path_2834" data-name="Path 2834" d="M878.17,152.65a5.826,5.826,0,0,0,2.536-.111,16.6,16.6,0,0,0,2.921-.881,34.9,34.9,0,0,0,5.215-2.669.472.472,0,0,0-.475-.815,33.617,33.617,0,0,1-4.989,2.58,17.57,17.57,0,0,1-2.534.8c-.875.2-1.82.206-2.673.47a.328.328,0,0,0,0,.627" transform="translate(-8.464 -1.275)" fill="#180659"/>
    <path id="Path_2835" data-name="Path 2835" d="M864.169,151.972l-.1.015a.241.241,0,0,0-.169.171c-.293.955,2.329,1.27,2.928,1.359a16.45,16.45,0,0,0,4.683-.144c.572-.079.329-.949-.24-.87a17.207,17.207,0,0,1-3.7.2c-.308-.024-3.177-.556-3.188-.506a.182.182,0,0,0-.22-.22" transform="translate(-8.328 -1.308)" fill="#180659"/>
    <path id="Path_2836" data-name="Path 2836" d="M893.2,129.1a7.173,7.173,0,0,0-4.036,3.934,13.682,13.682,0,0,0-1.076,2.988c-.187.809-.621,2.293-.15,3.029a.248.248,0,0,0,.421,0,2.221,2.221,0,0,0,.236-1.148,13.621,13.621,0,0,1,.22-1.414,12.712,12.712,0,0,1,.988-2.933,8.9,8.9,0,0,1,3.525-4.152.167.167,0,0,0-.129-.3" transform="translate(-8.558 -1.111)" fill="#180659"/>
    <path id="Path_2837" data-name="Path 2837" d="M884.6,127.889c.4,1.545,1.012,3.03,1.494,4.549.228.719.443,1.441.655,2.165.162.555.255,1.349.8,1.651a.158.158,0,0,0,.211-.056c.315-.476.057-1.191-.073-1.707-.207-.821-.457-1.635-.727-2.438a20.642,20.642,0,0,0-1.883-4.365.261.261,0,0,0-.475.2" transform="translate(-8.528 -1.098)" fill="#180659"/>
    <path id="Path_2838" data-name="Path 2838" d="M882.307,135.815c-2.313-.393-2.137,3.994.206,3.594a1.822,1.822,0,0,0,1.55-1.87,1.878,1.878,0,0,0-1.77-1.711c-.5.007-.464.689,0,.748a1.132,1.132,0,0,1,1.005.758,1.049,1.049,0,0,1-.645,1.105c-1.256.51-1.505-2-.418-2.1.277-.025.391-.473.071-.527" transform="translate(-8.49 -1.169)" fill="#180659"/>
    <path id="Path_2839" data-name="Path 2839" d="M863.3,137.015c-.566-.352-.967.214-1.2.685a1.983,1.983,0,0,0-.126,1.763,1.915,1.915,0,0,0,2.965.515,1.825,1.825,0,0,0,.1-2.965,2.034,2.034,0,0,0-2.965,1.149c-.063.33.313.758.65.5.415-.317.72-.881,1.3-.893.72-.015.83.663.486,1.158a1.043,1.043,0,0,1-1.363.4.78.78,0,0,1-.373-.88c.029-.162.2-.893.374-.888a.291.291,0,0,0,.146-.537" transform="translate(-8.308 -1.177)" fill="#180659"/>
    <path id="Path_2840" data-name="Path 2840" d="M866.181,127.518c-.063,1.038,1.135,1.678,1.937,2.04a10.93,10.93,0,0,0,10.622-.982c.526-.389.054-1.264-.524-.9-3.487,2.207-8.489,2.649-11.709-.293a.193.193,0,0,0-.326.135" transform="translate(-8.35 -1.096)" fill="#180659"/>
    <path id="Path_2841" data-name="Path 2841" d="M794.914,213.62c-.176-.232-.473-.231-.746-.26a.35.35,0,0,0-.35.35c.015.287-.212.527-.185.829a.859.859,0,0,0,.548.669,1.343,1.343,0,0,0,1.588-.273,1.171,1.171,0,0,0,.082-1.3c-.361-.559-.96-.4-1.515-.305-.32.057-.251.608.077.573.283-.031.8-.319,1.036-.086a.474.474,0,0,1-.117.742.913.913,0,0,1-.855-.024c-.168-.086-.114-.14-.053-.306a1.2,1.2,0,0,0,.094-.517c-.086.112-.171.225-.256.337.251-.035.5-.049.653-.268a.154.154,0,0,0,0-.16" transform="translate(-7.651 -1.836)" fill="#180659"/>
    <path id="Path_2842" data-name="Path 2842" d="M801.338,190.844a1.18,1.18,0,0,0-1.054,1.7,1.379,1.379,0,0,0,2.18.363,1.351,1.351,0,0,0-.235-2.221,1.661,1.661,0,0,0-1.323-.081.653.653,0,0,0-.4.926.251.251,0,0,0,.428,0,.739.739,0,0,1,1.02-.146c.39.242.243.8-.081,1.036a.64.64,0,0,1-.9-.161c-.242-.351.078-.781.437-.87a.278.278,0,0,0-.073-.543" transform="translate(-7.714 -1.64)" fill="#180659"/>
    <path id="Path_2843" data-name="Path 2843" d="M918.12,85.74a1.18,1.18,0,0,0-1.054,1.7,1.379,1.379,0,0,0,2.18.363,1.351,1.351,0,0,0-.235-2.221,1.661,1.661,0,0,0-1.323-.081.653.653,0,0,0-.4.926.251.251,0,0,0,.428,0,.739.739,0,0,1,1.02-.146c.39.242.243.8-.081,1.036a.64.64,0,0,1-.9-.16c-.242-.352.078-.782.437-.871a.278.278,0,0,0-.073-.543" transform="translate(-8.84 -0.735)" fill="#180659"/>
    <path id="Path_2844" data-name="Path 2844" d="M806.149,183.649c.629.523,1.467,1.231,1.213,2.153-.194.7-.874,1.247-1.269,1.846-.149.226.16.565.389.389a3.131,3.131,0,0,1,2.376-.945,8.317,8.317,0,0,1,2.357,1.135c.258.141.643-.1.531-.408a7.92,7.92,0,0,0-.979-1.587c-.6-.929-.119-1.821.4-2.656.211-.34-.193-.652-.506-.508a4.291,4.291,0,0,1-2.114.687c-.723-.056-1.45-.212-2.168-.315-.335-.048-.715.37-.379.651a2.592,2.592,0,0,1,1.173,1.7c.033.669-.522,1.007-.75,1.578-.153.383.433.585.638.27.444-.685.975-1.1.868-2a3.386,3.386,0,0,0-1.378-2.1l-.378.651a17.068,17.068,0,0,0,2.734.355,5.648,5.648,0,0,0,2.128-.838l-.506-.508a3.717,3.717,0,0,0-.751,2.534c.174.9.973,1.44,1.272,2.276l.531-.408a7.677,7.677,0,0,0-2.8-1.139,4.153,4.153,0,0,0-2.585,1.083l.389.389c.559-.766,1.454-1.52,1.357-2.564a2.96,2.96,0,0,0-1.591-1.984c-.156-.1-.349.14-.2.262" transform="translate(-7.769 -1.576)" fill="#180659"/>
    <path id="Path_2845" data-name="Path 2845" d="M916.564,174.773a3.842,3.842,0,0,0-2.389,4.151,4.085,4.085,0,0,0,3.87,3.355,4.536,4.536,0,0,0,4.319-3.635,4.105,4.105,0,0,0-2.419-4.524c-1.829-.774-4.659.146-5.157,2.253a.4.4,0,0,0,.72.3,3.805,3.805,0,0,1,2.006-1.8,2.937,2.937,0,0,1,2.619.383,3.277,3.277,0,0,1,.41,4.995,3.222,3.222,0,0,1-4.984-.4,3.394,3.394,0,0,1,1.221-4.57c.257-.16.091-.634-.216-.513" transform="translate(-8.813 -1.497)" fill="#180659"/>
    <path id="Path_2846" data-name="Path 2846" d="M913.966,173.567a7.033,7.033,0,0,0,1.936,4.162,16.584,16.584,0,0,0,3.62,3.474,9.959,9.959,0,0,0,2.091,1.089c.554.212,1.318.532,1.823.052,1-.951-.548-2.8-1.257-3.415-.4-.346-.989.234-.586.586a4.061,4.061,0,0,1,1.086,1.415,2.659,2.659,0,0,1,.174.512q-.241.355-.558.148a2.6,2.6,0,0,1-.765-.319,12.182,12.182,0,0,1-2.92-2.007c-1.669-1.515-3.738-3.445-4.111-5.767-.049-.307-.538-.228-.535.072" transform="translate(-8.811 -1.492)" fill="#180659"/>
    <path id="Path_2847" data-name="Path 2847" d="M781.66,115.962c-.66-.091-1.315-.171-1.977-.245a.34.34,0,0,0-.239.576c.144.127.289.253.444.367a4.32,4.32,0,0,1,.621.391c.27.369-.208,1.181-.349,1.548-.124.325.336.544.559.325.385-.38.809-.721,1.218-1.074l-.5-.064a4.477,4.477,0,0,1,.427,1.641.325.325,0,0,0,.636.086,8.432,8.432,0,0,0,.234-.935c.024-.129.008-.551.1-.614-.006,0,.607.031.6.031a4.735,4.735,0,0,0,.893-.1.3.3,0,0,0,.07-.538,5.823,5.823,0,0,1-1.066-.771c-.324-.383-.2-1.068-.2-1.528a.368.368,0,0,0-.68-.184c-.239.314-.575.938-.989,1.023a4.217,4.217,0,0,1-1.177-.116c-.52-.063-.523.765,0,.821a3.086,3.086,0,0,0,1.661-.014,4.471,4.471,0,0,0,1.137-1.345l-.681-.184a3.5,3.5,0,0,0,.179,1.777c.321.49,1.043.729,1.515,1.031q.114-.269.227-.538c-.47-.065-1.415-.222-1.8.153a.915.915,0,0,0-.183.422,6.079,6.079,0,0,1-.432,1.363l.6.164a4.2,4.2,0,0,0-.52-1.965.324.324,0,0,0-.5-.064c-.385.335-.764.692-1.171,1l.491.378c.216-.516.679-1.271.486-1.844-.18-.53-.977-.774-1.371-1.116q-.164.283-.328.564a6.893,6.893,0,0,0,2,.085c.259-.027.378-.46.068-.5" transform="translate(-7.513 -0.988)" fill="#180659"/>
    <path id="Path_2848" data-name="Path 2848" d="M932.707,133.341a6.927,6.927,0,0,0,2-.085l-.328-.564c-.384.335-1.193.6-1.37,1.116-.2.572.27,1.33.485,1.844l.491-.378c-.407-.31-.784-.665-1.171-1a.323.323,0,0,0-.5.064,4.2,4.2,0,0,0-.521,1.965l.6-.164a5.256,5.256,0,0,1-.421-1.295.99.99,0,0,0-.194-.491c-.387-.371-1.323-.218-1.8-.153l.227.538c.468-.3,1.2-.543,1.515-1.031a3.485,3.485,0,0,0,.179-1.777l-.68.184a4.48,4.48,0,0,0,1.137,1.345,3.072,3.072,0,0,0,1.66.014c.522-.056.521-.884,0-.822a4.354,4.354,0,0,1-1.177.117c-.417-.086-.75-.707-.989-1.023a.369.369,0,0,0-.681.184c0,.449.124,1.156-.2,1.528a5.739,5.739,0,0,1-1.066.771.3.3,0,0,0,.07.538,4.827,4.827,0,0,0,.894.1c.1,0,.584-.039.594-.032a2.443,2.443,0,0,1,.1.615,7.956,7.956,0,0,0,.235.934.325.325,0,0,0,.635-.085,4.5,4.5,0,0,1,.427-1.642l-.5.065c.41.353.833.694,1.218,1.073.223.219.682,0,.559-.325-.149-.39-.616-1.143-.348-1.547.1-.148.476-.286.62-.392s.3-.239.444-.367a.34.34,0,0,0-.238-.576c-.662.074-1.318.155-1.978.246-.307.042-.194.476.068.5" transform="translate(-8.963 -1.133)" fill="#180659"/>
    <path id="Path_2849" data-name="Path 2849" d="M823.066,49.288a3.379,3.379,0,0,0-.825,2.362,16.715,16.715,0,0,0,.208,3.328,7.943,7.943,0,0,0,1.066,2.874c.331.519.925,1.455,1.592,1.517a9.877,9.877,0,0,0,1.822-.155c1.46-.15,2.916-.346,4.365-.58a55.364,55.364,0,0,0,23.031-8.908,40.467,40.467,0,0,0,4.8-3.784.666.666,0,0,0-.464-1.123,107.583,107.583,0,0,0-10.983-.695,86.032,86.032,0,0,0-9.658.32,34.484,34.484,0,0,0-9.324,1.907A36.562,36.562,0,0,0,824,48.508a8.862,8.862,0,0,0-1.413.932c-.652.559.294,1.5.942.943.041-.035.125-.091-.06.045.064-.047.128-.1.194-.141.266-.179.536-.351.814-.512a29.988,29.988,0,0,1,3.729-1.785,33.811,33.811,0,0,1,9.405-2.153A97.89,97.89,0,0,1,854.9,45.79c1.253.093,2.508.2,3.756.345q-.233-.562-.464-1.123a44.568,44.568,0,0,1-9.146,6.466,57.517,57.517,0,0,1-19.166,6.159c-1.584.246-3.183.462-4.784.564l.413.172a6.324,6.324,0,0,1-2.05-3.951,18.026,18.026,0,0,1-.2-2.41,4.04,4.04,0,0,1,.353-2.3.351.351,0,0,0-.549-.423" transform="translate(-7.927 -0.38)" fill="#180659"/>
    <path id="Path_2850" data-name="Path 2850" d="M825.77,58.849c.211.291.7.643.81.967.152.428-.342,1.118-.547,1.466a20.014,20.014,0,0,1-1.6,2.224c-.24.3-.121.867.348.84a10.02,10.02,0,0,0,2.834-.79,16.283,16.283,0,0,0,2.716-1.238c1.611-.962,2-2.356,2.131-4.141.047-.647-.963-.645-1.007,0a6.1,6.1,0,0,1-.354,1.973,3.434,3.434,0,0,1-1.748,1.574,17.34,17.34,0,0,1-2.258.97,8.484,8.484,0,0,1-2.315.668l.348.841a16.774,16.774,0,0,0,2.1-3.081,2.176,2.176,0,0,0,.353-1.433,3.4,3.4,0,0,0-1.172-1.331c-.326-.272-.929.09-.638.493" transform="translate(-7.947 -0.497)" fill="#180659"/>
    <path id="Path_2851" data-name="Path 2851" d="M828.9,46.573a5.968,5.968,0,0,0-5.828-1.949,20.206,20.206,0,0,0-6.306,2.675.606.606,0,0,0,.3,1.119,19.227,19.227,0,0,1,5.773,1.506c.687.3,1.289-.712.594-1.017a21.09,21.09,0,0,0-6.367-1.69q.15.559.3,1.119a19.673,19.673,0,0,1,5.276-2.321,4.889,4.889,0,0,1,2.979-.156,16.777,16.777,0,0,1,2.713,1.276c.328.149.832-.193.562-.562" transform="translate(-7.871 -0.383)" fill="#180659"/>
    <path id="Path_2852" data-name="Path 2852" d="M822.5,51.518c-.87-.25-1.841-.322-2.244.676a7.466,7.466,0,0,0-.2,3.894,5.457,5.457,0,0,0,1.6,3.282c.951.773,1.938.267,2.775-.411.473-.383-.2-1.038-.666-.666-.335.265-.776.621-1.23.416a2.159,2.159,0,0,1-.767-.9,6.349,6.349,0,0,1-.683-2.141,7.786,7.786,0,0,1-.006-2.33,1.506,1.506,0,0,1,.36-.982,1.9,1.9,0,0,1,.982-.287.282.282,0,0,0,.074-.551" transform="translate(-7.904 -0.442)" fill="#180659"/>
    <path id="Path_2853" data-name="Path 2853" d="M815.022,54.29a3.366,3.366,0,0,1,2.491,4.007c-.417,1.671-2.05,2.649-3.5,3.328a36.936,36.936,0,0,0-4.791,2.505c-1.444.954-2.872,1.965-4.226,3.044a24.967,24.967,0,0,0-6.28,8.285,29.978,29.978,0,0,0-2.57,7,66.68,66.68,0,0,0-1.53,9.285L795.7,91.6a14.068,14.068,0,0,1-.635-3.518,36.577,36.577,0,0,1,.805-10.55c1.668-7.933,5.495-16.139,12.264-20.978,2.176-1.554,5.246-3.111,7.931-1.93a.285.285,0,0,0,.287-.492c-2.2-1.441-5-.587-7.119.568a25.331,25.331,0,0,0-7.967,7.417A36.733,36.733,0,0,0,795.5,74.373a41.976,41.976,0,0,0-1.609,12.46,17.242,17.242,0,0,0,.749,5.057.553.553,0,0,0,1.08-.147,64.259,64.259,0,0,1,1.464-8.865,29.4,29.4,0,0,1,2.857-7.561,31.307,31.307,0,0,1,3.116-4.752,21.125,21.125,0,0,1,4.185-3.781,37.191,37.191,0,0,1,4.758-3.1,22.068,22.068,0,0,0,4.653-2.526,4.623,4.623,0,0,0,1.709-4.267A4.01,4.01,0,0,0,815.2,53.64c-.421-.079-.6.535-.179.65" transform="translate(-7.653 -0.459)" fill="#180659"/>
    <path id="Path_2854" data-name="Path 2854" d="M831.036,48.9a3.325,3.325,0,0,0-2.071,1.812,4.515,4.515,0,0,0,.189,3.2,3.486,3.486,0,0,0,2.756,1.527,3.66,3.66,0,0,0,3.019-.947,3.584,3.584,0,0,0-.073-5.288c-1.452-1.3-4.209-1.219-5.148.644a.449.449,0,0,0,.7.542c.972-.777,2.289-1.313,3.423-.494a2.39,2.39,0,0,1-1.385,4.333,2.759,2.759,0,0,1-2.233-.939A3.5,3.5,0,0,1,830,51.108a5.188,5.188,0,0,1,1.325-1.705c.185-.2.006-.624-.292-.5" transform="translate(-7.99 -0.416)" fill="#180659"/>
    <path id="Path_2855" data-name="Path 2855" d="M839.109,48.825a1.781,1.781,0,0,0-1.556,2.245,1.937,1.937,0,0,0,2.5,1.218,1.9,1.9,0,0,0,1.237-2.283,2,2,0,0,0-2.416-1.318.519.519,0,0,0-.367.369c-.163.7.626.629,1.063.7a.753.753,0,0,1,.612,1.072.852.852,0,0,1-1.26.22.957.957,0,0,1,.28-1.541.352.352,0,0,0-.093-.687" transform="translate(-8.074 -0.419)" fill="#180659"/>
    <path id="Path_2856" data-name="Path 2856" d="M929.324,214.881a1.655,1.655,0,0,0-.975,2.908,2.238,2.238,0,0,0,3.342-1.523c.241-1.7-1.749-2.246-3.023-1.662a1.766,1.766,0,0,0-1.083,1.432,1.347,1.347,0,0,0,.842,1.448c.274.084.542-.316.3-.51-1.911-1.5,2.29-3.113,2.339-1.009a1.681,1.681,0,0,1-1.726,1.575c-.619-.008-1.108-.322-1.1-.983a1.329,1.329,0,0,1,1.083-1.311.183.183,0,0,0,0-.366" transform="translate(-8.942 -1.846)" fill="#180659"/>
    <path id="Path_2857" data-name="Path 2857" d="M908.976,197.569a1.189,1.189,0,0,0-.687.764,1.459,1.459,0,0,0,.478,1.062,1.284,1.284,0,0,0,2.089.082c.549-.64.939-1.553.039-2.1a2.008,2.008,0,0,0-2.557.364.29.29,0,0,0,0,.3c.165.268.385.1.568-.049.345-.288,1.518-.328,1.771.165.2.4-.527,1.309-.979,1.236-.272-.045-.517-.359-.671-.566a.566.566,0,0,1,.162-.9.211.211,0,0,0-.213-.365" transform="translate(-8.756 -1.697)" fill="#180659"/>
    <path id="Path_2858" data-name="Path 2858" d="M917.445,59.434A6.354,6.354,0,0,0,912,62.064a5.785,5.785,0,0,0-.638,5.652,5.078,5.078,0,0,0,5.2,2.97c2-.158,4.334-1.272,4.451-3.53a.472.472,0,0,0-.8-.33c-1.6,1.5-3.98.309-4.522-1.588-.605-2.119.693-4.1,2.368-5.3.39-.278.172-.978-.346-.82a23.883,23.883,0,0,0-2.844,1.065,5.651,5.651,0,0,0-2.359,1.488c-.152.207.1.421.3.389a10.261,10.261,0,0,0,2.369-1.088,17.837,17.837,0,0,1,2.775-.988q-.174-.41-.346-.82c-2.233,1.489-3.775,4.223-2.634,6.888a3.723,3.723,0,0,0,5.9,1.431l-.8-.331c-.161,1.878-2.689,2.583-4.24,2.5a4.047,4.047,0,0,1-3.789-2.98,4.741,4.741,0,0,1,1.045-4.44,8.3,8.3,0,0,1,4.418-2.268c.317-.084.217-.5-.072-.535" transform="translate(-8.781 -0.509)" fill="#180659"/>
    <path id="Path_2859" data-name="Path 2859" d="M877.788,124.927A31.291,31.291,0,0,1,868,123.583l.49-1.4c4.852,1.7,13.523,1.7,19.332-.012,3.693-1.085,4.476-2.936,5.107-4.423a3.483,3.483,0,0,1,1.364-1.916,7.794,7.794,0,0,1,1.014-.428c1.505-.556,3.379-1.248,4.472-5.837,1.169-4.574,1.1-11.322-2.577-16.577-3.419-4.883-9.308-7.767-17.506-8.57-8.638-.848-15.524.737-19.913,4.581a12.771,12.771,0,0,0-4.013,5.962l-1.446-.337a14.135,14.135,0,0,1,4.481-6.744,19.855,19.855,0,0,1,7.77-4.076,36.1,36.1,0,0,1,13.265-.866c8.648.849,14.9,3.943,18.576,9.2,3.969,5.668,4.051,12.9,2.8,17.787-1.275,5.353-3.756,6.27-5.4,6.876a6.655,6.655,0,0,0-.824.342c-.257.138-.463.625-.7,1.188-.672,1.587-1.689,3.986-6.055,5.269a38.653,38.653,0,0,1-10.455,1.332" transform="translate(-8.236 -0.712)" fill="#180659"/>
    <path id="Path_2860" data-name="Path 2860" d="M830.344,138.118a4.757,4.757,0,0,1,2.845-2.356.372.372,0,0,0-.2-.717,5.5,5.5,0,0,0-3.288,2.7.379.379,0,0,0,.133.508.375.375,0,0,0,.508-.133" transform="translate(-7.998 -1.163)" fill="#180659"/>
    <path id="Path_2861" data-name="Path 2861" d="M850.526,134.148a9.783,9.783,0,0,1,1.023.458,10.973,10.973,0,0,1,1.017.595.374.374,0,0,0,.508-.134.381.381,0,0,0-.133-.509,11.559,11.559,0,0,0-2.218-1.127.373.373,0,0,0-.457.26.381.381,0,0,0,.259.457" transform="translate(-8.197 -1.149)" fill="#180659"/>
    <path id="Path_2862" data-name="Path 2862" d="M838.792,125.712A4,4,0,0,0,842.251,127a3.227,3.227,0,0,0,2.264-2.272c.3-.725-.827-1.117-1.216-.513-.4.621-.793,1.29-1.617,1.3a10.72,10.72,0,0,1-2.436-.58.471.471,0,0,0-.454.78" transform="translate(-8.085 -1.067)" fill="#180659"/>
    <path id="Path_2863" data-name="Path 2863" d="M817.82,115.239l-1.839-.827a4.132,4.132,0,0,0-1.29-.477c-.832-.062-1.322.6-1.552,1.318a9.239,9.239,0,0,0,.133,5.662c1.112,3.209,4.228,5.692,7.735,5.2l-.713-.29a16.456,16.456,0,0,0,3.653,3.893,28.208,28.208,0,0,0,11.892,5.557,36.829,36.829,0,0,0,4.5.674,9.424,9.424,0,0,0,1.687.083,18.27,18.27,0,0,0,2.411-.437,27.909,27.909,0,0,0,9.023-3.81,20.458,20.458,0,0,0,8.9-12.284.569.569,0,0,0-1.1-.3,21.691,21.691,0,0,1-7.546,10.775,26.263,26.263,0,0,1-8.83,4.151,26.958,26.958,0,0,1-2.684.569c-.065.011-.132.02-.2.029-.1.014.179-.012.006,0-.052,0-.107.02-.16.019a25.382,25.382,0,0,1-3.694-.356,28.276,28.276,0,0,1-12.536-4.964,20.436,20.436,0,0,1-3.278-3,7.946,7.946,0,0,1-.959-1.238.659.659,0,0,0-.713-.29c-2.489.355-4.885-1.445-5.906-3.608a8.194,8.194,0,0,1-.72-4.067c.032-.436.083-1.81.563-1.956.351-.107.932.311,1.271.463l1.315.589c.723.324,1.356-.746.627-1.074" transform="translate(-7.835 -0.981)" fill="#180659"/>
    <path id="Path_2864" data-name="Path 2864" d="M861.793,111.381a10.222,10.222,0,0,1,1.213-1.129c.281-.227,1.107-.974,1.529-.743.327.179.415,1.2.462,1.489a8.483,8.483,0,0,1,.1,1.793,6.513,6.513,0,0,1-3.031,5.325c-.743.454-.04,1.646.679,1.164a8.358,8.358,0,0,0,3.466-7.92c-.114-1.032-.335-3.006-1.737-3.052a3.121,3.121,0,0,0-1.828.916,6,6,0,0,0-1.419,1.72c-.2.346.286.749.565.437" transform="translate(-8.302 -0.932)" fill="#180659"/>
    <path id="Path_2865" data-name="Path 2865" d="M818.572,115.386a18.038,18.038,0,0,1,2.944-10.588,17.28,17.28,0,0,1,9.2-6.646,29.547,29.547,0,0,1,11.775-1.094,23.64,23.64,0,0,1,11.475,4,17.338,17.338,0,0,1,4.328,4.406,22.712,22.712,0,0,1,2.44,5.566c.2.579,1.145.524,1.117-.152a11.818,11.818,0,0,0-1.933-5.453,18.468,18.468,0,0,0-3.77-4.414,23.375,23.375,0,0,0-11.806-5.1c-8.051-1.2-17.745.185-23.106,6.941a17.066,17.066,0,0,0-3.777,12.536c.088.69,1.136.741,1.117,0" transform="translate(-7.879 -0.823)" fill="#180659"/>
    <path id="Path_2866" data-name="Path 2866" d="M837.881,118.37c-.713-3.448-3.989-6.1-7.362-6.7a10.174,10.174,0,0,0-5.628.559,5.09,5.09,0,0,0-2.107,1.353,4.787,4.787,0,0,0-.816,2.679,10.2,10.2,0,0,0,4.177,9.233,8.929,8.929,0,0,0,4.7,1.533,8.367,8.367,0,0,0,4.838-1.316,5.956,5.956,0,0,0,2.635-4.551,7.915,7.915,0,0,0-1.975-5.933.51.51,0,0,0-.847.493,20.306,20.306,0,0,0,.933,1.942,5.863,5.863,0,0,1,.462,2.564,5.6,5.6,0,0,1-.209,2.045,5.437,5.437,0,0,1-1.349,1.766c-1.87,1.866-5.251,1.833-7.5.74a8.322,8.322,0,0,1-4.481-7.12,9.008,9.008,0,0,1,.113-2.123,2.322,2.322,0,0,1,1.505-1.814,8.7,8.7,0,0,1,4.617-.778c3.49.352,5.914,2.8,7.429,5.8.252.5.962.136.859-.363" transform="translate(-7.924 -0.96)" fill="#180659"/>
    <path id="Path_2867" data-name="Path 2867" d="M844.1,116.515c.755-2.892,2.255-5.486,5.037-6.822a8.746,8.746,0,0,1,4.462-.806,5.493,5.493,0,0,1,2.2.526,3.249,3.249,0,0,1,1.19,2.1,8.625,8.625,0,0,1-1.844,8.265,7.692,7.692,0,0,1-3.616,2.1,6.912,6.912,0,0,1-4.043-.149,4.624,4.624,0,0,1-2.8-3.069,8.1,8.1,0,0,1-.348-2.6c.086-.969.5-1.857.61-2.82.059-.536-.7-.638-.943-.256a7.68,7.68,0,0,0-.76,5.734,5.508,5.508,0,0,0,.8,2.13,6.669,6.669,0,0,0,1.87,1.657c2.786,1.859,6.75,1.173,9.285-.808a9.9,9.9,0,0,0,3.365-9.63c-.328-1.817-.988-3.6-2.881-4.205a9.826,9.826,0,0,0-5.381-.067c-3.8.994-7.158,4.529-7.121,8.6a.472.472,0,0,0,.923.125" transform="translate(-8.127 -0.925)" fill="#180659"/>
    <path id="Path_2868" data-name="Path 2868" d="M838.073,121.995A4.634,4.634,0,0,1,840.349,119c1.341-.536,2.228.4,3.14,1.24a.721.721,0,0,0,1.019-1.02c-1.2-1.315-2.828-2.231-4.609-1.516a4.334,4.334,0,0,0-2.566,4.189.379.379,0,0,0,.74.1" transform="translate(-8.072 -1.011)" fill="#180659"/>
    <path id="Path_2869" data-name="Path 2869" d="M832.415,117.15c-1.331-.059-2.195,1.484-1.968,2.692a2.181,2.181,0,0,0,3.4,1.111A2.457,2.457,0,0,0,834,117.3a2.208,2.208,0,0,0-3.424.779,2.642,2.642,0,0,0,1.611,3.539c1.566.5,2.454-1.4,2.351-2.685-.114-1.407-1.751-2.7-2.884-1.379a1.941,1.941,0,0,0-.432,1.932,1.46,1.46,0,0,0,1.8.921c2.111-.645.177-3.878-1.282-2.571a1.79,1.79,0,0,0-.358,2.179,1.138,1.138,0,0,0,1.943.088.777.777,0,0,0-.118-.916c-.081-.078-.176-.2-.287-.222-.1-.07-.09-.03.02.124q.064.306.176.014l-.342.342.131-.1-.742.1-.18-.416.256-.439.418-.125.442.258c.237.188-.076.269.062.167l-.514.139c-.211-.134-.28-.158-.206-.072a.14.14,0,0,1,.04.089c-.013.025-.034.376-.034.376a2.5,2.5,0,0,0-.111.322q-.2.314.492-.055l-.159-.089c-.145-.173-.353-.3-.3-.566.027-.132.113-.275.268-.249.048.008.124.131.122.266a.642.642,0,0,1-.189.382c-.119.113.084.036-.081-.006-.1-.024-.262-.039-.331-.12.09.108.056-.169.062-.221.026-.228.062-.848.324-.939a.511.511,0,0,0-.135-1" transform="translate(-8.005 -1.005)" fill="#180659"/>
    <path id="Path_2870" data-name="Path 2870" d="M832.393,115.892c-1.026-.405-1.88.5-2.438,1.25a3.709,3.709,0,0,0-.669,3.36,3.588,3.588,0,0,0,1.954,2.434,3.644,3.644,0,0,0,3.228-.33c1.862-1.321,1.813-4.237.556-5.971a2.778,2.778,0,0,0-2.894-.948c-.934.176-2.105.8-1.807,1.935a.652.652,0,0,0,.618.471c.683,0,1.944-1.066,2.46-.251a2.63,2.63,0,0,1-.058,2.818,1.149,1.149,0,0,1-1.126.249c-.464-.074-.678-.609-.848-1.026a1.953,1.953,0,0,1,.121-1.543c.1-.293.454-1.581.787-1.585a.442.442,0,0,0,.117-.863" transform="translate(-7.993 -0.995)" fill="#180659"/>
    <path id="Path_2871" data-name="Path 2871" d="M853.15,112.083c-1.331-.059-2.195,1.484-1.968,2.692a2.181,2.181,0,0,0,3.4,1.111,2.457,2.457,0,0,0,.152-3.65,2.208,2.208,0,0,0-3.424.779,2.642,2.642,0,0,0,1.611,3.539c1.566.5,2.454-1.4,2.351-2.685-.114-1.407-1.751-2.7-2.884-1.379a1.941,1.941,0,0,0-.432,1.932,1.46,1.46,0,0,0,1.8.921c2.111-.645.177-3.878-1.282-2.571a1.79,1.79,0,0,0-.357,2.179,1.138,1.138,0,0,0,1.943.088.777.777,0,0,0-.118-.916c-.081-.078-.176-.2-.287-.222-.1-.07-.09-.03.02.124q.064.306.176.014l-.342.342.131-.1-.742.1-.18-.416.256-.439.418-.125.442.258c.237.188-.076.269.062.167l-.514.139c-.211-.134-.28-.158-.206-.072a.14.14,0,0,1,.04.089c-.013.025-.034.376-.034.376a2.508,2.508,0,0,0-.111.322q-.2.314.492-.055l-.159-.089c-.145-.173-.353-.3-.3-.566.027-.132.113-.275.268-.249.047.008.124.131.122.266a.642.642,0,0,1-.189.382c-.119.112.084.036-.081-.006-.1-.024-.262-.039-.331-.12.09.108.056-.169.062-.221.026-.228.062-.848.324-.939a.511.511,0,0,0-.135-1" transform="translate(-8.205 -0.962)" fill="#180659"/>
    <path id="Path_2872" data-name="Path 2872" d="M853.128,110.825c-1.026-.405-1.88.5-2.438,1.25a3.709,3.709,0,0,0-.669,3.36,3.588,3.588,0,0,0,1.954,2.434,3.644,3.644,0,0,0,3.228-.33c1.862-1.321,1.813-4.237.556-5.971a2.778,2.778,0,0,0-2.894-.948c-.934.176-2.105.8-1.807,1.935a.652.652,0,0,0,.618.471c.683,0,1.944-1.066,2.46-.251a2.63,2.63,0,0,1-.058,2.818,1.149,1.149,0,0,1-1.126.249c-.464-.074-.678-.609-.848-1.026a1.953,1.953,0,0,1,.121-1.543c.1-.293.454-1.581.787-1.585a.441.441,0,0,0,.117-.863" transform="translate(-8.193 -0.952)" fill="#180659"/>
    <path id="Path_2873" data-name="Path 2873" d="M821.81,74.785c-3.438,1.352-6.92,2.572-9.987,4.7a8.6,8.6,0,0,0-3.347,3.623,8.574,8.574,0,0,0-.177,5.223,5.052,5.052,0,0,0,2.849,3.411c1.862.738,3.884-.129,5.662-.717,3.95-1.308,7.864-2.811,11.728-4.357q1.318-.528,2.628-1.078c.408-.171.81-.377,1.227-.523.161-.056.344-.16.494-.048s.241.623.315.817l.58,1.52c.117.3.185.7.483.883.65.395,1.4-.154,1.847-.6,1.416-1.407,2.852-2.886,4.138-4.414a5.3,5.3,0,0,0,1.369-4.723c-.64-3.124-2.176-7.251-5.879-7.527a18.726,18.726,0,0,0-5.807.873,55.513,55.513,0,0,0-5.3,1.684c-2.336.861-4.6,1.757-6.848,2.819-1.145.54-2.287,1.089-3.415,1.665a10.136,10.136,0,0,0-2.056,1.21c-.51.44.232,1.177.738.74.022-.019.344-.2.5-.288.353-.192.709-.381,1.066-.566.937-.485,1.885-.951,2.834-1.41a46.176,46.176,0,0,1,4.438-2.024,66.806,66.806,0,0,1,9.914-3.009c1.689-.322,3.89-.9,5.444.109,1.44.938,2.077,2.653,2.583,4.215a7.189,7.189,0,0,1,.6,3.24,4.988,4.988,0,0,1-1.392,2.44c-.664.746-1.363,1.463-2.045,2.191l-1.179,1.255c-.2.212-.759,1.016-1.06.964l.44.44-.873-2.279c-.237-.617-.437-1.326-1.161-1.5a2.716,2.716,0,0,0-1.691.364c-.825.358-1.648.721-2.476,1.073-3.327,1.416-6.672,2.644-10.091,3.81a44.6,44.6,0,0,1-5.139,1.627,3.34,3.34,0,0,1-3.921-1.75,7.15,7.15,0,0,1-.36-4.949c.463-1.583,1.85-2.647,3.138-3.559a31.417,31.417,0,0,1,4.532-2.581c1.647-.794,3.271-1.6,4.9-2.434.305-.156.09-.692-.238-.563" transform="translate(-7.789 -0.611)" fill="#180659"/>
    <path id="Path_2874" data-name="Path 2874" d="M812.432,83.794a22.916,22.916,0,0,0,.3,2.425c.132.684.122,1.635.835,1.956a.564.564,0,0,0,.743-.194c.446-.612.02-1.354-.185-2-.251-.785-.552-1.541-.862-2.3-.163-.4-.878-.41-.834.113" transform="translate(-7.832 -0.718)" fill="#180659"/>
    <path id="Path_2875" data-name="Path 2875" d="M813.052,86.574c.62.059,1.271-.45,1.806-.723.644-.326,1.333-.546,1.977-.868.962-.482.117-1.925-.843-1.444a18.036,18.036,0,0,0-2,1.068c-.51.339-1.231.788-1.347,1.43a.433.433,0,0,0,.409.538" transform="translate(-7.834 -0.719)" fill="#180659"/>
    <path id="Path_2876" data-name="Path 2876" d="M815.312,82.586c.246.692.438,1.4.649,2.1a5.406,5.406,0,0,0,.714,1.925.713.713,0,0,0,1.186-.314c.255-1.364-.825-3.036-1.531-4.142-.324-.508-1.239-.193-1.018.429" transform="translate(-7.86 -0.705)" fill="#180659"/>
    <path id="Path_2877" data-name="Path 2877" d="M818.92,83.021a2.723,2.723,0,0,0,3.061-1.757c.379-1.387-1.874-2.016-2.777-1.344a2.939,2.939,0,0,0-.288,4.042,3.493,3.493,0,0,0,2.106.619,2.72,2.72,0,0,0,1.95-1.174.625.625,0,0,0-.535-.934,2.229,2.229,0,0,0-.889.265c-.307.164-.5.339-.866.288a1.292,1.292,0,0,1-.824-.331,1.64,1.64,0,0,1-.027-1.167c.093-.282.239-.538.55-.543a1.02,1.02,0,0,1,.549.223c-.187-.177-.052-.133-.217.014a2.241,2.241,0,0,1-1.661.828c-.541-.008-.7.889-.132.972" transform="translate(-7.888 -0.686)" fill="#180659"/>
    <path id="Path_2878" data-name="Path 2878" d="M823.048,78.523a7.079,7.079,0,0,0,.8,2.559c.339.8.7,1.592,1.092,2.373.335.673.663,1.085,1.458,1.126a1.808,1.808,0,0,0,1.787-.7.771.771,0,0,0-.86-1.12,5.076,5.076,0,0,1-.622.162,2.611,2.611,0,0,1-.3,0q.288.073.133-.139c.025-.22-.285-.7-.371-.9-.1-.245-.2-.491-.306-.734a9.766,9.766,0,0,0-1.64-3.107.69.69,0,0,0-1.165.483" transform="translate(-7.935 -0.67)" fill="#180659"/>
    <path id="Path_2879" data-name="Path 2879" d="M827,77.156a7.08,7.08,0,0,0,.8,2.559c.339.8.7,1.592,1.092,2.373.335.673.663,1.085,1.458,1.126a1.81,1.81,0,0,0,1.788-.7.772.772,0,0,0-.861-1.12,5.073,5.073,0,0,1-.622.162,2.608,2.608,0,0,1-.305,0q.288.073.133-.139c.025-.22-.285-.7-.371-.9-.1-.245-.2-.491-.306-.734a9.767,9.767,0,0,0-1.64-3.107.69.69,0,0,0-1.165.483" transform="translate(-7.973 -0.658)" fill="#180659"/>
    <path id="Path_2880" data-name="Path 2880" d="M833.545,75.474c-1.7.846-1.874,2.35-1.042,3.966a2.467,2.467,0,0,0,4,.606c1.145-1.115.469-3.23-.526-4.2a2.433,2.433,0,0,0-1.995-.823,3.145,3.145,0,0,0-1.815,1.437c-.378.624.548,1.386,1.034.8a2.645,2.645,0,0,1,.758-.713c.407-.193.7.008,1,.322.427.447.921,1.508.453,2.083a1.279,1.279,0,0,1-1.105.389c-.362-.1-.554-.494-.709-.8a1.936,1.936,0,0,1,.346-2.554c.29-.26-.078-.673-.4-.515" transform="translate(-8.021 -0.646)" fill="#180659"/>
    <path id="Path_2881" data-name="Path 2881" d="M884.495,61.006a5.861,5.861,0,0,0,.8-.99l-.724-.2c-.048.435-.414.883-.156,1.313.2.338.563.289.857.47l.3-.711c-.335-.058-.78-.269-1.092-.047-.37.264-.29.876-.268,1.264l.835-.114c-.115-.344-.186-.862-.53-1.052a2.83,2.83,0,0,0-1.282-.09l.217.8c.311-.163.891-.338.962-.735.066-.368-.341-.7-.546-.951l-.61.611a6.442,6.442,0,0,0,.913.679c.036-.267.07-.534.1-.8a1.175,1.175,0,0,0-.312.128.441.441,0,0,0-.088.687.677.677,0,0,0,.694.162.433.433,0,0,0-.23-.834l.152.054q-.043.344-.088.687l.1-.039a.443.443,0,0,0,.1-.8,4.7,4.7,0,0,1-.745-.533.432.432,0,0,0-.61.611c.055.067.3.472.3.283.042-.1.084-.2.126-.305a4.451,4.451,0,0,1-.667.355.433.433,0,0,0,.217.8,2.736,2.736,0,0,1,.8-.021c.162.068-.009-.058.06.122.052.132.087.274.131.408.141.439.858.386.835-.113-.008-.183-.076-.59.024-.733l-.246.189a1.44,1.44,0,0,1,.526.075.392.392,0,0,0,.378-.649.919.919,0,0,0-.349-.22c-.062-.021-.3-.033-.322-.079.058.118.179-.3.173-.28a2.868,2.868,0,0,0,.1-.593c.04-.422-.525-.477-.724-.2a5.684,5.684,0,0,0-.672,1.065c-.139.33.329.508.547.318" transform="translate(-8.511 -0.512)" fill="#180659"/>
    <path id="Path_2882" data-name="Path 2882" d="M890.36,118.5c1.1-3.473,3.194-3.734,5.751-5.427s5.563-15.241-3.8-22.918c-8.206-6.731-25.4-4.653-29.96-3.175a16.342,16.342,0,0,0-2.944,2.04,13.606,13.606,0,0,0-3.782,5.263,30.59,30.59,0,0,1,3.953,2.358c6.194,4.369,9.849,10.5,10.3,17.255a21.11,21.11,0,0,1-1.19,8.491c4.757,1.456,12.256,2.387,17.819.916a10.284,10.284,0,0,0,3.855-4.8" transform="translate(-8.249 -0.736)" fill="#180659"/>
    <path id="Path_2883" data-name="Path 2883" d="M888.627,90.254c-.312,1.866-3.393,2.9-6.88,2.32S875.686,90,876,88.136s3.391-2.9,6.878-2.32,6.06,2.572,5.749,4.437" transform="translate(-8.445 -0.738)" fill="#180659"/>
    <path id="Path_2884" data-name="Path 2884" d="M888.36,99.177a.441.441,0,0,0-.083.7.534.534,0,0,0,.246.139.49.49,0,0,0,.24,0,.437.437,0,0,0,.135-.057.393.393,0,0,0,.194-.339c0-.069-.011-.138-.016-.207a.394.394,0,0,0-.151-.3.364.364,0,0,0-.336-.068.754.754,0,0,0-.273.157.467.467,0,0,0-.128.442.45.45,0,0,0,.223.283.429.429,0,0,0,.218.055.415.415,0,0,0,.194-.053.384.384,0,0,0,.172-.226.367.367,0,0,0-.037-.283l-.057-.074a.37.37,0,0,0-.161-.094.378.378,0,0,0-.21,0l.1-.013h-.007l.1.013a.085.085,0,0,1-.023-.006l.089.038-.014-.009.075.058a.157.157,0,0,1-.018-.019l.058.076-.009-.015.039.089a.042.042,0,0,1,0-.016l.013.1a.049.049,0,0,1,0-.017c-.005.034-.009.067-.014.1l.006-.018c-.013.03-.026.06-.038.09a.064.064,0,0,1,.01-.018l-.059.076a.2.2,0,0,1,.03-.029l-.077.059a.331.331,0,0,1,.049-.027l-.091.039c.017-.007.035-.012.053-.018l-.487-.371v.207l.2-.339-.017.008.094-.04-.017,0,.1-.014h-.026l.1.015a.145.145,0,0,1-.034-.01l.1.041-.031-.019.08.062a.215.215,0,0,1-.026-.027l.062.081a.533.533,0,0,0-.154-.159l-.024-.016.077.059a.1.1,0,0,1-.015-.014c.02.024.039.049.057.073l-.007-.012.036.085a.094.094,0,0,1-.006-.022.321.321,0,0,0-.2-.219.336.336,0,0,0-.3.017" transform="translate(-8.562 -0.853)" fill="#180659"/>
    <path id="Path_2885" data-name="Path 2885" d="M867.329,95.17a.439.439,0,0,0-.125.312.463.463,0,0,0,.213.383.485.485,0,0,0,.228.065.423.423,0,0,0,.23-.056.479.479,0,0,0,.214-.4.574.574,0,0,0-.184-.431.608.608,0,0,0-.249-.143.555.555,0,0,0-.3,0,.446.446,0,0,0-.216.15.209.209,0,0,0-.055.092.325.325,0,0,0-.036.162c0,.033-.008.065-.011.1a.423.423,0,0,0,.123.3.429.429,0,0,0,.3.124.424.424,0,0,0,.3-.124.437.437,0,0,0,.124-.3c0-.033,0-.065,0-.1l-.207.36.01,0-.1.042.03-.008-.11.015h.04l-.11-.015a.22.22,0,0,1,.039.012l-.1-.042a.265.265,0,0,1,.037.021l-.083-.063a.219.219,0,0,1,.039.036c-.022-.027-.043-.055-.063-.082a.244.244,0,0,1,.026.045c-.013-.032-.027-.064-.041-.1a.178.178,0,0,1,.011.039c0-.036-.009-.071-.014-.107a.152.152,0,0,1,0,.031l.015-.106a.2.2,0,0,1-.011.04l.277-.279a.045.045,0,0,1-.02,0l.106-.014h-.01l.1.014a.249.249,0,0,1-.047-.014l.092.039-.017-.009.076.059a.129.129,0,0,1-.02-.021l.057.075-.008-.017c.012.029.024.058.037.087l0-.009c.005.032.009.063.013.1a.065.065,0,0,1,0-.019.342.342,0,0,0-.049-.178.348.348,0,0,0-.168-.145.354.354,0,0,0-.385.073" transform="translate(-8.359 -0.817)" fill="#180659"/>
    <path id="Path_2886" data-name="Path 2886" d="M881.428,100.6c-.977.7-1.949,1.43-2.956,2.09a.393.393,0,1,0,.478.621,31.09,31.09,0,0,0,2.726-2.389c.157-.16-.053-.46-.248-.321" transform="translate(-8.467 -0.866)" fill="#180659"/>
    <path id="Path_2887" data-name="Path 2887" d="M891.641,106.6a10.466,10.466,0,0,0-1.78,1.1c-.268.229-.491.506-.775.719-.225.17-.328.235-.356.526a.251.251,0,0,0,.127.221l.081.045a.4.4,0,0,0,.407,0,5.887,5.887,0,0,0,1.107-1.045,7.615,7.615,0,0,1,1.389-1.218.2.2,0,0,0-.2-.345" transform="translate(-8.568 -0.917)" fill="#180659"/>
    <path id="Path_2888" data-name="Path 2888" d="M879.581,113.993c-1.266.4-1.941,1.648-3.151,2.137-.454.184-.272.925.209.752,1.26-.453,1.847-1.879,3.093-2.343.335-.125.2-.658-.151-.547" transform="translate(-8.447 -0.981)" fill="#180659"/>
    <path id="Path_2889" data-name="Path 2889" d="M874.507,109.9a.312.312,0,0,0-.076-.131.283.283,0,0,0-.126-.073.294.294,0,0,0-.15,0,.169.169,0,0,0-.067.027.253.253,0,0,0-.09.09c-.01.022-.02.044-.028.066l.165-.165a.365.365,0,0,0-.077.036.3.3,0,0,0-.082.076.242.242,0,0,0-.024.032.291.291,0,0,0-.026.063.234.234,0,0,0-.009.069.45.45,0,0,0,.008.063l0,.007a.171.171,0,0,0,.041.077.167.167,0,0,0,.064.058.228.228,0,0,0,.311-.081c.008-.019.015-.037.023-.055a.227.227,0,0,0,0-.121v0c0,.021,0,.041.008.06v-.007l-.008.06v-.007c-.007.019-.015.037-.023.056l0-.009-.036.047.011-.012-.047.037.021-.012-.055.024.017,0-.229-.061a.268.268,0,0,0,.127.075l-.061-.025.009,0-.052-.041,0,0-.04-.052,0,.006L874,110.02v.007l-.009-.069v.009l.009-.07v0a.261.261,0,0,0,0,.141.269.269,0,0,0,.068.117.264.264,0,0,0,.373,0,.269.269,0,0,0,.068-.117.261.261,0,0,0,0-.141" transform="translate(-8.425 -0.944)" fill="#180659"/>
    <path id="Path_2890" data-name="Path 2890" d="M872.512,121.208a.312.312,0,0,0-.076-.131.283.283,0,0,0-.275-.073.169.169,0,0,0-.067.027.254.254,0,0,0-.09.09c-.01.022-.02.044-.028.066l.165-.165a.364.364,0,0,0-.077.036.32.32,0,0,0-.082.076.242.242,0,0,0-.024.032.291.291,0,0,0-.026.063.236.236,0,0,0-.009.069.46.46,0,0,0,.008.063l0,.007a.171.171,0,0,0,.041.077.167.167,0,0,0,.064.059.228.228,0,0,0,.311-.081c.008-.019.015-.037.023-.055a.227.227,0,0,0,0-.121v0l.008.06V121.3l-.008.06v-.007c-.007.019-.015.037-.023.056l0-.009-.036.047.011-.012-.047.037a.089.089,0,0,1,.021-.012l-.055.024.017,0-.229-.061a.268.268,0,0,0,.127.075l-.061-.025.009,0-.052-.041,0,0-.04-.052,0,.006-.026-.061v.007l-.009-.069v.009l.009-.07v0a.261.261,0,0,0,0,.141.269.269,0,0,0,.068.117.264.264,0,0,0,.373,0,.269.269,0,0,0,.068-.117.261.261,0,0,0,0-.141" transform="translate(-8.406 -1.042)" fill="#180659"/>
    <path id="Path_2891" data-name="Path 2891" d="M883.359,121.251a.5.5,0,0,0,.487-.488l-.018-.13a.487.487,0,0,0-.125-.215l-.1-.076a.483.483,0,0,0-.246-.066.5.5,0,0,0-.487.488l.018.13a.482.482,0,0,0,.125.215l.1.076a.483.483,0,0,0,.246.066" transform="translate(-8.511 -1.036)" fill="#180659"/>
    <path id="Path_2892" data-name="Path 2892" d="M803.314,66.183a46.223,46.223,0,0,1,4.927-5.426,17.791,17.791,0,0,1,2.615-2.22c.53-.346,2.293-1.388,2.947-.8.8.729-2.117,1.551-2.521,1.709a27.773,27.773,0,0,0-3.014,1.385,19.156,19.156,0,0,0-2.627,1.686c-.685.528-1.886,1.3-2.037,2.21a.443.443,0,0,0,.539.539,2.544,2.544,0,0,0,1.06-.775,13.406,13.406,0,0,1,1.247-1.062A17.732,17.732,0,0,1,809.11,61.8a28.581,28.581,0,0,1,2.97-1.267,5.691,5.691,0,0,0,2.626-1.32,1.67,1.67,0,0,0,.058-2.174,2.12,2.12,0,0,0-2.042-.426c-1.986.457-3.641,2.024-5.054,3.4a21.621,21.621,0,0,0-4.777,5.926.244.244,0,0,0,.421.246" transform="translate(-7.74 -0.487)" fill="#180659"/>
    <path id="Path_2893" data-name="Path 2893" d="M836.173,183.6a3.1,3.1,0,0,1,1.056-1.25,1.78,1.78,0,0,1,1.92.081c.751.5,1.238,1.324,2.063,1.735a2.4,2.4,0,0,0,2.5-.278c.857-.6,1.57-1.914,2.769-1.716,1.04.173,1.642,1.359,2.645,1.717a3.469,3.469,0,0,0,2.766-.211c1.014-.54,1.43-1.822,2.5-2.24,1.25-.487,2.144.383,3.223.841a2.642,2.642,0,0,0,2.828-.43c.794-.643,1.272-1.627,2.229-2.063.615-.28.167-1.369-.464-1.1a6.754,6.754,0,0,0-2.119,1.656,3.122,3.122,0,0,1-1.039.821,2.225,2.225,0,0,1-1.739-.4,3.951,3.951,0,0,0-3.1-.43,3.722,3.722,0,0,0-1.332.787,17.475,17.475,0,0,1-1.311,1.381,2.352,2.352,0,0,1-3.078-.466A3.1,3.1,0,0,0,845.722,181c-1.2.234-1.772,1.267-2.716,1.908-1.087.739-1.794-.254-2.535-.952a3.161,3.161,0,0,0-3.174-.936,2.421,2.421,0,0,0-1.752,2.5c.043.311.489.309.628.082" transform="translate(-8.055 -1.538)" fill="#180659"/>
    <path id="Path_2894" data-name="Path 2894" d="M841.528,183.568c.142-.9.142-1.8.368-2.685a8.31,8.31,0,0,1,1.134-2.564,6.626,6.626,0,0,1,4.39-2.885,12.984,12.984,0,0,1,2.962-.09,6.056,6.056,0,0,1,2.756,1.128,7.5,7.5,0,0,1,2.1,1.811,12.1,12.1,0,0,1,1.362,2.744c.3.745,1.5.448,1.226-.338a11.461,11.461,0,0,0-1.479-3.153,8.578,8.578,0,0,0-2.448-2.121,7.863,7.863,0,0,0-3.11-1.3,13.371,13.371,0,0,0-3.486.073,7.807,7.807,0,0,0-5.075,3.132,8.353,8.353,0,0,0-1.619,6.247c.1.441.848.472.922,0" transform="translate(-8.103 -1.498)" fill="#180659"/>
    <path id="Path_2895" data-name="Path 2895" d="M851.444,174.567a10.647,10.647,0,0,1,3.816-5.051.532.532,0,0,0,.106-.826,4.6,4.6,0,0,0-5.021-.611c-.557.271-.15,1.07.4.955a5.175,5.175,0,0,1,2.859.67c.562.227.607.534.725,1.092a9,9,0,0,1,.178,1.646.576.576,0,0,0,1.064.288,3.13,3.13,0,0,0,.288-3.02c-.134-.309-.441-.561-.56-.854a3.709,3.709,0,0,1,.031-1.274,14.867,14.867,0,0,0,.045-1.5,2.4,2.4,0,0,0-.748-1.784.515.515,0,0,0-.867.359c-.052.926-.16,1.852-.246,2.776-.049.537-.266,1.283.3,1.625.522.317,1.037-.059,1.443-.387.745-.6,1.454-1.249,2.179-1.875q-.486-.373-.97-.749a13.335,13.335,0,0,1-2,2.476q.382.382.763.763a1.254,1.254,0,0,1,1.693.128,2.142,2.142,0,0,1,.442,1.837l1.167.158c-.086-1.616-1.583-2.237-2.985-2.438a.583.583,0,1,0-.155,1.15c.786.089,1.94.285,1.953,1.288.008.647,1.034.837,1.166.159a3.2,3.2,0,0,0-1.03-3.233,2.319,2.319,0,0,0-3.012.188c-.5.5.248,1.223.763.763a14.206,14.206,0,0,0,2.306-2.615c.415-.608-.468-1.188-.97-.749l-1.3,1.135c-.216.189-.436.375-.648.568-.153.138-.509.3-.3.429.084.111.169.222.255.332a5.636,5.636,0,0,1,.077-1.787c.041-.647.068-1.3.132-1.943l-.867.359c.983.935.038,2.867.278,4.028.1.475.54.758.7,1.217a2.061,2.061,0,0,1-.3,1.89l1.064.288c-.025-1.043-.024-2.989-1.13-3.5a6.857,6.857,0,0,0-4.052-.913q.2.477.4.955a3.505,3.505,0,0,1,3.751.452c.036-.275.07-.55.106-.826a9.8,9.8,0,0,0-4.126,5.727.436.436,0,0,0,.841.232" transform="translate(-8.195 -1.413)" fill="#180659"/>
    <path id="Path_2896" data-name="Path 2896" d="M867.225,155.059a25.253,25.253,0,0,1-.638,5.716,15.7,15.7,0,0,1-.943,2.621,26.983,26.983,0,0,0-1.361,2.543c-.226.659.629,1.011,1.078.628a7.413,7.413,0,0,0,1.589-2.692,15.81,15.81,0,0,0,.939-2.869,12.022,12.022,0,0,0-.018-6.035.331.331,0,0,0-.647.087" transform="translate(-8.332 -1.332)" fill="#180659"/>
    <path id="Path_2897" data-name="Path 2897" d="M825.2,164.548a15.443,15.443,0,0,0,2.438,5.366,10.978,10.978,0,0,0,3.862,3.7.646.646,0,0,0,.652-1.115,13.475,13.475,0,0,1-3.526-3.587c-1.013-1.5-1.691-3.193-2.791-4.63a.35.35,0,0,0-.636.269" transform="translate(-7.955 -1.413)" fill="#180659"/>
    <path id="Path_2898" data-name="Path 2898" d="M833.833,151.053l-.014.028a.67.67,0,0,0-.06.142c-.007.05-.013.1-.02.148a1.337,1.337,0,0,0,.021.154l.055.132a.425.425,0,0,0,.143.156.27.27,0,0,0,.123.071.413.413,0,0,0,.213.048l.148-.02.133-.056a.412.412,0,0,0,.155-.143.419.419,0,0,0,.1-.188c0-.027.008-.053.011-.079a.434.434,0,0,0-.01-.222.848.848,0,0,0-.06-.142l-.014-.028a.539.539,0,0,0-.192-.191.531.531,0,0,0-.539,0,.537.537,0,0,0-.191.191" transform="translate(-8.038 -1.298)" fill="#180659"/>
    <path id="Path_2899" data-name="Path 2899" d="M852.912,147.692a.663.663,0,0,0,.42-.174.434.434,0,0,0,.123-.191.442.442,0,0,0,.051-.229l-.022-.158a.592.592,0,0,0-.153-.263l-.12-.093a.6.6,0,0,0-.3-.081.663.663,0,0,0-.42.174.439.439,0,0,0-.123.191.447.447,0,0,0-.052.229l.022.159a.594.594,0,0,0,.153.262l.12.093a.593.593,0,0,0,.3.081" transform="translate(-8.217 -1.261)" fill="#180659"/>
    <path id="Path_2900" data-name="Path 2900" d="M856.466,158.385l-.061.018a.42.42,0,0,0-.243.186.4.4,0,0,0-.041.312l.021.055c.015.038.031.074.047.111l.072.094a.351.351,0,0,0,.15.1.232.232,0,0,0,.117.032.238.238,0,0,0,.124,0,.23.23,0,0,0,.117-.032.235.235,0,0,0,.1-.059.353.353,0,0,0,.119-.131c.016-.037.032-.073.047-.111s.012-.082.017-.123-.011-.082-.017-.124-.031-.073-.047-.111l-.072-.094a.358.358,0,0,0-.15-.1.22.22,0,0,0-.117-.032.347.347,0,0,0-.185.008" transform="translate(-8.253 -1.364)" fill="#180659"/>
    <path id="Path_2901" data-name="Path 2901" d="M846.609,171.974a.606.606,0,0,0,.313-.07.838.838,0,0,0,.5-.744c-.01-.072-.019-.145-.029-.216a.826.826,0,0,0-.209-.36l-.165-.127a.806.806,0,0,0-.41-.111.916.916,0,0,0-.575.238.918.918,0,0,0-.238.576c.01.072.019.144.029.216a.826.826,0,0,0,.209.36l.165.127a.806.806,0,0,0,.41.111" transform="translate(-8.154 -1.467)" fill="#180659"/>
  </g>
</svg>
