<svg width="250" height="134" viewBox="0 0 250 134" fill="none" xmlns="http://www.w3.org/2000/svg">
<g style="mix-blend-mode:lighten">
<rect width="250" height="134" fill="url(#paint0_linear_0_1)" fill-opacity="0.71"/>
</g>
<path d="M52.912 57.96C54.16 57.96 55.24 58.136 56.152 58.488C57.08 58.84 57.92 59.376 58.672 60.096L56.848 62.232C55.712 61.304 54.496 60.84 53.2 60.84C52.512 60.84 51.968 60.984 51.568 61.272C51.168 61.544 50.968 61.944 50.968 62.472C50.968 62.84 51.056 63.144 51.232 63.384C51.408 63.608 51.72 63.824 52.168 64.032C52.616 64.24 53.288 64.488 54.184 64.776C55.88 65.32 57.128 65.992 57.928 66.792C58.728 67.576 59.128 68.696 59.128 70.152C59.128 71.192 58.864 72.112 58.336 72.912C57.808 73.696 57.048 74.312 56.056 74.76C55.064 75.192 53.888 75.408 52.528 75.408C51.168 75.408 49.96 75.192 48.904 74.76C47.864 74.328 46.968 73.752 46.216 73.032L48.208 70.848C48.848 71.392 49.504 71.8 50.176 72.072C50.864 72.344 51.608 72.48 52.408 72.48C53.224 72.48 53.864 72.304 54.328 71.952C54.808 71.584 55.048 71.08 55.048 70.44C55.048 70.024 54.96 69.68 54.784 69.408C54.608 69.12 54.304 68.864 53.872 68.64C53.44 68.416 52.816 68.176 52 67.92C50.16 67.36 48.848 66.672 48.064 65.856C47.296 65.04 46.912 64.008 46.912 62.76C46.912 61.8 47.168 60.96 47.68 60.24C48.192 59.504 48.904 58.944 49.816 58.56C50.728 58.16 51.76 57.96 52.912 57.96ZM70.1744 57.96C72.5424 57.96 74.3824 58.72 75.6944 60.24C77.0224 61.76 77.6864 63.904 77.6864 66.672C77.6864 68.48 77.3824 70.04 76.7744 71.352C76.1824 72.664 75.3184 73.672 74.1824 74.376C73.0624 75.064 71.7264 75.408 70.1744 75.408C68.6224 75.408 67.2864 75.064 66.1664 74.376C65.0464 73.688 64.1824 72.696 63.5744 71.4C62.9824 70.088 62.6864 68.512 62.6864 66.672C62.6864 64.88 62.9824 63.328 63.5744 62.016C64.1824 60.704 65.0464 59.704 66.1664 59.016C67.2864 58.312 68.6224 57.96 70.1744 57.96ZM70.1744 60.84C69.0384 60.84 68.1904 61.304 67.6304 62.232C67.0864 63.144 66.8144 64.624 66.8144 66.672C66.8144 68.72 67.0944 70.208 67.6544 71.136C68.2144 72.064 69.0544 72.528 70.1744 72.528C71.3264 72.528 72.1744 72.072 72.7184 71.16C73.2784 70.232 73.5584 68.736 73.5584 66.672C73.5584 64.608 73.2784 63.12 72.7184 62.208C72.1584 61.296 71.3104 60.84 70.1744 60.84ZM98.5092 75H94.6452L94.3572 68.496C94.2772 66.944 94.2372 65.56 94.2372 64.344C94.2372 63.416 94.2612 62.536 94.3092 61.704L91.7412 73.248H88.0212L85.2852 61.704C85.3812 63.096 85.4292 64.408 85.4292 65.64C85.4292 66.568 85.4052 67.536 85.3572 68.544L85.0692 75H81.2292L82.4772 58.368H87.4452L89.9412 69.648L92.2692 58.368H97.2612L98.5092 75ZM113.224 58.368L112.816 61.176H106.96V65.16H112.072V67.92H106.96V72.168H113.224V75H103.024V58.368H113.224ZM129.609 58.368V75H125.673V58.368H129.609ZM151.376 75H147.512L147.224 68.496C147.144 66.944 147.104 65.56 147.104 64.344C147.104 63.416 147.128 62.536 147.176 61.704L144.608 73.248H140.888L138.152 61.704C138.248 63.096 138.296 64.408 138.296 65.64C138.296 66.568 138.272 67.536 138.224 68.544L137.936 75H134.096L135.344 58.368H140.312L142.808 69.648L145.136 58.368H150.128L151.376 75ZM164.651 75L163.787 71.424H158.939L158.099 75H154.019L159.035 58.368H163.811L168.827 75H164.651ZM159.611 68.568H163.115L161.363 61.224L159.611 68.568ZM179.173 57.96C181.317 57.96 183.165 58.64 184.717 60L182.725 62.088C182.133 61.64 181.581 61.32 181.069 61.128C180.573 60.92 179.997 60.816 179.341 60.816C178.109 60.816 177.125 61.304 176.389 62.28C175.653 63.24 175.285 64.704 175.285 66.672C175.285 68.8 175.565 70.312 176.125 71.208C176.685 72.088 177.557 72.528 178.741 72.528C179.573 72.528 180.325 72.344 180.997 71.976V68.208H178.837L178.453 65.424H184.813V73.656C183.949 74.216 182.997 74.648 181.957 74.952C180.917 75.256 179.877 75.408 178.837 75.408C176.309 75.408 174.405 74.672 173.125 73.2C171.845 71.712 171.205 69.536 171.205 66.672C171.205 64.848 171.549 63.28 172.237 61.968C172.941 60.656 173.893 59.664 175.093 58.992C176.309 58.304 177.669 57.96 179.173 57.96ZM199.802 58.368L199.394 61.176H193.538V65.16H198.65V67.92H193.538V72.168H199.802V75H189.602V58.368H199.802Z" fill="white"/>
<defs>
<linearGradient id="paint0_linear_0_1" x1="125" y1="-7.92319e-06" x2="267.5" y2="145.5" gradientUnits="userSpaceOnUse">
<stop stop-color="#9ECAF3"/>
<stop offset="1" stop-color="#9ECAF3" stop-opacity="0"/>
</linearGradient>
</defs>
</svg>
