<svg width="462" height="432" viewBox="0 0 462 432" fill="none" xmlns="http://www.w3.org/2000/svg">
<g style="mix-blend-mode:lighten">
<rect width="462" height="432" fill="url(#paint0_linear_35_362)" fill-opacity="0.71"/>
</g>
<path d="M137.912 192.96C139.16 192.96 140.24 193.136 141.152 193.488C142.08 193.84 142.92 194.376 143.672 195.096L141.848 197.232C140.712 196.304 139.496 195.84 138.2 195.84C137.512 195.84 136.968 195.984 136.568 196.272C136.168 196.544 135.968 196.944 135.968 197.472C135.968 197.84 136.056 198.144 136.232 198.384C136.408 198.608 136.72 198.824 137.168 199.032C137.616 199.24 138.288 199.488 139.184 199.776C140.88 200.32 142.128 200.992 142.928 201.792C143.728 202.576 144.128 203.696 144.128 205.152C144.128 206.192 143.864 207.112 143.336 207.912C142.808 208.696 142.048 209.312 141.056 209.76C140.064 210.192 138.888 210.408 137.528 210.408C136.168 210.408 134.96 210.192 133.904 209.76C132.864 209.328 131.968 208.752 131.216 208.032L133.208 205.848C133.848 206.392 134.504 206.8 135.176 207.072C135.864 207.344 136.608 207.48 137.408 207.48C138.224 207.48 138.864 207.304 139.328 206.952C139.808 206.584 140.048 206.08 140.048 205.44C140.048 205.024 139.96 204.68 139.784 204.408C139.608 204.12 139.304 203.864 138.872 203.64C138.44 203.416 137.816 203.176 137 202.92C135.16 202.36 133.848 201.672 133.064 200.856C132.296 200.04 131.912 199.008 131.912 197.76C131.912 196.8 132.168 195.96 132.68 195.24C133.192 194.504 133.904 193.944 134.816 193.56C135.728 193.16 136.76 192.96 137.912 192.96ZM155.174 192.96C157.542 192.96 159.382 193.72 160.694 195.24C162.022 196.76 162.686 198.904 162.686 201.672C162.686 203.48 162.382 205.04 161.774 206.352C161.182 207.664 160.318 208.672 159.182 209.376C158.062 210.064 156.726 210.408 155.174 210.408C153.622 210.408 152.286 210.064 151.166 209.376C150.046 208.688 149.182 207.696 148.574 206.4C147.982 205.088 147.686 203.512 147.686 201.672C147.686 199.88 147.982 198.328 148.574 197.016C149.182 195.704 150.046 194.704 151.166 194.016C152.286 193.312 153.622 192.96 155.174 192.96ZM155.174 195.84C154.038 195.84 153.19 196.304 152.63 197.232C152.086 198.144 151.814 199.624 151.814 201.672C151.814 203.72 152.094 205.208 152.654 206.136C153.214 207.064 154.054 207.528 155.174 207.528C156.326 207.528 157.174 207.072 157.718 206.16C158.278 205.232 158.558 203.736 158.558 201.672C158.558 199.608 158.278 198.12 157.718 197.208C157.158 196.296 156.31 195.84 155.174 195.84ZM183.509 210H179.645L179.357 203.496C179.277 201.944 179.237 200.56 179.237 199.344C179.237 198.416 179.261 197.536 179.309 196.704L176.741 208.248H173.021L170.285 196.704C170.381 198.096 170.429 199.408 170.429 200.64C170.429 201.568 170.405 202.536 170.357 203.544L170.069 210H166.229L167.477 193.368H172.445L174.941 204.648L177.269 193.368H182.261L183.509 210ZM198.224 193.368L197.816 196.176H191.96V200.16H197.072V202.92H191.96V207.168H198.224V210H188.024V193.368H198.224ZM223.129 193.368L218.497 210H213.601L208.801 193.368H212.953L216.121 206.928L219.097 193.368H223.129ZM236.72 193.368L236.312 196.176H230.456V200.16H235.568V202.92H230.456V207.168H236.72V210H226.52V193.368H236.72ZM247.777 192.96C248.817 192.96 249.737 193.112 250.537 193.416C251.353 193.72 252.121 194.176 252.841 194.784L250.969 197.016C250.473 196.632 249.985 196.344 249.505 196.152C249.025 195.96 248.513 195.864 247.969 195.864C246.849 195.864 245.961 196.336 245.305 197.28C244.665 198.224 244.345 199.68 244.345 201.648C244.345 203.584 244.665 205.024 245.305 205.968C245.961 206.896 246.865 207.36 248.017 207.36C248.625 207.36 249.177 207.248 249.673 207.024C250.169 206.784 250.705 206.448 251.281 206.016L253.033 208.272C252.409 208.896 251.649 209.408 250.753 209.808C249.873 210.208 248.897 210.408 247.825 210.408C246.289 210.408 244.953 210.072 243.817 209.4C242.681 208.728 241.793 207.736 241.153 206.424C240.529 205.096 240.217 203.504 240.217 201.648C240.217 199.84 240.537 198.28 241.177 196.968C241.833 195.656 242.729 194.664 243.865 193.992C245.017 193.304 246.321 192.96 247.777 192.96ZM268.091 193.368L267.707 196.392H263.603V210H259.667V196.392H255.371V193.368H268.091ZM277.712 192.96C280.08 192.96 281.92 193.72 283.232 195.24C284.56 196.76 285.224 198.904 285.224 201.672C285.224 203.48 284.92 205.04 284.312 206.352C283.72 207.664 282.856 208.672 281.72 209.376C280.6 210.064 279.264 210.408 277.712 210.408C276.16 210.408 274.824 210.064 273.704 209.376C272.584 208.688 271.72 207.696 271.112 206.4C270.52 205.088 270.224 203.512 270.224 201.672C270.224 199.88 270.52 198.328 271.112 197.016C271.72 195.704 272.584 194.704 273.704 194.016C274.824 193.312 276.16 192.96 277.712 192.96ZM277.712 195.84C276.576 195.84 275.728 196.304 275.168 197.232C274.624 198.144 274.352 199.624 274.352 201.672C274.352 203.72 274.632 205.208 275.192 206.136C275.752 207.064 276.592 207.528 277.712 207.528C278.864 207.528 279.712 207.072 280.256 206.16C280.816 205.232 281.096 203.736 281.096 201.672C281.096 199.608 280.816 198.12 280.256 197.208C279.696 196.296 278.848 195.84 277.712 195.84ZM295.218 203.64H293.682V210H289.746V193.368H295.194C297.466 193.368 299.17 193.784 300.306 194.616C301.458 195.448 302.034 196.72 302.034 198.432C302.034 199.504 301.778 200.4 301.266 201.12C300.754 201.824 299.946 202.424 298.842 202.92L303.066 210H298.626L295.218 203.64ZM293.682 200.928H295.338C296.218 200.928 296.874 200.728 297.306 200.328C297.754 199.928 297.978 199.296 297.978 198.432C297.978 197.632 297.738 197.048 297.258 196.68C296.794 196.312 296.074 196.128 295.098 196.128H293.682V200.928Z" fill="white"/>
<defs>
<linearGradient id="paint0_linear_35_362" x1="231" y1="-2.55434e-05" x2="631.64" y2="234.49" gradientUnits="userSpaceOnUse">
<stop stop-color="#9ECAF3"/>
<stop offset="1" stop-color="#9ECAF3" stop-opacity="0"/>
</linearGradient>
</defs>
</svg>
