<svg width="495" height="377" viewBox="0 0 495 377" fill="none" xmlns="http://www.w3.org/2000/svg">
<path d="M494.917 172.917C494.85 173.38 494.768 173.843 494.669 174.306C494.669 174.422 494.669 174.521 494.586 174.637C494.47 175.1 494.338 175.547 494.172 176.01C494.073 176.291 493.958 176.605 493.825 176.903L493.726 177.085L493.379 177.829C493.308 177.933 493.248 178.044 493.197 178.159L492.85 178.738L492.618 179.102L492.42 179.416L492.287 179.581C492.087 179.884 491.872 180.177 491.642 180.458L491.461 180.706C491.163 181.07 490.849 181.434 490.518 181.781L490.27 182.045L489.46 182.856L489.079 183.186L488.219 183.93L487.971 184.145L487.823 184.245L487.492 184.509L486.781 185.038L486.401 185.303L485.64 185.816L485.276 186.047C484.896 186.295 484.499 186.527 484.102 186.758L181.277 360.85C180.417 361.346 179.508 361.809 178.582 362.255L177.656 362.652C176.994 362.95 176.333 363.231 175.655 363.496L175.06 363.71C174.216 364.025 173.406 364.306 172.48 364.57L172.182 364.67C171.24 364.951 170.264 365.199 169.272 365.43L168.594 365.579C167.85 365.744 167.106 365.877 166.345 366.009L165.237 366.207C164.361 366.34 163.451 366.455 162.558 366.555H161.98C160.921 366.67 159.863 366.737 158.805 366.786H157.895C157.085 366.786 156.242 366.786 155.481 366.786H154.555C153.513 366.786 152.488 366.786 151.463 366.654H151.347C150.272 366.571 149.214 366.472 148.156 366.34L147.213 366.207L145.047 365.877L143.674 365.612L141.756 365.199L140.433 364.868C139.805 364.703 139.193 364.537 138.581 364.339L137.242 363.942L135.406 363.264C135.009 363.115 134.596 362.983 134.199 362.818C133.554 362.553 132.909 362.255 132.281 361.958C131.95 361.809 131.636 361.677 131.322 361.511C130.379 361.048 129.47 360.569 128.593 360.039L11.4685 289.695C4.01072 285.197 0.372789 279.344 0.587758 273.589L0.00899619 282.766C-0.205973 288.538 3.43196 294.342 10.8897 298.873L128.015 369.349C128.891 369.878 129.801 370.375 130.727 370.838L131.702 371.267C132.331 371.565 132.975 371.863 133.637 372.127C134.017 372.293 134.431 372.425 134.827 372.59C135.224 372.756 136.035 373.053 136.663 373.252L137.986 373.649L139.243 374.046L139.838 374.194L141.177 374.509L143.095 374.938L144.468 375.187L145.344 375.352L146.618 375.517L147.56 375.65C148.619 375.782 149.677 375.898 150.752 375.964H150.867C151.909 375.964 152.934 376.063 153.96 376.079H155.961H157.316H158.226C159.251 376.079 160.293 375.964 161.318 375.848L161.88 375.765C162.79 375.765 163.683 375.567 164.576 375.418L165.684 375.236L167.155 374.972L167.933 374.806L168.611 374.641C169.586 374.409 170.562 374.178 171.521 373.88C171.681 373.843 171.837 373.788 171.984 373.715C172.86 373.467 173.72 373.169 174.564 372.855L175.159 372.64L175.589 372.491L177.143 371.813C177.457 371.664 177.788 371.549 178.086 371.4C179.012 370.97 179.921 370.507 180.781 370.011L483.507 195.903L484.697 195.192L485.045 194.96L485.822 194.447L486.202 194.166L486.897 193.654L487.244 193.389L487.393 193.273L487.641 193.075L488.501 192.314L488.864 191.984C489.151 191.73 489.421 191.46 489.675 191.173L489.939 190.925C490.27 190.561 490.584 190.198 490.882 189.834L491.064 189.602C491.295 189.305 491.51 189.007 491.709 188.726L491.841 188.544L492.039 188.23L492.271 187.883C492.387 187.684 492.502 187.486 492.602 187.287C492.668 187.181 492.729 187.07 492.783 186.957C492.916 186.709 493.031 186.46 493.147 186.212L493.246 186.031C493.379 185.734 493.495 185.431 493.594 185.121V185.121C493.756 184.671 493.894 184.213 494.007 183.749C494.007 183.633 494.007 183.534 494.007 183.418C494.123 182.961 494.206 182.497 494.255 182.029V182.029C494.255 181.698 494.255 181.367 494.338 181.037L494.9 171.925C494.9 172.273 494.9 172.603 494.9 172.951L494.917 172.917Z" fill="url(#paint0_linear_3_355)"/>
<path d="M484.086 155.803L472.776 148.99L370.732 87.641L366.978 85.3756C352.426 76.628 328.846 76.3138 314.294 84.6976L11.4858 258.673C-3.04942 267.057 -3.06595 280.931 11.4858 289.679L128.611 360.172C143.146 368.919 166.743 369.234 181.295 360.85L484.086 186.857C498.638 178.424 498.638 164.55 484.086 155.803Z" fill="#F2F0F2"/>
<path d="M481.208 159.159L364.132 88.6663C356.68 84.5819 348.288 82.5183 339.791 82.6802C331.873 82.5038 324.04 84.3537 317.038 88.0545L14.2293 262.096C8.62362 265.321 5.49831 269.521 5.4487 273.936C5.39909 278.351 8.54094 282.849 14.2955 286.322L131.42 356.798C138.869 360.894 147.262 362.964 155.761 362.801C163.707 363.005 171.572 361.16 178.598 357.443L481.34 183.385C486.946 180.078 490.054 175.96 490.121 171.562C490.187 167.163 487.028 162.632 481.208 159.159Z" fill="url(#paint1_linear_3_355)"/>
<path style="mix-blend-mode:multiply" d="M183.56 255.284C178.196 252.342 172.146 250.881 166.031 251.05C162.228 251.05 156.474 251.05 152.555 252.985L73.7106 297.434C72.2885 298.195 72.057 299.435 73.198 300.196L98.8123 315.078C99.5301 315.46 100.331 315.66 101.144 315.66C101.957 315.66 102.758 315.46 103.476 315.078C103.476 315.078 182.352 270.629 182.948 270.265L183.775 269.769C187.082 267.636 188.901 265.056 188.917 262.543C188.934 260.029 186.999 257.417 183.56 255.284Z" fill="url(#paint2_linear_3_355)"/>
<path d="M351.962 98.3565C348.407 100.407 346.456 103.053 346.423 105.847C346.39 108.642 348.374 111.486 352.012 113.702L426.11 158.349C430.835 160.911 436.149 162.189 441.522 162.053C446.521 162.199 451.474 161.06 455.908 158.746L472.775 149.056L370.731 87.6411L351.962 98.3565Z" fill="#F2F0F2"/>
<path d="M444.465 143.268L383.281 106.112C382.245 105.507 381.071 105.18 379.871 105.163C378.672 105.145 377.488 105.438 376.435 106.013L374.782 106.922C374.488 107.052 374.239 107.264 374.064 107.532C373.888 107.801 373.795 108.115 373.795 108.435C373.795 108.756 373.888 109.07 374.064 109.338C374.239 109.607 374.488 109.819 374.782 109.948L435.965 147.105C437.017 147.707 438.209 148.023 439.421 148.023C440.633 148.023 441.825 147.707 442.877 147.105L444.415 146.228C444.692 146.096 444.928 145.889 445.094 145.63C445.26 145.371 445.351 145.071 445.356 144.764C445.361 144.456 445.28 144.153 445.123 143.889C444.965 143.625 444.737 143.41 444.465 143.268Z" fill="#101571"/>
<path d="M444.465 143.268L383.281 106.112C382.245 105.507 381.071 105.18 379.871 105.163C378.672 105.145 377.488 105.438 376.435 106.013L374.782 106.922C374.528 107.053 374.31 107.243 374.146 107.476C373.982 107.71 373.877 107.979 373.839 108.262C374.876 107.751 376.023 107.506 377.178 107.549C378.333 107.593 379.458 107.923 380.454 108.51L441.637 145.666C441.936 145.819 442.182 146.058 442.341 146.354C442.501 146.649 442.567 146.986 442.53 147.32L442.894 147.138L444.432 146.261C444.717 146.131 444.96 145.922 445.131 145.659C445.302 145.396 445.395 145.089 445.398 144.775C445.402 144.462 445.316 144.153 445.151 143.886C444.985 143.619 444.747 143.405 444.465 143.268V143.268Z" fill="url(#paint3_linear_3_355)"/>
<path d="M125.683 359.808L20.8771 297.203C20.6695 297.067 20.4314 296.986 20.1844 296.966C19.9374 296.946 19.6893 296.988 19.4626 297.088C19.2359 297.188 19.0378 297.343 18.8864 297.54C18.7349 297.736 18.6348 297.967 18.5952 298.211V301.816C18.6023 302.023 18.6623 302.224 18.7695 302.4C18.8766 302.577 19.0272 302.723 19.207 302.825L124.029 365.447C124.237 365.582 124.475 365.664 124.722 365.684C124.969 365.704 125.217 365.662 125.444 365.561C125.67 365.461 125.868 365.306 126.02 365.11C126.171 364.914 126.271 364.683 126.311 364.438V360.817C126.302 360.609 126.24 360.406 126.13 360.23C126.019 360.053 125.866 359.908 125.683 359.808V359.808Z" fill="#101571"/>
<path d="M21.2575 299.815V297.434L20.8771 297.203C20.6695 297.067 20.4314 296.986 20.1844 296.966C19.9374 296.946 19.6893 296.988 19.4626 297.088C19.2359 297.188 19.0378 297.343 18.8864 297.54C18.7349 297.736 18.6348 297.967 18.5952 298.211V301.816C18.6023 302.023 18.6623 302.224 18.7695 302.4C18.8766 302.577 19.0272 302.723 19.207 302.825L124.029 365.447C124.237 365.582 124.475 365.664 124.722 365.684C124.969 365.704 125.217 365.662 125.444 365.561C125.67 365.461 125.868 365.306 126.02 365.11C126.171 364.914 126.271 364.683 126.311 364.438V363.214L21.8693 300.824C21.6895 300.722 21.5389 300.576 21.4318 300.399C21.3246 300.223 21.2646 300.022 21.2575 299.815V299.815Z" fill="url(#paint4_linear_3_355)"/>
<path style="mix-blend-mode:multiply" d="M132.198 301.535L97.7537 280.815C94.2854 278.841 90.3503 277.836 86.3603 277.905C82.6204 277.843 78.9265 278.737 75.6284 280.501L57.4387 290.423C55.8136 291.217 54.4244 292.422 53.4091 293.919C52.3938 295.415 51.7878 297.152 51.6511 298.955C51.6511 302.263 53.6851 305.57 57.3395 307.703L91.7676 328.439C95.2458 330.403 99.1835 331.408 103.177 331.349C106.917 331.404 110.608 330.51 113.909 328.753L132.099 318.832C133.727 318.046 135.119 316.845 136.135 315.35C137.151 313.855 137.755 312.118 137.887 310.316C137.92 306.926 135.853 303.734 132.198 301.535Z" fill="url(#paint5_linear_3_355)"/>
<path d="M127.965 306.579L93.5202 285.859C91.3292 284.653 88.8605 284.043 86.3601 284.089C84.0587 284.052 81.7846 284.592 79.7457 285.66L61.6883 295.582C60.9918 295.884 60.3868 296.364 59.9341 296.973C59.4814 297.583 59.1967 298.301 59.1087 299.055C59.1841 299.838 59.4635 300.587 59.9191 301.228C60.3746 301.87 60.9904 302.38 61.7049 302.709L96.1495 323.429C98.342 324.629 100.811 325.233 103.31 325.182C105.612 325.227 107.888 324.686 109.924 323.611L127.981 313.689C128.692 313.397 129.313 312.922 129.781 312.312C130.249 311.702 130.546 310.979 130.644 310.216C130.558 309.428 130.265 308.676 129.794 308.037C129.324 307.398 128.693 306.895 127.965 306.579V306.579Z" fill="white"/>
<g style="mix-blend-mode:multiply">
<g style="mix-blend-mode:multiply">
<path d="M145.576 192.662L297.989 284.089L384.456 233.655L234.474 141.383L145.576 192.662Z" fill="#313BEE"/>
</g>
</g>
<g style="mix-blend-mode:multiply">
<g style="mix-blend-mode:multiply">
<path d="M251.226 129.808L403.638 221.236L429.683 205.923L279.701 113.669L251.226 129.808Z" fill="#313BEE"/>
</g>
</g>
<g style="mix-blend-mode:multiply">
<g style="mix-blend-mode:multiply">
<path d="M188.405 233.158C187.869 232.841 187.258 232.674 186.635 232.674C186.013 232.674 185.402 232.841 184.866 233.158L181.906 234.812C181.381 235.12 180.946 235.56 180.644 236.087C180.341 236.615 180.182 237.213 180.182 237.822C180.182 238.43 180.341 239.028 180.644 239.556C180.946 240.084 181.381 240.523 181.906 240.831L228.703 268.942C229.241 269.263 229.855 269.432 230.481 269.432C231.107 269.432 231.721 269.263 232.258 268.942L234.656 267.52C235.17 267.21 235.594 266.771 235.889 266.249C236.183 265.726 236.338 265.136 236.338 264.536C236.338 263.935 236.183 263.345 235.889 262.823C235.594 262.3 235.17 261.862 234.656 261.551L188.405 233.158Z" fill="#313BEE"/>
</g>
</g>
<g style="mix-blend-mode:multiply">
<g style="mix-blend-mode:multiply">
<path d="M138.235 201.955C137.699 201.638 137.088 201.47 136.466 201.47C135.843 201.47 135.232 201.638 134.696 201.955L131.637 203.608C131.112 203.916 130.677 204.356 130.375 204.884C130.072 205.412 129.913 206.01 129.913 206.618C129.913 207.226 130.072 207.824 130.375 208.352C130.677 208.88 131.112 209.32 131.637 209.628L164.428 228.925C164.964 229.249 165.579 229.42 166.206 229.42C166.832 229.42 167.447 229.249 167.983 228.925L170.381 227.52C170.894 227.209 171.319 226.771 171.614 226.248C171.908 225.725 172.063 225.135 172.063 224.535C172.063 223.935 171.908 223.345 171.614 222.822C171.319 222.299 170.894 221.861 170.381 221.55L138.235 201.955Z" fill="#313BEE"/>
</g>
</g>
<path d="M197.119 108.047L252.961 139.167L310.192 108.047L252.961 77.9344L197.119 108.047Z" fill="url(#paint6_linear_3_355)"/>
<path d="M252.962 131.379L310.193 98.4226L252.962 0V131.379Z" fill="#87A8F1"/>
<path d="M252.961 131.379V0L197.119 99.3486L252.961 131.379Z" fill="#8BF4EE"/>
<path d="M252.961 197.308V139.167L197.119 108.047L252.961 197.308Z" fill="#87A8F1"/>
<path d="M252.962 197.308L310.193 108.047L252.962 139.167V197.308Z" fill="#8BF4EE"/>
<defs>
<linearGradient id="paint0_linear_3_355" x1="0.00899619" y1="273.969" x2="494.983" y2="273.969" gradientUnits="userSpaceOnUse">
<stop stop-color="#6CCFF9"/>
<stop offset="1" stop-color="#151F60"/>
</linearGradient>
<linearGradient id="paint1_linear_3_355" x1="5.4487" y1="222.741" x2="490.121" y2="222.741" gradientUnits="userSpaceOnUse">
<stop stop-color="#338BF2"/>
<stop offset="1" stop-color="#1BB9CA"/>
</linearGradient>
<linearGradient id="paint2_linear_3_355" x1="72.4704" y1="283.362" x2="188.917" y2="283.362" gradientUnits="userSpaceOnUse">
<stop stop-color="white"/>
<stop offset="0.11" stop-color="#F4FBFE"/>
<stop offset="0.3" stop-color="#D8EFFB"/>
<stop offset="0.54" stop-color="#AADCF7"/>
<stop offset="0.83" stop-color="#6CC3F1"/>
<stop offset="1" stop-color="#43B2ED"/>
</linearGradient>
<linearGradient id="paint3_linear_3_355" x1="373.823" y1="126.253" x2="445.391" y2="126.253" gradientUnits="userSpaceOnUse">
<stop stop-color="#6CCFF9"/>
<stop offset="1" stop-color="#151F60"/>
</linearGradient>
<linearGradient id="paint4_linear_3_355" x1="18.5952" y1="331.316" x2="126.344" y2="331.316" gradientUnits="userSpaceOnUse">
<stop stop-color="#151F60"/>
<stop offset="1" stop-color="#6CCFF9"/>
</linearGradient>
<linearGradient id="paint5_linear_3_355" x1="51.7007" y1="304.627" x2="137.887" y2="304.627" gradientUnits="userSpaceOnUse">
<stop stop-color="white"/>
<stop offset="0.11" stop-color="#F4FBFE"/>
<stop offset="0.3" stop-color="#D8EFFB"/>
<stop offset="0.54" stop-color="#AADCF7"/>
<stop offset="0.83" stop-color="#6CC3F1"/>
<stop offset="1" stop-color="#43B2ED"/>
</linearGradient>
<linearGradient id="paint6_linear_3_355" x1="197.119" y1="108.543" x2="310.192" y2="108.543" gradientUnits="userSpaceOnUse">
<stop stop-color="#338BF2"/>
<stop offset="1" stop-color="#1BB9CA"/>
</linearGradient>
</defs>
</svg>
