<svg width="338" height="375" viewBox="0 0 338 375" fill="none" xmlns="http://www.w3.org/2000/svg">
<path d="M262.384 206.508C240.749 206.508 183.965 240.401 183.965 240.401C183.965 240.401 183.965 244.848 183.868 257.512C183.868 269.383 190.538 280.906 202.893 290.012C203.144 290.235 203.409 290.442 203.686 290.631C218.264 301.071 238.12 306.794 259.503 306.794C280.887 306.794 301.362 300.994 316.558 290.322C317.428 289.722 318.202 289.123 319.033 288.504C331.233 279.166 337.942 267.604 338 255.771C338 243.61 338 240.942 338 240.942C338 240.942 283.806 206.508 262.384 206.508Z" fill="#71AAFF"/>
<path d="M318.163 207.823C303.624 197.382 283.806 191.659 262.384 191.659C240.962 191.659 220.487 197.46 205.29 208.171C191.544 217.838 184.023 230.018 183.868 242.682C183.868 254.534 190.538 266.077 202.893 275.183C203.139 275.406 203.404 275.606 203.686 275.782C218.264 286.223 238.12 291.946 259.503 291.946C280.887 291.946 301.362 286.145 316.558 275.492C317.428 274.893 318.202 274.294 319.033 273.675C331.233 264.337 337.942 252.775 338 240.942C338.058 228.781 331.02 217.026 318.163 207.823Z" fill="#5667FF"/>
<path d="M311.918 216.542C299.196 207.417 281.602 202.39 262.384 202.39C243.166 202.39 224.837 207.552 211.458 216.949C200.63 224.508 194.637 233.673 194.598 242.74C194.598 251.093 199.741 259.542 209.253 266.56L209.891 267.063C222.671 276.188 240.285 281.235 259.522 281.235C278.76 281.235 297.011 276.072 310.41 266.695L312.73 265.013C321.991 257.918 327.23 249.295 327.269 240.904C327.308 232.512 321.875 223.657 311.918 216.542Z" fill="#71AAFF"/>
<path d="M298.229 234.543C292.429 231.256 283.806 230.212 275.551 231.623C276.556 227.756 274.448 224.083 269.596 221.337C261.727 216.929 248.753 216.639 239.28 220.545L235.703 218.611C234.579 218.083 233.349 217.822 232.108 217.849C230.867 217.876 229.649 218.19 228.549 218.766C226.616 219.926 226.422 221.743 228.317 222.807L231.643 224.74L225.842 228.046L222.517 226.113C221.396 225.589 220.169 225.331 218.932 225.358C217.695 225.385 216.48 225.696 215.383 226.268C213.333 227.428 213.237 229.245 215.151 230.308L218.457 232.242L211.496 236.109C209.447 237.269 209.35 239.086 211.264 240.169C212.391 240.69 213.621 240.945 214.862 240.915C216.102 240.884 217.319 240.57 218.418 239.995L220.661 238.719L265.864 264.143L263.621 265.419C261.688 266.579 261.475 268.397 263.389 269.479C264.515 270 265.746 270.255 266.986 270.225C268.227 270.195 269.444 269.88 270.543 269.305L277.503 265.342L280.693 267.14C281.82 267.661 283.05 267.916 284.29 267.886C285.531 267.855 286.748 267.541 287.847 266.966C289.877 265.825 289.993 264.008 288.079 262.925L284.889 261.146L290.689 257.84L293.879 259.638C295.005 260.159 296.236 260.414 297.476 260.384C298.717 260.354 299.933 260.039 301.033 259.464C303.063 258.304 303.16 256.506 301.265 255.423L298.036 253.625C306.988 247.96 307.162 239.569 298.229 234.543ZM228.298 234.349L242.992 225.978C245.917 224.468 249.152 223.658 252.443 223.611C255.735 223.564 258.992 224.281 261.959 225.707C267.082 228.588 266.908 233.441 261.572 236.437L246.878 244.809L228.298 234.349ZM290.167 250.281L273.482 259.774L253.78 248.695L270.446 239.202C273.551 237.605 276.982 236.746 280.474 236.692C283.965 236.638 287.421 237.392 290.573 238.893C296.025 241.948 295.813 247.052 290.186 250.281H290.167Z" fill="white"/>
<g style="mix-blend-mode:screen" opacity="0.3">
<g style="mix-blend-mode:screen">
<path d="M311.918 216.542C309.543 214.882 307.063 213.377 304.493 212.038L237.655 278.895C252.556 282.128 267.99 282.009 282.839 278.547L326.418 234.987C324.543 228.414 319.574 222.033 311.918 216.542Z" fill="#71AAFF"/>
</g>
<g style="mix-blend-mode:screen">
<path d="M208.809 266.193C208.983 266.309 209.118 266.444 209.273 266.56L209.911 267.063C211.457 268.165 213.101 269.228 214.802 270.214L280.925 204.072C278.044 203.55 275.125 203.163 272.128 202.873L208.809 266.193Z" fill="#71AAFF"/>
</g>
</g>
<path d="M311.918 216.542C299.196 207.417 281.602 202.39 262.383 202.39C243.165 202.39 224.837 207.552 211.457 216.949C200.63 224.508 194.637 233.673 194.598 242.74C194.589 243.815 194.666 244.888 194.83 245.95C195.971 237.829 201.752 229.767 211.457 222.981C224.837 213.584 242.914 208.422 262.383 208.422C281.853 208.422 299.118 213.449 311.918 222.575C320.657 228.82 325.915 236.244 327.037 243.842C327.181 242.889 327.258 241.926 327.269 240.962C327.308 232.3 321.875 223.657 311.918 216.542Z" fill="#99F8D0"/>
<path d="M262.384 182.669C240.749 182.669 183.965 216.542 183.965 216.542C183.965 216.542 183.965 221.009 183.868 233.653C183.868 245.524 190.538 257.048 202.893 266.173C203.144 266.39 203.409 266.59 203.686 266.773C218.264 277.213 238.12 282.936 259.503 282.936C280.887 282.936 301.362 277.136 316.558 266.463C317.428 265.864 318.202 265.265 319.033 264.665C331.233 255.327 337.942 243.765 338 231.932C338 219.752 338 217.103 338 217.103C338 217.103 283.806 182.669 262.384 182.669Z" fill="#71AAFF"/>
<path d="M318.163 184.003C303.624 173.563 283.806 167.84 262.384 167.84C240.962 167.84 220.487 173.64 205.31 184.332C191.544 193.999 184.042 206.179 183.868 218.843C183.868 230.714 190.538 242.238 202.893 251.344C203.144 251.567 203.409 251.773 203.686 251.963C218.264 262.403 238.12 268.126 259.503 268.126C280.887 268.126 301.362 262.326 316.558 251.653C317.428 251.054 318.202 250.455 319.033 249.855C331.233 240.517 337.942 228.936 338 217.123C338.058 204.942 331.02 193.187 318.163 184.003Z" fill="#5667FF"/>
<path d="M311.918 192.723C299.196 183.578 281.602 178.551 262.384 178.551C243.166 178.551 224.837 183.674 211.458 193.11C200.63 200.689 194.637 209.834 194.598 218.901C194.598 227.254 199.741 235.703 209.253 242.721L209.891 243.224C222.671 252.369 240.285 257.396 259.522 257.396C278.76 257.396 297.011 252.233 310.41 242.856L312.73 241.174C321.991 234.079 327.23 225.456 327.269 217.065C327.308 208.674 321.875 199.818 311.918 192.723Z" fill="#71AAFF"/>
<path d="M298.229 210.742C292.429 207.455 283.806 206.411 275.551 207.823C276.556 203.956 274.448 200.282 269.596 197.556C261.727 193.129 248.753 192.858 239.28 196.744L235.703 194.811C234.579 194.283 233.349 194.022 232.108 194.049C230.867 194.076 229.649 194.389 228.549 194.966C226.616 196.126 226.422 197.943 228.317 199.006L231.643 200.94L225.842 204.246L222.517 202.313C221.396 201.789 220.169 201.531 218.932 201.558C217.695 201.584 216.48 201.896 215.383 202.467C213.333 203.647 213.237 205.445 215.151 206.527L218.457 208.461L211.496 212.328C209.447 213.488 209.35 215.305 211.264 216.388C212.388 216.916 213.618 217.177 214.859 217.15C216.101 217.123 217.319 216.809 218.418 216.233L220.661 214.957L265.864 240.362L263.621 241.638C261.688 242.798 261.475 244.616 263.389 245.698C264.515 246.218 265.744 246.474 266.984 246.447C268.224 246.42 269.441 246.111 270.543 245.544L277.503 241.561L280.693 243.359C281.818 243.883 283.048 244.141 284.288 244.114C285.529 244.087 286.746 243.776 287.847 243.204C289.877 242.044 289.993 240.227 288.079 239.144L284.889 237.365L290.689 234.059L293.879 235.877C295.005 236.396 296.234 236.652 297.474 236.625C298.714 236.599 299.931 236.29 301.033 235.722C303.063 234.562 303.16 232.744 301.265 231.662L298.036 229.864C306.988 224.121 307.162 215.73 298.229 210.742ZM228.298 210.549L242.992 202.177C245.919 200.676 249.154 199.871 252.444 199.824C255.733 199.777 258.989 200.49 261.959 201.907C267.082 204.787 266.908 209.64 261.572 212.637L246.878 221.009L228.298 210.549ZM290.167 226.48L273.501 235.877L253.8 224.798L270.466 215.305C273.57 213.708 277.002 212.849 280.493 212.795C283.984 212.741 287.44 213.495 290.592 214.996C296.025 218.128 295.813 223.213 290.186 226.442L290.167 226.48Z" fill="white"/>
<g style="mix-blend-mode:screen" opacity="0.3">
<g style="mix-blend-mode:screen">
<path d="M311.918 192.723C309.552 191.049 307.071 189.543 304.493 188.218L237.655 255.056C252.556 258.283 267.987 258.171 282.839 254.728L326.418 211.148C324.543 204.575 319.574 198.194 311.918 192.723Z" fill="#71AAFF"/>
</g>
<g style="mix-blend-mode:screen">
<path d="M208.809 242.354C208.983 242.47 209.118 242.605 209.273 242.721L209.911 243.224C211.457 244.326 213.101 245.389 214.802 246.375L280.925 180.233C278.044 179.73 275.125 179.324 272.128 179.034L208.809 242.354Z" fill="#71AAFF"/>
</g>
</g>
<path d="M311.918 192.723C299.196 183.578 281.602 178.551 262.383 178.551C243.165 178.551 224.837 183.674 211.457 193.11C200.63 200.689 194.637 209.834 194.598 218.901C194.589 219.982 194.666 221.062 194.83 222.13C195.971 214.01 201.752 205.928 211.457 199.142C224.837 189.765 242.914 184.583 262.383 184.583C281.853 184.583 299.118 189.61 311.918 198.755C320.657 204.981 325.915 212.405 327.037 220.023C327.181 219.069 327.259 218.106 327.269 217.142C327.308 208.461 321.875 199.818 311.918 192.723Z" fill="#99F8D0"/>
<path d="M262.384 158.83C240.749 158.83 183.965 192.742 183.965 192.742C183.965 192.742 183.965 197.189 183.868 209.853C183.868 221.705 190.538 233.247 202.893 242.354C203.139 242.576 203.404 242.777 203.686 242.953C218.264 253.393 238.12 259.116 259.503 259.116C280.887 259.116 301.362 253.316 316.558 242.663C317.428 242.044 318.202 241.445 319.033 240.846C331.233 231.507 337.942 219.945 338 208.113C338 195.952 338 193.284 338 193.284C338 193.284 283.806 158.83 262.384 158.83Z" fill="#71AAFF"/>
<path d="M318.163 160.164C303.624 149.724 283.806 144.001 262.384 144.001C240.962 144.001 220.41 149.84 205.31 160.473C191.544 170.141 184.042 182.302 183.868 194.966C183.868 206.837 190.538 218.36 202.893 227.486C203.139 227.708 203.404 227.909 203.686 228.085C218.264 238.525 238.12 244.248 259.503 244.248C280.887 244.248 301.362 238.448 316.558 227.795C317.428 227.176 318.202 226.577 319.033 225.978C331.233 216.639 337.942 205.058 338 193.245C338.058 181.122 331.02 169.348 318.163 160.164Z" fill="#5667FF"/>
<path d="M311.918 168.884C299.196 159.758 281.602 154.673 262.384 154.673C243.166 154.673 224.837 159.835 211.458 169.212C200.63 176.791 194.637 185.937 194.598 195.004C194.598 203.357 199.741 211.825 209.253 218.843L209.891 219.346C222.671 228.472 240.285 233.499 259.522 233.499C278.76 233.499 297.011 228.336 310.41 218.979L312.73 217.277C321.991 210.182 327.23 201.559 327.269 193.187C327.308 184.815 321.875 175.941 311.918 168.884Z" fill="#71AAFF"/>
<path d="M298.229 186.884C292.429 183.597 283.806 182.534 275.551 183.945C276.556 180.078 274.448 176.424 269.596 173.679C261.727 169.251 248.753 168.98 239.28 172.886L235.703 170.953C234.578 170.429 233.348 170.17 232.108 170.197C230.868 170.224 229.65 170.535 228.549 171.107C226.616 172.267 226.422 174.085 228.317 175.167L231.643 177.101L225.842 180.407L222.517 178.474C221.394 177.953 220.167 177.698 218.929 177.728C217.692 177.758 216.479 178.073 215.383 178.648C213.333 179.808 213.237 181.625 215.151 182.688L218.457 184.622L211.496 188.489C209.447 189.649 209.35 191.466 211.264 192.529C212.388 193.057 213.618 193.318 214.859 193.291C216.101 193.265 217.319 192.951 218.418 192.375L220.661 191.099L265.864 216.542L263.621 217.819C261.688 218.979 261.475 220.796 263.389 221.859C264.514 222.383 265.744 222.641 266.984 222.615C268.224 222.588 269.442 222.277 270.543 221.705L277.503 217.838L280.693 219.617C281.817 220.145 283.047 220.405 284.288 220.379C285.529 220.352 286.747 220.038 287.847 219.462C289.877 218.302 289.993 216.484 288.079 215.421L284.889 213.623L290.689 210.317L293.879 212.115C295.004 212.639 296.234 212.897 297.474 212.87C298.714 212.843 299.932 212.532 301.033 211.96C303.063 210.8 303.16 208.983 301.265 207.919L298.036 206.102C306.988 200.302 307.162 191.891 298.229 186.884ZM228.298 186.691L242.992 178.319C245.918 176.815 249.152 176.006 252.441 175.956C255.731 175.905 258.988 176.615 261.959 178.029C267.082 180.91 266.908 185.763 261.572 188.759L246.878 197.131L228.298 186.691ZM290.167 202.622L273.482 212.115L253.8 201.075L270.466 191.582C273.573 189.992 277.005 189.139 280.495 189.088C283.986 189.038 287.441 189.792 290.592 191.292C296.025 194.289 295.813 199.393 290.186 202.622H290.167Z" fill="white"/>
<g style="mix-blend-mode:screen" opacity="0.3">
<g style="mix-blend-mode:screen">
<path d="M311.918 168.884C309.549 167.203 307.068 165.685 304.493 164.34L237.655 231.178C244.838 232.749 252.17 233.534 259.522 233.518C267.371 233.521 275.194 232.626 282.839 230.85L326.418 187.29C324.543 180.736 319.574 174.355 311.918 168.884Z" fill="#71AAFF"/>
</g>
<g style="mix-blend-mode:screen">
<path d="M208.809 218.476L209.273 218.863L209.911 219.365C211.457 220.467 213.101 221.511 214.802 222.497L280.925 156.375C278.044 155.853 275.125 155.447 272.128 155.157L208.809 218.476Z" fill="#71AAFF"/>
</g>
</g>
<path d="M311.918 168.884C299.196 159.758 281.602 154.673 262.383 154.673C243.165 154.673 224.837 159.835 211.457 169.212C200.63 176.791 194.637 185.937 194.598 195.004C194.589 196.085 194.666 197.165 194.83 198.233C195.971 190.113 201.752 182.031 211.457 175.245C224.837 165.868 242.914 160.705 262.383 160.705C281.853 160.705 299.118 165.732 311.918 174.858C320.657 181.103 325.915 188.527 327.037 196.126C327.181 195.178 327.259 194.222 327.269 193.264C327.308 184.641 321.875 175.941 311.918 168.884Z" fill="#99F8D0"/>
<path d="M262.384 135.01C240.749 135.01 183.965 168.903 183.965 168.903C183.965 168.903 183.965 173.35 183.868 186.014C183.868 197.885 190.538 209.408 202.893 218.534C203.144 218.747 203.415 218.94 203.686 219.133C218.264 229.554 238.12 235.297 259.503 235.297C280.887 235.297 301.362 229.496 316.558 218.824C317.428 218.225 318.202 217.625 319.033 217.026C331.233 207.687 337.942 196.106 338 184.274C338 172.113 338 169.444 338 169.444C338 169.444 283.806 135.01 262.384 135.01Z" fill="#71AAFF"/>
<path d="M318.163 136.325C303.624 125.885 283.806 120.162 262.384 120.162C240.962 120.162 220.487 125.962 205.31 136.673C191.544 146.34 184.042 158.521 183.868 171.185C183.868 183.036 190.538 194.579 202.893 203.685C203.144 203.908 203.409 204.115 203.686 204.304C218.264 214.725 238.12 220.448 259.503 220.448C280.887 220.448 301.362 214.648 316.558 203.995C317.428 203.376 318.202 202.777 319.033 202.177C331.233 192.839 337.942 181.277 338 169.444C338.058 157.283 331.02 145.528 318.163 136.325Z" fill="#5667FF"/>
<path d="M311.918 145.006C299.196 135.88 281.602 130.854 262.384 130.854C243.166 130.854 224.837 136.035 211.458 145.412C200.63 152.972 194.637 162.136 194.598 171.204C194.598 179.537 199.741 188.005 209.253 195.024L209.891 195.526C222.671 204.671 240.285 209.679 259.522 209.679C278.76 209.679 297.011 204.536 310.41 195.159L312.73 193.477C321.991 186.362 327.23 177.758 327.269 169.367C327.308 160.976 321.875 152.16 311.918 145.006Z" fill="#71AAFF"/>
<path d="M298.229 163.045C292.429 159.758 283.806 158.714 275.551 160.125C276.556 156.259 274.448 152.585 269.596 149.859C261.727 145.431 248.753 145.141 239.28 149.047L235.703 147.114C234.579 146.586 233.349 146.325 232.108 146.352C230.867 146.378 229.649 146.692 228.549 147.268C226.616 148.428 226.422 150.246 228.317 151.309L231.643 153.242L225.842 156.549L222.517 154.615C221.397 154.087 220.17 153.827 218.932 153.854C217.694 153.88 216.479 154.194 215.383 154.77C213.333 155.93 213.237 157.747 215.151 158.811L218.457 160.744L211.496 164.611C209.447 165.771 209.35 167.588 211.264 168.652C212.388 169.18 213.618 169.441 214.859 169.414C216.101 169.387 217.319 169.073 218.418 168.497L220.661 167.221L265.864 192.645L263.621 193.922C261.688 195.082 261.475 196.899 263.389 197.962C264.513 198.49 265.743 198.751 266.984 198.724C268.225 198.698 269.443 198.384 270.543 197.808L277.503 193.941L280.693 195.739C281.82 196.26 283.05 196.515 284.29 196.485C285.531 196.454 286.748 196.14 287.847 195.565C289.877 194.405 289.993 192.607 288.079 191.524L284.889 189.726L290.689 186.439L293.879 188.218C295.003 188.746 296.233 189.007 297.474 188.98C298.715 188.953 299.933 188.639 301.033 188.063C303.063 186.903 303.16 185.086 301.265 184.022L298.036 182.205C306.988 176.463 307.162 168.072 298.229 163.045ZM228.298 162.852L242.992 154.48C245.918 152.976 249.152 152.167 252.441 152.117C255.731 152.066 258.988 152.776 261.959 154.19C267.082 157.09 266.908 161.924 261.572 164.92L246.878 173.311L228.298 162.852ZM290.167 178.783L273.482 188.276L253.78 177.198L270.446 167.704C273.551 166.107 276.982 165.248 280.474 165.194C283.965 165.141 287.421 165.894 290.573 167.395C296.025 170.45 295.813 175.554 290.186 178.783H290.167Z" fill="white"/>
<g style="mix-blend-mode:screen" opacity="0.3">
<g style="mix-blend-mode:screen">
<path d="M311.918 145.006C309.543 143.346 307.063 141.841 304.493 140.501L237.655 207.339C244.838 208.91 252.17 209.695 259.522 209.679C267.37 209.679 275.192 208.79 282.839 207.03L326.418 163.451C324.543 156.916 319.574 150.536 311.918 145.006Z" fill="#71AAFF"/>
</g>
<g style="mix-blend-mode:screen">
<path d="M208.809 194.676L209.273 195.062L209.911 195.565C211.457 196.667 213.101 197.711 214.802 198.716L280.925 132.574C278.044 132.052 275.125 131.666 272.128 131.376L208.809 194.676Z" fill="#71AAFF"/>
</g>
</g>
<path d="M311.918 145.006C299.197 135.88 281.602 130.854 262.384 130.854C243.166 130.854 224.837 136.035 211.458 145.412C200.631 152.972 194.637 162.136 194.599 171.204C194.59 172.285 194.668 173.364 194.831 174.433C195.972 166.293 201.752 158.231 211.458 151.444C224.837 142.048 242.915 136.886 262.384 136.886C281.854 136.886 299.119 141.913 311.918 151.038C320.657 157.283 325.916 164.708 327.038 172.306C327.181 171.352 327.259 170.39 327.27 169.425C327.308 160.802 321.876 152.16 311.918 145.006Z" fill="#99F8D0"/>
<path d="M262.384 111.171C240.749 111.171 183.965 145.006 183.965 145.006C183.965 145.006 183.965 149.453 183.868 162.117C183.868 173.988 190.538 185.511 202.893 194.637C203.144 194.853 203.409 195.054 203.686 195.236C218.264 205.677 238.12 211.4 259.503 211.4C280.887 211.4 301.362 205.599 316.558 194.946C317.428 194.328 318.202 193.728 319.033 193.129C331.233 183.79 337.942 172.229 338 160.396C338 148.216 338 145.548 338 145.548C338 145.548 283.806 111.171 262.384 111.171Z" fill="#71AAFF"/>
<path d="M318.163 112.486C303.624 102.065 283.806 96.3228 262.384 96.3228C240.962 96.3228 220.487 102.123 205.29 112.834C191.544 122.501 184.023 134.682 183.868 147.346C183.868 159.217 190.538 170.74 202.893 179.866C203.144 180.078 203.415 180.272 203.686 180.465C218.264 190.886 238.12 196.628 259.503 196.628C280.887 196.628 301.362 190.828 316.558 180.156C317.428 179.556 318.202 178.957 319.033 178.358C331.233 169 337.942 157.438 338 145.606C338.058 133.406 331.02 121.689 318.163 112.486Z" fill="#5667FF"/>
<path d="M311.918 121.225C299.196 112.08 281.602 107.053 262.384 107.053C243.166 107.053 224.837 112.235 211.458 121.612C200.63 129.191 194.637 138.336 194.598 147.404C194.598 155.756 199.741 164.205 209.253 171.223L209.891 171.726C222.671 180.871 240.285 185.898 259.522 185.898C278.76 185.898 297.011 180.736 310.41 171.378L312.73 169.676C321.991 162.581 327.23 153.958 327.269 145.567C327.308 137.176 321.875 128.34 311.918 121.225Z" fill="#71AAFF"/>
<path d="M298.229 139.206C292.429 135.919 283.806 134.875 275.551 136.286C276.556 132.42 274.448 128.746 269.596 126.02C261.727 121.592 248.753 121.322 239.28 125.227L235.703 123.294C234.578 122.77 233.348 122.512 232.108 122.539C230.868 122.565 229.65 122.877 228.549 123.449C226.616 124.609 226.422 126.426 228.317 127.489L231.643 129.423L225.842 132.71L222.517 130.776C221.396 130.253 220.169 129.994 218.932 130.021C217.695 130.048 216.48 130.359 215.383 130.931C213.333 132.091 213.237 133.908 215.151 134.991L218.457 136.924L211.496 140.791C209.447 141.951 209.35 143.769 211.264 144.851C212.389 145.376 213.621 145.634 214.862 145.604C216.103 145.574 217.32 145.257 218.418 144.677L220.661 143.401L265.864 168.787L263.621 170.083C261.688 171.223 261.475 173.041 263.389 174.104C264.513 174.632 265.743 174.893 266.984 174.866C268.225 174.839 269.443 174.525 270.543 173.949L277.503 170.083L280.693 171.861C281.818 172.385 283.048 172.643 284.288 172.617C285.529 172.59 286.746 172.278 287.847 171.707C289.877 170.547 289.993 168.729 288.079 167.666L284.889 165.868L290.689 162.562L293.879 164.34C295.005 164.861 296.236 165.116 297.476 165.086C298.717 165.056 299.933 164.741 301.033 164.166C303.063 163.026 303.16 161.208 301.265 160.125L298.036 158.327C306.988 152.624 307.162 144.233 298.229 139.206ZM228.298 139.013L242.992 130.641C245.921 129.145 249.155 128.343 252.444 128.296C255.732 128.249 258.988 128.959 261.959 130.37C267.082 133.251 266.908 138.104 261.572 141.101L246.878 149.472L228.298 139.013ZM290.167 154.944L273.482 164.437L253.78 153.358L270.446 143.865C273.551 142.268 276.982 141.409 280.474 141.355C283.965 141.302 287.421 142.055 290.573 143.556C296.025 146.611 295.813 151.734 290.186 154.944H290.167Z" fill="white"/>
<g style="mix-blend-mode:screen" opacity="0.3">
<g style="mix-blend-mode:screen">
<path d="M311.918 121.225C309.552 119.551 307.071 118.045 304.493 116.72L237.655 183.558C252.556 186.785 267.987 186.673 282.839 183.23L326.418 139.651C324.543 133.077 319.574 126.697 311.918 121.225Z" fill="#71AAFF"/>
</g>
<g style="mix-blend-mode:screen">
<path d="M208.809 170.856C208.983 170.972 209.118 171.107 209.273 171.223L209.911 171.726C211.487 172.859 213.119 173.911 214.802 174.877L280.925 108.755C278.044 108.233 275.125 107.827 272.128 107.536L208.809 170.856Z" fill="#71AAFF"/>
</g>
</g>
<path d="M311.918 121.225C299.196 112.08 281.602 107.053 262.383 107.053C243.165 107.053 224.837 112.235 211.457 121.612C200.63 129.191 194.637 138.336 194.598 147.404C194.589 148.484 194.666 149.564 194.83 150.632C195.971 142.493 201.752 134.43 211.457 127.644C224.837 118.267 242.914 113.085 262.383 113.085C281.853 113.085 299.118 118.112 311.918 127.257C320.657 133.483 325.915 140.907 327.037 148.525C327.182 147.571 327.26 146.609 327.269 145.644C327.308 136.963 321.875 128.34 311.918 121.225Z" fill="#99F8D0"/>
<path d="M78.5155 183.423C56.8806 183.423 0.0961914 217.316 0.0961914 217.316C0.0961914 217.316 0.0961914 221.763 0.0961914 234.427C0.0961914 246.298 6.76647 257.821 19.121 266.927C19.3917 267.159 19.6624 267.353 19.9137 267.546C34.4916 277.967 54.3478 283.69 75.7507 283.69C97.1536 283.69 117.609 277.89 132.786 267.237L135.281 265.419C147.48 256.081 154.189 244.519 154.228 232.687C154.228 220.525 154.228 217.857 154.228 217.857C154.228 217.857 99.9571 183.423 78.5155 183.423Z" fill="#71AAFF"/>
<path d="M134.314 184.738C119.872 174.297 99.9576 168.574 78.516 168.574C57.0744 168.574 36.6189 174.375 21.4416 185.086C7.73366 194.676 0 206.875 0 219.578C0 231.449 6.67028 242.972 19.0248 252.098C19.2784 252.311 19.543 252.512 19.8175 252.697C34.3955 263.138 54.2516 268.861 75.6545 268.861C97.0574 268.861 117.513 263.06 132.69 252.407L135.184 250.59C147.384 241.252 154.093 229.69 154.132 217.857C154.209 205.696 147.152 193.922 134.314 184.738Z" fill="#5667FF"/>
<path d="M128.069 193.458C115.328 184.332 97.7337 179.305 78.5155 179.305C59.2974 179.305 40.9686 184.467 27.6087 193.864C16.7622 201.423 10.788 210.588 10.73 219.655C10.73 227.988 15.8729 236.457 25.4046 243.475L26.0233 243.978C38.8032 253.103 56.4166 258.13 75.6541 258.13C94.8915 258.13 113.162 252.987 126.542 243.61L128.862 241.928C138.142 234.813 143.362 226.21 143.401 217.819C143.44 209.428 138.007 200.572 128.069 193.458Z" fill="#71AAFF"/>
<path d="M114.362 211.458C108.562 208.171 99.9388 207.107 91.6831 208.519C92.7078 204.652 90.6004 200.998 85.7282 198.252C77.8592 193.825 64.886 193.554 55.4122 197.46L51.8354 195.526C50.7126 195.006 49.4851 194.751 48.248 194.781C47.0108 194.811 45.7972 195.126 44.7011 195.7C42.6517 196.86 42.555 198.658 44.4691 199.741L47.7752 201.674L41.975 204.981L38.6689 203.009C37.5454 202.481 36.315 202.22 35.0739 202.247C33.8328 202.273 32.6148 202.587 31.5152 203.163C29.4851 204.323 29.3691 206.141 31.2832 207.204L34.5893 209.137L27.6291 213.004C25.6956 214.164 25.483 215.982 27.397 217.064C28.5231 217.585 29.7538 217.84 30.9941 217.81C32.2344 217.78 33.4512 217.465 34.5507 216.89L36.7934 215.614L81.9967 241.039L79.7733 242.315C77.7238 243.475 77.6078 245.292 79.5219 246.356C80.6454 246.884 81.8758 247.145 83.1169 247.118C84.358 247.091 85.576 246.777 86.6756 246.201L93.6552 242.334L96.826 244.132C97.9521 244.653 99.1827 244.908 100.423 244.878C101.663 244.848 102.88 244.533 103.98 243.958C105.913 242.798 106.126 241 104.212 239.917L101.041 238.119L106.841 234.833L110.012 236.611C111.137 237.135 112.366 237.393 113.607 237.367C114.847 237.34 116.065 237.028 117.166 236.457C119.099 235.297 119.312 233.479 117.398 232.416L114.188 230.598C123.12 224.875 123.314 216.542 114.362 211.458ZM44.4691 211.264L59.1631 202.893C62.0891 201.388 65.3229 200.58 68.6125 200.529C71.9022 200.479 75.1592 201.188 78.1299 202.603C83.2534 205.483 83.0987 210.336 77.7625 213.333L63.0492 221.705L44.4691 211.264ZM106.338 227.196L89.6723 236.689L69.9515 225.591L86.6175 216.117C89.7222 214.52 93.1537 213.661 96.6448 213.607C100.136 213.553 103.592 214.307 106.744 215.808C112.139 218.863 111.984 223.967 106.338 227.196Z" fill="white"/>
<g style="mix-blend-mode:screen" opacity="0.3">
<g style="mix-blend-mode:screen">
<path d="M128.07 193.457C125.686 191.801 123.2 190.297 120.626 188.953L53.7881 255.791C60.9706 257.361 68.3028 258.146 75.655 258.13C83.5037 258.134 91.327 257.239 98.972 255.462L142.551 211.902C140.676 205.329 135.726 198.929 128.07 193.457Z" fill="#71AAFF"/>
</g>
<g style="mix-blend-mode:screen">
<path d="M24.9219 243.088L25.4052 243.475L26.0239 243.978C27.59 245.08 29.2141 246.124 30.9155 247.11L97.0383 180.987C94.1768 180.465 91.238 180.059 88.2606 179.769L24.9219 243.088Z" fill="#71AAFF"/>
</g>
</g>
<path d="M128.069 193.458C115.328 184.332 97.7337 179.305 78.5156 179.305C59.2974 179.305 40.9687 184.467 27.6088 193.864C16.7623 201.423 10.7881 210.588 10.73 219.655C10.7272 220.73 10.8113 221.803 10.9814 222.865C12.1028 214.744 17.8837 206.682 27.6088 199.896C40.9687 190.499 59.0461 185.337 78.5156 185.337C97.9851 185.337 115.25 190.364 128.069 199.49C136.789 205.735 142.048 213.159 143.169 220.757C143.313 219.81 143.391 218.854 143.401 217.896C143.459 209.215 138.007 200.572 128.069 193.458Z" fill="#99F8D0"/>
<path d="M78.5155 159.584C56.8806 159.584 0.0961914 193.496 0.0961914 193.496C0.0961914 193.496 0.0961914 197.924 0.0961914 210.588C0.0961914 222.459 6.76647 233.982 19.121 243.108L19.9137 243.707C34.4916 254.128 54.3478 259.87 75.7507 259.87C97.1536 259.87 117.609 254.07 132.786 243.398C133.656 242.798 134.449 242.199 135.281 241.6C147.48 232.261 154.189 220.68 154.228 208.867C154.228 196.686 154.228 194.018 154.228 194.018C154.228 194.018 99.9571 159.584 78.5155 159.584Z" fill="#71AAFF"/>
<path d="M134.314 160.899C119.872 150.478 99.9576 144.735 78.516 144.735C57.0744 144.735 36.6189 150.536 21.4416 161.247C7.73366 170.856 0 183.094 0 195.758C0 207.629 6.67028 219.153 19.0248 228.259C19.2955 228.491 19.5662 228.684 19.8175 228.878C34.3955 239.299 54.2516 245.041 75.6545 245.041C97.0574 245.041 117.513 239.241 132.69 228.568C133.56 227.969 134.353 227.35 135.184 226.751C147.384 217.413 154.093 205.851 154.132 194.018C154.209 181.857 147.152 170.141 134.314 160.899Z" fill="#5667FF"/>
<path d="M128.069 169.619C115.328 160.473 97.7337 155.466 78.5155 155.466C59.2974 155.466 40.9686 160.628 27.6087 170.025C16.7622 177.604 10.788 186.749 10.73 195.816C10.73 204.169 15.8729 212.618 25.4046 219.636L26.0233 220.139C38.8032 229.284 56.4166 234.291 75.6541 234.291C94.8915 234.291 113.162 229.148 126.542 219.771L128.862 218.089C138.142 210.994 143.362 202.371 143.401 193.98C143.44 185.589 138.007 176.734 128.069 169.619Z" fill="#71AAFF"/>
<path d="M114.362 187.541C108.562 184.254 99.9388 183.21 91.6831 184.622C92.7078 180.755 90.6004 177.081 85.7282 174.355C77.8592 169.928 64.886 169.657 55.4122 173.543L51.8354 171.61C50.7153 171.082 49.488 170.821 48.2501 170.848C47.0121 170.875 45.7973 171.189 44.7011 171.765C42.6517 172.925 42.555 174.742 44.4691 175.825L47.7752 177.758L41.975 181.045L38.6689 179.112C37.5454 178.584 36.315 178.323 35.0739 178.35C33.8328 178.376 32.6148 178.69 31.5152 179.266C29.4851 180.426 29.3691 182.244 31.2832 183.326L34.5893 185.26L27.6291 189.127C25.6956 190.287 25.483 192.104 27.397 193.187C28.5217 193.71 29.7516 193.969 30.9919 193.942C32.2322 193.915 33.4497 193.604 34.5507 193.032L36.7354 191.775L81.9387 217.2L79.7153 218.476C77.6658 219.636 77.5498 221.453 79.4639 222.536C80.5889 223.061 81.8201 223.319 83.0611 223.288C84.3022 223.258 85.5195 222.941 86.6175 222.362L93.6552 218.476L96.826 220.274C97.9494 220.802 99.1799 221.063 100.421 221.036C101.662 221.009 102.88 220.695 103.98 220.119C105.913 218.959 106.126 217.142 104.212 216.059L101.041 214.261L106.841 210.974L110.012 212.753C111.135 213.281 112.366 213.542 113.607 213.515C114.848 213.488 116.066 213.174 117.166 212.598C119.099 211.438 119.312 209.621 117.398 208.557L114.188 206.759C123.12 201.075 123.314 192.645 114.362 187.541ZM44.4691 187.425L59.1631 179.054C62.0909 177.555 65.324 176.75 68.6127 176.699C71.9013 176.649 75.1576 177.355 78.1299 178.764C83.1374 181.741 83.1374 186.478 77.7238 189.475L63.0106 197.846L44.4691 187.425ZM106.338 203.357L89.6723 212.85L69.9515 201.771L86.6175 192.278C89.7222 190.681 93.1537 189.822 96.6448 189.768C100.136 189.714 103.592 190.468 106.744 191.969C112.139 195.024 111.984 200.147 106.338 203.357Z" fill="white"/>
<g style="mix-blend-mode:screen" opacity="0.3">
<g style="mix-blend-mode:screen">
<path d="M128.07 169.619C125.686 167.962 123.2 166.458 120.626 165.114L53.7881 232.01C68.6917 235.211 84.1165 235.098 98.972 231.681L142.551 188.063C140.676 181.49 135.726 175.109 128.07 169.619Z" fill="#71AAFF"/>
</g>
<g style="mix-blend-mode:screen">
<path d="M24.9219 219.269L25.4052 219.636L26.0239 220.139C27.59 221.241 29.2141 222.304 30.9155 223.29L97.0383 157.167C94.1768 156.626 91.238 156.239 88.2606 155.949L24.9219 219.269Z" fill="#71AAFF"/>
</g>
</g>
<path d="M128.069 169.619C115.328 160.473 97.7342 155.466 78.516 155.466C59.2979 155.466 40.9691 160.628 27.6092 170.025C16.7628 177.604 10.7885 186.749 10.7305 195.816C10.7224 196.93 10.8065 198.042 10.9819 199.142C12.1032 191.002 17.8841 182.94 27.6092 176.153C40.9691 166.776 59.0466 161.595 78.516 161.595C97.9855 161.595 115.251 166.622 128.069 175.767C136.789 182.012 142.048 189.417 143.169 197.034C143.313 196.081 143.391 195.118 143.401 194.154C143.459 185.376 138.007 176.734 128.069 169.619Z" fill="#99F8D0"/>
<path d="M78.5155 135.745C56.8806 135.745 0.0961914 169.657 0.0961914 169.657C0.0961914 169.657 0.0961914 174.104 0.0961914 186.749C0.0961914 198.62 6.76647 210.143 19.121 219.269C19.3917 219.501 19.6624 219.675 19.9137 219.868C34.4916 230.308 54.3478 236.031 75.7507 236.031C97.1536 236.031 117.609 230.231 132.786 219.578L135.281 217.761C147.48 208.422 154.189 196.86 154.228 185.028C154.228 172.847 154.228 170.179 154.228 170.179C154.228 170.179 99.9571 135.745 78.5155 135.745Z" fill="#71AAFF"/>
<path d="M134.314 137.079C119.872 126.639 99.9576 120.916 78.516 120.916C57.0744 120.916 36.6189 126.716 21.4416 137.408C7.73366 146.94 0 159.255 0 171.919C0 183.79 6.67028 195.314 19.0248 204.439C19.2955 204.671 19.5662 204.845 19.8175 205.039C34.3955 215.479 54.2516 221.202 75.6545 221.202C97.0574 221.202 117.513 215.402 132.69 204.729C133.56 204.13 134.353 203.531 135.184 202.931C147.384 193.574 154.093 182.012 154.132 170.179C154.209 158.018 147.152 146.263 134.314 137.079Z" fill="#5667FF"/>
<path d="M128.069 145.799C115.328 136.654 97.7337 131.627 78.5155 131.627C59.2974 131.627 40.9686 136.808 27.6087 146.186C16.7622 153.764 10.788 162.91 10.73 172.074C10.73 180.426 15.8729 188.875 25.4046 195.894L26.0233 196.396C38.8032 205.541 56.4166 210.568 75.6541 210.568C94.8915 210.568 113.162 205.406 126.542 196.048L128.862 194.347C138.142 187.251 143.362 178.648 143.401 170.237C143.44 161.827 138.007 152.914 128.069 145.799Z" fill="#71AAFF"/>
<path d="M114.362 163.799C108.562 160.512 99.9388 159.449 91.6831 160.86C92.7078 156.993 90.6004 153.339 85.7282 150.594C77.8592 146.166 64.886 145.896 55.4122 149.801L51.8354 147.868C50.7141 147.344 49.4874 147.086 48.2502 147.113C47.0131 147.139 45.7987 147.451 44.7011 148.022C42.6517 149.182 42.555 151 44.4691 152.063L47.7752 153.997L41.975 157.303L38.6689 155.369C37.5431 154.85 36.3137 154.594 35.0742 154.621C33.8346 154.647 32.6175 154.956 31.5152 155.524C29.4851 156.684 29.3691 158.521 31.2832 159.584L34.5893 161.518L27.6291 165.5C25.6956 166.641 25.483 168.478 27.397 169.541C28.5217 170.065 29.7516 170.323 30.9919 170.296C32.2322 170.27 33.4497 169.958 34.5507 169.386L36.7354 167.956L81.9967 193.342L79.7733 194.637C77.7238 195.778 77.6078 197.614 79.5219 198.678C80.6466 199.201 81.8764 199.46 83.1167 199.433C84.357 199.406 85.5746 199.095 86.6756 198.523L93.6552 194.656L96.826 196.435C97.9494 196.963 99.1799 197.224 100.421 197.197C101.662 197.17 102.88 196.856 103.98 196.28C105.913 195.12 106.126 193.303 104.212 192.239L101.041 190.441L106.841 187.135L110.012 188.933C111.137 189.457 112.366 189.715 113.607 189.689C114.847 189.662 116.065 189.35 117.166 188.779C119.099 187.619 119.312 185.801 117.398 184.718L114.188 182.92C123.12 177.197 123.314 168.826 114.362 163.799ZM44.4691 163.606L59.1631 155.215C62.0906 153.713 65.3251 152.908 68.6148 152.861C71.9045 152.814 75.1606 153.527 78.1299 154.944C83.2534 157.825 83.0987 162.678 77.7625 165.674L63.0106 174.007L44.4691 163.606ZM106.338 179.518L89.6723 189.011L69.9322 177.874L86.5982 168.381C89.7133 166.805 93.1502 165.969 96.6413 165.939C100.132 165.909 103.583 166.685 106.725 168.207C112.139 171.185 111.984 176.308 106.338 179.518Z" fill="white"/>
<g style="mix-blend-mode:screen" opacity="0.3">
<g style="mix-blend-mode:screen">
<path d="M128.07 145.799C125.695 144.129 123.208 142.623 120.626 141.294L53.7881 208.132C68.689 211.359 84.1196 211.247 98.972 207.803L142.551 164.224C140.676 157.67 135.726 151.27 128.07 145.799Z" fill="#71AAFF"/>
</g>
<g style="mix-blend-mode:screen">
<path d="M24.9219 195.43L25.4052 195.797L26.0239 196.3C27.59 197.421 29.2141 198.465 30.9155 199.451L97.0383 133.406C94.1768 132.884 91.238 132.478 88.2606 132.188L24.9219 195.43Z" fill="#71AAFF"/>
</g>
</g>
<path d="M128.069 145.799C115.328 136.654 97.7338 131.627 78.5156 131.627C59.2975 131.627 40.9687 136.808 27.6088 146.186C16.7623 153.764 10.7881 162.91 10.7301 172.074C10.7265 173.155 10.8106 174.235 10.9814 175.303C12.1028 167.163 17.8837 159.101 27.6088 152.314C40.9687 142.937 59.0461 137.775 78.5156 137.775C97.9851 137.775 115.251 142.783 128.069 151.928C136.789 158.173 142.048 165.578 143.169 173.195C143.323 172.184 143.4 171.163 143.401 170.141C143.459 161.537 138.007 152.914 128.069 145.799Z" fill="#99F8D0"/>
<path d="M78.5155 111.906C56.8806 111.906 0.0961914 145.818 0.0961914 145.818C0.0961914 145.818 0.0961914 150.265 0.0961914 162.929C0.0961914 174.781 6.76647 186.323 19.121 195.43C19.3746 195.643 19.6392 195.843 19.9137 196.029C34.4916 206.469 54.3478 212.192 75.7507 212.192C97.1536 212.192 117.609 206.392 132.786 195.739C133.656 195.14 134.449 194.521 135.281 193.922C147.48 184.583 154.189 173.021 154.228 161.189C154.228 149.028 154.228 146.36 154.228 146.36C154.228 146.36 99.9571 111.906 78.5155 111.906Z" fill="#71AAFF"/>
<path d="M134.314 113.24C119.872 102.8 99.9576 97.0768 78.516 97.0768C57.0744 97.0768 36.6189 102.877 21.4416 113.588C7.73366 123.197 0 135.436 0 148.08C0 159.951 6.67028 171.494 19.0248 180.6C19.2784 180.814 19.543 181.014 19.8175 181.2C34.3955 191.64 54.2516 197.363 75.6545 197.363C97.0574 197.363 117.513 191.563 132.69 180.91C133.56 180.31 134.353 179.692 135.184 179.092C147.384 169.754 154.093 158.192 154.132 146.36C154.209 134.179 147.152 122.443 134.314 113.24Z" fill="#5667FF"/>
<path d="M128.069 121.96C115.328 112.834 97.7337 107.807 78.5155 107.807C59.2974 107.807 40.9686 112.969 27.6087 122.346C16.7622 129.925 10.788 139.09 10.73 148.158C10.73 156.491 15.8729 164.959 25.4046 171.958L26.0233 172.461C38.8032 181.625 56.4166 186.633 75.6541 186.633C94.8915 186.633 113.162 181.49 126.542 172.074L128.862 170.373C138.142 163.277 143.362 154.673 143.401 146.282C143.44 137.891 138.007 129.075 128.069 121.96Z" fill="#71AAFF"/>
<path d="M114.362 139.96C108.562 136.673 99.9388 135.61 91.6831 137.04C92.7078 133.174 90.6004 129.5 85.7282 126.755C77.8592 122.327 64.886 122.057 55.4122 125.962L51.8354 124.029C50.713 123.509 49.4868 123.253 48.2504 123.28C47.0139 123.307 45.8 123.616 44.7011 124.183C42.6517 125.343 42.555 127.161 44.4691 128.243L47.7752 130.177L41.975 133.483L38.6689 131.472C37.5454 130.944 36.315 130.683 35.0739 130.71C33.8328 130.737 32.6148 131.051 31.5152 131.627C29.4851 132.787 29.3691 134.604 31.2832 135.668L34.5893 137.601L27.6291 141.468C25.6956 142.628 25.483 144.445 27.397 145.509C28.5205 146.037 29.7509 146.298 30.992 146.271C32.2331 146.244 33.4511 145.93 34.5507 145.354L36.7354 144.117L81.9967 169.522L79.7733 170.817C77.7238 171.977 77.6078 173.795 79.5219 174.858C80.6454 175.386 81.8758 175.647 83.1169 175.62C84.358 175.593 85.576 175.279 86.6756 174.703L93.6552 170.837L96.826 172.635C97.9518 173.154 99.1811 173.41 100.421 173.383C101.66 173.357 102.877 173.048 103.98 172.48C105.913 171.301 106.126 169.483 104.212 168.42L101.041 166.622L106.841 163.335L110.012 165.114C111.135 165.642 112.366 165.902 113.607 165.876C114.848 165.849 116.066 165.535 117.166 164.959C119.099 163.799 119.312 161.982 117.398 160.918L114.188 159.101C123.12 153.378 123.314 145.006 114.362 139.96ZM44.4691 139.767L59.1244 131.472C62.0505 129.968 65.2842 129.159 68.5739 129.109C71.8636 129.059 75.1205 129.768 78.0912 131.182C83.2147 134.063 83.0601 138.916 77.7238 141.913L63.0106 150.226L44.4691 139.767ZM106.338 155.698L89.6723 165.191L69.9515 154.113L86.6175 144.6C89.725 143.01 93.1568 142.157 96.6471 142.107C100.137 142.056 103.592 142.81 106.744 144.31C112.139 147.365 111.984 152.469 106.338 155.698Z" fill="white"/>
<g style="mix-blend-mode:screen" opacity="0.3">
<g style="mix-blend-mode:screen">
<path d="M128.07 121.96C125.69 120.296 123.204 118.792 120.626 117.455L53.7881 184.293C60.9706 185.864 68.3028 186.648 75.655 186.633C83.5037 186.636 91.327 185.741 98.972 183.964L142.551 140.405C140.676 133.831 135.726 127.431 128.07 121.96Z" fill="#71AAFF"/>
</g>
<g style="mix-blend-mode:screen">
<path d="M24.9219 171.591L25.4052 171.958L26.0239 172.461C27.6045 173.596 29.2438 174.648 30.9348 175.612L97.0576 109.489C94.1961 108.967 91.2573 108.561 88.2799 108.291L24.9219 171.591Z" fill="#71AAFF"/>
</g>
</g>
<path d="M128.069 121.96C115.328 112.834 97.7337 107.807 78.5156 107.807C59.2974 107.807 40.9687 112.969 27.6088 122.346C16.7623 129.925 10.7881 139.09 10.73 148.158C10.7272 149.232 10.8113 150.306 10.9814 151.367C12.1028 143.247 17.8837 135.184 27.6088 128.379C40.9687 119.002 59.0461 113.839 78.5156 113.839C97.9851 113.839 115.25 118.866 128.069 127.992C136.789 134.237 142.048 141.661 143.169 149.26C143.313 148.306 143.39 147.343 143.401 146.379C143.459 137.717 138.007 129.075 128.069 121.96Z" fill="#99F8D0"/>
<path d="M78.5156 88.0864C56.8806 88.0864 0.096251 121.979 0.096251 121.979C0.096251 121.979 0.096251 126.426 0.096251 139.09C-0.000419758 150.961 6.66986 162.407 19.0244 171.591C19.2951 171.823 19.5657 172.016 19.8171 172.209C34.395 182.63 54.2512 188.373 75.6541 188.373C97.057 188.373 117.513 182.572 132.69 171.9C133.56 171.301 134.353 170.701 135.184 170.102C147.384 160.763 154.093 149.182 154.131 137.35C154.131 125.189 154.131 122.52 154.131 122.52C154.131 122.52 99.9571 88.0864 78.5156 88.0864Z" fill="#71AAFF"/>
<path d="M134.314 89.4011C119.872 78.98 99.9576 73.2378 78.516 73.2378C57.0744 73.2378 36.6189 79.038 21.4416 89.7492C7.73366 99.3582 0 111.597 0 124.261C0 136.112 6.67028 147.655 19.0248 156.761C19.2955 156.993 19.5662 157.187 19.8175 157.38C34.3955 167.801 54.2516 173.524 75.6545 173.524C97.0574 173.524 117.513 167.724 132.69 157.071C133.56 156.471 134.353 155.872 135.184 155.273C147.384 145.915 154.093 134.353 154.132 122.521C154.209 110.359 147.152 98.6042 134.314 89.4011Z" fill="#5667FF"/>
<path d="M128.069 98.1208C115.328 88.9371 97.7337 83.9682 78.5155 83.9682C59.2974 83.9682 40.9686 89.1304 27.6087 98.6042C16.7622 106.164 10.788 115.328 10.73 124.396C10.73 132.748 15.8729 141.197 25.4046 148.216L26.0233 148.718C38.8032 157.863 56.4166 162.89 75.6541 162.89C94.8915 162.89 113.162 157.728 126.542 148.351L128.862 146.669C138.142 139.554 143.362 130.95 143.401 122.559C143.44 114.168 138.007 105.236 128.069 98.1208Z" fill="#71AAFF"/>
<path d="M114.362 116.121C108.562 112.834 99.9388 111.771 91.6831 113.201C92.7078 109.335 90.6004 105.661 85.7282 102.935C77.8592 98.5075 64.886 98.2368 55.4122 102.123L51.8354 100.19C50.7126 99.6691 49.4851 99.414 48.248 99.4442C47.0108 99.4744 45.7972 99.789 44.7011 100.364C42.6517 101.446 42.5357 103.264 44.4691 104.404L47.7752 106.338L41.975 109.625L38.6689 107.691C37.5442 107.168 36.3143 106.909 35.074 106.936C33.8337 106.963 32.6162 107.274 31.5152 107.846C29.4851 109.006 29.3691 110.823 31.2832 111.887L34.5893 113.82L27.6291 117.687C25.6956 118.847 25.483 120.664 27.397 121.728C28.5193 122.26 29.7503 122.523 30.9922 122.497C32.234 122.47 33.4525 122.154 34.5507 121.573L36.7354 120.278L81.9967 145.702L79.7733 146.94C77.7238 148.1 77.6078 149.917 79.5219 150.98C80.6454 151.508 81.8758 151.769 83.1169 151.742C84.358 151.716 85.576 151.402 86.6756 150.826L93.6552 146.959L96.826 148.757C97.9506 149.281 99.1805 149.539 100.421 149.512C101.661 149.485 102.879 149.174 103.98 148.602C105.913 147.442 106.126 145.625 104.212 144.542L101.041 142.763L106.841 139.457L110.012 141.139C111.135 141.667 112.366 141.928 113.607 141.901C114.848 141.874 116.066 141.561 117.166 140.985C119.099 139.825 119.312 138.007 117.398 136.944L114.188 135.146C123.12 129.539 123.314 121.148 114.362 116.121ZM44.4691 116.005L59.1631 107.633C62.0906 106.132 65.3251 105.327 68.6148 105.28C71.9045 105.233 75.1606 105.946 78.1299 107.363C83.1374 110.205 83.1374 114.98 77.7238 117.938L63.0106 126.31L44.4691 116.005ZM106.338 131.859L89.6723 141.352L69.9515 130.273L86.6175 120.78C89.7222 119.183 93.1537 118.324 96.6448 118.27C100.136 118.217 103.592 118.97 106.744 120.471C112.139 123.526 111.984 128.63 106.338 131.859Z" fill="white"/>
<g style="mix-blend-mode:screen" opacity="0.3">
<g style="mix-blend-mode:screen">
<path d="M128.07 98.1208C125.69 96.4638 123.203 94.9654 120.626 93.6353L53.7881 160.473C68.689 163.7 84.1196 163.588 98.972 160.145L142.551 116.566C140.676 109.992 135.726 103.612 128.07 98.1208Z" fill="#71AAFF"/>
</g>
<g style="mix-blend-mode:screen">
<path d="M24.9219 147.771L25.4052 148.138L26.0239 148.641C27.59 149.762 29.2141 150.806 30.9155 151.792L97.0383 85.6503C94.1768 85.1476 91.238 84.7416 88.2606 84.4515L24.9219 147.771Z" fill="#71AAFF"/>
</g>
</g>
<path d="M128.069 98.1208C115.328 88.9371 97.7337 83.9682 78.5155 83.9682C59.2974 83.9682 40.9686 89.1304 27.6087 98.6042C16.7622 106.164 10.788 115.328 10.73 124.396C10.7289 125.471 10.813 126.544 10.9813 127.605C12.1027 119.466 17.8836 111.403 27.6087 104.617C40.9686 95.24 59.046 90.0585 78.5155 90.0585C97.985 90.0585 115.25 95.0853 128.069 104.211C136.789 110.456 142.048 117.88 143.169 125.479C143.313 124.525 143.391 123.562 143.401 122.598C143.459 113.878 138.007 105.236 128.069 98.1208Z" fill="#99F8D0"/>
<path d="M78.5155 62.488C56.8806 62.488 0.0961914 96.4001 0.0961914 96.4001C0.0961914 96.4001 0.0961914 100.847 0.0961914 113.511C0.0961914 125.363 6.76647 136.905 19.121 146.012C19.3917 146.244 19.6624 146.437 19.9137 146.63C34.4916 157.051 54.3478 162.794 75.7507 162.794C97.1536 162.794 117.609 156.993 132.786 146.321C133.656 145.722 134.449 145.122 135.281 144.523C147.48 135.165 154.189 123.603 154.228 111.771C154.228 99.6096 154.228 96.9414 154.228 96.9414C154.228 96.9414 99.9571 62.488 78.5155 62.488Z" fill="#71AAFF"/>
<path d="M134.314 63.8027C119.872 53.3816 99.9576 47.6587 78.516 47.6587C57.0744 47.6587 36.6189 53.4589 21.4416 64.1701C7.73366 73.7791 0 86.0177 0 98.6042C0 110.475 6.67028 122.018 19.0248 131.124C19.2784 131.338 19.543 131.538 19.8175 131.724C34.3955 142.164 54.2516 147.887 75.6545 147.887C97.0574 147.887 117.513 142.087 132.69 131.434C133.56 130.834 134.353 130.216 135.184 129.616C147.384 120.278 154.093 108.716 154.132 96.8834C154.209 84.7609 147.152 73.0251 134.314 63.8027Z" fill="#5667FF"/>
<path d="M128.069 72.5418C115.328 63.416 97.7337 58.3892 78.5155 58.3892C59.2974 58.3892 40.9686 63.5514 27.6087 72.9478C16.7622 80.5074 10.788 89.6718 10.73 98.7395C10.73 107.073 15.8729 115.541 25.4046 122.559L26.0233 123.043C38.8032 132.207 56.4166 137.272 75.6541 137.272C94.8915 137.272 113.162 132.13 126.542 122.753L128.862 121.051C138.142 113.956 143.362 105.352 143.401 96.9608C143.44 88.5698 138.007 79.6567 128.069 72.5418Z" fill="#71AAFF"/>
<path d="M114.362 90.5419C108.562 87.255 99.9388 86.1917 91.6831 87.6224C92.7078 83.7556 90.6004 80.0821 85.7282 77.3366C77.8592 72.9091 64.886 72.6384 55.4122 76.5439L51.8354 74.6105C50.713 74.0913 49.4868 73.8354 48.2504 73.8622C47.0139 73.889 45.8 74.1978 44.7011 74.7652C42.6517 75.9446 42.555 77.762 44.4691 78.8254L47.7752 80.7588L41.975 84.0649L38.6689 82.1315C37.5454 81.6035 36.315 81.3427 35.0739 81.3695C33.8328 81.3964 32.6148 81.7101 31.5152 82.2862C29.4851 83.4462 29.3691 85.2636 31.2832 86.327L34.5893 88.2604L27.6291 92.2239C25.6956 93.384 25.483 95.2014 27.397 96.2648C28.5205 96.7928 29.7509 97.0536 30.992 97.0267C32.2331 96.9999 33.4511 96.6862 34.5507 96.1101L36.7354 94.7374L81.9967 120.123L79.7733 121.399C77.7238 122.559 77.6078 124.377 79.5219 125.44C80.6454 125.968 81.8758 126.229 83.1169 126.202C84.358 126.175 85.576 125.861 86.6756 125.285L93.6552 121.418L96.826 123.217C97.9518 123.736 99.1811 123.992 100.421 123.965C101.66 123.938 102.877 123.63 103.98 123.062C105.913 121.883 106.126 120.065 104.212 119.002L101.041 117.204L106.841 113.917L110.012 115.696C111.135 116.224 112.366 116.484 113.607 116.458C114.848 116.431 116.066 116.117 117.166 115.541C119.099 114.381 119.312 112.563 117.398 111.5L114.188 109.683C123.12 103.96 123.314 95.5687 114.362 90.5419ZM44.4691 90.3485L59.1631 81.9768C62.0891 80.4726 65.3229 79.6639 68.6125 79.6136C71.9022 79.5633 75.1592 80.2728 78.1299 81.6868C83.2534 84.5676 83.0987 89.4205 77.7625 92.4173L63.0492 100.808L44.4691 90.3485ZM106.338 106.338L89.6723 115.831L69.9515 104.752L86.6175 95.2594C89.7222 93.662 93.1537 92.803 96.6448 92.7494C100.136 92.6957 103.592 93.4488 106.744 94.95C112.139 97.9468 111.984 103.051 106.338 106.338Z" fill="white"/>
<g style="mix-blend-mode:screen" opacity="0.3">
<g style="mix-blend-mode:screen">
<path d="M128.07 72.5418C125.69 70.8785 123.204 69.3736 120.626 68.0369L53.7881 134.875C60.9685 136.465 68.3006 137.269 75.655 137.273C83.5042 137.286 91.3286 136.39 98.972 134.604L142.551 90.9866C140.676 84.413 135.726 78.0327 128.07 72.5418Z" fill="#71AAFF"/>
</g>
<g style="mix-blend-mode:screen">
<path d="M24.9219 122.173C25.0959 122.308 25.2312 122.443 25.4052 122.559L26.0239 123.043C27.59 124.164 29.2141 125.227 30.9155 126.213L97.0383 60.0713C94.1768 59.5493 91.238 59.1432 88.2606 58.8726L24.9219 122.173Z" fill="#71AAFF"/>
</g>
</g>
<path d="M128.069 72.5418C115.328 63.416 97.7337 58.3892 78.5155 58.3892C59.2974 58.3892 40.9686 63.5514 27.6087 72.9478C16.7623 80.5074 10.788 89.6718 10.73 98.7395C10.7279 99.8208 10.812 100.9 10.9814 101.968C12.1027 93.8287 17.8837 85.7663 27.6087 78.98C40.9686 69.5836 59.0461 64.4214 78.5155 64.4214C97.985 64.4214 115.25 69.4483 128.069 78.574C136.789 84.8189 142.048 92.2433 143.169 99.8416C143.313 98.8878 143.39 97.9253 143.401 96.9608C143.459 88.2991 138.007 79.6567 128.069 72.5418Z" fill="#99F8D0"/>
<path d="M78.5155 38.6683C56.8806 38.6683 0.0961914 72.561 0.0961914 72.561C0.0961914 72.561 0.0961914 77.0079 0.0961914 89.6718C0.0961914 101.543 6.76647 113.066 19.121 122.172C19.3917 122.404 19.6624 122.598 19.9137 122.791C34.4916 133.232 54.3478 138.955 75.7507 138.955C97.1536 138.955 117.609 133.154 132.786 122.482C133.656 121.882 134.449 121.283 135.281 120.684C147.48 111.345 154.189 99.7642 154.228 87.9317C154.228 75.7705 154.228 73.1024 154.228 73.1024C154.228 73.1024 99.9571 38.6683 78.5155 38.6683Z" fill="#71AAFF"/>
<path d="M134.314 39.9831C119.872 29.5619 99.9576 23.8197 78.516 23.8197C57.0744 23.8197 36.6189 29.6199 21.4416 40.3311C7.73366 49.9401 0 62.1787 0 74.8425C0 86.7137 6.67028 98.2368 19.0248 107.343C19.2955 107.575 19.5662 107.769 19.8175 107.962C34.3955 118.383 54.2516 124.106 75.6545 124.106C97.0574 124.106 117.513 118.306 132.69 107.653C133.56 107.053 134.353 106.454 135.184 105.854C147.384 96.4968 154.093 84.935 154.132 73.1025C154.209 60.9413 147.152 49.1861 134.314 39.9831Z" fill="#5667FF"/>
<path d="M128.069 48.722C115.328 39.577 97.7337 34.5501 78.5155 34.5501C59.2974 34.5501 40.9686 39.7317 27.6087 49.1087C16.7622 56.6684 10.788 65.8328 10.73 74.9005C10.73 83.2528 15.8729 91.7019 25.4046 98.7202L26.0233 99.2228C38.8032 108.368 56.4166 113.395 75.6541 113.395C94.8915 113.395 113.162 108.271 126.542 98.8555L128.862 97.1734C138.142 90.0585 143.362 81.4548 143.401 73.0637C143.44 64.6727 138.007 55.837 128.069 48.722Z" fill="#71AAFF"/>
<path d="M114.362 66.7028C108.562 63.416 99.9388 62.372 91.6831 63.7833C92.7078 59.9165 90.6004 56.243 85.7282 53.5169C77.8592 49.0894 64.886 48.8187 55.4122 52.7049L51.8354 50.7715C50.7153 50.2437 49.488 49.9829 48.2501 50.0098C47.0121 50.0366 45.7973 50.3503 44.7011 50.9261C42.6517 52.0862 42.555 53.9036 44.4691 54.967L47.7752 56.9004L41.975 60.1872L38.6689 58.2538C37.5442 57.7301 36.3143 57.4717 35.074 57.4985C33.8337 57.5253 32.6162 57.8366 31.5152 58.4084C29.4851 59.5685 29.3691 61.3859 31.2832 62.4493L34.5893 64.3827L27.6291 68.2495C25.6956 69.4096 25.483 71.227 27.397 72.3097C28.522 72.8348 29.7532 73.0923 30.9943 73.0621C32.2354 73.0319 33.4526 72.7148 34.5507 72.1357L36.7354 70.8596L81.9967 96.2841L79.7733 97.5601C77.7238 98.7202 77.6078 100.538 79.5219 101.62C80.648 102.141 81.8787 102.396 83.119 102.366C84.3593 102.336 85.5761 102.021 86.6756 101.446L93.6552 97.5794L96.826 99.3775C97.9506 99.9012 99.1805 100.16 100.421 100.133C101.661 100.106 102.879 99.7947 103.98 99.2228C105.913 98.0628 106.126 96.2454 104.212 95.1627L101.041 93.3839L106.841 90.0778L110.012 91.8759C111.138 92.3953 112.367 92.6514 113.607 92.6246C114.846 92.5978 116.063 92.2888 117.166 91.7212C119.099 90.5611 119.312 88.7244 117.398 87.661L114.188 85.8629C123.12 80.1207 123.314 71.7297 114.362 66.7028ZM44.4691 66.5095L59.1631 58.1378C62.0906 56.6366 65.3251 55.8312 68.6148 55.7843C71.9045 55.7373 75.1606 56.4501 78.1299 57.8671C83.2534 60.7479 83.0987 65.6008 77.7625 68.5975L63.0492 76.9692L44.4691 66.5095ZM106.338 82.4408L89.6723 91.9339L69.9515 80.8554L86.6175 71.3623C89.7222 69.765 93.1537 68.906 96.6448 68.8523C100.136 68.7987 103.592 69.5518 106.744 71.053C112.139 74.1078 111.984 79.27 106.338 82.4408Z" fill="white"/>
<g style="mix-blend-mode:screen" opacity="0.3">
<g style="mix-blend-mode:screen">
<path d="M128.07 48.722C125.695 47.0518 123.208 45.5467 120.626 44.2172L53.7881 111.055C60.9722 112.617 68.3033 113.401 75.655 113.395C83.5037 113.398 91.327 112.503 98.972 110.727L142.551 67.1475C140.676 60.5739 135.726 54.1356 128.07 48.722Z" fill="#71AAFF"/>
</g>
<g style="mix-blend-mode:screen">
<path d="M24.9219 98.3528L25.4052 98.7201L26.0239 99.2228C27.59 100.344 29.2141 101.388 30.9155 102.374L97.0383 36.2322C94.1768 35.7295 91.238 35.3235 88.2606 35.0334L24.9219 98.3528Z" fill="#71AAFF"/>
</g>
</g>
<path d="M128.069 48.722C115.328 39.577 97.7337 34.5501 78.5155 34.5501C59.2974 34.5501 40.9686 39.7317 27.6087 49.1087C16.7623 56.6684 10.788 65.8328 10.73 74.9005C10.7279 75.9817 10.812 77.0614 10.9814 78.1293C12.1027 69.9896 17.8837 61.9273 27.6087 55.141C40.9686 45.7639 59.0461 40.6017 78.5155 40.6017C97.985 40.6017 115.25 45.6286 128.069 54.7736C136.789 60.9992 142.048 68.4235 143.169 76.0412C143.313 75.0875 143.391 74.1249 143.401 73.1604C143.459 64.46 138.007 55.837 128.069 48.722Z" fill="#99F8D0"/>
<path d="M78.5155 14.8293C56.8806 14.8293 0.0961914 48.7414 0.0961914 48.7414C0.0961914 48.7414 0.0961914 53.1883 0.0961914 65.8522C0.0961914 77.704 6.76647 89.2465 19.121 98.3529C19.3917 98.5849 19.6624 98.7589 19.9137 98.9522C34.4916 109.393 54.3478 115.116 75.7507 115.116C97.1536 115.116 117.609 109.315 132.786 98.6429C133.656 98.0435 134.449 97.4442 135.281 96.8448C147.48 87.5064 154.189 75.9446 154.228 64.1121C154.228 51.9509 154.228 49.2635 154.228 49.2635C154.228 49.2635 99.9571 14.8293 78.5155 14.8293Z" fill="#71AAFF"/>
<path d="M134.314 16.1633C119.872 5.80024 99.9576 0 78.516 0C57.0744 0 36.6189 5.80024 21.4416 16.492C7.73366 26.1011 0 38.359 0 51.0035C0 62.8747 6.67028 74.3978 19.0248 83.5235L19.8175 84.1229C34.3955 94.5633 54.2516 100.286 75.6545 100.286C97.0574 100.286 117.513 94.486 132.69 83.8135C133.56 83.2142 134.353 82.6148 135.184 82.0155C147.384 72.6771 154.093 61.0959 154.132 49.2634C154.209 37.1022 147.152 25.3471 134.314 16.1633Z" fill="#5667FF"/>
<path d="M128.069 24.8831C115.328 15.738 97.7337 10.7111 78.5155 10.7111C59.2974 10.7111 40.9686 15.8927 27.6087 25.2697C16.7622 32.8681 10.788 42.0131 10.73 51.0615C10.73 59.4138 15.8729 67.8822 25.4046 74.9005L26.0233 75.3839C38.8032 84.5289 56.4166 89.5558 75.6541 89.5558C94.8915 89.5558 113.162 84.3936 126.542 75.0358L128.862 73.3344C138.142 66.2388 143.362 57.6351 143.401 49.2247C143.44 40.8144 138.007 31.998 128.069 24.8831Z" fill="#71AAFF"/>
<path d="M114.362 42.8638C108.562 39.5963 99.9388 38.533 91.6831 39.9444C92.7078 36.0775 90.6004 32.4234 85.7282 29.6779C77.8592 25.2504 64.886 24.9797 55.4122 28.8659L51.8354 26.9325C50.7153 26.4047 49.488 26.1439 48.2501 26.1708C47.0121 26.1976 45.7973 26.5113 44.7011 27.0871C42.6517 28.2472 42.555 30.0646 44.4691 31.1473L47.7752 33.0807L41.975 36.3869L38.6689 34.4535C37.5431 33.934 36.3137 33.678 35.0742 33.7048C33.8346 33.7316 32.6175 34.0405 31.5152 34.6081C29.4851 35.7875 29.3691 37.5856 31.2832 38.6683L34.5893 40.6017L27.6291 44.4685C25.6956 45.6479 25.483 47.4653 27.397 48.5287C28.5217 49.0524 29.7516 49.3108 30.9919 49.284C32.2322 49.2572 33.4497 48.9459 34.5507 48.374L36.7354 47.04L81.9967 72.4451L79.7733 73.7211C77.7238 74.9005 77.6078 76.7179 79.5219 77.7813C80.6466 78.305 81.8764 78.5634 83.1167 78.5366C84.357 78.5097 85.5746 78.1984 86.6756 77.6266L93.6552 73.6438L96.826 75.4419C97.9494 75.9699 99.1799 76.2307 100.421 76.2038C101.662 76.177 102.88 75.8633 103.98 75.2872C105.913 74.1271 106.126 72.3097 104.212 71.2463L101.041 69.4483L106.841 66.1421L110.012 67.9402C111.135 68.4682 112.366 68.729 113.607 68.7022C114.848 68.6754 116.066 68.3616 117.166 67.7855C119.099 66.6255 119.312 64.8081 117.398 63.7254L114.188 61.8693C123.12 56.301 123.314 47.8907 114.362 42.8638ZM44.4691 42.6898L59.1631 34.3181C62.0864 32.8053 65.3211 31.9917 68.6123 31.9414C71.9036 31.8911 75.1616 32.6054 78.1299 34.0281C83.2534 36.9089 83.0987 41.7618 77.7625 44.7586L63.0492 53.1302L44.4691 42.6898ZM106.338 58.6018L89.6723 68.1142L69.9515 57.0164L86.6175 47.5233C89.7235 45.9302 93.1546 45.0737 96.6449 45.02C100.135 44.9664 103.591 45.7171 106.744 47.214C112.139 50.2688 111.984 55.3923 106.338 58.6018Z" fill="white"/>
<g style="mix-blend-mode:screen" opacity="0.3">
<g style="mix-blend-mode:screen">
<path d="M128.07 24.883C125.695 23.2128 123.208 21.7077 120.626 20.3782L53.7881 87.2163C60.9706 88.787 68.3028 89.5714 75.655 89.5558C83.5037 89.5593 91.327 88.6641 98.972 86.8876L142.551 43.3085C140.676 36.7349 135.726 30.3546 128.07 24.883Z" fill="#71AAFF"/>
</g>
<g style="mix-blend-mode:screen">
<path d="M24.9219 74.5138L25.4052 74.9005L26.0239 75.3838C27.59 76.5052 29.2141 77.5493 30.9155 78.5353L97.0383 12.4125C94.1768 11.8905 91.238 11.4845 88.2606 11.1945L24.9219 74.5138Z" fill="#71AAFF"/>
</g>
</g>
<path d="M128.069 24.8831C115.328 15.738 97.7338 10.7111 78.5156 10.7111C59.2975 10.7111 40.9687 15.8927 27.6088 25.2697C16.7623 32.8681 10.7881 42.0131 10.7301 51.0615C10.7265 52.1428 10.8106 53.2226 10.9814 54.2903C12.1028 46.1506 17.8837 38.1076 27.6088 31.302C40.9687 21.9249 59.0461 16.7627 78.5156 16.7627C97.9851 16.7627 115.251 21.7896 128.069 30.9153C136.789 37.1602 142.048 44.5846 143.169 52.1829C143.314 51.2293 143.392 50.2666 143.401 49.3021C143.459 40.6017 138.007 31.998 128.069 24.8831Z" fill="#99F8D0"/>
<path d="M128.398 274.216C106.782 274.216 49.9785 308.109 49.9785 308.109C49.9785 308.109 49.9785 312.556 49.8818 325.22C49.8818 337.091 56.5715 348.614 68.926 357.721C69.1722 357.943 69.4375 358.144 69.7187 358.32C84.2966 368.76 104.133 374.483 125.536 374.483C146.939 374.483 167.395 368.683 182.572 358.03C183.442 357.43 184.235 356.831 185.066 356.212C197.266 346.874 203.975 335.312 204.014 323.48C204.014 311.319 204.014 308.65 204.014 308.65C204.014 308.65 149.839 274.216 128.398 274.216Z" fill="#71AAFF"/>
<path d="M184.196 275.531C169.657 265.091 149.839 259.368 128.398 259.368C106.956 259.368 86.5201 265.168 71.3234 275.879C57.5768 285.546 50.0558 297.727 49.8818 310.371C49.8818 322.242 56.5715 333.765 68.926 342.891C69.1771 343.108 69.4419 343.308 69.7187 343.491C84.2966 353.931 104.133 359.654 125.536 359.654C146.939 359.654 167.395 353.854 182.572 343.201C183.442 342.601 184.235 342.002 185.066 341.383C197.266 332.045 203.975 320.483 204.014 308.65C204.091 296.489 197.053 284.715 184.196 275.531Z" fill="#5667FF"/>
<path d="M177.874 284.212C165.153 275.067 147.558 270.04 128.321 270.04C109.084 270.04 90.8707 275.26 77.4915 284.657C66.6644 292.216 60.6708 301.381 60.6128 310.448C60.6128 318.801 65.775 327.25 75.2874 334.268L75.9061 334.771C88.7053 343.897 106.319 348.943 125.537 348.943C144.755 348.943 163.045 343.781 176.424 334.404L178.764 332.721C188.025 325.606 193.264 317.003 193.284 308.612C193.303 300.221 187.89 291.366 177.874 284.212Z" fill="#71AAFF"/>
<path d="M164.341 302.251C158.541 298.964 149.917 297.901 141.662 299.312C142.667 295.445 140.56 291.791 135.707 289.046C127.819 284.618 114.865 284.347 105.372 288.253L101.814 286.319C100.689 285.794 99.458 285.537 98.2169 285.567C96.9758 285.597 95.7586 285.914 94.6605 286.493C92.6304 287.634 92.5144 289.452 94.4285 290.534L97.754 292.468L91.9537 295.774L88.6282 293.84C87.5036 293.317 86.2737 293.058 85.0334 293.085C83.7931 293.112 82.5756 293.423 81.4746 293.995C79.4445 295.155 79.3479 296.973 81.2426 298.036L84.5681 299.969L77.5884 303.952C75.5584 305.112 75.4617 306.93 77.3564 307.993C78.4799 308.521 79.7103 308.782 80.9514 308.755C82.1925 308.728 83.4105 308.414 84.5101 307.838L86.7722 306.562L131.975 331.987L129.733 333.263C127.683 334.423 127.587 336.24 129.501 337.304C130.624 337.832 131.855 338.092 133.096 338.066C134.337 338.039 135.555 337.725 136.654 337.149L143.615 333.185L146.805 334.983C147.927 335.504 149.155 335.759 150.392 335.729C151.629 335.699 152.843 335.384 153.939 334.809C155.988 333.649 156.085 331.851 154.19 330.769L151 328.99L156.8 325.684L159.991 327.463C161.112 327.986 162.339 328.244 163.576 328.217C164.813 328.191 166.027 327.879 167.125 327.308C169.174 326.148 169.271 324.33 167.376 323.267L164.167 321.45C173.022 315.669 173.196 307.278 164.341 302.251ZM94.3898 302.057L109.103 293.686C112.029 292.182 115.263 291.373 118.553 291.323C121.842 291.272 125.099 291.982 128.07 293.396C133.193 296.277 133.019 301.129 127.683 304.146L112.989 312.498L94.3898 302.057ZM156.259 317.989L139.593 327.482L119.872 316.403L136.538 306.891C139.638 305.31 143.06 304.462 146.539 304.412C150.018 304.361 153.463 305.11 156.607 306.601C162.059 309.656 161.866 314.76 156.201 317.989H156.259Z" fill="white"/>
<g style="mix-blend-mode:screen" opacity="0.3">
<g style="mix-blend-mode:screen">
<path d="M177.874 284.212C175.509 282.531 173.028 281.02 170.45 279.688L103.67 346.584C110.852 348.16 118.184 348.951 125.537 348.943C133.393 348.94 141.222 348.038 148.873 346.255L192.433 302.695C190.577 296.122 185.608 289.742 177.874 284.212Z" fill="#71AAFF"/>
</g>
<g style="mix-blend-mode:screen">
<path d="M74.8237 333.881L75.2877 334.268L75.9064 334.771C77.4725 335.873 79.0966 336.917 80.798 337.922L146.94 271.78C144.059 271.258 141.14 270.852 138.143 270.581L74.8237 333.881Z" fill="#71AAFF"/>
</g>
</g>
<path d="M177.874 284.212C165.153 275.067 147.559 270.04 128.321 270.04C109.084 270.04 90.8708 275.26 77.4916 284.657C66.6645 292.216 60.6709 301.381 60.6129 310.448C60.6101 311.523 60.6941 312.597 60.8642 313.658C62.0049 305.538 67.7858 297.475 77.4916 290.689C90.8515 281.293 108.948 276.13 128.398 276.13C147.849 276.13 165.133 281.157 177.952 290.283C186.691 296.528 191.93 303.952 193.071 311.551C193.209 310.603 193.28 309.647 193.284 308.689C193.342 300.008 187.89 291.366 177.874 284.212Z" fill="#99F8D0"/>
<path d="M128.398 250.377C106.782 250.377 49.9785 284.212 49.9785 284.212C49.9785 284.212 49.9785 288.678 49.8818 301.323C49.8818 313.194 56.5715 324.717 68.926 333.843C69.1773 334.055 69.448 334.249 69.7187 334.442C84.2966 344.883 104.133 350.605 125.536 350.605C146.939 350.605 167.395 344.805 182.572 334.133C183.442 333.533 184.235 332.934 185.066 332.335C197.266 322.977 203.975 311.415 204.014 299.583C204.014 287.421 204.014 284.753 204.014 284.753C204.014 284.753 149.839 250.377 128.398 250.377Z" fill="#71AAFF"/>
<path d="M184.196 251.692C169.657 241.271 149.839 235.548 128.398 235.548C106.956 235.548 86.5201 241.348 71.3234 252.04C57.5768 261.707 50.0558 273.888 49.8818 286.551C49.8818 298.423 56.5715 309.946 68.926 319.052C69.1722 319.275 69.4375 319.475 69.7187 319.652C84.2966 330.092 104.133 335.834 125.536 335.834C146.939 335.834 167.395 330.034 182.572 319.361C183.442 318.762 184.235 318.163 185.066 317.544C197.266 308.206 203.975 296.644 204.014 284.811C204.091 272.612 197.053 260.895 184.196 251.692Z" fill="#5667FF"/>
<path d="M177.874 260.431C165.153 251.286 147.558 246.259 128.321 246.259C109.084 246.259 90.8707 251.344 77.4915 260.818C66.6644 268.377 60.6708 277.542 60.6128 286.609C60.6128 294.962 65.775 303.411 75.2874 310.429L75.9061 310.932C88.7053 320.058 106.319 325.104 125.537 325.104C144.755 325.104 163.045 319.942 176.424 310.564L178.764 308.882C188.025 301.787 193.264 293.164 193.284 284.773C193.303 276.382 187.89 267.546 177.874 260.431Z" fill="#71AAFF"/>
<path d="M164.341 278.412C158.541 275.125 149.917 274.081 141.662 275.492C142.667 271.625 140.56 267.952 135.707 265.207C127.819 260.798 114.865 260.528 105.372 264.414L101.814 262.48C100.691 261.952 99.4602 261.692 98.2192 261.718C96.9781 261.745 95.7601 262.059 94.6605 262.635C92.6304 263.795 92.5144 265.613 94.4285 266.676L97.754 268.609L91.9537 271.896L88.6282 269.963C87.5036 269.439 86.2737 269.181 85.0334 269.207C83.7931 269.234 82.5756 269.546 81.4746 270.117C79.4445 271.277 79.3479 273.095 81.2426 274.178L84.5681 276.111L77.5884 280.074C75.5584 281.235 75.4617 283.052 77.3564 284.135C78.4814 284.66 79.7126 284.917 80.9537 284.887C82.1947 284.857 83.412 284.54 84.5101 283.961L86.7722 282.704L131.898 307.993L129.655 309.269C127.606 310.429 127.509 312.247 129.423 313.329C130.548 313.854 131.779 314.112 133.021 314.082C134.262 314.051 135.479 313.734 136.577 313.155L143.537 309.192L146.727 310.99C147.85 311.509 149.076 311.765 150.312 311.738C151.549 311.711 152.763 311.402 153.862 310.835C155.911 309.675 156.008 307.858 154.113 306.775L150.923 304.996L156.723 301.69L159.913 303.469C161.033 303.997 162.261 304.257 163.499 304.23C164.737 304.204 165.951 303.89 167.048 303.314C169.097 302.173 169.194 300.356 167.299 299.273L164.089 297.475C173.022 291.83 173.196 283.439 164.341 278.412ZM94.3898 278.218L109.103 269.847C112.031 268.346 115.265 267.54 118.555 267.493C121.845 267.446 125.101 268.159 128.07 269.576C133.193 272.457 133.019 277.31 127.683 280.306L112.989 288.678L94.3898 278.218ZM156.259 294.15L139.593 303.643L119.872 292.564L136.538 283.071C139.635 281.483 143.056 280.629 146.537 280.576C150.017 280.522 153.463 281.27 156.607 282.762C162.059 285.817 161.866 290.94 156.201 294.15H156.259Z" fill="white"/>
<g style="mix-blend-mode:screen" opacity="0.3">
<g style="mix-blend-mode:screen">
<path d="M177.874 260.431C175.504 258.757 173.024 257.246 170.45 255.907L103.67 322.764C110.853 324.334 118.185 325.118 125.537 325.104C133.392 325.107 141.222 324.212 148.873 322.436L192.433 278.856C190.577 272.283 185.608 265.902 177.874 260.431Z" fill="#71AAFF"/>
</g>
<g style="mix-blend-mode:screen">
<path d="M74.8237 310.062L75.2877 310.429L75.9064 310.932C77.4725 312.053 79.0966 313.097 80.798 314.083L146.94 247.96C144.059 247.438 141.14 247.032 138.143 246.742L74.8237 310.062Z" fill="#71AAFF"/>
</g>
</g>
<path d="M177.874 260.431C165.153 251.286 147.559 246.259 128.321 246.259C109.084 246.259 90.8708 251.344 77.4915 260.818C66.6644 268.377 60.6708 277.542 60.6128 286.609C60.6107 287.691 60.6948 288.77 60.8642 289.838C62.0049 281.699 67.7858 273.636 77.4915 266.85C90.8514 257.454 108.948 252.291 128.398 252.291C147.849 252.291 165.133 257.318 177.952 266.444C186.691 272.708 191.93 280.113 193.071 287.712C193.209 286.757 193.28 285.795 193.284 284.831C193.342 276.169 187.89 267.546 177.874 260.431Z" fill="#99F8D0"/>
</svg>
