<svg width="373" height="382" viewBox="0 0 373 382" fill="none" xmlns="http://www.w3.org/2000/svg">
<path d="M365.753 224.268L205.19 126.806C195.576 121.244 180.037 121.244 170.495 126.806L8.11766 225.372C-1.45277 230.905 -1.38016 239.923 8.23384 245.427L168.796 342.889C178.41 348.437 193.935 348.437 203.491 342.889L365.869 244.324C375.425 238.805 375.367 229.816 365.753 224.268Z" fill="#E5E2E2"/>
<path d="M365.869 245.297L203.491 343.412C193.935 348.959 178.411 348.727 168.797 343.165L8.23434 246.124C3.76137 243.554 1.37965 240.17 1.04563 237.266H0V269.216H1.03111C0.900404 275.025 3.2676 277.014 8.29243 279.875L168.855 377.482C178.469 383.03 193.994 383.102 203.55 377.482L365.927 279.846C368.9 278.35 371.268 275.879 372.637 272.846V238.166C371.278 241.257 368.885 243.779 365.869 245.297V245.297Z" fill="url(#paint0_linear_2_17)"/>
<path d="M306.079 229.453L193.151 161.022C191.275 159.937 189.146 159.366 186.979 159.366C184.812 159.366 182.683 159.937 180.807 161.022L68.6051 230.426C67.7041 230.951 66.9565 231.704 66.437 232.608C65.9175 233.513 65.6441 234.538 65.6441 235.581C65.6441 236.624 65.9175 237.649 66.437 238.554C66.9565 239.458 67.7041 240.211 68.6051 240.737L178.033 307.541C180.512 308.982 183.328 309.741 186.195 309.741C189.062 309.741 191.878 308.982 194.357 307.541L306.094 238.791C306.903 238.308 307.572 237.624 308.037 236.804C308.501 235.985 308.745 235.059 308.743 234.117C308.742 233.176 308.495 232.25 308.028 231.433C307.561 230.615 306.89 229.932 306.079 229.453V229.453Z" fill="#57B156"/>
<path d="M365.753 165.553L205.19 68.0186C195.576 62.4419 180.081 62.4419 170.496 68.0186L8.11786 166.598C-1.43804 172.146 -1.37995 181.121 8.23404 186.683L168.797 284.159C178.411 289.707 193.935 289.707 203.491 284.159L365.869 185.58C375.425 180.075 375.367 171.042 365.753 165.553Z" fill="#E5E2E2"/>
<path d="M365.869 185.449L203.491 284.087C193.935 289.634 178.411 289.678 168.797 284.087L8.23434 186.131C3.76137 183.561 1.45227 182.138 1.04563 176.343H0V211.197H1.03111C0.900404 214.102 3.2676 218.619 8.29243 221.48L168.855 318.898C178.469 324.445 193.994 324.431 203.55 318.898L365.927 220.143C369.558 218.023 371.736 216.484 372.637 213.419V178.725C371.78 181.717 369.514 183.329 365.869 185.449Z" fill="url(#paint1_linear_2_17)"/>
<path d="M306.08 170.679L193.151 102.234C191.276 101.146 189.147 100.573 186.979 100.573C184.811 100.573 182.682 101.146 180.807 102.234L68.6051 171.638C67.7041 172.163 66.9565 172.916 66.437 173.821C65.9175 174.725 65.6441 175.75 65.6441 176.793C65.6441 177.836 65.9175 178.861 66.437 179.766C66.9565 180.671 67.7041 181.423 68.6051 181.949L178.033 248.753C180.513 250.19 183.329 250.947 186.195 250.947C189.061 250.947 191.877 250.19 194.357 248.753L306.08 180.075C306.903 179.598 307.586 178.913 308.061 178.088C308.535 177.264 308.785 176.329 308.785 175.377C308.785 174.426 308.535 173.491 308.061 172.667C307.586 171.842 306.903 171.157 306.08 170.679V170.679Z" fill="#D0D4DE"/>
<path d="M365.753 101.653L205.19 4.14803C195.576 -1.3851 180.081 -1.3851 170.496 4.16256L8.11786 102.728C-1.43804 108.275 -1.37995 117.25 8.23404 122.827L168.797 220.289C178.411 225.836 193.935 225.836 203.491 220.289L365.869 121.709C375.425 116.176 375.367 107.172 365.753 101.653Z" fill="#E5E2E2"/>
<path d="M365.869 121.578L203.491 220.216C193.935 225.764 178.411 225.807 168.797 220.216L8.23434 122.275C3.76137 119.69 1.45227 118.282 1.04563 112.472H0V147.327H1.03111C0.900404 150.231 3.2676 154.762 8.29243 157.623L168.855 255.041C178.469 260.589 193.994 260.56 203.55 255.041L365.927 156.287C369.558 154.182 371.736 152.628 372.637 149.563V114.854C371.78 117.846 369.514 119.458 365.869 121.578Z" fill="url(#paint2_linear_2_17)"/>
<path d="M306.08 106.809L193.151 38.3779C191.275 37.293 189.146 36.7218 186.979 36.7218C184.812 36.7218 182.683 37.293 180.807 38.3779L68.6051 107.782C67.7041 108.307 66.9565 109.06 66.437 109.965C65.9175 110.869 65.6441 111.894 65.6441 112.937C65.6441 113.98 65.9175 115.005 66.437 115.91C66.9565 116.814 67.7041 117.567 68.6051 118.093L178.033 184.897C180.512 186.338 183.328 187.097 186.195 187.097C189.062 187.097 191.878 186.338 194.357 184.897L306.08 116.176C306.892 115.694 307.565 115.008 308.033 114.187C308.501 113.366 308.746 112.437 308.746 111.492C308.746 110.547 308.501 109.619 308.033 108.797C307.565 107.976 306.892 107.291 306.08 106.809Z" fill="#D0D4DE"/>
<defs>
<linearGradient id="paint0_linear_2_17" x1="45.4849" y1="309.458" x2="317.93" y2="309.458" gradientUnits="userSpaceOnUse">
<stop stop-color="#7AFBE4"/>
<stop offset="1" stop-color="#4A54F4"/>
</linearGradient>
<linearGradient id="paint1_linear_2_17" x1="0" y1="249.668" x2="375.323" y2="249.668" gradientUnits="userSpaceOnUse">
<stop stop-color="#7AFBE4"/>
<stop offset="1" stop-color="#4A54F4"/>
</linearGradient>
<linearGradient id="paint2_linear_2_17" x1="0" y1="185.812" x2="375.323" y2="185.812" gradientUnits="userSpaceOnUse">
<stop stop-color="#7AFBE4"/>
<stop offset="1" stop-color="#4A54F4"/>
</linearGradient>
</defs>
</svg>
