<svg width="12" height="12" viewBox="0 0 12 12" fill="none" xmlns="http://www.w3.org/2000/svg">
<path d="M1 5.3C0.613401 5.3 0.3 5.6134 0.3 6C0.3 6.3866 0.613401 6.7 1 6.7L1 5.3ZM11.495 6.49498C11.7683 6.22161 11.7683 5.77839 11.495 5.50503L7.0402 1.05025C6.76684 0.776886 6.32362 0.776886 6.05025 1.05025C5.77689 1.32362 5.77689 1.76684 6.05025 2.0402L10.0101 6L6.05025 9.9598C5.77689 10.2332 5.77689 10.6764 6.05025 10.9497C6.32362 11.2231 6.76683 11.2231 7.0402 10.9497L11.495 6.49498ZM1 6.7L11 6.7L11 5.3L1 5.3L1 6.7Z" fill="#99F8D0"/>
</svg>
