<svg width="365" height="770" viewBox="0 0 365 770" fill="none" xmlns="http://www.w3.org/2000/svg">
<path d="M252.792 769.291H251.204V764.53H252.792V769.291ZM252.792 755.007H251.204V750.246H252.792V755.007ZM252.792 740.724H251.204V735.963H252.792V740.724ZM252.792 726.44H251.204V721.679H252.792V726.44ZM250.601 712.315C250.363 710.76 250.061 709.221 249.712 707.713L251.252 707.348C251.617 708.887 251.935 710.49 252.173 712.077L250.601 712.315ZM246.758 698.809C246.139 697.381 245.456 695.953 244.726 694.588L246.123 693.842C246.869 695.254 247.584 696.715 248.203 698.19L246.742 698.809H246.758ZM239.628 686.716C238.676 685.478 237.659 684.272 236.611 683.129L237.786 682.05C238.866 683.24 239.914 684.478 240.899 685.748L239.644 686.716H239.628ZM229.72 676.765C228.497 675.813 227.211 674.892 225.893 674.035L226.766 672.702C228.116 673.591 229.434 674.527 230.688 675.511L229.704 676.765H229.72ZM217.636 669.592C216.206 668.973 214.73 668.401 213.253 667.909L213.761 666.402C215.27 666.91 216.794 667.497 218.271 668.132L217.636 669.592ZM204.138 665.687C202.598 665.449 201.026 665.275 199.47 665.164L199.581 663.577C201.169 663.688 202.788 663.862 204.376 664.116L204.138 665.687ZM190.006 665.037H185.242V663.45H190.006V665.037ZM175.714 665.037H170.95V663.45H175.714V665.037ZM161.423 665.037H156.659V663.45H161.423V665.037ZM147.131 665.037H142.368V663.45H147.131V665.037ZM132.84 665.037H128.076V663.45H132.84V665.037ZM118.549 665.037H113.785V663.45H118.549V665.037ZM104.257 665.037H99.4936V663.45H104.257V665.037ZM89.966 665.037H85.2022V663.45H89.966V665.037ZM75.5952 664.688C74.0073 664.513 72.4035 664.259 70.8315 663.942L71.149 662.386C72.6735 662.688 74.2455 662.926 75.7858 663.101L75.6111 664.672L75.5952 664.688ZM61.5579 661.26C60.0653 660.688 58.5726 660.038 57.1276 659.339L57.8263 657.911C59.2237 658.593 60.6846 659.228 62.1296 659.784L61.5579 661.26V661.26ZM48.8545 654.404C47.5524 653.483 46.2821 652.483 45.0435 651.436L46.0756 650.23C47.2666 651.245 48.521 652.213 49.7755 653.118L48.8545 654.404ZM38.2471 644.595C37.215 643.373 36.2305 642.088 35.2936 640.771L36.5957 639.85C37.5008 641.12 38.4536 642.374 39.4698 643.564L38.2471 644.58V644.595ZM30.4028 632.454C29.72 631.01 29.0689 629.518 28.4972 628.011L29.9899 627.455C30.5457 628.915 31.165 630.36 31.8319 631.772L30.4028 632.454ZM25.8772 618.742C25.5755 617.171 25.3373 615.568 25.1626 613.965L26.7346 613.791C26.8934 615.346 27.1316 616.901 27.4333 618.425L25.8772 618.726V618.742ZM26.5123 604.427L24.9244 604.348C25.0038 602.745 25.1626 601.126 25.3849 599.539L26.9569 599.761C26.7505 601.3 26.5917 602.872 26.5123 604.427V604.427ZM29.0371 590.62L27.5286 590.143C28.0209 588.62 28.5766 587.096 29.1959 585.62L30.6568 586.223C30.0534 587.668 29.5135 589.144 29.0371 590.62V590.62ZM34.976 577.907L33.6263 577.066C34.4837 575.717 35.4047 574.384 36.3734 573.098L37.6437 574.051C36.691 575.304 35.8017 576.606 34.976 577.907V577.907ZM43.9002 567.068L42.8045 565.909C43.9637 564.814 45.2023 563.751 46.4567 562.751L47.4412 563.989C46.2185 564.957 45.0276 565.988 43.9002 567.068V567.068ZM55.2539 558.783L54.4917 557.402C55.889 556.625 57.3499 555.895 58.8108 555.244L59.4619 556.688C58.0327 557.323 56.6195 558.037 55.2539 558.783ZM68.3066 553.609L67.9097 552.07C69.4658 551.673 71.0538 551.34 72.6417 551.086L72.8958 552.657C71.3555 552.911 69.8152 553.228 68.3066 553.625V553.609ZM301.367 551.895H296.603V550.308H301.367V551.895ZM287.076 551.895H282.312V550.308H287.076V551.895ZM272.784 551.895H268.021V550.308H272.784V551.895ZM258.493 551.895H253.729V550.308H258.493V551.895ZM244.202 551.895H239.438V550.308H244.202V551.895ZM229.91 551.895H225.146V550.308H229.91V551.895ZM215.619 551.895H210.855V550.308H215.619V551.895ZM201.328 551.895H196.564V550.308H201.328V551.895ZM187.036 551.895H182.272V550.308H187.036V551.895ZM172.745 551.895H167.981V550.308H172.745V551.895ZM158.453 551.895H153.69V550.308H158.453V551.895ZM144.162 551.895H139.398V550.308H144.162V551.895ZM129.871 551.895H125.107V550.308H129.871V551.895ZM115.579 551.895H110.816V550.308H115.579V551.895ZM101.288 551.895H96.5242V550.308H101.288V551.895ZM86.9966 551.895H82.2328V550.308H86.9966V551.895ZM310.926 551.8L310.831 550.213C312.387 550.118 313.959 549.959 315.5 549.737L315.722 551.308C314.134 551.53 312.514 551.705 310.911 551.784L310.926 551.8ZM325.123 549.134L324.63 547.626C326.107 547.15 327.584 546.594 329.029 545.991L329.648 547.451C328.171 548.07 326.647 548.642 325.123 549.134V549.134ZM338.175 542.96L337.318 541.627C338.636 540.786 339.922 539.881 341.161 538.945L342.129 540.199C340.859 541.167 339.525 542.103 338.175 542.96V542.96ZM349.291 533.723L348.132 532.644C349.196 531.502 350.228 530.295 351.196 529.089L352.451 530.073C351.466 531.327 350.402 532.565 349.307 533.739L349.291 533.723ZM357.754 522.027L356.357 521.265C357.103 519.9 357.802 518.488 358.437 517.059L359.898 517.694C359.247 519.154 358.533 520.614 357.77 522.027H357.754ZM363.011 508.568L361.47 508.188C361.851 506.68 362.169 505.125 362.407 503.585L363.979 503.839C363.725 505.426 363.392 507.013 363.011 508.568V508.568ZM364.694 494.237H363.106V489.476H364.694V494.237ZM364.694 479.954H363.106V475.193H364.694V479.954ZM362.582 465.797C362.375 464.274 362.09 462.718 361.74 461.179L363.28 460.83C363.63 462.401 363.932 464.004 364.138 465.575L362.566 465.797H362.582ZM358.898 452.26C358.294 450.815 357.627 449.387 356.913 448.006L358.326 447.276C359.057 448.689 359.739 450.165 360.359 451.641L358.898 452.244V452.26ZM351.911 440.071C350.974 438.833 349.974 437.611 348.926 436.453L350.117 435.389C351.18 436.579 352.213 437.833 353.181 439.119L351.911 440.071V440.071ZM342.113 430.009C340.891 429.041 339.62 428.105 338.334 427.232L339.223 425.914C340.557 426.803 341.859 427.755 343.114 428.771L342.129 430.009H342.113ZM330.125 422.693C328.711 422.058 327.234 421.471 325.758 420.963L326.282 419.471C327.806 419.995 329.315 420.598 330.776 421.248L330.125 422.693V422.693ZM316.675 418.63C315.15 418.376 313.578 418.185 312.022 418.058L312.149 416.471C313.753 416.598 315.373 416.805 316.945 417.059L316.675 418.63V418.63ZM302.558 417.884H297.794V416.297H302.558V417.884ZM288.267 417.884H283.503V416.297H288.267V417.884ZM273.975 417.884H269.212V416.297H273.975V417.884ZM259.684 417.884H254.92V416.297H259.684V417.884ZM245.345 417.789C243.741 417.693 242.121 417.535 240.534 417.297L240.756 415.725C242.296 415.948 243.868 416.106 245.424 416.202L245.329 417.789H245.345ZM231.149 415.107C229.609 414.599 228.1 414.043 226.623 413.424L227.243 411.964C228.672 412.567 230.148 413.123 231.641 413.599L231.149 415.107V415.107ZM218.096 408.933C216.746 408.076 215.412 407.139 214.142 406.171L215.111 404.918C216.349 405.87 217.651 406.774 218.954 407.616L218.096 408.949V408.933ZM206.996 399.696C205.901 398.522 204.837 397.284 203.852 396.03L205.107 395.046C206.075 396.268 207.092 397.458 208.156 398.601L206.996 399.68V399.696ZM198.533 387.984C197.771 386.587 197.056 385.127 196.405 383.651L197.866 383.016C198.501 384.444 199.2 385.873 199.93 387.222L198.533 387.984ZM193.277 374.525C192.896 372.97 192.562 371.383 192.308 369.796L193.88 369.542C194.118 371.081 194.436 372.621 194.817 374.144L193.277 374.525V374.525ZM193.197 360.194H191.609V355.433H193.197V360.194ZM193.197 345.911H191.609V341.149H193.197V345.911ZM190.784 331.818C190.514 330.278 190.18 328.739 189.783 327.231L191.324 326.818C191.736 328.374 192.086 329.961 192.356 331.532L190.8 331.802L190.784 331.818ZM186.607 318.423C185.956 317.01 185.242 315.614 184.48 314.249L185.861 313.471C186.655 314.868 187.386 316.312 188.052 317.772L186.607 318.439V318.423ZM179.192 306.504C178.207 305.298 177.159 304.108 176.079 302.981L177.223 301.886C178.334 303.044 179.414 304.25 180.414 305.504L179.176 306.504H179.192ZM169.045 296.791C167.79 295.871 166.488 294.982 165.154 294.157L165.996 292.808C167.362 293.649 168.711 294.569 169.998 295.521L169.045 296.791V296.791ZM156.802 289.903C155.357 289.316 153.864 288.792 152.372 288.332L152.832 286.824C154.357 287.301 155.897 287.84 157.39 288.443L156.802 289.919V289.903ZM143.209 286.332C141.669 286.126 140.097 285.999 138.541 285.936L138.604 284.349C140.208 284.412 141.828 284.555 143.416 284.761L143.209 286.332V286.332ZM129.045 285.872H124.281V284.285H129.045V285.872ZM114.754 285.872H109.99V284.285H114.754V285.872ZM100.462 285.872H95.6984V284.285H100.462V285.872ZM86.1709 285.872H81.4071V284.285H86.1709V285.872ZM71.8795 285.872H67.1157V284.285H71.8795V285.872ZM57.5881 285.872C55.9843 285.872 54.3646 285.777 52.7608 285.634L52.9037 284.047C54.4599 284.19 56.0319 284.269 57.5881 284.285V285.872V285.872ZM43.265 283.92C41.7247 283.507 40.1685 283.015 38.66 282.46L39.1999 280.968C40.6608 281.508 42.1693 281.984 43.6779 282.381L43.265 283.92V283.92ZM29.9105 278.413C28.529 277.619 27.1475 276.762 25.8295 275.842L26.7346 274.541C28.0209 275.429 29.3547 276.27 30.7045 277.032L29.9105 278.413ZM18.3663 269.732C17.2229 268.621 16.0955 267.446 15.0475 266.224L16.2384 265.177C17.2706 266.351 18.3504 267.494 19.4619 268.589L18.3504 269.732H18.3663ZM9.33093 258.464C8.48933 257.099 7.69536 255.67 6.98079 254.242L8.39405 253.528C9.09274 254.924 9.85495 256.305 10.6807 257.623L9.33093 258.448V258.464ZM3.40795 245.291C2.94745 243.752 2.53459 242.18 2.20112 240.625L3.7573 240.292C4.07488 241.815 4.47186 243.339 4.93236 244.831L3.40795 245.291V245.291ZM1.01018 231.055C0.978419 230.309 0.96254 229.563 0.96254 228.817V228.214C0.96254 227.548 0.962539 226.897 0.994297 226.246L2.58223 226.294C2.56635 226.929 2.55047 227.564 2.55047 228.214V228.817C2.55047 229.547 2.55047 230.277 2.59811 230.992L1.01018 231.055ZM3.70966 216.994L2.15349 216.676C2.48695 215.105 2.88393 213.534 3.32855 211.995L4.85297 212.455C4.40835 213.947 4.02725 215.47 3.70966 217.01V216.994ZM8.29878 203.726L6.86964 203.028C7.58421 201.599 8.36229 200.171 9.18802 198.806L10.5536 199.631C9.74379 200.964 8.98159 202.361 8.29878 203.742V203.726ZM16.0796 192.029L14.8728 190.998C15.9208 189.776 17.0324 188.601 18.1757 187.474L19.2873 188.601C18.1757 189.696 17.0959 190.839 16.0796 192.013V192.029ZM26.5282 182.634L25.6231 181.333C26.9411 180.412 28.3226 179.539 29.7041 178.746L30.498 180.126C29.1483 180.904 27.8144 181.745 26.5282 182.634V182.634ZM38.9935 176.127L38.4377 174.635C39.9303 174.08 41.4865 173.588 43.0427 173.159L43.4714 174.683C41.9629 175.095 40.4544 175.587 39.0093 176.127H38.9935ZM52.6814 172.985L52.5226 171.398C54.1106 171.239 55.7461 171.159 57.3499 171.128V172.715C55.8096 172.731 54.2376 172.826 52.6814 172.969V172.985ZM210.665 172.715H209.791V171.128H210.665C211.935 171.128 213.237 171.08 214.491 171.001L214.603 172.588C213.301 172.683 211.983 172.715 210.665 172.731V172.715ZM200.264 172.715H195.5V171.128H200.264V172.715ZM185.972 172.715H181.208V171.128H185.972V172.715ZM171.681 172.715H166.917V171.128H171.681V172.715ZM157.39 172.715H152.626V171.128H157.39V172.715ZM143.098 172.715H138.334V171.128H143.098V172.715ZM128.807 172.715H124.043V171.128H128.807V172.715ZM114.515 172.715H109.752V171.128H114.515V172.715ZM100.224 172.715H95.4602V171.128H100.224V172.715ZM85.9327 172.715H81.1689V171.128H85.9327V172.715ZM71.6413 172.715H66.8775V171.128H71.6413V172.715ZM224.13 171.096L223.749 169.557C225.258 169.191 226.782 168.747 228.259 168.255L228.767 169.763C227.243 170.271 225.686 170.731 224.13 171.112V171.096ZM237.612 165.906L236.865 164.51C238.247 163.764 239.597 162.954 240.899 162.113L241.772 163.446C240.438 164.319 239.041 165.144 237.628 165.922L237.612 165.906ZM249.362 157.511L248.283 156.352C249.426 155.305 250.537 154.178 251.585 153.019L252.761 154.083C251.681 155.273 250.537 156.416 249.362 157.511V157.511ZM258.668 146.449L257.334 145.592C258.175 144.291 258.985 142.926 259.716 141.545L261.113 142.291C260.351 143.703 259.541 145.116 258.668 146.449ZM264.908 133.419L263.4 132.927C263.892 131.435 264.321 129.928 264.686 128.42L266.226 128.785C265.861 130.34 265.416 131.896 264.908 133.435V133.419ZM267.655 119.247L266.067 119.151C266.147 117.993 266.179 116.819 266.179 115.644V114.438H267.766V115.644C267.766 116.85 267.735 118.056 267.655 119.247ZM267.766 104.916H266.179V100.154H267.766V104.916ZM267.766 90.632H266.179V85.8708H267.766V90.632ZM267.766 76.3485H266.179V71.5873H267.766V76.3485ZM267.766 62.0649H266.179V57.3037H267.766V62.0649ZM267.766 47.7814H266.179V43.0202H267.766V47.7814ZM267.766 33.4978H266.179V28.7366H267.766V33.4978ZM267.766 19.2143H266.179V14.4531H267.766V19.2143ZM267.766 4.93074H266.179V0.169556H267.766V4.93074Z" fill="url(#paint0_linear_1262_3363)" fill-opacity="0.8"/>
<defs>
<linearGradient id="paint0_linear_1262_3363" x1="203.5" y1="-15.9999" x2="182.828" y2="769.291" gradientUnits="userSpaceOnUse">
<stop stop-color="white" stop-opacity="0"/>
<stop offset="0.12363" stop-color="white" stop-opacity="0.87637"/>
<stop offset="0.887038" stop-color="white" stop-opacity="0.112962"/>
<stop offset="1" stop-color="white" stop-opacity="0"/>
</linearGradient>
</defs>
</svg>
