<svg width="142" height="28" viewBox="0 0 142 28" fill="none" xmlns="http://www.w3.org/2000/svg">
<path d="M45.8434 10.3363C45.7184 10.1995 45.4545 10.0217 45.0519 9.80283C44.6493 9.57031 44.1631 9.36513 43.5939 9.18731C43.0383 8.99582 42.4623 8.90007 41.8651 8.90007C40.2961 8.90007 39.5115 9.4472 39.5115 10.5414C39.5115 10.9381 39.6364 11.2527 39.8864 11.4852C40.1363 11.7178 40.5112 11.9161 41.0111 12.0802C41.511 12.2444 42.1359 12.4222 42.8857 12.6137C43.8578 12.8599 44.6978 13.1471 45.406 13.4754C46.1281 13.8037 46.6765 14.2414 47.0514 14.7885C47.4403 15.322 47.6346 16.0332 47.6346 16.9223C47.6346 17.9619 47.3778 18.8031 46.864 19.4459C46.3641 20.0751 45.6976 20.5333 44.8644 20.8206C44.0313 21.1078 43.1288 21.2514 42.1567 21.2514C41.0459 21.2514 39.942 21.0873 38.8449 20.759C37.7619 20.4171 36.7969 19.952 35.9498 19.3639L37.2203 16.9223C37.3453 17.0454 37.5676 17.2096 37.8868 17.4147C38.2061 17.6062 38.595 17.8046 39.0532 18.0097C39.5115 18.2012 40.0113 18.3653 40.5529 18.5021C41.0944 18.6389 41.6428 18.7073 42.1984 18.7073C43.7813 18.7073 44.5728 18.2081 44.5728 17.2096C44.5728 16.7855 44.413 16.4436 44.0938 16.1837C43.7745 15.9238 43.3231 15.705 42.7399 15.5271C42.1707 15.3493 41.5042 15.151 40.7404 14.9321C39.7962 14.6722 39.0116 14.385 38.3867 14.0704C37.7758 13.7421 37.3176 13.3386 37.012 12.8599C36.7064 12.3675 36.5538 11.7451 36.5538 10.9928C36.5538 9.99431 36.7898 9.15996 37.262 8.48972C37.7479 7.80582 38.4007 7.29289 39.2199 6.95093C40.039 6.59531 40.9486 6.41748 41.9484 6.41748C42.9759 6.41748 43.934 6.58162 44.8228 6.90989C45.7116 7.23817 46.4751 7.61431 47.1139 8.03834L45.8434 10.3363ZM49.8068 21.0873V6.52007H56.0762C56.7564 6.52007 57.3812 6.65686 57.9507 6.93041C58.534 7.20397 59.0338 7.57328 59.4504 8.03834C59.867 8.50341 60.1931 9.02317 60.4294 9.59765C60.6653 10.1721 60.7834 10.7603 60.7834 11.3621C60.7834 12.1828 60.5888 12.9625 60.2002 13.7011C59.8113 14.4397 59.2698 15.0416 58.5756 15.5066C57.8951 15.9717 57.0968 16.2042 56.1803 16.2042H52.6811V21.0873H49.8068ZM52.6811 13.7216H56.0137C56.5412 13.7216 56.9786 13.5096 57.3259 13.0856C57.6868 12.6479 57.8674 12.0734 57.8674 11.3621C57.8674 10.6098 57.666 10.0285 57.2634 9.61817C56.8605 9.20783 56.4023 9.00265 55.8887 9.00265H52.6811V13.7216ZM75.2186 6.52007V21.0873H72.3651V14.8706H65.6582V21.0873H62.7839V6.52007H65.6582V12.4085H72.3651V6.52007H75.2186ZM88.5721 18.6047V21.0873H78.3036V6.52007H88.3846V9.00265H81.1779V12.5111H87.4057V14.809H81.1779V18.6047H88.5721ZM90.813 21.0873V6.52007H97.3532C98.0337 6.52007 98.6585 6.65686 99.2277 6.93041C99.8109 7.20397 100.311 7.57328 100.727 8.03834C101.158 8.50341 101.484 9.02317 101.706 9.59765C101.943 10.1721 102.06 10.7603 102.06 11.3621C102.06 12.2922 101.818 13.1471 101.331 13.9268C100.86 14.7064 100.214 15.2672 99.3944 15.6092L102.769 21.0873H99.6026L96.5617 16.2042H93.6873V21.0873H90.813ZM93.6873 13.7216H97.2907C97.8322 13.7216 98.2768 13.4959 98.6237 13.0446C98.9849 12.5795 99.1652 12.0187 99.1652 11.3621C99.1652 10.9108 99.0682 10.5072 98.8736 10.1516C98.6793 9.796 98.4294 9.51558 98.1238 9.31041C97.8322 9.10524 97.5129 9.00265 97.1657 9.00265H93.6873V13.7216ZM104.665 21.0873V6.52007H107.539V21.0873H104.665ZM116.894 21.1899C115.714 21.1899 114.707 20.9984 113.874 20.6154C113.055 20.2188 112.388 19.6784 111.874 18.9946C111.374 18.3107 111.007 17.5378 110.77 16.6761C110.534 15.8007 110.416 14.8911 110.416 13.9473V6.52007H113.291V13.9473C113.291 14.7543 113.402 15.5203 113.624 16.2452C113.846 16.9702 114.221 17.5583 114.749 18.0097C115.276 18.4611 115.985 18.6868 116.873 18.6868C117.79 18.6868 118.512 18.4611 119.039 18.0097C119.567 17.5447 119.942 16.9497 120.164 16.2247C120.386 15.4998 120.497 14.7407 120.497 13.9473V6.52007H123.351V13.9473C123.351 14.9458 123.226 15.8828 122.976 16.7582C122.74 17.6336 122.358 18.4064 121.83 19.0766C121.317 19.7332 120.65 20.2529 119.831 20.6359C119.012 21.0052 118.033 21.1899 116.894 21.1899ZM138.306 21.0873V11.5263L134.515 18.6458H132.911L129.12 11.5263V21.0873H126.246V6.52007H129.329L133.703 14.809L138.118 6.52007H141.18V21.0873H138.306Z" fill="white" fill-opacity="0.9"/>
<path d="M11.9845 6.5412C11.5082 6.17078 11.0569 5.82505 10.6307 5.47931C10.4302 5.30646 10.2547 5.15829 10.0792 5.01011C10.5806 4.29394 11.082 3.52839 11.9845 2.76285C12.8619 2.56528 13.8647 2.36773 15.2937 2.19485C15.4191 2.29364 15.5444 2.41711 15.6698 2.5159C15.9456 2.76285 16.2715 3.00979 16.5974 3.25675C16.1461 3.75064 15.6949 4.31864 15.1935 5.35584C14.0402 5.77565 13.1377 6.09669 11.9845 6.5412Z" fill="url(#paint0_linear_0_1)"/>
<path d="M7.59746 11.9252C7.04592 11.5054 6.51945 11.0856 6.04314 10.6904C5.81751 10.4929 5.59188 10.32 5.3913 10.1471C5.64201 9.13464 5.91777 8.07274 6.49439 6.81329C7.27154 6.39349 8.17406 5.92427 9.55291 5.40567C9.72841 5.55385 9.92896 5.72672 10.1295 5.89959C10.5557 6.27002 11.032 6.61574 11.5084 6.98617C11.2326 7.85049 10.9318 8.73951 10.6811 10.1965C9.67825 10.7151 8.72561 11.2337 7.59746 11.9252Z" fill="url(#paint1_linear_0_1)"/>
<path d="M5.01459 17.9993C4.51317 17.6289 4.01179 17.2338 3.58561 16.8633C3.38503 16.6905 3.18448 16.5176 3.00899 16.3447C2.88364 15.3075 2.80843 14.2209 2.90871 12.7639C3.41011 12.196 3.98671 11.5292 5.06472 10.7143C5.26527 10.8871 5.4909 11.0847 5.71653 11.2822C6.19286 11.6774 6.71933 12.0972 7.29596 12.517C7.22075 13.5048 7.12046 14.6408 7.17059 16.2212C6.41849 16.7645 5.71653 17.2831 5.01459 17.9993Z" fill="url(#paint2_linear_0_1)"/>
<path d="M27.1264 15.6039C27.628 15.2335 28.1293 14.8383 28.5554 14.4679C28.7561 14.295 28.9566 14.1222 29.1322 13.9493C29.2323 12.8874 29.3326 11.8255 29.2323 10.3685C28.731 9.80052 28.1544 9.13376 27.0764 8.31882C26.8759 8.49167 26.6503 8.68925 26.4246 8.8868C25.9482 9.28193 25.4218 9.70174 24.8452 10.1216C24.9204 11.1094 25.0207 12.2453 24.9705 13.8258C25.7477 14.3691 26.4246 14.8877 27.1264 15.6039Z" fill="url(#paint3_linear_0_1)"/>
<path d="M4.78981 23.1617C4.43882 22.8901 4.08785 22.6184 3.78701 22.3715C3.63659 22.248 3.51125 22.1245 3.38588 22.0257C2.98478 21.1614 2.58366 20.2724 2.20761 18.9635C2.35803 18.198 2.43324 17.7535 2.90957 16.9385C3.08506 17.1114 3.28562 17.2596 3.48617 17.4324C3.91235 17.8029 4.38869 18.1733 4.89008 18.5437C5.06557 19.4327 5.24107 20.4452 5.61712 21.7047C5.2912 22.1245 4.94023 22.569 4.78981 23.1617Z" fill="url(#paint4_linear_0_1)"/>
<path d="M20.4331 11.6775C19.5306 11.2083 18.603 10.7391 17.7005 10.2205C17.7757 9.23271 17.8258 8.2696 18.0264 7.15832C18.8537 6.71381 19.6559 6.2693 20.5083 5.726C21.135 6.07172 21.7367 6.41747 22.3635 6.71381C22.4387 7.55343 22.5139 8.2202 22.6894 9.62784C22.1128 10.2205 21.5362 10.8132 20.4331 11.6775Z" fill="url(#paint5_linear_0_1)"/>
<path d="M17.3498 17.8514C16.2969 17.3328 15.2439 16.7648 14.216 16.1721C14.2411 14.9126 14.2662 13.8261 14.3414 12.5419C15.7453 11.727 16.4724 11.3319 17.3999 10.7639C18.3275 11.2825 19.2551 11.7764 20.1827 12.2456C20.2328 13.4062 20.3081 14.5916 20.3582 15.7523C19.556 16.3697 18.7537 16.9377 17.3498 17.8514Z" fill="url(#paint6_linear_0_1)"/>
<path d="M13.9401 23.409C12.9874 22.915 12.0097 22.4212 11.0571 21.8779C10.9818 20.6678 10.9066 19.7788 10.8565 18.5934C13.2131 17.1858 13.2131 17.1858 13.89 16.766C14.9178 17.3586 15.9708 17.9019 17.0237 18.4452C16.9986 20.7172 16.9986 21.137 16.9736 21.8779C16.071 22.3471 15.2688 22.7669 13.9401 23.409Z" fill="url(#paint7_linear_0_1)"/>
<path d="M11.0567 26.9395C10.3798 26.5938 9.7029 26.2479 9.05107 25.853C8.82544 24.7169 8.72518 24.1983 8.59981 23.5809C9.22657 23.2105 9.65275 22.9388 10.831 22.2967C11.7586 22.8153 12.7113 23.3339 13.6389 23.8031C13.6138 24.618 13.6138 25.4084 13.5135 26.1986C11.6082 26.8161 11.0567 26.9395 11.0567 26.9395Z" fill="url(#paint8_linear_0_1)"/>
<path d="M27.0015 25.2347C27.5782 24.8147 28.1799 24.3702 28.7565 23.9257C29.0321 22.8392 29.1577 22.3453 29.2829 21.7526C28.7816 21.5056 28.4305 21.3081 27.503 20.913C26.7006 21.5303 25.8733 22.1477 25.0461 22.7404C24.996 23.5059 24.9709 24.222 24.996 24.9384C26.5502 25.2099 27.0015 25.2347 27.0015 25.2347Z" fill="#C4C4C4"/>
<path d="M27.0015 25.2347C27.5782 24.8147 28.1799 24.3702 28.7565 23.9257C29.0321 22.8392 29.1577 22.3453 29.2829 21.7526C28.7816 21.5056 28.4305 21.3081 27.503 20.913C26.7006 21.5303 25.8733 22.1477 25.0461 22.7404C24.996 23.5059 24.9709 24.222 24.996 24.9384C26.5502 25.2099 27.0015 25.2347 27.0015 25.2347Z" fill="url(#paint9_linear_0_1)"/>
<path d="M14.0654 11.9503C13.1128 11.3577 12.1852 10.765 11.3077 10.1723C11.5083 9.18449 11.7089 8.172 12.11 6.98663C13.2381 6.54212 13.7646 6.31987 15.3189 5.75189C16.0209 6.22108 16.7479 6.69029 17.5 7.15951C17.3747 7.97444 17.2242 8.81406 17.1239 10.2217C15.9206 10.9132 15.7451 11.0119 14.0654 11.9503Z" fill="url(#paint10_linear_0_1)"/>
<path d="M6.51926 6.31886C6.09308 5.84965 5.76716 5.42984 5.56661 5.08411C6.34376 4.0963 6.76997 3.553 7.8229 2.68868C8.575 2.36764 9.45243 2.02192 10.7561 1.70088C10.9065 1.97253 11.1572 2.29355 11.5082 2.66398C10.7059 3.42954 10.2547 3.84934 9.55272 4.91124C8.65021 5.33105 7.67248 5.70148 6.51926 6.31886Z" fill="url(#paint11_linear_0_1)"/>
<path d="M27.3023 5.40533C27.7284 4.93614 28.0544 4.5163 28.2549 4.17058C27.4779 3.18277 27.0515 2.63949 25.9986 1.77515C25.2465 1.45412 24.3691 1.10839 23.0655 0.787354C22.915 1.059 22.6644 1.38004 22.3134 1.75046C23.1156 2.516 23.5669 2.93584 24.2688 3.99771C25.1964 4.39284 26.1742 4.76326 27.3023 5.40533Z" fill="url(#paint12_linear_0_1)"/>
<path d="M10.5307 18.024C9.55293 17.4313 8.60028 16.8139 7.69777 16.1966C7.69777 15.0112 7.67269 13.9987 7.84819 12.4923C8.72562 11.949 9.5028 11.4798 10.9318 10.7143C11.8092 11.3069 12.7619 11.9243 13.7145 12.4923C13.6393 13.6036 13.5892 14.4185 13.5641 16.1472C12.5613 16.7892 11.5585 17.4066 10.5307 18.024Z" fill="#87F2E7"/>
<path d="M2.78345 12.2211C2.33219 11.7519 2.00628 11.3074 1.80573 10.9617C2.05642 9.94917 2.30712 8.91197 2.95894 7.57844C3.51048 6.93638 4.06202 6.29429 5.11496 5.55344C5.31551 5.89918 5.61635 6.31899 6.0676 6.78821C5.66648 7.70191 5.26538 8.64034 4.93946 10.122C4.23749 10.7394 3.51048 11.3568 2.78345 12.2211Z" fill="url(#paint13_linear_0_1)"/>
<path d="M8.274 23.1608C7.47177 22.6669 6.6946 22.173 5.96758 21.6791C5.74195 20.7654 5.51632 19.827 5.2907 18.4934C5.81716 17.9995 6.36871 17.5056 7.42164 16.7401C8.29908 17.3328 9.25173 17.9501 10.2295 18.5428C10.3047 19.6541 10.3297 20.3209 10.4551 21.8026C9.67793 22.2965 8.97597 22.7163 8.274 23.1608Z" fill="url(#paint14_linear_0_1)"/>
<path d="M2.00665 18.4681C1.63061 18.073 1.37991 17.7273 1.22949 17.4309C1.054 16.4431 0.903577 15.4553 0.928647 14.0724C1.054 13.3315 1.17934 12.566 1.65567 11.5782C1.85623 11.9486 2.18214 12.3437 2.60833 12.8376C2.58326 13.8007 2.53312 14.912 2.70861 16.3937C2.40777 16.9864 2.10693 17.6038 2.00665 18.4681Z" fill="url(#paint15_linear_0_1)"/>
<path d="M20.6339 23.0868C19.6813 22.7163 18.6785 22.2965 17.6757 21.8273C17.7007 21.0371 17.7258 19.9258 17.7258 18.3947C18.7035 17.7279 19.6562 17.1105 20.7342 16.2709C21.737 16.7401 22.7147 17.1599 23.6674 17.5304C23.7175 18.6416 23.7927 19.6788 23.7175 20.963C22.9153 21.5804 22.0128 22.2718 20.6339 23.0868Z" fill="url(#paint16_linear_0_1)"/>
<path d="M16.4974 27.2863C15.7202 26.9899 14.9179 26.6443 14.0906 26.2491C14.1658 25.6564 14.241 25.0144 14.2912 23.8291C15.2689 23.3845 16.1714 22.9647 17.3497 22.3226C18.3525 22.7918 19.3553 23.2116 20.2829 23.5821C20.1576 24.397 20.0322 25.2614 19.7063 26.1505C17.3247 27.1136 16.4974 27.2863 16.4974 27.2863Z" fill="url(#paint17_linear_0_1)"/>
<path d="M27.1409 23.5023L26.6615 23.6947L27.4077 24.2031L27.4205 22.7857L27.1409 23.5023ZM26.9638 23.7243L27.1907 23.6332L27.3231 23.294L27.3172 23.965L26.9638 23.7243Z" fill="white"/>
<path d="M27.3613 22.676L26.6422 22.1904L26.6277 23.5544L27.0905 23.3674L27.3613 22.676ZM26.7325 22.4273L27.1426 22.7043L26.8785 22.8109L26.7241 23.2053L26.7325 22.4273ZM26.9285 22.9418L27.1988 22.8325L27.0407 23.2366L26.7702 23.3459L26.9285 22.9418Z" fill="white"/>
<path d="M3.56145 9.19426L3.06345 9.05547L3.33416 9.90842L4.2295 8.79877L3.56145 9.19426ZM3.2832 9.26198L3.51898 9.32769L3.83528 9.14044L3.41137 9.66583L3.2832 9.26198Z" fill="white"/>
<path d="M4.25041 8.67566L3.98693 7.8572L3.12354 8.92374L3.60516 9.05675L4.25041 8.67566ZM3.91009 8.09867L4.06036 8.56551L3.78564 8.48965L3.41765 8.707L3.91009 8.09867ZM3.74322 8.62298L4.02468 8.70071L3.6476 8.92342L3.36613 8.84569L3.74322 8.62298Z" fill="white"/>
<path d="M26.3968 2.95613C26.2325 2.67665 25.9864 2.42689 25.7041 2.25286C25.4217 2.07882 25.1368 2.00131 24.9017 2.03463C24.6666 2.06798 24.5096 2.20814 24.4596 2.42932C24.4096 2.65049 24.4725 2.9262 24.6369 3.20569C24.8012 3.48515 25.0472 3.7349 25.3296 3.90894C25.4237 3.96692 25.519 4.01475 25.6131 4.05109C25.6304 4.05774 25.6429 4.0505 25.6415 4.03493C25.64 4.01936 25.6247 4.00134 25.6077 3.99471C25.519 3.96048 25.4292 3.91542 25.3405 3.86077C25.0745 3.69686 24.8428 3.46163 24.6881 3.19843C24.5333 2.93522 24.474 2.67553 24.5211 2.46722C24.5682 2.2589 24.7161 2.12689 24.9375 2.0955C25.1589 2.06412 25.4273 2.13709 25.6932 2.30102C25.9593 2.46493 26.1909 2.70018 26.3457 2.96337C26.5006 3.22658 26.5597 3.48626 26.5126 3.69458C26.4655 3.90289 26.3176 4.03491 26.0962 4.06629C25.9891 4.08147 25.8713 4.07253 25.746 4.03969C25.7292 4.0353 25.7186 4.04496 25.7226 4.06131C25.7265 4.07766 25.7433 4.09447 25.7601 4.09886C25.8932 4.13375 26.0185 4.14327 26.1322 4.12716C26.3672 4.09384 26.524 3.95366 26.574 3.73249C26.6241 3.51131 26.5612 3.23559 26.3968 2.95613Z" fill="white"/>
<path d="M26.3968 2.95613C26.2325 2.67665 25.9864 2.42689 25.7041 2.25286C25.4217 2.07882 25.1368 2.00131 24.9017 2.03463C24.6666 2.06798 24.5096 2.20814 24.4596 2.42932C24.4096 2.65049 24.4725 2.9262 24.6369 3.20569C24.8012 3.48515 25.0472 3.7349 25.3296 3.90894C25.4237 3.96692 25.519 4.01475 25.6131 4.05109C25.6304 4.05774 25.6429 4.0505 25.6415 4.03493C25.64 4.01936 25.6247 4.00134 25.6077 3.99471C25.519 3.96048 25.4292 3.91542 25.3405 3.86077C25.0745 3.69686 24.8428 3.46163 24.6881 3.19843C24.5333 2.93522 24.474 2.67553 24.5211 2.46722C24.5682 2.2589 24.7161 2.12689 24.9375 2.0955C25.1589 2.06412 25.4273 2.13709 25.6932 2.30102C25.9593 2.46493 26.1909 2.70018 26.3457 2.96337C26.5006 3.22658 26.5597 3.48626 26.5126 3.69458C26.4655 3.90289 26.3176 4.03491 26.0962 4.06629C25.9891 4.08147 25.8713 4.07253 25.746 4.03969C25.7292 4.0353 25.7186 4.04496 25.7226 4.06131C25.7265 4.07766 25.7433 4.09447 25.7601 4.09886C25.8932 4.13375 26.0185 4.14327 26.1322 4.12716C26.3672 4.09384 26.524 3.95366 26.574 3.73249C26.6241 3.51131 26.5612 3.23559 26.3968 2.95613Z" fill="white"/>
<path d="M24.9403 2.24324C24.9284 2.22689 24.9087 2.2172 24.8961 2.22157C24.7523 2.27159 24.6581 2.37839 24.6237 2.53042C24.5365 2.9162 24.8662 3.47699 25.3588 3.78054C25.8514 4.0841 26.3231 4.01723 26.4102 3.63145C26.4975 3.2457 26.1678 2.68489 25.6751 2.38133C25.4443 2.23899 25.2094 2.17292 25.0138 2.19527C24.9995 2.19692 24.9956 2.21191 25.0052 2.22874C25.0148 2.24557 25.0341 2.25791 25.0485 2.25628C25.2306 2.23547 25.4493 2.29697 25.6642 2.4295C26.1229 2.71216 26.4299 3.23435 26.3488 3.59356C26.2674 3.95276 25.8282 4.01504 25.3697 3.73238C24.911 3.44974 24.604 2.92752 24.6852 2.56832C24.7172 2.42678 24.8049 2.32733 24.9388 2.28077C24.9514 2.2764 24.952 2.25959 24.9403 2.24324Z" fill="white"/>
<path d="M24.9403 2.24324C24.9284 2.22689 24.9087 2.2172 24.8961 2.22157C24.7523 2.27159 24.6581 2.37839 24.6237 2.53042C24.5365 2.9162 24.8662 3.47699 25.3588 3.78054C25.8514 4.0841 26.3231 4.01723 26.4102 3.63145C26.4975 3.2457 26.1678 2.68489 25.6751 2.38133C25.4443 2.23899 25.2094 2.17292 25.0138 2.19527C24.9995 2.19692 24.9956 2.21191 25.0052 2.22874C25.0148 2.24557 25.0341 2.25791 25.0485 2.25628C25.2306 2.23547 25.4493 2.29697 25.6642 2.4295C26.1229 2.71216 26.4299 3.23435 26.3488 3.59356C26.2674 3.95276 25.8282 4.01504 25.3697 3.73238C24.911 3.44974 24.604 2.92752 24.6852 2.56832C24.7172 2.42678 24.8049 2.32733 24.9388 2.28077C24.9514 2.2764 24.952 2.25959 24.9403 2.24324Z" fill="white"/>
<path d="M24.9762 3.08338C24.9887 3.10895 25.0105 3.13271 25.0362 3.14852L25.6114 3.50301C25.6876 3.54997 25.767 3.57547 25.8348 3.57486C25.9026 3.57423 25.9566 3.54751 25.9865 3.49959L26.0814 3.34729C26.1182 3.28851 26.113 3.20133 26.0676 3.10815C26.022 3.01497 25.9423 2.92848 25.8489 2.87086L25.3491 2.56284C25.3095 2.53842 25.271 2.53879 25.2554 2.56369L25.1531 2.72786L25.0185 2.64494C24.9874 2.62577 24.9567 2.62565 24.9438 2.64462L24.8943 2.71756C24.887 2.72833 24.8876 2.74455 24.896 2.76211C24.9044 2.77965 24.9192 2.79595 24.9369 2.80681L25.0575 2.88116L24.9724 3.01772C24.9623 3.03387 24.9637 3.0578 24.9762 3.08338ZM25.0008 2.69308C25.002 2.69136 25.0048 2.69136 25.0076 2.6931L25.5722 3.04113L25.5252 3.11041C25.5241 3.11214 25.5213 3.11211 25.5185 3.11039L24.9538 2.76236L25.0008 2.69308ZM25.3012 3.03137L25.5076 3.15853C25.5387 3.17769 25.5693 3.17784 25.5823 3.15887L25.6319 3.0859C25.639 3.07517 25.6385 3.05892 25.6302 3.04138C25.6218 3.02382 25.6067 3.00752 25.5892 2.99666L25.3968 2.87807L25.4299 2.8249L25.8045 3.05573C25.8264 3.06921 25.8447 3.08862 25.855 3.109C25.8657 3.13023 25.8669 3.15008 25.8587 3.16348L25.7638 3.31576C25.7453 3.34508 25.7002 3.34549 25.6536 3.31676L25.2705 3.0807L25.3012 3.03137ZM25.2382 2.99253L25.2018 3.0509C25.1971 3.05838 25.1978 3.06946 25.2036 3.08131C25.2094 3.09316 25.2195 3.10417 25.2314 3.1115L25.6425 3.36492C25.7182 3.41151 25.7917 3.41086 25.8213 3.3633L25.9162 3.21102C25.9322 3.18559 25.9295 3.14787 25.9093 3.10754C25.8898 3.06885 25.8558 3.03239 25.8153 3.00757L25.4228 2.76561C25.4044 2.75429 25.3866 2.75446 25.3794 2.766L25.3338 2.83923L25.2161 2.7667L25.313 2.61122C25.3172 2.60454 25.3275 2.60447 25.3382 2.611L25.838 2.91903C25.9128 2.96508 25.9764 3.03419 26.0126 3.10866C26.0491 3.18311 26.0531 3.25278 26.0237 3.29975L25.9288 3.45205C25.9044 3.49121 25.8605 3.51307 25.805 3.51358C25.7495 3.51407 25.6847 3.49322 25.6223 3.45485L25.0471 3.10035C25.0377 3.09455 25.033 3.08692 25.031 3.08289C25.029 3.07886 25.0263 3.07121 25.03 3.06528L25.1205 2.92L25.2382 2.99253Z" fill="white"/>
<path d="M24.9762 3.08338C24.9887 3.10895 25.0105 3.13271 25.0362 3.14852L25.6114 3.50301C25.6876 3.54997 25.767 3.57547 25.8348 3.57486C25.9026 3.57423 25.9566 3.54751 25.9865 3.49959L26.0814 3.34729C26.1182 3.28851 26.113 3.20133 26.0676 3.10815C26.022 3.01497 25.9423 2.92848 25.8489 2.87086L25.3491 2.56284C25.3095 2.53842 25.271 2.53879 25.2554 2.56369L25.1531 2.72786L25.0185 2.64494C24.9874 2.62577 24.9567 2.62565 24.9438 2.64462L24.8943 2.71756C24.887 2.72833 24.8876 2.74455 24.896 2.76211C24.9044 2.77965 24.9192 2.79595 24.9369 2.80681L25.0575 2.88116L24.9724 3.01772C24.9623 3.03387 24.9637 3.0578 24.9762 3.08338ZM25.0008 2.69308C25.002 2.69136 25.0048 2.69136 25.0076 2.6931L25.5722 3.04113L25.5252 3.11041C25.5241 3.11214 25.5213 3.11211 25.5185 3.11039L24.9538 2.76236L25.0008 2.69308ZM25.3012 3.03137L25.5076 3.15853C25.5387 3.17769 25.5693 3.17784 25.5823 3.15887L25.6319 3.0859C25.639 3.07517 25.6385 3.05892 25.6302 3.04138C25.6218 3.02382 25.6067 3.00752 25.5892 2.99666L25.3968 2.87807L25.4299 2.8249L25.8045 3.05573C25.8264 3.06921 25.8447 3.08862 25.855 3.109C25.8657 3.13023 25.8669 3.15008 25.8587 3.16348L25.7638 3.31576C25.7453 3.34508 25.7002 3.34549 25.6536 3.31676L25.2705 3.0807L25.3012 3.03137ZM25.2382 2.99253L25.2018 3.0509C25.1971 3.05838 25.1978 3.06946 25.2036 3.08131C25.2094 3.09316 25.2195 3.10417 25.2314 3.1115L25.6425 3.36492C25.7182 3.41151 25.7917 3.41086 25.8213 3.3633L25.9162 3.21102C25.9322 3.18559 25.9295 3.14787 25.9093 3.10754C25.8898 3.06885 25.8558 3.03239 25.8153 3.00757L25.4228 2.76561C25.4044 2.75429 25.3866 2.75446 25.3794 2.766L25.3338 2.83923L25.2161 2.7667L25.313 2.61122C25.3172 2.60454 25.3275 2.60447 25.3382 2.611L25.838 2.91903C25.9128 2.96508 25.9764 3.03419 26.0126 3.10866C26.0491 3.18311 26.0531 3.25278 26.0237 3.29975L25.9288 3.45205C25.9044 3.49121 25.8605 3.51307 25.805 3.51358C25.7495 3.51407 25.6847 3.49322 25.6223 3.45485L25.0471 3.10035C25.0377 3.09455 25.033 3.08692 25.031 3.08289C25.029 3.07886 25.0263 3.07121 25.03 3.06528L25.1205 2.92L25.2382 2.99253Z" fill="white"/>
<path d="M4.32528 19.8993C4.2661 19.6252 4.14788 19.3806 3.99243 19.2106C3.83698 19.0406 3.66292 18.9655 3.50227 18.9991C3.34162 19.0328 3.21364 19.1712 3.14191 19.3888C3.07017 19.6064 3.06326 19.8772 3.12244 20.1513C3.18164 20.4255 3.29984 20.6701 3.45529 20.8401C3.50707 20.8967 3.56147 20.9434 3.617 20.9787C3.62716 20.9852 3.6368 20.978 3.63853 20.9627C3.64026 20.9474 3.63343 20.9298 3.62329 20.9233C3.57096 20.89 3.5197 20.846 3.4709 20.7927C3.32451 20.6326 3.21318 20.4022 3.15743 20.144C3.10168 19.8859 3.10819 19.6308 3.17576 19.4258C3.24332 19.2209 3.36385 19.0905 3.51516 19.0588C3.66647 19.0271 3.8304 19.0979 3.97683 19.258C4.12323 19.4181 4.23456 19.6485 4.29029 19.9066C4.34604 20.1648 4.33953 20.4199 4.27197 20.6248C4.2044 20.8298 4.08387 20.9601 3.93256 20.9918C3.8594 21.0072 3.78335 20.9988 3.70654 20.967C3.69623 20.9628 3.68765 20.9723 3.68735 20.9884C3.68706 21.0044 3.69517 21.0209 3.70545 21.0251C3.78708 21.0589 3.86781 21.0678 3.94546 21.0515C4.10611 21.0179 4.23409 20.8795 4.30582 20.6619C4.37756 20.4442 4.38446 20.1734 4.32528 19.8993Z" fill="white"/>
<path d="M3.49127 19.2028C3.48638 19.1868 3.47506 19.1773 3.46602 19.1817C3.36253 19.2314 3.28176 19.3368 3.23245 19.4863C3.10733 19.8659 3.22611 20.416 3.49723 20.7125C3.76833 21.009 4.0907 20.9415 4.21582 20.5619C4.34096 20.1824 4.22218 19.6323 3.95106 19.3358C3.82394 19.1967 3.68084 19.1327 3.54813 19.1554C3.53841 19.1571 3.53324 19.1718 3.53659 19.1883C3.53992 19.2048 3.55052 19.2169 3.56026 19.2152C3.68383 19.1941 3.81708 19.2537 3.93542 19.3832C4.18788 19.6593 4.29847 20.1715 4.18199 20.5249C4.06547 20.8783 3.7653 20.9412 3.51284 20.6651C3.26039 20.389 3.14979 19.8768 3.2663 19.5234C3.31221 19.3841 3.3874 19.286 3.48374 19.2397C3.49279 19.2354 3.49617 19.2189 3.49127 19.2028Z" fill="white"/>
<path d="M3.36764 20.0278C3.37137 20.0529 3.38163 20.0762 3.39576 20.0916L3.71235 20.4379C3.7543 20.4838 3.80206 20.5086 3.84692 20.5077C3.89175 20.5068 3.93189 20.4803 3.95998 20.4331L4.04922 20.2831C4.08367 20.2251 4.09563 20.1394 4.08202 20.048C4.0684 19.9566 4.0311 19.8719 3.97963 19.8156L3.70451 19.5146C3.68271 19.4908 3.65732 19.4913 3.64272 19.5159L3.5465 19.6776L3.47245 19.5966C3.45534 19.5779 3.43511 19.5779 3.4233 19.5966L3.37788 19.6685C3.37117 19.6791 3.36874 19.6951 3.37117 19.7123C3.37362 19.7295 3.38057 19.7455 3.39029 19.7561L3.45669 19.8287L3.37665 19.9633C3.36719 19.9792 3.36391 20.0027 3.36764 20.0278ZM3.45235 19.644C3.45344 19.6423 3.45526 19.6423 3.45681 19.644L3.76764 19.984L3.72451 20.0523C3.72343 20.054 3.7216 20.054 3.72005 20.0523L3.4092 19.7123L3.45235 19.644ZM3.59084 19.9754L3.70441 20.0997C3.72153 20.1184 3.74172 20.1184 3.75356 20.0997L3.79898 20.0278C3.80569 20.0172 3.80811 20.0013 3.80566 19.984C3.80325 19.9668 3.79627 19.9508 3.78658 19.9402L3.68067 19.8244L3.71181 19.772L3.91799 19.9975C3.93004 20.0107 3.93875 20.0297 3.9419 20.0496C3.94521 20.0705 3.9426 20.09 3.93475 20.1032L3.84551 20.2533C3.82833 20.2822 3.79841 20.2827 3.77277 20.2547L3.56191 20.0241L3.59084 19.9754ZM3.55614 19.9375L3.52194 19.995C3.51755 20.0024 3.51602 20.0133 3.51777 20.0249C3.5195 20.0366 3.52426 20.0473 3.53079 20.0545L3.75714 20.3021C3.79876 20.3476 3.84726 20.3466 3.87513 20.2998L3.96437 20.1497C3.97926 20.1247 3.98422 20.0876 3.97798 20.048C3.97196 20.01 3.95579 19.9743 3.93362 19.9501L3.71751 19.7137C3.70742 19.7027 3.69564 19.7029 3.68888 19.7143L3.64597 19.7864L3.58119 19.7156L3.67231 19.5624C3.67623 19.5558 3.68304 19.5557 3.68888 19.562L3.964 19.863C4.00513 19.9079 4.03497 19.9757 4.04584 20.0487C4.05672 20.1218 4.04715 20.1902 4.0196 20.2365L3.93036 20.3866C3.90743 20.4252 3.87461 20.4469 3.83797 20.4476C3.80132 20.4483 3.76226 20.428 3.72799 20.3905L3.41137 20.0442C3.40619 20.0386 3.40441 20.0311 3.40382 20.0271C3.40326 20.0231 3.40279 20.0156 3.40624 20.0098L3.49136 19.8667L3.55614 19.9375Z" fill="white"/>
<path d="M27.0008 12.089L27.1219 11.8987C27.1773 11.8112 27.1825 11.6662 27.1335 11.575C27.0841 11.4838 26.9993 11.4808 26.9438 11.5684L26.823 11.7586C26.8117 11.7761 26.8107 11.8051 26.8205 11.8234L26.9631 12.0876C26.9727 12.1059 26.9897 12.1065 27.0008 12.089ZM26.8787 11.793L26.9793 11.6344C27.0126 11.5819 27.0637 11.5837 27.0933 11.6384C27.1226 11.6932 27.1194 11.7801 27.0861 11.8326L26.9855 11.9912L26.8787 11.793Z" fill="white"/>
<path d="M27.2693 11.6307C27.2664 11.6077 27.2622 11.5853 27.257 11.5638C27.207 11.3562 27.0659 11.264 26.9419 11.3578L26.8972 11.2749C26.8874 11.2567 26.8704 11.2561 26.8593 11.2736L26.7789 11.4004C26.7678 11.4179 26.7665 11.4469 26.7764 11.4652L26.8122 11.5313L26.7717 11.5947L26.7362 11.5286C26.7264 11.5103 26.7093 11.5098 26.6982 11.5273L26.6176 11.6541C26.6065 11.6716 26.6055 11.7006 26.6154 11.7188L26.6509 11.7849L26.6107 11.8483C26.5996 11.8658 26.5986 11.8948 26.6082 11.913L26.6795 12.0452C26.6894 12.0634 26.7064 12.064 26.7175 12.0465L26.7577 11.9831L27.0782 12.5777L27.038 12.6411C27.0269 12.6586 27.0257 12.6876 27.0356 12.7059L27.1068 12.838C27.1167 12.8563 27.1337 12.8568 27.1448 12.8393L27.185 12.7759L27.2208 12.842C27.2306 12.8602 27.2474 12.8608 27.2587 12.8433L27.3391 12.7165C27.3502 12.699 27.3515 12.67 27.3416 12.6518L27.3058 12.5857L27.3463 12.5223L27.3818 12.5883C27.3917 12.6066 27.4087 12.6072 27.4198 12.5897L27.5004 12.4628C27.5115 12.4453 27.5125 12.4163 27.5026 12.3981L27.4671 12.332C27.5288 12.2347 27.5583 12.0924 27.5458 11.9546C27.5251 11.7314 27.4013 11.5863 27.2693 11.6307ZM27.4314 12.266L27.4114 12.2977C27.4 12.3152 27.3991 12.3442 27.4089 12.3624L27.4444 12.4285L27.4042 12.4919L27.3687 12.4258C27.3589 12.4076 27.3418 12.407 27.3307 12.4245L27.2501 12.5513C27.239 12.5688 27.238 12.5978 27.2479 12.6161L27.2834 12.6821L27.2432 12.7456L27.2075 12.6795C27.1978 12.6612 27.1808 12.6606 27.1697 12.6781L27.1293 12.7416L27.0938 12.6755L27.134 12.6121C27.1451 12.5946 27.146 12.5656 27.1364 12.5473L26.7804 11.8866C26.7705 11.8684 26.7535 11.8678 26.7424 11.8853L26.7019 11.9487L26.6664 11.8827L26.7066 11.8193C26.7177 11.8018 26.719 11.7727 26.7091 11.7545L26.6733 11.6884L26.7138 11.625L26.7493 11.6911C26.7592 11.7094 26.7762 11.7099 26.7873 11.6924L26.8679 11.5656C26.879 11.5481 26.88 11.5191 26.8701 11.5009L26.8346 11.4348L26.8748 11.3714L26.915 11.4457C26.9229 11.4608 26.9362 11.4641 26.9473 11.4539C26.969 11.4336 26.9927 11.4204 27.0168 11.4152C27.1204 11.3931 27.2114 11.5176 27.2203 11.6932C27.2203 11.6962 27.2208 11.6991 27.2213 11.7019C27.2252 11.7259 27.2402 11.7389 27.2545 11.7308C27.3243 11.6916 27.3995 11.7235 27.4476 11.8128C27.5164 11.9404 27.5093 12.1433 27.4314 12.266Z" fill="white"/>
<path d="M27.2179 11.8682L27.0367 12.1536C27.0256 12.1711 27.0243 12.2001 27.0342 12.2183L27.1767 12.4826C27.1866 12.5008 27.2036 12.5014 27.2147 12.4839L27.3959 12.1986C27.4514 12.111 27.4566 11.9661 27.4075 11.8749C27.3585 11.7836 27.2734 11.7807 27.2179 11.8682ZM27.3602 12.1325L27.1992 12.3862L27.0924 12.1879L27.2534 11.9343C27.2867 11.8817 27.3377 11.8835 27.3673 11.9383C27.3967 11.993 27.3937 12.0799 27.3602 12.1325Z" fill="white"/>
<path d="M26.5851 10.9707C26.2514 11.496 26.2201 12.3656 26.515 12.9129C26.81 13.4603 27.3197 13.4781 27.6533 12.9528C27.9864 12.427 28.0178 11.5582 27.7233 11.0105C27.4284 10.4632 26.9187 10.4454 26.5851 10.9707ZM27.6175 12.8867C27.3061 13.377 26.8307 13.3603 26.5552 12.8495C26.28 12.3387 26.3091 11.5271 26.6206 11.0368C26.9323 10.5473 27.4075 10.5639 27.6831 11.074C27.9583 11.5848 27.929 12.3964 27.6175 12.8867Z" fill="white"/>
<path d="M26.6566 11.1028C26.3674 11.5581 26.3402 12.3117 26.596 12.7861C26.8514 13.2604 27.2933 13.2759 27.5823 12.8206C27.8711 12.365 27.8982 11.612 27.643 11.1373C27.3875 10.663 26.9459 10.6475 26.6566 11.1028ZM27.5468 12.7545C27.2798 13.1748 26.8721 13.1605 26.6362 12.7227C26.4002 12.2848 26.4253 11.5891 26.6921 11.1689C26.9592 10.7493 27.3666 10.7636 27.6028 11.2007C27.8388 11.6386 27.8136 12.3343 27.5468 12.7545Z" fill="white"/>
<path d="M11.6184 25.9644C11.5698 25.997 11.4582 25.9333 11.4636 25.8758C11.4601 25.8291 11.5281 25.8131 11.5835 25.8459C11.6405 25.8772 11.6608 25.9435 11.6184 25.9644ZM12.2669 25.8641C12.2355 25.8801 12.171 25.8515 12.1562 25.8143C12.1318 25.7742 12.1724 25.7419 12.2213 25.7589C12.2823 25.774 12.3141 25.8488 12.2669 25.8641ZM10.8178 25.8308C10.8811 25.8342 10.9329 25.917 10.8835 25.937C10.8484 25.9586 10.7889 25.9246 10.7633 25.8872C10.7564 25.8546 10.772 25.8238 10.8178 25.8308ZM11.9822 25.6161C11.9361 25.6554 11.8172 25.6069 11.7936 25.5403C11.7632 25.4735 11.8439 25.4298 11.9233 25.4718C11.9958 25.5044 12.0287 25.586 11.9822 25.6161ZM10.9808 25.6292C10.9852 25.696 10.8699 25.704 10.805 25.6423C10.7476 25.5945 10.7563 25.5311 10.8053 25.5114C10.8752 25.4949 10.9844 25.5639 10.9808 25.6292ZM11.4577 25.4813C11.4868 25.5371 11.4501 25.5821 11.3916 25.5891C11.3479 25.584 11.2966 25.5712 11.2613 25.5364C11.2043 25.4888 11.1984 25.4196 11.2449 25.3941C11.2647 25.3795 11.2985 25.3829 11.3281 25.3829C11.3819 25.3997 11.438 25.4351 11.4577 25.4813ZM12.4296 25.3465C12.387 25.3814 12.2782 25.3275 12.2719 25.27C12.2595 25.2206 12.3236 25.1968 12.3818 25.2257C12.4419 25.2525 12.4702 25.3232 12.4296 25.3465ZM10.2538 25.4601C10.2212 25.4968 10.1191 25.4621 10.0969 25.406C10.0679 25.3557 10.1197 25.3137 10.1824 25.3372C10.2478 25.3559 10.2909 25.4298 10.2538 25.4601ZM11.0803 25.3134C11.0113 25.3438 10.8977 25.3178 10.818 25.2554C10.716 25.1796 10.6879 25.0572 10.7608 25.0069C10.8331 24.9479 11.0014 24.9858 11.0878 25.0819C11.174 25.1677 11.1689 25.2806 11.0803 25.3134ZM11.5587 25.2797C11.4868 25.3224 11.3479 25.2969 11.2621 25.217C11.1697 25.1395 11.1532 25.0258 11.2249 24.9797C11.2941 24.9282 11.4429 24.9566 11.5314 25.0404C11.6239 25.1211 11.6365 25.2362 11.5587 25.2797ZM11.9682 25.1087C11.9875 25.1609 11.9492 25.1976 11.895 25.2039C11.8316 25.2005 11.7625 25.1619 11.7287 25.1084C11.7056 25.0547 11.7259 25.0003 11.79 24.9974C11.8577 24.9882 11.9507 25.047 11.9682 25.1087ZM10.5798 25.261C10.5264 25.3018 10.3987 25.253 10.3648 25.1796C10.3205 25.1021 10.4038 25.0416 10.4988 25.0834C10.5928 25.1174 10.641 25.2245 10.5798 25.261ZM11.5821 24.9277C11.508 24.9527 11.3935 24.9226 11.3173 24.8563C11.237 24.7895 11.2069 24.6928 11.2518 24.6384C11.3046 24.5595 11.4865 24.5806 11.586 24.6795C11.6884 24.7693 11.6842 24.8973 11.5821 24.9277ZM10.6666 24.976C10.5949 25.0011 10.4843 24.978 10.4066 24.9143C10.31 24.8417 10.2808 24.7276 10.343 24.6744C10.4054 24.6131 10.5615 24.6355 10.6564 24.7212C10.7635 24.8097 10.7679 24.942 10.6666 24.976ZM12.0821 24.8135C12.0215 24.8417 11.9045 24.7749 11.9017 24.7096C11.8903 24.6503 11.9723 24.6241 12.0421 24.6644C12.1187 24.7018 12.1433 24.7927 12.0821 24.8135ZM10.0566 24.8242C10.0857 24.8774 10.0654 24.927 10.0049 24.933C9.95136 24.9287 9.88471 24.8956 9.86432 24.8475C9.8276 24.7844 9.89235 24.7365 9.9687 24.7633C10.0039 24.7747 10.0318 24.7999 10.0566 24.8242ZM12.4251 24.7635C12.3898 24.7829 12.3185 24.7521 12.3067 24.7086C12.2843 24.6595 12.3564 24.6367 12.4069 24.6758C12.4478 24.7028 12.454 24.7472 12.4251 24.7635ZM9.65662 24.909C9.63553 24.9299 9.57884 24.9187 9.55043 24.8874C9.51199 24.8536 9.52592 24.8038 9.57332 24.8075C9.63312 24.7992 9.6958 24.882 9.65662 24.909ZM11.1661 24.5901C11.064 24.6226 10.8967 24.5442 10.8427 24.439C10.7814 24.3333 10.8561 24.233 10.9868 24.2512C11.0848 24.2595 11.1959 24.3336 11.2343 24.4152C11.2741 24.4932 11.2441 24.5692 11.1661 24.5901ZM10.7086 24.6141C10.6059 24.6493 10.4342 24.5694 10.3816 24.4618C10.3226 24.3579 10.3951 24.2609 10.5213 24.2755C10.6366 24.2823 10.7706 24.3836 10.7875 24.4786C10.8036 24.5417 10.7704 24.5954 10.7086 24.6141ZM11.5582 24.5036C11.4832 24.5201 11.3667 24.4441 11.3651 24.3744C11.3524 24.3005 11.4619 24.2748 11.5448 24.3311C11.6356 24.3848 11.642 24.4912 11.5582 24.5036ZM10.2144 24.5704C10.1556 24.6008 10.0388 24.5502 10.0092 24.4805C9.96766 24.4045 10.0507 24.3462 10.144 24.387C10.2445 24.4227 10.2895 24.5412 10.2144 24.5704ZM9.67104 24.2578C9.723 24.303 9.70285 24.3673 9.63982 24.3617C9.61085 24.3637 9.58015 24.3445 9.55283 24.3285C9.53497 24.301 9.51184 24.2685 9.52703 24.2459C9.54235 24.2046 9.62799 24.2116 9.67104 24.2578ZM11.8653 24.2325C11.8268 24.2675 11.7236 24.2235 11.7073 24.1665C11.6885 24.1162 11.7454 24.0836 11.8068 24.1096C11.8703 24.1329 11.9057 24.2063 11.8653 24.2325ZM10.7293 24.1842C10.6717 24.216 10.5524 24.1655 10.5238 24.0955C10.4794 24.0185 10.5655 23.9593 10.6591 24.002C10.7572 24.0377 10.8034 24.1553 10.7293 24.1842ZM11.1786 24.0547C11.1318 24.0863 11.025 24.0416 11 23.9809C10.973 23.9316 11.0064 23.8864 11.0655 23.8908C11.1119 23.8893 11.1602 23.924 11.1924 23.9578C11.2108 23.9954 11.2144 24.0384 11.1786 24.0547ZM10.1621 24.1069C10.1167 24.1443 10.0024 24.0999 9.97558 24.035C9.93977 23.9675 10.0188 23.9192 10.0998 23.9605C10.1741 23.9923 10.2095 24.0761 10.1621 24.1069ZM9.79009 23.7307C9.83697 23.7664 9.82686 23.8133 9.78578 23.824C9.74593 23.8193 9.69506 23.7972 9.68381 23.7593C9.66352 23.7086 9.73942 23.6887 9.79009 23.7307ZM11.2091 23.6899C11.2129 23.72 11.2009 23.7508 11.1575 23.7453C11.0981 23.7445 11.0423 23.669 11.0807 23.6428C11.1123 23.6135 11.1835 23.6476 11.2091 23.6899ZM10.5152 23.6913C10.5264 23.7355 10.473 23.7603 10.4189 23.7392C10.3855 23.73 10.3634 23.7028 10.3443 23.6797C10.3419 23.6673 10.3392 23.6549 10.3364 23.6425C10.3445 23.6236 10.3576 23.6042 10.3867 23.6034C10.4375 23.595 10.5129 23.6459 10.5152 23.6913Z" fill="white"/>
<path d="M19.0717 9.23532C19.0374 9.18428 19.1061 9.07682 19.1676 9.08627C19.2173 9.08603 19.2339 9.15538 19.1985 9.20867C19.1648 9.26364 19.0936 9.27928 19.0717 9.23532ZM19.174 9.8931C19.1572 9.86048 19.1882 9.79781 19.228 9.78554C19.2709 9.76385 19.3052 9.80699 19.2867 9.85484C19.2702 9.91493 19.1901 9.94153 19.174 9.8931ZM19.2202 8.44144C19.2162 8.50481 19.1273 8.55089 19.1065 8.49993C19.0836 8.46318 19.1205 8.40583 19.1604 8.38278C19.1952 8.37824 19.2281 8.39602 19.2202 8.44144ZM19.4407 9.62501C19.3991 9.57592 19.452 9.46008 19.5231 9.4412C19.5946 9.41543 19.6408 9.49947 19.5953 9.57611C19.5601 9.64662 19.4728 9.67378 19.4407 9.62501ZM19.4341 8.61929C19.3628 8.61895 19.3551 8.5027 19.4216 8.442C19.473 8.38783 19.5405 8.40104 19.5613 8.45162C19.5784 8.52288 19.504 8.62757 19.4341 8.61929ZM19.5887 9.10838C19.5287 9.13357 19.4811 9.09354 19.4741 9.03436C19.4797 8.99088 19.4938 8.94031 19.5312 8.90737C19.5824 8.85357 19.6564 8.85255 19.6834 8.90099C19.6987 8.92192 19.6949 8.95559 19.6947 8.9853C19.6764 9.03803 19.638 9.09179 19.5887 9.10838ZM19.7253 10.093C19.6882 10.0478 19.7468 9.94248 19.8082 9.94025C19.861 9.93126 19.8858 9.99733 19.8545 10.0537C19.8255 10.1121 19.7501 10.1355 19.7253 10.093ZM19.6201 7.90188C19.5811 7.86661 19.6191 7.76661 19.6789 7.74829C19.733 7.72276 19.7774 7.77768 19.7518 7.83894C19.7313 7.90329 19.6523 7.94128 19.6201 7.90188ZM19.7705 8.74157C19.7386 8.67011 19.7674 8.55803 19.8344 8.48249C19.9162 8.38557 20.0469 8.36597 20.1002 8.44277C20.1626 8.51946 20.1208 8.68565 20.0176 8.76554C19.9255 8.84594 19.805 8.8328 19.7705 8.74157ZM19.8031 9.22395C19.758 9.14875 19.7862 9.01122 19.8723 8.93084C19.9556 8.84356 20.0771 8.83511 20.1259 8.91034C20.1802 8.98343 20.1487 9.13068 20.0587 9.21355C19.972 9.30066 19.8488 9.30508 19.8031 9.22395ZM19.9827 9.64694C19.9268 9.66263 19.888 9.62158 19.8815 9.56681C19.8855 9.50331 19.9274 9.43678 19.9847 9.40664C20.042 9.3873 20.1 9.4115 20.1028 9.47606C20.1119 9.54461 20.0487 9.63378 19.9827 9.64694ZM19.8304 8.24316C19.7871 8.18663 19.8402 8.06195 19.9188 8.03312C20.0017 7.99418 20.0657 8.08206 20.0204 8.17444C19.9834 8.26631 19.8687 8.30714 19.8304 8.24316ZM20.1785 9.27234C20.1525 9.19621 20.1854 9.08353 20.2569 9.0118C20.3286 8.93589 20.4322 8.91265 20.4898 8.96149C20.5737 9.02011 20.5498 9.20109 20.4436 9.29391C20.3468 9.39024 20.2102 9.37703 20.1785 9.27234ZM20.1339 8.3504C20.1077 8.27673 20.133 8.16732 20.2016 8.09394C20.2797 8.0021 20.4018 7.98087 20.4581 8.04711C20.5231 8.11406 20.4981 8.2691 20.4058 8.35824C20.3108 8.45944 20.1694 8.45443 20.1339 8.3504ZM20.2967 9.78216C20.267 9.7193 20.3393 9.60672 20.4091 9.60856C20.4724 9.60127 20.4999 9.68544 20.4562 9.75255C20.4158 9.82674 20.3188 9.84503 20.2967 9.78216ZM20.3005 7.74909C20.2434 7.77455 20.1906 7.75067 20.1844 7.68951C20.1895 7.63612 20.2253 7.57158 20.2769 7.55455C20.3447 7.52217 20.395 7.59055 20.3661 7.66524C20.3537 7.69979 20.3265 7.72599 20.3005 7.74909ZM20.3476 10.1299C20.3273 10.0931 20.3607 10.0237 20.4073 10.0149C20.4596 9.99599 20.4836 10.0699 20.4414 10.1179C20.4124 10.1569 20.3649 10.16 20.3476 10.1299ZM20.2128 7.34177C20.1905 7.31913 20.2031 7.26307 20.2367 7.23676C20.273 7.20062 20.3259 7.21811 20.3218 7.2654C20.3301 7.32601 20.2413 7.38299 20.2128 7.34177ZM20.5421 8.87895C20.5081 8.77417 20.5932 8.61186 20.7056 8.5652C20.819 8.51118 20.9257 8.5932 20.9051 8.72306C20.8956 8.82083 20.8158 8.92707 20.7283 8.95977C20.6448 8.99414 20.5639 8.9587 20.5421 8.87895ZM20.5197 8.41817C20.4831 8.3127 20.5696 8.146 20.6848 8.10087C20.7961 8.04905 20.8992 8.12863 20.8827 8.25431C20.8746 8.36952 20.7653 8.49675 20.6638 8.50695C20.5965 8.51868 20.5394 8.48152 20.5197 8.41817ZM20.6316 9.27848C20.6146 9.20211 20.6965 9.0905 20.7709 9.0939C20.8497 9.08637 20.8766 9.19813 20.8157 9.27724C20.7578 9.36452 20.6442 9.3634 20.6316 9.27848ZM20.5702 7.92549C20.538 7.86433 20.593 7.7507 20.6675 7.72597C20.7491 7.68966 20.8107 7.77708 20.7665 7.86783C20.7275 7.96605 20.6007 8.00285 20.5702 7.92549ZM20.9078 7.40242C20.8593 7.45137 20.7906 7.42657 20.797 7.36373C20.7951 7.33451 20.8159 7.30507 20.8332 7.27879C20.8626 7.26285 20.8976 7.24194 20.9217 7.2588C20.9656 7.27709 20.9574 7.36249 20.9078 7.40242ZM20.9186 9.60587C20.8815 9.56474 20.9291 9.4643 20.9903 9.45196C21.0442 9.43668 21.0783 9.49607 21.0502 9.55585C21.025 9.61794 20.9463 9.64818 20.9186 9.60587ZM20.9785 8.46947C20.9451 8.40942 20.9998 8.29324 21.0748 8.26956C21.1572 8.23048 21.2198 8.32101 21.1736 8.41193C21.1348 8.5078 21.0089 8.54586 20.9785 8.46947ZM21.1134 8.92941C21.08 8.88027 21.1286 8.77623 21.1935 8.75542C21.2465 8.73185 21.2944 8.76858 21.2893 8.82761C21.2905 8.87422 21.2531 8.92025 21.2168 8.95017C21.1764 8.96589 21.1307 8.96655 21.1134 8.92941ZM21.0653 7.90586C21.0255 7.85755 21.0739 7.74606 21.1434 7.72378C21.2156 7.69264 21.2668 7.7754 21.2221 7.85374C21.1876 7.926 21.0978 7.95556 21.0653 7.90586ZM21.4697 7.55927C21.431 7.60374 21.3813 7.59028 21.37 7.54829C21.3752 7.50867 21.3993 7.45919 21.4397 7.45057C21.4941 7.43383 21.5148 7.51139 21.4697 7.55927ZM21.5027 8.98586C21.4704 8.98761 21.4376 8.9733 21.444 8.93018C21.445 8.87067 21.5262 8.81998 21.5539 8.86037C21.585 8.89418 21.548 8.96324 21.5027 8.98586ZM21.5064 8.2896C21.459 8.29766 21.433 8.24231 21.4559 8.18952C21.4659 8.15673 21.4951 8.13643 21.5199 8.11894C21.5332 8.11746 21.5464 8.11554 21.5597 8.11359C21.5799 8.12312 21.6004 8.13759 21.6011 8.16691C21.6096 8.21846 21.5547 8.29052 21.5064 8.2896Z" fill="white"/>
<path d="M22.0368 20.7963L22.036 20.7951L21.6071 20.4737L21.9418 19.6856L21.9428 19.6833L21.9454 19.6644L21.8106 18.9764C21.8105 18.9744 21.8101 18.9726 21.8093 18.971L21.8095 18.9692L21.8039 18.9643C21.8027 18.9611 21.8 18.9591 21.7963 18.9586L21.2316 18.6573L21.2282 18.6556L20.433 18.8601C20.4284 18.8612 20.4272 18.8623 20.4163 18.8719C20.411 18.8765 20.4034 18.8833 20.3937 18.892C20.3754 18.9083 20.3485 18.9323 20.3138 18.9633C20.2554 19.0155 20.1741 19.0882 20.0721 19.1795C19.8986 19.3348 19.723 19.4922 19.7212 19.4937L19.7202 19.4946L19.7065 19.5099L19.7053 19.5184L19.3612 20.3268L19.3603 20.3292L19.3576 20.3481L19.4947 21.0348L19.4947 21.035C19.4942 21.0375 19.4943 21.0399 19.4949 21.042C19.4955 21.0442 19.4966 21.046 19.4981 21.0473L19.5039 21.0524L20.0677 21.3489C20.0687 21.3508 20.0702 21.3522 20.0721 21.353C20.074 21.3538 20.0763 21.354 20.0788 21.3535C20.0815 21.3544 20.0846 21.3544 20.0878 21.3536L20.8768 21.1507L20.88 21.1471C20.8818 21.1463 20.8836 21.1452 20.8852 21.1438L20.8857 21.1437L21.5581 20.5406L21.9798 20.8587C21.9825 20.8609 21.986 20.8623 21.99 20.8626C21.998 20.863 22.0069 20.8607 22.0157 20.856C22.0215 20.8526 22.0267 20.8474 22.0303 20.8414C22.0361 20.8341 22.0398 20.8258 22.0406 20.818C22.0418 20.8096 22.0405 20.802 22.0368 20.7963ZM21.6655 19.7132L21.7723 19.1719L21.8675 19.6613L21.6655 19.7132ZM21.8582 19.7283L21.6148 20.3048L21.6562 19.7802L21.8582 19.7283ZM19.8883 20.8172L20.0255 21.2387L19.5942 21.0101L19.8883 20.8172ZM20.8116 19.288L21.193 18.7638L21.3412 19.2179L20.8116 19.288ZM21.4147 19.1953L21.2775 18.7738L21.7088 19.0024L21.4147 19.1953ZM21.4376 19.2489L21.7297 19.0565L21.6165 19.6319L21.6154 19.6381L21.4376 19.2489ZM19.7223 20.1249L19.7228 20.1191L19.7672 19.5611L19.9198 19.5917L20.0255 19.6121L19.7223 20.1249ZM21.1372 18.7459L20.7547 19.2716L20.4933 18.9114L21.1372 18.7459ZM21.5651 19.8037L21.241 20.3511L21.1424 20.0833L21.0877 19.9264L21.5651 19.8036L21.5651 19.8037ZM21.0972 19.8594L21.3842 19.3216L21.5744 19.7367L21.0972 19.8594ZM20.8029 19.3575L21.3381 19.2861L21.046 19.8333L20.8029 19.3575ZM20.7099 20.4903L21.0254 19.9817L21.1814 20.4136L20.6273 20.6223L20.7099 20.4903ZM20.3285 20.057L20.737 19.399L20.8593 19.6439L20.9839 19.8885L20.3285 20.057ZM20.9746 19.9555L20.5683 20.6131L20.4437 20.3685L20.3192 20.124L20.9746 19.9555ZM20.6015 19.5109L20.2801 20.0301L20.1241 19.5983L20.6761 19.3901L20.6015 19.5109ZM20.5002 20.655L19.9673 20.7258L20.1873 20.3125L20.2593 20.1786L20.5002 20.655ZM19.7404 20.2082L20.0643 19.661L20.162 19.9358L20.2174 20.0856L19.7404 20.2082ZM20.2082 20.1525L19.9213 20.6903L19.731 20.2752L20.2082 20.1525ZM21.581 19.8871L21.5808 19.8886L21.5358 20.4513L21.3832 20.4207L21.2775 20.4004L21.581 19.8871ZM19.8052 19.4918L20.3345 19.0163L20.0655 19.5422L19.8052 19.4918ZM19.8654 20.7636L19.5733 20.956L19.6872 20.3757L19.6875 20.374L19.8654 20.7636ZM20.5506 20.7403L20.8099 21.101L20.166 21.2666L20.5506 20.7403ZM21.4978 20.5206L20.9686 20.9962L21.2375 20.4703L21.4978 20.5206ZM20.138 19.5273L20.4281 18.9605L20.6866 19.3202L20.138 19.5273ZM19.4448 20.2842L19.6882 19.7077L19.6468 20.2323L19.4448 20.2842ZM19.6375 20.2993L19.5308 20.8406L19.4355 20.3512L19.6375 20.2993H19.6375ZM20.4914 20.7245L20.1101 21.2486L19.9619 20.7945L20.4914 20.7245ZM21.165 20.4852L20.8749 21.052L20.6164 20.6923L21.165 20.4852Z" fill="white"/>
<defs>
<linearGradient id="paint0_linear_0_1" x1="2.40601" y1="-0.702785" x2="25.5985" y2="10.0567" gradientUnits="userSpaceOnUse">
<stop stop-color="#87F2E7"/>
<stop offset="1" stop-color="#2E37F2"/>
</linearGradient>
<linearGradient id="paint1_linear_0_1" x1="-0.12013" y1="4.74321" x2="23.0723" y2="15.5028" gradientUnits="userSpaceOnUse">
<stop stop-color="#87F2E7"/>
<stop offset="1" stop-color="#2E37F2"/>
</linearGradient>
<linearGradient id="paint2_linear_0_1" x1="-2.92119" y1="10.7785" x2="20.2714" y2="21.5381" gradientUnits="userSpaceOnUse">
<stop stop-color="#87F2E7"/>
<stop offset="1" stop-color="#2E37F2"/>
</linearGradient>
<linearGradient id="paint3_linear_0_1" x1="-3.01205" y1="10.3548" x2="27.9046" y2="12.0513" gradientUnits="userSpaceOnUse">
<stop stop-color="#87F2E7"/>
<stop offset="1" stop-color="#2E37F2"/>
</linearGradient>
<linearGradient id="paint4_linear_0_1" x1="-5.30475" y1="15.9195" x2="17.8877" y2="26.6791" gradientUnits="userSpaceOnUse">
<stop stop-color="#87F2E7"/>
<stop offset="1" stop-color="#2E37F2"/>
</linearGradient>
<linearGradient id="paint5_linear_0_1" x1="1.91684" y1="0.35136" x2="25.1094" y2="11.1109" gradientUnits="userSpaceOnUse">
<stop stop-color="#87F2E7"/>
<stop offset="1" stop-color="#2E37F2"/>
</linearGradient>
<linearGradient id="paint6_linear_0_1" x1="-0.764636" y1="6.13207" x2="22.4279" y2="16.8917" gradientUnits="userSpaceOnUse">
<stop stop-color="#87F2E7"/>
<stop offset="1" stop-color="#2E37F2"/>
</linearGradient>
<linearGradient id="paint7_linear_0_1" x1="-3.58488" y1="12.2121" x2="19.6076" y2="22.9716" gradientUnits="userSpaceOnUse">
<stop stop-color="#87F2E7"/>
<stop offset="1" stop-color="#2E37F2"/>
</linearGradient>
<linearGradient id="paint8_linear_0_1" x1="-5.84803" y1="17.0884" x2="17.3444" y2="27.848" gradientUnits="userSpaceOnUse">
<stop stop-color="#87F2E7"/>
<stop offset="1" stop-color="#2E37F2"/>
</linearGradient>
<linearGradient id="paint9_linear_0_1" x1="-2.96614" y1="11.9254" x2="28.1662" y2="24.0095" gradientUnits="userSpaceOnUse">
<stop stop-color="#87F2E7"/>
<stop offset="1" stop-color="#2E37F2"/>
</linearGradient>
<linearGradient id="paint10_linear_0_1" x1="0.860501" y1="2.62967" x2="24.053" y2="13.3893" gradientUnits="userSpaceOnUse">
<stop stop-color="#87F2E7"/>
<stop offset="1" stop-color="#2E37F2"/>
</linearGradient>
<linearGradient id="paint11_linear_0_1" x1="1.67363" y1="0.875841" x2="24.866" y2="11.6354" gradientUnits="userSpaceOnUse">
<stop stop-color="#87F2E7"/>
<stop offset="1" stop-color="#2E37F2"/>
</linearGradient>
<linearGradient id="paint12_linear_0_1" x1="-2.53221" y1="1.61548" x2="28.3845" y2="3.31203" gradientUnits="userSpaceOnUse">
<stop stop-color="#87F2E7"/>
<stop offset="1" stop-color="#2E37F2"/>
</linearGradient>
<linearGradient id="paint13_linear_0_1" x1="-1.00975" y1="6.65905" x2="22.1828" y2="17.4186" gradientUnits="userSpaceOnUse">
<stop stop-color="#87F2E7"/>
<stop offset="1" stop-color="#2E37F2"/>
</linearGradient>
<linearGradient id="paint14_linear_0_1" x1="-4.5826" y1="14.3608" x2="18.6098" y2="25.1204" gradientUnits="userSpaceOnUse">
<stop stop-color="#87F2E7"/>
<stop offset="1" stop-color="#2E37F2"/>
</linearGradient>
<linearGradient id="paint15_linear_0_1" x1="-3.7316" y1="12.5259" x2="19.461" y2="23.2856" gradientUnits="userSpaceOnUse">
<stop stop-color="#87F2E7"/>
<stop offset="1" stop-color="#2E37F2"/>
</linearGradient>
<linearGradient id="paint16_linear_0_1" x1="-2.25676" y1="9.34846" x2="20.9357" y2="20.108" gradientUnits="userSpaceOnUse">
<stop stop-color="#87F2E7"/>
<stop offset="1" stop-color="#2E37F2"/>
</linearGradient>
<linearGradient id="paint17_linear_0_1" x1="-4.87805" y1="15" x2="18.3144" y2="25.7595" gradientUnits="userSpaceOnUse">
<stop stop-color="#87F2E7"/>
<stop offset="1" stop-color="#2E37F2"/>
</linearGradient>
</defs>
</svg>
