<svg xmlns="http://www.w3.org/2000/svg" width="17.5" height="20" viewBox="0 0 17.5 20">
  <path id="Path_8217" data-name="Path 8217" d="M11.61-8a1.065,1.065,0,0,0-1.02-1.11A1.065,1.065,0,0,0,9.57-8a1.072,1.072,0,0,0,1.02,1.11A1.065,1.065,0,0,0,11.61-8ZM6.94-9.11A1.065,1.065,0,0,0,5.92-8,1.072,1.072,0,0,0,6.94-6.89,1.065,1.065,0,0,0,7.96-8,1.059,1.059,0,0,0,6.94-9.11ZM17.5-15.44a2.055,2.055,0,0,0-2.05-2.06H2.05A2.055,2.055,0,0,0,0-15.44V-1.92A2.055,2.055,0,0,0,2.05.14H13.39l-.53-1.85C15.786,1.011,14.981.274,17.5,2.5ZM14.65-5.96a3.655,3.655,0,0,1-3.06,1.52s-.36-.43-.66-.81a3.155,3.155,0,0,0,1.81-1.19,5.722,5.722,0,0,1-1.15.59A7.289,7.289,0,0,1,5.35-6.2c-.02-.014-.263-.147-.41-.25A3.11,3.11,0,0,0,6.69-5.27c-.3.38-.67.83-.67.83A3.626,3.626,0,0,1,2.97-5.96a13.392,13.392,0,0,1,1.44-5.83,4.945,4.945,0,0,1,2.81-1.05l.1.12a6.746,6.746,0,0,0-2.63,1.31s.22-.12.59-.29a8.5,8.5,0,0,1,7.47.29,6.656,6.656,0,0,0-2.49-1.27l.14-.16a4.945,4.945,0,0,1,2.81,1.05A13.392,13.392,0,0,1,14.65-5.96Z" transform="translate(0 17.5)" fill="#a0a6bc"/>
</svg>
