<svg xmlns="http://www.w3.org/2000/svg" width="17.51" height="17.506" viewBox="0 0 17.51 17.506">
  <path id="Path_8221" data-name="Path 8221" d="M8.754-11.992A4.481,4.481,0,0,0,4.266-7.5,4.481,4.481,0,0,0,8.754-3.016,4.481,4.481,0,0,0,13.242-7.5,4.481,4.481,0,0,0,8.754-11.992Zm0,7.406A2.923,2.923,0,0,1,5.836-7.5a2.921,2.921,0,0,1,2.918-2.918A2.921,2.921,0,0,1,11.672-7.5,2.923,2.923,0,0,1,8.754-4.586Zm5.719-7.59a1.047,1.047,0,0,0-1.047-1.047,1.047,1.047,0,0,0-1.047,1.047,1.044,1.044,0,0,0,1.047,1.047A1.044,1.044,0,0,0,14.473-12.176Zm2.973,1.063a5.181,5.181,0,0,0-1.414-3.668A5.215,5.215,0,0,0,12.363-16.2c-1.445-.082-5.777-.082-7.223,0a5.207,5.207,0,0,0-3.668,1.41A5.2,5.2,0,0,0,.059-11.117c-.082,1.445-.082,5.777,0,7.223A5.181,5.181,0,0,0,1.473-.227,5.221,5.221,0,0,0,5.141,1.188c1.445.082,5.777.082,7.223,0A5.181,5.181,0,0,0,16.031-.227a5.215,5.215,0,0,0,1.414-3.668C17.527-5.34,17.527-9.668,17.445-11.113Zm-1.867,8.77A2.954,2.954,0,0,1,13.914-.68c-1.152.457-3.887.352-5.16.352s-4.012.1-5.16-.352A2.954,2.954,0,0,1,1.93-2.344C1.473-3.5,1.578-6.23,1.578-7.5s-.1-4.012.352-5.16a2.954,2.954,0,0,1,1.664-1.664c1.152-.457,3.887-.352,5.16-.352s4.012-.1,5.16.352a2.954,2.954,0,0,1,1.664,1.664c.457,1.152.352,3.887.352,5.16S16.035-3.492,15.578-2.344Z" transform="translate(0.003 16.257)" fill="#a0a6bc"/>
</svg>
