<svg xmlns="http://www.w3.org/2000/svg" width="18.895" height="14.992" viewBox="0 0 18.895 14.992">
  <path id="Path_8220" data-name="Path 8220" d="M2.793-11.941V-3.59a.952.952,0,0,1-.254.828L.555-.352v.313H6.18V-.355L4.2-2.762a.984.984,0,0,1-.273-.828v-7.223L8.859-.035h.574L13.68-10.812v8.586c0,.227,0,.273-.148.422L12-.324v.316h7.41V-.324L17.941-1.77a.44.44,0,0,1-.168-.422V-12.816a.44.44,0,0,1,.168-.422l1.508-1.445V-15H14.227L10.5-5.715,6.27-15H.793v.316l1.762,2.125A.738.738,0,0,1,2.793-11.941Z" transform="translate(-0.555 15)" fill="#a0a6bc"/>
</svg>
