<svg xmlns="http://www.w3.org/2000/svg" width="19.375" height="19.375" viewBox="0 0 19.375 19.375">
  <path id="Path_8216" data-name="Path 8216" d="M7.871-5.566a.963.963,0,0,0,.961-.961A.965.965,0,0,0,7.871-7.5a.97.97,0,0,0-.973.973A.968.968,0,0,0,7.871-5.566ZM19.688-7.5A9.686,9.686,0,0,0,10-17.187,9.686,9.686,0,0,0,.313-7.5,9.686,9.686,0,0,0,10,2.188,9.686,9.686,0,0,0,19.688-7.5ZM14.52-9.109A1.289,1.289,0,0,1,15.1-6.668a2.494,2.494,0,0,1,.074.617c0,2.055-2.313,3.719-5.168,3.719S4.852-4,4.852-6.051a2.818,2.818,0,0,1,.066-.605A1.29,1.29,0,0,1,5.48-9.109a1.294,1.294,0,0,1,.941.4,6.372,6.372,0,0,1,3.34-1.047l.746-3.375a.231.231,0,0,1,.27-.172l2.391.531a.978.978,0,0,1,.863-.539A.975.975,0,0,1,15-12.34a.975.975,0,0,1-.973.973.963.963,0,0,1-.961-.961l-2.164-.488-.68,3.059A6.315,6.315,0,0,1,13.59-8.719,1.307,1.307,0,0,1,14.52-9.109ZM11.828-4.57a3.424,3.424,0,0,1-3.656,0,.236.236,0,0,0-.324,0,.229.229,0,0,0,0,.336,3.8,3.8,0,0,0,4.3,0,.229.229,0,0,0,0-.336A.236.236,0,0,0,11.828-4.57Zm.3-2.93a.965.965,0,0,0-.961.973.963.963,0,0,0,.961.961.968.968,0,0,0,.973-.961A.968.968,0,0,0,12.129-7.5Z" transform="translate(-0.313 17.188)" fill="#a0a6bc"/>
</svg>
