<svg xmlns="http://www.w3.org/2000/svg" width="20" height="16.244" viewBox="0 0 20 16.244">
  <path id="Path_8223" data-name="Path 8223" d="M17.944-11.574A8.811,8.811,0,0,0,20-13.693a8.218,8.218,0,0,1-2.36.634,4.088,4.088,0,0,0,1.8-2.259,8.07,8.07,0,0,1-2.6.99,4.089,4.089,0,0,0-2.995-1.294,4.1,4.1,0,0,0-4.1,4.1,4.627,4.627,0,0,0,.1.939A11.651,11.651,0,0,1,1.4-14.873,4.068,4.068,0,0,0,.838-12.8,4.1,4.1,0,0,0,2.665-9.391a4.128,4.128,0,0,1-1.853-.52v.051A4.1,4.1,0,0,0,4.1-5.838,4.334,4.334,0,0,1,3.02-5.7a5.166,5.166,0,0,1-.774-.063A4.106,4.106,0,0,0,6.079-2.919,8.209,8.209,0,0,1,.99-1.167,8.483,8.483,0,0,1,0-1.218,11.583,11.583,0,0,0,6.294.622,11.583,11.583,0,0,0,17.957-11.041C17.957-11.218,17.957-11.4,17.944-11.574Z" transform="translate(0 15.622)" fill="#a0a6bc"/>
</svg>
