<svg xmlns="http://www.w3.org/2000/svg" width="21.333" height="15" viewBox="0 0 21.333 15">
  <path id="Path_8218" data-name="Path 8218" d="M21.471-12.653a2.68,2.68,0,0,0-1.886-1.9C17.921-15,11.25-15,11.25-15s-6.671,0-8.335.449a2.681,2.681,0,0,0-1.886,1.9A28.12,28.12,0,0,0,.583-7.485a28.12,28.12,0,0,0,.446,5.168A2.641,2.641,0,0,0,2.915-.449C4.579,0,11.25,0,11.25,0s6.671,0,8.335-.449a2.641,2.641,0,0,0,1.886-1.868,28.12,28.12,0,0,0,.446-5.168A28.12,28.12,0,0,0,21.471-12.653Zm-12.4,8.34v-6.344l5.576,3.172Z" transform="translate(-0.583 15)" fill="#a0a6bc"/>
</svg>
